%TF.GenerationSoftware,KiCad,Pcbnew,10.0.4*%
%TF.CreationDate,2026-09-01T18:39:07+02:00*%
%TF.ProjectId,smartbag_taxels,736d6172-7462-4616-975f-746178656c73,rev?*%
%TF.SameCoordinates,Original*%
%TF.FileFunction,Drillmap*%
%TF.FilePolarity,Positive*%
%FSLAX45Y45*%
G04 Gerber Fmt 4.5, Leading zero omitted, Abs format (unit mm)*
G04 Created by KiCad (PCBNEW 10.0.4) date 2026-09-01 18:39:07*
%MOMM*%
%LPD*%
G01*
G04 APERTURE LIST*
%ADD10C,0.100000*%
%ADD11C,0.200000*%
G04 APERTURE END LIST*
D10*
X8850000Y-10700000D02*
X32450000Y-10700000D01*
X32450000Y-10700000D02*
X32450000Y-21300000D01*
X32450000Y-21300000D02*
X8850000Y-21300000D01*
X8850000Y-21300000D02*
X8850000Y-10700000D01*
D11*
X9105777Y-21616484D02*
X9105777Y-21416484D01*
X9105777Y-21416484D02*
X9153396Y-21416484D01*
X9153396Y-21416484D02*
X9181967Y-21426008D01*
X9181967Y-21426008D02*
X9201015Y-21445055D01*
X9201015Y-21445055D02*
X9210539Y-21464103D01*
X9210539Y-21464103D02*
X9220063Y-21502198D01*
X9220063Y-21502198D02*
X9220063Y-21530770D01*
X9220063Y-21530770D02*
X9210539Y-21568865D01*
X9210539Y-21568865D02*
X9201015Y-21587912D01*
X9201015Y-21587912D02*
X9181967Y-21606960D01*
X9181967Y-21606960D02*
X9153396Y-21616484D01*
X9153396Y-21616484D02*
X9105777Y-21616484D01*
X9305777Y-21616484D02*
X9305777Y-21483150D01*
X9305777Y-21521246D02*
X9315301Y-21502198D01*
X9315301Y-21502198D02*
X9324824Y-21492674D01*
X9324824Y-21492674D02*
X9343872Y-21483150D01*
X9343872Y-21483150D02*
X9362920Y-21483150D01*
X9429586Y-21616484D02*
X9429586Y-21483150D01*
X9429586Y-21416484D02*
X9420063Y-21426008D01*
X9420063Y-21426008D02*
X9429586Y-21435531D01*
X9429586Y-21435531D02*
X9439110Y-21426008D01*
X9439110Y-21426008D02*
X9429586Y-21416484D01*
X9429586Y-21416484D02*
X9429586Y-21435531D01*
X9553396Y-21616484D02*
X9534348Y-21606960D01*
X9534348Y-21606960D02*
X9524824Y-21587912D01*
X9524824Y-21587912D02*
X9524824Y-21416484D01*
X9658158Y-21616484D02*
X9639110Y-21606960D01*
X9639110Y-21606960D02*
X9629586Y-21587912D01*
X9629586Y-21587912D02*
X9629586Y-21416484D01*
X9886729Y-21616484D02*
X9886729Y-21416484D01*
X9886729Y-21416484D02*
X9953396Y-21559341D01*
X9953396Y-21559341D02*
X10020063Y-21416484D01*
X10020063Y-21416484D02*
X10020063Y-21616484D01*
X10201015Y-21616484D02*
X10201015Y-21511722D01*
X10201015Y-21511722D02*
X10191491Y-21492674D01*
X10191491Y-21492674D02*
X10172444Y-21483150D01*
X10172444Y-21483150D02*
X10134348Y-21483150D01*
X10134348Y-21483150D02*
X10115301Y-21492674D01*
X10201015Y-21606960D02*
X10181967Y-21616484D01*
X10181967Y-21616484D02*
X10134348Y-21616484D01*
X10134348Y-21616484D02*
X10115301Y-21606960D01*
X10115301Y-21606960D02*
X10105777Y-21587912D01*
X10105777Y-21587912D02*
X10105777Y-21568865D01*
X10105777Y-21568865D02*
X10115301Y-21549817D01*
X10115301Y-21549817D02*
X10134348Y-21540293D01*
X10134348Y-21540293D02*
X10181967Y-21540293D01*
X10181967Y-21540293D02*
X10201015Y-21530770D01*
X10296253Y-21483150D02*
X10296253Y-21683150D01*
X10296253Y-21492674D02*
X10315301Y-21483150D01*
X10315301Y-21483150D02*
X10353396Y-21483150D01*
X10353396Y-21483150D02*
X10372444Y-21492674D01*
X10372444Y-21492674D02*
X10381967Y-21502198D01*
X10381967Y-21502198D02*
X10391491Y-21521246D01*
X10391491Y-21521246D02*
X10391491Y-21578389D01*
X10391491Y-21578389D02*
X10381967Y-21597436D01*
X10381967Y-21597436D02*
X10372444Y-21606960D01*
X10372444Y-21606960D02*
X10353396Y-21616484D01*
X10353396Y-21616484D02*
X10315301Y-21616484D01*
X10315301Y-21616484D02*
X10296253Y-21606960D01*
X10477205Y-21597436D02*
X10486729Y-21606960D01*
X10486729Y-21606960D02*
X10477205Y-21616484D01*
X10477205Y-21616484D02*
X10467682Y-21606960D01*
X10467682Y-21606960D02*
X10477205Y-21597436D01*
X10477205Y-21597436D02*
X10477205Y-21616484D01*
X10477205Y-21492674D02*
X10486729Y-21502198D01*
X10486729Y-21502198D02*
X10477205Y-21511722D01*
X10477205Y-21511722D02*
X10467682Y-21502198D01*
X10467682Y-21502198D02*
X10477205Y-21492674D01*
X10477205Y-21492674D02*
X10477205Y-21511722D01*
M02*
