%TF.GenerationSoftware,KiCad,Pcbnew,10.0.4*%
%TF.CreationDate,2026-09-01T18:39:06+02:00*%
%TF.ProjectId,smartbag_taxels,736d6172-7462-4616-975f-746178656c73,rev?*%
%TF.SameCoordinates,Original*%
%TF.FileFunction,Copper,L2,Bot*%
%TF.FilePolarity,Positive*%
%FSLAX46Y46*%
G04 Gerber Fmt 4.6, Leading zero omitted, Abs format (unit mm)*
G04 Created by KiCad (PCBNEW 10.0.4) date 2026-09-01 18:39:06*
%MOMM*%
%LPD*%
G01*
G04 APERTURE LIST*
%TA.AperFunction,ViaPad*%
%ADD10C,0.450000*%
%TD*%
%TA.AperFunction,Conductor*%
%ADD11C,0.800000*%
%TD*%
%TA.AperFunction,Conductor*%
%ADD12C,0.300000*%
%TD*%
G04 APERTURE END LIST*
D10*
%TO.N,FSR_R0*%
X109612500Y-121900000D03*
X123675000Y-121900000D03*
X137737500Y-121900000D03*
X151800000Y-121900000D03*
X165862500Y-121900000D03*
X179925000Y-121900000D03*
X193987500Y-121900000D03*
X208050000Y-121900000D03*
X222112500Y-121900000D03*
X236175000Y-121900000D03*
X250237500Y-121900000D03*
X264300000Y-121900000D03*
X278362500Y-121900000D03*
X292425000Y-121900000D03*
X306487500Y-121900000D03*
X320550000Y-121900000D03*
%TO.N,FSR_R1*%
X109612500Y-134900000D03*
X123675000Y-134900000D03*
X137737500Y-134900000D03*
X151800000Y-134900000D03*
X165862500Y-134900000D03*
X179925000Y-134900000D03*
X193987500Y-134900000D03*
X208050000Y-134900000D03*
X222112500Y-134900000D03*
X236175000Y-134900000D03*
X250237500Y-134900000D03*
X264300000Y-134900000D03*
X278362500Y-134900000D03*
X292425000Y-134900000D03*
X306487500Y-134900000D03*
X320550000Y-134900000D03*
%TO.N,FSR_R2*%
X109612500Y-147900000D03*
X123675000Y-147900000D03*
X137737500Y-147900000D03*
X151800000Y-147900000D03*
X165862500Y-147900000D03*
X179925000Y-147900000D03*
X193987500Y-147900000D03*
X208050000Y-147900000D03*
X222112500Y-147900000D03*
X236175000Y-147900000D03*
X250237500Y-147900000D03*
X264300000Y-147900000D03*
X278362500Y-147900000D03*
X292425000Y-147900000D03*
X306487500Y-147900000D03*
X320550000Y-147900000D03*
%TO.N,FSR_R3*%
X109612500Y-160900000D03*
X123675000Y-160900000D03*
X137737500Y-160900000D03*
X151800000Y-160900000D03*
X165862500Y-160900000D03*
X179925000Y-160900000D03*
X193987500Y-160900000D03*
X208050000Y-160900000D03*
X222112500Y-160900000D03*
X236175000Y-160900000D03*
X250237500Y-160900000D03*
X264300000Y-160900000D03*
X278362500Y-160900000D03*
X292425000Y-160900000D03*
X306487500Y-160900000D03*
X320550000Y-160900000D03*
%TO.N,FSR_R4*%
X109612500Y-173900000D03*
X123675000Y-173900000D03*
X137737500Y-173900000D03*
X151800000Y-173900000D03*
X165862500Y-173900000D03*
X179925000Y-173900000D03*
X193987500Y-173900000D03*
X208050000Y-173900000D03*
X222112500Y-173900000D03*
X236175000Y-173900000D03*
X250237500Y-173900000D03*
X264300000Y-173900000D03*
X278362500Y-173900000D03*
X292425000Y-173900000D03*
X306487500Y-173900000D03*
X320550000Y-173900000D03*
%TO.N,FSR_R5*%
X109612500Y-186900000D03*
X123675000Y-186900000D03*
X137737500Y-186900000D03*
X151800000Y-186900000D03*
X165862500Y-186900000D03*
X179925000Y-186900000D03*
X193987500Y-186900000D03*
X208050000Y-186900000D03*
X222112500Y-186900000D03*
X236175000Y-186900000D03*
X250237500Y-186900000D03*
X264300000Y-186900000D03*
X278362500Y-186900000D03*
X292425000Y-186900000D03*
X306487500Y-186900000D03*
X320550000Y-186900000D03*
%TO.N,FSR_R0*%
X212750000Y-207250000D03*
%TO.N,FSR_R1*%
X213250000Y-206400000D03*
%TO.N,FSR_R2*%
X213750000Y-205550000D03*
%TO.N,FSR_R3*%
X214250000Y-204700000D03*
%TO.N,FSR_R4*%
X214750000Y-203850000D03*
%TO.N,FSR_R5*%
X215250000Y-203000000D03*
%TO.N,GND*%
X204250000Y-209600000D03*
X215750000Y-209600000D03*
%TD*%
%TO.N,FSR_R0*%
D11*
X90000000Y-121900000D02*
X321500000Y-121900000D01*
%TO.N,FSR_R1*%
X91200000Y-134900000D02*
X321500000Y-134900000D01*
%TO.N,FSR_R2*%
X92400000Y-147900000D02*
X321500000Y-147900000D01*
%TO.N,FSR_R3*%
X93600000Y-160900000D02*
X321500000Y-160900000D01*
%TO.N,FSR_R4*%
X94800000Y-173900000D02*
X321500000Y-173900000D01*
%TO.N,FSR_R5*%
X96000000Y-186900000D02*
X321500000Y-186900000D01*
%TO.N,FSR_R0*%
D12*
X212750000Y-207250000D02*
X90000000Y-207250000D01*
X90000000Y-207250000D02*
X90000000Y-121900000D01*
%TO.N,FSR_R1*%
X213250000Y-206400000D02*
X91200000Y-206400000D01*
X91200000Y-206400000D02*
X91200000Y-134900000D01*
%TO.N,FSR_R2*%
X213750000Y-205550000D02*
X92400000Y-205550000D01*
X92400000Y-205550000D02*
X92400000Y-147900000D01*
%TO.N,FSR_R3*%
X214250000Y-204700000D02*
X93600000Y-204700000D01*
X93600000Y-204700000D02*
X93600000Y-160900000D01*
%TO.N,FSR_R4*%
X214750000Y-203850000D02*
X94800000Y-203850000D01*
X94800000Y-203850000D02*
X94800000Y-173900000D01*
%TO.N,FSR_R5*%
X215250000Y-203000000D02*
X96000000Y-203000000D01*
X96000000Y-203000000D02*
X96000000Y-186900000D01*
%TO.N,GND*%
D11*
X204250000Y-209600000D02*
X215750000Y-209600000D01*
%TD*%
M02*
