M48
; DRILL file KiCad 10.0.4 date 2026-09-02T14:46:37
; FORMAT={-:-/ absolute / metric / decimal}
; #@! TF.CreationDate,2026-09-02T14:46:37+02:00
; #@! TF.GenerationSoftware,Kicad,Pcbnew,10.0.4
; #@! TF.FileFunction,Plated,1,2,PTH
FMAT,2
METRIC
; #@! TA.AperFunction,Plated,PTH,ViaDrill
T1C0.250
%
G90
G05
T1
X109.612Y-121.9
X109.612Y-134.9
X109.612Y-147.9
X109.612Y-160.9
X109.612Y-173.9
X109.612Y-186.9
X123.675Y-121.9
X123.675Y-134.9
X123.675Y-147.9
X123.675Y-160.9
X123.675Y-173.9
X123.675Y-186.9
X137.737Y-121.9
X137.737Y-134.9
X137.737Y-147.9
X137.737Y-160.9
X137.737Y-173.9
X137.737Y-186.9
X151.8Y-121.9
X151.8Y-134.9
X151.8Y-147.9
X151.8Y-160.9
X151.8Y-173.9
X151.8Y-186.9
X165.862Y-121.9
X165.862Y-134.9
X165.862Y-147.9
X165.862Y-160.9
X165.862Y-173.9
X165.862Y-186.9
X179.925Y-121.9
X179.925Y-134.9
X179.925Y-147.9
X179.925Y-160.9
X179.925Y-173.9
X179.925Y-186.9
X193.987Y-121.9
X193.987Y-134.9
X193.987Y-147.9
X193.987Y-160.9
X193.987Y-173.9
X193.987Y-186.9
X204.25Y-209.6
X208.05Y-121.9
X208.05Y-134.9
X208.05Y-147.9
X208.05Y-160.9
X208.05Y-173.9
X208.05Y-186.9
X212.75Y-207.25
X213.25Y-206.4
X213.75Y-205.55
X214.25Y-204.7
X214.75Y-203.85
X215.25Y-203.0
X215.75Y-209.6
X222.112Y-121.9
X222.112Y-134.9
X222.112Y-147.9
X222.112Y-160.9
X222.112Y-173.9
X222.112Y-186.9
X236.175Y-121.9
X236.175Y-134.9
X236.175Y-147.9
X236.175Y-160.9
X236.175Y-173.9
X236.175Y-186.9
X250.237Y-121.9
X250.237Y-134.9
X250.237Y-147.9
X250.237Y-160.9
X250.237Y-173.9
X250.237Y-186.9
X264.3Y-121.9
X264.3Y-134.9
X264.3Y-147.9
X264.3Y-160.9
X264.3Y-173.9
X264.3Y-186.9
X278.363Y-121.9
X278.363Y-134.9
X278.363Y-147.9
X278.363Y-160.9
X278.363Y-173.9
X278.363Y-186.9
X292.425Y-121.9
X292.425Y-134.9
X292.425Y-147.9
X292.425Y-160.9
X292.425Y-173.9
X292.425Y-186.9
X306.488Y-121.9
X306.488Y-134.9
X306.488Y-147.9
X306.488Y-160.9
X306.488Y-173.9
X306.488Y-186.9
X320.55Y-121.9
X320.55Y-134.9
X320.55Y-147.9
X320.55Y-160.9
X320.55Y-173.9
X320.55Y-186.9
M30
