%TF.GenerationSoftware,KiCad,Pcbnew,10.0.4*%
%TF.CreationDate,2026-08-31T10:03:01+02:00*%
%TF.ProjectId,smartbag_core,736d6172-7462-4616-975f-636f72652e6b,rev?*%
%TF.SameCoordinates,Original*%
%TF.FileFunction,Copper,L4,Bot*%
%TF.FilePolarity,Positive*%
%FSLAX46Y46*%
G04 Gerber Fmt 4.6, Leading zero omitted, Abs format (unit mm)*
G04 Created by KiCad (PCBNEW 10.0.4) date 2026-08-31 10:03:01*
%MOMM*%
%LPD*%
G01*
G04 APERTURE LIST*
%TA.AperFunction,ViaPad*%
%ADD10C,0.250000*%
%TD*%
%TA.AperFunction,Conductor*%
%ADD11C,0.300000*%
%TD*%
%TA.AperFunction,Conductor*%
%ADD12C,0.100000*%
%TD*%
G04 APERTURE END LIST*
D10*
%TO.N,VDD_1V8*%
X296750000Y-146250000D03*
X122860000Y-150663000D03*
X208651000Y-152906000D03*
X299750000Y-146250000D03*
X120250000Y-149750000D03*
X297947000Y-151988000D03*
X296100000Y-151995000D03*
X123250000Y-146250000D03*
X122750000Y-145319000D03*
X297014000Y-145388000D03*
X230847000Y-156811000D03*
X122705000Y-152074000D03*
X296750000Y-149750000D03*
X120161000Y-152209000D03*
X209174000Y-144890000D03*
X297250000Y-150678000D03*
X239229000Y-156811000D03*
X123250000Y-149750000D03*
X209929000Y-142780000D03*
%TO.N,GND*%
X134000000Y-145400000D03*
X285000000Y-150600000D03*
X184000000Y-157300000D03*
X240000000Y-157300000D03*
X199248899Y-141880500D03*
X267000000Y-145400000D03*
X240000000Y-138700000D03*
X229370926Y-150390325D03*
X261000000Y-145400000D03*
X196000000Y-138700000D03*
X172000000Y-138700000D03*
X161000000Y-150600000D03*
X176000000Y-138700000D03*
X164000000Y-157300000D03*
X220000000Y-138700000D03*
X140000000Y-150600000D03*
X140000000Y-145400000D03*
X158000000Y-150600000D03*
X288000000Y-145400000D03*
X279000000Y-150600000D03*
X124000000Y-155600000D03*
X184000000Y-138700000D03*
X276000000Y-150600000D03*
X180956511Y-148899116D03*
X212000000Y-157300000D03*
X273000000Y-145400000D03*
X116000000Y-155600000D03*
X137000000Y-145400000D03*
X143000000Y-145400000D03*
X149000000Y-150600000D03*
X236000000Y-138700000D03*
X146000000Y-145400000D03*
X248000000Y-138700000D03*
X124000000Y-140400000D03*
X193344726Y-145718693D03*
X200000000Y-157300000D03*
X188000000Y-138700000D03*
X270000000Y-150600000D03*
X180000000Y-138700000D03*
X300000000Y-155600000D03*
X261000000Y-150600000D03*
X134000000Y-150600000D03*
X164000000Y-138700000D03*
X232000000Y-157300000D03*
X120000000Y-140400000D03*
X248000000Y-157300000D03*
X161000000Y-145400000D03*
X188000000Y-157300000D03*
X252000000Y-157300000D03*
X168000000Y-138700000D03*
X304000000Y-140400000D03*
X296000000Y-140400000D03*
X267000000Y-150600000D03*
X300000000Y-140400000D03*
X216000000Y-138700000D03*
X128000000Y-140400000D03*
X208000000Y-138700000D03*
X146000000Y-150600000D03*
X204000000Y-157300000D03*
X282000000Y-150600000D03*
X276000000Y-145400000D03*
X292000000Y-140400000D03*
X120000000Y-155600000D03*
X128000000Y-155600000D03*
X152000000Y-150600000D03*
X256000000Y-138700000D03*
X279000000Y-145400000D03*
X273000000Y-150600000D03*
X208000000Y-157300000D03*
X264000000Y-145400000D03*
X168000000Y-157300000D03*
X304000000Y-155600000D03*
X192000000Y-138700000D03*
X264000000Y-150600000D03*
X224000000Y-138700000D03*
X236000000Y-157300000D03*
X282000000Y-145400000D03*
X137000000Y-150600000D03*
X204000000Y-138700000D03*
X256000000Y-157300000D03*
X212000000Y-138700000D03*
X143000000Y-150600000D03*
X152000000Y-145400000D03*
X288000000Y-150600000D03*
X244000000Y-138700000D03*
X292000000Y-155600000D03*
X244000000Y-157300000D03*
X228000000Y-138700000D03*
X270000000Y-145400000D03*
X149000000Y-145400000D03*
X155000000Y-145400000D03*
X116000000Y-140400000D03*
X196000000Y-157300000D03*
X220543133Y-147624275D03*
X158000000Y-145400000D03*
X155000000Y-150600000D03*
X252000000Y-138700000D03*
X243005524Y-149029650D03*
X285000000Y-145400000D03*
X232000000Y-138700000D03*
X200000000Y-138700000D03*
X296000000Y-155600000D03*
X192000000Y-157300000D03*
%TO.N,FSR_C9*%
X245814000Y-139014000D03*
X254614000Y-149981000D03*
X229782000Y-154179000D03*
%TO.N,VREF*%
X231669000Y-145265000D03*
X230985000Y-150000000D03*
X235245000Y-150776000D03*
X232901000Y-153542000D03*
X235041000Y-150109000D03*
%TO.N,NTC*%
X225350000Y-142300000D03*
X219980000Y-147625000D03*
%TO.N,FSR_R5*%
X241257000Y-148359000D03*
X251804000Y-141155000D03*
X244214000Y-142563000D03*
X237445000Y-152512000D03*
%TO.N,ADC5*%
X236583000Y-146360000D03*
X237154000Y-153597000D03*
X240356000Y-148039000D03*
X195000000Y-144410000D03*
%TO.N,FSR_C5*%
X244184000Y-141583000D03*
X246996000Y-150856000D03*
X239913000Y-155218000D03*
%TO.N,FSR_C15*%
X248283000Y-141716000D03*
X251380000Y-152733000D03*
X245336000Y-152968000D03*
%TO.N,I2C_SCL*%
X174634000Y-149367000D03*
X204650000Y-141553000D03*
X196536000Y-151117000D03*
X201392000Y-141201000D03*
X207649000Y-150972000D03*
X182204000Y-150722000D03*
%TO.N,VDD_3V3*%
X119866000Y-145560000D03*
X300665000Y-146250000D03*
X198772000Y-147415000D03*
X209568000Y-152128000D03*
X237656000Y-151256000D03*
X119340000Y-149865000D03*
X182821000Y-152472000D03*
X196330000Y-153592000D03*
X173854000Y-141000000D03*
X212498000Y-143091000D03*
X209308000Y-144371000D03*
X246580000Y-147378000D03*
X198772000Y-141394000D03*
X227295000Y-150510000D03*
X204150000Y-142386000D03*
X201575000Y-142000000D03*
X224975000Y-148160000D03*
X125046000Y-152526000D03*
X207087000Y-142675000D03*
X211752000Y-150074000D03*
X185235000Y-149200000D03*
X191398000Y-145050000D03*
X231413000Y-140950000D03*
X257065000Y-148622000D03*
X213369000Y-152998000D03*
X293801000Y-152410000D03*
X205150000Y-141631000D03*
X189384000Y-153597000D03*
X227914000Y-141159000D03*
X299750000Y-150680000D03*
X203955000Y-153000000D03*
X232930000Y-141415000D03*
X228707000Y-143857000D03*
%TO.N,LED0*%
X224588000Y-149744000D03*
X216475000Y-144512000D03*
%TO.N,X24L_2*%
X117927000Y-142058000D03*
X128510000Y-142066000D03*
X121137000Y-150621000D03*
%TO.N,VQI*%
X216036000Y-142016000D03*
X222959000Y-151020000D03*
X215427000Y-146775000D03*
%TO.N,I2C_SDA*%
X191012000Y-150756000D03*
X189177000Y-148557000D03*
X196925000Y-151061000D03*
X197037000Y-142401000D03*
%TO.N,FSR_R4*%
X251038000Y-141391000D03*
X237131000Y-149719000D03*
%TO.N,ADC4*%
X236758000Y-146743000D03*
X195798000Y-144125000D03*
%TO.N,VSYS*%
X224341000Y-142542000D03*
X207659000Y-142752000D03*
X222967000Y-147378000D03*
X207645000Y-146706000D03*
%TO.N,SW1*%
X207506000Y-153778000D03*
X209085000Y-146125000D03*
%TO.N,SW2*%
X209061000Y-147276000D03*
X210344000Y-152908000D03*
%TO.N,VBAT*%
X214030000Y-142076000D03*
X216494000Y-152005000D03*
X215408000Y-147700000D03*
%TO.N,VBUSOUT*%
X218096000Y-142076000D03*
X215358000Y-145792000D03*
%TO.N,VDD_CAM*%
X211438000Y-143829000D03*
X181607000Y-148240000D03*
X212885000Y-143550000D03*
X193646000Y-143816000D03*
%TO.N,FSR_C7*%
X243716000Y-154276000D03*
X247468000Y-149188000D03*
X244887000Y-141581000D03*
%TO.N,FSR_C8*%
X228502000Y-153885000D03*
X245150000Y-139204000D03*
X254621000Y-149391000D03*
%TO.N,IMU_INT1*%
X199080000Y-149252000D03*
X202821000Y-142672000D03*
%TO.N,FSR_R2*%
X233095000Y-151847000D03*
X250150000Y-141030000D03*
X232572000Y-146097000D03*
X238724000Y-145648000D03*
%TO.N,ADC2*%
X207780000Y-151414000D03*
X233038000Y-152231000D03*
X190358000Y-148377000D03*
X232750000Y-146557000D03*
%TO.N,X24R_1*%
X300105000Y-145816000D03*
X294936000Y-142916000D03*
X291492000Y-143179000D03*
%TO.N,CAM_PWDN*%
X190423000Y-145794000D03*
X178807000Y-151226000D03*
X185261000Y-151124000D03*
%TO.N,CAM_RESET*%
X190423000Y-146156000D03*
X183065000Y-150281000D03*
%TO.N,MUX_S0*%
X244920000Y-154479000D03*
X229928000Y-154580000D03*
X226538000Y-146446000D03*
X189814000Y-146313000D03*
%TO.N,MUX_S1*%
X189532000Y-146858000D03*
X204084000Y-153487000D03*
X247345000Y-154854000D03*
%TO.N,ADC0*%
X227356000Y-148575000D03*
X229170000Y-146941000D03*
X190126000Y-147826000D03*
%TO.N,ADC1*%
X229308000Y-152466000D03*
X189906000Y-148102000D03*
X231464000Y-146600000D03*
X205160000Y-151717000D03*
%TO.N,ADC3*%
X234538000Y-148250000D03*
X189670000Y-148408000D03*
%TO.N,MUX_S2*%
X252315000Y-154996000D03*
X204978000Y-154085000D03*
X207763000Y-154578000D03*
X189962000Y-148994000D03*
%TO.N,MUX_S3*%
X225950000Y-150075000D03*
X229453000Y-155572000D03*
X189873000Y-150002000D03*
X241301000Y-155974000D03*
%TO.N,SPI_SCK*%
X184573000Y-150409000D03*
X186567000Y-154828000D03*
X175602000Y-149372000D03*
X119410000Y-146413000D03*
X300616000Y-150234000D03*
X184975000Y-153236000D03*
%TO.N,SPI_MOSI*%
X185976000Y-150779000D03*
X191285000Y-144031000D03*
X301100000Y-148600000D03*
X119389000Y-148250000D03*
X194977000Y-143902000D03*
X176032000Y-151197000D03*
%TO.N,CS_RADAR_L*%
X191761000Y-152166000D03*
X182189000Y-152117000D03*
X120250000Y-146250000D03*
%TO.N,SPI_MISO*%
X123440000Y-147227000D03*
X181609000Y-152695000D03*
X251529000Y-155793000D03*
X166153000Y-145676000D03*
X194310000Y-154820000D03*
X169753000Y-145676000D03*
X176490000Y-151129000D03*
X253841000Y-155793000D03*
X301682000Y-149250000D03*
X210079000Y-157078000D03*
X192310000Y-152448000D03*
X231245000Y-157078000D03*
%TO.N,CS_RADAR_R*%
X251372000Y-157577000D03*
X301093000Y-149712000D03*
X193037000Y-151731000D03*
X299750000Y-149750000D03*
%TO.N,CS_CAM*%
X177154000Y-151292000D03*
X192946000Y-152586000D03*
X185565000Y-151686000D03*
%TO.N,RADAR_EN*%
X211250000Y-157244000D03*
X193060000Y-154828000D03*
X252229000Y-157008000D03*
X191658000Y-153426000D03*
X239600000Y-157244000D03*
X162342000Y-151973000D03*
X212623000Y-157244000D03*
X123068000Y-151306000D03*
X301367000Y-144890000D03*
%TO.N,RADAR_IRQ_L*%
X123428000Y-148562000D03*
X194016000Y-151560000D03*
%TO.N,RADAR_IRQ_R*%
X194600000Y-151775000D03*
X227364000Y-147775000D03*
X243778000Y-138977000D03*
X197935000Y-148407000D03*
X246316000Y-138733000D03*
X296318000Y-147437000D03*
%TO.N,MUX_EN_N*%
X193258000Y-153364000D03*
X198772000Y-153331000D03*
X252836000Y-154475000D03*
X245255000Y-155607000D03*
%TO.N,SWDIO*%
X176312000Y-139992000D03*
X198096000Y-149074000D03*
%TO.N,SWDCLK*%
X175456000Y-142012000D03*
X197578000Y-149691000D03*
%TO.N,HALL_OUT*%
X197640000Y-149138000D03*
X185635000Y-150950000D03*
%TO.N,NRESET*%
X197686000Y-147867000D03*
X222780000Y-148502000D03*
%TO.N,ANT_FEED*%
X167999000Y-152000000D03*
X197912000Y-147314000D03*
X170639000Y-147379000D03*
%TO.N,DECRF*%
X197320000Y-143471000D03*
X197883000Y-146962000D03*
%TO.N,XTAL32M_1*%
X197593000Y-146600000D03*
X184986000Y-142342000D03*
%TO.N,XTAL32M_2*%
X197042000Y-142836000D03*
X197593000Y-146200000D03*
%TO.N,DECA*%
X188440000Y-145420000D03*
X193800000Y-144411000D03*
%TO.N,DECD*%
X189884000Y-143813000D03*
X187120000Y-146834000D03*
%TO.N,DCC*%
X192531000Y-144417000D03*
X186539000Y-153240000D03*
%TO.N,X24R_2*%
X300796000Y-142548000D03*
X299335000Y-145396000D03*
%TO.N,FSR_C14*%
X253929000Y-152670000D03*
X244038000Y-152792000D03*
X248014000Y-141488000D03*
%TO.N,FSR_SINK*%
X232611000Y-145323000D03*
X237635000Y-148433000D03*
%TO.N,FSR_C6*%
X247267000Y-149900000D03*
X241641000Y-155000000D03*
X244536000Y-141584000D03*
%TO.N,FSR_C4*%
X237912000Y-155393000D03*
X246684000Y-151041000D03*
X243828000Y-141775000D03*
%TO.N,FSR_C3*%
X243726000Y-151461000D03*
X235317000Y-155623000D03*
X243542000Y-142060000D03*
%TO.N,FSR_C2*%
X242841000Y-142456000D03*
X246616000Y-152133000D03*
X232759000Y-155898000D03*
%TO.N,FSR_C1*%
X241787000Y-141030000D03*
X247375000Y-153695000D03*
X230946000Y-154798000D03*
%TO.N,FSR_C0*%
X228070000Y-156102000D03*
X241435000Y-141314000D03*
X232065000Y-152775000D03*
%TO.N,FSR_C13*%
X254545000Y-152254000D03*
X248167000Y-142094000D03*
X239072000Y-155218000D03*
%TO.N,FSR_C12*%
X254613000Y-151875000D03*
X236530000Y-154779000D03*
X247150000Y-141206000D03*
%TO.N,FSR_C11*%
X254617000Y-151214000D03*
X232830000Y-154654000D03*
X246650000Y-141030000D03*
%TO.N,FSR_C10*%
X232105000Y-154460000D03*
X254611000Y-150630000D03*
X246046000Y-141056000D03*
%TO.N,FSR_R1*%
X230164000Y-146045000D03*
X249650000Y-141030000D03*
X229317000Y-151942000D03*
X238926000Y-145111000D03*
%TO.N,FSR_R0*%
X232306000Y-149232000D03*
X227368000Y-149232000D03*
X249276000Y-141528000D03*
X227138000Y-146808000D03*
%TO.N,FSR_R3*%
X235035000Y-149543000D03*
X250650000Y-141040000D03*
%TO.N,X24L_1*%
X118228000Y-150250000D03*
X120936000Y-142570000D03*
%TD*%
%TO.N,VDD_1V8*%
D11*
X122570000Y-152209000D02*
X120161000Y-152209000D01*
X122705000Y-152074000D02*
X122570000Y-152209000D01*
X231008000Y-156651000D02*
X230847000Y-156811000D01*
X239069000Y-156651000D02*
X231008000Y-156651000D01*
X239229000Y-156811000D02*
X239069000Y-156651000D01*
X120250000Y-149750000D02*
X123250000Y-149750000D01*
%TO.N,FSR_R5*%
D12*
X250395000Y-142563000D02*
X251804000Y-141155000D01*
X244214000Y-142563000D02*
X250395000Y-142563000D01*
%TO.N,ADC5*%
X240356000Y-148039000D02*
X238678000Y-146360000D01*
X238678000Y-146360000D02*
X236583000Y-146360000D01*
%TO.N,I2C_SCL*%
X186705000Y-151117000D02*
X186089000Y-150501000D01*
X185130000Y-150722000D02*
X182204000Y-150722000D01*
X186089000Y-150501000D02*
X185352000Y-150501000D01*
X185352000Y-150501000D02*
X185130000Y-150722000D01*
X196536000Y-151117000D02*
X186705000Y-151117000D01*
%TO.N,VDD_3V3*%
D11*
X228040000Y-151256000D02*
X227295000Y-150510000D01*
X237656000Y-151256000D02*
X228040000Y-151256000D01*
%TO.N,I2C_SDA*%
D12*
X191012000Y-150756000D02*
X196620000Y-150756000D01*
X196620000Y-150756000D02*
X196925000Y-151061000D01*
%TO.N,VSYS*%
X222817000Y-147228000D02*
X209488000Y-147228000D01*
X209488000Y-147228000D02*
X208967000Y-146706000D01*
X208967000Y-146706000D02*
X207645000Y-146706000D01*
X222967000Y-147378000D02*
X222817000Y-147228000D01*
%TO.N,VDD_CAM*%
X212885000Y-143550000D02*
X211718000Y-143550000D01*
X211718000Y-143550000D02*
X211438000Y-143829000D01*
%TO.N,ADC2*%
X207780000Y-151414000D02*
X207993000Y-151627000D01*
X207993000Y-151627000D02*
X232433000Y-151627000D01*
X232433000Y-151627000D02*
X233038000Y-152231000D01*
%TO.N,CAM_PWDN*%
X178807000Y-151226000D02*
X178910000Y-151124000D01*
X178910000Y-151124000D02*
X185261000Y-151124000D01*
%TO.N,MUX_S0*%
X207816000Y-146475000D02*
X207246000Y-145906000D01*
X189974000Y-146473000D02*
X189814000Y-146313000D01*
X197207000Y-145906000D02*
X196640000Y-146473000D01*
X226538000Y-146446000D02*
X215275000Y-146446000D01*
X244920000Y-154479000D02*
X244837000Y-154562000D01*
X240011000Y-154562000D02*
X239627000Y-154179000D01*
X196640000Y-146473000D02*
X189974000Y-146473000D01*
X239627000Y-154179000D02*
X230329000Y-154179000D01*
X244837000Y-154562000D02*
X240011000Y-154562000D01*
X215246000Y-146475000D02*
X207816000Y-146475000D01*
X230329000Y-154179000D02*
X229928000Y-154580000D01*
X207246000Y-145906000D02*
X197207000Y-145906000D01*
X215275000Y-146446000D02*
X215246000Y-146475000D01*
%TO.N,MUX_S1*%
X232653000Y-153903000D02*
X232199000Y-153449000D01*
X232199000Y-153449000D02*
X204121000Y-153449000D01*
X246394000Y-153903000D02*
X232653000Y-153903000D01*
X247345000Y-154854000D02*
X246394000Y-153903000D01*
X204121000Y-153449000D02*
X204084000Y-153487000D01*
%TO.N,ADC0*%
X190268000Y-147826000D02*
X190126000Y-147826000D01*
X191231000Y-148789000D02*
X190268000Y-147826000D01*
X227309000Y-148575000D02*
X227095000Y-148789000D01*
X227095000Y-148789000D02*
X191231000Y-148789000D01*
X227356000Y-148575000D02*
X227309000Y-148575000D01*
%TO.N,ADC1*%
X229308000Y-152466000D02*
X205910000Y-152466000D01*
X205910000Y-152466000D02*
X205160000Y-151717000D01*
%TO.N,ADC3*%
X197693000Y-149415000D02*
X190787000Y-149415000D01*
X197808000Y-149530000D02*
X197693000Y-149415000D01*
X227162000Y-149007000D02*
X212368000Y-149007000D01*
X190787000Y-149415000D02*
X189781000Y-148408000D01*
X211846000Y-149530000D02*
X197808000Y-149530000D01*
X212368000Y-149007000D02*
X211846000Y-149530000D01*
X234538000Y-148250000D02*
X233834000Y-148954000D01*
X227215000Y-148954000D02*
X227162000Y-149007000D01*
X189781000Y-148408000D02*
X189670000Y-148408000D01*
X233834000Y-148954000D02*
X227215000Y-148954000D01*
%TO.N,MUX_S2*%
X204978000Y-154085000D02*
X205471000Y-154578000D01*
X205471000Y-154578000D02*
X207763000Y-154578000D01*
%TO.N,MUX_S3*%
X229453000Y-155572000D02*
X230057000Y-156176000D01*
X225622000Y-150404000D02*
X190275000Y-150404000D01*
X241099000Y-156176000D02*
X241301000Y-155974000D01*
X190275000Y-150404000D02*
X189873000Y-150002000D01*
X230057000Y-156176000D02*
X241099000Y-156176000D01*
X225950000Y-150075000D02*
X225622000Y-150404000D01*
%TO.N,SPI_MOSI*%
X194586000Y-143512000D02*
X191804000Y-143512000D01*
X191804000Y-143512000D02*
X191285000Y-144031000D01*
X194977000Y-143902000D02*
X194586000Y-143512000D01*
%TO.N,CS_RADAR_L*%
X191761000Y-152166000D02*
X191712000Y-152117000D01*
X191712000Y-152117000D02*
X182189000Y-152117000D01*
%TO.N,SPI_MISO*%
X181735000Y-152820000D02*
X191938000Y-152820000D01*
X194310000Y-154820000D02*
X192124000Y-152634000D01*
X213144000Y-157212000D02*
X212881000Y-156950000D01*
X231245000Y-157078000D02*
X231111000Y-157212000D01*
X231111000Y-157212000D02*
X213144000Y-157212000D01*
X212881000Y-156950000D02*
X210207000Y-156950000D01*
X210207000Y-156950000D02*
X210079000Y-157078000D01*
X181609000Y-152695000D02*
X181735000Y-152820000D01*
X192124000Y-152634000D02*
X192310000Y-152448000D01*
X191938000Y-152820000D02*
X192124000Y-152634000D01*
%TO.N,CS_RADAR_R*%
X251372000Y-157577000D02*
X198883000Y-157577000D01*
X198883000Y-157577000D02*
X193037000Y-151731000D01*
X299750000Y-149750000D02*
X299788000Y-149712000D01*
X299788000Y-149712000D02*
X301093000Y-149712000D01*
%TO.N,CS_CAM*%
X185565000Y-151686000D02*
X177548000Y-151686000D01*
X177548000Y-151686000D02*
X177154000Y-151292000D01*
%TO.N,RADAR_EN*%
X188024000Y-153219000D02*
X191451000Y-153219000D01*
X162342000Y-151973000D02*
X163886000Y-153517000D01*
X187726000Y-153517000D02*
X188024000Y-153219000D01*
X191658000Y-153426000D02*
X193060000Y-154828000D01*
X191451000Y-153219000D02*
X191658000Y-153426000D01*
X163886000Y-153517000D02*
X187726000Y-153517000D01*
%TO.N,RADAR_IRQ_R*%
X198118000Y-148225000D02*
X224367000Y-148225000D01*
X224367000Y-148225000D02*
X224817000Y-147775000D01*
X197935000Y-148407000D02*
X198118000Y-148225000D01*
X224817000Y-147775000D02*
X227364000Y-147775000D01*
%TO.N,MUX_EN_N*%
X245188000Y-155673000D02*
X236224000Y-155673000D01*
X245255000Y-155607000D02*
X245188000Y-155673000D01*
X236224000Y-155673000D02*
X235798000Y-155247000D01*
X200688000Y-155247000D02*
X198772000Y-153331000D01*
X235798000Y-155247000D02*
X200688000Y-155247000D01*
%TO.N,ANT_FEED*%
X197912000Y-147314000D02*
X170704000Y-147314000D01*
X170704000Y-147314000D02*
X170639000Y-147379000D01*
%TO.N,FSR_R0*%
X227368000Y-149232000D02*
X232306000Y-149232000D01*
%TD*%
%TA.AperFunction,Conductor*%
%TO.N,GND*%
G36*
X131808691Y-138169407D02*
G01*
X131844655Y-138218907D01*
X131849500Y-138249500D01*
X131849500Y-140970064D01*
X131849500Y-141029936D01*
X131872413Y-141085251D01*
X131914749Y-141127587D01*
X131970064Y-141150500D01*
X131970066Y-141150500D01*
X162029934Y-141150500D01*
X162029936Y-141150500D01*
X162085251Y-141127587D01*
X162127587Y-141085251D01*
X162150500Y-141029936D01*
X162150500Y-140957147D01*
X173528500Y-140957147D01*
X173528500Y-141042853D01*
X173550682Y-141125638D01*
X173593535Y-141199862D01*
X173654138Y-141260465D01*
X173728362Y-141303318D01*
X173811147Y-141325500D01*
X173811149Y-141325500D01*
X173896851Y-141325500D01*
X173896853Y-141325500D01*
X173979638Y-141303318D01*
X174053862Y-141260465D01*
X174114465Y-141199862D01*
X174157318Y-141125638D01*
X174179500Y-141042853D01*
X174179500Y-140957147D01*
X174157318Y-140874362D01*
X174114465Y-140800138D01*
X174053862Y-140739535D01*
X173979638Y-140696682D01*
X173896853Y-140674500D01*
X173811147Y-140674500D01*
X173728362Y-140696682D01*
X173654138Y-140739535D01*
X173593535Y-140800138D01*
X173550682Y-140874362D01*
X173528500Y-140957147D01*
X162150500Y-140957147D01*
X162150500Y-139949147D01*
X175986500Y-139949147D01*
X175986500Y-140034853D01*
X176008682Y-140117638D01*
X176051535Y-140191862D01*
X176112138Y-140252465D01*
X176186362Y-140295318D01*
X176269147Y-140317500D01*
X176269149Y-140317500D01*
X176354851Y-140317500D01*
X176354853Y-140317500D01*
X176437638Y-140295318D01*
X176511862Y-140252465D01*
X176572465Y-140191862D01*
X176615318Y-140117638D01*
X176637500Y-140034853D01*
X176637500Y-139949147D01*
X176615318Y-139866362D01*
X176572465Y-139792138D01*
X176511862Y-139731535D01*
X176437638Y-139688682D01*
X176354853Y-139666500D01*
X176269147Y-139666500D01*
X176186362Y-139688682D01*
X176112138Y-139731535D01*
X176051535Y-139792138D01*
X176008682Y-139866362D01*
X175986500Y-139949147D01*
X162150500Y-139949147D01*
X162150500Y-138934147D01*
X243452500Y-138934147D01*
X243452500Y-139019853D01*
X243474682Y-139102638D01*
X243517535Y-139176862D01*
X243578138Y-139237465D01*
X243652362Y-139280318D01*
X243735147Y-139302500D01*
X243735149Y-139302500D01*
X243820851Y-139302500D01*
X243820853Y-139302500D01*
X243903638Y-139280318D01*
X243977862Y-139237465D01*
X244038465Y-139176862D01*
X244047538Y-139161147D01*
X244824500Y-139161147D01*
X244824500Y-139246853D01*
X244846682Y-139329638D01*
X244889535Y-139403862D01*
X244950138Y-139464465D01*
X245024362Y-139507318D01*
X245107147Y-139529500D01*
X245107149Y-139529500D01*
X245192851Y-139529500D01*
X245192853Y-139529500D01*
X245275638Y-139507318D01*
X245349862Y-139464465D01*
X245410465Y-139403862D01*
X245453318Y-139329638D01*
X245454657Y-139324637D01*
X245487977Y-139273322D01*
X245545097Y-139251391D01*
X245604198Y-139267223D01*
X245610553Y-139271714D01*
X245614133Y-139274461D01*
X245614135Y-139274462D01*
X245614138Y-139274465D01*
X245688362Y-139317318D01*
X245771147Y-139339500D01*
X245771149Y-139339500D01*
X245856851Y-139339500D01*
X245856853Y-139339500D01*
X245939638Y-139317318D01*
X246013862Y-139274465D01*
X246074465Y-139213862D01*
X246117318Y-139139638D01*
X246122417Y-139120604D01*
X246155739Y-139069291D01*
X246212860Y-139047363D01*
X246243666Y-139050600D01*
X246273147Y-139058500D01*
X246273148Y-139058500D01*
X246358851Y-139058500D01*
X246358853Y-139058500D01*
X246441638Y-139036318D01*
X246515862Y-138993465D01*
X246576465Y-138932862D01*
X246619318Y-138858638D01*
X246641500Y-138775853D01*
X246641500Y-138690147D01*
X246619318Y-138607362D01*
X246576465Y-138533138D01*
X246515862Y-138472535D01*
X246441638Y-138429682D01*
X246358853Y-138407500D01*
X246273147Y-138407500D01*
X246190362Y-138429682D01*
X246116138Y-138472535D01*
X246055535Y-138533138D01*
X246012681Y-138607364D01*
X246007581Y-138626397D01*
X245974256Y-138677711D01*
X245917134Y-138699636D01*
X245886333Y-138696399D01*
X245863003Y-138690148D01*
X245856853Y-138688500D01*
X245771147Y-138688500D01*
X245688362Y-138710682D01*
X245614138Y-138753535D01*
X245553535Y-138814138D01*
X245510681Y-138888364D01*
X245509340Y-138893370D01*
X245476014Y-138944684D01*
X245418892Y-138966608D01*
X245359792Y-138950771D01*
X245353447Y-138946286D01*
X245349865Y-138943538D01*
X245349862Y-138943535D01*
X245275638Y-138900682D01*
X245192853Y-138878500D01*
X245107147Y-138878500D01*
X245024362Y-138900682D01*
X244950138Y-138943535D01*
X244889535Y-139004138D01*
X244846682Y-139078362D01*
X244824500Y-139161147D01*
X244047538Y-139161147D01*
X244081318Y-139102638D01*
X244103500Y-139019853D01*
X244103500Y-138934147D01*
X244081318Y-138851362D01*
X244038465Y-138777138D01*
X243977862Y-138716535D01*
X243903638Y-138673682D01*
X243820853Y-138651500D01*
X243735147Y-138651500D01*
X243652362Y-138673682D01*
X243578138Y-138716535D01*
X243517535Y-138777138D01*
X243474682Y-138851362D01*
X243452500Y-138934147D01*
X162150500Y-138934147D01*
X162150500Y-138249500D01*
X162169407Y-138191309D01*
X162218907Y-138155345D01*
X162249500Y-138150500D01*
X257750500Y-138150500D01*
X257808691Y-138169407D01*
X257844655Y-138218907D01*
X257849500Y-138249500D01*
X257849500Y-140970064D01*
X257849500Y-141029936D01*
X257872413Y-141085251D01*
X257914749Y-141127587D01*
X257970064Y-141150500D01*
X257970066Y-141150500D01*
X288029934Y-141150500D01*
X288029936Y-141150500D01*
X288085251Y-141127587D01*
X288127587Y-141085251D01*
X288150500Y-141029936D01*
X288150500Y-138249500D01*
X288169407Y-138191309D01*
X288218907Y-138155345D01*
X288249500Y-138150500D01*
X307750500Y-138150500D01*
X307808691Y-138169407D01*
X307844655Y-138218907D01*
X307849500Y-138249500D01*
X307849500Y-157750500D01*
X307830593Y-157808691D01*
X307781093Y-157844655D01*
X307750500Y-157849500D01*
X288249500Y-157849500D01*
X288191309Y-157830593D01*
X288155345Y-157781093D01*
X288150500Y-157750500D01*
X288150500Y-154970065D01*
X288150500Y-154970064D01*
X288127587Y-154914749D01*
X288085251Y-154872413D01*
X288029936Y-154849500D01*
X258029936Y-154849500D01*
X257970064Y-154849500D01*
X257914749Y-154872413D01*
X257872413Y-154914749D01*
X257850561Y-154967504D01*
X257849500Y-154970065D01*
X257849500Y-157750500D01*
X257830593Y-157808691D01*
X257781093Y-157844655D01*
X257750500Y-157849500D01*
X251762000Y-157849500D01*
X251703809Y-157830593D01*
X251667845Y-157781093D01*
X251667845Y-157719907D01*
X251672860Y-157708642D01*
X251672835Y-157708632D01*
X251675313Y-157702645D01*
X251675318Y-157702638D01*
X251697500Y-157619853D01*
X251697500Y-157534147D01*
X251675318Y-157451362D01*
X251632465Y-157377138D01*
X251571862Y-157316535D01*
X251497638Y-157273682D01*
X251414853Y-157251500D01*
X251329147Y-157251500D01*
X251246362Y-157273682D01*
X251177848Y-157313237D01*
X251128352Y-157326500D01*
X240024500Y-157326500D01*
X239966309Y-157307593D01*
X239930345Y-157258093D01*
X239925500Y-157227500D01*
X239925500Y-157201148D01*
X239925500Y-157201147D01*
X239903318Y-157118362D01*
X239860465Y-157044138D01*
X239799862Y-156983535D01*
X239768013Y-156965147D01*
X251903500Y-156965147D01*
X251903500Y-157050853D01*
X251925682Y-157133638D01*
X251968535Y-157207862D01*
X252029138Y-157268465D01*
X252103362Y-157311318D01*
X252186147Y-157333500D01*
X252186149Y-157333500D01*
X252271851Y-157333500D01*
X252271853Y-157333500D01*
X252354638Y-157311318D01*
X252428862Y-157268465D01*
X252489465Y-157207862D01*
X252532318Y-157133638D01*
X252554500Y-157050853D01*
X252554500Y-156965147D01*
X252532318Y-156882362D01*
X252489465Y-156808138D01*
X252428862Y-156747535D01*
X252354638Y-156704682D01*
X252271853Y-156682500D01*
X252186147Y-156682500D01*
X252103362Y-156704682D01*
X252029138Y-156747535D01*
X251968535Y-156808138D01*
X251925682Y-156882362D01*
X251903500Y-156965147D01*
X239768013Y-156965147D01*
X239725638Y-156940682D01*
X239652875Y-156921185D01*
X239601562Y-156887862D01*
X239579635Y-156830740D01*
X239579499Y-156825559D01*
X239579499Y-156764857D01*
X239579499Y-156764856D01*
X239555614Y-156675712D01*
X239509470Y-156595788D01*
X239509183Y-156595501D01*
X239509051Y-156595241D01*
X239505519Y-156590638D01*
X239506372Y-156589983D01*
X239481408Y-156540987D01*
X239490979Y-156480555D01*
X239534244Y-156437290D01*
X239579189Y-156426500D01*
X241148829Y-156426500D01*
X241206885Y-156402451D01*
X241240897Y-156388364D01*
X241305848Y-156323412D01*
X241350225Y-156297792D01*
X241426638Y-156277318D01*
X241500862Y-156234465D01*
X241561465Y-156173862D01*
X241604318Y-156099638D01*
X241626500Y-156016853D01*
X241626500Y-156016850D01*
X241627347Y-156010419D01*
X241630298Y-156010807D01*
X241645407Y-155964309D01*
X241694907Y-155928345D01*
X241725500Y-155923500D01*
X245165524Y-155923500D01*
X245191146Y-155926873D01*
X245212147Y-155932500D01*
X245212148Y-155932500D01*
X245297851Y-155932500D01*
X245297853Y-155932500D01*
X245380638Y-155910318D01*
X245454862Y-155867465D01*
X245515465Y-155806862D01*
X245548209Y-155750147D01*
X251203500Y-155750147D01*
X251203500Y-155835853D01*
X251225682Y-155918638D01*
X251268535Y-155992862D01*
X251329138Y-156053465D01*
X251403362Y-156096318D01*
X251486147Y-156118500D01*
X251486149Y-156118500D01*
X251571851Y-156118500D01*
X251571853Y-156118500D01*
X251654638Y-156096318D01*
X251728862Y-156053465D01*
X251789465Y-155992862D01*
X251832318Y-155918638D01*
X251854500Y-155835853D01*
X251854500Y-155750147D01*
X253515500Y-155750147D01*
X253515500Y-155835853D01*
X253537682Y-155918638D01*
X253580535Y-155992862D01*
X253641138Y-156053465D01*
X253715362Y-156096318D01*
X253798147Y-156118500D01*
X253798149Y-156118500D01*
X253883851Y-156118500D01*
X253883853Y-156118500D01*
X253966638Y-156096318D01*
X254040862Y-156053465D01*
X254101465Y-155992862D01*
X254144318Y-155918638D01*
X254166500Y-155835853D01*
X254166500Y-155750147D01*
X254144318Y-155667362D01*
X254101465Y-155593138D01*
X254040862Y-155532535D01*
X253966638Y-155489682D01*
X253883853Y-155467500D01*
X253798147Y-155467500D01*
X253715362Y-155489682D01*
X253641138Y-155532535D01*
X253580535Y-155593138D01*
X253537682Y-155667362D01*
X253515500Y-155750147D01*
X251854500Y-155750147D01*
X251832318Y-155667362D01*
X251789465Y-155593138D01*
X251728862Y-155532535D01*
X251654638Y-155489682D01*
X251571853Y-155467500D01*
X251486147Y-155467500D01*
X251403362Y-155489682D01*
X251329138Y-155532535D01*
X251268535Y-155593138D01*
X251225682Y-155667362D01*
X251203500Y-155750147D01*
X245548209Y-155750147D01*
X245558318Y-155732638D01*
X245580500Y-155649853D01*
X245580500Y-155564147D01*
X245558318Y-155481362D01*
X245515465Y-155407138D01*
X245454862Y-155346535D01*
X245380638Y-155303682D01*
X245297853Y-155281500D01*
X245212147Y-155281500D01*
X245129362Y-155303682D01*
X245055138Y-155346535D01*
X245008167Y-155393505D01*
X244953653Y-155421281D01*
X244938166Y-155422500D01*
X241917834Y-155422500D01*
X241859643Y-155403593D01*
X241823679Y-155354093D01*
X241823679Y-155292907D01*
X241847828Y-155253498D01*
X241901465Y-155199862D01*
X241944318Y-155125638D01*
X241966500Y-155042853D01*
X241966500Y-154957147D01*
X241961134Y-154937121D01*
X241964336Y-154876022D01*
X242002842Y-154828472D01*
X242056761Y-154812500D01*
X244886827Y-154812500D01*
X244886828Y-154812500D01*
X244887946Y-154812036D01*
X244925834Y-154804500D01*
X244962851Y-154804500D01*
X244962853Y-154804500D01*
X245045638Y-154782318D01*
X245119862Y-154739465D01*
X245180465Y-154678862D01*
X245223318Y-154604638D01*
X245245500Y-154521853D01*
X245245500Y-154436147D01*
X245223318Y-154353362D01*
X245193663Y-154301999D01*
X245180942Y-154242152D01*
X245205828Y-154186256D01*
X245258816Y-154155664D01*
X245279400Y-154153500D01*
X246249231Y-154153500D01*
X246307422Y-154172407D01*
X246319235Y-154182496D01*
X246995585Y-154858846D01*
X247021207Y-154903226D01*
X247041682Y-154979638D01*
X247084535Y-155053862D01*
X247145138Y-155114465D01*
X247219362Y-155157318D01*
X247302147Y-155179500D01*
X247302149Y-155179500D01*
X247387851Y-155179500D01*
X247387853Y-155179500D01*
X247470638Y-155157318D01*
X247544862Y-155114465D01*
X247605465Y-155053862D01*
X247648318Y-154979638D01*
X247655416Y-154953147D01*
X251989500Y-154953147D01*
X251989500Y-155038853D01*
X252011682Y-155121638D01*
X252054535Y-155195862D01*
X252115138Y-155256465D01*
X252189362Y-155299318D01*
X252272147Y-155321500D01*
X252272149Y-155321500D01*
X252357851Y-155321500D01*
X252357853Y-155321500D01*
X252440638Y-155299318D01*
X252514862Y-155256465D01*
X252575465Y-155195862D01*
X252618318Y-155121638D01*
X252640500Y-155038853D01*
X252640500Y-154953147D01*
X252629007Y-154910254D01*
X252632209Y-154849156D01*
X252670714Y-154801606D01*
X252729815Y-154785770D01*
X252750250Y-154789005D01*
X252793147Y-154800500D01*
X252793149Y-154800500D01*
X252878851Y-154800500D01*
X252878853Y-154800500D01*
X252961638Y-154778318D01*
X253035862Y-154735465D01*
X253096465Y-154674862D01*
X253139318Y-154600638D01*
X253161500Y-154517853D01*
X253161500Y-154432147D01*
X253139318Y-154349362D01*
X253096465Y-154275138D01*
X253035862Y-154214535D01*
X252961638Y-154171682D01*
X252878853Y-154149500D01*
X252793147Y-154149500D01*
X252710362Y-154171682D01*
X252636138Y-154214535D01*
X252575535Y-154275138D01*
X252532682Y-154349362D01*
X252510500Y-154432147D01*
X252510500Y-154517853D01*
X252514122Y-154531370D01*
X252521992Y-154560743D01*
X252518789Y-154621844D01*
X252480283Y-154669394D01*
X252421183Y-154685229D01*
X252400743Y-154681992D01*
X252374132Y-154674862D01*
X252357853Y-154670500D01*
X252272147Y-154670500D01*
X252189362Y-154692682D01*
X252115138Y-154735535D01*
X252054535Y-154796138D01*
X252011682Y-154870362D01*
X251989500Y-154953147D01*
X247655416Y-154953147D01*
X247670500Y-154896853D01*
X247670500Y-154811147D01*
X247648318Y-154728362D01*
X247605465Y-154654138D01*
X247544862Y-154593535D01*
X247470638Y-154550682D01*
X247394226Y-154530207D01*
X247349846Y-154504585D01*
X246973112Y-154127851D01*
X246535897Y-153690636D01*
X246535895Y-153690635D01*
X246535894Y-153690634D01*
X246443829Y-153652500D01*
X246443828Y-153652500D01*
X237578500Y-153652500D01*
X237577414Y-153652147D01*
X247049500Y-153652147D01*
X247049500Y-153737853D01*
X247071682Y-153820638D01*
X247114535Y-153894862D01*
X247175138Y-153955465D01*
X247249362Y-153998318D01*
X247332147Y-154020500D01*
X247332149Y-154020500D01*
X247417851Y-154020500D01*
X247417853Y-154020500D01*
X247500638Y-153998318D01*
X247574862Y-153955465D01*
X247635465Y-153894862D01*
X247678318Y-153820638D01*
X247700500Y-153737853D01*
X247700500Y-153652147D01*
X247678318Y-153569362D01*
X247635465Y-153495138D01*
X247574862Y-153434535D01*
X247500638Y-153391682D01*
X247417853Y-153369500D01*
X247332147Y-153369500D01*
X247249362Y-153391682D01*
X247175138Y-153434535D01*
X247114535Y-153495138D01*
X247071682Y-153569362D01*
X247049500Y-153652147D01*
X237577414Y-153652147D01*
X237520309Y-153633593D01*
X237484345Y-153584093D01*
X237480615Y-153560545D01*
X237480347Y-153560581D01*
X237479500Y-153554149D01*
X237479500Y-153554147D01*
X237457318Y-153471362D01*
X237414465Y-153397138D01*
X237353862Y-153336535D01*
X237279638Y-153293682D01*
X237196853Y-153271500D01*
X237111147Y-153271500D01*
X237029041Y-153293500D01*
X237028362Y-153293682D01*
X236954138Y-153336535D01*
X236893535Y-153397138D01*
X236850682Y-153471362D01*
X236828499Y-153554149D01*
X236827653Y-153560581D01*
X236826258Y-153560397D01*
X236809593Y-153611691D01*
X236760093Y-153647655D01*
X236729500Y-153652500D01*
X233325500Y-153652500D01*
X233267309Y-153633593D01*
X233231345Y-153584093D01*
X233226500Y-153553500D01*
X233226500Y-153499148D01*
X233226326Y-153498497D01*
X233204318Y-153416362D01*
X233161465Y-153342138D01*
X233100862Y-153281535D01*
X233026638Y-153238682D01*
X232943853Y-153216500D01*
X232858147Y-153216500D01*
X232783382Y-153236533D01*
X232775362Y-153238682D01*
X232701138Y-153281535D01*
X232640533Y-153342140D01*
X232633983Y-153353485D01*
X232588512Y-153394424D01*
X232527662Y-153400817D01*
X232478247Y-153373986D01*
X232340897Y-153236636D01*
X232340895Y-153236635D01*
X232340894Y-153236634D01*
X232279212Y-153211085D01*
X232232687Y-153171348D01*
X232218403Y-153111854D01*
X232241818Y-153055326D01*
X232260197Y-153040041D01*
X232259716Y-153039414D01*
X232264855Y-153035470D01*
X232264857Y-153035467D01*
X232264862Y-153035465D01*
X232325465Y-152974862D01*
X232368318Y-152900638D01*
X232390500Y-152817853D01*
X232390500Y-152732147D01*
X232368318Y-152649362D01*
X232325465Y-152575138D01*
X232264862Y-152514535D01*
X232190638Y-152471682D01*
X232107853Y-152449500D01*
X232022147Y-152449500D01*
X231939362Y-152471682D01*
X231865138Y-152514535D01*
X231804535Y-152575138D01*
X231761682Y-152649362D01*
X231739500Y-152732147D01*
X231739500Y-152817853D01*
X231761682Y-152900638D01*
X231804535Y-152974862D01*
X231859171Y-153029498D01*
X231886947Y-153084013D01*
X231877376Y-153144445D01*
X231834111Y-153187710D01*
X231789166Y-153198500D01*
X213781278Y-153198500D01*
X213723087Y-153179593D01*
X213687123Y-153130093D01*
X213685651Y-153073878D01*
X213686983Y-153068907D01*
X213694500Y-153040853D01*
X213694500Y-152955147D01*
X213672318Y-152872362D01*
X213668067Y-152864999D01*
X213655346Y-152805151D01*
X213680233Y-152749255D01*
X213733222Y-152718663D01*
X213753804Y-152716500D01*
X229064352Y-152716500D01*
X229113848Y-152729762D01*
X229182362Y-152769318D01*
X229265147Y-152791500D01*
X229265149Y-152791500D01*
X229350851Y-152791500D01*
X229350853Y-152791500D01*
X229433638Y-152769318D01*
X229507862Y-152726465D01*
X229568465Y-152665862D01*
X229611318Y-152591638D01*
X229633500Y-152508853D01*
X229633500Y-152423147D01*
X229611318Y-152340362D01*
X229568465Y-152266138D01*
X229568462Y-152266135D01*
X229565220Y-152260519D01*
X229567520Y-152259190D01*
X229550844Y-152212151D01*
X229568201Y-152153479D01*
X229573553Y-152147042D01*
X229573514Y-152147012D01*
X229577459Y-152141869D01*
X229577460Y-152141866D01*
X229577465Y-152141862D01*
X229620318Y-152067638D01*
X229642500Y-151984853D01*
X229642500Y-151976500D01*
X229661407Y-151918309D01*
X229710907Y-151882345D01*
X229741500Y-151877500D01*
X232288401Y-151877500D01*
X232346592Y-151896407D01*
X232358346Y-151906437D01*
X232685916Y-152233465D01*
X232688631Y-152236175D01*
X232714311Y-152280612D01*
X232734682Y-152356638D01*
X232777535Y-152430862D01*
X232838138Y-152491465D01*
X232912362Y-152534318D01*
X232995147Y-152556500D01*
X232995149Y-152556500D01*
X233080851Y-152556500D01*
X233080853Y-152556500D01*
X233163638Y-152534318D01*
X233237862Y-152491465D01*
X233260180Y-152469147D01*
X237119500Y-152469147D01*
X237119500Y-152554853D01*
X237141682Y-152637638D01*
X237184535Y-152711862D01*
X237245138Y-152772465D01*
X237319362Y-152815318D01*
X237402147Y-152837500D01*
X237402149Y-152837500D01*
X237487851Y-152837500D01*
X237487853Y-152837500D01*
X237570638Y-152815318D01*
X237644862Y-152772465D01*
X237668180Y-152749147D01*
X243712500Y-152749147D01*
X243712500Y-152834853D01*
X243734682Y-152917638D01*
X243777535Y-152991862D01*
X243838138Y-153052465D01*
X243912362Y-153095318D01*
X243995147Y-153117500D01*
X243995149Y-153117500D01*
X244080851Y-153117500D01*
X244080853Y-153117500D01*
X244163638Y-153095318D01*
X244237862Y-153052465D01*
X244298465Y-152991862D01*
X244336983Y-152925147D01*
X245010500Y-152925147D01*
X245010500Y-153010853D01*
X245032682Y-153093638D01*
X245075535Y-153167862D01*
X245136138Y-153228465D01*
X245210362Y-153271318D01*
X245293147Y-153293500D01*
X245293149Y-153293500D01*
X245378851Y-153293500D01*
X245378853Y-153293500D01*
X245461638Y-153271318D01*
X245535862Y-153228465D01*
X245596465Y-153167862D01*
X245639318Y-153093638D01*
X245661500Y-153010853D01*
X245661500Y-152925147D01*
X245639318Y-152842362D01*
X245596465Y-152768138D01*
X245535862Y-152707535D01*
X245505745Y-152690147D01*
X251054500Y-152690147D01*
X251054500Y-152775853D01*
X251076682Y-152858638D01*
X251119535Y-152932862D01*
X251180138Y-152993465D01*
X251254362Y-153036318D01*
X251337147Y-153058500D01*
X251337149Y-153058500D01*
X251422851Y-153058500D01*
X251422853Y-153058500D01*
X251505638Y-153036318D01*
X251579862Y-152993465D01*
X251640465Y-152932862D01*
X251683318Y-152858638D01*
X251705500Y-152775853D01*
X251705500Y-152690147D01*
X251688619Y-152627147D01*
X253603500Y-152627147D01*
X253603500Y-152712853D01*
X253625682Y-152795638D01*
X253668535Y-152869862D01*
X253729138Y-152930465D01*
X253803362Y-152973318D01*
X253886147Y-152995500D01*
X253886149Y-152995500D01*
X253971851Y-152995500D01*
X253971853Y-152995500D01*
X254054638Y-152973318D01*
X254128862Y-152930465D01*
X254189465Y-152869862D01*
X254232318Y-152795638D01*
X254254500Y-152712853D01*
X254254500Y-152633607D01*
X254273407Y-152575416D01*
X254322907Y-152539452D01*
X254384093Y-152539452D01*
X254402997Y-152547869D01*
X254419362Y-152557318D01*
X254502147Y-152579500D01*
X254502149Y-152579500D01*
X254587851Y-152579500D01*
X254587853Y-152579500D01*
X254670638Y-152557318D01*
X254744862Y-152514465D01*
X254805465Y-152453862D01*
X254848318Y-152379638D01*
X254851665Y-152367147D01*
X293475500Y-152367147D01*
X293475500Y-152452853D01*
X293497682Y-152535638D01*
X293540535Y-152609862D01*
X293601138Y-152670465D01*
X293675362Y-152713318D01*
X293758147Y-152735500D01*
X293758149Y-152735500D01*
X293843851Y-152735500D01*
X293843853Y-152735500D01*
X293926638Y-152713318D01*
X294000862Y-152670465D01*
X294061465Y-152609862D01*
X294104318Y-152535638D01*
X294126500Y-152452853D01*
X294126500Y-152367147D01*
X294104318Y-152284362D01*
X294061465Y-152210138D01*
X294000862Y-152149535D01*
X293926638Y-152106682D01*
X293843853Y-152084500D01*
X293758147Y-152084500D01*
X293675362Y-152106682D01*
X293601138Y-152149535D01*
X293540535Y-152210138D01*
X293497682Y-152284362D01*
X293475500Y-152367147D01*
X254851665Y-152367147D01*
X254870500Y-152296853D01*
X254870500Y-152211147D01*
X254856837Y-152160155D01*
X254860038Y-152099057D01*
X254870387Y-152080578D01*
X254870220Y-152080482D01*
X254873465Y-152074862D01*
X254916318Y-152000638D01*
X254929311Y-151952147D01*
X295774500Y-151952147D01*
X295774500Y-152037853D01*
X295796682Y-152120638D01*
X295839535Y-152194862D01*
X295900138Y-152255465D01*
X295974362Y-152298318D01*
X296057147Y-152320500D01*
X296057149Y-152320500D01*
X296142851Y-152320500D01*
X296142853Y-152320500D01*
X296225638Y-152298318D01*
X296299862Y-152255465D01*
X296360465Y-152194862D01*
X296403318Y-152120638D01*
X296425500Y-152037853D01*
X296425500Y-151952147D01*
X296423624Y-151945147D01*
X297621500Y-151945147D01*
X297621500Y-152030853D01*
X297643682Y-152113638D01*
X297686535Y-152187862D01*
X297747138Y-152248465D01*
X297821362Y-152291318D01*
X297904147Y-152313500D01*
X297904149Y-152313500D01*
X297989851Y-152313500D01*
X297989853Y-152313500D01*
X298072638Y-152291318D01*
X298146862Y-152248465D01*
X298207465Y-152187862D01*
X298250318Y-152113638D01*
X298272500Y-152030853D01*
X298272500Y-151945147D01*
X298250318Y-151862362D01*
X298207465Y-151788138D01*
X298146862Y-151727535D01*
X298072638Y-151684682D01*
X297989853Y-151662500D01*
X297904147Y-151662500D01*
X297821362Y-151684682D01*
X297747138Y-151727535D01*
X297686535Y-151788138D01*
X297643682Y-151862362D01*
X297621500Y-151945147D01*
X296423624Y-151945147D01*
X296403318Y-151869362D01*
X296360465Y-151795138D01*
X296299862Y-151734535D01*
X296225638Y-151691682D01*
X296142853Y-151669500D01*
X296057147Y-151669500D01*
X295974362Y-151691682D01*
X295900138Y-151734535D01*
X295839535Y-151795138D01*
X295796682Y-151869362D01*
X295774500Y-151952147D01*
X254929311Y-151952147D01*
X254938500Y-151917853D01*
X254938500Y-151832147D01*
X254916318Y-151749362D01*
X254873465Y-151675138D01*
X254814828Y-151616501D01*
X254787053Y-151561987D01*
X254796624Y-151501555D01*
X254814830Y-151476496D01*
X254816859Y-151474466D01*
X254816862Y-151474465D01*
X254877465Y-151413862D01*
X254920318Y-151339638D01*
X254942500Y-151256853D01*
X254942500Y-151171147D01*
X254920318Y-151088362D01*
X254877465Y-151014138D01*
X254852328Y-150989001D01*
X254824553Y-150934487D01*
X254834124Y-150874055D01*
X254852327Y-150848999D01*
X254871465Y-150829862D01*
X254914318Y-150755638D01*
X254936500Y-150672853D01*
X254936500Y-150635147D01*
X296924500Y-150635147D01*
X296924500Y-150720853D01*
X296946682Y-150803638D01*
X296989535Y-150877862D01*
X297050138Y-150938465D01*
X297124362Y-150981318D01*
X297207147Y-151003500D01*
X297207149Y-151003500D01*
X297292851Y-151003500D01*
X297292853Y-151003500D01*
X297375638Y-150981318D01*
X297449862Y-150938465D01*
X297510465Y-150877862D01*
X297553318Y-150803638D01*
X297575500Y-150720853D01*
X297575500Y-150637147D01*
X299424500Y-150637147D01*
X299424500Y-150722853D01*
X299446682Y-150805638D01*
X299489535Y-150879862D01*
X299550138Y-150940465D01*
X299624362Y-150983318D01*
X299707147Y-151005500D01*
X299707149Y-151005500D01*
X299792851Y-151005500D01*
X299792853Y-151005500D01*
X299875638Y-150983318D01*
X299949862Y-150940465D01*
X300010465Y-150879862D01*
X300053318Y-150805638D01*
X300075500Y-150722853D01*
X300075500Y-150637147D01*
X300053318Y-150554362D01*
X300010465Y-150480138D01*
X299949862Y-150419535D01*
X299875638Y-150376682D01*
X299792853Y-150354500D01*
X299707147Y-150354500D01*
X299624362Y-150376682D01*
X299550138Y-150419535D01*
X299489535Y-150480138D01*
X299446682Y-150554362D01*
X299424500Y-150637147D01*
X297575500Y-150637147D01*
X297575500Y-150635147D01*
X297553318Y-150552362D01*
X297510465Y-150478138D01*
X297449862Y-150417535D01*
X297375638Y-150374682D01*
X297292853Y-150352500D01*
X297207147Y-150352500D01*
X297124362Y-150374682D01*
X297050138Y-150417535D01*
X296989535Y-150478138D01*
X296946682Y-150552362D01*
X296924500Y-150635147D01*
X254936500Y-150635147D01*
X254936500Y-150587147D01*
X254914318Y-150504362D01*
X254871465Y-150430138D01*
X254818328Y-150377001D01*
X254790553Y-150322487D01*
X254800124Y-150262055D01*
X254818327Y-150236999D01*
X254874465Y-150180862D01*
X254917318Y-150106638D01*
X254939500Y-150023853D01*
X254939500Y-149938147D01*
X254917318Y-149855362D01*
X254874465Y-149781138D01*
X254852828Y-149759501D01*
X254826154Y-149707147D01*
X296424500Y-149707147D01*
X296424500Y-149792853D01*
X296446682Y-149875638D01*
X296489535Y-149949862D01*
X296550138Y-150010465D01*
X296624362Y-150053318D01*
X296707147Y-150075500D01*
X296707149Y-150075500D01*
X296792851Y-150075500D01*
X296792853Y-150075500D01*
X296875638Y-150053318D01*
X296949862Y-150010465D01*
X297010465Y-149949862D01*
X297053318Y-149875638D01*
X297075500Y-149792853D01*
X297075500Y-149707147D01*
X299424500Y-149707147D01*
X299424500Y-149792853D01*
X299446682Y-149875638D01*
X299489535Y-149949862D01*
X299550138Y-150010465D01*
X299624362Y-150053318D01*
X299707147Y-150075500D01*
X299707149Y-150075500D01*
X299792851Y-150075500D01*
X299792853Y-150075500D01*
X299875638Y-150053318D01*
X299949862Y-150010465D01*
X299968832Y-149991494D01*
X299975947Y-149987869D01*
X299980643Y-149981407D01*
X300002691Y-149974243D01*
X300023347Y-149963719D01*
X300038834Y-149962500D01*
X300225423Y-149962500D01*
X300283614Y-149981407D01*
X300319578Y-150030907D01*
X300319578Y-150092093D01*
X300315027Y-150102311D01*
X300315165Y-150102368D01*
X300312683Y-150108359D01*
X300312682Y-150108361D01*
X300312682Y-150108362D01*
X300290500Y-150191147D01*
X300290500Y-150276853D01*
X300312682Y-150359638D01*
X300355535Y-150433862D01*
X300416138Y-150494465D01*
X300490362Y-150537318D01*
X300573147Y-150559500D01*
X300573149Y-150559500D01*
X300658851Y-150559500D01*
X300658853Y-150559500D01*
X300741638Y-150537318D01*
X300815862Y-150494465D01*
X300876465Y-150433862D01*
X300919318Y-150359638D01*
X300941500Y-150276853D01*
X300941500Y-150191147D01*
X300933122Y-150159879D01*
X300936325Y-150098779D01*
X300974830Y-150051229D01*
X301033931Y-150035394D01*
X301043677Y-150036938D01*
X301043715Y-150036653D01*
X301050146Y-150037499D01*
X301050147Y-150037500D01*
X301050148Y-150037500D01*
X301135851Y-150037500D01*
X301135853Y-150037500D01*
X301218638Y-150015318D01*
X301292862Y-149972465D01*
X301353465Y-149911862D01*
X301396318Y-149837638D01*
X301418500Y-149754853D01*
X301418500Y-149669147D01*
X301418337Y-149668539D01*
X301418360Y-149668089D01*
X301417653Y-149662715D01*
X301418648Y-149662583D01*
X301421535Y-149607440D01*
X301460037Y-149559887D01*
X301519136Y-149544047D01*
X301551848Y-149551448D01*
X301556354Y-149553313D01*
X301556362Y-149553318D01*
X301639147Y-149575500D01*
X301639149Y-149575500D01*
X301724851Y-149575500D01*
X301724853Y-149575500D01*
X301807638Y-149553318D01*
X301881862Y-149510465D01*
X301942465Y-149449862D01*
X301985318Y-149375638D01*
X302007500Y-149292853D01*
X302007500Y-149207147D01*
X301985318Y-149124362D01*
X301942465Y-149050138D01*
X301881862Y-148989535D01*
X301807638Y-148946682D01*
X301724853Y-148924500D01*
X301639147Y-148924500D01*
X301556362Y-148946682D01*
X301482138Y-148989535D01*
X301421535Y-149050138D01*
X301378682Y-149124362D01*
X301356775Y-149206123D01*
X301356500Y-149207148D01*
X301356500Y-149292857D01*
X301356664Y-149293467D01*
X301356640Y-149293917D01*
X301357347Y-149299285D01*
X301356352Y-149299415D01*
X301353460Y-149354568D01*
X301314954Y-149402117D01*
X301255853Y-149417951D01*
X301223155Y-149410553D01*
X301218641Y-149408684D01*
X301218638Y-149408682D01*
X301135853Y-149386500D01*
X301050147Y-149386500D01*
X300967362Y-149408682D01*
X300898848Y-149448237D01*
X300849352Y-149461500D01*
X299927830Y-149461500D01*
X299881651Y-149449126D01*
X299881635Y-149449166D01*
X299881331Y-149449040D01*
X299878330Y-149448236D01*
X299875640Y-149446683D01*
X299875642Y-149446683D01*
X299859049Y-149442237D01*
X299792853Y-149424500D01*
X299707147Y-149424500D01*
X299624362Y-149446682D01*
X299550138Y-149489535D01*
X299489535Y-149550138D01*
X299446682Y-149624362D01*
X299424500Y-149707147D01*
X297075500Y-149707147D01*
X297053318Y-149624362D01*
X297010465Y-149550138D01*
X296949862Y-149489535D01*
X296875638Y-149446682D01*
X296792853Y-149424500D01*
X296707147Y-149424500D01*
X296624362Y-149446682D01*
X296550138Y-149489535D01*
X296489535Y-149550138D01*
X296446682Y-149624362D01*
X296424500Y-149707147D01*
X254826154Y-149707147D01*
X254825053Y-149704987D01*
X254834624Y-149644555D01*
X254852827Y-149619499D01*
X254881465Y-149590862D01*
X254924318Y-149516638D01*
X254946500Y-149433853D01*
X254946500Y-149348147D01*
X254924318Y-149265362D01*
X254881465Y-149191138D01*
X254820862Y-149130535D01*
X254746638Y-149087682D01*
X254663853Y-149065500D01*
X254578147Y-149065500D01*
X254495362Y-149087682D01*
X254421138Y-149130535D01*
X254360535Y-149191138D01*
X254317682Y-149265362D01*
X254295500Y-149348147D01*
X254295500Y-149433853D01*
X254317682Y-149516638D01*
X254360535Y-149590862D01*
X254382171Y-149612498D01*
X254409947Y-149667013D01*
X254400376Y-149727445D01*
X254382172Y-149752500D01*
X254353535Y-149781138D01*
X254310682Y-149855362D01*
X254288500Y-149938147D01*
X254288500Y-150023853D01*
X254310682Y-150106638D01*
X254353535Y-150180862D01*
X254406671Y-150233998D01*
X254434447Y-150288513D01*
X254424876Y-150348945D01*
X254406672Y-150374000D01*
X254350535Y-150430138D01*
X254307682Y-150504362D01*
X254285500Y-150587147D01*
X254285500Y-150672853D01*
X254307682Y-150755638D01*
X254350535Y-150829862D01*
X254375671Y-150854998D01*
X254403447Y-150909513D01*
X254393876Y-150969945D01*
X254375672Y-150995000D01*
X254356535Y-151014138D01*
X254313682Y-151088362D01*
X254291500Y-151171147D01*
X254291500Y-151256853D01*
X254313682Y-151339638D01*
X254356535Y-151413862D01*
X254415171Y-151472498D01*
X254442947Y-151527013D01*
X254433376Y-151587445D01*
X254415170Y-151612504D01*
X254413140Y-151614533D01*
X254413138Y-151614535D01*
X254352535Y-151675138D01*
X254309682Y-151749362D01*
X254288161Y-151829682D01*
X254287500Y-151832148D01*
X254287500Y-151917855D01*
X254301162Y-151968845D01*
X254297959Y-152029946D01*
X254287614Y-152048423D01*
X254287780Y-152048519D01*
X254284536Y-152054136D01*
X254284535Y-152054138D01*
X254241682Y-152128362D01*
X254219771Y-152210138D01*
X254219500Y-152211148D01*
X254219500Y-152290392D01*
X254200593Y-152348583D01*
X254151093Y-152384547D01*
X254089907Y-152384547D01*
X254071001Y-152376129D01*
X254054639Y-152366682D01*
X254027043Y-152359288D01*
X253971853Y-152344500D01*
X253886147Y-152344500D01*
X253803362Y-152366682D01*
X253729138Y-152409535D01*
X253668535Y-152470138D01*
X253625682Y-152544362D01*
X253603500Y-152627147D01*
X251688619Y-152627147D01*
X251683318Y-152607362D01*
X251640465Y-152533138D01*
X251579862Y-152472535D01*
X251505638Y-152429682D01*
X251422853Y-152407500D01*
X251337147Y-152407500D01*
X251254362Y-152429682D01*
X251180138Y-152472535D01*
X251119535Y-152533138D01*
X251076682Y-152607362D01*
X251054500Y-152690147D01*
X245505745Y-152690147D01*
X245461638Y-152664682D01*
X245378853Y-152642500D01*
X245293147Y-152642500D01*
X245210362Y-152664682D01*
X245136138Y-152707535D01*
X245075535Y-152768138D01*
X245032682Y-152842362D01*
X245010500Y-152925147D01*
X244336983Y-152925147D01*
X244341318Y-152917638D01*
X244363500Y-152834853D01*
X244363500Y-152749147D01*
X244341318Y-152666362D01*
X244298465Y-152592138D01*
X244237862Y-152531535D01*
X244163638Y-152488682D01*
X244080853Y-152466500D01*
X243995147Y-152466500D01*
X243912362Y-152488682D01*
X243838138Y-152531535D01*
X243777535Y-152592138D01*
X243734682Y-152666362D01*
X243712500Y-152749147D01*
X237668180Y-152749147D01*
X237705465Y-152711862D01*
X237748318Y-152637638D01*
X237770500Y-152554853D01*
X237770500Y-152469147D01*
X237748318Y-152386362D01*
X237705465Y-152312138D01*
X237644862Y-152251535D01*
X237570638Y-152208682D01*
X237487853Y-152186500D01*
X237402147Y-152186500D01*
X237319362Y-152208682D01*
X237245138Y-152251535D01*
X237184535Y-152312138D01*
X237141682Y-152386362D01*
X237119500Y-152469147D01*
X233260180Y-152469147D01*
X233298465Y-152430862D01*
X233341318Y-152356638D01*
X233363500Y-152273853D01*
X233363500Y-152188147D01*
X233345709Y-152121749D01*
X233346127Y-152113775D01*
X233342878Y-152106478D01*
X233346349Y-152090147D01*
X246290500Y-152090147D01*
X246290500Y-152175853D01*
X246312682Y-152258638D01*
X246355535Y-152332862D01*
X246416138Y-152393465D01*
X246490362Y-152436318D01*
X246573147Y-152458500D01*
X246573149Y-152458500D01*
X246658851Y-152458500D01*
X246658853Y-152458500D01*
X246741638Y-152436318D01*
X246815862Y-152393465D01*
X246876465Y-152332862D01*
X246919318Y-152258638D01*
X246941500Y-152175853D01*
X246941500Y-152090147D01*
X246919318Y-152007362D01*
X246876465Y-151933138D01*
X246815862Y-151872535D01*
X246741638Y-151829682D01*
X246658853Y-151807500D01*
X246573147Y-151807500D01*
X246490362Y-151829682D01*
X246416138Y-151872535D01*
X246355535Y-151933138D01*
X246312682Y-152007362D01*
X246290500Y-152090147D01*
X233346349Y-152090147D01*
X233347698Y-152083798D01*
X233348912Y-152060651D01*
X233355599Y-152046630D01*
X233362799Y-152034159D01*
X233398318Y-151972638D01*
X233420500Y-151889853D01*
X233420500Y-151804147D01*
X233400933Y-151731121D01*
X233404136Y-151670021D01*
X233442641Y-151622471D01*
X233496560Y-151606500D01*
X237702142Y-151606500D01*
X237702144Y-151606500D01*
X237791288Y-151582614D01*
X237871212Y-151536469D01*
X237936469Y-151471212D01*
X237967107Y-151418147D01*
X243400500Y-151418147D01*
X243400500Y-151503853D01*
X243422682Y-151586638D01*
X243465535Y-151660862D01*
X243526138Y-151721465D01*
X243600362Y-151764318D01*
X243683147Y-151786500D01*
X243683149Y-151786500D01*
X243768851Y-151786500D01*
X243768853Y-151786500D01*
X243851638Y-151764318D01*
X243925862Y-151721465D01*
X243986465Y-151660862D01*
X244029318Y-151586638D01*
X244051500Y-151503853D01*
X244051500Y-151418147D01*
X244029318Y-151335362D01*
X243986465Y-151261138D01*
X243925862Y-151200535D01*
X243851638Y-151157682D01*
X243768853Y-151135500D01*
X243683147Y-151135500D01*
X243600362Y-151157682D01*
X243526138Y-151200535D01*
X243465535Y-151261138D01*
X243422682Y-151335362D01*
X243400500Y-151418147D01*
X237967107Y-151418147D01*
X237982614Y-151391288D01*
X238006500Y-151302144D01*
X238006500Y-151209856D01*
X237982614Y-151120712D01*
X237936682Y-151041158D01*
X237936682Y-151041156D01*
X237936680Y-151041154D01*
X237936469Y-151040788D01*
X237893828Y-150998147D01*
X246358500Y-150998147D01*
X246358500Y-151083853D01*
X246380682Y-151166638D01*
X246423535Y-151240862D01*
X246484138Y-151301465D01*
X246558362Y-151344318D01*
X246641147Y-151366500D01*
X246641149Y-151366500D01*
X246726851Y-151366500D01*
X246726853Y-151366500D01*
X246809638Y-151344318D01*
X246883862Y-151301465D01*
X246944465Y-151240862D01*
X246950159Y-151231000D01*
X246995628Y-151190059D01*
X247035895Y-151181500D01*
X247038851Y-151181500D01*
X247038853Y-151181500D01*
X247121638Y-151159318D01*
X247195862Y-151116465D01*
X247256465Y-151055862D01*
X247299318Y-150981638D01*
X247321500Y-150898853D01*
X247321500Y-150813147D01*
X247299318Y-150730362D01*
X247256465Y-150656138D01*
X247195862Y-150595535D01*
X247121638Y-150552682D01*
X247038853Y-150530500D01*
X246953147Y-150530500D01*
X246871556Y-150552362D01*
X246870362Y-150552682D01*
X246796138Y-150595535D01*
X246735533Y-150656140D01*
X246729841Y-150666000D01*
X246684372Y-150706941D01*
X246644105Y-150715500D01*
X246641147Y-150715500D01*
X246558362Y-150737682D01*
X246484138Y-150780535D01*
X246423535Y-150841138D01*
X246380682Y-150915362D01*
X246358500Y-150998147D01*
X237893828Y-150998147D01*
X237871212Y-150975531D01*
X237859273Y-150968638D01*
X237791290Y-150929387D01*
X237791289Y-150929386D01*
X237791288Y-150929386D01*
X237702144Y-150905500D01*
X237702142Y-150905500D01*
X235669500Y-150905500D01*
X235611309Y-150886593D01*
X235575345Y-150837093D01*
X235570500Y-150806500D01*
X235570500Y-150733148D01*
X235570500Y-150733147D01*
X235548318Y-150650362D01*
X235505465Y-150576138D01*
X235444862Y-150515535D01*
X235370638Y-150472682D01*
X235370637Y-150472681D01*
X235370634Y-150472680D01*
X235352110Y-150467717D01*
X235300796Y-150434393D01*
X235278870Y-150377272D01*
X235294706Y-150318171D01*
X235299192Y-150311824D01*
X235301462Y-150308865D01*
X235301465Y-150308862D01*
X235344318Y-150234638D01*
X235366500Y-150151853D01*
X235366500Y-150066147D01*
X235344318Y-149983362D01*
X235301465Y-149909138D01*
X235297314Y-149904987D01*
X235285329Y-149893001D01*
X235257552Y-149838484D01*
X235267125Y-149778052D01*
X235268796Y-149774915D01*
X235275528Y-149762798D01*
X235295465Y-149742862D01*
X235333983Y-149676147D01*
X236805500Y-149676147D01*
X236805500Y-149761853D01*
X236827682Y-149844638D01*
X236870535Y-149918862D01*
X236931138Y-149979465D01*
X237005362Y-150022318D01*
X237088147Y-150044500D01*
X237088149Y-150044500D01*
X237173851Y-150044500D01*
X237173853Y-150044500D01*
X237256638Y-150022318D01*
X237330862Y-149979465D01*
X237391465Y-149918862D01*
X237427096Y-149857147D01*
X246941500Y-149857147D01*
X246941500Y-149942853D01*
X246963682Y-150025638D01*
X247006535Y-150099862D01*
X247067138Y-150160465D01*
X247141362Y-150203318D01*
X247224147Y-150225500D01*
X247224149Y-150225500D01*
X247309851Y-150225500D01*
X247309853Y-150225500D01*
X247392638Y-150203318D01*
X247466862Y-150160465D01*
X247527465Y-150099862D01*
X247570318Y-150025638D01*
X247592500Y-149942853D01*
X247592500Y-149857147D01*
X247570318Y-149774362D01*
X247527465Y-149700138D01*
X247498004Y-149670677D01*
X247470229Y-149616163D01*
X247479800Y-149555731D01*
X247523065Y-149512466D01*
X247542380Y-149505052D01*
X247593638Y-149491318D01*
X247667862Y-149448465D01*
X247728465Y-149387862D01*
X247771318Y-149313638D01*
X247793500Y-149230853D01*
X247793500Y-149145147D01*
X247771318Y-149062362D01*
X247728465Y-148988138D01*
X247667862Y-148927535D01*
X247593638Y-148884682D01*
X247510853Y-148862500D01*
X247425147Y-148862500D01*
X247342362Y-148884682D01*
X247268138Y-148927535D01*
X247207535Y-148988138D01*
X247164682Y-149062362D01*
X247142500Y-149145147D01*
X247142500Y-149230853D01*
X247164682Y-149313638D01*
X247207535Y-149387862D01*
X247236994Y-149417321D01*
X247264770Y-149471836D01*
X247255199Y-149532268D01*
X247211934Y-149575533D01*
X247192614Y-149582949D01*
X247141362Y-149596682D01*
X247067138Y-149639535D01*
X247006535Y-149700138D01*
X246963682Y-149774362D01*
X246941500Y-149857147D01*
X237427096Y-149857147D01*
X237434318Y-149844638D01*
X237456500Y-149761853D01*
X237456500Y-149676147D01*
X237434318Y-149593362D01*
X237391465Y-149519138D01*
X237330862Y-149458535D01*
X237256638Y-149415682D01*
X237173853Y-149393500D01*
X237088147Y-149393500D01*
X237005362Y-149415682D01*
X236931138Y-149458535D01*
X236870535Y-149519138D01*
X236827682Y-149593362D01*
X236805500Y-149676147D01*
X235333983Y-149676147D01*
X235338318Y-149668638D01*
X235360500Y-149585853D01*
X235360500Y-149500147D01*
X235338318Y-149417362D01*
X235295465Y-149343138D01*
X235234862Y-149282535D01*
X235160638Y-149239682D01*
X235077853Y-149217500D01*
X234992147Y-149217500D01*
X234909362Y-149239682D01*
X234835138Y-149282535D01*
X234774535Y-149343138D01*
X234731682Y-149417362D01*
X234709500Y-149500147D01*
X234709500Y-149585853D01*
X234731682Y-149668638D01*
X234774535Y-149742862D01*
X234790671Y-149758998D01*
X234818447Y-149813513D01*
X234808876Y-149873945D01*
X234790672Y-149899000D01*
X234780535Y-149909138D01*
X234737682Y-149983362D01*
X234715500Y-150066147D01*
X234715500Y-150151853D01*
X234737682Y-150234638D01*
X234780535Y-150308862D01*
X234841138Y-150369465D01*
X234915362Y-150412318D01*
X234933887Y-150417281D01*
X234985201Y-150450604D01*
X235007129Y-150507725D01*
X234991294Y-150566826D01*
X234986815Y-150573164D01*
X234984542Y-150576126D01*
X234984535Y-150576137D01*
X234984535Y-150576138D01*
X234941682Y-150650362D01*
X234924229Y-150715500D01*
X234919500Y-150733148D01*
X234919500Y-150806500D01*
X234900593Y-150864691D01*
X234851093Y-150900655D01*
X234820500Y-150905500D01*
X228226366Y-150905500D01*
X228168175Y-150886593D01*
X228156316Y-150876457D01*
X227510400Y-150229675D01*
X227510395Y-150229671D01*
X227430512Y-150183480D01*
X227430507Y-150183477D01*
X227344852Y-150160465D01*
X227341376Y-150159531D01*
X227249091Y-150159470D01*
X227249086Y-150159470D01*
X227159938Y-150183292D01*
X227159931Y-150183295D01*
X227079974Y-150229387D01*
X227014675Y-150294599D01*
X227014671Y-150294604D01*
X226968480Y-150374487D01*
X226968477Y-150374493D01*
X226968476Y-150374497D01*
X226944531Y-150463623D01*
X226944531Y-150463624D01*
X226944470Y-150555908D01*
X226944470Y-150555913D01*
X226968292Y-150645061D01*
X226968294Y-150645066D01*
X226968295Y-150645069D01*
X227014386Y-150725024D01*
X227475380Y-151186637D01*
X227496258Y-151207543D01*
X227523999Y-151262079D01*
X227514386Y-151322504D01*
X227471093Y-151365740D01*
X227426207Y-151376500D01*
X223300024Y-151376500D01*
X223241833Y-151357593D01*
X223205869Y-151308093D01*
X223205869Y-151246907D01*
X223216927Y-151225889D01*
X223216220Y-151225481D01*
X223219462Y-151219864D01*
X223219465Y-151219862D01*
X223262318Y-151145638D01*
X223284500Y-151062853D01*
X223284500Y-150977147D01*
X223262318Y-150894362D01*
X223219465Y-150820138D01*
X223219461Y-150820134D01*
X223219459Y-150820130D01*
X223215514Y-150814988D01*
X223217654Y-150813345D01*
X223195053Y-150768987D01*
X223204624Y-150708555D01*
X223247889Y-150665290D01*
X223292834Y-150654500D01*
X225572370Y-150654500D01*
X225572554Y-150654576D01*
X225622382Y-150654500D01*
X225671828Y-150654500D01*
X225671829Y-150654499D01*
X225672206Y-150654424D01*
X225672209Y-150654424D01*
X225718103Y-150635332D01*
X225763897Y-150616364D01*
X225764036Y-150616224D01*
X225764220Y-150616148D01*
X225799193Y-150581066D01*
X225799335Y-150580994D01*
X225799301Y-150580960D01*
X225840892Y-150539369D01*
X225841474Y-150538657D01*
X225955454Y-150424329D01*
X225999938Y-150398601D01*
X226075638Y-150378318D01*
X226149862Y-150335465D01*
X226210465Y-150274862D01*
X226253318Y-150200638D01*
X226275500Y-150117853D01*
X226275500Y-150032147D01*
X226255404Y-149957147D01*
X230659500Y-149957147D01*
X230659500Y-150042853D01*
X230681682Y-150125638D01*
X230724535Y-150199862D01*
X230785138Y-150260465D01*
X230859362Y-150303318D01*
X230942147Y-150325500D01*
X230942149Y-150325500D01*
X231027851Y-150325500D01*
X231027853Y-150325500D01*
X231110638Y-150303318D01*
X231184862Y-150260465D01*
X231245465Y-150199862D01*
X231288318Y-150125638D01*
X231310500Y-150042853D01*
X231310500Y-149957147D01*
X231288318Y-149874362D01*
X231245465Y-149800138D01*
X231184862Y-149739535D01*
X231110638Y-149696682D01*
X231027853Y-149674500D01*
X230942147Y-149674500D01*
X230859362Y-149696682D01*
X230785138Y-149739535D01*
X230724535Y-149800138D01*
X230681682Y-149874362D01*
X230659500Y-149957147D01*
X226255404Y-149957147D01*
X226253318Y-149949362D01*
X226210465Y-149875138D01*
X226149862Y-149814535D01*
X226075638Y-149771682D01*
X225992853Y-149749500D01*
X225907147Y-149749500D01*
X225824362Y-149771682D01*
X225750138Y-149814535D01*
X225689535Y-149875138D01*
X225646680Y-149949365D01*
X225626014Y-150026492D01*
X225600499Y-150070764D01*
X225547031Y-150124396D01*
X225492557Y-150152257D01*
X225476920Y-150153500D01*
X224877834Y-150153500D01*
X224819643Y-150134593D01*
X224783679Y-150085093D01*
X224783679Y-150023907D01*
X224807828Y-149984498D01*
X224848465Y-149943862D01*
X224891318Y-149869638D01*
X224913500Y-149786853D01*
X224913500Y-149701147D01*
X224891318Y-149618362D01*
X224848465Y-149544138D01*
X224787862Y-149483535D01*
X224716328Y-149442235D01*
X224675389Y-149396767D01*
X224668993Y-149335917D01*
X224699586Y-149282929D01*
X224755482Y-149258042D01*
X224765830Y-149257500D01*
X226961885Y-149257500D01*
X227020076Y-149276407D01*
X227056040Y-149325907D01*
X227057506Y-149330858D01*
X227064682Y-149357638D01*
X227107535Y-149431862D01*
X227168138Y-149492465D01*
X227242362Y-149535318D01*
X227325147Y-149557500D01*
X227325149Y-149557500D01*
X227410851Y-149557500D01*
X227410853Y-149557500D01*
X227493638Y-149535318D01*
X227562151Y-149495762D01*
X227611648Y-149482500D01*
X232062352Y-149482500D01*
X232111848Y-149495762D01*
X232180362Y-149535318D01*
X232263147Y-149557500D01*
X232263149Y-149557500D01*
X232348851Y-149557500D01*
X232348853Y-149557500D01*
X232431638Y-149535318D01*
X232505862Y-149492465D01*
X232566465Y-149431862D01*
X232609318Y-149357638D01*
X232630690Y-149277875D01*
X232664013Y-149226563D01*
X232721134Y-149204636D01*
X232726316Y-149204500D01*
X233883829Y-149204500D01*
X233941885Y-149180451D01*
X233975897Y-149166364D01*
X234542848Y-148599412D01*
X234587225Y-148573792D01*
X234663638Y-148553318D01*
X234737862Y-148510465D01*
X234798465Y-148449862D01*
X234832941Y-148390147D01*
X237309500Y-148390147D01*
X237309500Y-148475853D01*
X237331682Y-148558638D01*
X237374535Y-148632862D01*
X237435138Y-148693465D01*
X237509362Y-148736318D01*
X237592147Y-148758500D01*
X237592149Y-148758500D01*
X237677851Y-148758500D01*
X237677853Y-148758500D01*
X237760638Y-148736318D01*
X237834862Y-148693465D01*
X237895465Y-148632862D01*
X237938318Y-148558638D01*
X237960500Y-148475853D01*
X237960500Y-148390147D01*
X237938318Y-148307362D01*
X237895465Y-148233138D01*
X237834862Y-148172535D01*
X237760638Y-148129682D01*
X237677853Y-148107500D01*
X237592147Y-148107500D01*
X237509362Y-148129682D01*
X237435138Y-148172535D01*
X237374535Y-148233138D01*
X237331682Y-148307362D01*
X237309500Y-148390147D01*
X234832941Y-148390147D01*
X234841318Y-148375638D01*
X234863500Y-148292853D01*
X234863500Y-148207147D01*
X234841318Y-148124362D01*
X234798465Y-148050138D01*
X234737862Y-147989535D01*
X234663638Y-147946682D01*
X234580853Y-147924500D01*
X234495147Y-147924500D01*
X234430791Y-147941744D01*
X234412362Y-147946682D01*
X234338138Y-147989535D01*
X234277535Y-148050138D01*
X234234682Y-148124361D01*
X234229411Y-148144033D01*
X234215180Y-148197147D01*
X234214208Y-148200773D01*
X234188585Y-148245152D01*
X233759235Y-148674503D01*
X233704718Y-148702281D01*
X233689231Y-148703500D01*
X227780500Y-148703500D01*
X227722309Y-148684593D01*
X227686345Y-148635093D01*
X227681500Y-148604500D01*
X227681500Y-148532148D01*
X227678017Y-148519148D01*
X227659318Y-148449362D01*
X227616465Y-148375138D01*
X227555862Y-148314535D01*
X227481638Y-148271682D01*
X227481637Y-148271681D01*
X227481634Y-148271680D01*
X227475643Y-148269199D01*
X227476110Y-148268070D01*
X227430378Y-148238367D01*
X227408456Y-148181244D01*
X227424297Y-148122145D01*
X227471851Y-148083643D01*
X227481688Y-148080448D01*
X227489638Y-148078318D01*
X227563862Y-148035465D01*
X227624465Y-147974862D01*
X227667318Y-147900638D01*
X227689500Y-147817853D01*
X227689500Y-147732147D01*
X227667318Y-147649362D01*
X227624465Y-147575138D01*
X227563862Y-147514535D01*
X227489638Y-147471682D01*
X227406853Y-147449500D01*
X227321147Y-147449500D01*
X227238362Y-147471682D01*
X227169848Y-147511237D01*
X227120352Y-147524500D01*
X224767171Y-147524500D01*
X224675103Y-147562635D01*
X224292234Y-147945504D01*
X224237718Y-147973281D01*
X224222231Y-147974500D01*
X220325544Y-147974500D01*
X220267353Y-147955593D01*
X220231389Y-147906093D01*
X220231389Y-147844907D01*
X220239807Y-147826000D01*
X220240462Y-147824864D01*
X220240465Y-147824862D01*
X220283318Y-147750638D01*
X220305500Y-147667853D01*
X220305500Y-147582147D01*
X220305500Y-147577500D01*
X220324407Y-147519309D01*
X220373907Y-147483345D01*
X220404500Y-147478500D01*
X222592011Y-147478500D01*
X222650202Y-147497407D01*
X222677747Y-147528000D01*
X222704962Y-147575138D01*
X222706535Y-147577862D01*
X222767138Y-147638465D01*
X222841362Y-147681318D01*
X222924147Y-147703500D01*
X222924149Y-147703500D01*
X223009851Y-147703500D01*
X223009853Y-147703500D01*
X223092638Y-147681318D01*
X223166862Y-147638465D01*
X223227465Y-147577862D01*
X223270318Y-147503638D01*
X223292500Y-147420853D01*
X223292500Y-147335147D01*
X223270318Y-147252362D01*
X223227465Y-147178138D01*
X223166862Y-147117535D01*
X223092638Y-147074682D01*
X223016224Y-147054207D01*
X222971847Y-147028586D01*
X222958897Y-147015636D01*
X222958895Y-147015635D01*
X222958894Y-147015634D01*
X222866829Y-146977500D01*
X222866828Y-146977500D01*
X215838742Y-146977500D01*
X215816898Y-146970402D01*
X215794200Y-146966914D01*
X215788364Y-146961131D01*
X215780551Y-146958593D01*
X215767050Y-146940011D01*
X215750738Y-146923847D01*
X215749945Y-146916468D01*
X215744587Y-146909093D01*
X215740891Y-146863459D01*
X215741713Y-146858110D01*
X215752500Y-146817853D01*
X215752500Y-146787934D01*
X215753649Y-146780459D01*
X215764176Y-146759563D01*
X215771407Y-146737309D01*
X215777686Y-146732746D01*
X215781178Y-146725817D01*
X215801972Y-146715102D01*
X215820907Y-146701345D01*
X215832114Y-146699570D01*
X215835567Y-146697791D01*
X215839515Y-146698397D01*
X215851500Y-146696500D01*
X226294352Y-146696500D01*
X226343848Y-146709762D01*
X226412362Y-146749318D01*
X226495147Y-146771500D01*
X226495149Y-146771500D01*
X226580851Y-146771500D01*
X226580853Y-146771500D01*
X226663638Y-146749318D01*
X226663999Y-146749109D01*
X226664290Y-146749047D01*
X226669632Y-146746835D01*
X226670042Y-146747824D01*
X226723845Y-146736387D01*
X226779741Y-146761271D01*
X226810336Y-146814258D01*
X226812500Y-146834845D01*
X226812500Y-146850853D01*
X226834682Y-146933638D01*
X226877535Y-147007862D01*
X226938138Y-147068465D01*
X227012362Y-147111318D01*
X227095147Y-147133500D01*
X227095149Y-147133500D01*
X227180851Y-147133500D01*
X227180853Y-147133500D01*
X227263638Y-147111318D01*
X227337862Y-147068465D01*
X227398465Y-147007862D01*
X227441318Y-146933638D01*
X227450828Y-146898147D01*
X228844500Y-146898147D01*
X228844500Y-146983853D01*
X228866682Y-147066638D01*
X228909535Y-147140862D01*
X228970138Y-147201465D01*
X229044362Y-147244318D01*
X229127147Y-147266500D01*
X229127149Y-147266500D01*
X229212851Y-147266500D01*
X229212853Y-147266500D01*
X229295638Y-147244318D01*
X229369862Y-147201465D01*
X229430465Y-147140862D01*
X229473318Y-147066638D01*
X229495500Y-146983853D01*
X229495500Y-146898147D01*
X229473318Y-146815362D01*
X229430465Y-146741138D01*
X229369862Y-146680535D01*
X229369859Y-146680533D01*
X229295642Y-146637684D01*
X229295640Y-146637683D01*
X229295639Y-146637682D01*
X229295638Y-146637682D01*
X229212853Y-146615500D01*
X229127147Y-146615500D01*
X229044362Y-146637682D01*
X228970138Y-146680535D01*
X228909535Y-146741138D01*
X228866682Y-146815362D01*
X228844500Y-146898147D01*
X227450828Y-146898147D01*
X227463500Y-146850853D01*
X227463500Y-146765147D01*
X227441318Y-146682362D01*
X227398465Y-146608138D01*
X227347474Y-146557147D01*
X231138500Y-146557147D01*
X231138500Y-146642853D01*
X231160682Y-146725638D01*
X231203535Y-146799862D01*
X231264138Y-146860465D01*
X231338362Y-146903318D01*
X231421147Y-146925500D01*
X231421149Y-146925500D01*
X231506851Y-146925500D01*
X231506853Y-146925500D01*
X231589638Y-146903318D01*
X231663862Y-146860465D01*
X231724465Y-146799862D01*
X231767318Y-146725638D01*
X231789500Y-146642853D01*
X231789500Y-146557147D01*
X231767318Y-146474362D01*
X231724465Y-146400138D01*
X231663862Y-146339535D01*
X231589638Y-146296682D01*
X231506853Y-146274500D01*
X231421147Y-146274500D01*
X231338362Y-146296682D01*
X231264138Y-146339535D01*
X231203535Y-146400138D01*
X231160682Y-146474362D01*
X231138500Y-146557147D01*
X227347474Y-146557147D01*
X227337862Y-146547535D01*
X227263638Y-146504682D01*
X227180853Y-146482500D01*
X227095147Y-146482500D01*
X227012362Y-146504682D01*
X227012361Y-146504682D01*
X227012359Y-146504683D01*
X227012357Y-146504684D01*
X227011992Y-146504895D01*
X227011696Y-146504957D01*
X227006368Y-146507165D01*
X227005958Y-146506176D01*
X226952143Y-146517611D01*
X226896250Y-146492719D01*
X226865662Y-146439729D01*
X226863500Y-146419154D01*
X226863500Y-146403148D01*
X226863421Y-146402853D01*
X226841318Y-146320362D01*
X226798465Y-146246138D01*
X226737862Y-146185535D01*
X226663638Y-146142682D01*
X226580853Y-146120500D01*
X226495147Y-146120500D01*
X226412362Y-146142682D01*
X226343848Y-146182237D01*
X226294352Y-146195500D01*
X215653834Y-146195500D01*
X215637900Y-146190322D01*
X215621152Y-146189950D01*
X215609532Y-146181105D01*
X215595643Y-146176593D01*
X215585795Y-146163039D01*
X215572465Y-146152893D01*
X215568263Y-146138907D01*
X215559679Y-146127093D01*
X215559679Y-146110338D01*
X215554859Y-146094296D01*
X215559679Y-146083015D01*
X215559679Y-146065907D01*
X215575057Y-146036540D01*
X215579103Y-146031223D01*
X215608180Y-146002147D01*
X229838500Y-146002147D01*
X229838500Y-146087853D01*
X229860682Y-146170638D01*
X229903535Y-146244862D01*
X229964138Y-146305465D01*
X230038362Y-146348318D01*
X230121147Y-146370500D01*
X230121149Y-146370500D01*
X230206851Y-146370500D01*
X230206853Y-146370500D01*
X230289638Y-146348318D01*
X230363862Y-146305465D01*
X230424465Y-146244862D01*
X230467318Y-146170638D01*
X230489500Y-146087853D01*
X230489500Y-146054147D01*
X232246500Y-146054147D01*
X232246500Y-146139853D01*
X232268682Y-146222638D01*
X232311535Y-146296862D01*
X232372138Y-146357465D01*
X232388055Y-146366655D01*
X232428995Y-146412121D01*
X232435392Y-146472971D01*
X232434182Y-146478012D01*
X232428584Y-146498906D01*
X232424500Y-146514147D01*
X232424500Y-146599853D01*
X232446682Y-146682638D01*
X232489535Y-146756862D01*
X232550138Y-146817465D01*
X232624362Y-146860318D01*
X232707147Y-146882500D01*
X232707149Y-146882500D01*
X232792851Y-146882500D01*
X232792853Y-146882500D01*
X232875638Y-146860318D01*
X232949862Y-146817465D01*
X233010465Y-146756862D01*
X233053318Y-146682638D01*
X233075500Y-146599853D01*
X233075500Y-146514147D01*
X233053318Y-146431362D01*
X233010465Y-146357138D01*
X232970474Y-146317147D01*
X236257500Y-146317147D01*
X236257500Y-146402853D01*
X236279682Y-146485638D01*
X236322535Y-146559862D01*
X236383138Y-146620465D01*
X236383140Y-146620466D01*
X236383141Y-146620467D01*
X236388287Y-146624416D01*
X236387522Y-146625411D01*
X236423935Y-146665841D01*
X236432500Y-146706121D01*
X236432500Y-146785853D01*
X236454682Y-146868638D01*
X236497535Y-146942862D01*
X236558138Y-147003465D01*
X236632362Y-147046318D01*
X236715147Y-147068500D01*
X236715149Y-147068500D01*
X236800851Y-147068500D01*
X236800853Y-147068500D01*
X236883638Y-147046318D01*
X236957862Y-147003465D01*
X237018465Y-146942862D01*
X237061318Y-146868638D01*
X237083500Y-146785853D01*
X237083500Y-146709500D01*
X237102407Y-146651309D01*
X237151907Y-146615345D01*
X237182500Y-146610500D01*
X238533172Y-146610500D01*
X238591363Y-146629407D01*
X238603194Y-146639515D01*
X240006568Y-148043724D01*
X240032168Y-148088080D01*
X240052682Y-148164638D01*
X240095535Y-148238862D01*
X240156138Y-148299465D01*
X240230362Y-148342318D01*
X240313147Y-148364500D01*
X240313149Y-148364500D01*
X240398851Y-148364500D01*
X240398853Y-148364500D01*
X240481638Y-148342318D01*
X240526968Y-148316147D01*
X240931500Y-148316147D01*
X240931500Y-148401853D01*
X240953682Y-148484638D01*
X240996535Y-148558862D01*
X241057138Y-148619465D01*
X241131362Y-148662318D01*
X241214147Y-148684500D01*
X241214149Y-148684500D01*
X241299851Y-148684500D01*
X241299853Y-148684500D01*
X241382638Y-148662318D01*
X241456862Y-148619465D01*
X241497180Y-148579147D01*
X256739500Y-148579147D01*
X256739500Y-148664853D01*
X256761682Y-148747638D01*
X256804535Y-148821862D01*
X256865138Y-148882465D01*
X256939362Y-148925318D01*
X257022147Y-148947500D01*
X257022149Y-148947500D01*
X257107851Y-148947500D01*
X257107853Y-148947500D01*
X257190638Y-148925318D01*
X257264862Y-148882465D01*
X257325465Y-148821862D01*
X257368318Y-148747638D01*
X257390500Y-148664853D01*
X257390500Y-148579147D01*
X257384605Y-148557147D01*
X300774500Y-148557147D01*
X300774500Y-148642853D01*
X300796682Y-148725638D01*
X300839535Y-148799862D01*
X300900138Y-148860465D01*
X300974362Y-148903318D01*
X301057147Y-148925500D01*
X301057149Y-148925500D01*
X301142851Y-148925500D01*
X301142853Y-148925500D01*
X301225638Y-148903318D01*
X301299862Y-148860465D01*
X301360465Y-148799862D01*
X301403318Y-148725638D01*
X301425500Y-148642853D01*
X301425500Y-148557147D01*
X301403318Y-148474362D01*
X301360465Y-148400138D01*
X301299862Y-148339535D01*
X301225638Y-148296682D01*
X301142853Y-148274500D01*
X301057147Y-148274500D01*
X300974362Y-148296682D01*
X300900138Y-148339535D01*
X300839535Y-148400138D01*
X300796682Y-148474362D01*
X300774500Y-148557147D01*
X257384605Y-148557147D01*
X257368318Y-148496362D01*
X257325465Y-148422138D01*
X257264862Y-148361535D01*
X257190638Y-148318682D01*
X257107853Y-148296500D01*
X257022147Y-148296500D01*
X256939362Y-148318682D01*
X256865138Y-148361535D01*
X256804535Y-148422138D01*
X256761682Y-148496362D01*
X256739500Y-148579147D01*
X241497180Y-148579147D01*
X241517465Y-148558862D01*
X241560318Y-148484638D01*
X241582500Y-148401853D01*
X241582500Y-148316147D01*
X241560318Y-148233362D01*
X241517465Y-148159138D01*
X241456862Y-148098535D01*
X241382638Y-148055682D01*
X241299853Y-148033500D01*
X241214147Y-148033500D01*
X241131362Y-148055682D01*
X241057138Y-148098535D01*
X240996535Y-148159138D01*
X240953682Y-148233362D01*
X240931500Y-148316147D01*
X240526968Y-148316147D01*
X240555862Y-148299465D01*
X240616465Y-148238862D01*
X240659318Y-148164638D01*
X240681500Y-148081853D01*
X240681500Y-147996147D01*
X240659318Y-147913362D01*
X240616465Y-147839138D01*
X240555862Y-147778535D01*
X240481638Y-147735682D01*
X240405364Y-147715244D01*
X240360964Y-147689601D01*
X240354364Y-147682997D01*
X240006721Y-147335147D01*
X246254500Y-147335147D01*
X246254500Y-147420853D01*
X246276682Y-147503638D01*
X246319535Y-147577862D01*
X246380138Y-147638465D01*
X246454362Y-147681318D01*
X246537147Y-147703500D01*
X246537149Y-147703500D01*
X246622851Y-147703500D01*
X246622853Y-147703500D01*
X246705638Y-147681318D01*
X246779862Y-147638465D01*
X246840465Y-147577862D01*
X246883318Y-147503638D01*
X246905500Y-147420853D01*
X246905500Y-147394147D01*
X295992500Y-147394147D01*
X295992500Y-147479853D01*
X296014682Y-147562638D01*
X296057535Y-147636862D01*
X296118138Y-147697465D01*
X296192362Y-147740318D01*
X296275147Y-147762500D01*
X296275149Y-147762500D01*
X296360851Y-147762500D01*
X296360853Y-147762500D01*
X296443638Y-147740318D01*
X296517862Y-147697465D01*
X296578465Y-147636862D01*
X296621318Y-147562638D01*
X296643500Y-147479853D01*
X296643500Y-147394147D01*
X296621318Y-147311362D01*
X296578465Y-147237138D01*
X296517862Y-147176535D01*
X296443638Y-147133682D01*
X296360853Y-147111500D01*
X296275147Y-147111500D01*
X296192362Y-147133682D01*
X296118138Y-147176535D01*
X296057535Y-147237138D01*
X296014682Y-147311362D01*
X295992500Y-147394147D01*
X246905500Y-147394147D01*
X246905500Y-147335147D01*
X246883318Y-147252362D01*
X246840465Y-147178138D01*
X246779862Y-147117535D01*
X246705638Y-147074682D01*
X246622853Y-147052500D01*
X246537147Y-147052500D01*
X246454362Y-147074682D01*
X246380138Y-147117535D01*
X246319535Y-147178138D01*
X246276682Y-147252362D01*
X246254500Y-147335147D01*
X240006721Y-147335147D01*
X238897498Y-146225263D01*
X238897391Y-146225130D01*
X238879408Y-146207147D01*
X296424500Y-146207147D01*
X296424500Y-146292853D01*
X296446682Y-146375638D01*
X296489535Y-146449862D01*
X296550138Y-146510465D01*
X296624362Y-146553318D01*
X296707147Y-146575500D01*
X296707149Y-146575500D01*
X296792851Y-146575500D01*
X296792853Y-146575500D01*
X296875638Y-146553318D01*
X296949862Y-146510465D01*
X297010465Y-146449862D01*
X297053318Y-146375638D01*
X297075500Y-146292853D01*
X297075500Y-146207147D01*
X299424500Y-146207147D01*
X299424500Y-146292853D01*
X299446682Y-146375638D01*
X299489535Y-146449862D01*
X299550138Y-146510465D01*
X299624362Y-146553318D01*
X299707147Y-146575500D01*
X299707149Y-146575500D01*
X299792851Y-146575500D01*
X299792853Y-146575500D01*
X299875638Y-146553318D01*
X299949862Y-146510465D01*
X300010465Y-146449862D01*
X300053318Y-146375638D01*
X300075500Y-146292853D01*
X300075500Y-146236852D01*
X300076335Y-146234281D01*
X300075636Y-146231671D01*
X300085713Y-146205417D01*
X300094407Y-146178661D01*
X300096593Y-146177072D01*
X300097562Y-146174550D01*
X300121147Y-146159232D01*
X300143907Y-146142697D01*
X300148844Y-146141234D01*
X300214880Y-146123540D01*
X300275978Y-146126742D01*
X300323528Y-146165247D01*
X300339500Y-146219167D01*
X300339500Y-146292853D01*
X300361682Y-146375638D01*
X300404535Y-146449862D01*
X300465138Y-146510465D01*
X300539362Y-146553318D01*
X300622147Y-146575500D01*
X300622149Y-146575500D01*
X300707851Y-146575500D01*
X300707853Y-146575500D01*
X300790638Y-146553318D01*
X300864862Y-146510465D01*
X300925465Y-146449862D01*
X300968318Y-146375638D01*
X300990500Y-146292853D01*
X300990500Y-146207147D01*
X300968318Y-146124362D01*
X300925465Y-146050138D01*
X300864862Y-145989535D01*
X300790638Y-145946682D01*
X300707853Y-145924500D01*
X300622147Y-145924500D01*
X300579567Y-145935908D01*
X300555122Y-145942459D01*
X300494021Y-145939256D01*
X300446471Y-145900751D01*
X300430500Y-145846832D01*
X300430500Y-145773148D01*
X300430500Y-145773147D01*
X300408318Y-145690362D01*
X300365465Y-145616138D01*
X300304862Y-145555535D01*
X300230638Y-145512682D01*
X300147853Y-145490500D01*
X300062147Y-145490500D01*
X299979362Y-145512682D01*
X299905138Y-145555535D01*
X299844535Y-145616138D01*
X299801682Y-145690362D01*
X299779942Y-145771500D01*
X299779500Y-145773148D01*
X299779500Y-145829147D01*
X299760593Y-145887338D01*
X299711093Y-145923302D01*
X299706124Y-145924773D01*
X299624365Y-145946680D01*
X299567836Y-145979317D01*
X299550138Y-145989535D01*
X299489535Y-146050138D01*
X299446682Y-146124362D01*
X299424500Y-146207147D01*
X297075500Y-146207147D01*
X297053318Y-146124362D01*
X297010465Y-146050138D01*
X296949862Y-145989535D01*
X296875638Y-145946682D01*
X296792853Y-145924500D01*
X296707147Y-145924500D01*
X296624362Y-145946682D01*
X296550138Y-145989535D01*
X296489535Y-146050138D01*
X296446682Y-146124362D01*
X296424500Y-146207147D01*
X238879408Y-146207147D01*
X238855209Y-146182947D01*
X238855202Y-146182941D01*
X238855197Y-146182936D01*
X238819960Y-146147678D01*
X238819924Y-146147663D01*
X238819897Y-146147636D01*
X238819895Y-146147635D01*
X238819894Y-146147634D01*
X238813231Y-146144874D01*
X238766707Y-146105135D01*
X238752427Y-146045640D01*
X238775844Y-145989113D01*
X238825498Y-145957786D01*
X238849638Y-145951318D01*
X238923862Y-145908465D01*
X238984465Y-145847862D01*
X239027318Y-145773638D01*
X239049500Y-145690853D01*
X239049500Y-145605147D01*
X239027318Y-145522362D01*
X239027317Y-145522360D01*
X239025638Y-145516094D01*
X239028230Y-145515399D01*
X239024319Y-145465718D01*
X239056287Y-145413548D01*
X239071076Y-145403094D01*
X239125862Y-145371465D01*
X239152180Y-145345147D01*
X296688500Y-145345147D01*
X296688500Y-145430853D01*
X296710682Y-145513638D01*
X296753535Y-145587862D01*
X296814138Y-145648465D01*
X296888362Y-145691318D01*
X296971147Y-145713500D01*
X296971149Y-145713500D01*
X297056851Y-145713500D01*
X297056853Y-145713500D01*
X297139638Y-145691318D01*
X297213862Y-145648465D01*
X297274465Y-145587862D01*
X297317318Y-145513638D01*
X297339500Y-145430853D01*
X297339500Y-145353147D01*
X299009500Y-145353147D01*
X299009500Y-145438853D01*
X299031682Y-145521638D01*
X299074535Y-145595862D01*
X299135138Y-145656465D01*
X299209362Y-145699318D01*
X299292147Y-145721500D01*
X299292149Y-145721500D01*
X299377851Y-145721500D01*
X299377853Y-145721500D01*
X299460638Y-145699318D01*
X299534862Y-145656465D01*
X299595465Y-145595862D01*
X299638318Y-145521638D01*
X299660500Y-145438853D01*
X299660500Y-145353147D01*
X299638318Y-145270362D01*
X299595465Y-145196138D01*
X299534862Y-145135535D01*
X299460638Y-145092682D01*
X299377853Y-145070500D01*
X299292147Y-145070500D01*
X299209362Y-145092682D01*
X299135138Y-145135535D01*
X299074535Y-145196138D01*
X299031682Y-145270362D01*
X299009500Y-145353147D01*
X297339500Y-145353147D01*
X297339500Y-145345147D01*
X297317318Y-145262362D01*
X297274465Y-145188138D01*
X297213862Y-145127535D01*
X297139638Y-145084682D01*
X297056853Y-145062500D01*
X296971147Y-145062500D01*
X296888362Y-145084682D01*
X296814138Y-145127535D01*
X296753535Y-145188138D01*
X296710682Y-145262362D01*
X296688500Y-145345147D01*
X239152180Y-145345147D01*
X239186465Y-145310862D01*
X239229318Y-145236638D01*
X239251500Y-145153853D01*
X239251500Y-145068147D01*
X239229318Y-144985362D01*
X239186465Y-144911138D01*
X239125862Y-144850535D01*
X239119994Y-144847147D01*
X301041500Y-144847147D01*
X301041500Y-144932853D01*
X301063682Y-145015638D01*
X301106535Y-145089862D01*
X301167138Y-145150465D01*
X301241362Y-145193318D01*
X301324147Y-145215500D01*
X301324149Y-145215500D01*
X301409851Y-145215500D01*
X301409853Y-145215500D01*
X301492638Y-145193318D01*
X301566862Y-145150465D01*
X301627465Y-145089862D01*
X301670318Y-145015638D01*
X301692500Y-144932853D01*
X301692500Y-144847147D01*
X301670318Y-144764362D01*
X301627465Y-144690138D01*
X301566862Y-144629535D01*
X301492638Y-144586682D01*
X301409853Y-144564500D01*
X301324147Y-144564500D01*
X301241362Y-144586682D01*
X301167138Y-144629535D01*
X301106535Y-144690138D01*
X301063682Y-144764362D01*
X301041500Y-144847147D01*
X239119994Y-144847147D01*
X239051638Y-144807682D01*
X238968853Y-144785500D01*
X238883147Y-144785500D01*
X238800362Y-144807682D01*
X238726138Y-144850535D01*
X238665535Y-144911138D01*
X238622682Y-144985362D01*
X238600500Y-145068147D01*
X238600500Y-145153853D01*
X238622682Y-145236638D01*
X238622682Y-145236639D01*
X238624362Y-145242906D01*
X238621774Y-145243599D01*
X238625673Y-145293311D01*
X238593689Y-145345471D01*
X238578916Y-145355908D01*
X238524139Y-145387534D01*
X238524138Y-145387535D01*
X238463535Y-145448138D01*
X238420682Y-145522362D01*
X238398500Y-145605147D01*
X238398500Y-145690853D01*
X238420682Y-145773638D01*
X238463535Y-145847862D01*
X238524138Y-145908465D01*
X238552368Y-145924764D01*
X238593310Y-145970232D01*
X238599706Y-146031083D01*
X238569113Y-146084071D01*
X238513218Y-146108958D01*
X238502869Y-146109500D01*
X236826648Y-146109500D01*
X236777151Y-146096237D01*
X236708638Y-146056682D01*
X236625853Y-146034500D01*
X236540147Y-146034500D01*
X236457362Y-146056682D01*
X236383138Y-146099535D01*
X236322535Y-146160138D01*
X236279682Y-146234362D01*
X236257500Y-146317147D01*
X232970474Y-146317147D01*
X232949862Y-146296535D01*
X232923720Y-146281442D01*
X232915168Y-146273297D01*
X232905959Y-146256263D01*
X232893002Y-146241873D01*
X232891753Y-146229987D01*
X232886069Y-146219474D01*
X232888631Y-146200279D01*
X232886608Y-146181023D01*
X232887808Y-146176021D01*
X232897500Y-146139853D01*
X232897500Y-146054147D01*
X232875318Y-145971362D01*
X232832465Y-145897138D01*
X232771862Y-145836535D01*
X232768949Y-145834853D01*
X232718992Y-145806010D01*
X232678051Y-145760541D01*
X232671655Y-145699690D01*
X232702248Y-145646702D01*
X232731631Y-145631187D01*
X232730643Y-145628801D01*
X232736634Y-145626319D01*
X232736633Y-145626319D01*
X232736638Y-145626318D01*
X232810862Y-145583465D01*
X232871465Y-145522862D01*
X232914318Y-145448638D01*
X232936500Y-145365853D01*
X232936500Y-145280147D01*
X232914318Y-145197362D01*
X232871465Y-145123138D01*
X232810862Y-145062535D01*
X232736638Y-145019682D01*
X232653853Y-144997500D01*
X232568147Y-144997500D01*
X232485362Y-145019682D01*
X232411138Y-145062535D01*
X232350535Y-145123138D01*
X232307682Y-145197362D01*
X232285500Y-145280147D01*
X232285500Y-145365853D01*
X232307682Y-145448638D01*
X232350535Y-145522862D01*
X232411138Y-145583465D01*
X232464008Y-145613989D01*
X232504948Y-145659458D01*
X232511344Y-145720308D01*
X232480751Y-145773296D01*
X232451574Y-145789310D01*
X232452357Y-145791199D01*
X232446365Y-145793680D01*
X232425009Y-145806010D01*
X232372138Y-145836535D01*
X232311535Y-145897138D01*
X232268682Y-145971362D01*
X232246500Y-146054147D01*
X230489500Y-146054147D01*
X230489500Y-146002147D01*
X230467318Y-145919362D01*
X230424465Y-145845138D01*
X230363862Y-145784535D01*
X230289638Y-145741682D01*
X230206853Y-145719500D01*
X230121147Y-145719500D01*
X230038362Y-145741682D01*
X229964138Y-145784535D01*
X229903535Y-145845138D01*
X229860682Y-145919362D01*
X229838500Y-146002147D01*
X215608180Y-146002147D01*
X215618465Y-145991862D01*
X215661318Y-145917638D01*
X215683500Y-145834853D01*
X215683500Y-145749147D01*
X215661318Y-145666362D01*
X215618465Y-145592138D01*
X215557862Y-145531535D01*
X215483638Y-145488682D01*
X215400853Y-145466500D01*
X215315147Y-145466500D01*
X215232362Y-145488682D01*
X215158138Y-145531535D01*
X215097535Y-145592138D01*
X215054682Y-145666362D01*
X215032500Y-145749147D01*
X215032500Y-145834853D01*
X215054682Y-145917638D01*
X215097535Y-145991862D01*
X215158138Y-146052465D01*
X215158140Y-146052466D01*
X215161170Y-146055496D01*
X215188947Y-146110013D01*
X215179376Y-146170445D01*
X215136111Y-146213710D01*
X215091166Y-146224500D01*
X209509500Y-146224500D01*
X209451309Y-146205593D01*
X209415345Y-146156093D01*
X209410500Y-146125500D01*
X209410500Y-146082148D01*
X209410500Y-146082147D01*
X209388318Y-145999362D01*
X209345465Y-145925138D01*
X209284862Y-145864535D01*
X209210638Y-145821682D01*
X209127853Y-145799500D01*
X209042147Y-145799500D01*
X208959362Y-145821682D01*
X208885138Y-145864535D01*
X208824535Y-145925138D01*
X208781682Y-145999362D01*
X208761023Y-146076465D01*
X208759500Y-146082148D01*
X208759500Y-146125500D01*
X208740593Y-146183691D01*
X208691093Y-146219655D01*
X208660500Y-146224500D01*
X207960587Y-146224500D01*
X207902396Y-146205593D01*
X207890645Y-146195565D01*
X207888580Y-146193504D01*
X207423611Y-145729350D01*
X207387897Y-145693636D01*
X207387806Y-145693598D01*
X207387740Y-145693532D01*
X207387712Y-145693512D01*
X207341946Y-145674602D01*
X207341869Y-145674570D01*
X207322052Y-145666362D01*
X207295828Y-145655500D01*
X207295827Y-145655500D01*
X207295825Y-145655499D01*
X207295607Y-145655455D01*
X207245251Y-145655499D01*
X207245207Y-145655500D01*
X197157171Y-145655500D01*
X197065105Y-145693634D01*
X196565235Y-146193504D01*
X196510718Y-146221281D01*
X196495231Y-146222500D01*
X190847500Y-146222500D01*
X190789309Y-146203593D01*
X190753345Y-146154093D01*
X190751720Y-146148545D01*
X190748500Y-146136230D01*
X190748500Y-146113147D01*
X190726318Y-146030362D01*
X190716263Y-146012948D01*
X190712890Y-146000045D01*
X190713935Y-145982169D01*
X190710212Y-145964655D01*
X190716001Y-145946836D01*
X190716462Y-145938964D01*
X190719936Y-145934725D01*
X190722935Y-145925498D01*
X190726316Y-145919641D01*
X190726315Y-145919641D01*
X190726318Y-145919638D01*
X190748500Y-145836853D01*
X190748500Y-145751147D01*
X190726318Y-145668362D01*
X190683465Y-145594138D01*
X190622862Y-145533535D01*
X190548638Y-145490682D01*
X190465853Y-145468500D01*
X190380147Y-145468500D01*
X190297362Y-145490682D01*
X190223138Y-145533535D01*
X190162535Y-145594138D01*
X190119682Y-145668362D01*
X190097500Y-145751147D01*
X190097500Y-145836853D01*
X190119315Y-145918271D01*
X190116113Y-145979372D01*
X190077608Y-146026921D01*
X190018508Y-146042757D01*
X189974190Y-146029630D01*
X189939639Y-146009682D01*
X189912043Y-146002288D01*
X189856853Y-145987500D01*
X189771147Y-145987500D01*
X189688362Y-146009682D01*
X189614138Y-146052535D01*
X189553535Y-146113138D01*
X189510682Y-146187362D01*
X189488500Y-146270147D01*
X189488500Y-146355853D01*
X189491394Y-146366652D01*
X189507082Y-146425203D01*
X189503879Y-146486304D01*
X189465374Y-146533854D01*
X189437079Y-146546451D01*
X189406362Y-146554682D01*
X189332138Y-146597535D01*
X189271535Y-146658138D01*
X189228682Y-146732362D01*
X189206500Y-146815147D01*
X189206500Y-146900853D01*
X189216688Y-146938878D01*
X189213486Y-146999978D01*
X189174981Y-147047528D01*
X189121062Y-147063500D01*
X187524507Y-147063500D01*
X187466316Y-147044593D01*
X187430352Y-146995093D01*
X187428880Y-146938879D01*
X187445500Y-146876853D01*
X187445500Y-146791147D01*
X187423318Y-146708362D01*
X187380465Y-146634138D01*
X187319862Y-146573535D01*
X187245638Y-146530682D01*
X187162853Y-146508500D01*
X187077147Y-146508500D01*
X186994362Y-146530682D01*
X186920138Y-146573535D01*
X186859535Y-146634138D01*
X186816682Y-146708362D01*
X186794500Y-146791147D01*
X186794500Y-146876853D01*
X186811119Y-146938879D01*
X186807918Y-146999978D01*
X186769413Y-147047528D01*
X186715493Y-147063500D01*
X170732208Y-147063500D01*
X170706586Y-147060127D01*
X170698132Y-147057862D01*
X170681853Y-147053500D01*
X170596147Y-147053500D01*
X170513362Y-147075682D01*
X170439138Y-147118535D01*
X170378535Y-147179138D01*
X170335682Y-147253362D01*
X170313500Y-147336147D01*
X170313500Y-147421853D01*
X170335682Y-147504638D01*
X170378535Y-147578862D01*
X170439138Y-147639465D01*
X170513362Y-147682318D01*
X170596147Y-147704500D01*
X170596149Y-147704500D01*
X170681851Y-147704500D01*
X170681853Y-147704500D01*
X170764638Y-147682318D01*
X170838862Y-147639465D01*
X170884832Y-147593494D01*
X170939347Y-147565719D01*
X170954834Y-147564500D01*
X189730794Y-147564500D01*
X189758071Y-147573362D01*
X189785662Y-147581096D01*
X189786972Y-147582753D01*
X189788985Y-147583407D01*
X189805845Y-147606614D01*
X189823619Y-147629084D01*
X189823582Y-147631026D01*
X189824949Y-147632907D01*
X189826120Y-147690218D01*
X189823838Y-147698359D01*
X189822682Y-147700362D01*
X189809760Y-147748585D01*
X189809573Y-147749255D01*
X189792930Y-147774250D01*
X189776548Y-147799476D01*
X189775785Y-147800000D01*
X189775663Y-147800184D01*
X189775347Y-147800300D01*
X189763748Y-147808273D01*
X189706139Y-147841534D01*
X189645535Y-147902138D01*
X189602680Y-147976365D01*
X189583292Y-148048723D01*
X189549968Y-148100037D01*
X189537167Y-148108835D01*
X189470139Y-148147534D01*
X189409529Y-148208144D01*
X189405586Y-148213284D01*
X189404192Y-148212214D01*
X189364937Y-148247546D01*
X189304086Y-148253931D01*
X189299087Y-148252730D01*
X189219853Y-148231500D01*
X189134147Y-148231500D01*
X189051362Y-148253682D01*
X188977138Y-148296535D01*
X188916535Y-148357138D01*
X188873682Y-148431362D01*
X188851500Y-148514147D01*
X188851500Y-148599853D01*
X188873682Y-148682638D01*
X188916535Y-148756862D01*
X188977138Y-148817465D01*
X189051362Y-148860318D01*
X189134147Y-148882500D01*
X189134149Y-148882500D01*
X189219851Y-148882500D01*
X189219853Y-148882500D01*
X189302638Y-148860318D01*
X189376862Y-148817465D01*
X189437465Y-148756862D01*
X189437467Y-148756857D01*
X189437470Y-148756855D01*
X189439074Y-148754765D01*
X189439284Y-148753982D01*
X189440317Y-148753145D01*
X189441414Y-148751716D01*
X189441757Y-148751979D01*
X189461130Y-148736290D01*
X189482035Y-148717464D01*
X189484729Y-148717180D01*
X189486834Y-148715476D01*
X189514920Y-148714004D01*
X189542885Y-148711062D01*
X189547885Y-148712262D01*
X189597268Y-148725494D01*
X189648580Y-148758816D01*
X189670506Y-148815938D01*
X189659525Y-148861688D01*
X189661165Y-148862368D01*
X189658683Y-148868359D01*
X189658682Y-148868361D01*
X189658682Y-148868362D01*
X189636500Y-148951147D01*
X189636500Y-149036853D01*
X189658682Y-149119638D01*
X189701535Y-149193862D01*
X189762138Y-149254465D01*
X189836362Y-149297318D01*
X189919147Y-149319500D01*
X189919149Y-149319500D01*
X190004851Y-149319500D01*
X190004853Y-149319500D01*
X190087638Y-149297318D01*
X190161862Y-149254465D01*
X190161863Y-149254463D01*
X190166233Y-149251941D01*
X190226082Y-149239220D01*
X190281977Y-149264107D01*
X190285769Y-149267707D01*
X190574610Y-149556835D01*
X190574636Y-149556897D01*
X190610567Y-149592828D01*
X190614417Y-149596682D01*
X190645001Y-149627296D01*
X190645101Y-149627363D01*
X190645102Y-149627363D01*
X190645103Y-149627364D01*
X190692001Y-149646790D01*
X190737048Y-149665475D01*
X190737111Y-149665475D01*
X190737172Y-149665500D01*
X190737254Y-149665500D01*
X190786875Y-149665500D01*
X190836703Y-149665525D01*
X190836704Y-149665524D01*
X190846317Y-149665529D01*
X190846619Y-149665500D01*
X197158220Y-149665500D01*
X197216411Y-149684407D01*
X197252375Y-149733907D01*
X197253838Y-149738847D01*
X197274682Y-149816638D01*
X197317535Y-149890862D01*
X197378138Y-149951465D01*
X197408100Y-149968763D01*
X197449042Y-150014233D01*
X197455438Y-150075083D01*
X197424845Y-150128071D01*
X197368950Y-150152958D01*
X197358601Y-150153500D01*
X190419767Y-150153500D01*
X190412169Y-150151031D01*
X190404280Y-150152281D01*
X190383624Y-150141756D01*
X190361576Y-150134593D01*
X190349770Y-150124510D01*
X190222411Y-149997150D01*
X190196793Y-149952776D01*
X190176318Y-149876362D01*
X190133465Y-149802138D01*
X190072862Y-149741535D01*
X189998638Y-149698682D01*
X189915853Y-149676500D01*
X189830147Y-149676500D01*
X189747362Y-149698682D01*
X189673138Y-149741535D01*
X189612535Y-149802138D01*
X189569682Y-149876362D01*
X189547500Y-149959147D01*
X189547500Y-150044853D01*
X189569682Y-150127638D01*
X189612535Y-150201862D01*
X189673138Y-150262465D01*
X189747362Y-150305318D01*
X189823774Y-150325792D01*
X189868153Y-150351414D01*
X190056989Y-150540249D01*
X190056992Y-150540253D01*
X190056993Y-150540253D01*
X190062635Y-150545895D01*
X190062636Y-150545897D01*
X190133103Y-150616364D01*
X190133104Y-150616364D01*
X190133105Y-150616365D01*
X190225171Y-150654500D01*
X190225172Y-150654500D01*
X190324828Y-150654500D01*
X190587500Y-150654500D01*
X190602412Y-150659345D01*
X190618093Y-150659345D01*
X190630778Y-150668561D01*
X190645691Y-150673407D01*
X190654907Y-150686092D01*
X190667593Y-150695309D01*
X190672438Y-150710221D01*
X190681655Y-150722907D01*
X190686500Y-150753500D01*
X190686500Y-150767500D01*
X190667593Y-150825691D01*
X190618093Y-150861655D01*
X190587500Y-150866500D01*
X186849768Y-150866500D01*
X186791577Y-150847593D01*
X186779764Y-150837504D01*
X186520407Y-150578147D01*
X186230897Y-150288636D01*
X186230895Y-150288635D01*
X186230894Y-150288634D01*
X186138829Y-150250500D01*
X186138828Y-150250500D01*
X185352344Y-150250500D01*
X185302738Y-150250388D01*
X185302466Y-150250500D01*
X185302172Y-150250500D01*
X185302171Y-150250500D01*
X185256433Y-150269444D01*
X185256432Y-150269443D01*
X185255635Y-150269773D01*
X185210583Y-150288316D01*
X185210374Y-150288523D01*
X185210103Y-150288636D01*
X185210070Y-150288668D01*
X185210069Y-150288669D01*
X185175058Y-150323679D01*
X185174902Y-150323835D01*
X185067346Y-150430907D01*
X185012766Y-150458562D01*
X184952356Y-150448854D01*
X184909189Y-150405492D01*
X184901266Y-150372328D01*
X184899347Y-150372581D01*
X184898500Y-150366149D01*
X184898500Y-150366148D01*
X184898500Y-150366147D01*
X184876318Y-150283362D01*
X184833465Y-150209138D01*
X184772862Y-150148535D01*
X184698638Y-150105682D01*
X184615853Y-150083500D01*
X184530147Y-150083500D01*
X184447362Y-150105682D01*
X184373138Y-150148535D01*
X184312535Y-150209138D01*
X184269682Y-150283362D01*
X184249233Y-150359682D01*
X184247500Y-150366148D01*
X184247500Y-150372500D01*
X184228593Y-150430691D01*
X184179093Y-150466655D01*
X184148500Y-150471500D01*
X183479957Y-150471500D01*
X183421766Y-150452593D01*
X183385802Y-150403093D01*
X183384331Y-150346876D01*
X183386843Y-150337500D01*
X183390500Y-150323853D01*
X183390500Y-150238147D01*
X183368318Y-150155362D01*
X183325465Y-150081138D01*
X183264862Y-150020535D01*
X183190638Y-149977682D01*
X183107853Y-149955500D01*
X183022147Y-149955500D01*
X182939362Y-149977682D01*
X182865138Y-150020535D01*
X182804535Y-150081138D01*
X182761682Y-150155362D01*
X182739809Y-150236996D01*
X182739500Y-150238148D01*
X182739500Y-150323855D01*
X182745669Y-150346876D01*
X182742468Y-150407978D01*
X182703963Y-150455528D01*
X182650043Y-150471500D01*
X182447648Y-150471500D01*
X182398151Y-150458237D01*
X182329638Y-150418682D01*
X182246853Y-150396500D01*
X182161147Y-150396500D01*
X182078362Y-150418682D01*
X182004138Y-150461535D01*
X181943535Y-150522138D01*
X181900682Y-150596362D01*
X181880187Y-150672853D01*
X181878500Y-150679148D01*
X181878500Y-150771342D01*
X181876258Y-150771342D01*
X181866922Y-150821732D01*
X181822543Y-150863853D01*
X181779916Y-150873500D01*
X178910812Y-150873500D01*
X178861395Y-150873259D01*
X178860805Y-150873500D01*
X178860171Y-150873500D01*
X178814999Y-150892209D01*
X178814583Y-150892380D01*
X178812734Y-150893136D01*
X178775267Y-150900500D01*
X178764147Y-150900500D01*
X178681362Y-150922682D01*
X178607138Y-150965535D01*
X178546535Y-151026138D01*
X178503682Y-151100362D01*
X178481500Y-151183147D01*
X178481500Y-151268853D01*
X178492760Y-151310879D01*
X178489559Y-151371978D01*
X178451054Y-151419528D01*
X178397134Y-151435500D01*
X177692769Y-151435500D01*
X177685171Y-151433031D01*
X177677282Y-151434281D01*
X177656626Y-151423756D01*
X177634578Y-151416593D01*
X177622765Y-151406504D01*
X177503414Y-151287153D01*
X177477792Y-151242774D01*
X177457318Y-151166362D01*
X177414465Y-151092138D01*
X177353862Y-151031535D01*
X177279638Y-150988682D01*
X177196853Y-150966500D01*
X177111147Y-150966500D01*
X177028362Y-150988682D01*
X176958363Y-151029096D01*
X176954133Y-151031538D01*
X176953433Y-151032239D01*
X176952798Y-151032562D01*
X176948988Y-151035486D01*
X176948445Y-151034779D01*
X176898914Y-151060012D01*
X176838483Y-151050434D01*
X176796863Y-151008807D01*
X176796562Y-151008982D01*
X176795911Y-151007856D01*
X176795222Y-151007166D01*
X176794069Y-151004665D01*
X176793319Y-151003366D01*
X176793318Y-151003362D01*
X176750465Y-150929138D01*
X176689862Y-150868535D01*
X176615638Y-150825682D01*
X176532853Y-150803500D01*
X176447147Y-150803500D01*
X176364362Y-150825682D01*
X176313175Y-150855235D01*
X176290135Y-150868537D01*
X176279410Y-150879262D01*
X176224893Y-150907038D01*
X176164461Y-150897464D01*
X176159911Y-150894994D01*
X176157640Y-150893683D01*
X176157639Y-150893682D01*
X176157638Y-150893682D01*
X176074853Y-150871500D01*
X175989147Y-150871500D01*
X175906362Y-150893682D01*
X175832138Y-150936535D01*
X175771535Y-150997138D01*
X175728682Y-151071362D01*
X175706500Y-151154147D01*
X175706500Y-151239853D01*
X175728682Y-151322638D01*
X175771535Y-151396862D01*
X175832138Y-151457465D01*
X175906362Y-151500318D01*
X175989147Y-151522500D01*
X175989149Y-151522500D01*
X176074851Y-151522500D01*
X176074853Y-151522500D01*
X176157638Y-151500318D01*
X176231862Y-151457465D01*
X176242586Y-151446740D01*
X176297100Y-151418962D01*
X176357532Y-151428532D01*
X176362091Y-151431007D01*
X176364362Y-151432318D01*
X176447147Y-151454500D01*
X176447149Y-151454500D01*
X176532851Y-151454500D01*
X176532853Y-151454500D01*
X176615638Y-151432318D01*
X176689862Y-151389465D01*
X176690555Y-151388771D01*
X176691183Y-151388451D01*
X176695012Y-151385514D01*
X176695556Y-151386223D01*
X176745067Y-151360990D01*
X176805500Y-151370556D01*
X176847140Y-151412189D01*
X176847438Y-151412018D01*
X176848078Y-151413127D01*
X176848768Y-151413817D01*
X176849923Y-151416322D01*
X176850681Y-151417635D01*
X176850682Y-151417638D01*
X176893535Y-151491862D01*
X176954138Y-151552465D01*
X177028362Y-151595318D01*
X177104774Y-151615792D01*
X177149152Y-151641414D01*
X177406103Y-151898364D01*
X177498171Y-151936500D01*
X177498172Y-151936500D01*
X177597828Y-151936500D01*
X181771363Y-151936500D01*
X181829554Y-151955407D01*
X181865518Y-152004907D01*
X181866990Y-152061122D01*
X181863500Y-152074147D01*
X181863500Y-152159853D01*
X181885682Y-152242638D01*
X181905544Y-152277040D01*
X181918265Y-152336888D01*
X181893378Y-152392783D01*
X181840390Y-152423376D01*
X181779540Y-152416980D01*
X181770316Y-152412280D01*
X181734638Y-152391682D01*
X181651853Y-152369500D01*
X181566147Y-152369500D01*
X181483362Y-152391682D01*
X181409138Y-152434535D01*
X181348535Y-152495138D01*
X181305682Y-152569362D01*
X181283500Y-152652147D01*
X181283500Y-152737853D01*
X181305682Y-152820638D01*
X181348535Y-152894862D01*
X181409138Y-152955465D01*
X181483362Y-152998318D01*
X181565723Y-153020386D01*
X181583844Y-153028542D01*
X181583848Y-153028535D01*
X181584016Y-153028604D01*
X181584216Y-153028710D01*
X181589883Y-153031261D01*
X181593950Y-153032926D01*
X181593951Y-153032927D01*
X181639517Y-153051589D01*
X181685172Y-153070500D01*
X181685174Y-153070500D01*
X181694181Y-153074231D01*
X181693680Y-153075439D01*
X181694505Y-153075902D01*
X181695136Y-153074369D01*
X181695316Y-153074443D01*
X181694676Y-153075998D01*
X181711253Y-153085298D01*
X181737767Y-153100008D01*
X181737871Y-153100233D01*
X181738089Y-153100355D01*
X181750830Y-153128048D01*
X181763605Y-153155471D01*
X181763557Y-153155713D01*
X181763662Y-153155940D01*
X181757691Y-153185836D01*
X181751909Y-153215527D01*
X181751727Y-153215695D01*
X181751679Y-153215941D01*
X181729366Y-153236533D01*
X181707146Y-153257240D01*
X181706862Y-153257302D01*
X181706716Y-153257438D01*
X181705727Y-153257554D01*
X181665339Y-153266500D01*
X164030768Y-153266500D01*
X163972577Y-153247593D01*
X163960764Y-153237504D01*
X162743923Y-152020662D01*
X162691414Y-151968153D01*
X162685060Y-151957147D01*
X167673500Y-151957147D01*
X167673500Y-152042853D01*
X167695682Y-152125638D01*
X167738535Y-152199862D01*
X167799138Y-152260465D01*
X167873362Y-152303318D01*
X167956147Y-152325500D01*
X167956149Y-152325500D01*
X168041851Y-152325500D01*
X168041853Y-152325500D01*
X168124638Y-152303318D01*
X168198862Y-152260465D01*
X168259465Y-152199862D01*
X168302318Y-152125638D01*
X168324500Y-152042853D01*
X168324500Y-151957147D01*
X168302318Y-151874362D01*
X168259465Y-151800138D01*
X168198862Y-151739535D01*
X168124638Y-151696682D01*
X168041853Y-151674500D01*
X167956147Y-151674500D01*
X167873362Y-151696682D01*
X167799138Y-151739535D01*
X167738535Y-151800138D01*
X167695682Y-151874362D01*
X167673500Y-151957147D01*
X162685060Y-151957147D01*
X162665792Y-151923774D01*
X162645318Y-151847362D01*
X162602465Y-151773138D01*
X162541862Y-151712535D01*
X162467638Y-151669682D01*
X162384853Y-151647500D01*
X162299147Y-151647500D01*
X162216362Y-151669682D01*
X162142138Y-151712535D01*
X162081535Y-151773138D01*
X162038682Y-151847362D01*
X162016500Y-151930147D01*
X162016500Y-152015853D01*
X162038682Y-152098638D01*
X162081535Y-152172862D01*
X162142138Y-152233465D01*
X162216362Y-152276318D01*
X162292774Y-152296792D01*
X162337153Y-152322414D01*
X163006601Y-152991861D01*
X163673635Y-153658895D01*
X163673636Y-153658897D01*
X163744103Y-153729364D01*
X163765295Y-153738142D01*
X163778664Y-153743680D01*
X163778666Y-153743681D01*
X163793417Y-153749791D01*
X163836172Y-153767501D01*
X163836173Y-153767501D01*
X163947351Y-153767501D01*
X163947359Y-153767500D01*
X187775829Y-153767500D01*
X187841473Y-153740309D01*
X187867897Y-153729364D01*
X188098763Y-153498496D01*
X188153280Y-153470719D01*
X188168767Y-153469500D01*
X188959500Y-153469500D01*
X189017691Y-153488407D01*
X189053655Y-153537907D01*
X189058500Y-153568500D01*
X189058500Y-153639853D01*
X189080682Y-153722638D01*
X189123535Y-153796862D01*
X189184138Y-153857465D01*
X189258362Y-153900318D01*
X189341147Y-153922500D01*
X189341149Y-153922500D01*
X189426851Y-153922500D01*
X189426853Y-153922500D01*
X189509638Y-153900318D01*
X189583862Y-153857465D01*
X189644465Y-153796862D01*
X189687318Y-153722638D01*
X189709500Y-153639853D01*
X189709500Y-153568500D01*
X189728407Y-153510309D01*
X189777907Y-153474345D01*
X189808500Y-153469500D01*
X191256708Y-153469500D01*
X191314899Y-153488407D01*
X191350863Y-153537907D01*
X191352329Y-153542858D01*
X191354682Y-153551638D01*
X191397535Y-153625862D01*
X191458138Y-153686465D01*
X191532362Y-153729318D01*
X191608774Y-153749792D01*
X191653153Y-153775414D01*
X192710585Y-154832846D01*
X192736207Y-154877226D01*
X192756682Y-154953638D01*
X192799535Y-155027862D01*
X192860138Y-155088465D01*
X192934362Y-155131318D01*
X193017147Y-155153500D01*
X193017149Y-155153500D01*
X193102851Y-155153500D01*
X193102853Y-155153500D01*
X193185638Y-155131318D01*
X193259862Y-155088465D01*
X193320465Y-155027862D01*
X193363318Y-154953638D01*
X193385500Y-154870853D01*
X193385500Y-154785147D01*
X193363318Y-154702362D01*
X193320465Y-154628138D01*
X193259862Y-154567535D01*
X193185638Y-154524682D01*
X193109226Y-154504207D01*
X193064846Y-154478585D01*
X192007414Y-153421153D01*
X191986406Y-153390108D01*
X191983500Y-153383319D01*
X191983500Y-153383147D01*
X191961318Y-153300362D01*
X191918465Y-153226138D01*
X191914534Y-153222207D01*
X191908486Y-153208077D01*
X191906794Y-153189399D01*
X191900532Y-153171720D01*
X191904101Y-153159663D01*
X191902968Y-153147141D01*
X191912579Y-153131035D01*
X191917904Y-153113052D01*
X191927878Y-153105396D01*
X191934322Y-153094599D01*
X191951565Y-153087217D01*
X191966442Y-153075800D01*
X191980188Y-153072020D01*
X191987826Y-153070500D01*
X191987828Y-153070500D01*
X192079897Y-153032364D01*
X192079898Y-153032362D01*
X192081153Y-153031843D01*
X192142149Y-153027042D01*
X192189040Y-153053301D01*
X193054273Y-153918533D01*
X193960585Y-154824845D01*
X193986207Y-154869224D01*
X194006682Y-154945638D01*
X194049535Y-155019862D01*
X194110138Y-155080465D01*
X194184362Y-155123318D01*
X194267147Y-155145500D01*
X194267149Y-155145500D01*
X194352851Y-155145500D01*
X194352853Y-155145500D01*
X194435638Y-155123318D01*
X194509862Y-155080465D01*
X194570465Y-155019862D01*
X194613318Y-154945638D01*
X194635500Y-154862853D01*
X194635500Y-154777147D01*
X194613318Y-154694362D01*
X194570465Y-154620138D01*
X194509862Y-154559535D01*
X194435638Y-154516682D01*
X194359224Y-154496207D01*
X194314845Y-154470585D01*
X193531792Y-153687532D01*
X193504015Y-153633015D01*
X193513586Y-153572583D01*
X193516059Y-153568028D01*
X193518463Y-153563863D01*
X193518465Y-153563862D01*
X193561318Y-153489638D01*
X193583500Y-153406853D01*
X193583500Y-153321147D01*
X193561318Y-153238362D01*
X193518465Y-153164138D01*
X193457862Y-153103535D01*
X193383638Y-153060682D01*
X193300853Y-153038500D01*
X193215147Y-153038500D01*
X193203507Y-153041619D01*
X193191544Y-153044824D01*
X193130442Y-153041619D01*
X193082894Y-153003112D01*
X193067060Y-152944011D01*
X193088989Y-152886891D01*
X193116419Y-152863463D01*
X193145862Y-152846465D01*
X193206465Y-152785862D01*
X193249318Y-152711638D01*
X193271500Y-152628853D01*
X193271500Y-152558768D01*
X193290407Y-152500577D01*
X193339907Y-152464613D01*
X193401093Y-152464613D01*
X193440501Y-152488762D01*
X198632237Y-157680498D01*
X198660013Y-157735013D01*
X198650442Y-157795445D01*
X198607177Y-157838710D01*
X198562232Y-157849500D01*
X162249500Y-157849500D01*
X162191309Y-157830593D01*
X162155345Y-157781093D01*
X162150500Y-157750500D01*
X162150500Y-154970065D01*
X162150500Y-154970064D01*
X162127587Y-154914749D01*
X162085251Y-154872413D01*
X162085249Y-154872412D01*
X162085248Y-154872411D01*
X162079722Y-154870122D01*
X162079720Y-154870122D01*
X162029936Y-154849500D01*
X132029936Y-154849500D01*
X131970064Y-154849500D01*
X131914749Y-154872413D01*
X131872413Y-154914749D01*
X131850561Y-154967504D01*
X131849500Y-154970065D01*
X131849500Y-157750500D01*
X131830593Y-157808691D01*
X131781093Y-157844655D01*
X131750500Y-157849500D01*
X112249500Y-157849500D01*
X112191309Y-157830593D01*
X112155345Y-157781093D01*
X112150500Y-157750500D01*
X112150500Y-154785147D01*
X186241500Y-154785147D01*
X186241500Y-154870853D01*
X186263682Y-154953638D01*
X186306535Y-155027862D01*
X186367138Y-155088465D01*
X186441362Y-155131318D01*
X186524147Y-155153500D01*
X186524149Y-155153500D01*
X186609851Y-155153500D01*
X186609853Y-155153500D01*
X186692638Y-155131318D01*
X186766862Y-155088465D01*
X186827465Y-155027862D01*
X186870318Y-154953638D01*
X186892500Y-154870853D01*
X186892500Y-154785147D01*
X186870318Y-154702362D01*
X186827465Y-154628138D01*
X186766862Y-154567535D01*
X186692638Y-154524682D01*
X186609853Y-154502500D01*
X186524147Y-154502500D01*
X186441362Y-154524682D01*
X186367138Y-154567535D01*
X186306535Y-154628138D01*
X186263682Y-154702362D01*
X186241500Y-154785147D01*
X112150500Y-154785147D01*
X112150500Y-152162856D01*
X119810500Y-152162856D01*
X119810500Y-152255144D01*
X119834386Y-152344288D01*
X119834387Y-152344290D01*
X119879916Y-152423148D01*
X119880531Y-152424212D01*
X119945788Y-152489469D01*
X120025712Y-152535614D01*
X120114856Y-152559500D01*
X120114858Y-152559500D01*
X122616142Y-152559500D01*
X122616144Y-152559500D01*
X122705288Y-152535614D01*
X122785212Y-152489470D01*
X122791535Y-152483147D01*
X124720500Y-152483147D01*
X124720500Y-152568853D01*
X124742682Y-152651638D01*
X124785535Y-152725862D01*
X124846138Y-152786465D01*
X124920362Y-152829318D01*
X125003147Y-152851500D01*
X125003149Y-152851500D01*
X125088851Y-152851500D01*
X125088853Y-152851500D01*
X125171638Y-152829318D01*
X125245862Y-152786465D01*
X125306465Y-152725862D01*
X125349318Y-152651638D01*
X125371500Y-152568853D01*
X125371500Y-152483147D01*
X125349318Y-152400362D01*
X125306465Y-152326138D01*
X125245862Y-152265535D01*
X125171638Y-152222682D01*
X125088853Y-152200500D01*
X125003147Y-152200500D01*
X124920362Y-152222682D01*
X124846138Y-152265535D01*
X124785535Y-152326138D01*
X124742682Y-152400362D01*
X124720500Y-152483147D01*
X122791535Y-152483147D01*
X122985470Y-152289212D01*
X123031614Y-152209288D01*
X123055500Y-152120144D01*
X123055500Y-152027856D01*
X123031614Y-151938712D01*
X122985470Y-151858788D01*
X122921720Y-151795038D01*
X122893945Y-151740524D01*
X122903516Y-151680092D01*
X122946781Y-151636827D01*
X123007213Y-151627256D01*
X123017339Y-151629407D01*
X123025147Y-151631500D01*
X123025149Y-151631500D01*
X123110851Y-151631500D01*
X123110853Y-151631500D01*
X123193638Y-151609318D01*
X123267862Y-151566465D01*
X123328465Y-151505862D01*
X123371318Y-151431638D01*
X123393500Y-151348853D01*
X123393500Y-151263147D01*
X123371318Y-151180362D01*
X123328465Y-151106138D01*
X123267862Y-151045535D01*
X123193638Y-151002682D01*
X123193637Y-151002681D01*
X123193634Y-151002680D01*
X123184976Y-151000360D01*
X123133663Y-150967034D01*
X123111739Y-150909911D01*
X123124868Y-150855235D01*
X123128470Y-150848996D01*
X123163318Y-150788638D01*
X123185500Y-150705853D01*
X123185500Y-150620147D01*
X123163318Y-150537362D01*
X123120465Y-150463138D01*
X123059862Y-150402535D01*
X122985638Y-150359682D01*
X122902853Y-150337500D01*
X122817147Y-150337500D01*
X122734362Y-150359682D01*
X122660138Y-150402535D01*
X122599535Y-150463138D01*
X122556682Y-150537362D01*
X122534500Y-150620147D01*
X122534500Y-150705853D01*
X122556682Y-150788638D01*
X122599535Y-150862862D01*
X122660138Y-150923465D01*
X122734362Y-150966318D01*
X122734364Y-150966318D01*
X122734365Y-150966319D01*
X122743019Y-150968638D01*
X122794333Y-151001962D01*
X122816259Y-151059084D01*
X122803132Y-151113763D01*
X122764682Y-151180360D01*
X122757399Y-151207543D01*
X122742500Y-151263147D01*
X122742500Y-151348853D01*
X122764682Y-151431638D01*
X122807535Y-151505862D01*
X122864219Y-151562546D01*
X122891995Y-151617061D01*
X122882424Y-151677493D01*
X122839159Y-151720758D01*
X122778727Y-151730329D01*
X122768592Y-151728175D01*
X122751144Y-151723500D01*
X122658856Y-151723500D01*
X122569712Y-151747386D01*
X122499128Y-151788138D01*
X122489785Y-151793532D01*
X122453813Y-151829504D01*
X122399296Y-151857281D01*
X122383810Y-151858500D01*
X120114856Y-151858500D01*
X120025712Y-151882386D01*
X120025711Y-151882386D01*
X120025709Y-151882387D01*
X119945790Y-151928529D01*
X119880529Y-151993790D01*
X119834387Y-152073709D01*
X119834386Y-152073711D01*
X119834386Y-152073712D01*
X119810500Y-152162856D01*
X112150500Y-152162856D01*
X112150500Y-150578147D01*
X120811500Y-150578147D01*
X120811500Y-150663853D01*
X120833682Y-150746638D01*
X120876535Y-150820862D01*
X120937138Y-150881465D01*
X121011362Y-150924318D01*
X121094147Y-150946500D01*
X121094149Y-150946500D01*
X121179851Y-150946500D01*
X121179853Y-150946500D01*
X121262638Y-150924318D01*
X121336862Y-150881465D01*
X121397465Y-150820862D01*
X121440318Y-150746638D01*
X121462500Y-150663853D01*
X121462500Y-150578147D01*
X121440318Y-150495362D01*
X121397465Y-150421138D01*
X121336862Y-150360535D01*
X121262638Y-150317682D01*
X121179853Y-150295500D01*
X121094147Y-150295500D01*
X121011362Y-150317682D01*
X120937138Y-150360535D01*
X120876535Y-150421138D01*
X120833682Y-150495362D01*
X120811500Y-150578147D01*
X112150500Y-150578147D01*
X112150500Y-150207147D01*
X117902500Y-150207147D01*
X117902500Y-150292853D01*
X117924682Y-150375638D01*
X117967535Y-150449862D01*
X118028138Y-150510465D01*
X118102362Y-150553318D01*
X118185147Y-150575500D01*
X118185149Y-150575500D01*
X118270851Y-150575500D01*
X118270853Y-150575500D01*
X118353638Y-150553318D01*
X118427862Y-150510465D01*
X118488465Y-150449862D01*
X118531318Y-150375638D01*
X118553500Y-150292853D01*
X118553500Y-150207147D01*
X118531318Y-150124362D01*
X118488465Y-150050138D01*
X118427862Y-149989535D01*
X118353638Y-149946682D01*
X118270853Y-149924500D01*
X118185147Y-149924500D01*
X118102362Y-149946682D01*
X118028138Y-149989535D01*
X117967535Y-150050138D01*
X117924682Y-150124362D01*
X117902500Y-150207147D01*
X112150500Y-150207147D01*
X112150500Y-149822147D01*
X119014500Y-149822147D01*
X119014500Y-149907853D01*
X119036682Y-149990638D01*
X119079535Y-150064862D01*
X119140138Y-150125465D01*
X119214362Y-150168318D01*
X119297147Y-150190500D01*
X119297149Y-150190500D01*
X119382851Y-150190500D01*
X119382853Y-150190500D01*
X119465638Y-150168318D01*
X119539862Y-150125465D01*
X119600465Y-150064862D01*
X119643318Y-149990638D01*
X119665500Y-149907853D01*
X119665500Y-149822147D01*
X119643318Y-149739362D01*
X119622819Y-149703856D01*
X119899500Y-149703856D01*
X119899500Y-149796144D01*
X119923386Y-149885288D01*
X119923387Y-149885290D01*
X119964874Y-149957147D01*
X119969531Y-149965212D01*
X120034788Y-150030469D01*
X120114712Y-150076614D01*
X120203856Y-150100500D01*
X120203858Y-150100500D01*
X123296142Y-150100500D01*
X123296144Y-150100500D01*
X123385288Y-150076614D01*
X123465212Y-150030469D01*
X123530469Y-149965212D01*
X123576614Y-149885288D01*
X123600500Y-149796144D01*
X123600500Y-149703856D01*
X123576614Y-149614712D01*
X123530469Y-149534788D01*
X123465212Y-149469531D01*
X123451302Y-149461500D01*
X123385290Y-149423387D01*
X123385289Y-149423386D01*
X123385288Y-149423386D01*
X123296144Y-149399500D01*
X120203856Y-149399500D01*
X120114712Y-149423386D01*
X120114711Y-149423386D01*
X120114709Y-149423387D01*
X120034790Y-149469529D01*
X119969529Y-149534790D01*
X119923387Y-149614709D01*
X119923386Y-149614711D01*
X119923386Y-149614712D01*
X119899500Y-149703856D01*
X119622819Y-149703856D01*
X119600465Y-149665138D01*
X119539862Y-149604535D01*
X119465638Y-149561682D01*
X119382853Y-149539500D01*
X119297147Y-149539500D01*
X119214362Y-149561682D01*
X119140138Y-149604535D01*
X119079535Y-149665138D01*
X119036682Y-149739362D01*
X119014500Y-149822147D01*
X112150500Y-149822147D01*
X112150500Y-149324147D01*
X174308500Y-149324147D01*
X174308500Y-149409853D01*
X174330682Y-149492638D01*
X174373535Y-149566862D01*
X174434138Y-149627465D01*
X174508362Y-149670318D01*
X174591147Y-149692500D01*
X174591149Y-149692500D01*
X174676851Y-149692500D01*
X174676853Y-149692500D01*
X174759638Y-149670318D01*
X174833862Y-149627465D01*
X174894465Y-149566862D01*
X174937318Y-149492638D01*
X174959500Y-149409853D01*
X174959500Y-149329147D01*
X175276500Y-149329147D01*
X175276500Y-149414853D01*
X175298682Y-149497638D01*
X175341535Y-149571862D01*
X175402138Y-149632465D01*
X175476362Y-149675318D01*
X175559147Y-149697500D01*
X175559149Y-149697500D01*
X175644851Y-149697500D01*
X175644853Y-149697500D01*
X175727638Y-149675318D01*
X175801862Y-149632465D01*
X175862465Y-149571862D01*
X175905318Y-149497638D01*
X175927500Y-149414853D01*
X175927500Y-149329147D01*
X175905318Y-149246362D01*
X175862465Y-149172138D01*
X175847474Y-149157147D01*
X184909500Y-149157147D01*
X184909500Y-149242853D01*
X184931682Y-149325638D01*
X184974535Y-149399862D01*
X185035138Y-149460465D01*
X185109362Y-149503318D01*
X185192147Y-149525500D01*
X185192149Y-149525500D01*
X185277851Y-149525500D01*
X185277853Y-149525500D01*
X185360638Y-149503318D01*
X185434862Y-149460465D01*
X185495465Y-149399862D01*
X185538318Y-149325638D01*
X185560500Y-149242853D01*
X185560500Y-149157147D01*
X185538318Y-149074362D01*
X185495465Y-149000138D01*
X185434862Y-148939535D01*
X185360638Y-148896682D01*
X185277853Y-148874500D01*
X185192147Y-148874500D01*
X185109362Y-148896682D01*
X185035138Y-148939535D01*
X184974535Y-149000138D01*
X184931682Y-149074362D01*
X184909500Y-149157147D01*
X175847474Y-149157147D01*
X175801862Y-149111535D01*
X175727638Y-149068682D01*
X175644853Y-149046500D01*
X175559147Y-149046500D01*
X175476362Y-149068682D01*
X175402138Y-149111535D01*
X175341535Y-149172138D01*
X175298682Y-149246362D01*
X175276500Y-149329147D01*
X174959500Y-149329147D01*
X174959500Y-149324147D01*
X174937318Y-149241362D01*
X174894465Y-149167138D01*
X174833862Y-149106535D01*
X174759638Y-149063682D01*
X174676853Y-149041500D01*
X174591147Y-149041500D01*
X174508362Y-149063682D01*
X174434138Y-149106535D01*
X174373535Y-149167138D01*
X174330682Y-149241362D01*
X174308500Y-149324147D01*
X112150500Y-149324147D01*
X112150500Y-148207147D01*
X119063500Y-148207147D01*
X119063500Y-148292853D01*
X119085682Y-148375638D01*
X119128535Y-148449862D01*
X119189138Y-148510465D01*
X119263362Y-148553318D01*
X119346147Y-148575500D01*
X119346149Y-148575500D01*
X119431851Y-148575500D01*
X119431853Y-148575500D01*
X119514638Y-148553318D01*
X119573824Y-148519147D01*
X123102500Y-148519147D01*
X123102500Y-148604853D01*
X123124682Y-148687638D01*
X123167535Y-148761862D01*
X123228138Y-148822465D01*
X123302362Y-148865318D01*
X123385147Y-148887500D01*
X123385149Y-148887500D01*
X123470851Y-148887500D01*
X123470853Y-148887500D01*
X123553638Y-148865318D01*
X123627862Y-148822465D01*
X123688465Y-148761862D01*
X123731318Y-148687638D01*
X123753500Y-148604853D01*
X123753500Y-148519147D01*
X123731318Y-148436362D01*
X123688465Y-148362138D01*
X123627862Y-148301535D01*
X123624275Y-148299464D01*
X123584320Y-148276395D01*
X123584318Y-148276395D01*
X123553638Y-148258682D01*
X123470853Y-148236500D01*
X123385147Y-148236500D01*
X123302362Y-148258682D01*
X123228138Y-148301535D01*
X123167535Y-148362138D01*
X123124682Y-148436362D01*
X123102500Y-148519147D01*
X119573824Y-148519147D01*
X119588862Y-148510465D01*
X119649465Y-148449862D01*
X119692318Y-148375638D01*
X119714500Y-148292853D01*
X119714500Y-148207147D01*
X119711821Y-148197147D01*
X181281500Y-148197147D01*
X181281500Y-148282853D01*
X181303682Y-148365638D01*
X181346535Y-148439862D01*
X181407138Y-148500465D01*
X181481362Y-148543318D01*
X181564147Y-148565500D01*
X181564149Y-148565500D01*
X181649851Y-148565500D01*
X181649853Y-148565500D01*
X181732638Y-148543318D01*
X181806862Y-148500465D01*
X181867465Y-148439862D01*
X181910318Y-148365638D01*
X181932500Y-148282853D01*
X181932500Y-148197147D01*
X181910318Y-148114362D01*
X181867465Y-148040138D01*
X181806862Y-147979535D01*
X181732638Y-147936682D01*
X181649853Y-147914500D01*
X181564147Y-147914500D01*
X181481362Y-147936682D01*
X181407138Y-147979535D01*
X181346535Y-148040138D01*
X181303682Y-148114362D01*
X181281500Y-148197147D01*
X119711821Y-148197147D01*
X119692318Y-148124362D01*
X119649465Y-148050138D01*
X119588862Y-147989535D01*
X119514638Y-147946682D01*
X119431853Y-147924500D01*
X119346147Y-147924500D01*
X119263362Y-147946682D01*
X119189138Y-147989535D01*
X119128535Y-148050138D01*
X119085682Y-148124362D01*
X119063500Y-148207147D01*
X112150500Y-148207147D01*
X112150500Y-147184147D01*
X123114500Y-147184147D01*
X123114500Y-147269853D01*
X123136682Y-147352638D01*
X123179535Y-147426862D01*
X123240138Y-147487465D01*
X123314362Y-147530318D01*
X123397147Y-147552500D01*
X123397149Y-147552500D01*
X123482851Y-147552500D01*
X123482853Y-147552500D01*
X123565638Y-147530318D01*
X123639862Y-147487465D01*
X123700465Y-147426862D01*
X123743318Y-147352638D01*
X123765500Y-147269853D01*
X123765500Y-147184147D01*
X123743318Y-147101362D01*
X123700465Y-147027138D01*
X123639862Y-146966535D01*
X123565638Y-146923682D01*
X123482853Y-146901500D01*
X123397147Y-146901500D01*
X123314362Y-146923682D01*
X123240138Y-146966535D01*
X123179535Y-147027138D01*
X123136682Y-147101362D01*
X123114500Y-147184147D01*
X112150500Y-147184147D01*
X112150500Y-146370147D01*
X119084500Y-146370147D01*
X119084500Y-146455853D01*
X119106682Y-146538638D01*
X119149535Y-146612862D01*
X119210138Y-146673465D01*
X119284362Y-146716318D01*
X119367147Y-146738500D01*
X119367149Y-146738500D01*
X119452851Y-146738500D01*
X119452853Y-146738500D01*
X119535638Y-146716318D01*
X119609862Y-146673465D01*
X119670465Y-146612862D01*
X119713318Y-146538638D01*
X119735500Y-146455853D01*
X119735500Y-146370147D01*
X119713318Y-146287362D01*
X119670465Y-146213138D01*
X119609862Y-146152535D01*
X119535638Y-146109682D01*
X119452853Y-146087500D01*
X119367147Y-146087500D01*
X119284362Y-146109682D01*
X119210138Y-146152535D01*
X119149535Y-146213138D01*
X119106682Y-146287362D01*
X119084500Y-146370147D01*
X112150500Y-146370147D01*
X112150500Y-145517147D01*
X119540500Y-145517147D01*
X119540500Y-145602853D01*
X119562682Y-145685638D01*
X119605535Y-145759862D01*
X119666138Y-145820465D01*
X119740362Y-145863318D01*
X119823147Y-145885500D01*
X119823149Y-145885500D01*
X119915166Y-145885500D01*
X119973357Y-145904407D01*
X120009321Y-145953907D01*
X120009321Y-146015093D01*
X119991796Y-146043691D01*
X119993486Y-146044988D01*
X119989540Y-146050130D01*
X119989535Y-146050137D01*
X119989535Y-146050138D01*
X119946682Y-146124362D01*
X119924500Y-146207147D01*
X119924500Y-146292853D01*
X119946682Y-146375638D01*
X119989535Y-146449862D01*
X120050138Y-146510465D01*
X120124362Y-146553318D01*
X120207147Y-146575500D01*
X120207149Y-146575500D01*
X120292851Y-146575500D01*
X120292853Y-146575500D01*
X120375638Y-146553318D01*
X120449862Y-146510465D01*
X120510465Y-146449862D01*
X120553318Y-146375638D01*
X120575500Y-146292853D01*
X120575500Y-146207147D01*
X122924500Y-146207147D01*
X122924500Y-146292853D01*
X122946682Y-146375638D01*
X122989535Y-146449862D01*
X123050138Y-146510465D01*
X123124362Y-146553318D01*
X123207147Y-146575500D01*
X123207149Y-146575500D01*
X123292851Y-146575500D01*
X123292853Y-146575500D01*
X123375638Y-146553318D01*
X123449862Y-146510465D01*
X123510465Y-146449862D01*
X123553318Y-146375638D01*
X123575500Y-146292853D01*
X123575500Y-146207147D01*
X123553318Y-146124362D01*
X123510465Y-146050138D01*
X123449862Y-145989535D01*
X123375638Y-145946682D01*
X123292853Y-145924500D01*
X123207147Y-145924500D01*
X123124362Y-145946682D01*
X123050138Y-145989535D01*
X122989535Y-146050138D01*
X122946682Y-146124362D01*
X122924500Y-146207147D01*
X120575500Y-146207147D01*
X120553318Y-146124362D01*
X120510465Y-146050138D01*
X120449862Y-145989535D01*
X120375638Y-145946682D01*
X120292853Y-145924500D01*
X120207147Y-145924500D01*
X120200834Y-145924500D01*
X120142643Y-145905593D01*
X120106679Y-145856093D01*
X120106679Y-145794907D01*
X120124203Y-145766308D01*
X120122514Y-145765012D01*
X120126459Y-145759869D01*
X120126460Y-145759866D01*
X120126465Y-145759862D01*
X120169318Y-145685638D01*
X120191500Y-145602853D01*
X120191500Y-145517147D01*
X120169318Y-145434362D01*
X120126465Y-145360138D01*
X120065862Y-145299535D01*
X120025353Y-145276147D01*
X122424500Y-145276147D01*
X122424500Y-145361853D01*
X122446682Y-145444638D01*
X122489535Y-145518862D01*
X122550138Y-145579465D01*
X122624362Y-145622318D01*
X122707147Y-145644500D01*
X122707149Y-145644500D01*
X122792851Y-145644500D01*
X122792853Y-145644500D01*
X122835223Y-145633147D01*
X165827500Y-145633147D01*
X165827500Y-145718853D01*
X165849682Y-145801638D01*
X165892535Y-145875862D01*
X165953138Y-145936465D01*
X166027362Y-145979318D01*
X166110147Y-146001500D01*
X166110149Y-146001500D01*
X166195851Y-146001500D01*
X166195853Y-146001500D01*
X166278638Y-145979318D01*
X166352862Y-145936465D01*
X166413465Y-145875862D01*
X166456318Y-145801638D01*
X166478500Y-145718853D01*
X166478500Y-145633147D01*
X169427500Y-145633147D01*
X169427500Y-145718853D01*
X169449682Y-145801638D01*
X169492535Y-145875862D01*
X169553138Y-145936465D01*
X169627362Y-145979318D01*
X169710147Y-146001500D01*
X169710149Y-146001500D01*
X169795851Y-146001500D01*
X169795853Y-146001500D01*
X169878638Y-145979318D01*
X169952862Y-145936465D01*
X170013465Y-145875862D01*
X170056318Y-145801638D01*
X170078500Y-145718853D01*
X170078500Y-145633147D01*
X170056318Y-145550362D01*
X170013465Y-145476138D01*
X169952862Y-145415535D01*
X169886372Y-145377147D01*
X188114500Y-145377147D01*
X188114500Y-145462853D01*
X188136682Y-145545638D01*
X188179535Y-145619862D01*
X188240138Y-145680465D01*
X188314362Y-145723318D01*
X188397147Y-145745500D01*
X188397149Y-145745500D01*
X188482851Y-145745500D01*
X188482853Y-145745500D01*
X188565638Y-145723318D01*
X188639862Y-145680465D01*
X188700465Y-145619862D01*
X188743318Y-145545638D01*
X188765500Y-145462853D01*
X188765500Y-145377147D01*
X188743318Y-145294362D01*
X188700465Y-145220138D01*
X188639862Y-145159535D01*
X188565638Y-145116682D01*
X188482853Y-145094500D01*
X188397147Y-145094500D01*
X188314362Y-145116682D01*
X188240138Y-145159535D01*
X188179535Y-145220138D01*
X188136682Y-145294362D01*
X188114500Y-145377147D01*
X169886372Y-145377147D01*
X169878638Y-145372682D01*
X169795853Y-145350500D01*
X169710147Y-145350500D01*
X169627362Y-145372682D01*
X169553138Y-145415535D01*
X169492535Y-145476138D01*
X169449682Y-145550362D01*
X169427500Y-145633147D01*
X166478500Y-145633147D01*
X166456318Y-145550362D01*
X166413465Y-145476138D01*
X166352862Y-145415535D01*
X166278638Y-145372682D01*
X166195853Y-145350500D01*
X166110147Y-145350500D01*
X166027362Y-145372682D01*
X165953138Y-145415535D01*
X165892535Y-145476138D01*
X165849682Y-145550362D01*
X165827500Y-145633147D01*
X122835223Y-145633147D01*
X122875638Y-145622318D01*
X122949862Y-145579465D01*
X123010465Y-145518862D01*
X123053318Y-145444638D01*
X123075500Y-145361853D01*
X123075500Y-145276147D01*
X123053318Y-145193362D01*
X123010465Y-145119138D01*
X122949862Y-145058535D01*
X122875638Y-145015682D01*
X122843785Y-145007147D01*
X191072500Y-145007147D01*
X191072500Y-145092853D01*
X191094682Y-145175638D01*
X191137535Y-145249862D01*
X191198138Y-145310465D01*
X191272362Y-145353318D01*
X191355147Y-145375500D01*
X191355149Y-145375500D01*
X191440851Y-145375500D01*
X191440853Y-145375500D01*
X191523638Y-145353318D01*
X191597862Y-145310465D01*
X191658465Y-145249862D01*
X191674466Y-145222147D01*
X231343500Y-145222147D01*
X231343500Y-145307853D01*
X231365682Y-145390638D01*
X231408535Y-145464862D01*
X231469138Y-145525465D01*
X231543362Y-145568318D01*
X231626147Y-145590500D01*
X231626149Y-145590500D01*
X231711851Y-145590500D01*
X231711853Y-145590500D01*
X231794638Y-145568318D01*
X231868862Y-145525465D01*
X231929465Y-145464862D01*
X231972318Y-145390638D01*
X231994500Y-145307853D01*
X231994500Y-145222147D01*
X231972318Y-145139362D01*
X231929465Y-145065138D01*
X231868862Y-145004535D01*
X231794638Y-144961682D01*
X231711853Y-144939500D01*
X231626147Y-144939500D01*
X231543362Y-144961682D01*
X231469138Y-145004535D01*
X231408535Y-145065138D01*
X231365682Y-145139362D01*
X231343500Y-145222147D01*
X191674466Y-145222147D01*
X191701318Y-145175638D01*
X191723500Y-145092853D01*
X191723500Y-145007147D01*
X191701318Y-144924362D01*
X191658465Y-144850138D01*
X191655474Y-144847147D01*
X208848500Y-144847147D01*
X208848500Y-144932853D01*
X208870682Y-145015638D01*
X208913535Y-145089862D01*
X208974138Y-145150465D01*
X209048362Y-145193318D01*
X209131147Y-145215500D01*
X209131149Y-145215500D01*
X209216851Y-145215500D01*
X209216853Y-145215500D01*
X209299638Y-145193318D01*
X209373862Y-145150465D01*
X209434465Y-145089862D01*
X209477318Y-145015638D01*
X209499500Y-144932853D01*
X209499500Y-144847147D01*
X209477318Y-144764362D01*
X209476905Y-144763648D01*
X209476783Y-144763071D01*
X209474835Y-144758368D01*
X209475706Y-144758006D01*
X209464187Y-144703800D01*
X209489074Y-144647905D01*
X209503406Y-144636314D01*
X209502716Y-144635414D01*
X209507855Y-144631470D01*
X209507857Y-144631467D01*
X209507862Y-144631465D01*
X209568465Y-144570862D01*
X209611318Y-144496638D01*
X209618684Y-144469147D01*
X216149500Y-144469147D01*
X216149500Y-144554853D01*
X216171682Y-144637638D01*
X216214535Y-144711862D01*
X216275138Y-144772465D01*
X216349362Y-144815318D01*
X216432147Y-144837500D01*
X216432149Y-144837500D01*
X216517851Y-144837500D01*
X216517853Y-144837500D01*
X216600638Y-144815318D01*
X216674862Y-144772465D01*
X216735465Y-144711862D01*
X216778318Y-144637638D01*
X216800500Y-144554853D01*
X216800500Y-144469147D01*
X216778318Y-144386362D01*
X216735465Y-144312138D01*
X216674862Y-144251535D01*
X216600638Y-144208682D01*
X216517853Y-144186500D01*
X216432147Y-144186500D01*
X216349362Y-144208682D01*
X216275138Y-144251535D01*
X216214535Y-144312138D01*
X216171682Y-144386362D01*
X216149500Y-144469147D01*
X209618684Y-144469147D01*
X209633500Y-144413853D01*
X209633500Y-144328147D01*
X209611318Y-144245362D01*
X209568465Y-144171138D01*
X209507862Y-144110535D01*
X209433638Y-144067682D01*
X209350853Y-144045500D01*
X209265147Y-144045500D01*
X209182362Y-144067682D01*
X209108138Y-144110535D01*
X209047535Y-144171138D01*
X209004682Y-144245362D01*
X208982500Y-144328147D01*
X208982500Y-144413853D01*
X209004682Y-144496637D01*
X209004683Y-144496640D01*
X209004683Y-144496641D01*
X209005095Y-144497354D01*
X209005217Y-144497930D01*
X209007165Y-144502632D01*
X209006293Y-144502993D01*
X209017812Y-144557204D01*
X208992921Y-144613097D01*
X208978612Y-144624710D01*
X208979284Y-144625586D01*
X208974144Y-144629529D01*
X208974138Y-144629535D01*
X208913535Y-144690138D01*
X208870682Y-144764362D01*
X208848500Y-144847147D01*
X191655474Y-144847147D01*
X191597862Y-144789535D01*
X191523638Y-144746682D01*
X191440853Y-144724500D01*
X191355147Y-144724500D01*
X191272362Y-144746682D01*
X191198138Y-144789535D01*
X191137535Y-144850138D01*
X191094682Y-144924362D01*
X191072500Y-145007147D01*
X122843785Y-145007147D01*
X122792853Y-144993500D01*
X122707147Y-144993500D01*
X122624362Y-145015682D01*
X122550138Y-145058535D01*
X122489535Y-145119138D01*
X122446682Y-145193362D01*
X122424500Y-145276147D01*
X120025353Y-145276147D01*
X119991638Y-145256682D01*
X119908853Y-145234500D01*
X119823147Y-145234500D01*
X119740362Y-145256682D01*
X119666138Y-145299535D01*
X119605535Y-145360138D01*
X119562682Y-145434362D01*
X119540500Y-145517147D01*
X112150500Y-145517147D01*
X112150500Y-144374147D01*
X192205500Y-144374147D01*
X192205500Y-144459853D01*
X192227682Y-144542638D01*
X192270535Y-144616862D01*
X192331138Y-144677465D01*
X192405362Y-144720318D01*
X192488147Y-144742500D01*
X192488149Y-144742500D01*
X192573851Y-144742500D01*
X192573853Y-144742500D01*
X192656638Y-144720318D01*
X192730862Y-144677465D01*
X192791465Y-144616862D01*
X192834318Y-144542638D01*
X192856500Y-144459853D01*
X192856500Y-144374147D01*
X192834318Y-144291362D01*
X192791465Y-144217138D01*
X192730862Y-144156535D01*
X192656638Y-144113682D01*
X192573853Y-144091500D01*
X192488147Y-144091500D01*
X192405362Y-144113682D01*
X192331138Y-144156535D01*
X192270535Y-144217138D01*
X192227682Y-144291362D01*
X192205500Y-144374147D01*
X112150500Y-144374147D01*
X112150500Y-143770147D01*
X189558500Y-143770147D01*
X189558500Y-143855853D01*
X189580682Y-143938638D01*
X189623535Y-144012862D01*
X189684138Y-144073465D01*
X189758362Y-144116318D01*
X189841147Y-144138500D01*
X189841149Y-144138500D01*
X189926851Y-144138500D01*
X189926853Y-144138500D01*
X190009638Y-144116318D01*
X190083862Y-144073465D01*
X190144465Y-144012862D01*
X190158734Y-143988147D01*
X190959500Y-143988147D01*
X190959500Y-144073853D01*
X190981682Y-144156638D01*
X191024535Y-144230862D01*
X191085138Y-144291465D01*
X191159362Y-144334318D01*
X191242147Y-144356500D01*
X191242149Y-144356500D01*
X191327851Y-144356500D01*
X191327853Y-144356500D01*
X191410638Y-144334318D01*
X191484862Y-144291465D01*
X191545465Y-144230862D01*
X191588318Y-144156638D01*
X191608793Y-144080223D01*
X191634415Y-144035845D01*
X191878765Y-143791496D01*
X191933281Y-143763719D01*
X191948768Y-143762500D01*
X193221500Y-143762500D01*
X193279691Y-143781407D01*
X193315655Y-143830907D01*
X193319073Y-143852495D01*
X193319653Y-143852419D01*
X193320499Y-143858850D01*
X193325916Y-143879066D01*
X193342682Y-143941638D01*
X193385535Y-144015862D01*
X193446138Y-144076465D01*
X193488765Y-144101076D01*
X193529705Y-144146544D01*
X193536101Y-144207394D01*
X193525001Y-144236309D01*
X193496684Y-144285357D01*
X193496683Y-144285359D01*
X193496682Y-144285361D01*
X193496682Y-144285362D01*
X193474500Y-144368147D01*
X193474500Y-144453853D01*
X193496682Y-144536638D01*
X193539535Y-144610862D01*
X193600138Y-144671465D01*
X193674362Y-144714318D01*
X193757147Y-144736500D01*
X193757149Y-144736500D01*
X193842851Y-144736500D01*
X193842853Y-144736500D01*
X193925638Y-144714318D01*
X193999862Y-144671465D01*
X194060465Y-144610862D01*
X194103318Y-144536638D01*
X194125500Y-144453853D01*
X194125500Y-144368147D01*
X194103318Y-144285362D01*
X194060465Y-144211138D01*
X193999862Y-144150535D01*
X193998130Y-144149535D01*
X193957235Y-144125924D01*
X193916294Y-144080455D01*
X193909898Y-144019605D01*
X193913494Y-144006915D01*
X193916509Y-143998463D01*
X193949318Y-143941638D01*
X193971500Y-143858853D01*
X193971500Y-143844365D01*
X193977259Y-143828227D01*
X193985988Y-143816907D01*
X193990407Y-143803309D01*
X194004208Y-143793281D01*
X194014624Y-143779776D01*
X194028339Y-143775749D01*
X194039907Y-143767345D01*
X194070500Y-143762500D01*
X194441495Y-143762500D01*
X194499686Y-143781407D01*
X194511409Y-143791407D01*
X194627656Y-143907357D01*
X194653368Y-143951825D01*
X194673682Y-144027638D01*
X194716535Y-144101862D01*
X194717034Y-144102361D01*
X194717264Y-144102813D01*
X194720486Y-144107012D01*
X194719707Y-144107609D01*
X194744810Y-144156876D01*
X194735239Y-144217308D01*
X194732772Y-144221851D01*
X194696682Y-144284362D01*
X194674500Y-144367147D01*
X194674500Y-144452853D01*
X194696682Y-144535638D01*
X194739535Y-144609862D01*
X194800138Y-144670465D01*
X194874362Y-144713318D01*
X194957147Y-144735500D01*
X194957149Y-144735500D01*
X195042851Y-144735500D01*
X195042853Y-144735500D01*
X195125638Y-144713318D01*
X195199862Y-144670465D01*
X195260465Y-144609862D01*
X195303318Y-144535638D01*
X195325500Y-144452853D01*
X195325500Y-144367147D01*
X195303318Y-144284362D01*
X195260465Y-144210138D01*
X195260462Y-144210135D01*
X195260461Y-144210133D01*
X195259961Y-144209633D01*
X195259729Y-144209179D01*
X195256514Y-144204988D01*
X195257291Y-144204391D01*
X195232188Y-144155113D01*
X195241766Y-144094682D01*
X195244235Y-144090136D01*
X195248847Y-144082148D01*
X195472500Y-144082148D01*
X195472500Y-144167852D01*
X195481898Y-144202931D01*
X195481903Y-144202947D01*
X195494682Y-144250638D01*
X195537535Y-144324862D01*
X195598138Y-144385465D01*
X195672362Y-144428318D01*
X195755147Y-144450500D01*
X195755149Y-144450500D01*
X195840851Y-144450500D01*
X195840853Y-144450500D01*
X195923638Y-144428318D01*
X195997862Y-144385465D01*
X196058465Y-144324862D01*
X196101318Y-144250638D01*
X196123500Y-144167853D01*
X196123500Y-144082147D01*
X196101318Y-143999362D01*
X196058465Y-143925138D01*
X195997862Y-143864535D01*
X195923638Y-143821682D01*
X195840853Y-143799500D01*
X195755147Y-143799500D01*
X195672362Y-143821682D01*
X195598138Y-143864535D01*
X195537535Y-143925138D01*
X195494682Y-143999362D01*
X195472954Y-144080455D01*
X195472500Y-144082148D01*
X195248847Y-144082148D01*
X195261772Y-144059760D01*
X195280318Y-144027638D01*
X195302500Y-143944853D01*
X195302500Y-143859147D01*
X195280318Y-143776362D01*
X195237465Y-143702138D01*
X195176862Y-143641535D01*
X195102638Y-143598682D01*
X195025619Y-143578045D01*
X194981331Y-143552512D01*
X194763219Y-143334958D01*
X194727897Y-143299636D01*
X194727742Y-143299571D01*
X194727625Y-143299455D01*
X194727565Y-143299430D01*
X194727564Y-143299429D01*
X194681776Y-143280532D01*
X194635828Y-143261500D01*
X194635666Y-143261500D01*
X194635511Y-143261436D01*
X194635507Y-143261436D01*
X194595645Y-143261487D01*
X194585679Y-143261500D01*
X191754171Y-143261500D01*
X191662103Y-143299635D01*
X191591635Y-143370102D01*
X191591636Y-143370103D01*
X191591635Y-143370104D01*
X191591634Y-143370104D01*
X191280152Y-143681585D01*
X191235773Y-143707208D01*
X191159361Y-143727682D01*
X191099055Y-143762500D01*
X191085138Y-143770535D01*
X191024535Y-143831138D01*
X190981682Y-143905362D01*
X190959500Y-143988147D01*
X190158734Y-143988147D01*
X190187318Y-143938638D01*
X190209500Y-143855853D01*
X190209500Y-143770147D01*
X190187318Y-143687362D01*
X190144465Y-143613138D01*
X190083862Y-143552535D01*
X190009638Y-143509682D01*
X189926853Y-143487500D01*
X189841147Y-143487500D01*
X189758362Y-143509682D01*
X189684138Y-143552535D01*
X189623535Y-143613138D01*
X189580682Y-143687362D01*
X189558500Y-143770147D01*
X112150500Y-143770147D01*
X112150500Y-142527147D01*
X120610500Y-142527147D01*
X120610500Y-142612853D01*
X120632682Y-142695638D01*
X120675535Y-142769862D01*
X120736138Y-142830465D01*
X120810362Y-142873318D01*
X120893147Y-142895500D01*
X120893149Y-142895500D01*
X120978851Y-142895500D01*
X120978853Y-142895500D01*
X121061638Y-142873318D01*
X121135862Y-142830465D01*
X121196465Y-142769862D01*
X121239318Y-142695638D01*
X121261500Y-142612853D01*
X121261500Y-142527147D01*
X121239318Y-142444362D01*
X121196465Y-142370138D01*
X121135862Y-142309535D01*
X121061638Y-142266682D01*
X120978853Y-142244500D01*
X120893147Y-142244500D01*
X120810362Y-142266682D01*
X120736138Y-142309535D01*
X120675535Y-142370138D01*
X120632682Y-142444362D01*
X120610500Y-142527147D01*
X112150500Y-142527147D01*
X112150500Y-142015147D01*
X117601500Y-142015147D01*
X117601500Y-142100853D01*
X117623682Y-142183638D01*
X117666535Y-142257862D01*
X117727138Y-142318465D01*
X117801362Y-142361318D01*
X117884147Y-142383500D01*
X117884149Y-142383500D01*
X117969851Y-142383500D01*
X117969853Y-142383500D01*
X118052638Y-142361318D01*
X118126862Y-142318465D01*
X118187465Y-142257862D01*
X118230318Y-142183638D01*
X118252500Y-142100853D01*
X118252500Y-142023147D01*
X128184500Y-142023147D01*
X128184500Y-142108853D01*
X128206682Y-142191638D01*
X128249535Y-142265862D01*
X128310138Y-142326465D01*
X128384362Y-142369318D01*
X128467147Y-142391500D01*
X128467149Y-142391500D01*
X128552851Y-142391500D01*
X128552853Y-142391500D01*
X128635638Y-142369318D01*
X128709862Y-142326465D01*
X128770465Y-142265862D01*
X128813318Y-142191638D01*
X128835500Y-142108853D01*
X128835500Y-142023147D01*
X128821031Y-141969147D01*
X175130500Y-141969147D01*
X175130500Y-142054853D01*
X175152682Y-142137638D01*
X175195535Y-142211862D01*
X175256138Y-142272465D01*
X175330362Y-142315318D01*
X175413147Y-142337500D01*
X175413149Y-142337500D01*
X175498851Y-142337500D01*
X175498853Y-142337500D01*
X175581638Y-142315318D01*
X175609647Y-142299147D01*
X184660500Y-142299147D01*
X184660500Y-142384853D01*
X184682682Y-142467638D01*
X184725535Y-142541862D01*
X184786138Y-142602465D01*
X184860362Y-142645318D01*
X184943147Y-142667500D01*
X184943149Y-142667500D01*
X185028851Y-142667500D01*
X185028853Y-142667500D01*
X185111638Y-142645318D01*
X185185862Y-142602465D01*
X185246465Y-142541862D01*
X185289318Y-142467638D01*
X185311500Y-142384853D01*
X185311500Y-142358147D01*
X196711500Y-142358147D01*
X196711500Y-142443853D01*
X196733682Y-142526638D01*
X196760640Y-142573331D01*
X196773361Y-142633179D01*
X196760640Y-142672329D01*
X196738682Y-142710360D01*
X196728634Y-142747861D01*
X196716500Y-142793147D01*
X196716500Y-142878853D01*
X196738682Y-142961638D01*
X196781535Y-143035862D01*
X196842138Y-143096465D01*
X196916362Y-143139318D01*
X196981641Y-143156809D01*
X197032954Y-143190132D01*
X197054881Y-143247253D01*
X197041754Y-143301933D01*
X197016684Y-143345357D01*
X197016683Y-143345359D01*
X197016682Y-143345361D01*
X197016682Y-143345362D01*
X196994500Y-143428147D01*
X196994500Y-143513853D01*
X197016682Y-143596638D01*
X197059535Y-143670862D01*
X197120138Y-143731465D01*
X197194362Y-143774318D01*
X197277147Y-143796500D01*
X197277149Y-143796500D01*
X197362851Y-143796500D01*
X197362853Y-143796500D01*
X197401491Y-143786147D01*
X211112500Y-143786147D01*
X211112500Y-143871853D01*
X211134682Y-143954638D01*
X211177535Y-144028862D01*
X211238138Y-144089465D01*
X211312362Y-144132318D01*
X211395147Y-144154500D01*
X211395149Y-144154500D01*
X211480851Y-144154500D01*
X211480853Y-144154500D01*
X211563638Y-144132318D01*
X211637862Y-144089465D01*
X211698465Y-144028862D01*
X211741318Y-143954638D01*
X211761568Y-143879061D01*
X211787322Y-143834553D01*
X211792532Y-143829361D01*
X211847102Y-143801689D01*
X211862401Y-143800500D01*
X212641352Y-143800500D01*
X212690848Y-143813762D01*
X212759362Y-143853318D01*
X212842147Y-143875500D01*
X212842149Y-143875500D01*
X212927851Y-143875500D01*
X212927853Y-143875500D01*
X213010638Y-143853318D01*
X213078485Y-143814147D01*
X228381500Y-143814147D01*
X228381500Y-143899853D01*
X228403682Y-143982638D01*
X228446535Y-144056862D01*
X228507138Y-144117465D01*
X228581362Y-144160318D01*
X228664147Y-144182500D01*
X228664149Y-144182500D01*
X228749851Y-144182500D01*
X228749853Y-144182500D01*
X228832638Y-144160318D01*
X228906862Y-144117465D01*
X228967465Y-144056862D01*
X229010318Y-143982638D01*
X229032500Y-143899853D01*
X229032500Y-143814147D01*
X229010318Y-143731362D01*
X228967465Y-143657138D01*
X228906862Y-143596535D01*
X228832638Y-143553682D01*
X228749853Y-143531500D01*
X228664147Y-143531500D01*
X228581362Y-143553682D01*
X228507138Y-143596535D01*
X228446535Y-143657138D01*
X228403682Y-143731362D01*
X228381500Y-143814147D01*
X213078485Y-143814147D01*
X213084862Y-143810465D01*
X213145465Y-143749862D01*
X213188318Y-143675638D01*
X213210500Y-143592853D01*
X213210500Y-143507147D01*
X213188318Y-143424362D01*
X213145465Y-143350138D01*
X213084862Y-143289535D01*
X213010638Y-143246682D01*
X212927853Y-143224500D01*
X212916451Y-143224500D01*
X212910449Y-143223764D01*
X212887933Y-143213268D01*
X212864309Y-143205593D01*
X212860643Y-143200548D01*
X212854992Y-143197914D01*
X212842947Y-143176191D01*
X212828345Y-143156093D01*
X212826962Y-143147362D01*
X212825322Y-143144404D01*
X212825833Y-143140233D01*
X212825186Y-143136147D01*
X291166500Y-143136147D01*
X291166500Y-143221853D01*
X291188682Y-143304638D01*
X291231535Y-143378862D01*
X291292138Y-143439465D01*
X291366362Y-143482318D01*
X291449147Y-143504500D01*
X291449149Y-143504500D01*
X291534851Y-143504500D01*
X291534853Y-143504500D01*
X291617638Y-143482318D01*
X291691862Y-143439465D01*
X291752465Y-143378862D01*
X291795318Y-143304638D01*
X291817500Y-143221853D01*
X291817500Y-143136147D01*
X291795318Y-143053362D01*
X291752465Y-142979138D01*
X291691862Y-142918535D01*
X291617638Y-142875682D01*
X291608177Y-142873147D01*
X294610500Y-142873147D01*
X294610500Y-142958853D01*
X294632682Y-143041638D01*
X294675535Y-143115862D01*
X294736138Y-143176465D01*
X294810362Y-143219318D01*
X294893147Y-143241500D01*
X294893149Y-143241500D01*
X294978851Y-143241500D01*
X294978853Y-143241500D01*
X295061638Y-143219318D01*
X295135862Y-143176465D01*
X295196465Y-143115862D01*
X295239318Y-143041638D01*
X295261500Y-142958853D01*
X295261500Y-142873147D01*
X295239318Y-142790362D01*
X295196465Y-142716138D01*
X295135862Y-142655535D01*
X295061638Y-142612682D01*
X294978853Y-142590500D01*
X294893147Y-142590500D01*
X294810362Y-142612682D01*
X294736138Y-142655535D01*
X294675535Y-142716138D01*
X294632682Y-142790362D01*
X294610500Y-142873147D01*
X291608177Y-142873147D01*
X291534853Y-142853500D01*
X291449147Y-142853500D01*
X291366362Y-142875682D01*
X291292138Y-142918535D01*
X291231535Y-142979138D01*
X291188682Y-143053362D01*
X291166500Y-143136147D01*
X212825186Y-143136147D01*
X212823500Y-143125500D01*
X212823500Y-143048148D01*
X212821756Y-143041638D01*
X212801318Y-142965362D01*
X212758465Y-142891138D01*
X212697862Y-142830535D01*
X212623638Y-142787682D01*
X212540853Y-142765500D01*
X212455147Y-142765500D01*
X212372362Y-142787682D01*
X212298138Y-142830535D01*
X212237535Y-142891138D01*
X212194682Y-142965362D01*
X212172500Y-143048147D01*
X212172500Y-143133853D01*
X212183492Y-143174879D01*
X212180291Y-143235978D01*
X212141786Y-143283528D01*
X212087866Y-143299500D01*
X211718448Y-143299500D01*
X211668620Y-143299411D01*
X211668404Y-143299500D01*
X211668171Y-143299500D01*
X211622403Y-143318455D01*
X211622404Y-143318456D01*
X211622055Y-143318600D01*
X211576483Y-143337383D01*
X211576318Y-143337546D01*
X211576103Y-143337636D01*
X211576049Y-143337689D01*
X211576048Y-143337690D01*
X211540918Y-143372819D01*
X211540795Y-143372942D01*
X211433873Y-143479483D01*
X211389617Y-143504981D01*
X211312362Y-143525682D01*
X211238138Y-143568535D01*
X211177535Y-143629138D01*
X211134682Y-143703362D01*
X211112500Y-143786147D01*
X197401491Y-143786147D01*
X197445638Y-143774318D01*
X197519862Y-143731465D01*
X197580465Y-143670862D01*
X197623318Y-143596638D01*
X197645500Y-143513853D01*
X197645500Y-143428147D01*
X197623318Y-143345362D01*
X197580465Y-143271138D01*
X197519862Y-143210535D01*
X197445638Y-143167682D01*
X197380358Y-143150190D01*
X197329045Y-143116867D01*
X197307118Y-143059745D01*
X197320246Y-143005064D01*
X197334796Y-142979862D01*
X197345318Y-142961638D01*
X197367500Y-142878853D01*
X197367500Y-142793147D01*
X197345318Y-142710362D01*
X197318358Y-142663667D01*
X197311021Y-142629147D01*
X202495500Y-142629147D01*
X202495500Y-142714853D01*
X202517682Y-142797638D01*
X202560535Y-142871862D01*
X202621138Y-142932465D01*
X202695362Y-142975318D01*
X202778147Y-142997500D01*
X202778149Y-142997500D01*
X202863851Y-142997500D01*
X202863853Y-142997500D01*
X202946638Y-142975318D01*
X203020862Y-142932465D01*
X203081465Y-142871862D01*
X203124318Y-142797638D01*
X203146500Y-142714853D01*
X203146500Y-142629147D01*
X203124318Y-142546362D01*
X203081465Y-142472138D01*
X203020862Y-142411535D01*
X202946638Y-142368682D01*
X202863853Y-142346500D01*
X202778147Y-142346500D01*
X202695362Y-142368682D01*
X202621138Y-142411535D01*
X202560535Y-142472138D01*
X202517682Y-142546362D01*
X202495500Y-142629147D01*
X197311021Y-142629147D01*
X197305638Y-142603820D01*
X197318357Y-142564675D01*
X197340318Y-142526638D01*
X197362500Y-142443853D01*
X197362500Y-142358147D01*
X197358481Y-142343147D01*
X203824500Y-142343147D01*
X203824500Y-142428853D01*
X203846682Y-142511638D01*
X203889535Y-142585862D01*
X203950138Y-142646465D01*
X204024362Y-142689318D01*
X204107147Y-142711500D01*
X204107149Y-142711500D01*
X204192851Y-142711500D01*
X204192853Y-142711500D01*
X204275638Y-142689318D01*
X204349862Y-142646465D01*
X204364180Y-142632147D01*
X206761500Y-142632147D01*
X206761500Y-142717853D01*
X206783682Y-142800638D01*
X206826535Y-142874862D01*
X206887138Y-142935465D01*
X206961362Y-142978318D01*
X207044147Y-143000500D01*
X207044149Y-143000500D01*
X207129851Y-143000500D01*
X207129853Y-143000500D01*
X207212638Y-142978318D01*
X207281478Y-142938573D01*
X207341324Y-142925852D01*
X207397219Y-142950738D01*
X207400960Y-142954287D01*
X207459138Y-143012465D01*
X207533362Y-143055318D01*
X207616147Y-143077500D01*
X207616149Y-143077500D01*
X207701851Y-143077500D01*
X207701853Y-143077500D01*
X207784638Y-143055318D01*
X207858862Y-143012465D01*
X207919465Y-142951862D01*
X207962318Y-142877638D01*
X207984500Y-142794853D01*
X207984500Y-142737147D01*
X209603500Y-142737147D01*
X209603500Y-142822853D01*
X209625682Y-142905638D01*
X209668535Y-142979862D01*
X209729138Y-143040465D01*
X209803362Y-143083318D01*
X209886147Y-143105500D01*
X209886149Y-143105500D01*
X209971851Y-143105500D01*
X209971853Y-143105500D01*
X210054638Y-143083318D01*
X210128862Y-143040465D01*
X210189465Y-142979862D01*
X210232318Y-142905638D01*
X210254500Y-142822853D01*
X210254500Y-142737147D01*
X210232318Y-142654362D01*
X210189465Y-142580138D01*
X210128862Y-142519535D01*
X210093549Y-142499147D01*
X224015500Y-142499147D01*
X224015500Y-142584853D01*
X224037682Y-142667638D01*
X224080535Y-142741862D01*
X224141138Y-142802465D01*
X224215362Y-142845318D01*
X224298147Y-142867500D01*
X224298149Y-142867500D01*
X224383851Y-142867500D01*
X224383853Y-142867500D01*
X224466638Y-142845318D01*
X224540862Y-142802465D01*
X224601465Y-142741862D01*
X224644318Y-142667638D01*
X224666500Y-142584853D01*
X224666500Y-142499147D01*
X224644318Y-142416362D01*
X224601465Y-142342138D01*
X224540862Y-142281535D01*
X224498621Y-142257147D01*
X225024500Y-142257147D01*
X225024500Y-142342853D01*
X225046682Y-142425638D01*
X225089535Y-142499862D01*
X225150138Y-142560465D01*
X225224362Y-142603318D01*
X225307147Y-142625500D01*
X225307149Y-142625500D01*
X225392851Y-142625500D01*
X225392853Y-142625500D01*
X225475638Y-142603318D01*
X225549862Y-142560465D01*
X225610465Y-142499862D01*
X225653318Y-142425638D01*
X225656665Y-142413147D01*
X242515500Y-142413147D01*
X242515500Y-142498853D01*
X242537682Y-142581638D01*
X242580535Y-142655862D01*
X242641138Y-142716465D01*
X242715362Y-142759318D01*
X242798147Y-142781500D01*
X242798149Y-142781500D01*
X242883851Y-142781500D01*
X242883853Y-142781500D01*
X242966638Y-142759318D01*
X243040862Y-142716465D01*
X243101465Y-142655862D01*
X243144318Y-142581638D01*
X243160794Y-142520147D01*
X243888500Y-142520147D01*
X243888500Y-142605853D01*
X243910682Y-142688638D01*
X243953535Y-142762862D01*
X244014138Y-142823465D01*
X244088362Y-142866318D01*
X244171147Y-142888500D01*
X244171149Y-142888500D01*
X244256851Y-142888500D01*
X244256853Y-142888500D01*
X244339638Y-142866318D01*
X244408151Y-142826762D01*
X244457648Y-142813500D01*
X250393487Y-142813500D01*
X250444739Y-142813518D01*
X250444782Y-142813500D01*
X250444828Y-142813500D01*
X250491204Y-142794290D01*
X250536821Y-142775414D01*
X250536823Y-142775411D01*
X250536844Y-142775403D01*
X250536878Y-142775380D01*
X250536892Y-142775365D01*
X250536897Y-142775364D01*
X250573421Y-142738839D01*
X250573423Y-142738837D01*
X250573426Y-142738840D01*
X250573443Y-142738816D01*
X250807278Y-142505147D01*
X300470500Y-142505147D01*
X300470500Y-142590853D01*
X300492682Y-142673638D01*
X300535535Y-142747862D01*
X300596138Y-142808465D01*
X300670362Y-142851318D01*
X300753147Y-142873500D01*
X300753149Y-142873500D01*
X300838851Y-142873500D01*
X300838853Y-142873500D01*
X300921638Y-142851318D01*
X300995862Y-142808465D01*
X301056465Y-142747862D01*
X301099318Y-142673638D01*
X301121500Y-142590853D01*
X301121500Y-142505147D01*
X301099318Y-142422362D01*
X301056465Y-142348138D01*
X300995862Y-142287535D01*
X300921638Y-142244682D01*
X300838853Y-142222500D01*
X300753147Y-142222500D01*
X300670362Y-142244682D01*
X300596138Y-142287535D01*
X300535535Y-142348138D01*
X300492682Y-142422362D01*
X300470500Y-142505147D01*
X250807278Y-142505147D01*
X251808705Y-141504433D01*
X251853057Y-141478837D01*
X251929638Y-141458318D01*
X252003862Y-141415465D01*
X252064465Y-141354862D01*
X252107318Y-141280638D01*
X252129500Y-141197853D01*
X252129500Y-141112147D01*
X252107318Y-141029362D01*
X252064465Y-140955138D01*
X252003862Y-140894535D01*
X251929638Y-140851682D01*
X251846853Y-140829500D01*
X251761147Y-140829500D01*
X251678362Y-140851682D01*
X251604138Y-140894535D01*
X251543535Y-140955138D01*
X251500680Y-141029365D01*
X251480251Y-141105608D01*
X251454603Y-141150013D01*
X251425939Y-141178656D01*
X251371412Y-141206414D01*
X251310984Y-141196820D01*
X251285960Y-141178633D01*
X251237862Y-141130535D01*
X251163638Y-141087682D01*
X251080853Y-141065500D01*
X251069780Y-141065500D01*
X251011589Y-141046593D01*
X250975625Y-140997093D01*
X250974161Y-140992152D01*
X250953318Y-140914362D01*
X250910465Y-140840138D01*
X250849862Y-140779535D01*
X250775638Y-140736682D01*
X250692853Y-140714500D01*
X250607147Y-140714500D01*
X250565754Y-140725591D01*
X250524360Y-140736682D01*
X250457639Y-140775204D01*
X250397791Y-140787925D01*
X250356295Y-140771369D01*
X250355481Y-140772780D01*
X250349864Y-140769537D01*
X250349862Y-140769535D01*
X250275638Y-140726682D01*
X250192853Y-140704500D01*
X250107147Y-140704500D01*
X250024362Y-140726682D01*
X249950138Y-140769535D01*
X249950136Y-140769536D01*
X249949500Y-140769904D01*
X249889651Y-140782625D01*
X249850500Y-140769904D01*
X249849863Y-140769536D01*
X249849862Y-140769535D01*
X249775638Y-140726682D01*
X249692853Y-140704500D01*
X249607147Y-140704500D01*
X249524362Y-140726682D01*
X249450138Y-140769535D01*
X249389535Y-140830138D01*
X249346682Y-140904362D01*
X249324500Y-140987147D01*
X249324500Y-141072853D01*
X249325845Y-141077875D01*
X249322645Y-141138976D01*
X249284141Y-141186527D01*
X249239336Y-141199799D01*
X249239581Y-141201653D01*
X249233149Y-141202499D01*
X249168220Y-141219897D01*
X249150362Y-141224682D01*
X249076138Y-141267535D01*
X249015535Y-141328138D01*
X248972682Y-141402362D01*
X248950500Y-141485147D01*
X248950500Y-141570853D01*
X248972682Y-141653638D01*
X249015535Y-141727862D01*
X249076138Y-141788465D01*
X249150362Y-141831318D01*
X249233147Y-141853500D01*
X249233149Y-141853500D01*
X249318851Y-141853500D01*
X249318853Y-141853500D01*
X249401638Y-141831318D01*
X249475862Y-141788465D01*
X249536465Y-141727862D01*
X249579318Y-141653638D01*
X249601500Y-141570853D01*
X249601500Y-141485147D01*
X249600154Y-141480124D01*
X249603355Y-141419024D01*
X249641859Y-141371473D01*
X249686663Y-141358200D01*
X249686419Y-141356347D01*
X249692850Y-141355500D01*
X249692853Y-141355500D01*
X249775638Y-141333318D01*
X249849862Y-141290465D01*
X249849864Y-141290462D01*
X249850499Y-141290096D01*
X249910348Y-141277374D01*
X249949501Y-141290096D01*
X249950135Y-141290462D01*
X249950138Y-141290465D01*
X250024362Y-141333318D01*
X250107147Y-141355500D01*
X250107149Y-141355500D01*
X250192851Y-141355500D01*
X250192853Y-141355500D01*
X250275638Y-141333318D01*
X250342361Y-141294795D01*
X250402206Y-141282074D01*
X250443704Y-141298631D01*
X250444519Y-141297220D01*
X250450135Y-141300462D01*
X250450138Y-141300465D01*
X250524362Y-141343318D01*
X250607147Y-141365500D01*
X250607149Y-141365500D01*
X250618220Y-141365500D01*
X250676411Y-141384407D01*
X250712375Y-141433907D01*
X250713838Y-141438847D01*
X250734682Y-141516638D01*
X250777535Y-141590862D01*
X250825419Y-141638746D01*
X250853195Y-141693261D01*
X250843624Y-141753693D01*
X250825393Y-141778776D01*
X250635675Y-141968360D01*
X250328456Y-142275362D01*
X250320284Y-142283528D01*
X250265757Y-142311287D01*
X250250305Y-142312500D01*
X248574455Y-142312500D01*
X248516264Y-142293593D01*
X248480300Y-142244093D01*
X248475596Y-142208218D01*
X248476148Y-142197878D01*
X248492500Y-142136853D01*
X248492500Y-142051147D01*
X248485402Y-142024660D01*
X248486242Y-142008950D01*
X248491857Y-141994364D01*
X248492676Y-141978754D01*
X248505430Y-141959113D01*
X248508227Y-141951851D01*
X248511541Y-141949703D01*
X248515094Y-141944232D01*
X248543465Y-141915862D01*
X248586318Y-141841638D01*
X248608500Y-141758853D01*
X248608500Y-141673147D01*
X248586318Y-141590362D01*
X248543465Y-141516138D01*
X248482862Y-141455535D01*
X248408638Y-141412682D01*
X248408635Y-141412681D01*
X248374582Y-141403556D01*
X248323268Y-141370231D01*
X248314471Y-141357430D01*
X248277503Y-141293400D01*
X248274465Y-141288138D01*
X248213862Y-141227535D01*
X248139638Y-141184682D01*
X248056853Y-141162500D01*
X247971147Y-141162500D01*
X247888362Y-141184682D01*
X247814138Y-141227535D01*
X247753535Y-141288138D01*
X247710682Y-141362362D01*
X247688500Y-141445147D01*
X247688500Y-141530853D01*
X247710682Y-141613638D01*
X247753535Y-141687862D01*
X247814138Y-141748465D01*
X247860778Y-141775392D01*
X247901718Y-141820861D01*
X247908114Y-141881711D01*
X247897014Y-141910627D01*
X247863682Y-141968360D01*
X247850610Y-142017147D01*
X247841500Y-142051147D01*
X247841500Y-142136853D01*
X247854036Y-142183637D01*
X247855172Y-142187877D01*
X247851969Y-142248979D01*
X247813464Y-142296529D01*
X247759545Y-142312500D01*
X244457648Y-142312500D01*
X244408151Y-142299237D01*
X244339638Y-142259682D01*
X244256853Y-142237500D01*
X244171147Y-142237500D01*
X244088362Y-142259682D01*
X244019851Y-142299237D01*
X244014135Y-142302537D01*
X243991698Y-142324973D01*
X243991691Y-142324981D01*
X243953535Y-142363138D01*
X243922003Y-142417751D01*
X243922000Y-142417757D01*
X243910682Y-142437361D01*
X243910682Y-142437362D01*
X243888500Y-142520147D01*
X243160794Y-142520147D01*
X243166500Y-142498853D01*
X243166500Y-142413147D01*
X243163914Y-142403496D01*
X243167116Y-142342397D01*
X243205621Y-142294847D01*
X243264722Y-142279011D01*
X243321843Y-142300937D01*
X243329534Y-142307861D01*
X243342138Y-142320465D01*
X243416362Y-142363318D01*
X243499147Y-142385500D01*
X243499149Y-142385500D01*
X243584851Y-142385500D01*
X243584853Y-142385500D01*
X243667638Y-142363318D01*
X243741862Y-142320465D01*
X243802465Y-142259862D01*
X243845318Y-142185638D01*
X243853126Y-142156494D01*
X243886450Y-142105182D01*
X243923127Y-142086493D01*
X243953638Y-142078318D01*
X244027862Y-142035465D01*
X244088465Y-141974862D01*
X244098199Y-141958000D01*
X244143667Y-141917060D01*
X244164305Y-141910466D01*
X244174023Y-141908500D01*
X244226853Y-141908500D01*
X244309638Y-141886318D01*
X244323646Y-141878229D01*
X244339502Y-141875022D01*
X244354597Y-141876758D01*
X244369464Y-141873596D01*
X244392690Y-141881141D01*
X244400286Y-141882015D01*
X244402970Y-141884480D01*
X244404331Y-141884922D01*
X244404368Y-141884835D01*
X244405481Y-141885296D01*
X244408633Y-141886320D01*
X244410362Y-141887318D01*
X244493147Y-141909500D01*
X244493149Y-141909500D01*
X244578851Y-141909500D01*
X244578853Y-141909500D01*
X244661638Y-141887318D01*
X244664588Y-141885614D01*
X244666979Y-141885105D01*
X244667636Y-141884834D01*
X244667686Y-141884955D01*
X244724432Y-141872886D01*
X244754962Y-141882804D01*
X244755364Y-141881834D01*
X244761356Y-141884316D01*
X244761360Y-141884317D01*
X244761362Y-141884318D01*
X244844147Y-141906500D01*
X244844149Y-141906500D01*
X244929851Y-141906500D01*
X244929853Y-141906500D01*
X245012638Y-141884318D01*
X245086862Y-141841465D01*
X245147465Y-141780862D01*
X245190318Y-141706638D01*
X245212500Y-141623853D01*
X245212500Y-141538147D01*
X245190318Y-141455362D01*
X245147465Y-141381138D01*
X245086862Y-141320535D01*
X245012638Y-141277682D01*
X244929853Y-141255500D01*
X244844147Y-141255500D01*
X244771138Y-141275062D01*
X244761358Y-141277683D01*
X244761356Y-141277684D01*
X244758395Y-141279394D01*
X244755999Y-141279903D01*
X244755362Y-141280167D01*
X244755313Y-141280048D01*
X244698546Y-141292111D01*
X244668033Y-141282196D01*
X244667632Y-141283165D01*
X244661640Y-141280683D01*
X244661639Y-141280682D01*
X244661638Y-141280682D01*
X244578853Y-141258500D01*
X244493147Y-141258500D01*
X244442479Y-141272076D01*
X244410357Y-141280683D01*
X244404365Y-141283166D01*
X244403904Y-141282054D01*
X244350512Y-141293400D01*
X244315671Y-141282078D01*
X244315635Y-141282166D01*
X244314527Y-141281707D01*
X244311369Y-141280681D01*
X244309640Y-141279683D01*
X244309642Y-141279683D01*
X244294030Y-141275500D01*
X244226853Y-141257500D01*
X244141147Y-141257500D01*
X244058362Y-141279682D01*
X243984138Y-141322535D01*
X243923535Y-141383138D01*
X243919967Y-141389319D01*
X243913799Y-141400002D01*
X243868328Y-141440942D01*
X243828063Y-141449500D01*
X243785147Y-141449500D01*
X243702362Y-141471682D01*
X243628138Y-141514535D01*
X243567535Y-141575138D01*
X243524681Y-141649363D01*
X243516872Y-141678506D01*
X243483546Y-141729819D01*
X243446872Y-141748506D01*
X243416363Y-141756681D01*
X243361312Y-141788465D01*
X243342138Y-141799535D01*
X243281535Y-141860138D01*
X243238682Y-141934362D01*
X243216674Y-142016500D01*
X243216500Y-142017148D01*
X243216500Y-142102852D01*
X243219086Y-142112505D01*
X243215881Y-142173606D01*
X243177374Y-142221155D01*
X243118273Y-142236988D01*
X243061152Y-142215059D01*
X243053464Y-142208137D01*
X243040862Y-142195535D01*
X242966638Y-142152682D01*
X242883853Y-142130500D01*
X242798147Y-142130500D01*
X242715362Y-142152682D01*
X242641138Y-142195535D01*
X242580535Y-142256138D01*
X242537682Y-142330362D01*
X242515500Y-142413147D01*
X225656665Y-142413147D01*
X225675500Y-142342853D01*
X225675500Y-142257147D01*
X225653318Y-142174362D01*
X225610465Y-142100138D01*
X225549862Y-142039535D01*
X225475638Y-141996682D01*
X225392853Y-141974500D01*
X225307147Y-141974500D01*
X225224362Y-141996682D01*
X225150138Y-142039535D01*
X225089535Y-142100138D01*
X225046682Y-142174362D01*
X225024500Y-142257147D01*
X224498621Y-142257147D01*
X224466638Y-142238682D01*
X224383853Y-142216500D01*
X224298147Y-142216500D01*
X224215362Y-142238682D01*
X224141138Y-142281535D01*
X224080535Y-142342138D01*
X224037682Y-142416362D01*
X224015500Y-142499147D01*
X210093549Y-142499147D01*
X210054638Y-142476682D01*
X209971853Y-142454500D01*
X209886147Y-142454500D01*
X209803362Y-142476682D01*
X209729138Y-142519535D01*
X209668535Y-142580138D01*
X209625682Y-142654362D01*
X209603500Y-142737147D01*
X207984500Y-142737147D01*
X207984500Y-142709147D01*
X207962318Y-142626362D01*
X207919465Y-142552138D01*
X207858862Y-142491535D01*
X207784638Y-142448682D01*
X207701853Y-142426500D01*
X207616147Y-142426500D01*
X207575613Y-142437361D01*
X207533360Y-142448682D01*
X207464522Y-142488426D01*
X207404674Y-142501147D01*
X207348778Y-142476260D01*
X207345038Y-142472711D01*
X207286862Y-142414535D01*
X207212638Y-142371682D01*
X207129853Y-142349500D01*
X207044147Y-142349500D01*
X206961362Y-142371682D01*
X206887138Y-142414535D01*
X206826535Y-142475138D01*
X206783682Y-142549362D01*
X206761500Y-142632147D01*
X204364180Y-142632147D01*
X204410465Y-142585862D01*
X204453318Y-142511638D01*
X204475500Y-142428853D01*
X204475500Y-142343147D01*
X204453318Y-142260362D01*
X204410465Y-142186138D01*
X204349862Y-142125535D01*
X204275638Y-142082682D01*
X204192853Y-142060500D01*
X204107147Y-142060500D01*
X204024362Y-142082682D01*
X203950138Y-142125535D01*
X203889535Y-142186138D01*
X203846682Y-142260362D01*
X203824500Y-142343147D01*
X197358481Y-142343147D01*
X197340318Y-142275362D01*
X197297465Y-142201138D01*
X197236862Y-142140535D01*
X197162638Y-142097682D01*
X197079853Y-142075500D01*
X196994147Y-142075500D01*
X196911362Y-142097682D01*
X196837138Y-142140535D01*
X196776535Y-142201138D01*
X196733682Y-142275362D01*
X196711500Y-142358147D01*
X185311500Y-142358147D01*
X185311500Y-142299147D01*
X185289318Y-142216362D01*
X185246465Y-142142138D01*
X185185862Y-142081535D01*
X185111638Y-142038682D01*
X185028853Y-142016500D01*
X184943147Y-142016500D01*
X184860362Y-142038682D01*
X184786138Y-142081535D01*
X184725535Y-142142138D01*
X184682682Y-142216362D01*
X184660500Y-142299147D01*
X175609647Y-142299147D01*
X175655862Y-142272465D01*
X175716465Y-142211862D01*
X175759318Y-142137638D01*
X175781500Y-142054853D01*
X175781500Y-141969147D01*
X175759318Y-141886362D01*
X175716465Y-141812138D01*
X175655862Y-141751535D01*
X175581638Y-141708682D01*
X175498853Y-141686500D01*
X175413147Y-141686500D01*
X175330362Y-141708682D01*
X175256138Y-141751535D01*
X175195535Y-141812138D01*
X175152682Y-141886362D01*
X175130500Y-141969147D01*
X128821031Y-141969147D01*
X128813318Y-141940362D01*
X128770465Y-141866138D01*
X128709862Y-141805535D01*
X128635638Y-141762682D01*
X128552853Y-141740500D01*
X128467147Y-141740500D01*
X128384362Y-141762682D01*
X128310138Y-141805535D01*
X128249535Y-141866138D01*
X128206682Y-141940362D01*
X128184500Y-142023147D01*
X118252500Y-142023147D01*
X118252500Y-142015147D01*
X118230318Y-141932362D01*
X118187465Y-141858138D01*
X118126862Y-141797535D01*
X118052638Y-141754682D01*
X117969853Y-141732500D01*
X117884147Y-141732500D01*
X117801362Y-141754682D01*
X117727138Y-141797535D01*
X117666535Y-141858138D01*
X117623682Y-141932362D01*
X117601500Y-142015147D01*
X112150500Y-142015147D01*
X112150500Y-141351147D01*
X198446500Y-141351147D01*
X198446500Y-141436853D01*
X198468682Y-141519638D01*
X198511535Y-141593862D01*
X198572138Y-141654465D01*
X198646362Y-141697318D01*
X198729147Y-141719500D01*
X198729149Y-141719500D01*
X198814851Y-141719500D01*
X198814853Y-141719500D01*
X198897638Y-141697318D01*
X198971862Y-141654465D01*
X199032465Y-141593862D01*
X199075318Y-141519638D01*
X199097500Y-141436853D01*
X199097500Y-141351147D01*
X199075318Y-141268362D01*
X199072801Y-141264003D01*
X199036518Y-141201158D01*
X199036517Y-141201157D01*
X199032465Y-141194138D01*
X198996474Y-141158147D01*
X201066500Y-141158147D01*
X201066500Y-141243853D01*
X201088682Y-141326638D01*
X201131535Y-141400862D01*
X201192138Y-141461465D01*
X201266362Y-141504318D01*
X201349147Y-141526500D01*
X201349149Y-141526500D01*
X201374653Y-141526500D01*
X201432844Y-141545407D01*
X201468808Y-141594907D01*
X201468808Y-141656093D01*
X201432844Y-141705593D01*
X201424153Y-141711236D01*
X201375140Y-141739533D01*
X201375138Y-141739535D01*
X201314535Y-141800138D01*
X201271682Y-141874362D01*
X201249500Y-141957147D01*
X201249500Y-142042853D01*
X201271682Y-142125638D01*
X201314535Y-142199862D01*
X201375138Y-142260465D01*
X201449362Y-142303318D01*
X201532147Y-142325500D01*
X201532149Y-142325500D01*
X201617851Y-142325500D01*
X201617853Y-142325500D01*
X201700638Y-142303318D01*
X201774862Y-142260465D01*
X201835465Y-142199862D01*
X201878318Y-142125638D01*
X201900500Y-142042853D01*
X201900500Y-142033147D01*
X213704500Y-142033147D01*
X213704500Y-142118853D01*
X213726682Y-142201638D01*
X213769535Y-142275862D01*
X213830138Y-142336465D01*
X213904362Y-142379318D01*
X213987147Y-142401500D01*
X213987149Y-142401500D01*
X214072851Y-142401500D01*
X214072853Y-142401500D01*
X214155638Y-142379318D01*
X214229862Y-142336465D01*
X214290465Y-142275862D01*
X214333318Y-142201638D01*
X214355500Y-142118853D01*
X214355500Y-142033147D01*
X214344550Y-141992280D01*
X214344550Y-141992278D01*
X214339424Y-141973147D01*
X215710500Y-141973147D01*
X215710500Y-142058853D01*
X215732682Y-142141638D01*
X215775535Y-142215862D01*
X215836138Y-142276465D01*
X215910362Y-142319318D01*
X215993147Y-142341500D01*
X215993149Y-142341500D01*
X216078851Y-142341500D01*
X216078853Y-142341500D01*
X216161638Y-142319318D01*
X216235862Y-142276465D01*
X216296465Y-142215862D01*
X216339318Y-142141638D01*
X216361500Y-142058853D01*
X216361500Y-142033147D01*
X217770500Y-142033147D01*
X217770500Y-142118853D01*
X217792682Y-142201638D01*
X217835535Y-142275862D01*
X217896138Y-142336465D01*
X217970362Y-142379318D01*
X218053147Y-142401500D01*
X218053149Y-142401500D01*
X218138851Y-142401500D01*
X218138853Y-142401500D01*
X218221638Y-142379318D01*
X218295862Y-142336465D01*
X218356465Y-142275862D01*
X218399318Y-142201638D01*
X218421500Y-142118853D01*
X218421500Y-142033147D01*
X218399318Y-141950362D01*
X218356465Y-141876138D01*
X218295862Y-141815535D01*
X218221638Y-141772682D01*
X218138853Y-141750500D01*
X218053147Y-141750500D01*
X217970362Y-141772682D01*
X217896138Y-141815535D01*
X217835535Y-141876138D01*
X217792682Y-141950362D01*
X217770500Y-142033147D01*
X216361500Y-142033147D01*
X216361500Y-141973147D01*
X216339318Y-141890362D01*
X216296465Y-141816138D01*
X216235862Y-141755535D01*
X216161638Y-141712682D01*
X216078853Y-141690500D01*
X215993147Y-141690500D01*
X215910362Y-141712682D01*
X215836138Y-141755535D01*
X215775535Y-141816138D01*
X215732682Y-141890362D01*
X215710500Y-141973147D01*
X214339424Y-141973147D01*
X214333319Y-141950365D01*
X214333318Y-141950364D01*
X214333318Y-141950362D01*
X214290465Y-141876138D01*
X214229862Y-141815535D01*
X214155638Y-141772682D01*
X214072853Y-141750500D01*
X213987147Y-141750500D01*
X213904362Y-141772682D01*
X213830138Y-141815535D01*
X213769535Y-141876138D01*
X213726682Y-141950362D01*
X213704500Y-142033147D01*
X201900500Y-142033147D01*
X201900500Y-141957147D01*
X201878318Y-141874362D01*
X201835465Y-141800138D01*
X201774862Y-141739535D01*
X201700638Y-141696682D01*
X201617853Y-141674500D01*
X201592347Y-141674500D01*
X201563591Y-141665156D01*
X201534762Y-141656030D01*
X201534528Y-141655714D01*
X201534156Y-141655593D01*
X201516358Y-141631097D01*
X201498426Y-141606802D01*
X201498423Y-141606411D01*
X201498192Y-141606093D01*
X201498192Y-141575813D01*
X201497964Y-141545619D01*
X201498192Y-141545335D01*
X201498192Y-141544907D01*
X201523248Y-141510147D01*
X204324500Y-141510147D01*
X204324500Y-141595853D01*
X204346682Y-141678638D01*
X204389535Y-141752862D01*
X204450138Y-141813465D01*
X204524362Y-141856318D01*
X204607147Y-141878500D01*
X204607149Y-141878500D01*
X204692851Y-141878500D01*
X204692853Y-141878500D01*
X204775638Y-141856318D01*
X204798197Y-141843293D01*
X204858043Y-141830572D01*
X204913939Y-141855458D01*
X204917680Y-141859007D01*
X204950138Y-141891465D01*
X205024362Y-141934318D01*
X205107147Y-141956500D01*
X205107149Y-141956500D01*
X205192851Y-141956500D01*
X205192853Y-141956500D01*
X205275638Y-141934318D01*
X205349862Y-141891465D01*
X205410465Y-141830862D01*
X205453318Y-141756638D01*
X205475500Y-141673853D01*
X205475500Y-141588147D01*
X205453318Y-141505362D01*
X205410465Y-141431138D01*
X205349862Y-141370535D01*
X205275638Y-141327682D01*
X205192853Y-141305500D01*
X205107147Y-141305500D01*
X205024362Y-141327682D01*
X205024361Y-141327682D01*
X205024359Y-141327683D01*
X205001800Y-141340707D01*
X204941952Y-141353426D01*
X204886057Y-141328538D01*
X204882318Y-141324991D01*
X204849862Y-141292535D01*
X204775638Y-141249682D01*
X204692853Y-141227500D01*
X204607147Y-141227500D01*
X204524362Y-141249682D01*
X204450138Y-141292535D01*
X204389535Y-141353138D01*
X204346682Y-141427362D01*
X204324500Y-141510147D01*
X201523248Y-141510147D01*
X201533554Y-141495849D01*
X201538031Y-141492543D01*
X201591862Y-141461465D01*
X201652465Y-141400862D01*
X201695318Y-141326638D01*
X201717500Y-141243853D01*
X201717500Y-141158147D01*
X201710101Y-141130535D01*
X201706246Y-141116147D01*
X227588500Y-141116147D01*
X227588500Y-141201853D01*
X227610682Y-141284638D01*
X227653535Y-141358862D01*
X227714138Y-141419465D01*
X227788362Y-141462318D01*
X227871147Y-141484500D01*
X227871149Y-141484500D01*
X227956851Y-141484500D01*
X227956853Y-141484500D01*
X228039638Y-141462318D01*
X228113862Y-141419465D01*
X228161180Y-141372147D01*
X232604500Y-141372147D01*
X232604500Y-141457853D01*
X232626682Y-141540638D01*
X232669535Y-141614862D01*
X232730138Y-141675465D01*
X232804362Y-141718318D01*
X232887147Y-141740500D01*
X232887149Y-141740500D01*
X232972851Y-141740500D01*
X232972853Y-141740500D01*
X233055638Y-141718318D01*
X233129862Y-141675465D01*
X233190465Y-141614862D01*
X233233318Y-141540638D01*
X233255500Y-141457853D01*
X233255500Y-141372147D01*
X233233318Y-141289362D01*
X233222802Y-141271147D01*
X241109500Y-141271147D01*
X241109500Y-141356853D01*
X241131682Y-141439638D01*
X241174535Y-141513862D01*
X241235138Y-141574465D01*
X241309362Y-141617318D01*
X241392147Y-141639500D01*
X241392149Y-141639500D01*
X241477851Y-141639500D01*
X241477853Y-141639500D01*
X241560638Y-141617318D01*
X241634862Y-141574465D01*
X241695465Y-141513862D01*
X241738318Y-141439638D01*
X241741219Y-141428810D01*
X241774539Y-141377498D01*
X241823928Y-141356279D01*
X241829846Y-141355500D01*
X241829853Y-141355500D01*
X241912638Y-141333318D01*
X241986862Y-141290465D01*
X242047465Y-141229862D01*
X242090318Y-141155638D01*
X242112500Y-141072853D01*
X242112500Y-141013147D01*
X245720500Y-141013147D01*
X245720500Y-141098853D01*
X245742682Y-141181638D01*
X245785535Y-141255862D01*
X245846138Y-141316465D01*
X245920362Y-141359318D01*
X246003147Y-141381500D01*
X246003149Y-141381500D01*
X246088851Y-141381500D01*
X246088853Y-141381500D01*
X246171638Y-141359318D01*
X246245862Y-141316465D01*
X246290998Y-141271328D01*
X246345513Y-141243553D01*
X246405945Y-141253124D01*
X246431000Y-141271327D01*
X246450138Y-141290465D01*
X246524362Y-141333318D01*
X246607147Y-141355500D01*
X246607149Y-141355500D01*
X246692852Y-141355500D01*
X246692853Y-141355500D01*
X246764627Y-141336268D01*
X246825726Y-141339469D01*
X246873277Y-141377974D01*
X246875985Y-141382393D01*
X246889535Y-141405862D01*
X246950138Y-141466465D01*
X247024362Y-141509318D01*
X247107147Y-141531500D01*
X247107149Y-141531500D01*
X247192851Y-141531500D01*
X247192853Y-141531500D01*
X247275638Y-141509318D01*
X247349862Y-141466465D01*
X247410465Y-141405862D01*
X247453318Y-141331638D01*
X247475500Y-141248853D01*
X247475500Y-141163147D01*
X247453318Y-141080362D01*
X247410465Y-141006138D01*
X247349862Y-140945535D01*
X247275638Y-140902682D01*
X247192853Y-140880500D01*
X247107147Y-140880500D01*
X247063279Y-140892254D01*
X247035371Y-140899732D01*
X246974270Y-140896529D01*
X246926720Y-140858024D01*
X246924036Y-140853643D01*
X246910465Y-140830138D01*
X246849862Y-140769535D01*
X246775638Y-140726682D01*
X246692853Y-140704500D01*
X246607147Y-140704500D01*
X246524362Y-140726682D01*
X246450138Y-140769535D01*
X246405001Y-140814671D01*
X246350487Y-140842447D01*
X246290055Y-140832876D01*
X246264999Y-140814672D01*
X246245862Y-140795535D01*
X246171638Y-140752682D01*
X246088853Y-140730500D01*
X246003147Y-140730500D01*
X245920362Y-140752682D01*
X245846138Y-140795535D01*
X245785535Y-140856138D01*
X245742682Y-140930362D01*
X245720500Y-141013147D01*
X242112500Y-141013147D01*
X242112500Y-140987147D01*
X242090318Y-140904362D01*
X242047465Y-140830138D01*
X241986862Y-140769535D01*
X241912638Y-140726682D01*
X241829853Y-140704500D01*
X241744147Y-140704500D01*
X241661362Y-140726682D01*
X241587138Y-140769535D01*
X241526535Y-140830138D01*
X241501003Y-140874362D01*
X241483681Y-140904364D01*
X241480780Y-140915191D01*
X241447455Y-140966505D01*
X241398080Y-140987719D01*
X241392148Y-140988500D01*
X241392147Y-140988500D01*
X241309362Y-141010682D01*
X241235138Y-141053535D01*
X241174535Y-141114138D01*
X241131682Y-141188362D01*
X241109500Y-141271147D01*
X233222802Y-141271147D01*
X233190465Y-141215138D01*
X233129862Y-141154535D01*
X233055638Y-141111682D01*
X232972853Y-141089500D01*
X232887147Y-141089500D01*
X232804362Y-141111682D01*
X232730138Y-141154535D01*
X232669535Y-141215138D01*
X232626682Y-141289362D01*
X232604500Y-141372147D01*
X228161180Y-141372147D01*
X228174465Y-141358862D01*
X228217318Y-141284638D01*
X228239500Y-141201853D01*
X228239500Y-141116147D01*
X228217318Y-141033362D01*
X228174465Y-140959138D01*
X228122474Y-140907147D01*
X231087500Y-140907147D01*
X231087500Y-140992853D01*
X231109682Y-141075638D01*
X231152535Y-141149862D01*
X231213138Y-141210465D01*
X231287362Y-141253318D01*
X231370147Y-141275500D01*
X231370149Y-141275500D01*
X231455851Y-141275500D01*
X231455853Y-141275500D01*
X231538638Y-141253318D01*
X231612862Y-141210465D01*
X231673465Y-141149862D01*
X231716318Y-141075638D01*
X231738500Y-140992853D01*
X231738500Y-140907147D01*
X231716318Y-140824362D01*
X231673465Y-140750138D01*
X231612862Y-140689535D01*
X231538638Y-140646682D01*
X231455853Y-140624500D01*
X231370147Y-140624500D01*
X231287362Y-140646682D01*
X231213138Y-140689535D01*
X231152535Y-140750138D01*
X231109682Y-140824362D01*
X231087500Y-140907147D01*
X228122474Y-140907147D01*
X228113862Y-140898535D01*
X228039638Y-140855682D01*
X227956853Y-140833500D01*
X227871147Y-140833500D01*
X227788362Y-140855682D01*
X227714138Y-140898535D01*
X227653535Y-140959138D01*
X227610682Y-141033362D01*
X227588500Y-141116147D01*
X201706246Y-141116147D01*
X201705708Y-141114138D01*
X201695318Y-141075362D01*
X201652465Y-141001138D01*
X201591862Y-140940535D01*
X201517638Y-140897682D01*
X201434853Y-140875500D01*
X201349147Y-140875500D01*
X201266362Y-140897682D01*
X201192138Y-140940535D01*
X201131535Y-141001138D01*
X201088682Y-141075362D01*
X201066500Y-141158147D01*
X198996474Y-141158147D01*
X198971862Y-141133535D01*
X198897638Y-141090682D01*
X198814853Y-141068500D01*
X198729147Y-141068500D01*
X198646362Y-141090682D01*
X198572138Y-141133535D01*
X198511535Y-141194138D01*
X198468682Y-141268362D01*
X198446500Y-141351147D01*
X112150500Y-141351147D01*
X112150500Y-138249500D01*
X112169407Y-138191309D01*
X112218907Y-138155345D01*
X112249500Y-138150500D01*
X131750500Y-138150500D01*
X131808691Y-138169407D01*
G37*
%TD.AperFunction*%
%TA.AperFunction,Conductor*%
G36*
X207295042Y-150657769D02*
G01*
X207305565Y-150656663D01*
X207323489Y-150667011D01*
X207343172Y-150673407D01*
X207349390Y-150681965D01*
X207358553Y-150687256D01*
X207366970Y-150706163D01*
X207379136Y-150722907D01*
X207379136Y-150733487D01*
X207383439Y-150743152D01*
X207379136Y-150763394D01*
X207379136Y-150784093D01*
X207370717Y-150803000D01*
X207345683Y-150846359D01*
X207345682Y-150846361D01*
X207345682Y-150846362D01*
X207323500Y-150929147D01*
X207323500Y-151014853D01*
X207345682Y-151097638D01*
X207388535Y-151171862D01*
X207442258Y-151225585D01*
X207470034Y-151280100D01*
X207467880Y-151321208D01*
X207454500Y-151371144D01*
X207454500Y-151371147D01*
X207454500Y-151456853D01*
X207476682Y-151539638D01*
X207519535Y-151613862D01*
X207580138Y-151674465D01*
X207654362Y-151717318D01*
X207730774Y-151737792D01*
X207775153Y-151763414D01*
X207780636Y-151768897D01*
X207780635Y-151768897D01*
X207851103Y-151839364D01*
X207943171Y-151877500D01*
X207943172Y-151877500D01*
X209169120Y-151877500D01*
X209192242Y-151885012D01*
X209216162Y-151889390D01*
X209220849Y-151894307D01*
X209227311Y-151896407D01*
X209241603Y-151916079D01*
X209258379Y-151933677D01*
X209258964Y-151939974D01*
X209263275Y-151945907D01*
X209266503Y-151994321D01*
X209265193Y-152001475D01*
X209264682Y-152002362D01*
X209242500Y-152085147D01*
X209242500Y-152125484D01*
X209240883Y-152134321D01*
X209230406Y-152153720D01*
X209223593Y-152174691D01*
X209216168Y-152180085D01*
X209211809Y-152188158D01*
X209191931Y-152197694D01*
X209174093Y-152210655D01*
X209160395Y-152212824D01*
X209156644Y-152214624D01*
X209153112Y-152213977D01*
X209143500Y-152215500D01*
X206054630Y-152215500D01*
X205996439Y-152196593D01*
X205984673Y-152186550D01*
X205978199Y-152180085D01*
X205627152Y-151829504D01*
X205509377Y-151711886D01*
X205483708Y-151667460D01*
X205463318Y-151591362D01*
X205420465Y-151517138D01*
X205359862Y-151456535D01*
X205285638Y-151413682D01*
X205202853Y-151391500D01*
X205117147Y-151391500D01*
X205034362Y-151413682D01*
X204960138Y-151456535D01*
X204899535Y-151517138D01*
X204856682Y-151591362D01*
X204834500Y-151674147D01*
X204834500Y-151759853D01*
X204856682Y-151842638D01*
X204899535Y-151916862D01*
X204960138Y-151977465D01*
X205034362Y-152020318D01*
X205111091Y-152040877D01*
X205155422Y-152066452D01*
X205732239Y-152642500D01*
X205768103Y-152678364D01*
X205768184Y-152678397D01*
X205768245Y-152678458D01*
X205813652Y-152697231D01*
X205860172Y-152716500D01*
X205860178Y-152716500D01*
X205860335Y-152716531D01*
X205860339Y-152716533D01*
X205910135Y-152716500D01*
X205910168Y-152716500D01*
X208235775Y-152716500D01*
X208293966Y-152735407D01*
X208329930Y-152784907D01*
X208331401Y-152841120D01*
X208325500Y-152863147D01*
X208325500Y-152948853D01*
X208347682Y-153031638D01*
X208358284Y-153050001D01*
X208371005Y-153109848D01*
X208346118Y-153165744D01*
X208293130Y-153196337D01*
X208272547Y-153198500D01*
X204367814Y-153198500D01*
X204309623Y-153179593D01*
X204273659Y-153130093D01*
X204272187Y-153073878D01*
X204273519Y-153068907D01*
X204280500Y-153042853D01*
X204280500Y-152957147D01*
X204258318Y-152874362D01*
X204215465Y-152800138D01*
X204154862Y-152739535D01*
X204080638Y-152696682D01*
X203997853Y-152674500D01*
X203912147Y-152674500D01*
X203829362Y-152696682D01*
X203755138Y-152739535D01*
X203694535Y-152800138D01*
X203651682Y-152874362D01*
X203629500Y-152957147D01*
X203629500Y-153042853D01*
X203651682Y-153125638D01*
X203694535Y-153199862D01*
X203755138Y-153260465D01*
X203755140Y-153260466D01*
X203756190Y-153261516D01*
X203783967Y-153316033D01*
X203781813Y-153357143D01*
X203780682Y-153361360D01*
X203780682Y-153361362D01*
X203758500Y-153444147D01*
X203758500Y-153529853D01*
X203780682Y-153612638D01*
X203823535Y-153686862D01*
X203884138Y-153747465D01*
X203958362Y-153790318D01*
X204041147Y-153812500D01*
X204041149Y-153812500D01*
X204126851Y-153812500D01*
X204126853Y-153812500D01*
X204209638Y-153790318D01*
X204283862Y-153747465D01*
X204302832Y-153728494D01*
X204357347Y-153700719D01*
X204372834Y-153699500D01*
X204664166Y-153699500D01*
X204722357Y-153718407D01*
X204758321Y-153767907D01*
X204758321Y-153829093D01*
X204734171Y-153868501D01*
X204717535Y-153885138D01*
X204674682Y-153959362D01*
X204652500Y-154042147D01*
X204652500Y-154127853D01*
X204674682Y-154210638D01*
X204717535Y-154284862D01*
X204778138Y-154345465D01*
X204852362Y-154388318D01*
X204928774Y-154408792D01*
X204973153Y-154434414D01*
X205258636Y-154719897D01*
X205258635Y-154719897D01*
X205329103Y-154790364D01*
X205366938Y-154806036D01*
X205413463Y-154845773D01*
X205427747Y-154905267D01*
X205404332Y-154961795D01*
X205352163Y-154993765D01*
X205329052Y-154996500D01*
X200832769Y-154996500D01*
X200774578Y-154977593D01*
X200762765Y-154967504D01*
X199121414Y-153326153D01*
X199095792Y-153281774D01*
X199075318Y-153205362D01*
X199032465Y-153131138D01*
X198971862Y-153070535D01*
X198897638Y-153027682D01*
X198814853Y-153005500D01*
X198729147Y-153005500D01*
X198646362Y-153027682D01*
X198572138Y-153070535D01*
X198511535Y-153131138D01*
X198468682Y-153205362D01*
X198446500Y-153288147D01*
X198446500Y-153373853D01*
X198468682Y-153456638D01*
X198511535Y-153530862D01*
X198572138Y-153591465D01*
X198646362Y-153634318D01*
X198722774Y-153654792D01*
X198767153Y-153680414D01*
X200475636Y-155388897D01*
X200475635Y-155388897D01*
X200546103Y-155459364D01*
X200638171Y-155497500D01*
X200638172Y-155497500D01*
X229028500Y-155497500D01*
X229086691Y-155516407D01*
X229122655Y-155565907D01*
X229127500Y-155596500D01*
X229127500Y-155614853D01*
X229149682Y-155697638D01*
X229192535Y-155771862D01*
X229253138Y-155832465D01*
X229327362Y-155875318D01*
X229403774Y-155895792D01*
X229448153Y-155921414D01*
X229844636Y-156317897D01*
X229844635Y-156317897D01*
X229915103Y-156388364D01*
X230007171Y-156426500D01*
X230007172Y-156426500D01*
X230496606Y-156426500D01*
X230554797Y-156445407D01*
X230590761Y-156494907D01*
X230590761Y-156556093D01*
X230570405Y-156589190D01*
X230571168Y-156589779D01*
X230567204Y-156594911D01*
X230520808Y-156674696D01*
X230496646Y-156763763D01*
X230496339Y-156862540D01*
X230493210Y-156862530D01*
X230484153Y-156910148D01*
X230439572Y-156952056D01*
X230397373Y-156961500D01*
X213288378Y-156961500D01*
X213230187Y-156942593D01*
X213218508Y-156932637D01*
X213058143Y-156772881D01*
X213058122Y-156772860D01*
X213057810Y-156772549D01*
X213022897Y-156737636D01*
X213022705Y-156737556D01*
X213022554Y-156737406D01*
X213022496Y-156737368D01*
X213022492Y-156737366D01*
X213013036Y-156733470D01*
X212976601Y-156718458D01*
X212976598Y-156718458D01*
X212976588Y-156718454D01*
X212930828Y-156699500D01*
X212930581Y-156699500D01*
X212930350Y-156699405D01*
X212930337Y-156699405D01*
X212880522Y-156699500D01*
X210157171Y-156699500D01*
X210065100Y-156737636D01*
X210060938Y-156740418D01*
X210031562Y-156753728D01*
X209953362Y-156774682D01*
X209879138Y-156817535D01*
X209818535Y-156878138D01*
X209775682Y-156952362D01*
X209753500Y-157035147D01*
X209753500Y-157120853D01*
X209775210Y-157201879D01*
X209772009Y-157262978D01*
X209733503Y-157310528D01*
X209679584Y-157326500D01*
X199027769Y-157326500D01*
X198969578Y-157307593D01*
X198957765Y-157297504D01*
X197719408Y-156059147D01*
X227744500Y-156059147D01*
X227744500Y-156144853D01*
X227766682Y-156227638D01*
X227809535Y-156301862D01*
X227870138Y-156362465D01*
X227944362Y-156405318D01*
X228027147Y-156427500D01*
X228027149Y-156427500D01*
X228112851Y-156427500D01*
X228112853Y-156427500D01*
X228195638Y-156405318D01*
X228269862Y-156362465D01*
X228330465Y-156301862D01*
X228373318Y-156227638D01*
X228395500Y-156144853D01*
X228395500Y-156059147D01*
X228373318Y-155976362D01*
X228330465Y-155902138D01*
X228269862Y-155841535D01*
X228195638Y-155798682D01*
X228112853Y-155776500D01*
X228027147Y-155776500D01*
X227944362Y-155798682D01*
X227870138Y-155841535D01*
X227809535Y-155902138D01*
X227766682Y-155976362D01*
X227744500Y-156059147D01*
X197719408Y-156059147D01*
X195209408Y-153549147D01*
X196004500Y-153549147D01*
X196004500Y-153634853D01*
X196026682Y-153717638D01*
X196069535Y-153791862D01*
X196130138Y-153852465D01*
X196204362Y-153895318D01*
X196287147Y-153917500D01*
X196287149Y-153917500D01*
X196372851Y-153917500D01*
X196372853Y-153917500D01*
X196455638Y-153895318D01*
X196529862Y-153852465D01*
X196590465Y-153791862D01*
X196633318Y-153717638D01*
X196655500Y-153634853D01*
X196655500Y-153549147D01*
X196633318Y-153466362D01*
X196590465Y-153392138D01*
X196529862Y-153331535D01*
X196455638Y-153288682D01*
X196372853Y-153266500D01*
X196287147Y-153266500D01*
X196204362Y-153288682D01*
X196130138Y-153331535D01*
X196069535Y-153392138D01*
X196026682Y-153466362D01*
X196004500Y-153549147D01*
X195209408Y-153549147D01*
X193386414Y-151726153D01*
X193360792Y-151681774D01*
X193340318Y-151605362D01*
X193297465Y-151531138D01*
X193297462Y-151531135D01*
X193294110Y-151526766D01*
X193273687Y-151469090D01*
X193291065Y-151410425D01*
X193339607Y-151373178D01*
X193372653Y-151367500D01*
X193601579Y-151367500D01*
X193659770Y-151386407D01*
X193695734Y-151435907D01*
X193697205Y-151492124D01*
X193690500Y-151517144D01*
X193690500Y-151517147D01*
X193690500Y-151602853D01*
X193712682Y-151685638D01*
X193755535Y-151759862D01*
X193816138Y-151820465D01*
X193890362Y-151863318D01*
X193973147Y-151885500D01*
X193973149Y-151885500D01*
X194058851Y-151885500D01*
X194058853Y-151885500D01*
X194141638Y-151863318D01*
X194156519Y-151854726D01*
X194216364Y-151842003D01*
X194272261Y-151866887D01*
X194292520Y-151895547D01*
X194293438Y-151895018D01*
X194296681Y-151900635D01*
X194296682Y-151900638D01*
X194339535Y-151974862D01*
X194400138Y-152035465D01*
X194474362Y-152078318D01*
X194557147Y-152100500D01*
X194557149Y-152100500D01*
X194642851Y-152100500D01*
X194642853Y-152100500D01*
X194725638Y-152078318D01*
X194799862Y-152035465D01*
X194860465Y-151974862D01*
X194903318Y-151900638D01*
X194925500Y-151817853D01*
X194925500Y-151732147D01*
X194903318Y-151649362D01*
X194860465Y-151575138D01*
X194821828Y-151536501D01*
X194794053Y-151481987D01*
X194803624Y-151421555D01*
X194846889Y-151378290D01*
X194891834Y-151367500D01*
X196292352Y-151367500D01*
X196341848Y-151380762D01*
X196410362Y-151420318D01*
X196493147Y-151442500D01*
X196493149Y-151442500D01*
X196578851Y-151442500D01*
X196578853Y-151442500D01*
X196661638Y-151420318D01*
X196735862Y-151377465D01*
X196735862Y-151377464D01*
X196736030Y-151377368D01*
X196795878Y-151364646D01*
X196811148Y-151367476D01*
X196882147Y-151386500D01*
X196882149Y-151386500D01*
X196967851Y-151386500D01*
X196967853Y-151386500D01*
X197050638Y-151364318D01*
X197124862Y-151321465D01*
X197185465Y-151260862D01*
X197228318Y-151186638D01*
X197250500Y-151103853D01*
X197250500Y-151018147D01*
X197228318Y-150935362D01*
X197185465Y-150861138D01*
X197147828Y-150823501D01*
X197120053Y-150768987D01*
X197129624Y-150708555D01*
X197172889Y-150665290D01*
X197217834Y-150654500D01*
X207284981Y-150654500D01*
X207295042Y-150657769D01*
G37*
%TD.AperFunction*%
%TA.AperFunction,Conductor*%
G36*
X238941001Y-157020407D02*
G01*
X238952813Y-157030496D01*
X238984964Y-157062646D01*
X239013788Y-157091470D01*
X239093712Y-157137614D01*
X239093714Y-157137614D01*
X239099332Y-157140858D01*
X239098082Y-157143022D01*
X239136427Y-157175771D01*
X239150712Y-157235265D01*
X239127299Y-157291794D01*
X239075130Y-157323764D01*
X239052017Y-157326500D01*
X231644416Y-157326500D01*
X231620659Y-157318781D01*
X231596159Y-157313942D01*
X231592019Y-157309475D01*
X231586225Y-157307593D01*
X231571540Y-157287381D01*
X231554566Y-157269068D01*
X231554073Y-157263340D01*
X231550261Y-157258093D01*
X231547292Y-157208317D01*
X231548163Y-157203906D01*
X231548318Y-157203638D01*
X231570500Y-157120853D01*
X231570500Y-157090815D01*
X231572376Y-157081317D01*
X231582798Y-157062646D01*
X231589407Y-157042309D01*
X231597391Y-157036507D01*
X231602201Y-157027893D01*
X231621604Y-157018915D01*
X231638907Y-157006345D01*
X231653912Y-157003968D01*
X231657731Y-157002202D01*
X231660995Y-157002846D01*
X231669500Y-157001500D01*
X238882810Y-157001500D01*
X238941001Y-157020407D01*
G37*
%TD.AperFunction*%
%TD*%
M02*
