M48
; DRILL file KiCad 10.0.4 date 2026-08-31T14:27:31
; FORMAT={-:-/ absolute / metric / decimal}
; #@! TF.CreationDate,2026-08-31T14:27:31+02:00
; #@! TF.GenerationSoftware,Kicad,Pcbnew,10.0.4
; #@! TF.FileFunction,Plated,1,4,PTH
FMAT,2
METRIC
; #@! TA.AperFunction,Plated,PTH,ViaDrill
T1C0.100
%
G90
G05
T1
X116.0Y-140.4
X116.0Y-155.6
X117.927Y-142.058
X118.607Y-146.134
X119.087Y-148.565
X119.319Y-149.865
X119.648Y-150.806
X119.866Y-145.56
X120.0Y-140.4
X120.0Y-155.6
X120.25Y-146.25
X120.25Y-149.75
X120.662Y-151.894
X120.899Y-142.568
X121.063Y-149.937
X122.705Y-152.074
X122.75Y-145.319
X122.75Y-150.68
X123.25Y-146.25
X123.25Y-149.75
X123.682Y-147.19
X124.0Y-140.4
X124.0Y-155.6
X125.046Y-152.526
X128.0Y-140.4
X128.0Y-155.6
X128.51Y-142.066
X134.0Y-145.4
X134.0Y-150.6
X137.0Y-145.4
X137.0Y-150.6
X140.0Y-145.4
X140.0Y-150.6
X143.0Y-145.4
X143.0Y-150.6
X146.0Y-145.4
X146.0Y-150.6
X149.0Y-145.4
X149.0Y-150.6
X152.0Y-145.4
X152.0Y-150.6
X155.0Y-145.4
X155.0Y-150.6
X158.0Y-145.4
X158.0Y-150.6
X161.0Y-145.4
X161.0Y-150.6
X162.288Y-150.813
X164.0Y-138.7
X164.0Y-157.3
X168.0Y-138.7
X168.0Y-157.3
X168.011Y-152.282
X171.715Y-146.3
X172.0Y-138.7
X172.491Y-141.04
X174.4Y-149.356
X174.849Y-149.373
X174.88Y-142.003
X175.209Y-148.672
X175.432Y-141.99
X176.0Y-138.7
X176.843Y-151.316
X180.0Y-138.7
X180.678Y-148.613
X180.957Y-148.288
X182.384Y-150.091
X182.384Y-150.493
X182.389Y-144.05
X182.419Y-149.7
X182.757Y-145.017
X182.819Y-152.473
X182.903Y-149.2
X183.51Y-153.783
X184.0Y-138.7
X184.0Y-157.3
X184.629Y-142.411
X184.859Y-151.935
X185.042Y-151.263
X185.353Y-150.913
X185.407Y-151.622
X185.897Y-151.917
X186.045Y-141.159
X187.155Y-146.993
X187.51Y-145.7
X187.769Y-152.794
X188.0Y-138.7
X188.0Y-157.3
X189.536Y-153.597
X189.662Y-144.071
X189.703Y-147.4
X189.837Y-144.681
X189.841Y-150.104
X189.878Y-148.706
X189.918Y-149.061
X190.147Y-145.266
X190.413Y-147.717
X190.415Y-146.685
X190.416Y-149.0
X190.416Y-149.657
X190.418Y-148.275
X190.421Y-147.036
X191.499Y-142.684
X192.0Y-138.7
X192.0Y-157.3
X192.341Y-144.362
X192.43Y-151.572
X192.906Y-144.42
X193.4Y-151.594
X193.922Y-144.417
X195.215Y-143.95
X195.401Y-151.627
X196.0Y-138.7
X196.0Y-157.3
X196.372Y-144.135
X196.535Y-144.879
X196.646Y-145.259
X196.82Y-152.404
X197.353Y-143.463
X197.583Y-146.874
X197.584Y-146.107
X197.584Y-147.327
X197.594Y-148.734
X197.616Y-149.422
X197.723Y-147.727
X197.877Y-149.683
X197.925Y-141.565
X197.933Y-144.42
X198.772Y-141.394
X199.151Y-149.502
X199.352Y-150.012
X199.479Y-147.259
X199.734Y-150.678
X200.0Y-138.7
X200.0Y-157.3
X200.02Y-142.552
X200.796Y-155.292
X201.575Y-142.0
X201.824Y-154.396
X201.834Y-155.368
X202.635Y-154.816
X202.82Y-142.778
X203.424Y-150.69
X204.0Y-138.7
X204.0Y-157.3
X204.066Y-152.546
X204.15Y-142.386
X204.198Y-148.15
X204.581Y-141.553
X204.863Y-145.234
X206.759Y-141.791
X208.0Y-138.7
X208.0Y-157.3
X208.522Y-149.865
X208.578Y-143.651
X208.612Y-147.2
X208.629Y-146.7
X208.65Y-152.814
X209.063Y-146.134
X209.174Y-144.89
X209.858Y-143.894
X209.924Y-142.5
X210.021Y-152.356
X210.077Y-144.609
X210.399Y-150.156
X210.972Y-143.222
X211.639Y-152.361
X211.933Y-150.12
X212.0Y-138.7
X212.0Y-157.3
X212.044Y-142.024
X213.0Y-150.058
X213.051Y-152.227
X214.574Y-143.116
X215.409Y-146.744
X215.475Y-147.625
X215.847Y-146.2
X216.0Y-138.7
X216.241Y-143.123
X216.294Y-144.276
X216.485Y-152.076
X216.664Y-143.913
X217.765Y-148.405
X218.006Y-142.17
X219.278Y-148.425
X220.0Y-138.7
X220.218Y-148.025
X221.035Y-147.575
X221.89Y-152.888
X222.86Y-148.915
X223.02Y-151.02
X223.385Y-142.387
X224.0Y-138.7
X224.103Y-142.972
X224.341Y-142.542
X225.128Y-148.536
X225.278Y-149.0
X226.096Y-149.456
X227.224Y-150.65
X227.373Y-148.575
X227.472Y-146.046
X227.566Y-154.524
X227.914Y-141.159
X227.952Y-144.126
X228.0Y-138.7
X228.405Y-154.649
X228.589Y-146.052
X229.296Y-152.351
X229.578Y-151.95
X229.94Y-146.052
X230.105Y-150.39
X230.176Y-141.159
X230.708Y-154.744
X230.795Y-153.952
X231.04Y-153.552
X231.378Y-146.182
X231.999Y-154.758
X232.0Y-138.7
X232.0Y-157.3
X232.227Y-152.35
X232.75Y-146.901
X232.93Y-141.415
X233.027Y-147.451
X233.065Y-154.461
X233.094Y-151.87
X233.102Y-152.35
X233.563Y-153.381
X233.69Y-145.2
X234.384Y-155.764
X234.43Y-155.173
X234.958Y-146.05
X235.02Y-152.228
X235.032Y-150.019
X235.035Y-149.366
X235.085Y-139.841
X235.218Y-148.847
X235.259Y-150.788
X236.0Y-138.7
X236.0Y-157.3
X236.691Y-154.774
X237.012Y-148.28
X237.204Y-153.254
X237.212Y-150.05
X237.212Y-152.63
X237.524Y-151.238
X237.586Y-147.208
X237.61Y-155.346
X238.619Y-155.3
X239.339Y-147.378
X239.992Y-155.134
X240.0Y-138.7
X240.0Y-157.3
X240.865Y-141.027
X241.363Y-147.65
X241.62Y-141.035
X242.15Y-141.038
X242.56Y-154.58
X243.27Y-147.718
X243.312Y-142.187
X243.334Y-142.539
X243.519Y-141.47
X243.878Y-141.47
X243.946Y-144.89
X244.0Y-138.7
X244.0Y-157.3
X244.02Y-154.58
X244.038Y-152.874
X244.067Y-141.911
X244.256Y-141.47
X244.648Y-141.465
X245.11Y-141.482
X245.185Y-148.546
X245.327Y-153.014
X245.715Y-141.188
X246.029Y-151.567
X246.15Y-141.124
X246.619Y-151.73
X246.653Y-151.128
X247.01Y-154.871
X247.044Y-150.838
X247.269Y-141.464
X247.453Y-149.871
X247.49Y-152.586
X247.612Y-149.289
X247.65Y-141.563
X247.665Y-154.84
X248.0Y-138.7
X248.0Y-157.3
X248.171Y-139.271
X248.366Y-141.028
X248.858Y-141.028
X249.048Y-138.984
X249.664Y-141.027
X249.983Y-153.636
X250.15Y-141.038
X250.65Y-141.041
X251.879Y-149.304
X252.0Y-138.7
X252.0Y-157.3
X252.608Y-140.056
X253.983Y-152.525
X254.228Y-149.865
X254.43Y-150.788
X254.43Y-151.875
X254.621Y-153.175
X254.621Y-153.825
X255.494Y-156.214
X256.0Y-138.7
X256.0Y-157.3
X256.928Y-154.84
X256.979Y-151.109
X257.065Y-148.622
X261.0Y-145.4
X261.0Y-150.6
X264.0Y-145.4
X264.0Y-150.6
X267.0Y-145.4
X267.0Y-150.6
X270.0Y-145.4
X270.0Y-150.6
X273.0Y-145.4
X273.0Y-150.6
X276.0Y-145.4
X276.0Y-150.6
X279.0Y-145.4
X279.0Y-150.6
X282.0Y-145.4
X282.0Y-150.6
X285.0Y-145.4
X285.0Y-150.6
X288.0Y-145.4
X288.0Y-150.6
X291.492Y-143.179
X292.0Y-140.4
X292.0Y-155.6
X293.801Y-152.41
X294.853Y-146.34
X294.936Y-142.916
X296.0Y-140.4
X296.0Y-155.6
X296.1Y-151.995
X296.75Y-146.25
X296.75Y-149.75
X297.25Y-150.678
X297.947Y-151.988
X298.891Y-146.173
X299.75Y-146.25
X299.75Y-149.75
X299.75Y-150.68
X300.0Y-140.4
X300.0Y-155.6
X300.005Y-145.495
X300.695Y-146.134
X300.986Y-142.516
X304.0Y-140.4
X304.0Y-155.6
M30
