%TF.GenerationSoftware,KiCad,Pcbnew,10.0.4*%
%TF.CreationDate,2026-08-31T15:56:00+02:00*%
%TF.ProjectId,smartbag_core,736d6172-7462-4616-975f-636f72652e6b,rev?*%
%TF.SameCoordinates,Original*%
%TF.FileFunction,Paste,Top*%
%TF.FilePolarity,Positive*%
%FSLAX46Y46*%
G04 Gerber Fmt 4.6, Leading zero omitted, Abs format (unit mm)*
G04 Created by KiCad (PCBNEW 10.0.4) date 2026-08-31 15:56:00*
%MOMM*%
%LPD*%
G01*
G04 APERTURE LIST*
G04 Aperture macros list*
%AMRoundRect*
0 Rectangle with rounded corners*
0 $1 Rounding radius*
0 $2 $3 $4 $5 $6 $7 $8 $9 X,Y pos of 4 corners*
0 Add a 4 corners polygon primitive as box body*
4,1,4,$2,$3,$4,$5,$6,$7,$8,$9,$2,$3,0*
0 Add four circle primitives for the rounded corners*
1,1,$1+$1,$2,$3*
1,1,$1+$1,$4,$5*
1,1,$1+$1,$6,$7*
1,1,$1+$1,$8,$9*
0 Add four rect primitives between the rounded corners*
20,1,$1+$1,$2,$3,$4,$5,0*
20,1,$1+$1,$4,$5,$6,$7,0*
20,1,$1+$1,$6,$7,$8,$9,0*
20,1,$1+$1,$8,$9,$2,$3,0*%
G04 Aperture macros list end*
%ADD10RoundRect,0.135000X-0.135000X-0.185000X0.135000X-0.185000X0.135000X0.185000X-0.135000X0.185000X0*%
%ADD11RoundRect,0.140000X-0.140000X-0.170000X0.140000X-0.170000X0.140000X0.170000X-0.140000X0.170000X0*%
%ADD12R,0.675000X0.250000*%
%ADD13R,0.250000X0.675000*%
%ADD14RoundRect,0.218750X-0.218750X-0.256250X0.218750X-0.256250X0.218750X0.256250X-0.218750X0.256250X0*%
%ADD15RoundRect,0.250000X-0.370000X-0.370000X0.370000X-0.370000X0.370000X0.370000X-0.370000X0.370000X0*%
%ADD16RoundRect,0.050000X-0.350000X-0.050000X0.350000X-0.050000X0.350000X0.050000X-0.350000X0.050000X0*%
%ADD17RoundRect,0.050000X-0.050000X-0.350000X0.050000X-0.350000X0.050000X0.350000X-0.050000X0.350000X0*%
%ADD18RoundRect,0.100000X-0.850000X-0.100000X0.850000X-0.100000X0.850000X0.100000X-0.850000X0.100000X0*%
%ADD19RoundRect,0.150000X-0.587500X-0.150000X0.587500X-0.150000X0.587500X0.150000X-0.587500X0.150000X0*%
%ADD20RoundRect,0.150000X-0.150000X-0.625000X0.150000X-0.625000X0.150000X0.625000X-0.150000X0.625000X0*%
%ADD21RoundRect,0.250000X-0.350000X-0.650000X0.350000X-0.650000X0.350000X0.650000X-0.350000X0.650000X0*%
%ADD22RoundRect,0.150000X-0.150000X-0.400000X0.150000X-0.400000X0.150000X0.400000X-0.150000X0.400000X0*%
%ADD23RoundRect,0.147500X-0.147500X-0.172500X0.147500X-0.172500X0.147500X0.172500X-0.147500X0.172500X0*%
%ADD24R,0.300000X1.300000*%
%ADD25R,1.800000X2.200000*%
%ADD26RoundRect,0.250000X-0.350000X-0.850000X0.350000X-0.850000X0.350000X0.850000X-0.350000X0.850000X0*%
%ADD27RoundRect,0.200000X-0.250000X-0.200000X0.250000X-0.200000X0.250000X0.200000X-0.250000X0.200000X0*%
%ADD28C,0.250000*%
%ADD29RoundRect,0.100000X-0.637500X-0.100000X0.637500X-0.100000X0.637500X0.100000X-0.637500X0.100000X0*%
%ADD30RoundRect,0.232500X-0.232500X-0.232500X0.232500X-0.232500X0.232500X0.232500X-0.232500X0.232500X0*%
%ADD31RoundRect,0.062500X-0.375000X-0.062500X0.375000X-0.062500X0.375000X0.062500X-0.375000X0.062500X0*%
%ADD32RoundRect,0.062500X-0.062500X-0.375000X0.062500X-0.375000X0.062500X0.375000X-0.062500X0.375000X0*%
G04 APERTURE END LIST*
D10*
%TO.C,R40*%
X227640000Y-146600000D03*
X228660000Y-146600000D03*
%TD*%
D11*
%TO.C,C46*%
X220520000Y-142500000D03*
X221480000Y-142500000D03*
%TD*%
%TO.C,C8*%
X199020000Y-146800000D03*
X199980000Y-146800000D03*
%TD*%
%TO.C,C42*%
X212520000Y-142500000D03*
X213480000Y-142500000D03*
%TD*%
%TO.C,C22*%
X122520000Y-153000000D03*
X123480000Y-153000000D03*
%TD*%
%TO.C,C24*%
X124520000Y-142500000D03*
X125480000Y-142500000D03*
%TD*%
D10*
%TO.C,R61*%
X230290000Y-155350000D03*
X231310000Y-155350000D03*
%TD*%
%TO.C,R43*%
X234890000Y-146600000D03*
X235910000Y-146600000D03*
%TD*%
D11*
%TO.C,C61*%
X228520000Y-141500000D03*
X229480000Y-141500000D03*
%TD*%
D12*
%TO.C,U4*%
X203387500Y-141250000D03*
X203387500Y-141750000D03*
X203387500Y-142250000D03*
X203387500Y-142750000D03*
D13*
X204150000Y-143012500D03*
X204650000Y-143012500D03*
X205150000Y-143012500D03*
D12*
X205912500Y-142750000D03*
X205912500Y-142250000D03*
X205912500Y-141750000D03*
X205912500Y-141250000D03*
D13*
X205150000Y-140987500D03*
X204650000Y-140987500D03*
X204150000Y-140987500D03*
%TD*%
D11*
%TO.C,C43*%
X214520000Y-142500000D03*
X215480000Y-142500000D03*
%TD*%
D10*
%TO.C,R67*%
X244440000Y-155000000D03*
X245460000Y-155000000D03*
%TD*%
D11*
%TO.C,C11*%
X172520000Y-148150000D03*
X173480000Y-148150000D03*
%TD*%
D14*
%TO.C,L1*%
X187212500Y-153350000D03*
X188787500Y-153350000D03*
%TD*%
D15*
%TO.C,U1*%
X192470000Y-146470000D03*
X192470000Y-148000000D03*
X192470000Y-149530000D03*
X194000000Y-146470000D03*
X194000000Y-148000000D03*
X194000000Y-149530000D03*
X195530000Y-146470000D03*
X195530000Y-148000000D03*
X195530000Y-149530000D03*
D16*
X191050000Y-145800000D03*
X191050000Y-146200000D03*
X191050000Y-146600000D03*
X191050000Y-147000000D03*
X191050000Y-147400000D03*
X191050000Y-147800000D03*
X191050000Y-148200000D03*
X191050000Y-148600000D03*
X191050000Y-149000000D03*
X191050000Y-149400000D03*
X191050000Y-149800000D03*
X191050000Y-150200000D03*
D17*
X191800000Y-150950000D03*
X192200000Y-150950000D03*
X192600000Y-150950000D03*
X193000000Y-150950000D03*
X193400000Y-150950000D03*
X193800000Y-150950000D03*
X194200000Y-150950000D03*
X194600000Y-150950000D03*
X195000000Y-150950000D03*
X195400000Y-150950000D03*
X195800000Y-150950000D03*
X196200000Y-150950000D03*
D16*
X196950000Y-150200000D03*
X196950000Y-149800000D03*
X196950000Y-149400000D03*
X196950000Y-149000000D03*
X196950000Y-148600000D03*
X196950000Y-148200000D03*
X196950000Y-147800000D03*
X196950000Y-147400000D03*
X196950000Y-147000000D03*
X196950000Y-146600000D03*
X196950000Y-146200000D03*
X196950000Y-145800000D03*
D17*
X196200000Y-145050000D03*
X195800000Y-145050000D03*
X195400000Y-145050000D03*
X195000000Y-145050000D03*
X194600000Y-145050000D03*
X194200000Y-145050000D03*
X193800000Y-145050000D03*
X193400000Y-145050000D03*
X193000000Y-145050000D03*
X192600000Y-145050000D03*
X192200000Y-145050000D03*
X191800000Y-145050000D03*
%TD*%
D10*
%TO.C,R60*%
X227640000Y-155700000D03*
X228660000Y-155700000D03*
%TD*%
D11*
%TO.C,C34*%
X294520000Y-142500000D03*
X295480000Y-142500000D03*
%TD*%
D18*
%TO.C,U7*%
X248800000Y-148625000D03*
X248800000Y-149275000D03*
X248800000Y-149925000D03*
X248800000Y-150575000D03*
X248800000Y-151225000D03*
X248800000Y-151875000D03*
X248800000Y-152525000D03*
X248800000Y-153175000D03*
X248800000Y-153825000D03*
X248800000Y-154475000D03*
X248800000Y-155125000D03*
X248800000Y-155775000D03*
X255800000Y-155775000D03*
X255800000Y-155125000D03*
X255800000Y-154475000D03*
X255800000Y-153825000D03*
X255800000Y-153175000D03*
X255800000Y-152525000D03*
X255800000Y-151875000D03*
X255800000Y-151225000D03*
X255800000Y-150575000D03*
X255800000Y-149925000D03*
X255800000Y-149275000D03*
X255800000Y-148625000D03*
%TD*%
D11*
%TO.C,C45*%
X218520000Y-142500000D03*
X219480000Y-142500000D03*
%TD*%
%TO.C,C51*%
X204520000Y-153000000D03*
X205480000Y-153000000D03*
%TD*%
D10*
%TO.C,R12*%
X233140000Y-144500000D03*
X234160000Y-144500000D03*
%TD*%
%TO.C,R1*%
X224840000Y-142500000D03*
X225860000Y-142500000D03*
%TD*%
%TO.C,R2*%
X216240000Y-148500000D03*
X217260000Y-148500000D03*
%TD*%
D19*
%TO.C,U5*%
X184062500Y-149200000D03*
X184062500Y-151100000D03*
X185937500Y-150150000D03*
%TD*%
D11*
%TO.C,C20*%
X116520000Y-153000000D03*
X117480000Y-153000000D03*
%TD*%
%TO.C,C1*%
X188020000Y-145700000D03*
X188980000Y-145700000D03*
%TD*%
%TO.C,C32*%
X296520000Y-153000000D03*
X297480000Y-153000000D03*
%TD*%
D20*
%TO.C,J5*%
X173100000Y-141000000D03*
X174100000Y-141000000D03*
X175100000Y-141000000D03*
X176100000Y-141000000D03*
D21*
X171800000Y-144875000D03*
X177400000Y-144875000D03*
%TD*%
D10*
%TO.C,R71*%
X234890000Y-154800000D03*
X235910000Y-154800000D03*
%TD*%
%TO.C,R65*%
X239490000Y-156050000D03*
X240510000Y-156050000D03*
%TD*%
%TO.C,R69*%
X230290000Y-154100000D03*
X231310000Y-154100000D03*
%TD*%
%TO.C,R3*%
X218590000Y-148500000D03*
X219610000Y-148500000D03*
%TD*%
%TO.C,R68*%
X227990000Y-154100000D03*
X229010000Y-154100000D03*
%TD*%
D11*
%TO.C,C40*%
X208170000Y-142850000D03*
X209130000Y-142850000D03*
%TD*%
D10*
%TO.C,R5*%
X223290000Y-148500000D03*
X224310000Y-148500000D03*
%TD*%
%TO.C,R7*%
X197490000Y-142000000D03*
X198510000Y-142000000D03*
%TD*%
D11*
%TO.C,C7*%
X194520000Y-153000000D03*
X195480000Y-153000000D03*
%TD*%
D10*
%TO.C,R64*%
X237190000Y-156050000D03*
X238210000Y-156050000D03*
%TD*%
D11*
%TO.C,C2*%
X188020000Y-147350000D03*
X188980000Y-147350000D03*
%TD*%
D14*
%TO.C,L3*%
X207862500Y-153000000D03*
X209437500Y-153000000D03*
%TD*%
D10*
%TO.C,R6*%
X225640000Y-148500000D03*
X226660000Y-148500000D03*
%TD*%
%TO.C,R41*%
X229940000Y-146600000D03*
X230960000Y-146600000D03*
%TD*%
D11*
%TO.C,C44*%
X216520000Y-142500000D03*
X217480000Y-142500000D03*
%TD*%
%TO.C,C5*%
X192020000Y-143000000D03*
X192980000Y-143000000D03*
%TD*%
D10*
%TO.C,R73*%
X239490000Y-154800000D03*
X240510000Y-154800000D03*
%TD*%
D14*
%TO.C,L4*%
X211062500Y-153000000D03*
X212637500Y-153000000D03*
%TD*%
D10*
%TO.C,R44*%
X237190000Y-147650000D03*
X238210000Y-147650000D03*
%TD*%
%TO.C,R66*%
X242140000Y-155000000D03*
X243160000Y-155000000D03*
%TD*%
D11*
%TO.C,C6*%
X167820000Y-152000000D03*
X168780000Y-152000000D03*
%TD*%
D22*
%TO.C,Y4*%
X187650000Y-143950000D03*
X189050000Y-143950000D03*
%TD*%
D10*
%TO.C,R42*%
X232240000Y-146600000D03*
X233260000Y-146600000D03*
%TD*%
D20*
%TO.C,J2*%
X217100000Y-151720000D03*
X218100000Y-151720000D03*
D21*
X215800000Y-155595000D03*
X219400000Y-155595000D03*
%TD*%
D19*
%TO.C,Q1*%
X179912500Y-144050000D03*
X179912500Y-145950000D03*
X181787500Y-145000000D03*
%TD*%
D23*
%TO.C,L2*%
X171065000Y-146950000D03*
X172035000Y-146950000D03*
%TD*%
D11*
%TO.C,C52*%
X182720000Y-153000000D03*
X183680000Y-153000000D03*
%TD*%
D10*
%TO.C,R10*%
X228490000Y-144500000D03*
X229510000Y-144500000D03*
%TD*%
D24*
%TO.C,J1*%
X173250000Y-150250000D03*
X173750000Y-150250000D03*
X174250000Y-150250000D03*
X174750000Y-150250000D03*
X175250000Y-150250000D03*
X175750000Y-150250000D03*
X176250000Y-150250000D03*
X176750000Y-150250000D03*
X177250000Y-150250000D03*
X177750000Y-150250000D03*
X178250000Y-150250000D03*
X178750000Y-150250000D03*
D25*
X171350000Y-153500000D03*
X180650000Y-153500000D03*
%TD*%
D11*
%TO.C,C50*%
X207370000Y-141650000D03*
X208330000Y-141650000D03*
%TD*%
D10*
%TO.C,R74*%
X243540000Y-152700000D03*
X244560000Y-152700000D03*
%TD*%
%TO.C,R70*%
X232590000Y-154100000D03*
X233610000Y-154100000D03*
%TD*%
D26*
%TO.C,AE1*%
X163860000Y-147300000D03*
X169560000Y-147300000D03*
%TD*%
D10*
%TO.C,R13*%
X183540000Y-145000000D03*
X184560000Y-145000000D03*
%TD*%
D27*
%TO.C,Y3*%
X290800000Y-143050000D03*
X292200000Y-143050000D03*
X292200000Y-141950000D03*
X290800000Y-141950000D03*
%TD*%
D10*
%TO.C,R4*%
X220940000Y-148500000D03*
X221960000Y-148500000D03*
%TD*%
D28*
%TO.C,U2*%
X124250000Y-146250000D03*
X124250000Y-146750000D03*
X124250000Y-147250000D03*
X124250000Y-147750000D03*
X124250000Y-148250000D03*
X124250000Y-148750000D03*
X124250000Y-149250000D03*
X124250000Y-149750000D03*
X123750000Y-145750000D03*
X123750000Y-146250000D03*
X123750000Y-149750000D03*
X123750000Y-150250000D03*
X123250000Y-145750000D03*
X123250000Y-146250000D03*
X123250000Y-149750000D03*
X123250000Y-150250000D03*
X122750000Y-145750000D03*
X122750000Y-146250000D03*
X122750000Y-149750000D03*
X122750000Y-150250000D03*
X122250000Y-145750000D03*
X122250000Y-146250000D03*
X122250000Y-149750000D03*
X122250000Y-150250000D03*
X121750000Y-145750000D03*
X121750000Y-146250000D03*
X121750000Y-149750000D03*
X121750000Y-150250000D03*
X121250000Y-145750000D03*
X121250000Y-150250000D03*
X120750000Y-145750000D03*
X120750000Y-146250000D03*
X120750000Y-149750000D03*
X120750000Y-150250000D03*
X120250000Y-145750000D03*
X120250000Y-146250000D03*
X120250000Y-146750000D03*
X120250000Y-147750000D03*
X120250000Y-148250000D03*
X120250000Y-149250000D03*
X120250000Y-149750000D03*
X120250000Y-150250000D03*
X119750000Y-146250000D03*
X119750000Y-146750000D03*
X119750000Y-147250000D03*
X119750000Y-147750000D03*
X119750000Y-148250000D03*
X119750000Y-148750000D03*
X119750000Y-149250000D03*
X119750000Y-149750000D03*
%TD*%
D10*
%TO.C,R63*%
X234890000Y-156050000D03*
X235910000Y-156050000D03*
%TD*%
D11*
%TO.C,C30*%
X302520000Y-153000000D03*
X303480000Y-153000000D03*
%TD*%
D27*
%TO.C,Y1*%
X183950000Y-142550000D03*
X185350000Y-142550000D03*
X185350000Y-141450000D03*
X183950000Y-141450000D03*
%TD*%
D11*
%TO.C,C3*%
X196520000Y-153000000D03*
X197480000Y-153000000D03*
%TD*%
D10*
%TO.C,R62*%
X232590000Y-155350000D03*
X233610000Y-155350000D03*
%TD*%
D11*
%TO.C,C63*%
X233520000Y-141500000D03*
X234480000Y-141500000D03*
%TD*%
%TO.C,C35*%
X301520000Y-142500000D03*
X302480000Y-142500000D03*
%TD*%
%TO.C,C4*%
X188020000Y-149200000D03*
X188980000Y-149200000D03*
%TD*%
D28*
%TO.C,U6*%
X295750000Y-149750000D03*
X295750000Y-149250000D03*
X295750000Y-148750000D03*
X295750000Y-148250000D03*
X295750000Y-147750000D03*
X295750000Y-147250000D03*
X295750000Y-146750000D03*
X295750000Y-146250000D03*
X296250000Y-150250000D03*
X296250000Y-149750000D03*
X296250000Y-146250000D03*
X296250000Y-145750000D03*
X296750000Y-150250000D03*
X296750000Y-149750000D03*
X296750000Y-146250000D03*
X296750000Y-145750000D03*
X297250000Y-150250000D03*
X297250000Y-149750000D03*
X297250000Y-146250000D03*
X297250000Y-145750000D03*
X297750000Y-150250000D03*
X297750000Y-149750000D03*
X297750000Y-146250000D03*
X297750000Y-145750000D03*
X298250000Y-150250000D03*
X298250000Y-149750000D03*
X298250000Y-146250000D03*
X298250000Y-145750000D03*
X298750000Y-150250000D03*
X298750000Y-145750000D03*
X299250000Y-150250000D03*
X299250000Y-149750000D03*
X299250000Y-146250000D03*
X299250000Y-145750000D03*
X299750000Y-150250000D03*
X299750000Y-149750000D03*
X299750000Y-149250000D03*
X299750000Y-148250000D03*
X299750000Y-147750000D03*
X299750000Y-146750000D03*
X299750000Y-146250000D03*
X299750000Y-145750000D03*
X300250000Y-149750000D03*
X300250000Y-149250000D03*
X300250000Y-148750000D03*
X300250000Y-148250000D03*
X300250000Y-147750000D03*
X300250000Y-147250000D03*
X300250000Y-146750000D03*
X300250000Y-146250000D03*
%TD*%
D11*
%TO.C,C33*%
X293520000Y-153000000D03*
X294480000Y-153000000D03*
%TD*%
%TO.C,C23*%
X125520000Y-153000000D03*
X126480000Y-153000000D03*
%TD*%
D20*
%TO.C,J3*%
X223600000Y-151020000D03*
X224600000Y-151020000D03*
D21*
X222300000Y-154895000D03*
X225900000Y-154895000D03*
%TD*%
D24*
%TO.C,J4*%
X240650000Y-140150000D03*
X241150000Y-140150000D03*
X241650000Y-140150000D03*
X242150000Y-140150000D03*
X242650000Y-140150000D03*
X243150000Y-140150000D03*
X243650000Y-140150000D03*
X244150000Y-140150000D03*
X244650000Y-140150000D03*
X245150000Y-140150000D03*
X245650000Y-140150000D03*
X246150000Y-140150000D03*
X246650000Y-140150000D03*
X247150000Y-140150000D03*
X247650000Y-140150000D03*
X248150000Y-140150000D03*
X248650000Y-140150000D03*
X249150000Y-140150000D03*
X249650000Y-140150000D03*
X250150000Y-140150000D03*
X250650000Y-140150000D03*
X251150000Y-140150000D03*
X251650000Y-140150000D03*
X252150000Y-140150000D03*
D25*
X238750000Y-143400000D03*
X254050000Y-143400000D03*
%TD*%
D11*
%TO.C,C62*%
X231020000Y-141500000D03*
X231980000Y-141500000D03*
%TD*%
D10*
%TO.C,RT1*%
X222490000Y-142500000D03*
X223510000Y-142500000D03*
%TD*%
D11*
%TO.C,C41*%
X210520000Y-142500000D03*
X211480000Y-142500000D03*
%TD*%
D29*
%TO.C,U9*%
X236237500Y-149400000D03*
X236237500Y-150050000D03*
X236237500Y-150700000D03*
X236237500Y-151350000D03*
X236237500Y-152000000D03*
X236237500Y-152650000D03*
X236237500Y-153300000D03*
X241962500Y-153300000D03*
X241962500Y-152650000D03*
X241962500Y-152000000D03*
X241962500Y-151350000D03*
X241962500Y-150700000D03*
X241962500Y-150050000D03*
X241962500Y-149400000D03*
%TD*%
D10*
%TO.C,R11*%
X230990000Y-144500000D03*
X232010000Y-144500000D03*
%TD*%
%TO.C,R45*%
X239840000Y-147650000D03*
X240860000Y-147650000D03*
%TD*%
%TO.C,R72*%
X237190000Y-154800000D03*
X238210000Y-154800000D03*
%TD*%
D27*
%TO.C,Y2*%
X127800000Y-143050000D03*
X129200000Y-143050000D03*
X129200000Y-141950000D03*
X127800000Y-141950000D03*
%TD*%
D11*
%TO.C,C31*%
X299520000Y-153000000D03*
X300480000Y-153000000D03*
%TD*%
D10*
%TO.C,R8*%
X199990000Y-142000000D03*
X201010000Y-142000000D03*
%TD*%
D11*
%TO.C,C60*%
X235670000Y-145200000D03*
X236630000Y-145200000D03*
%TD*%
%TO.C,C21*%
X119520000Y-153000000D03*
X120480000Y-153000000D03*
%TD*%
D10*
%TO.C,R75*%
X245840000Y-152700000D03*
X246860000Y-152700000D03*
%TD*%
D11*
%TO.C,C25*%
X117520000Y-142500000D03*
X118480000Y-142500000D03*
%TD*%
D29*
%TO.C,U8*%
X228337500Y-148700000D03*
X228337500Y-149350000D03*
X228337500Y-150000000D03*
X228337500Y-150650000D03*
X228337500Y-151300000D03*
X228337500Y-151950000D03*
X228337500Y-152600000D03*
X234062500Y-152600000D03*
X234062500Y-151950000D03*
X234062500Y-151300000D03*
X234062500Y-150650000D03*
X234062500Y-150000000D03*
X234062500Y-149350000D03*
X234062500Y-148700000D03*
%TD*%
D30*
%TO.C,U3*%
X211100000Y-145800000D03*
X211100000Y-146950000D03*
X211100000Y-148100000D03*
X212250000Y-145800000D03*
X212250000Y-146950000D03*
X212250000Y-148100000D03*
X213400000Y-145800000D03*
X213400000Y-146950000D03*
X213400000Y-148100000D03*
D31*
X209812500Y-145200000D03*
X209812500Y-145700000D03*
X209812500Y-146200000D03*
X209812500Y-146700000D03*
X209812500Y-147200000D03*
X209812500Y-147700000D03*
X209812500Y-148200000D03*
X209812500Y-148700000D03*
D32*
X210500000Y-149387500D03*
X211000000Y-149387500D03*
X211500000Y-149387500D03*
X212000000Y-149387500D03*
X212500000Y-149387500D03*
X213000000Y-149387500D03*
X213500000Y-149387500D03*
X214000000Y-149387500D03*
D31*
X214687500Y-148700000D03*
X214687500Y-148200000D03*
X214687500Y-147700000D03*
X214687500Y-147200000D03*
X214687500Y-146700000D03*
X214687500Y-146200000D03*
X214687500Y-145700000D03*
X214687500Y-145200000D03*
D32*
X214000000Y-144512500D03*
X213500000Y-144512500D03*
X213000000Y-144512500D03*
X212500000Y-144512500D03*
X212000000Y-144512500D03*
X211500000Y-144512500D03*
X211000000Y-144512500D03*
X210500000Y-144512500D03*
%TD*%
M02*
