M48
; DRILL file KiCad 10.0.4 date 2026-09-01T16:55:13
; FORMAT={-:-/ absolute / metric / decimal}
; #@! TF.CreationDate,2026-09-01T16:55:13+02:00
; #@! TF.GenerationSoftware,Kicad,Pcbnew,10.0.4
; #@! TF.FileFunction,Plated,1,4,PTH
FMAT,2
METRIC
; #@! TA.AperFunction,Plated,PTH,ViaDrill
T1C0.100
; #@! TA.AperFunction,Plated,PTH,ComponentDrill
T2C0.750
%
G90
G05
T1
X113.401Y-153.597
X114.008Y-142.163
X115.118Y-142.667
X115.124Y-150.035
X115.413Y-151.109
X116.0Y-140.4
X116.0Y-155.6
X116.325Y-149.75
X116.431Y-153.597
X116.822Y-145.641
X117.005Y-148.505
X117.25Y-146.25
X117.25Y-146.75
X117.25Y-147.75
X117.25Y-148.25
X117.25Y-149.25
X117.25Y-149.75
X117.559Y-144.881
X117.701Y-147.235
X117.75Y-146.25
X117.75Y-149.75
X118.75Y-146.25
X118.75Y-149.75
X118.913Y-149.018
X118.966Y-152.353
X119.25Y-146.25
X119.25Y-149.75
X119.321Y-144.5
X119.418Y-153.597
X119.52Y-150.602
X119.75Y-145.301
X119.75Y-146.25
X119.75Y-149.75
X119.86Y-151.131
X120.0Y-140.4
X120.0Y-155.6
X120.25Y-146.25
X120.25Y-149.75
X120.75Y-146.25
X120.75Y-149.75
X123.021Y-141.327
X128.0Y-140.4
X128.0Y-155.6
X134.0Y-145.4
X134.0Y-150.6
X137.0Y-145.4
X137.0Y-150.6
X140.0Y-145.4
X140.0Y-150.6
X143.0Y-145.4
X143.0Y-150.6
X146.0Y-145.4
X146.0Y-150.6
X149.0Y-145.4
X149.0Y-150.6
X152.0Y-145.4
X152.0Y-150.6
X153.248Y-148.621
X155.0Y-145.4
X155.0Y-150.6
X158.0Y-145.4
X158.0Y-150.6
X160.031Y-152.353
X161.0Y-145.4
X161.0Y-150.6
X161.783Y-147.566
X163.834Y-148.575
X164.0Y-138.7
X166.903Y-141.15
X167.07Y-149.371
X167.25Y-151.136
X167.577Y-149.364
X167.75Y-151.186
X168.0Y-138.7
X168.25Y-151.281
X168.679Y-151.143
X169.172Y-151.13
X169.276Y-142.011
X169.703Y-151.251
X170.276Y-142.007
X170.561Y-149.367
X170.75Y-151.152
X171.398Y-151.437
X172.0Y-138.7
X172.077Y-149.272
X176.0Y-138.7
X176.0Y-157.3
X180.0Y-138.7
X180.0Y-157.3
X181.851Y-144.05
X182.067Y-144.957
X183.321Y-149.945
X184.0Y-138.7
X184.0Y-157.3
X184.64Y-142.927
X185.727Y-151.882
X186.222Y-153.594
X187.51Y-147.378
X187.827Y-152.308
X187.974Y-146.243
X188.0Y-138.7
X188.0Y-157.3
X188.02Y-149.2
X188.26Y-142.019
X188.753Y-151.563
X189.257Y-142.706
X189.904Y-153.999
X190.071Y-148.416
X190.456Y-144.857
X190.7Y-146.2
X190.7Y-146.6
X190.7Y-147.0
X190.7Y-147.4
X190.7Y-147.8
X190.7Y-148.2
X190.7Y-148.6
X190.7Y-149.0
X190.7Y-149.4
X190.7Y-149.8
X190.7Y-150.2
X191.39Y-151.347
X191.8Y-151.3
X192.0Y-138.7
X192.0Y-157.3
X192.2Y-151.3
X192.6Y-144.7
X192.6Y-151.3
X193.0Y-144.7
X193.0Y-151.3
X193.026Y-152.266
X193.31Y-145.734
X193.4Y-151.3
X193.8Y-144.7
X193.8Y-151.3
X194.2Y-144.7
X194.2Y-151.3
X194.444Y-152.339
X194.6Y-151.3
X194.937Y-143.505
X195.0Y-144.7
X195.0Y-151.3
X195.29Y-144.007
X195.4Y-144.7
X195.521Y-144.284
X195.8Y-144.7
X195.8Y-151.3
X196.0Y-138.7
X196.0Y-157.3
X196.2Y-144.7
X196.2Y-151.3
X197.151Y-145.034
X197.3Y-146.2
X197.3Y-146.6
X197.3Y-147.0
X197.3Y-147.8
X197.3Y-148.2
X197.3Y-149.0
X197.3Y-149.4
X197.3Y-149.8
X197.3Y-150.2
X197.756Y-147.454
X197.867Y-141.542
X198.527Y-147.637
X198.798Y-146.208
X199.039Y-155.832
X199.239Y-152.339
X199.3Y-143.45
X199.6Y-154.334
X200.0Y-138.7
X200.0Y-157.3
X200.5Y-146.95
X200.569Y-154.298
X201.303Y-156.945
X201.586Y-142.051
X202.91Y-151.988
X203.311Y-157.22
X203.582Y-140.656
X203.733Y-143.175
X204.0Y-138.7
X204.0Y-157.3
X204.478Y-151.459
X204.683Y-140.422
X205.011Y-152.509
X207.012Y-142.29
X207.507Y-153.786
X208.0Y-138.7
X208.0Y-157.3
X209.112Y-146.25
X209.112Y-147.25
X209.112Y-147.75
X209.112Y-148.25
X210.15Y-145.212
X210.162Y-143.062
X210.273Y-152.149
X210.65Y-151.173
X210.698Y-143.629
X210.996Y-142.024
X211.25Y-153.765
X211.381Y-143.105
X211.65Y-145.212
X211.65Y-150.788
X212.0Y-138.7
X212.0Y-157.3
X212.15Y-145.212
X212.15Y-150.788
X212.169Y-143.085
X212.498Y-153.759
X213.15Y-150.788
X213.65Y-145.212
X213.65Y-150.788
X214.009Y-145.451
X214.688Y-147.25
X214.688Y-147.75
X214.688Y-148.25
X214.688Y-148.75
X214.688Y-149.25
X214.688Y-149.75
X214.993Y-142.026
X215.007Y-146.322
X216.0Y-138.7
X216.0Y-157.3
X216.015Y-142.062
X216.834Y-147.132
X218.096Y-142.076
X219.126Y-147.021
X220.0Y-138.7
X220.0Y-142.648
X220.0Y-157.3
X221.383Y-147.021
X222.512Y-146.576
X223.827Y-146.873
X224.0Y-138.7
X224.0Y-157.3
X225.815Y-146.295
X226.0Y-141.5
X226.186Y-147.8
X227.499Y-144.451
X227.897Y-141.083
X227.915Y-146.0
X228.0Y-138.7
X228.459Y-145.113
X228.817Y-146.507
X229.087Y-142.483
X229.367Y-140.803
X229.849Y-149.253
X230.239Y-150.198
X230.251Y-141.306
X230.36Y-143.507
X230.873Y-142.763
X232.0Y-138.7
X232.0Y-157.3
X232.446Y-142.403
X232.495Y-151.2
X232.816Y-148.359
X233.182Y-147.5
X233.184Y-144.888
X233.184Y-145.284
X233.186Y-146.585
X233.85Y-146.32
X233.991Y-141.15
X234.625Y-152.022
X235.044Y-149.738
X235.337Y-141.159
X235.816Y-153.063
X236.0Y-138.7
X236.0Y-157.3
X236.705Y-147.05
X237.753Y-149.517
X237.802Y-152.239
X237.803Y-151.109
X237.944Y-139.915
X238.148Y-147.373
X238.697Y-143.859
X238.991Y-154.55
X239.518Y-147.472
X239.603Y-143.948
X239.761Y-148.652
X239.996Y-155.926
X240.0Y-138.7
X240.0Y-157.3
X240.057Y-150.936
X240.167Y-139.915
X240.508Y-150.727
X241.076Y-151.95
X241.197Y-156.909
X241.369Y-150.35
X241.47Y-147.009
X241.536Y-152.353
X241.554Y-151.917
X242.039Y-154.638
X242.51Y-145.952
X242.75Y-147.087
X242.814Y-146.402
X242.877Y-155.074
X242.942Y-140.0
X243.29Y-145.2
X243.486Y-149.698
X243.995Y-151.12
X243.995Y-144.5
X244.0Y-138.7
X244.134Y-154.806
X244.183Y-153.656
X244.383Y-147.378
X244.8Y-155.724
X244.893Y-148.469
X245.348Y-148.962
X245.357Y-139.863
X246.175Y-155.173
X246.561Y-152.512
X246.702Y-139.972
X246.746Y-148.214
X247.033Y-154.329
X247.2Y-156.128
X248.593Y-154.841
X248.712Y-153.625
X248.765Y-138.615
X249.6Y-155.722
X249.741Y-142.04
X250.063Y-148.151
X250.223Y-139.438
X250.758Y-147.093
X250.975Y-143.114
X251.018Y-141.034
X251.03Y-154.686
X251.149Y-141.47
X251.345Y-143.149
X251.446Y-141.027
X251.452Y-154.628
X252.0Y-157.3
X252.037Y-152.59
X252.127Y-141.036
X252.402Y-152.078
X253.1Y-141.041
X253.117Y-139.273
X253.4Y-154.686
X253.6Y-141.032
X254.065Y-152.735
X254.1Y-141.029
X254.62Y-146.435
X254.676Y-141.028
X255.235Y-139.264
X255.641Y-154.686
X255.685Y-141.033
X256.0Y-157.3
X256.132Y-153.629
X256.463Y-141.033
X256.82Y-142.357
X257.067Y-139.268
X257.123Y-148.915
X257.283Y-141.347
X257.637Y-155.722
X257.751Y-141.182
X258.028Y-141.403
X258.335Y-150.228
X258.356Y-141.731
X258.37Y-148.916
X258.579Y-150.481
X259.231Y-139.253
X259.447Y-151.434
X259.777Y-151.84
X259.914Y-156.329
X259.948Y-139.269
X260.27Y-141.424
X261.15Y-148.175
X261.15Y-148.825
X261.15Y-149.475
X261.15Y-150.125
X261.15Y-150.775
X261.15Y-151.425
X261.15Y-152.075
X261.15Y-152.725
X261.15Y-153.375
X261.15Y-154.675
X261.228Y-141.027
X261.604Y-156.128
X261.956Y-142.04
X262.544Y-140.57
X264.037Y-146.331
X265.134Y-144.304
X267.0Y-145.4
X267.317Y-152.12
X268.85Y-148.175
X268.85Y-148.825
X268.85Y-149.475
X268.85Y-150.125
X268.85Y-150.775
X268.85Y-151.425
X268.85Y-152.075
X268.85Y-152.725
X268.85Y-153.375
X268.85Y-154.025
X268.85Y-154.675
X268.85Y-155.325
X272.715Y-151.425
X273.0Y-145.4
X273.0Y-150.6
X276.0Y-145.4
X276.0Y-150.6
X279.0Y-145.4
X279.0Y-150.6
X282.0Y-145.4
X282.0Y-150.6
X285.0Y-145.4
X285.0Y-150.6
X288.0Y-145.4
X288.0Y-150.6
X292.0Y-140.4
X292.0Y-155.6
X295.825Y-151.382
X296.0Y-155.6
X296.479Y-153.959
X296.982Y-142.438
X298.387Y-153.5
X299.25Y-146.25
X299.25Y-149.75
X299.75Y-146.25
X299.75Y-149.75
X300.0Y-140.4
X300.0Y-155.6
X300.006Y-142.126
X300.25Y-145.296
X300.25Y-146.25
X300.25Y-149.75
X300.25Y-150.703
X300.75Y-146.25
X300.75Y-149.75
X301.25Y-145.382
X301.25Y-146.25
X301.25Y-149.75
X301.455Y-153.597
X302.25Y-146.25
X302.25Y-149.75
X302.345Y-141.45
X302.615Y-145.385
X302.75Y-146.25
X302.75Y-146.75
X302.75Y-147.75
X302.75Y-148.25
X302.75Y-149.25
X302.75Y-149.75
X302.999Y-145.501
X303.025Y-150.546
X303.628Y-149.803
X303.677Y-146.25
X303.714Y-146.818
X303.841Y-147.586
X304.0Y-140.4
X304.0Y-155.6
X304.065Y-149.132
T2
X218.3Y-149.55
X220.3Y-149.55
X222.3Y-149.55
M30
