%TF.GenerationSoftware,KiCad,Pcbnew,10.0.4*%
%TF.CreationDate,2026-09-02T14:46:28+02:00*%
%TF.ProjectId,smartbag_core,736d6172-7462-4616-975f-636f72652e6b,rev?*%
%TF.SameCoordinates,Original*%
%TF.FileFunction,Legend,Bot*%
%TF.FilePolarity,Positive*%
%FSLAX46Y46*%
G04 Gerber Fmt 4.6, Leading zero omitted, Abs format (unit mm)*
G04 Created by KiCad (PCBNEW 10.0.4) date 2026-09-02 14:46:28*
%MOMM*%
%LPD*%
G01*
G04 APERTURE LIST*
G04 Aperture macros list*
%AMRoundRect*
0 Rectangle with rounded corners*
0 $1 Rounding radius*
0 $2 $3 $4 $5 $6 $7 $8 $9 X,Y pos of 4 corners*
0 Add a 4 corners polygon primitive as box body*
4,1,4,$2,$3,$4,$5,$6,$7,$8,$9,$2,$3,0*
0 Add four circle primitives for the rounded corners*
1,1,$1+$1,$2,$3*
1,1,$1+$1,$4,$5*
1,1,$1+$1,$6,$7*
1,1,$1+$1,$8,$9*
0 Add four rect primitives between the rounded corners*
20,1,$1+$1,$2,$3,$4,$5,0*
20,1,$1+$1,$4,$5,$6,$7,0*
20,1,$1+$1,$6,$7,$8,$9,0*
20,1,$1+$1,$8,$9,$2,$3,0*%
G04 Aperture macros list end*
%ADD10C,0.140000*%
%ADD11C,0.160000*%
%ADD12C,0.240000*%
%ADD13RoundRect,0.250000X-0.350000X-0.625000X0.350000X-0.625000X0.350000X0.625000X-0.350000X0.625000X0*%
%ADD14O,1.200000X1.750000*%
G04 APERTURE END LIST*
D10*
X239693609Y-151909077D02*
X239693609Y-152637648D01*
X239693609Y-152637648D02*
X239650752Y-152723362D01*
X239650752Y-152723362D02*
X239607895Y-152766220D01*
X239607895Y-152766220D02*
X239522180Y-152809077D01*
X239522180Y-152809077D02*
X239350752Y-152809077D01*
X239350752Y-152809077D02*
X239265037Y-152766220D01*
X239265037Y-152766220D02*
X239222180Y-152723362D01*
X239222180Y-152723362D02*
X239179323Y-152637648D01*
X239179323Y-152637648D02*
X239179323Y-151909077D01*
X238279323Y-152809077D02*
X238793609Y-152809077D01*
X238536466Y-152809077D02*
X238536466Y-151909077D01*
X238536466Y-151909077D02*
X238622180Y-152037648D01*
X238622180Y-152037648D02*
X238707895Y-152123362D01*
X238707895Y-152123362D02*
X238793609Y-152166220D01*
X237207895Y-152209077D02*
X237207895Y-152809077D01*
X237207895Y-152294791D02*
X237165038Y-152251934D01*
X237165038Y-152251934D02*
X237079323Y-152209077D01*
X237079323Y-152209077D02*
X236950752Y-152209077D01*
X236950752Y-152209077D02*
X236865038Y-152251934D01*
X236865038Y-152251934D02*
X236822181Y-152337648D01*
X236822181Y-152337648D02*
X236822181Y-152809077D01*
X235879323Y-152809077D02*
X236179323Y-152380505D01*
X236393609Y-152809077D02*
X236393609Y-151909077D01*
X236393609Y-151909077D02*
X236050752Y-151909077D01*
X236050752Y-151909077D02*
X235965037Y-151951934D01*
X235965037Y-151951934D02*
X235922180Y-151994791D01*
X235922180Y-151994791D02*
X235879323Y-152080505D01*
X235879323Y-152080505D02*
X235879323Y-152209077D01*
X235879323Y-152209077D02*
X235922180Y-152294791D01*
X235922180Y-152294791D02*
X235965037Y-152337648D01*
X235965037Y-152337648D02*
X236050752Y-152380505D01*
X236050752Y-152380505D02*
X236393609Y-152380505D01*
X235193609Y-152337648D02*
X235493609Y-152337648D01*
X235493609Y-152809077D02*
X235493609Y-151909077D01*
X235493609Y-151909077D02*
X235065037Y-151909077D01*
X234293608Y-151909077D02*
X234722180Y-151909077D01*
X234722180Y-151909077D02*
X234765037Y-152337648D01*
X234765037Y-152337648D02*
X234722180Y-152294791D01*
X234722180Y-152294791D02*
X234636466Y-152251934D01*
X234636466Y-152251934D02*
X234422180Y-152251934D01*
X234422180Y-152251934D02*
X234336466Y-152294791D01*
X234336466Y-152294791D02*
X234293608Y-152337648D01*
X234293608Y-152337648D02*
X234250751Y-152423362D01*
X234250751Y-152423362D02*
X234250751Y-152637648D01*
X234250751Y-152637648D02*
X234293608Y-152723362D01*
X234293608Y-152723362D02*
X234336466Y-152766220D01*
X234336466Y-152766220D02*
X234422180Y-152809077D01*
X234422180Y-152809077D02*
X234636466Y-152809077D01*
X234636466Y-152809077D02*
X234722180Y-152766220D01*
X234722180Y-152766220D02*
X234765037Y-152723362D01*
X233479323Y-152209077D02*
X233479323Y-152809077D01*
X233693608Y-151866220D02*
X233907894Y-152509077D01*
X233907894Y-152509077D02*
X233350751Y-152509077D01*
X232579322Y-152809077D02*
X233007894Y-152809077D01*
X233007894Y-152809077D02*
X233007894Y-151909077D01*
X231807894Y-152809077D02*
X232322180Y-152809077D01*
X232065037Y-152809077D02*
X232065037Y-151909077D01*
X232065037Y-151909077D02*
X232150751Y-152037648D01*
X232150751Y-152037648D02*
X232236466Y-152123362D01*
X232236466Y-152123362D02*
X232322180Y-152166220D01*
X230993608Y-151909077D02*
X231422180Y-151909077D01*
X231422180Y-151909077D02*
X231465037Y-152337648D01*
X231465037Y-152337648D02*
X231422180Y-152294791D01*
X231422180Y-152294791D02*
X231336466Y-152251934D01*
X231336466Y-152251934D02*
X231122180Y-152251934D01*
X231122180Y-152251934D02*
X231036466Y-152294791D01*
X231036466Y-152294791D02*
X230993608Y-152337648D01*
X230993608Y-152337648D02*
X230950751Y-152423362D01*
X230950751Y-152423362D02*
X230950751Y-152637648D01*
X230950751Y-152637648D02*
X230993608Y-152723362D01*
X230993608Y-152723362D02*
X231036466Y-152766220D01*
X231036466Y-152766220D02*
X231122180Y-152809077D01*
X231122180Y-152809077D02*
X231336466Y-152809077D01*
X231336466Y-152809077D02*
X231422180Y-152766220D01*
X231422180Y-152766220D02*
X231465037Y-152723362D01*
X228507895Y-151909077D02*
X228507895Y-152637648D01*
X228507895Y-152637648D02*
X228465038Y-152723362D01*
X228465038Y-152723362D02*
X228422181Y-152766220D01*
X228422181Y-152766220D02*
X228336466Y-152809077D01*
X228336466Y-152809077D02*
X228165038Y-152809077D01*
X228165038Y-152809077D02*
X228079323Y-152766220D01*
X228079323Y-152766220D02*
X228036466Y-152723362D01*
X228036466Y-152723362D02*
X227993609Y-152637648D01*
X227993609Y-152637648D02*
X227993609Y-151909077D01*
X227607895Y-151994791D02*
X227565038Y-151951934D01*
X227565038Y-151951934D02*
X227479324Y-151909077D01*
X227479324Y-151909077D02*
X227265038Y-151909077D01*
X227265038Y-151909077D02*
X227179324Y-151951934D01*
X227179324Y-151951934D02*
X227136466Y-151994791D01*
X227136466Y-151994791D02*
X227093609Y-152080505D01*
X227093609Y-152080505D02*
X227093609Y-152166220D01*
X227093609Y-152166220D02*
X227136466Y-152294791D01*
X227136466Y-152294791D02*
X227650752Y-152809077D01*
X227650752Y-152809077D02*
X227093609Y-152809077D01*
X226065038Y-151866220D02*
X226836466Y-153023362D01*
X225765038Y-151909077D02*
X225765038Y-152637648D01*
X225765038Y-152637648D02*
X225722181Y-152723362D01*
X225722181Y-152723362D02*
X225679324Y-152766220D01*
X225679324Y-152766220D02*
X225593609Y-152809077D01*
X225593609Y-152809077D02*
X225422181Y-152809077D01*
X225422181Y-152809077D02*
X225336466Y-152766220D01*
X225336466Y-152766220D02*
X225293609Y-152723362D01*
X225293609Y-152723362D02*
X225250752Y-152637648D01*
X225250752Y-152637648D02*
X225250752Y-151909077D01*
X224436467Y-151909077D02*
X224607895Y-151909077D01*
X224607895Y-151909077D02*
X224693609Y-151951934D01*
X224693609Y-151951934D02*
X224736467Y-151994791D01*
X224736467Y-151994791D02*
X224822181Y-152123362D01*
X224822181Y-152123362D02*
X224865038Y-152294791D01*
X224865038Y-152294791D02*
X224865038Y-152637648D01*
X224865038Y-152637648D02*
X224822181Y-152723362D01*
X224822181Y-152723362D02*
X224779324Y-152766220D01*
X224779324Y-152766220D02*
X224693609Y-152809077D01*
X224693609Y-152809077D02*
X224522181Y-152809077D01*
X224522181Y-152809077D02*
X224436467Y-152766220D01*
X224436467Y-152766220D02*
X224393609Y-152723362D01*
X224393609Y-152723362D02*
X224350752Y-152637648D01*
X224350752Y-152637648D02*
X224350752Y-152423362D01*
X224350752Y-152423362D02*
X224393609Y-152337648D01*
X224393609Y-152337648D02*
X224436467Y-152294791D01*
X224436467Y-152294791D02*
X224522181Y-152251934D01*
X224522181Y-152251934D02*
X224693609Y-152251934D01*
X224693609Y-152251934D02*
X224779324Y-152294791D01*
X224779324Y-152294791D02*
X224822181Y-152337648D01*
X224822181Y-152337648D02*
X224865038Y-152423362D01*
X223322181Y-152551934D02*
X222893610Y-152551934D01*
X223407895Y-152809077D02*
X223107895Y-151909077D01*
X223107895Y-151909077D02*
X222807895Y-152809077D01*
X222036466Y-152809077D02*
X222550752Y-152809077D01*
X222293609Y-152809077D02*
X222293609Y-151909077D01*
X222293609Y-151909077D02*
X222379323Y-152037648D01*
X222379323Y-152037648D02*
X222465038Y-152123362D01*
X222465038Y-152123362D02*
X222550752Y-152166220D01*
X221693609Y-151994791D02*
X221650752Y-151951934D01*
X221650752Y-151951934D02*
X221565038Y-151909077D01*
X221565038Y-151909077D02*
X221350752Y-151909077D01*
X221350752Y-151909077D02*
X221265038Y-151951934D01*
X221265038Y-151951934D02*
X221222180Y-151994791D01*
X221222180Y-151994791D02*
X221179323Y-152080505D01*
X221179323Y-152080505D02*
X221179323Y-152166220D01*
X221179323Y-152166220D02*
X221222180Y-152294791D01*
X221222180Y-152294791D02*
X221736466Y-152809077D01*
X221736466Y-152809077D02*
X221179323Y-152809077D01*
X220322180Y-152809077D02*
X220836466Y-152809077D01*
X220579323Y-152809077D02*
X220579323Y-151909077D01*
X220579323Y-151909077D02*
X220665037Y-152037648D01*
X220665037Y-152037648D02*
X220750752Y-152123362D01*
X220750752Y-152123362D02*
X220836466Y-152166220D01*
X218865038Y-151909077D02*
X219036466Y-151909077D01*
X219036466Y-151909077D02*
X219122180Y-151951934D01*
X219122180Y-151951934D02*
X219165038Y-151994791D01*
X219165038Y-151994791D02*
X219250752Y-152123362D01*
X219250752Y-152123362D02*
X219293609Y-152294791D01*
X219293609Y-152294791D02*
X219293609Y-152637648D01*
X219293609Y-152637648D02*
X219250752Y-152723362D01*
X219250752Y-152723362D02*
X219207895Y-152766220D01*
X219207895Y-152766220D02*
X219122180Y-152809077D01*
X219122180Y-152809077D02*
X218950752Y-152809077D01*
X218950752Y-152809077D02*
X218865038Y-152766220D01*
X218865038Y-152766220D02*
X218822180Y-152723362D01*
X218822180Y-152723362D02*
X218779323Y-152637648D01*
X218779323Y-152637648D02*
X218779323Y-152423362D01*
X218779323Y-152423362D02*
X218822180Y-152337648D01*
X218822180Y-152337648D02*
X218865038Y-152294791D01*
X218865038Y-152294791D02*
X218950752Y-152251934D01*
X218950752Y-152251934D02*
X219122180Y-152251934D01*
X219122180Y-152251934D02*
X219207895Y-152294791D01*
X219207895Y-152294791D02*
X219250752Y-152337648D01*
X219250752Y-152337648D02*
X219293609Y-152423362D01*
X218222180Y-151909077D02*
X218136466Y-151909077D01*
X218136466Y-151909077D02*
X218050752Y-151951934D01*
X218050752Y-151951934D02*
X218007895Y-151994791D01*
X218007895Y-151994791D02*
X217965037Y-152080505D01*
X217965037Y-152080505D02*
X217922180Y-152251934D01*
X217922180Y-152251934D02*
X217922180Y-152466220D01*
X217922180Y-152466220D02*
X217965037Y-152637648D01*
X217965037Y-152637648D02*
X218007895Y-152723362D01*
X218007895Y-152723362D02*
X218050752Y-152766220D01*
X218050752Y-152766220D02*
X218136466Y-152809077D01*
X218136466Y-152809077D02*
X218222180Y-152809077D01*
X218222180Y-152809077D02*
X218307895Y-152766220D01*
X218307895Y-152766220D02*
X218350752Y-152723362D01*
X218350752Y-152723362D02*
X218393609Y-152637648D01*
X218393609Y-152637648D02*
X218436466Y-152466220D01*
X218436466Y-152466220D02*
X218436466Y-152251934D01*
X218436466Y-152251934D02*
X218393609Y-152080505D01*
X218393609Y-152080505D02*
X218350752Y-151994791D01*
X218350752Y-151994791D02*
X218307895Y-151951934D01*
X218307895Y-151951934D02*
X218222180Y-151909077D01*
X216379323Y-151951934D02*
X216465038Y-151909077D01*
X216465038Y-151909077D02*
X216593609Y-151909077D01*
X216593609Y-151909077D02*
X216722180Y-151951934D01*
X216722180Y-151951934D02*
X216807895Y-152037648D01*
X216807895Y-152037648D02*
X216850752Y-152123362D01*
X216850752Y-152123362D02*
X216893609Y-152294791D01*
X216893609Y-152294791D02*
X216893609Y-152423362D01*
X216893609Y-152423362D02*
X216850752Y-152594791D01*
X216850752Y-152594791D02*
X216807895Y-152680505D01*
X216807895Y-152680505D02*
X216722180Y-152766220D01*
X216722180Y-152766220D02*
X216593609Y-152809077D01*
X216593609Y-152809077D02*
X216507895Y-152809077D01*
X216507895Y-152809077D02*
X216379323Y-152766220D01*
X216379323Y-152766220D02*
X216336466Y-152723362D01*
X216336466Y-152723362D02*
X216336466Y-152423362D01*
X216336466Y-152423362D02*
X216507895Y-152423362D01*
X215950752Y-152809077D02*
X215950752Y-151909077D01*
X215950752Y-152337648D02*
X215436466Y-152337648D01*
X215436466Y-152809077D02*
X215436466Y-151909077D01*
X215093609Y-152209077D02*
X214622181Y-152209077D01*
X214622181Y-152209077D02*
X215093609Y-152809077D01*
X215093609Y-152809077D02*
X214622181Y-152809077D01*
X212222182Y-151909077D02*
X212222182Y-152637648D01*
X212222182Y-152637648D02*
X212179325Y-152723362D01*
X212179325Y-152723362D02*
X212136468Y-152766220D01*
X212136468Y-152766220D02*
X212050753Y-152809077D01*
X212050753Y-152809077D02*
X211879325Y-152809077D01*
X211879325Y-152809077D02*
X211793610Y-152766220D01*
X211793610Y-152766220D02*
X211750753Y-152723362D01*
X211750753Y-152723362D02*
X211707896Y-152637648D01*
X211707896Y-152637648D02*
X211707896Y-151909077D01*
X211365039Y-151909077D02*
X210807896Y-151909077D01*
X210807896Y-151909077D02*
X211107896Y-152251934D01*
X211107896Y-152251934D02*
X210979325Y-152251934D01*
X210979325Y-152251934D02*
X210893611Y-152294791D01*
X210893611Y-152294791D02*
X210850753Y-152337648D01*
X210850753Y-152337648D02*
X210807896Y-152423362D01*
X210807896Y-152423362D02*
X210807896Y-152637648D01*
X210807896Y-152637648D02*
X210850753Y-152723362D01*
X210850753Y-152723362D02*
X210893611Y-152766220D01*
X210893611Y-152766220D02*
X210979325Y-152809077D01*
X210979325Y-152809077D02*
X211236468Y-152809077D01*
X211236468Y-152809077D02*
X211322182Y-152766220D01*
X211322182Y-152766220D02*
X211365039Y-152723362D01*
X209736468Y-152209077D02*
X209736468Y-152809077D01*
X209736468Y-152294791D02*
X209693611Y-152251934D01*
X209693611Y-152251934D02*
X209607896Y-152209077D01*
X209607896Y-152209077D02*
X209479325Y-152209077D01*
X209479325Y-152209077D02*
X209393611Y-152251934D01*
X209393611Y-152251934D02*
X209350754Y-152337648D01*
X209350754Y-152337648D02*
X209350754Y-152809077D01*
X208922182Y-152809077D02*
X208922182Y-151909077D01*
X208922182Y-151909077D02*
X208579325Y-151909077D01*
X208579325Y-151909077D02*
X208493610Y-151951934D01*
X208493610Y-151951934D02*
X208450753Y-151994791D01*
X208450753Y-151994791D02*
X208407896Y-152080505D01*
X208407896Y-152080505D02*
X208407896Y-152209077D01*
X208407896Y-152209077D02*
X208450753Y-152294791D01*
X208450753Y-152294791D02*
X208493610Y-152337648D01*
X208493610Y-152337648D02*
X208579325Y-152380505D01*
X208579325Y-152380505D02*
X208922182Y-152380505D01*
X208022182Y-152809077D02*
X208022182Y-151909077D01*
X208022182Y-151909077D02*
X207722182Y-152551934D01*
X207722182Y-152551934D02*
X207422182Y-151909077D01*
X207422182Y-151909077D02*
X207422182Y-152809077D01*
X206522182Y-152809077D02*
X207036468Y-152809077D01*
X206779325Y-152809077D02*
X206779325Y-151909077D01*
X206779325Y-151909077D02*
X206865039Y-152037648D01*
X206865039Y-152037648D02*
X206950754Y-152123362D01*
X206950754Y-152123362D02*
X207036468Y-152166220D01*
X206222182Y-151909077D02*
X205665039Y-151909077D01*
X205665039Y-151909077D02*
X205965039Y-152251934D01*
X205965039Y-152251934D02*
X205836468Y-152251934D01*
X205836468Y-152251934D02*
X205750754Y-152294791D01*
X205750754Y-152294791D02*
X205707896Y-152337648D01*
X205707896Y-152337648D02*
X205665039Y-152423362D01*
X205665039Y-152423362D02*
X205665039Y-152637648D01*
X205665039Y-152637648D02*
X205707896Y-152723362D01*
X205707896Y-152723362D02*
X205750754Y-152766220D01*
X205750754Y-152766220D02*
X205836468Y-152809077D01*
X205836468Y-152809077D02*
X206093611Y-152809077D01*
X206093611Y-152809077D02*
X206179325Y-152766220D01*
X206179325Y-152766220D02*
X206222182Y-152723362D01*
X205107896Y-151909077D02*
X205022182Y-151909077D01*
X205022182Y-151909077D02*
X204936468Y-151951934D01*
X204936468Y-151951934D02*
X204893611Y-151994791D01*
X204893611Y-151994791D02*
X204850753Y-152080505D01*
X204850753Y-152080505D02*
X204807896Y-152251934D01*
X204807896Y-152251934D02*
X204807896Y-152466220D01*
X204807896Y-152466220D02*
X204850753Y-152637648D01*
X204850753Y-152637648D02*
X204893611Y-152723362D01*
X204893611Y-152723362D02*
X204936468Y-152766220D01*
X204936468Y-152766220D02*
X205022182Y-152809077D01*
X205022182Y-152809077D02*
X205107896Y-152809077D01*
X205107896Y-152809077D02*
X205193611Y-152766220D01*
X205193611Y-152766220D02*
X205236468Y-152723362D01*
X205236468Y-152723362D02*
X205279325Y-152637648D01*
X205279325Y-152637648D02*
X205322182Y-152466220D01*
X205322182Y-152466220D02*
X205322182Y-152251934D01*
X205322182Y-152251934D02*
X205279325Y-152080505D01*
X205279325Y-152080505D02*
X205236468Y-151994791D01*
X205236468Y-151994791D02*
X205193611Y-151951934D01*
X205193611Y-151951934D02*
X205107896Y-151909077D01*
X204250753Y-151909077D02*
X204165039Y-151909077D01*
X204165039Y-151909077D02*
X204079325Y-151951934D01*
X204079325Y-151951934D02*
X204036468Y-151994791D01*
X204036468Y-151994791D02*
X203993610Y-152080505D01*
X203993610Y-152080505D02*
X203950753Y-152251934D01*
X203950753Y-152251934D02*
X203950753Y-152466220D01*
X203950753Y-152466220D02*
X203993610Y-152637648D01*
X203993610Y-152637648D02*
X204036468Y-152723362D01*
X204036468Y-152723362D02*
X204079325Y-152766220D01*
X204079325Y-152766220D02*
X204165039Y-152809077D01*
X204165039Y-152809077D02*
X204250753Y-152809077D01*
X204250753Y-152809077D02*
X204336468Y-152766220D01*
X204336468Y-152766220D02*
X204379325Y-152723362D01*
X204379325Y-152723362D02*
X204422182Y-152637648D01*
X204422182Y-152637648D02*
X204465039Y-152466220D01*
X204465039Y-152466220D02*
X204465039Y-152251934D01*
X204465039Y-152251934D02*
X204422182Y-152080505D01*
X204422182Y-152080505D02*
X204379325Y-151994791D01*
X204379325Y-151994791D02*
X204336468Y-151951934D01*
X204336468Y-151951934D02*
X204250753Y-151909077D01*
X239693609Y-153809077D02*
X239693609Y-154537648D01*
X239693609Y-154537648D02*
X239650752Y-154623362D01*
X239650752Y-154623362D02*
X239607895Y-154666220D01*
X239607895Y-154666220D02*
X239522180Y-154709077D01*
X239522180Y-154709077D02*
X239350752Y-154709077D01*
X239350752Y-154709077D02*
X239265037Y-154666220D01*
X239265037Y-154666220D02*
X239222180Y-154623362D01*
X239222180Y-154623362D02*
X239179323Y-154537648D01*
X239179323Y-154537648D02*
X239179323Y-153809077D01*
X238365038Y-154109077D02*
X238365038Y-154709077D01*
X238579323Y-153766220D02*
X238793609Y-154409077D01*
X238793609Y-154409077D02*
X238236466Y-154409077D01*
X236907895Y-154237648D02*
X236779323Y-154280505D01*
X236779323Y-154280505D02*
X236736466Y-154323362D01*
X236736466Y-154323362D02*
X236693609Y-154409077D01*
X236693609Y-154409077D02*
X236693609Y-154537648D01*
X236693609Y-154537648D02*
X236736466Y-154623362D01*
X236736466Y-154623362D02*
X236779323Y-154666220D01*
X236779323Y-154666220D02*
X236865038Y-154709077D01*
X236865038Y-154709077D02*
X237207895Y-154709077D01*
X237207895Y-154709077D02*
X237207895Y-153809077D01*
X237207895Y-153809077D02*
X236907895Y-153809077D01*
X236907895Y-153809077D02*
X236822181Y-153851934D01*
X236822181Y-153851934D02*
X236779323Y-153894791D01*
X236779323Y-153894791D02*
X236736466Y-153980505D01*
X236736466Y-153980505D02*
X236736466Y-154066220D01*
X236736466Y-154066220D02*
X236779323Y-154151934D01*
X236779323Y-154151934D02*
X236822181Y-154194791D01*
X236822181Y-154194791D02*
X236907895Y-154237648D01*
X236907895Y-154237648D02*
X237207895Y-154237648D01*
X236307895Y-154709077D02*
X236307895Y-153809077D01*
X236307895Y-153809077D02*
X236007895Y-154451934D01*
X236007895Y-154451934D02*
X235707895Y-153809077D01*
X235707895Y-153809077D02*
X235707895Y-154709077D01*
X235279324Y-154709077D02*
X235279324Y-153809077D01*
X234893610Y-153894791D02*
X234850753Y-153851934D01*
X234850753Y-153851934D02*
X234765039Y-153809077D01*
X234765039Y-153809077D02*
X234550753Y-153809077D01*
X234550753Y-153809077D02*
X234465039Y-153851934D01*
X234465039Y-153851934D02*
X234422181Y-153894791D01*
X234422181Y-153894791D02*
X234379324Y-153980505D01*
X234379324Y-153980505D02*
X234379324Y-154066220D01*
X234379324Y-154066220D02*
X234422181Y-154194791D01*
X234422181Y-154194791D02*
X234936467Y-154709077D01*
X234936467Y-154709077D02*
X234379324Y-154709077D01*
X234079324Y-153809077D02*
X233479324Y-153809077D01*
X233479324Y-153809077D02*
X233865038Y-154709077D01*
X232965038Y-153809077D02*
X232879324Y-153809077D01*
X232879324Y-153809077D02*
X232793610Y-153851934D01*
X232793610Y-153851934D02*
X232750753Y-153894791D01*
X232750753Y-153894791D02*
X232707895Y-153980505D01*
X232707895Y-153980505D02*
X232665038Y-154151934D01*
X232665038Y-154151934D02*
X232665038Y-154366220D01*
X232665038Y-154366220D02*
X232707895Y-154537648D01*
X232707895Y-154537648D02*
X232750753Y-154623362D01*
X232750753Y-154623362D02*
X232793610Y-154666220D01*
X232793610Y-154666220D02*
X232879324Y-154709077D01*
X232879324Y-154709077D02*
X232965038Y-154709077D01*
X232965038Y-154709077D02*
X233050753Y-154666220D01*
X233050753Y-154666220D02*
X233093610Y-154623362D01*
X233093610Y-154623362D02*
X233136467Y-154537648D01*
X233136467Y-154537648D02*
X233179324Y-154366220D01*
X233179324Y-154366220D02*
X233179324Y-154151934D01*
X233179324Y-154151934D02*
X233136467Y-153980505D01*
X233136467Y-153980505D02*
X233093610Y-153894791D01*
X233093610Y-153894791D02*
X233050753Y-153851934D01*
X233050753Y-153851934D02*
X232965038Y-153809077D01*
X231593610Y-154709077D02*
X231593610Y-153809077D01*
X231165039Y-154709077D02*
X231165039Y-153809077D01*
X231165039Y-153809077D02*
X230865039Y-154451934D01*
X230865039Y-154451934D02*
X230565039Y-153809077D01*
X230565039Y-153809077D02*
X230565039Y-154709077D01*
X230136468Y-153809077D02*
X230136468Y-154537648D01*
X230136468Y-154537648D02*
X230093611Y-154623362D01*
X230093611Y-154623362D02*
X230050754Y-154666220D01*
X230050754Y-154666220D02*
X229965039Y-154709077D01*
X229965039Y-154709077D02*
X229793611Y-154709077D01*
X229793611Y-154709077D02*
X229707896Y-154666220D01*
X229707896Y-154666220D02*
X229665039Y-154623362D01*
X229665039Y-154623362D02*
X229622182Y-154537648D01*
X229622182Y-154537648D02*
X229622182Y-153809077D01*
X227136469Y-153809077D02*
X227136469Y-154537648D01*
X227136469Y-154537648D02*
X227093612Y-154623362D01*
X227093612Y-154623362D02*
X227050755Y-154666220D01*
X227050755Y-154666220D02*
X226965040Y-154709077D01*
X226965040Y-154709077D02*
X226793612Y-154709077D01*
X226793612Y-154709077D02*
X226707897Y-154666220D01*
X226707897Y-154666220D02*
X226665040Y-154623362D01*
X226665040Y-154623362D02*
X226622183Y-154537648D01*
X226622183Y-154537648D02*
X226622183Y-153809077D01*
X225765040Y-153809077D02*
X226193612Y-153809077D01*
X226193612Y-153809077D02*
X226236469Y-154237648D01*
X226236469Y-154237648D02*
X226193612Y-154194791D01*
X226193612Y-154194791D02*
X226107898Y-154151934D01*
X226107898Y-154151934D02*
X225893612Y-154151934D01*
X225893612Y-154151934D02*
X225807898Y-154194791D01*
X225807898Y-154194791D02*
X225765040Y-154237648D01*
X225765040Y-154237648D02*
X225722183Y-154323362D01*
X225722183Y-154323362D02*
X225722183Y-154537648D01*
X225722183Y-154537648D02*
X225765040Y-154623362D01*
X225765040Y-154623362D02*
X225807898Y-154666220D01*
X225807898Y-154666220D02*
X225893612Y-154709077D01*
X225893612Y-154709077D02*
X226107898Y-154709077D01*
X226107898Y-154709077D02*
X226193612Y-154666220D01*
X226193612Y-154666220D02*
X226236469Y-154623362D01*
X224736469Y-154109077D02*
X224265041Y-154109077D01*
X224265041Y-154109077D02*
X224736469Y-154709077D01*
X224736469Y-154709077D02*
X224265041Y-154709077D01*
X223922184Y-154709077D02*
X223922184Y-154109077D01*
X223922184Y-153809077D02*
X223965041Y-153851934D01*
X223965041Y-153851934D02*
X223922184Y-153894791D01*
X223922184Y-153894791D02*
X223879327Y-153851934D01*
X223879327Y-153851934D02*
X223922184Y-153809077D01*
X223922184Y-153809077D02*
X223922184Y-153894791D01*
X223493613Y-154109077D02*
X223493613Y-155009077D01*
X223493613Y-154151934D02*
X223407899Y-154109077D01*
X223407899Y-154109077D02*
X223236470Y-154109077D01*
X223236470Y-154109077D02*
X223150756Y-154151934D01*
X223150756Y-154151934D02*
X223107899Y-154194791D01*
X223107899Y-154194791D02*
X223065041Y-154280505D01*
X223065041Y-154280505D02*
X223065041Y-154537648D01*
X223065041Y-154537648D02*
X223107899Y-154623362D01*
X223107899Y-154623362D02*
X223150756Y-154666220D01*
X223150756Y-154666220D02*
X223236470Y-154709077D01*
X223236470Y-154709077D02*
X223407899Y-154709077D01*
X223407899Y-154709077D02*
X223493613Y-154666220D01*
X221993613Y-154709077D02*
X221993613Y-153809077D01*
X221993613Y-154237648D02*
X221479327Y-154237648D01*
X221479327Y-154709077D02*
X221479327Y-153809077D01*
X220665042Y-154709077D02*
X220665042Y-154237648D01*
X220665042Y-154237648D02*
X220707899Y-154151934D01*
X220707899Y-154151934D02*
X220793613Y-154109077D01*
X220793613Y-154109077D02*
X220965042Y-154109077D01*
X220965042Y-154109077D02*
X221050756Y-154151934D01*
X220665042Y-154666220D02*
X220750756Y-154709077D01*
X220750756Y-154709077D02*
X220965042Y-154709077D01*
X220965042Y-154709077D02*
X221050756Y-154666220D01*
X221050756Y-154666220D02*
X221093613Y-154580505D01*
X221093613Y-154580505D02*
X221093613Y-154494791D01*
X221093613Y-154494791D02*
X221050756Y-154409077D01*
X221050756Y-154409077D02*
X220965042Y-154366220D01*
X220965042Y-154366220D02*
X220750756Y-154366220D01*
X220750756Y-154366220D02*
X220665042Y-154323362D01*
X220107898Y-154709077D02*
X220193613Y-154666220D01*
X220193613Y-154666220D02*
X220236470Y-154580505D01*
X220236470Y-154580505D02*
X220236470Y-153809077D01*
X219636469Y-154709077D02*
X219722184Y-154666220D01*
X219722184Y-154666220D02*
X219765041Y-154580505D01*
X219765041Y-154580505D02*
X219765041Y-153809077D01*
X217236470Y-153809077D02*
X217236470Y-154537648D01*
X217236470Y-154537648D02*
X217193613Y-154623362D01*
X217193613Y-154623362D02*
X217150756Y-154666220D01*
X217150756Y-154666220D02*
X217065041Y-154709077D01*
X217065041Y-154709077D02*
X216893613Y-154709077D01*
X216893613Y-154709077D02*
X216807898Y-154666220D01*
X216807898Y-154666220D02*
X216765041Y-154623362D01*
X216765041Y-154623362D02*
X216722184Y-154537648D01*
X216722184Y-154537648D02*
X216722184Y-153809077D01*
X215822184Y-154709077D02*
X216336470Y-154709077D01*
X216079327Y-154709077D02*
X216079327Y-153809077D01*
X216079327Y-153809077D02*
X216165041Y-153937648D01*
X216165041Y-153937648D02*
X216250756Y-154023362D01*
X216250756Y-154023362D02*
X216336470Y-154066220D01*
X214965041Y-154709077D02*
X215479327Y-154709077D01*
X215222184Y-154709077D02*
X215222184Y-153809077D01*
X215222184Y-153809077D02*
X215307898Y-153937648D01*
X215307898Y-153937648D02*
X215393613Y-154023362D01*
X215393613Y-154023362D02*
X215479327Y-154066220D01*
X213593613Y-154237648D02*
X213465041Y-154280505D01*
X213465041Y-154280505D02*
X213422184Y-154323362D01*
X213422184Y-154323362D02*
X213379327Y-154409077D01*
X213379327Y-154409077D02*
X213379327Y-154537648D01*
X213379327Y-154537648D02*
X213422184Y-154623362D01*
X213422184Y-154623362D02*
X213465041Y-154666220D01*
X213465041Y-154666220D02*
X213550756Y-154709077D01*
X213550756Y-154709077D02*
X213893613Y-154709077D01*
X213893613Y-154709077D02*
X213893613Y-153809077D01*
X213893613Y-153809077D02*
X213593613Y-153809077D01*
X213593613Y-153809077D02*
X213507899Y-153851934D01*
X213507899Y-153851934D02*
X213465041Y-153894791D01*
X213465041Y-153894791D02*
X213422184Y-153980505D01*
X213422184Y-153980505D02*
X213422184Y-154066220D01*
X213422184Y-154066220D02*
X213465041Y-154151934D01*
X213465041Y-154151934D02*
X213507899Y-154194791D01*
X213507899Y-154194791D02*
X213593613Y-154237648D01*
X213593613Y-154237648D02*
X213893613Y-154237648D01*
X212393613Y-154794791D02*
X212479327Y-154751934D01*
X212479327Y-154751934D02*
X212565041Y-154666220D01*
X212565041Y-154666220D02*
X212693613Y-154537648D01*
X212693613Y-154537648D02*
X212779327Y-154494791D01*
X212779327Y-154494791D02*
X212865041Y-154494791D01*
X212822184Y-154709077D02*
X212907899Y-154666220D01*
X212907899Y-154666220D02*
X212993613Y-154580505D01*
X212993613Y-154580505D02*
X213036470Y-154409077D01*
X213036470Y-154409077D02*
X213036470Y-154109077D01*
X213036470Y-154109077D02*
X212993613Y-153937648D01*
X212993613Y-153937648D02*
X212907899Y-153851934D01*
X212907899Y-153851934D02*
X212822184Y-153809077D01*
X212822184Y-153809077D02*
X212650756Y-153809077D01*
X212650756Y-153809077D02*
X212565041Y-153851934D01*
X212565041Y-153851934D02*
X212479327Y-153937648D01*
X212479327Y-153937648D02*
X212436470Y-154109077D01*
X212436470Y-154109077D02*
X212436470Y-154409077D01*
X212436470Y-154409077D02*
X212479327Y-154580505D01*
X212479327Y-154580505D02*
X212565041Y-154666220D01*
X212565041Y-154666220D02*
X212650756Y-154709077D01*
X212650756Y-154709077D02*
X212822184Y-154709077D01*
X211622184Y-153809077D02*
X212050756Y-153809077D01*
X212050756Y-153809077D02*
X212093613Y-154237648D01*
X212093613Y-154237648D02*
X212050756Y-154194791D01*
X212050756Y-154194791D02*
X211965042Y-154151934D01*
X211965042Y-154151934D02*
X211750756Y-154151934D01*
X211750756Y-154151934D02*
X211665042Y-154194791D01*
X211665042Y-154194791D02*
X211622184Y-154237648D01*
X211622184Y-154237648D02*
X211579327Y-154323362D01*
X211579327Y-154323362D02*
X211579327Y-154537648D01*
X211579327Y-154537648D02*
X211622184Y-154623362D01*
X211622184Y-154623362D02*
X211665042Y-154666220D01*
X211665042Y-154666220D02*
X211750756Y-154709077D01*
X211750756Y-154709077D02*
X211965042Y-154709077D01*
X211965042Y-154709077D02*
X212050756Y-154666220D01*
X212050756Y-154666220D02*
X212093613Y-154623362D01*
X210722184Y-154709077D02*
X211236470Y-154709077D01*
X210979327Y-154709077D02*
X210979327Y-153809077D01*
X210979327Y-153809077D02*
X211065041Y-153937648D01*
X211065041Y-153937648D02*
X211150756Y-154023362D01*
X211150756Y-154023362D02*
X211236470Y-154066220D01*
X210165041Y-153809077D02*
X210079327Y-153809077D01*
X210079327Y-153809077D02*
X209993613Y-153851934D01*
X209993613Y-153851934D02*
X209950756Y-153894791D01*
X209950756Y-153894791D02*
X209907898Y-153980505D01*
X209907898Y-153980505D02*
X209865041Y-154151934D01*
X209865041Y-154151934D02*
X209865041Y-154366220D01*
X209865041Y-154366220D02*
X209907898Y-154537648D01*
X209907898Y-154537648D02*
X209950756Y-154623362D01*
X209950756Y-154623362D02*
X209993613Y-154666220D01*
X209993613Y-154666220D02*
X210079327Y-154709077D01*
X210079327Y-154709077D02*
X210165041Y-154709077D01*
X210165041Y-154709077D02*
X210250756Y-154666220D01*
X210250756Y-154666220D02*
X210293613Y-154623362D01*
X210293613Y-154623362D02*
X210336470Y-154537648D01*
X210336470Y-154537648D02*
X210379327Y-154366220D01*
X210379327Y-154366220D02*
X210379327Y-154151934D01*
X210379327Y-154151934D02*
X210336470Y-153980505D01*
X210336470Y-153980505D02*
X210293613Y-153894791D01*
X210293613Y-153894791D02*
X210250756Y-153851934D01*
X210250756Y-153851934D02*
X210165041Y-153809077D01*
X209007898Y-154709077D02*
X209522184Y-154709077D01*
X209265041Y-154709077D02*
X209265041Y-153809077D01*
X209265041Y-153809077D02*
X209350755Y-153937648D01*
X209350755Y-153937648D02*
X209436470Y-154023362D01*
X209436470Y-154023362D02*
X209522184Y-154066220D01*
X208707898Y-153809077D02*
X208150755Y-153809077D01*
X208150755Y-153809077D02*
X208450755Y-154151934D01*
X208450755Y-154151934D02*
X208322184Y-154151934D01*
X208322184Y-154151934D02*
X208236470Y-154194791D01*
X208236470Y-154194791D02*
X208193612Y-154237648D01*
X208193612Y-154237648D02*
X208150755Y-154323362D01*
X208150755Y-154323362D02*
X208150755Y-154537648D01*
X208150755Y-154537648D02*
X208193612Y-154623362D01*
X208193612Y-154623362D02*
X208236470Y-154666220D01*
X208236470Y-154666220D02*
X208322184Y-154709077D01*
X208322184Y-154709077D02*
X208579327Y-154709077D01*
X208579327Y-154709077D02*
X208665041Y-154666220D01*
X208665041Y-154666220D02*
X208707898Y-154623362D01*
X207465041Y-154237648D02*
X207336469Y-154280505D01*
X207336469Y-154280505D02*
X207293612Y-154323362D01*
X207293612Y-154323362D02*
X207250755Y-154409077D01*
X207250755Y-154409077D02*
X207250755Y-154537648D01*
X207250755Y-154537648D02*
X207293612Y-154623362D01*
X207293612Y-154623362D02*
X207336469Y-154666220D01*
X207336469Y-154666220D02*
X207422184Y-154709077D01*
X207422184Y-154709077D02*
X207765041Y-154709077D01*
X207765041Y-154709077D02*
X207765041Y-153809077D01*
X207765041Y-153809077D02*
X207465041Y-153809077D01*
X207465041Y-153809077D02*
X207379327Y-153851934D01*
X207379327Y-153851934D02*
X207336469Y-153894791D01*
X207336469Y-153894791D02*
X207293612Y-153980505D01*
X207293612Y-153980505D02*
X207293612Y-154066220D01*
X207293612Y-154066220D02*
X207336469Y-154151934D01*
X207336469Y-154151934D02*
X207379327Y-154194791D01*
X207379327Y-154194791D02*
X207465041Y-154237648D01*
X207465041Y-154237648D02*
X207765041Y-154237648D01*
X205579327Y-154794791D02*
X205665041Y-154751934D01*
X205665041Y-154751934D02*
X205750755Y-154666220D01*
X205750755Y-154666220D02*
X205879327Y-154537648D01*
X205879327Y-154537648D02*
X205965041Y-154494791D01*
X205965041Y-154494791D02*
X206050755Y-154494791D01*
X206007898Y-154709077D02*
X206093613Y-154666220D01*
X206093613Y-154666220D02*
X206179327Y-154580505D01*
X206179327Y-154580505D02*
X206222184Y-154409077D01*
X206222184Y-154409077D02*
X206222184Y-154109077D01*
X206222184Y-154109077D02*
X206179327Y-153937648D01*
X206179327Y-153937648D02*
X206093613Y-153851934D01*
X206093613Y-153851934D02*
X206007898Y-153809077D01*
X206007898Y-153809077D02*
X205836470Y-153809077D01*
X205836470Y-153809077D02*
X205750755Y-153851934D01*
X205750755Y-153851934D02*
X205665041Y-153937648D01*
X205665041Y-153937648D02*
X205622184Y-154109077D01*
X205622184Y-154109077D02*
X205622184Y-154409077D01*
X205622184Y-154409077D02*
X205665041Y-154580505D01*
X205665041Y-154580505D02*
X205750755Y-154666220D01*
X205750755Y-154666220D02*
X205836470Y-154709077D01*
X205836470Y-154709077D02*
X206007898Y-154709077D01*
X205236470Y-154709077D02*
X205236470Y-154109077D01*
X205236470Y-153809077D02*
X205279327Y-153851934D01*
X205279327Y-153851934D02*
X205236470Y-153894791D01*
X205236470Y-153894791D02*
X205193613Y-153851934D01*
X205193613Y-153851934D02*
X205236470Y-153809077D01*
X205236470Y-153809077D02*
X205236470Y-153894791D01*
X239736466Y-156351934D02*
X239307895Y-156351934D01*
X239822180Y-156609077D02*
X239522180Y-155709077D01*
X239522180Y-155709077D02*
X239222180Y-156609077D01*
X238450751Y-156609077D02*
X238965037Y-156609077D01*
X238707894Y-156609077D02*
X238707894Y-155709077D01*
X238707894Y-155709077D02*
X238793608Y-155837648D01*
X238793608Y-155837648D02*
X238879323Y-155923362D01*
X238879323Y-155923362D02*
X238965037Y-155966220D01*
X238107894Y-155794791D02*
X238065037Y-155751934D01*
X238065037Y-155751934D02*
X237979323Y-155709077D01*
X237979323Y-155709077D02*
X237765037Y-155709077D01*
X237765037Y-155709077D02*
X237679323Y-155751934D01*
X237679323Y-155751934D02*
X237636465Y-155794791D01*
X237636465Y-155794791D02*
X237593608Y-155880505D01*
X237593608Y-155880505D02*
X237593608Y-155966220D01*
X237593608Y-155966220D02*
X237636465Y-156094791D01*
X237636465Y-156094791D02*
X238150751Y-156609077D01*
X238150751Y-156609077D02*
X237593608Y-156609077D01*
X236736465Y-156609077D02*
X237250751Y-156609077D01*
X236993608Y-156609077D02*
X236993608Y-155709077D01*
X236993608Y-155709077D02*
X237079322Y-155837648D01*
X237079322Y-155837648D02*
X237165037Y-155923362D01*
X237165037Y-155923362D02*
X237250751Y-155966220D01*
X236350751Y-156523362D02*
X236307894Y-156566220D01*
X236307894Y-156566220D02*
X236350751Y-156609077D01*
X236350751Y-156609077D02*
X236393608Y-156566220D01*
X236393608Y-156566220D02*
X236350751Y-156523362D01*
X236350751Y-156523362D02*
X236350751Y-156609077D01*
X236350751Y-156051934D02*
X236307894Y-156094791D01*
X236307894Y-156094791D02*
X236350751Y-156137648D01*
X236350751Y-156137648D02*
X236393608Y-156094791D01*
X236393608Y-156094791D02*
X236350751Y-156051934D01*
X236350751Y-156051934D02*
X236350751Y-156137648D01*
X234850752Y-156609077D02*
X234850752Y-156137648D01*
X234850752Y-156137648D02*
X234893609Y-156051934D01*
X234893609Y-156051934D02*
X234979323Y-156009077D01*
X234979323Y-156009077D02*
X235150752Y-156009077D01*
X235150752Y-156009077D02*
X235236466Y-156051934D01*
X234850752Y-156566220D02*
X234936466Y-156609077D01*
X234936466Y-156609077D02*
X235150752Y-156609077D01*
X235150752Y-156609077D02*
X235236466Y-156566220D01*
X235236466Y-156566220D02*
X235279323Y-156480505D01*
X235279323Y-156480505D02*
X235279323Y-156394791D01*
X235279323Y-156394791D02*
X235236466Y-156309077D01*
X235236466Y-156309077D02*
X235150752Y-156266220D01*
X235150752Y-156266220D02*
X234936466Y-156266220D01*
X234936466Y-156266220D02*
X234850752Y-156223362D01*
X234422180Y-156009077D02*
X234422180Y-156609077D01*
X234422180Y-156094791D02*
X234379323Y-156051934D01*
X234379323Y-156051934D02*
X234293608Y-156009077D01*
X234293608Y-156009077D02*
X234165037Y-156009077D01*
X234165037Y-156009077D02*
X234079323Y-156051934D01*
X234079323Y-156051934D02*
X234036466Y-156137648D01*
X234036466Y-156137648D02*
X234036466Y-156609077D01*
X233736465Y-156009077D02*
X233393608Y-156009077D01*
X233607894Y-155709077D02*
X233607894Y-156480505D01*
X233607894Y-156480505D02*
X233565037Y-156566220D01*
X233565037Y-156566220D02*
X233479322Y-156609077D01*
X233479322Y-156609077D02*
X233393608Y-156609077D01*
X232750751Y-156566220D02*
X232836465Y-156609077D01*
X232836465Y-156609077D02*
X233007894Y-156609077D01*
X233007894Y-156609077D02*
X233093608Y-156566220D01*
X233093608Y-156566220D02*
X233136465Y-156480505D01*
X233136465Y-156480505D02*
X233136465Y-156137648D01*
X233136465Y-156137648D02*
X233093608Y-156051934D01*
X233093608Y-156051934D02*
X233007894Y-156009077D01*
X233007894Y-156009077D02*
X232836465Y-156009077D01*
X232836465Y-156009077D02*
X232750751Y-156051934D01*
X232750751Y-156051934D02*
X232707894Y-156137648D01*
X232707894Y-156137648D02*
X232707894Y-156223362D01*
X232707894Y-156223362D02*
X233136465Y-156309077D01*
X232322179Y-156009077D02*
X232322179Y-156609077D01*
X232322179Y-156094791D02*
X232279322Y-156051934D01*
X232279322Y-156051934D02*
X232193607Y-156009077D01*
X232193607Y-156009077D02*
X232065036Y-156009077D01*
X232065036Y-156009077D02*
X231979322Y-156051934D01*
X231979322Y-156051934D02*
X231936465Y-156137648D01*
X231936465Y-156137648D02*
X231936465Y-156609077D01*
X231507893Y-156009077D02*
X231507893Y-156609077D01*
X231507893Y-156094791D02*
X231465036Y-156051934D01*
X231465036Y-156051934D02*
X231379321Y-156009077D01*
X231379321Y-156009077D02*
X231250750Y-156009077D01*
X231250750Y-156009077D02*
X231165036Y-156051934D01*
X231165036Y-156051934D02*
X231122179Y-156137648D01*
X231122179Y-156137648D02*
X231122179Y-156609077D01*
X230307893Y-156609077D02*
X230307893Y-156137648D01*
X230307893Y-156137648D02*
X230350750Y-156051934D01*
X230350750Y-156051934D02*
X230436464Y-156009077D01*
X230436464Y-156009077D02*
X230607893Y-156009077D01*
X230607893Y-156009077D02*
X230693607Y-156051934D01*
X230307893Y-156566220D02*
X230393607Y-156609077D01*
X230393607Y-156609077D02*
X230607893Y-156609077D01*
X230607893Y-156609077D02*
X230693607Y-156566220D01*
X230693607Y-156566220D02*
X230736464Y-156480505D01*
X230736464Y-156480505D02*
X230736464Y-156394791D01*
X230736464Y-156394791D02*
X230693607Y-156309077D01*
X230693607Y-156309077D02*
X230607893Y-156266220D01*
X230607893Y-156266220D02*
X230393607Y-156266220D01*
X230393607Y-156266220D02*
X230307893Y-156223362D01*
X229193607Y-156609077D02*
X229193607Y-156009077D01*
X229193607Y-155709077D02*
X229236464Y-155751934D01*
X229236464Y-155751934D02*
X229193607Y-155794791D01*
X229193607Y-155794791D02*
X229150750Y-155751934D01*
X229150750Y-155751934D02*
X229193607Y-155709077D01*
X229193607Y-155709077D02*
X229193607Y-155794791D01*
X228765036Y-156009077D02*
X228765036Y-156609077D01*
X228765036Y-156094791D02*
X228722179Y-156051934D01*
X228722179Y-156051934D02*
X228636464Y-156009077D01*
X228636464Y-156009077D02*
X228507893Y-156009077D01*
X228507893Y-156009077D02*
X228422179Y-156051934D01*
X228422179Y-156051934D02*
X228379322Y-156137648D01*
X228379322Y-156137648D02*
X228379322Y-156609077D01*
X227265036Y-156009077D02*
X227265036Y-156909077D01*
X227265036Y-156051934D02*
X227179322Y-156009077D01*
X227179322Y-156009077D02*
X227007893Y-156009077D01*
X227007893Y-156009077D02*
X226922179Y-156051934D01*
X226922179Y-156051934D02*
X226879322Y-156094791D01*
X226879322Y-156094791D02*
X226836464Y-156180505D01*
X226836464Y-156180505D02*
X226836464Y-156437648D01*
X226836464Y-156437648D02*
X226879322Y-156523362D01*
X226879322Y-156523362D02*
X226922179Y-156566220D01*
X226922179Y-156566220D02*
X227007893Y-156609077D01*
X227007893Y-156609077D02*
X227179322Y-156609077D01*
X227179322Y-156609077D02*
X227265036Y-156566220D01*
X226065036Y-156609077D02*
X226065036Y-156137648D01*
X226065036Y-156137648D02*
X226107893Y-156051934D01*
X226107893Y-156051934D02*
X226193607Y-156009077D01*
X226193607Y-156009077D02*
X226365036Y-156009077D01*
X226365036Y-156009077D02*
X226450750Y-156051934D01*
X226065036Y-156566220D02*
X226150750Y-156609077D01*
X226150750Y-156609077D02*
X226365036Y-156609077D01*
X226365036Y-156609077D02*
X226450750Y-156566220D01*
X226450750Y-156566220D02*
X226493607Y-156480505D01*
X226493607Y-156480505D02*
X226493607Y-156394791D01*
X226493607Y-156394791D02*
X226450750Y-156309077D01*
X226450750Y-156309077D02*
X226365036Y-156266220D01*
X226365036Y-156266220D02*
X226150750Y-156266220D01*
X226150750Y-156266220D02*
X226065036Y-156223362D01*
X225250750Y-156566220D02*
X225336464Y-156609077D01*
X225336464Y-156609077D02*
X225507892Y-156609077D01*
X225507892Y-156609077D02*
X225593607Y-156566220D01*
X225593607Y-156566220D02*
X225636464Y-156523362D01*
X225636464Y-156523362D02*
X225679321Y-156437648D01*
X225679321Y-156437648D02*
X225679321Y-156180505D01*
X225679321Y-156180505D02*
X225636464Y-156094791D01*
X225636464Y-156094791D02*
X225593607Y-156051934D01*
X225593607Y-156051934D02*
X225507892Y-156009077D01*
X225507892Y-156009077D02*
X225336464Y-156009077D01*
X225336464Y-156009077D02*
X225250750Y-156051934D01*
X224865035Y-156609077D02*
X224865035Y-155709077D01*
X224779321Y-156266220D02*
X224522178Y-156609077D01*
X224522178Y-156009077D02*
X224865035Y-156351934D01*
X223750750Y-156609077D02*
X223750750Y-156137648D01*
X223750750Y-156137648D02*
X223793607Y-156051934D01*
X223793607Y-156051934D02*
X223879321Y-156009077D01*
X223879321Y-156009077D02*
X224050750Y-156009077D01*
X224050750Y-156009077D02*
X224136464Y-156051934D01*
X223750750Y-156566220D02*
X223836464Y-156609077D01*
X223836464Y-156609077D02*
X224050750Y-156609077D01*
X224050750Y-156609077D02*
X224136464Y-156566220D01*
X224136464Y-156566220D02*
X224179321Y-156480505D01*
X224179321Y-156480505D02*
X224179321Y-156394791D01*
X224179321Y-156394791D02*
X224136464Y-156309077D01*
X224136464Y-156309077D02*
X224050750Y-156266220D01*
X224050750Y-156266220D02*
X223836464Y-156266220D01*
X223836464Y-156266220D02*
X223750750Y-156223362D01*
X222936464Y-156009077D02*
X222936464Y-156737648D01*
X222936464Y-156737648D02*
X222979321Y-156823362D01*
X222979321Y-156823362D02*
X223022178Y-156866220D01*
X223022178Y-156866220D02*
X223107892Y-156909077D01*
X223107892Y-156909077D02*
X223236464Y-156909077D01*
X223236464Y-156909077D02*
X223322178Y-156866220D01*
X222936464Y-156566220D02*
X223022178Y-156609077D01*
X223022178Y-156609077D02*
X223193606Y-156609077D01*
X223193606Y-156609077D02*
X223279321Y-156566220D01*
X223279321Y-156566220D02*
X223322178Y-156523362D01*
X223322178Y-156523362D02*
X223365035Y-156437648D01*
X223365035Y-156437648D02*
X223365035Y-156180505D01*
X223365035Y-156180505D02*
X223322178Y-156094791D01*
X223322178Y-156094791D02*
X223279321Y-156051934D01*
X223279321Y-156051934D02*
X223193606Y-156009077D01*
X223193606Y-156009077D02*
X223022178Y-156009077D01*
X223022178Y-156009077D02*
X222936464Y-156051934D01*
X222165035Y-156566220D02*
X222250749Y-156609077D01*
X222250749Y-156609077D02*
X222422178Y-156609077D01*
X222422178Y-156609077D02*
X222507892Y-156566220D01*
X222507892Y-156566220D02*
X222550749Y-156480505D01*
X222550749Y-156480505D02*
X222550749Y-156137648D01*
X222550749Y-156137648D02*
X222507892Y-156051934D01*
X222507892Y-156051934D02*
X222422178Y-156009077D01*
X222422178Y-156009077D02*
X222250749Y-156009077D01*
X222250749Y-156009077D02*
X222165035Y-156051934D01*
X222165035Y-156051934D02*
X222122178Y-156137648D01*
X222122178Y-156137648D02*
X222122178Y-156223362D01*
X222122178Y-156223362D02*
X222550749Y-156309077D01*
X221693606Y-156566220D02*
X221693606Y-156609077D01*
X221693606Y-156609077D02*
X221736463Y-156694791D01*
X221736463Y-156694791D02*
X221779320Y-156737648D01*
X220622178Y-156009077D02*
X220622178Y-156609077D01*
X220622178Y-156094791D02*
X220579321Y-156051934D01*
X220579321Y-156051934D02*
X220493606Y-156009077D01*
X220493606Y-156009077D02*
X220365035Y-156009077D01*
X220365035Y-156009077D02*
X220279321Y-156051934D01*
X220279321Y-156051934D02*
X220236464Y-156137648D01*
X220236464Y-156137648D02*
X220236464Y-156609077D01*
X219679320Y-156609077D02*
X219765035Y-156566220D01*
X219765035Y-156566220D02*
X219807892Y-156523362D01*
X219807892Y-156523362D02*
X219850749Y-156437648D01*
X219850749Y-156437648D02*
X219850749Y-156180505D01*
X219850749Y-156180505D02*
X219807892Y-156094791D01*
X219807892Y-156094791D02*
X219765035Y-156051934D01*
X219765035Y-156051934D02*
X219679320Y-156009077D01*
X219679320Y-156009077D02*
X219550749Y-156009077D01*
X219550749Y-156009077D02*
X219465035Y-156051934D01*
X219465035Y-156051934D02*
X219422178Y-156094791D01*
X219422178Y-156094791D02*
X219379320Y-156180505D01*
X219379320Y-156180505D02*
X219379320Y-156437648D01*
X219379320Y-156437648D02*
X219422178Y-156523362D01*
X219422178Y-156523362D02*
X219465035Y-156566220D01*
X219465035Y-156566220D02*
X219550749Y-156609077D01*
X219550749Y-156609077D02*
X219679320Y-156609077D01*
X217922178Y-155709077D02*
X218093606Y-155709077D01*
X218093606Y-155709077D02*
X218179320Y-155751934D01*
X218179320Y-155751934D02*
X218222178Y-155794791D01*
X218222178Y-155794791D02*
X218307892Y-155923362D01*
X218307892Y-155923362D02*
X218350749Y-156094791D01*
X218350749Y-156094791D02*
X218350749Y-156437648D01*
X218350749Y-156437648D02*
X218307892Y-156523362D01*
X218307892Y-156523362D02*
X218265035Y-156566220D01*
X218265035Y-156566220D02*
X218179320Y-156609077D01*
X218179320Y-156609077D02*
X218007892Y-156609077D01*
X218007892Y-156609077D02*
X217922178Y-156566220D01*
X217922178Y-156566220D02*
X217879320Y-156523362D01*
X217879320Y-156523362D02*
X217836463Y-156437648D01*
X217836463Y-156437648D02*
X217836463Y-156223362D01*
X217836463Y-156223362D02*
X217879320Y-156137648D01*
X217879320Y-156137648D02*
X217922178Y-156094791D01*
X217922178Y-156094791D02*
X218007892Y-156051934D01*
X218007892Y-156051934D02*
X218179320Y-156051934D01*
X218179320Y-156051934D02*
X218265035Y-156094791D01*
X218265035Y-156094791D02*
X218307892Y-156137648D01*
X218307892Y-156137648D02*
X218350749Y-156223362D01*
X217279320Y-155709077D02*
X217193606Y-155709077D01*
X217193606Y-155709077D02*
X217107892Y-155751934D01*
X217107892Y-155751934D02*
X217065035Y-155794791D01*
X217065035Y-155794791D02*
X217022177Y-155880505D01*
X217022177Y-155880505D02*
X216979320Y-156051934D01*
X216979320Y-156051934D02*
X216979320Y-156266220D01*
X216979320Y-156266220D02*
X217022177Y-156437648D01*
X217022177Y-156437648D02*
X217065035Y-156523362D01*
X217065035Y-156523362D02*
X217107892Y-156566220D01*
X217107892Y-156566220D02*
X217193606Y-156609077D01*
X217193606Y-156609077D02*
X217279320Y-156609077D01*
X217279320Y-156609077D02*
X217365035Y-156566220D01*
X217365035Y-156566220D02*
X217407892Y-156523362D01*
X217407892Y-156523362D02*
X217450749Y-156437648D01*
X217450749Y-156437648D02*
X217493606Y-156266220D01*
X217493606Y-156266220D02*
X217493606Y-156051934D01*
X217493606Y-156051934D02*
X217450749Y-155880505D01*
X217450749Y-155880505D02*
X217407892Y-155794791D01*
X217407892Y-155794791D02*
X217365035Y-155751934D01*
X217365035Y-155751934D02*
X217279320Y-155709077D01*
X215436463Y-155751934D02*
X215522178Y-155709077D01*
X215522178Y-155709077D02*
X215650749Y-155709077D01*
X215650749Y-155709077D02*
X215779320Y-155751934D01*
X215779320Y-155751934D02*
X215865035Y-155837648D01*
X215865035Y-155837648D02*
X215907892Y-155923362D01*
X215907892Y-155923362D02*
X215950749Y-156094791D01*
X215950749Y-156094791D02*
X215950749Y-156223362D01*
X215950749Y-156223362D02*
X215907892Y-156394791D01*
X215907892Y-156394791D02*
X215865035Y-156480505D01*
X215865035Y-156480505D02*
X215779320Y-156566220D01*
X215779320Y-156566220D02*
X215650749Y-156609077D01*
X215650749Y-156609077D02*
X215565035Y-156609077D01*
X215565035Y-156609077D02*
X215436463Y-156566220D01*
X215436463Y-156566220D02*
X215393606Y-156523362D01*
X215393606Y-156523362D02*
X215393606Y-156223362D01*
X215393606Y-156223362D02*
X215565035Y-156223362D01*
X215007892Y-156609077D02*
X215007892Y-155709077D01*
X215007892Y-156137648D02*
X214493606Y-156137648D01*
X214493606Y-156609077D02*
X214493606Y-155709077D01*
X214150749Y-156009077D02*
X213679321Y-156009077D01*
X213679321Y-156009077D02*
X214150749Y-156609077D01*
X214150749Y-156609077D02*
X213679321Y-156609077D01*
X212265036Y-156566220D02*
X212350750Y-156609077D01*
X212350750Y-156609077D02*
X212522178Y-156609077D01*
X212522178Y-156609077D02*
X212607893Y-156566220D01*
X212607893Y-156566220D02*
X212650750Y-156523362D01*
X212650750Y-156523362D02*
X212693607Y-156437648D01*
X212693607Y-156437648D02*
X212693607Y-156180505D01*
X212693607Y-156180505D02*
X212650750Y-156094791D01*
X212650750Y-156094791D02*
X212607893Y-156051934D01*
X212607893Y-156051934D02*
X212522178Y-156009077D01*
X212522178Y-156009077D02*
X212350750Y-156009077D01*
X212350750Y-156009077D02*
X212265036Y-156051934D01*
X211750749Y-156609077D02*
X211836464Y-156566220D01*
X211836464Y-156566220D02*
X211879321Y-156523362D01*
X211879321Y-156523362D02*
X211922178Y-156437648D01*
X211922178Y-156437648D02*
X211922178Y-156180505D01*
X211922178Y-156180505D02*
X211879321Y-156094791D01*
X211879321Y-156094791D02*
X211836464Y-156051934D01*
X211836464Y-156051934D02*
X211750749Y-156009077D01*
X211750749Y-156009077D02*
X211622178Y-156009077D01*
X211622178Y-156009077D02*
X211536464Y-156051934D01*
X211536464Y-156051934D02*
X211493607Y-156094791D01*
X211493607Y-156094791D02*
X211450749Y-156180505D01*
X211450749Y-156180505D02*
X211450749Y-156437648D01*
X211450749Y-156437648D02*
X211493607Y-156523362D01*
X211493607Y-156523362D02*
X211536464Y-156566220D01*
X211536464Y-156566220D02*
X211622178Y-156609077D01*
X211622178Y-156609077D02*
X211750749Y-156609077D01*
X211065035Y-156009077D02*
X211065035Y-156909077D01*
X211065035Y-156051934D02*
X210979321Y-156009077D01*
X210979321Y-156009077D02*
X210807892Y-156009077D01*
X210807892Y-156009077D02*
X210722178Y-156051934D01*
X210722178Y-156051934D02*
X210679321Y-156094791D01*
X210679321Y-156094791D02*
X210636463Y-156180505D01*
X210636463Y-156180505D02*
X210636463Y-156437648D01*
X210636463Y-156437648D02*
X210679321Y-156523362D01*
X210679321Y-156523362D02*
X210722178Y-156566220D01*
X210722178Y-156566220D02*
X210807892Y-156609077D01*
X210807892Y-156609077D02*
X210979321Y-156609077D01*
X210979321Y-156609077D02*
X211065035Y-156566220D01*
X210250749Y-156009077D02*
X210250749Y-156909077D01*
X210250749Y-156051934D02*
X210165035Y-156009077D01*
X210165035Y-156009077D02*
X209993606Y-156009077D01*
X209993606Y-156009077D02*
X209907892Y-156051934D01*
X209907892Y-156051934D02*
X209865035Y-156094791D01*
X209865035Y-156094791D02*
X209822177Y-156180505D01*
X209822177Y-156180505D02*
X209822177Y-156437648D01*
X209822177Y-156437648D02*
X209865035Y-156523362D01*
X209865035Y-156523362D02*
X209907892Y-156566220D01*
X209907892Y-156566220D02*
X209993606Y-156609077D01*
X209993606Y-156609077D02*
X210165035Y-156609077D01*
X210165035Y-156609077D02*
X210250749Y-156566220D01*
X209093606Y-156566220D02*
X209179320Y-156609077D01*
X209179320Y-156609077D02*
X209350749Y-156609077D01*
X209350749Y-156609077D02*
X209436463Y-156566220D01*
X209436463Y-156566220D02*
X209479320Y-156480505D01*
X209479320Y-156480505D02*
X209479320Y-156137648D01*
X209479320Y-156137648D02*
X209436463Y-156051934D01*
X209436463Y-156051934D02*
X209350749Y-156009077D01*
X209350749Y-156009077D02*
X209179320Y-156009077D01*
X209179320Y-156009077D02*
X209093606Y-156051934D01*
X209093606Y-156051934D02*
X209050749Y-156137648D01*
X209050749Y-156137648D02*
X209050749Y-156223362D01*
X209050749Y-156223362D02*
X209479320Y-156309077D01*
X208665034Y-156609077D02*
X208665034Y-156009077D01*
X208665034Y-156180505D02*
X208622177Y-156094791D01*
X208622177Y-156094791D02*
X208579320Y-156051934D01*
X208579320Y-156051934D02*
X208493605Y-156009077D01*
X208493605Y-156009077D02*
X208407891Y-156009077D01*
X207422177Y-156609077D02*
X207422177Y-155709077D01*
X207036463Y-156609077D02*
X207036463Y-156137648D01*
X207036463Y-156137648D02*
X207079320Y-156051934D01*
X207079320Y-156051934D02*
X207165034Y-156009077D01*
X207165034Y-156009077D02*
X207293605Y-156009077D01*
X207293605Y-156009077D02*
X207379320Y-156051934D01*
X207379320Y-156051934D02*
X207422177Y-156094791D01*
X206265034Y-156566220D02*
X206350748Y-156609077D01*
X206350748Y-156609077D02*
X206522177Y-156609077D01*
X206522177Y-156609077D02*
X206607891Y-156566220D01*
X206607891Y-156566220D02*
X206650748Y-156480505D01*
X206650748Y-156480505D02*
X206650748Y-156137648D01*
X206650748Y-156137648D02*
X206607891Y-156051934D01*
X206607891Y-156051934D02*
X206522177Y-156009077D01*
X206522177Y-156009077D02*
X206350748Y-156009077D01*
X206350748Y-156009077D02*
X206265034Y-156051934D01*
X206265034Y-156051934D02*
X206222177Y-156137648D01*
X206222177Y-156137648D02*
X206222177Y-156223362D01*
X206222177Y-156223362D02*
X206650748Y-156309077D01*
X205836462Y-156609077D02*
X205836462Y-156009077D01*
X205836462Y-156180505D02*
X205793605Y-156094791D01*
X205793605Y-156094791D02*
X205750748Y-156051934D01*
X205750748Y-156051934D02*
X205665033Y-156009077D01*
X205665033Y-156009077D02*
X205579319Y-156009077D01*
X204936462Y-156566220D02*
X205022176Y-156609077D01*
X205022176Y-156609077D02*
X205193605Y-156609077D01*
X205193605Y-156609077D02*
X205279319Y-156566220D01*
X205279319Y-156566220D02*
X205322176Y-156480505D01*
X205322176Y-156480505D02*
X205322176Y-156137648D01*
X205322176Y-156137648D02*
X205279319Y-156051934D01*
X205279319Y-156051934D02*
X205193605Y-156009077D01*
X205193605Y-156009077D02*
X205022176Y-156009077D01*
X205022176Y-156009077D02*
X204936462Y-156051934D01*
X204936462Y-156051934D02*
X204893605Y-156137648D01*
X204893605Y-156137648D02*
X204893605Y-156223362D01*
X204893605Y-156223362D02*
X205322176Y-156309077D01*
D11*
X208799498Y-144387632D02*
X208418546Y-144387632D01*
X208656641Y-144054299D02*
X208656641Y-144911441D01*
X208656641Y-144911441D02*
X208609022Y-145006680D01*
X208609022Y-145006680D02*
X208513784Y-145054299D01*
X208513784Y-145054299D02*
X208418546Y-145054299D01*
X207656641Y-145054299D02*
X207656641Y-144530489D01*
X207656641Y-144530489D02*
X207704260Y-144435251D01*
X207704260Y-144435251D02*
X207799498Y-144387632D01*
X207799498Y-144387632D02*
X207989974Y-144387632D01*
X207989974Y-144387632D02*
X208085212Y-144435251D01*
X207656641Y-145006680D02*
X207751879Y-145054299D01*
X207751879Y-145054299D02*
X207989974Y-145054299D01*
X207989974Y-145054299D02*
X208085212Y-145006680D01*
X208085212Y-145006680D02*
X208132831Y-144911441D01*
X208132831Y-144911441D02*
X208132831Y-144816203D01*
X208132831Y-144816203D02*
X208085212Y-144720965D01*
X208085212Y-144720965D02*
X207989974Y-144673346D01*
X207989974Y-144673346D02*
X207751879Y-144673346D01*
X207751879Y-144673346D02*
X207656641Y-144625727D01*
X206751879Y-144387632D02*
X206751879Y-145197156D01*
X206751879Y-145197156D02*
X206799498Y-145292394D01*
X206799498Y-145292394D02*
X206847117Y-145340013D01*
X206847117Y-145340013D02*
X206942355Y-145387632D01*
X206942355Y-145387632D02*
X207085212Y-145387632D01*
X207085212Y-145387632D02*
X207180450Y-145340013D01*
X206751879Y-145006680D02*
X206847117Y-145054299D01*
X206847117Y-145054299D02*
X207037593Y-145054299D01*
X207037593Y-145054299D02*
X207132831Y-145006680D01*
X207132831Y-145006680D02*
X207180450Y-144959060D01*
X207180450Y-144959060D02*
X207228069Y-144863822D01*
X207228069Y-144863822D02*
X207228069Y-144578108D01*
X207228069Y-144578108D02*
X207180450Y-144482870D01*
X207180450Y-144482870D02*
X207132831Y-144435251D01*
X207132831Y-144435251D02*
X207037593Y-144387632D01*
X207037593Y-144387632D02*
X206847117Y-144387632D01*
X206847117Y-144387632D02*
X206751879Y-144435251D01*
X206132831Y-145054299D02*
X206228069Y-145006680D01*
X206228069Y-145006680D02*
X206275688Y-144911441D01*
X206275688Y-144911441D02*
X206275688Y-144054299D01*
X205370926Y-145006680D02*
X205466164Y-145054299D01*
X205466164Y-145054299D02*
X205656640Y-145054299D01*
X205656640Y-145054299D02*
X205751878Y-145006680D01*
X205751878Y-145006680D02*
X205799497Y-144911441D01*
X205799497Y-144911441D02*
X205799497Y-144530489D01*
X205799497Y-144530489D02*
X205751878Y-144435251D01*
X205751878Y-144435251D02*
X205656640Y-144387632D01*
X205656640Y-144387632D02*
X205466164Y-144387632D01*
X205466164Y-144387632D02*
X205370926Y-144435251D01*
X205370926Y-144435251D02*
X205323307Y-144530489D01*
X205323307Y-144530489D02*
X205323307Y-144625727D01*
X205323307Y-144625727D02*
X205799497Y-144720965D01*
X204942354Y-145006680D02*
X204847116Y-145054299D01*
X204847116Y-145054299D02*
X204656640Y-145054299D01*
X204656640Y-145054299D02*
X204561402Y-145006680D01*
X204561402Y-145006680D02*
X204513783Y-144911441D01*
X204513783Y-144911441D02*
X204513783Y-144863822D01*
X204513783Y-144863822D02*
X204561402Y-144768584D01*
X204561402Y-144768584D02*
X204656640Y-144720965D01*
X204656640Y-144720965D02*
X204799497Y-144720965D01*
X204799497Y-144720965D02*
X204894735Y-144673346D01*
X204894735Y-144673346D02*
X204942354Y-144578108D01*
X204942354Y-144578108D02*
X204942354Y-144530489D01*
X204942354Y-144530489D02*
X204894735Y-144435251D01*
X204894735Y-144435251D02*
X204799497Y-144387632D01*
X204799497Y-144387632D02*
X204656640Y-144387632D01*
X204656640Y-144387632D02*
X204561402Y-144435251D01*
X204132830Y-145006680D02*
X204037592Y-145054299D01*
X204037592Y-145054299D02*
X203847116Y-145054299D01*
X203847116Y-145054299D02*
X203751878Y-145006680D01*
X203751878Y-145006680D02*
X203704259Y-144911441D01*
X203704259Y-144911441D02*
X203704259Y-144863822D01*
X203704259Y-144863822D02*
X203751878Y-144768584D01*
X203751878Y-144768584D02*
X203847116Y-144720965D01*
X203847116Y-144720965D02*
X203989973Y-144720965D01*
X203989973Y-144720965D02*
X204085211Y-144673346D01*
X204085211Y-144673346D02*
X204132830Y-144578108D01*
X204132830Y-144578108D02*
X204132830Y-144530489D01*
X204132830Y-144530489D02*
X204085211Y-144435251D01*
X204085211Y-144435251D02*
X203989973Y-144387632D01*
X203989973Y-144387632D02*
X203847116Y-144387632D01*
X203847116Y-144387632D02*
X203751878Y-144435251D01*
X202513782Y-145054299D02*
X202513782Y-144387632D01*
X202513782Y-144054299D02*
X202561401Y-144101918D01*
X202561401Y-144101918D02*
X202513782Y-144149537D01*
X202513782Y-144149537D02*
X202466163Y-144101918D01*
X202466163Y-144101918D02*
X202513782Y-144054299D01*
X202513782Y-144054299D02*
X202513782Y-144149537D01*
X202037592Y-144387632D02*
X202037592Y-145054299D01*
X202037592Y-144482870D02*
X201989973Y-144435251D01*
X201989973Y-144435251D02*
X201894735Y-144387632D01*
X201894735Y-144387632D02*
X201751878Y-144387632D01*
X201751878Y-144387632D02*
X201656640Y-144435251D01*
X201656640Y-144435251D02*
X201609021Y-144530489D01*
X201609021Y-144530489D02*
X201609021Y-145054299D01*
X201228068Y-144387632D02*
X200989973Y-145054299D01*
X200989973Y-145054299D02*
X200751878Y-144387632D01*
X199989973Y-145006680D02*
X200085211Y-145054299D01*
X200085211Y-145054299D02*
X200275687Y-145054299D01*
X200275687Y-145054299D02*
X200370925Y-145006680D01*
X200370925Y-145006680D02*
X200418544Y-144911441D01*
X200418544Y-144911441D02*
X200418544Y-144530489D01*
X200418544Y-144530489D02*
X200370925Y-144435251D01*
X200370925Y-144435251D02*
X200275687Y-144387632D01*
X200275687Y-144387632D02*
X200085211Y-144387632D01*
X200085211Y-144387632D02*
X199989973Y-144435251D01*
X199989973Y-144435251D02*
X199942354Y-144530489D01*
X199942354Y-144530489D02*
X199942354Y-144625727D01*
X199942354Y-144625727D02*
X200418544Y-144720965D01*
X199513782Y-144387632D02*
X199513782Y-145054299D01*
X199513782Y-144482870D02*
X199466163Y-144435251D01*
X199466163Y-144435251D02*
X199370925Y-144387632D01*
X199370925Y-144387632D02*
X199228068Y-144387632D01*
X199228068Y-144387632D02*
X199132830Y-144435251D01*
X199132830Y-144435251D02*
X199085211Y-144530489D01*
X199085211Y-144530489D02*
X199085211Y-145054299D01*
X198751877Y-144387632D02*
X198370925Y-144387632D01*
X198609020Y-144054299D02*
X198609020Y-144911441D01*
X198609020Y-144911441D02*
X198561401Y-145006680D01*
X198561401Y-145006680D02*
X198466163Y-145054299D01*
X198466163Y-145054299D02*
X198370925Y-145054299D01*
X197894734Y-145054299D02*
X197989972Y-145006680D01*
X197989972Y-145006680D02*
X198037591Y-144959060D01*
X198037591Y-144959060D02*
X198085210Y-144863822D01*
X198085210Y-144863822D02*
X198085210Y-144578108D01*
X198085210Y-144578108D02*
X198037591Y-144482870D01*
X198037591Y-144482870D02*
X197989972Y-144435251D01*
X197989972Y-144435251D02*
X197894734Y-144387632D01*
X197894734Y-144387632D02*
X197751877Y-144387632D01*
X197751877Y-144387632D02*
X197656639Y-144435251D01*
X197656639Y-144435251D02*
X197609020Y-144482870D01*
X197609020Y-144482870D02*
X197561401Y-144578108D01*
X197561401Y-144578108D02*
X197561401Y-144863822D01*
X197561401Y-144863822D02*
X197609020Y-144959060D01*
X197609020Y-144959060D02*
X197656639Y-145006680D01*
X197656639Y-145006680D02*
X197751877Y-145054299D01*
X197751877Y-145054299D02*
X197894734Y-145054299D01*
X197132829Y-145054299D02*
X197132829Y-144387632D01*
X197132829Y-144578108D02*
X197085210Y-144482870D01*
X197085210Y-144482870D02*
X197037591Y-144435251D01*
X197037591Y-144435251D02*
X196942353Y-144387632D01*
X196942353Y-144387632D02*
X196847115Y-144387632D01*
X196609019Y-144387632D02*
X196370924Y-145054299D01*
X196132829Y-144387632D02*
X196370924Y-145054299D01*
X196370924Y-145054299D02*
X196466162Y-145292394D01*
X196466162Y-145292394D02*
X196513781Y-145340013D01*
X196513781Y-145340013D02*
X196609019Y-145387632D01*
X194989971Y-144673346D02*
X194228067Y-144673346D01*
X192561400Y-144054299D02*
X192751876Y-144054299D01*
X192751876Y-144054299D02*
X192847114Y-144101918D01*
X192847114Y-144101918D02*
X192894733Y-144149537D01*
X192894733Y-144149537D02*
X192989971Y-144292394D01*
X192989971Y-144292394D02*
X193037590Y-144482870D01*
X193037590Y-144482870D02*
X193037590Y-144863822D01*
X193037590Y-144863822D02*
X192989971Y-144959060D01*
X192989971Y-144959060D02*
X192942352Y-145006680D01*
X192942352Y-145006680D02*
X192847114Y-145054299D01*
X192847114Y-145054299D02*
X192656638Y-145054299D01*
X192656638Y-145054299D02*
X192561400Y-145006680D01*
X192561400Y-145006680D02*
X192513781Y-144959060D01*
X192513781Y-144959060D02*
X192466162Y-144863822D01*
X192466162Y-144863822D02*
X192466162Y-144625727D01*
X192466162Y-144625727D02*
X192513781Y-144530489D01*
X192513781Y-144530489D02*
X192561400Y-144482870D01*
X192561400Y-144482870D02*
X192656638Y-144435251D01*
X192656638Y-144435251D02*
X192847114Y-144435251D01*
X192847114Y-144435251D02*
X192942352Y-144482870D01*
X192942352Y-144482870D02*
X192989971Y-144530489D01*
X192989971Y-144530489D02*
X193037590Y-144625727D01*
X191561400Y-145054299D02*
X192037590Y-145054299D01*
X192037590Y-145054299D02*
X192037590Y-144054299D01*
X190466161Y-145054299D02*
X190466161Y-144387632D01*
X190466161Y-144578108D02*
X190418542Y-144482870D01*
X190418542Y-144482870D02*
X190370923Y-144435251D01*
X190370923Y-144435251D02*
X190275685Y-144387632D01*
X190275685Y-144387632D02*
X190180447Y-144387632D01*
X189847113Y-145054299D02*
X189847113Y-144387632D01*
X189847113Y-144054299D02*
X189894732Y-144101918D01*
X189894732Y-144101918D02*
X189847113Y-144149537D01*
X189847113Y-144149537D02*
X189799494Y-144101918D01*
X189799494Y-144101918D02*
X189847113Y-144054299D01*
X189847113Y-144054299D02*
X189847113Y-144149537D01*
X188942352Y-144387632D02*
X188942352Y-145197156D01*
X188942352Y-145197156D02*
X188989971Y-145292394D01*
X188989971Y-145292394D02*
X189037590Y-145340013D01*
X189037590Y-145340013D02*
X189132828Y-145387632D01*
X189132828Y-145387632D02*
X189275685Y-145387632D01*
X189275685Y-145387632D02*
X189370923Y-145340013D01*
X188942352Y-145006680D02*
X189037590Y-145054299D01*
X189037590Y-145054299D02*
X189228066Y-145054299D01*
X189228066Y-145054299D02*
X189323304Y-145006680D01*
X189323304Y-145006680D02*
X189370923Y-144959060D01*
X189370923Y-144959060D02*
X189418542Y-144863822D01*
X189418542Y-144863822D02*
X189418542Y-144578108D01*
X189418542Y-144578108D02*
X189370923Y-144482870D01*
X189370923Y-144482870D02*
X189323304Y-144435251D01*
X189323304Y-144435251D02*
X189228066Y-144387632D01*
X189228066Y-144387632D02*
X189037590Y-144387632D01*
X189037590Y-144387632D02*
X188942352Y-144435251D01*
X188466161Y-145054299D02*
X188466161Y-144387632D01*
X188466161Y-144054299D02*
X188513780Y-144101918D01*
X188513780Y-144101918D02*
X188466161Y-144149537D01*
X188466161Y-144149537D02*
X188418542Y-144101918D01*
X188418542Y-144101918D02*
X188466161Y-144054299D01*
X188466161Y-144054299D02*
X188466161Y-144149537D01*
X187561400Y-145054299D02*
X187561400Y-144054299D01*
X187561400Y-145006680D02*
X187656638Y-145054299D01*
X187656638Y-145054299D02*
X187847114Y-145054299D01*
X187847114Y-145054299D02*
X187942352Y-145006680D01*
X187942352Y-145006680D02*
X187989971Y-144959060D01*
X187989971Y-144959060D02*
X188037590Y-144863822D01*
X188037590Y-144863822D02*
X188037590Y-144578108D01*
X188037590Y-144578108D02*
X187989971Y-144482870D01*
X187989971Y-144482870D02*
X187942352Y-144435251D01*
X187942352Y-144435251D02*
X187847114Y-144387632D01*
X187847114Y-144387632D02*
X187656638Y-144387632D01*
X187656638Y-144387632D02*
X187561400Y-144435251D01*
X187085209Y-144673346D02*
X186323305Y-144673346D01*
X185989971Y-144387632D02*
X185609019Y-144387632D01*
X185847114Y-145054299D02*
X185847114Y-144197156D01*
X185847114Y-144197156D02*
X185799495Y-144101918D01*
X185799495Y-144101918D02*
X185704257Y-144054299D01*
X185704257Y-144054299D02*
X185609019Y-144054299D01*
X185132828Y-145054299D02*
X185228066Y-145006680D01*
X185228066Y-145006680D02*
X185275685Y-144911441D01*
X185275685Y-144911441D02*
X185275685Y-144054299D01*
X184370923Y-145006680D02*
X184466161Y-145054299D01*
X184466161Y-145054299D02*
X184656637Y-145054299D01*
X184656637Y-145054299D02*
X184751875Y-145006680D01*
X184751875Y-145006680D02*
X184799494Y-144911441D01*
X184799494Y-144911441D02*
X184799494Y-144530489D01*
X184799494Y-144530489D02*
X184751875Y-144435251D01*
X184751875Y-144435251D02*
X184656637Y-144387632D01*
X184656637Y-144387632D02*
X184466161Y-144387632D01*
X184466161Y-144387632D02*
X184370923Y-144435251D01*
X184370923Y-144435251D02*
X184323304Y-144530489D01*
X184323304Y-144530489D02*
X184323304Y-144625727D01*
X184323304Y-144625727D02*
X184799494Y-144720965D01*
X183989970Y-145054299D02*
X183466161Y-144387632D01*
X183989970Y-144387632D02*
X183466161Y-145054299D01*
D12*
X208537344Y-142651520D02*
X208308772Y-142727710D01*
X208308772Y-142727710D02*
X207927820Y-142727710D01*
X207927820Y-142727710D02*
X207775439Y-142651520D01*
X207775439Y-142651520D02*
X207699248Y-142575329D01*
X207699248Y-142575329D02*
X207623058Y-142422948D01*
X207623058Y-142422948D02*
X207623058Y-142270567D01*
X207623058Y-142270567D02*
X207699248Y-142118186D01*
X207699248Y-142118186D02*
X207775439Y-142041996D01*
X207775439Y-142041996D02*
X207927820Y-141965805D01*
X207927820Y-141965805D02*
X208232582Y-141889615D01*
X208232582Y-141889615D02*
X208384963Y-141813424D01*
X208384963Y-141813424D02*
X208461153Y-141737234D01*
X208461153Y-141737234D02*
X208537344Y-141584853D01*
X208537344Y-141584853D02*
X208537344Y-141432472D01*
X208537344Y-141432472D02*
X208461153Y-141280091D01*
X208461153Y-141280091D02*
X208384963Y-141203900D01*
X208384963Y-141203900D02*
X208232582Y-141127710D01*
X208232582Y-141127710D02*
X207851629Y-141127710D01*
X207851629Y-141127710D02*
X207623058Y-141203900D01*
X206937343Y-142727710D02*
X206937343Y-141127710D01*
X206937343Y-141127710D02*
X206404010Y-142270567D01*
X206404010Y-142270567D02*
X205870676Y-141127710D01*
X205870676Y-141127710D02*
X205870676Y-142727710D01*
X205184963Y-142270567D02*
X204423058Y-142270567D01*
X205337344Y-142727710D02*
X204804010Y-141127710D01*
X204804010Y-141127710D02*
X204270677Y-142727710D01*
X202823057Y-142727710D02*
X203356391Y-141965805D01*
X203737343Y-142727710D02*
X203737343Y-141127710D01*
X203737343Y-141127710D02*
X203127819Y-141127710D01*
X203127819Y-141127710D02*
X202975438Y-141203900D01*
X202975438Y-141203900D02*
X202899248Y-141280091D01*
X202899248Y-141280091D02*
X202823057Y-141432472D01*
X202823057Y-141432472D02*
X202823057Y-141661043D01*
X202823057Y-141661043D02*
X202899248Y-141813424D01*
X202899248Y-141813424D02*
X202975438Y-141889615D01*
X202975438Y-141889615D02*
X203127819Y-141965805D01*
X203127819Y-141965805D02*
X203737343Y-141965805D01*
X202365915Y-141127710D02*
X201451629Y-141127710D01*
X201908772Y-142727710D02*
X201908772Y-141127710D01*
X200384962Y-141889615D02*
X200156390Y-141965805D01*
X200156390Y-141965805D02*
X200080200Y-142041996D01*
X200080200Y-142041996D02*
X200004009Y-142194377D01*
X200004009Y-142194377D02*
X200004009Y-142422948D01*
X200004009Y-142422948D02*
X200080200Y-142575329D01*
X200080200Y-142575329D02*
X200156390Y-142651520D01*
X200156390Y-142651520D02*
X200308771Y-142727710D01*
X200308771Y-142727710D02*
X200918295Y-142727710D01*
X200918295Y-142727710D02*
X200918295Y-141127710D01*
X200918295Y-141127710D02*
X200384962Y-141127710D01*
X200384962Y-141127710D02*
X200232581Y-141203900D01*
X200232581Y-141203900D02*
X200156390Y-141280091D01*
X200156390Y-141280091D02*
X200080200Y-141432472D01*
X200080200Y-141432472D02*
X200080200Y-141584853D01*
X200080200Y-141584853D02*
X200156390Y-141737234D01*
X200156390Y-141737234D02*
X200232581Y-141813424D01*
X200232581Y-141813424D02*
X200384962Y-141889615D01*
X200384962Y-141889615D02*
X200918295Y-141889615D01*
X199394486Y-142270567D02*
X198632581Y-142270567D01*
X199546867Y-142727710D02*
X199013533Y-141127710D01*
X199013533Y-141127710D02*
X198480200Y-142727710D01*
X197108771Y-141203900D02*
X197261152Y-141127710D01*
X197261152Y-141127710D02*
X197489723Y-141127710D01*
X197489723Y-141127710D02*
X197718295Y-141203900D01*
X197718295Y-141203900D02*
X197870676Y-141356281D01*
X197870676Y-141356281D02*
X197946866Y-141508662D01*
X197946866Y-141508662D02*
X198023057Y-141813424D01*
X198023057Y-141813424D02*
X198023057Y-142041996D01*
X198023057Y-142041996D02*
X197946866Y-142346758D01*
X197946866Y-142346758D02*
X197870676Y-142499139D01*
X197870676Y-142499139D02*
X197718295Y-142651520D01*
X197718295Y-142651520D02*
X197489723Y-142727710D01*
X197489723Y-142727710D02*
X197337342Y-142727710D01*
X197337342Y-142727710D02*
X197108771Y-142651520D01*
X197108771Y-142651520D02*
X197032580Y-142575329D01*
X197032580Y-142575329D02*
X197032580Y-142041996D01*
X197032580Y-142041996D02*
X197337342Y-142041996D01*
X194213532Y-142575329D02*
X194289723Y-142651520D01*
X194289723Y-142651520D02*
X194518294Y-142727710D01*
X194518294Y-142727710D02*
X194670675Y-142727710D01*
X194670675Y-142727710D02*
X194899247Y-142651520D01*
X194899247Y-142651520D02*
X195051628Y-142499139D01*
X195051628Y-142499139D02*
X195127818Y-142346758D01*
X195127818Y-142346758D02*
X195204009Y-142041996D01*
X195204009Y-142041996D02*
X195204009Y-141813424D01*
X195204009Y-141813424D02*
X195127818Y-141508662D01*
X195127818Y-141508662D02*
X195051628Y-141356281D01*
X195051628Y-141356281D02*
X194899247Y-141203900D01*
X194899247Y-141203900D02*
X194670675Y-141127710D01*
X194670675Y-141127710D02*
X194518294Y-141127710D01*
X194518294Y-141127710D02*
X194289723Y-141203900D01*
X194289723Y-141203900D02*
X194213532Y-141280091D01*
X193223056Y-141127710D02*
X192918294Y-141127710D01*
X192918294Y-141127710D02*
X192765913Y-141203900D01*
X192765913Y-141203900D02*
X192613532Y-141356281D01*
X192613532Y-141356281D02*
X192537342Y-141661043D01*
X192537342Y-141661043D02*
X192537342Y-142194377D01*
X192537342Y-142194377D02*
X192613532Y-142499139D01*
X192613532Y-142499139D02*
X192765913Y-142651520D01*
X192765913Y-142651520D02*
X192918294Y-142727710D01*
X192918294Y-142727710D02*
X193223056Y-142727710D01*
X193223056Y-142727710D02*
X193375437Y-142651520D01*
X193375437Y-142651520D02*
X193527818Y-142499139D01*
X193527818Y-142499139D02*
X193604009Y-142194377D01*
X193604009Y-142194377D02*
X193604009Y-141661043D01*
X193604009Y-141661043D02*
X193527818Y-141356281D01*
X193527818Y-141356281D02*
X193375437Y-141203900D01*
X193375437Y-141203900D02*
X193223056Y-141127710D01*
X190937342Y-142727710D02*
X191470676Y-141965805D01*
X191851628Y-142727710D02*
X191851628Y-141127710D01*
X191851628Y-141127710D02*
X191242104Y-141127710D01*
X191242104Y-141127710D02*
X191089723Y-141203900D01*
X191089723Y-141203900D02*
X191013533Y-141280091D01*
X191013533Y-141280091D02*
X190937342Y-141432472D01*
X190937342Y-141432472D02*
X190937342Y-141661043D01*
X190937342Y-141661043D02*
X191013533Y-141813424D01*
X191013533Y-141813424D02*
X191089723Y-141889615D01*
X191089723Y-141889615D02*
X191242104Y-141965805D01*
X191242104Y-141965805D02*
X191851628Y-141965805D01*
X190251628Y-141889615D02*
X189718295Y-141889615D01*
X189489723Y-142727710D02*
X190251628Y-142727710D01*
X190251628Y-142727710D02*
X190251628Y-141127710D01*
X190251628Y-141127710D02*
X189489723Y-141127710D01*
X186518294Y-141661043D02*
X186137342Y-142727710D01*
X186137342Y-142727710D02*
X185756389Y-141661043D01*
X184842103Y-141127710D02*
X184689722Y-141127710D01*
X184689722Y-141127710D02*
X184537341Y-141203900D01*
X184537341Y-141203900D02*
X184461151Y-141280091D01*
X184461151Y-141280091D02*
X184384960Y-141432472D01*
X184384960Y-141432472D02*
X184308770Y-141737234D01*
X184308770Y-141737234D02*
X184308770Y-142118186D01*
X184308770Y-142118186D02*
X184384960Y-142422948D01*
X184384960Y-142422948D02*
X184461151Y-142575329D01*
X184461151Y-142575329D02*
X184537341Y-142651520D01*
X184537341Y-142651520D02*
X184689722Y-142727710D01*
X184689722Y-142727710D02*
X184842103Y-142727710D01*
X184842103Y-142727710D02*
X184994484Y-142651520D01*
X184994484Y-142651520D02*
X185070675Y-142575329D01*
X185070675Y-142575329D02*
X185146865Y-142422948D01*
X185146865Y-142422948D02*
X185223056Y-142118186D01*
X185223056Y-142118186D02*
X185223056Y-141737234D01*
X185223056Y-141737234D02*
X185146865Y-141432472D01*
X185146865Y-141432472D02*
X185070675Y-141280091D01*
X185070675Y-141280091D02*
X184994484Y-141203900D01*
X184994484Y-141203900D02*
X184842103Y-141127710D01*
X183623055Y-142575329D02*
X183546865Y-142651520D01*
X183546865Y-142651520D02*
X183623055Y-142727710D01*
X183623055Y-142727710D02*
X183699246Y-142651520D01*
X183699246Y-142651520D02*
X183623055Y-142575329D01*
X183623055Y-142575329D02*
X183623055Y-142727710D01*
X183013531Y-141127710D02*
X182023055Y-141127710D01*
X182023055Y-141127710D02*
X182556388Y-141737234D01*
X182556388Y-141737234D02*
X182327817Y-141737234D01*
X182327817Y-141737234D02*
X182175436Y-141813424D01*
X182175436Y-141813424D02*
X182099245Y-141889615D01*
X182099245Y-141889615D02*
X182023055Y-142041996D01*
X182023055Y-142041996D02*
X182023055Y-142422948D01*
X182023055Y-142422948D02*
X182099245Y-142575329D01*
X182099245Y-142575329D02*
X182175436Y-142651520D01*
X182175436Y-142651520D02*
X182327817Y-142727710D01*
X182327817Y-142727710D02*
X182784960Y-142727710D01*
X182784960Y-142727710D02*
X182937341Y-142651520D01*
X182937341Y-142651520D02*
X183013531Y-142575329D01*
%LPC*%
D13*
%TO.C,J2*%
X219597000Y-141635000D03*
D14*
X221597000Y-141635000D03*
X223597000Y-141635000D03*
%TD*%
%LPD*%
M02*
