%TF.GenerationSoftware,KiCad,Pcbnew,10.0.4*%
%TF.CreationDate,2026-08-31T16:23:48+02:00*%
%TF.ProjectId,smartbag_core,736d6172-7462-4616-975f-636f72652e6b,rev?*%
%TF.SameCoordinates,Original*%
%TF.FileFunction,Copper,L3,Inr*%
%TF.FilePolarity,Positive*%
%FSLAX46Y46*%
G04 Gerber Fmt 4.6, Leading zero omitted, Abs format (unit mm)*
G04 Created by KiCad (PCBNEW 10.0.4) date 2026-08-31 16:23:48*
%MOMM*%
%LPD*%
G01*
G04 APERTURE LIST*
%TA.AperFunction,ViaPad*%
%ADD10C,0.250000*%
%TD*%
%TA.AperFunction,Conductor*%
%ADD11C,0.100000*%
%TD*%
%TA.AperFunction,Conductor*%
%ADD12C,0.300000*%
%TD*%
G04 APERTURE END LIST*
D10*
%TO.N,FSR_R0*%
X249477300Y-141028200D03*
X227364000Y-149230400D03*
X227140700Y-146589300D03*
X229574200Y-149087000D03*
%TO.N,ADC0*%
X189815300Y-147509800D03*
X228719300Y-146052500D03*
X227370800Y-148574600D03*
%TO.N,VDD_CAM*%
X191466400Y-151244500D03*
X173704300Y-149369000D03*
X213389800Y-143509700D03*
X213465500Y-150182900D03*
%TO.N,GND*%
X300000000Y-155600000D03*
X143000000Y-150600000D03*
X137000000Y-145400000D03*
X161000000Y-145400000D03*
X212000000Y-157300000D03*
X164000000Y-138700000D03*
X180000000Y-138700000D03*
X228000000Y-138700000D03*
X143000000Y-145400000D03*
X208000000Y-157300000D03*
X229803957Y-150390325D03*
X120000000Y-140400000D03*
X282000000Y-150600000D03*
X158000000Y-145400000D03*
X236000000Y-157300000D03*
X128000000Y-140400000D03*
X140000000Y-145400000D03*
X285000000Y-150600000D03*
X196000000Y-138700000D03*
X188000000Y-138700000D03*
X240000000Y-157300000D03*
X304000000Y-155600000D03*
X236000000Y-138700000D03*
X192000000Y-138700000D03*
X146000000Y-150600000D03*
X120000000Y-155600000D03*
X296000000Y-140400000D03*
X264000000Y-150600000D03*
X216000000Y-138700000D03*
X261000000Y-145400000D03*
X134000000Y-145400000D03*
X184000000Y-138700000D03*
X155000000Y-145400000D03*
X292000000Y-140400000D03*
X256000000Y-157300000D03*
X152000000Y-145400000D03*
X149000000Y-150600000D03*
X217831672Y-147624305D03*
X288000000Y-145400000D03*
X172000000Y-138700000D03*
X204000000Y-138700000D03*
X261000000Y-150600000D03*
X168000000Y-138700000D03*
X190118121Y-145421668D03*
X224000000Y-138700000D03*
X176000000Y-138700000D03*
X196000000Y-157300000D03*
X270000000Y-145400000D03*
X184000000Y-157300000D03*
X158000000Y-150600000D03*
X208000000Y-138700000D03*
X244000000Y-138700000D03*
X137000000Y-150600000D03*
X252000000Y-138700000D03*
X200000000Y-157300000D03*
X282000000Y-145400000D03*
X200000000Y-138700000D03*
X124000000Y-140400000D03*
X276000000Y-145400000D03*
X124000000Y-155600000D03*
X192000000Y-157300000D03*
X270000000Y-150600000D03*
X140000000Y-150600000D03*
X232000000Y-157300000D03*
X146000000Y-145400000D03*
X296000000Y-155600000D03*
X193282482Y-145850491D03*
X273000000Y-145400000D03*
X285000000Y-145400000D03*
X155000000Y-150600000D03*
X152000000Y-150600000D03*
X220000000Y-138700000D03*
X304000000Y-140400000D03*
X134000000Y-150600000D03*
X232000000Y-138700000D03*
X240000000Y-138700000D03*
X273000000Y-150600000D03*
X264000000Y-145400000D03*
X116000000Y-140400000D03*
X248000000Y-138700000D03*
X116000000Y-155600000D03*
X204000000Y-157300000D03*
X244000000Y-157300000D03*
X168000000Y-157300000D03*
X188000000Y-157300000D03*
X276000000Y-150600000D03*
X288000000Y-150600000D03*
X243436175Y-149065984D03*
X279000000Y-145400000D03*
X128000000Y-155600000D03*
X292000000Y-155600000D03*
X252000000Y-157300000D03*
X279000000Y-150600000D03*
X300000000Y-140400000D03*
X212000000Y-138700000D03*
X161000000Y-150600000D03*
X267000000Y-150600000D03*
X248000000Y-157300000D03*
X256000000Y-138700000D03*
X149000000Y-145400000D03*
X267000000Y-145400000D03*
X164000000Y-157300000D03*
%TO.N,VDD_3V3*%
X119835200Y-145595000D03*
X257065400Y-148621500D03*
X227913500Y-141158700D03*
X232929600Y-141414700D03*
X119318900Y-149865300D03*
X196819600Y-152402400D03*
X213050600Y-152227200D03*
X210072100Y-144512500D03*
X198772100Y-141395100D03*
X212043800Y-142023800D03*
X230175800Y-141158700D03*
X125045700Y-152525700D03*
X204066300Y-152546300D03*
X206759400Y-141791300D03*
X293800800Y-152409500D03*
X201575300Y-142000000D03*
X189535900Y-153596700D03*
X227951700Y-144126500D03*
X300716300Y-146250000D03*
X172665600Y-140052400D03*
X205150000Y-141631400D03*
X227223600Y-150650000D03*
X185306600Y-149200000D03*
X204150000Y-142386200D03*
X199477500Y-147257500D03*
X299750000Y-150680400D03*
X191417800Y-145192000D03*
X235209300Y-151350000D03*
X182550700Y-152365300D03*
%TO.N,VDD_1V8*%
X122772800Y-150666900D03*
X296750000Y-146250000D03*
X296750000Y-149750000D03*
X122082000Y-152052200D03*
X123250000Y-146250000D03*
X122750000Y-145301100D03*
X297021100Y-150600400D03*
X210021300Y-152356300D03*
X123250000Y-149750000D03*
X297946800Y-151988500D03*
X120222600Y-152146700D03*
X296100500Y-151995200D03*
X299750000Y-146250000D03*
X197998400Y-140968300D03*
X209174500Y-144890100D03*
X297377800Y-144860600D03*
X209940500Y-142500000D03*
X208090100Y-140968300D03*
X120250000Y-149750000D03*
%TO.N,X24L_1*%
X120387200Y-150607100D03*
X121008800Y-142570000D03*
%TO.N,FSR_C1*%
X247614800Y-153420200D03*
X242377900Y-141590300D03*
X229785000Y-155350000D03*
%TO.N,VREF*%
X235592400Y-153774700D03*
X235035400Y-150018800D03*
X234784200Y-145534700D03*
%TO.N,FSR_R3*%
X251179700Y-138589600D03*
X235033800Y-149367500D03*
X234958300Y-146050300D03*
X238701700Y-140380600D03*
%TO.N,ADC3*%
X190407500Y-148576400D03*
X227928200Y-148263800D03*
%TO.N,IMU_INT1*%
X205357500Y-149794400D03*
X205394300Y-143551700D03*
%TO.N,I2C_SCL*%
X200019900Y-142551900D03*
X204581100Y-141552800D03*
X181727100Y-151317200D03*
X205069400Y-142317400D03*
X176533400Y-151351400D03*
X205171800Y-150950000D03*
%TO.N,I2C_SDA*%
X207764300Y-150026900D03*
X198041600Y-141449400D03*
X198012700Y-146861100D03*
X179175700Y-148768100D03*
X197254200Y-151559900D03*
X199458200Y-147704300D03*
%TO.N,VBAT*%
X214573600Y-143115900D03*
X216485300Y-152076000D03*
X215475000Y-147625400D03*
%TO.N,FSR_C7*%
X243387400Y-154327600D03*
X247619200Y-149244400D03*
X244732500Y-141197300D03*
%TO.N,DCC*%
X182697300Y-151603300D03*
X192314900Y-144370800D03*
%TO.N,XTAL32K_2*%
X189652800Y-143950000D03*
X187679200Y-146200000D03*
%TO.N,MUX_S0*%
X223994200Y-152634000D03*
X190421200Y-146566100D03*
X237883300Y-152577000D03*
%TO.N,MUX_S1*%
X223250400Y-153051600D03*
X190409000Y-147000000D03*
X247371200Y-155033900D03*
X229423700Y-153538800D03*
%TO.N,ADC1*%
X231378200Y-146181800D03*
X228672100Y-153350600D03*
X229332100Y-152176500D03*
X189859400Y-148078300D03*
%TO.N,ADC2*%
X190422900Y-148068700D03*
X233151700Y-152308200D03*
X232761600Y-146889000D03*
%TO.N,MUX_S2*%
X232462700Y-156383500D03*
X190052200Y-149336700D03*
%TO.N,MUX_S3*%
X254613900Y-155759600D03*
X190437100Y-152658700D03*
X241045200Y-157322600D03*
X190109400Y-149800000D03*
X231367000Y-157322600D03*
X193484300Y-152677100D03*
%TO.N,SPI_SCK*%
X190722300Y-150527700D03*
X255155600Y-157389300D03*
X301397100Y-149776500D03*
X174250000Y-149353300D03*
X228427500Y-156556300D03*
X133280400Y-144906400D03*
%TO.N,SPI_MOSI*%
X300748700Y-147390800D03*
X118877900Y-148599800D03*
X174671400Y-151130300D03*
X191273600Y-150803300D03*
X296484300Y-146778800D03*
%TO.N,CS_RADAR_L*%
X120250000Y-146250000D03*
X192196400Y-151578200D03*
%TO.N,SPI_MISO*%
X228285300Y-155240100D03*
X175250000Y-151132700D03*
X118883700Y-146288600D03*
X296484800Y-148772600D03*
X245420400Y-156636800D03*
X190642600Y-154297300D03*
X196844800Y-154515900D03*
X192282100Y-151935100D03*
%TO.N,CS_RADAR_R*%
X299750000Y-149750000D03*
X190434100Y-152044300D03*
X244890700Y-157222100D03*
X228853800Y-156492200D03*
%TO.N,CS_CAM*%
X192745600Y-152348000D03*
X175828900Y-151130600D03*
%TO.N,RADAR_EN*%
X192951600Y-151771300D03*
X193382000Y-152123600D03*
X298250000Y-145117400D03*
X118460600Y-151248000D03*
%TO.N,RADAR_IRQ_L*%
X118321700Y-150316600D03*
X192879200Y-153140300D03*
%TO.N,RADAR_IRQ_R*%
X298298900Y-147531400D03*
X295332700Y-147531400D03*
X194600000Y-151583200D03*
%TO.N,MUX_EN_N*%
X254617800Y-154486700D03*
X226029500Y-156937800D03*
X224868200Y-155576700D03*
X195015000Y-151999400D03*
%TO.N,SWDIO*%
X197829000Y-150007700D03*
X182188600Y-149542100D03*
X175100000Y-142003400D03*
%TO.N,SWDCLK*%
X197580100Y-150368600D03*
X174100000Y-142013700D03*
X180965100Y-149587000D03*
%TO.N,HALL_OUT*%
X189748800Y-148855700D03*
X197906200Y-149020900D03*
X185031700Y-151020200D03*
%TO.N,NRESET*%
X222625000Y-148242700D03*
X209087400Y-148074800D03*
%TO.N,ANT_FEED*%
X167298300Y-151979600D03*
X197934200Y-147639400D03*
X170913100Y-146381600D03*
%TO.N,DECRF*%
X192499600Y-142647000D03*
X197583900Y-147000000D03*
%TO.N,XTAL32M_1*%
X197578600Y-146600000D03*
X184632700Y-142465700D03*
%TO.N,XTAL32M_2*%
X186044700Y-141159900D03*
X197584800Y-146181700D03*
%TO.N,IR_LED_EN*%
X196536700Y-144953700D03*
X183876100Y-144503600D03*
%TO.N,TOF_XSHUT*%
X195618400Y-144430700D03*
X179843800Y-149448300D03*
%TO.N,ADC4*%
X209625000Y-144084300D03*
X226928200Y-149697700D03*
X236324600Y-148718100D03*
%TO.N,ADC5*%
X208491800Y-143759300D03*
X237206800Y-153309200D03*
X241368500Y-147377700D03*
X221232500Y-152904900D03*
%TO.N,TOF_INT*%
X194188500Y-144423000D03*
X182058700Y-151651100D03*
%TO.N,DECA*%
X193556300Y-144416600D03*
X187509700Y-145700000D03*
%TO.N,DECD*%
X187474700Y-146804700D03*
X193000000Y-144411300D03*
%TO.N,FSR_C0*%
X247622200Y-153966100D03*
X242129200Y-141839000D03*
X227142600Y-155576800D03*
%TO.N,X24R_1*%
X294936500Y-142916500D03*
X300105200Y-145791200D03*
X291492000Y-143178800D03*
%TO.N,FSR_SINK*%
X233650000Y-144709100D03*
X238188900Y-148658100D03*
%TO.N,FSR_C6*%
X247340900Y-149871100D03*
X242628700Y-154543600D03*
X244239400Y-141197300D03*
%TO.N,FSR_C5*%
X238738200Y-155036500D03*
X246376900Y-150420700D03*
X243605100Y-141399000D03*
%TO.N,FSR_C4*%
X246085800Y-150185600D03*
X237698900Y-155070700D03*
X242978300Y-141750800D03*
%TO.N,FSR_C3*%
X234097900Y-155706900D03*
X239206500Y-155350800D03*
X243042700Y-141399000D03*
X245044000Y-151878700D03*
X247027100Y-151867600D03*
%TO.N,FSR_C2*%
X242683900Y-141399000D03*
X233101200Y-155314600D03*
X247614400Y-152525000D03*
%TO.N,FSR_C15*%
X253966700Y-153120500D03*
X246545600Y-153217800D03*
X248549200Y-141175800D03*
%TO.N,FSR_C14*%
X245587000Y-154176100D03*
X254072900Y-152768700D03*
X250781800Y-141710200D03*
%TO.N,FSR_C13*%
X254469000Y-152096800D03*
X239979200Y-155158000D03*
X247621400Y-141601100D03*
%TO.N,FSR_C12*%
X254229300Y-151811900D03*
X237194000Y-155350800D03*
X247150000Y-141600700D03*
%TO.N,FSR_C11*%
X246419800Y-141035600D03*
X254612400Y-151174100D03*
X234429100Y-155255400D03*
%TO.N,FSR_C10*%
X254445000Y-150770300D03*
X232590000Y-154654900D03*
X242247700Y-142455300D03*
X247898100Y-141902700D03*
%TO.N,FSR_C9*%
X254449700Y-149943600D03*
X229790100Y-154086900D03*
X245650000Y-141383800D03*
X244068900Y-141524300D03*
%TO.N,FSR_C8*%
X245186600Y-141082100D03*
X228500000Y-153905200D03*
X254446600Y-149275000D03*
%TO.N,VBUSOUT*%
X215371300Y-146187600D03*
X218093700Y-142073700D03*
%TO.N,VSYS*%
X203714800Y-146279000D03*
X221035100Y-147575100D03*
X217434600Y-143882300D03*
X208206200Y-146453900D03*
X207652400Y-142599100D03*
X182442700Y-150934000D03*
X224340800Y-142541700D03*
%TO.N,NTC*%
X220000000Y-142228800D03*
X217325300Y-147788600D03*
%TO.N,SW1*%
X209063200Y-146133900D03*
X208650000Y-152813800D03*
%TO.N,LED0*%
X217150600Y-144140500D03*
X225128500Y-148535900D03*
%TO.N,FSR_R1*%
X229940000Y-146049800D03*
X236288600Y-140056200D03*
X229590400Y-151937300D03*
%TO.N,VQI*%
X223020300Y-151020000D03*
X215409300Y-146744300D03*
X216478900Y-143125500D03*
%TO.N,SW2*%
X208198300Y-147274600D03*
X208315300Y-152127600D03*
%TO.N,FSR_R4*%
X250819000Y-141045200D03*
X237399600Y-147102300D03*
%TO.N,FSR_R2*%
X233026800Y-147452600D03*
X233094800Y-151870400D03*
X250024500Y-141053900D03*
%TO.N,IR_LED_K*%
X182760800Y-144890100D03*
X181575400Y-149603300D03*
%TO.N,X24R_2*%
X301004500Y-142500000D03*
X299165200Y-145392000D03*
%TO.N,X24L_2*%
X128510300Y-142065700D03*
X117927100Y-142058000D03*
X121208000Y-149792000D03*
%TO.N,FSR_R5*%
X251159500Y-141388200D03*
X239086700Y-147760700D03*
X235266000Y-152429400D03*
%TD*%
%TO.N,FSR_R0*%
D11*
X249477300Y-141028200D02*
X249787200Y-141338100D01*
X250307900Y-141164000D02*
X250307900Y-140923500D01*
X238503700Y-139902200D02*
X238433200Y-139972700D01*
X238433200Y-139972700D02*
X237404300Y-139972700D01*
X227140700Y-146589300D02*
X227078700Y-146651300D01*
X227078700Y-148945100D02*
X227364000Y-149230400D01*
X227078700Y-146651300D02*
X227078700Y-148945100D01*
X238970300Y-139972700D02*
X238899800Y-139902200D01*
X250307900Y-140923500D02*
X249357100Y-139972700D01*
X231940500Y-145436500D02*
X231940500Y-146720700D01*
X238899800Y-139902200D02*
X238503700Y-139902200D01*
X249787200Y-141338100D02*
X250133800Y-141338100D01*
X237404300Y-139972700D02*
X231940500Y-145436500D01*
X231940500Y-146720700D02*
X229574200Y-149087000D01*
X249357100Y-139972700D02*
X238970300Y-139972700D01*
X250133800Y-141338100D02*
X250307900Y-141164000D01*
%TO.N,ADC0*%
X227370800Y-148574600D02*
X227653000Y-148856800D01*
X227653000Y-149367500D02*
X224834200Y-152186300D01*
X227370800Y-147401000D02*
X227370800Y-148574600D01*
X227653000Y-148856800D02*
X227653000Y-149367500D01*
X196013000Y-152722200D02*
X196013000Y-151749300D01*
X197209900Y-153634100D02*
X196924900Y-153634100D01*
X224834200Y-152186300D02*
X224834200Y-152471500D01*
X223573900Y-153731800D02*
X197307600Y-153731800D01*
X196013000Y-151749300D02*
X191773500Y-147509800D01*
X191773500Y-147509800D02*
X189815300Y-147509800D01*
X224834200Y-152471500D02*
X223573900Y-153731800D01*
X196924900Y-153634100D02*
X196013000Y-152722200D01*
X197307600Y-153731800D02*
X197209900Y-153634100D01*
X228719300Y-146052500D02*
X227370800Y-147401000D01*
%TO.N,VDD_CAM*%
X173704300Y-149369000D02*
X174387900Y-150052600D01*
X213465500Y-143585400D02*
X213389800Y-143509700D01*
X183146700Y-154162000D02*
X189778200Y-154162000D01*
X174387900Y-150052600D02*
X179037300Y-150052600D01*
X213465500Y-150182900D02*
X213465500Y-143585400D01*
X191349500Y-152590700D02*
X191349500Y-151361400D01*
X189778200Y-154162000D02*
X191349500Y-152590700D01*
X179037300Y-150052600D02*
X183146700Y-154162000D01*
X191349500Y-151361400D02*
X191466400Y-151244500D01*
%TO.N,VDD_3V3*%
D12*
X125045700Y-152525700D02*
X121871900Y-152525700D01*
X299204300Y-150652100D02*
X299232600Y-150680400D01*
X185306600Y-149200000D02*
X187184000Y-149200000D01*
X191192000Y-145192000D02*
X191417800Y-145192000D01*
X234723300Y-139621000D02*
X232929600Y-141414700D01*
X201575300Y-142000000D02*
X200970400Y-141395100D01*
X206759400Y-141791300D02*
X206991900Y-142023800D01*
X238358100Y-139550500D02*
X238287600Y-139621000D01*
X299204300Y-147833400D02*
X299204300Y-150652100D01*
X239045400Y-139550500D02*
X238358100Y-139550500D01*
X121871900Y-152525700D02*
X121304400Y-151958200D01*
X228355500Y-147078200D02*
X229160600Y-146273100D01*
X204150000Y-146880700D02*
X203771600Y-147259100D01*
X227913500Y-141643000D02*
X227913500Y-144088300D01*
X119318900Y-149865300D02*
X119318900Y-146111300D01*
X199477500Y-147259100D02*
X199288000Y-147259100D01*
X120238400Y-151064900D02*
X119318900Y-150145400D01*
X227913500Y-141158700D02*
X230175800Y-141158700D01*
X203771600Y-152251600D02*
X204066300Y-152546300D01*
X213038800Y-147479200D02*
X213038800Y-152215400D01*
X199288000Y-147259100D02*
X197952900Y-148594200D01*
X187184000Y-149200000D02*
X191192000Y-145192000D01*
X299750000Y-150680400D02*
X299232600Y-150680400D01*
X298127200Y-152446900D02*
X293838200Y-152446900D01*
X204150000Y-142386200D02*
X204395200Y-142386200D01*
X293838200Y-152446900D02*
X293800800Y-152409500D01*
X285382000Y-148621500D02*
X257065400Y-148621500D01*
X182550700Y-152365300D02*
X182157500Y-152365300D01*
X196819600Y-149504200D02*
X195730000Y-149504200D01*
X257065400Y-146686400D02*
X250000000Y-139621000D01*
X204395200Y-142386200D02*
X205150000Y-141631400D01*
X238287600Y-139621000D02*
X234723300Y-139621000D01*
X235209300Y-151350000D02*
X233722900Y-152836400D01*
X300716300Y-146250000D02*
X300716300Y-146321400D01*
X120670500Y-151064900D02*
X120238400Y-151064900D01*
X230175800Y-141158700D02*
X232673600Y-141158700D01*
X227223600Y-150650000D02*
X228355500Y-149518100D01*
X134698000Y-142873400D02*
X125045700Y-152525700D01*
X227913500Y-141158700D02*
X227913500Y-141643000D01*
X119318900Y-146111300D02*
X119835200Y-145595000D01*
X210072100Y-144512500D02*
X213038800Y-147479200D01*
X210392200Y-142023800D02*
X210392200Y-144192400D01*
X228355500Y-149518100D02*
X228355500Y-147078200D01*
X213038800Y-152215400D02*
X213050600Y-152227200D01*
X297145300Y-145774400D02*
X288229100Y-145774400D01*
X239115900Y-139621000D02*
X239045400Y-139550500D01*
X227913500Y-141643000D02*
X212424600Y-141643000D01*
X203771600Y-147259100D02*
X199477500Y-147259100D01*
X227913500Y-144088300D02*
X227951700Y-144126500D01*
X206991900Y-142023800D02*
X210392200Y-142023800D01*
X205309900Y-141791300D02*
X206759400Y-141791300D01*
X210392200Y-142023800D02*
X212043800Y-142023800D01*
X197952900Y-148594200D02*
X197729600Y-148594200D01*
X199477500Y-147259100D02*
X199477500Y-147257500D01*
X121304400Y-151698800D02*
X120670500Y-151064900D01*
X257065400Y-148621500D02*
X257065400Y-146686400D01*
X185306600Y-149609400D02*
X182550700Y-152365300D01*
X205150000Y-141631400D02*
X205309900Y-141791300D01*
X250000000Y-139621000D02*
X239115900Y-139621000D01*
X185306600Y-149200000D02*
X185306600Y-149609400D01*
X172665600Y-142873400D02*
X134698000Y-142873400D01*
X197729600Y-148594200D02*
X196819600Y-149504200D01*
X288229100Y-145774400D02*
X285382000Y-148621500D01*
X300716300Y-146321400D02*
X299204300Y-147833400D01*
X229160600Y-145335400D02*
X227951700Y-144126500D01*
X204150000Y-142386200D02*
X204150000Y-146880700D01*
X299204300Y-147833400D02*
X297145300Y-145774400D01*
X203763800Y-142000000D02*
X201575300Y-142000000D01*
X182157500Y-152365300D02*
X172665600Y-142873400D01*
X227223600Y-150956800D02*
X227223600Y-150650000D01*
X119318900Y-150145400D02*
X119318900Y-149865300D01*
X121304400Y-151958200D02*
X121304400Y-151698800D01*
X172665600Y-140052400D02*
X172665600Y-142873400D01*
X195730000Y-149504200D02*
X191417800Y-145192000D01*
X189535900Y-153596700D02*
X188304500Y-152365300D01*
X204150000Y-142386200D02*
X203763800Y-142000000D01*
X210392200Y-144192400D02*
X210072100Y-144512500D01*
X196819600Y-149504200D02*
X196819600Y-152402400D01*
X229160600Y-146273100D02*
X229160600Y-145335400D01*
X299232600Y-150680400D02*
X299232600Y-151341500D01*
X229103200Y-152836400D02*
X227223600Y-150956800D01*
X233722900Y-152836400D02*
X229103200Y-152836400D01*
X188304500Y-152365300D02*
X182550700Y-152365300D01*
X299232600Y-151341500D02*
X298127200Y-152446900D01*
X200970400Y-141395100D02*
X198772100Y-141395100D01*
X232673600Y-141158700D02*
X232929600Y-141414700D01*
X212424600Y-141643000D02*
X212043800Y-142023800D01*
X203771600Y-147259100D02*
X203771600Y-152251600D01*
%TO.N,VDD_1V8*%
X196575000Y-139544900D02*
X197998400Y-140968300D01*
X123250000Y-150884200D02*
X123250000Y-149750000D01*
X122772800Y-150666900D02*
X122772800Y-150227200D01*
X210021300Y-152356300D02*
X210021300Y-145736900D01*
X120250000Y-149750000D02*
X120727200Y-150227200D01*
X296750000Y-149750000D02*
X296920700Y-149579300D01*
X209889100Y-139169300D02*
X208090100Y-140968300D01*
X172482500Y-139544900D02*
X196575000Y-139544900D01*
X209174500Y-144890100D02*
X209174500Y-143266000D01*
X210021300Y-145736900D02*
X209174500Y-144890100D01*
X296100500Y-151249900D02*
X296750000Y-150600400D01*
X120727200Y-150227200D02*
X122772800Y-150227200D01*
X170042100Y-141985300D02*
X172482500Y-139544900D01*
X238100600Y-139169300D02*
X209889100Y-139169300D01*
X295090100Y-142435300D02*
X255925200Y-142435300D01*
X209174500Y-143266000D02*
X209940500Y-142500000D01*
X239302900Y-139169300D02*
X239232400Y-139098800D01*
X296920700Y-146420700D02*
X296750000Y-146250000D01*
X122772800Y-150227200D02*
X123250000Y-149750000D01*
X298767200Y-146250000D02*
X299750000Y-146250000D01*
X296750000Y-150600400D02*
X297021100Y-150600400D01*
X125679400Y-146250000D02*
X129944100Y-141985300D01*
X252659200Y-139169300D02*
X239302900Y-139169300D01*
X238171100Y-139098800D02*
X238100600Y-139169300D01*
X297377800Y-144723000D02*
X295090100Y-142435300D01*
X297377800Y-144860600D02*
X298767200Y-146250000D01*
X296920700Y-149579300D02*
X296920700Y-146420700D01*
X123250000Y-146250000D02*
X125679400Y-146250000D01*
X123250000Y-146250000D02*
X123250000Y-149750000D01*
X255925200Y-142435300D02*
X252659200Y-139169300D01*
X122082000Y-152052200D02*
X123250000Y-150884200D01*
X296107200Y-151988500D02*
X296100500Y-151995200D01*
X297946800Y-151988500D02*
X296107200Y-151988500D01*
X239232400Y-139098800D02*
X238171100Y-139098800D01*
X123250000Y-146250000D02*
X122750000Y-145750000D01*
X129944100Y-141985300D02*
X170042100Y-141985300D01*
X122750000Y-145750000D02*
X122750000Y-145301100D01*
X297377800Y-144860600D02*
X297377800Y-144723000D01*
X296750000Y-149750000D02*
X296750000Y-150600400D01*
X296100500Y-151995200D02*
X296100500Y-151249900D01*
%TO.N,X24L_1*%
D11*
X121008800Y-148491200D02*
X119848900Y-149651100D01*
X119848900Y-149651100D02*
X119848900Y-150068800D01*
X119848900Y-150068800D02*
X120387200Y-150607100D01*
X121008800Y-142570000D02*
X121008800Y-148491200D01*
%TO.N,FSR_C1*%
X242524500Y-142017100D02*
X242424800Y-141917400D01*
X242851800Y-156032200D02*
X233427600Y-156032200D01*
X232780400Y-155385000D02*
X232780400Y-155350000D01*
X233219300Y-154777000D02*
X234627200Y-154777000D01*
X247390200Y-153420200D02*
X244879500Y-155930900D01*
X247614800Y-153420200D02*
X247390200Y-153420200D01*
X234627200Y-154777000D02*
X234943700Y-155093500D01*
X244879500Y-155930900D02*
X242953100Y-155930900D01*
X242424800Y-141917400D02*
X242424800Y-141637200D01*
X233427600Y-156032200D02*
X232780400Y-155385000D01*
X234943700Y-155093500D02*
X236531800Y-155093500D01*
X236531800Y-155093500D02*
X242524500Y-149100800D01*
X232780400Y-155350000D02*
X232780400Y-155215900D01*
X242953100Y-155930900D02*
X242851800Y-156032200D01*
X232780400Y-155350000D02*
X229785000Y-155350000D01*
X242424800Y-141637200D02*
X242377900Y-141590300D01*
X232780400Y-155215900D02*
X233219300Y-154777000D01*
X242524500Y-149100800D02*
X242524500Y-142017100D01*
%TO.N,VREF*%
X235173000Y-150018800D02*
X235310600Y-149881200D01*
X235794100Y-150639900D02*
X235173000Y-150018800D01*
X235173000Y-150018800D02*
X235035400Y-150018800D01*
X234865200Y-145534700D02*
X234784200Y-145534700D01*
X235310600Y-149881200D02*
X235310600Y-145980100D01*
X235794100Y-153573000D02*
X235794100Y-150639900D01*
X235310600Y-145980100D02*
X234865200Y-145534700D01*
X235592400Y-153774700D02*
X235794100Y-153573000D01*
%TO.N,FSR_R3*%
X233365200Y-144592500D02*
X233365200Y-144863500D01*
X234552000Y-146050300D02*
X234958300Y-146050300D01*
X233365200Y-144863500D02*
X234552000Y-146050300D01*
X234958300Y-146050300D02*
X235033800Y-146125800D01*
X238701700Y-140380600D02*
X237577100Y-140380600D01*
X237577100Y-140380600D02*
X233365200Y-144592500D01*
X235033800Y-146125800D02*
X235033800Y-149367500D01*
%TO.N,ADC3*%
X190138800Y-148307700D02*
X190407500Y-148576400D01*
X190138800Y-147894500D02*
X190138800Y-148307700D01*
X227928200Y-148263800D02*
X227928200Y-149377500D01*
X223657400Y-153933500D02*
X197224100Y-153933500D01*
X197224100Y-153933500D02*
X197126400Y-153835800D01*
X190300500Y-147732800D02*
X190138800Y-147894500D01*
X196840600Y-153835800D02*
X195811300Y-152806500D01*
X227928200Y-149377500D02*
X225035900Y-152269800D01*
X197126400Y-153835800D02*
X196840600Y-153835800D01*
X225035900Y-152555000D02*
X223657400Y-153933500D01*
X195811300Y-151832800D02*
X191711300Y-147732800D01*
X191711300Y-147732800D02*
X190300500Y-147732800D01*
X195811300Y-152806500D02*
X195811300Y-151832800D01*
X225035900Y-152269800D02*
X225035900Y-152555000D01*
%TO.N,IMU_INT1*%
X205357500Y-149794400D02*
X205394300Y-149757600D01*
X205394300Y-149757600D02*
X205394300Y-143551700D01*
%TO.N,I2C_SCL*%
X197439000Y-147281900D02*
X197983200Y-147281900D01*
X200019900Y-142551900D02*
X199351900Y-142551900D01*
X197983200Y-147281900D02*
X199351900Y-145913200D01*
X199351900Y-145913200D02*
X199351900Y-142551900D01*
X204018400Y-140990100D02*
X204581100Y-141552800D01*
X198659600Y-140990100D02*
X204018400Y-140990100D01*
X193418500Y-143261400D02*
X197439000Y-147281900D01*
X205069400Y-150847600D02*
X205171800Y-150950000D01*
X183716400Y-148983800D02*
X183716400Y-148763100D01*
X198417700Y-141232000D02*
X198659600Y-140990100D01*
X199351900Y-142551900D02*
X198417700Y-141617700D01*
X205069400Y-142317400D02*
X205069400Y-150847600D01*
X181727100Y-150973100D02*
X183716400Y-148983800D01*
X189218100Y-143261400D02*
X193418500Y-143261400D01*
X198417700Y-141617700D02*
X198417700Y-141232000D01*
X183716400Y-148763100D02*
X189218100Y-143261400D01*
X181727100Y-151317200D02*
X181727100Y-150973100D01*
%TO.N,I2C_SDA*%
X179175700Y-148768100D02*
X179623300Y-148768100D01*
X179623300Y-148768100D02*
X180964500Y-150109300D01*
X182020400Y-150109300D02*
X183242400Y-148887300D01*
X195175000Y-140833000D02*
X195820300Y-141478300D01*
X183242400Y-148887300D02*
X183242400Y-142876400D01*
X197254200Y-151559900D02*
X199458200Y-149355900D01*
X199458200Y-149355900D02*
X199458200Y-147704300D01*
X180964500Y-150109300D02*
X182020400Y-150109300D01*
X197254200Y-151559900D02*
X198625500Y-152931200D01*
X198625500Y-152931200D02*
X204860000Y-152931200D01*
X185285800Y-140833000D02*
X195175000Y-140833000D01*
X204860000Y-152931200D02*
X207764300Y-150026900D01*
X183242400Y-142876400D02*
X185285800Y-140833000D01*
X198012700Y-146861100D02*
X198012700Y-141478300D01*
X195820300Y-141478300D02*
X198012700Y-141478300D01*
X198012700Y-141478300D02*
X198041600Y-141449400D01*
%TO.N,VBAT*%
D12*
X216485300Y-152076000D02*
X215475000Y-151065700D01*
X214573600Y-146724000D02*
X215475000Y-147625400D01*
X214573600Y-143115900D02*
X214573600Y-146724000D01*
X215475000Y-151065700D02*
X215475000Y-147625400D01*
%TO.N,FSR_C7*%
D11*
X243387400Y-154327600D02*
X243561600Y-154327600D01*
X247619200Y-149244400D02*
X244732500Y-146357700D01*
X243561600Y-154327600D02*
X246182000Y-151707200D01*
X247619200Y-150497900D02*
X247619200Y-149244400D01*
X246409900Y-151707200D02*
X247619200Y-150497900D01*
X244732500Y-146357700D02*
X244732500Y-141197300D01*
X246182000Y-151707200D02*
X246409900Y-151707200D01*
%TO.N,DCC*%
X182697300Y-151281300D02*
X185546500Y-148432100D01*
X182697300Y-151603300D02*
X182697300Y-151281300D01*
X186538500Y-148432100D02*
X190599800Y-144370800D01*
X190599800Y-144370800D02*
X192314900Y-144370800D01*
X185546500Y-148432100D02*
X186538500Y-148432100D01*
%TO.N,XTAL32K_2*%
X187679200Y-146200000D02*
X187679200Y-145923600D01*
X187679200Y-145923600D02*
X189652800Y-143950000D01*
%TO.N,MUX_S0*%
X223366500Y-153328400D02*
X197474600Y-153328400D01*
X197474600Y-153328400D02*
X197376900Y-153230700D01*
X196416400Y-151582300D02*
X191400200Y-146566100D01*
X197376900Y-153230700D02*
X197091900Y-153230700D01*
X191400200Y-146566100D02*
X190421200Y-146566100D01*
X223994200Y-152634000D02*
X223994200Y-152700700D01*
X196416400Y-152555200D02*
X196416400Y-151582300D01*
X197091900Y-153230700D02*
X196416400Y-152555200D01*
X223994200Y-152700700D02*
X223366500Y-153328400D01*
%TO.N,MUX_S1*%
X223490400Y-153530100D02*
X197391100Y-153530100D01*
X224333100Y-152687400D02*
X223490400Y-153530100D01*
X224333100Y-152575600D02*
X224333100Y-152687400D01*
X191549000Y-147000100D02*
X190409000Y-147000100D01*
X197008400Y-153432400D02*
X196214700Y-152638700D01*
X223250400Y-152948800D02*
X223891400Y-152307800D01*
X197391100Y-153530100D02*
X197293400Y-153432400D01*
X196214700Y-152638700D02*
X196214700Y-151665800D01*
X196214700Y-151665800D02*
X191549000Y-147000100D01*
X190409000Y-147000100D02*
X190409000Y-147000000D01*
X223250400Y-153051600D02*
X223250400Y-152948800D01*
X197293400Y-153432400D02*
X197008400Y-153432400D01*
X223891400Y-152307800D02*
X224065300Y-152307800D01*
X224065300Y-152307800D02*
X224333100Y-152575600D01*
%TO.N,ADC1*%
X190617600Y-149215300D02*
X189859400Y-148457100D01*
X227668400Y-154336900D02*
X197057100Y-154336900D01*
X195407900Y-151999800D02*
X192623400Y-149215300D01*
X229295900Y-152140300D02*
X229332100Y-152176500D01*
X197057100Y-154336900D02*
X196959400Y-154239200D01*
X228654700Y-153350600D02*
X227668400Y-154336900D01*
X229295900Y-148264100D02*
X229295900Y-152140300D01*
X189859400Y-148457100D02*
X189859400Y-148078300D01*
X196673600Y-154239200D02*
X195407900Y-152973500D01*
X192623400Y-149215300D02*
X190617600Y-149215300D01*
X195407900Y-152973500D02*
X195407900Y-151999800D01*
X196959400Y-154239200D02*
X196673600Y-154239200D01*
X228672100Y-153350600D02*
X228654700Y-153350600D01*
X231378200Y-146181800D02*
X229295900Y-148264100D01*
%TO.N,ADC2*%
X197140600Y-154135200D02*
X197042900Y-154037500D01*
X233896100Y-153205600D02*
X228918400Y-153205600D01*
X235592400Y-151200000D02*
X235592400Y-151509300D01*
X233151700Y-152308200D02*
X233101600Y-152308200D01*
X228786700Y-153073900D02*
X224802200Y-153073900D01*
X195609600Y-152890000D02*
X195609600Y-151916300D01*
X224802200Y-153073900D02*
X223740900Y-154135200D01*
X196757100Y-154037500D02*
X195609600Y-152890000D01*
X232750000Y-146900600D02*
X232761600Y-146889000D01*
X235592400Y-151509300D02*
X233896100Y-153205600D01*
X234464800Y-150995100D02*
X235387500Y-150995100D01*
X195609600Y-151916300D02*
X191762000Y-148068700D01*
X233151700Y-152308200D02*
X234464800Y-150995100D01*
X235387500Y-150995100D02*
X235592400Y-151200000D01*
X233101600Y-152308200D02*
X232750000Y-151956600D01*
X232750000Y-151956600D02*
X232750000Y-146900600D01*
X197042900Y-154037500D02*
X196757100Y-154037500D01*
X228918400Y-153205600D02*
X228786700Y-153073900D01*
X223740900Y-154135200D02*
X197140600Y-154135200D01*
X191762000Y-148068700D02*
X190422900Y-148068700D01*
%TO.N,MUX_S2*%
X232462700Y-156383500D02*
X229136400Y-156383500D01*
X197422500Y-156055200D02*
X194494500Y-153127200D01*
X228808100Y-156055200D02*
X197422500Y-156055200D01*
X194494500Y-151989200D02*
X192261500Y-149756200D01*
X192261500Y-149756200D02*
X190471700Y-149756200D01*
X229136400Y-156383500D02*
X228808100Y-156055200D01*
X194494500Y-153127200D02*
X194494500Y-151989200D01*
X190471700Y-149756200D02*
X190052200Y-149336700D01*
%TO.N,MUX_S3*%
X193559400Y-153335500D02*
X197085900Y-156862000D01*
X247363800Y-157115200D02*
X248719400Y-155759600D01*
X197085900Y-156862000D02*
X224440400Y-156862000D01*
X190109400Y-152331000D02*
X190437100Y-152658700D01*
X248719400Y-155759600D02*
X254613900Y-155759600D01*
X224440400Y-156862000D02*
X224901000Y-157322600D01*
X241045200Y-157322600D02*
X243087300Y-157322600D01*
X190109400Y-149800000D02*
X190109400Y-152331000D01*
X193484300Y-152677100D02*
X193559400Y-152752200D01*
X243470500Y-156939400D02*
X245046600Y-156939400D01*
X193559400Y-152752200D02*
X193559400Y-153335500D01*
X245046600Y-156939400D02*
X245222400Y-157115200D01*
X243087300Y-157322600D02*
X243470500Y-156939400D01*
X224901000Y-157322600D02*
X231367000Y-157322600D01*
X245222400Y-157115200D02*
X247363800Y-157115200D01*
%TO.N,SPI_SCK*%
X190804800Y-150445200D02*
X192380100Y-150445200D01*
X178636600Y-149353300D02*
X183243600Y-153960300D01*
X174250000Y-149353300D02*
X178636600Y-149353300D01*
X257765000Y-154663600D02*
X255155600Y-157273000D01*
X190722300Y-150527700D02*
X190804800Y-150445200D01*
X193962800Y-153168500D02*
X197252900Y-156458600D01*
X192380100Y-150445200D02*
X193962800Y-152027900D01*
X255155600Y-157273000D02*
X255155600Y-157389300D01*
X297170500Y-154663600D02*
X257765000Y-154663600D01*
X174250000Y-149353300D02*
X174250000Y-149267700D01*
X228329800Y-156458600D02*
X228427500Y-156556300D01*
X174250000Y-149267700D02*
X169888700Y-144906400D01*
X301397100Y-149776500D02*
X301397100Y-150437000D01*
X301397100Y-150437000D02*
X297170500Y-154663600D01*
X193962800Y-152027900D02*
X193962800Y-153168500D01*
X189694700Y-153960300D02*
X190722300Y-152932700D01*
X169888700Y-144906400D02*
X133280400Y-144906400D01*
X190722300Y-152932700D02*
X190722300Y-150527700D01*
X197252900Y-156458600D02*
X228329800Y-156458600D01*
X183243600Y-153960300D02*
X189694700Y-153960300D01*
%TO.N,SPI_MOSI*%
X245130100Y-156536000D02*
X245306000Y-156360100D01*
X121774700Y-152925800D02*
X120952700Y-152103800D01*
X120524900Y-151416600D02*
X120092800Y-151416600D01*
X192047100Y-151333200D02*
X192133400Y-151246900D01*
X243203600Y-156536000D02*
X245130100Y-156536000D01*
X192047100Y-151333200D02*
X191517200Y-150803300D01*
X193761100Y-152111400D02*
X193761100Y-153252000D01*
X189861800Y-154363700D02*
X182517700Y-154363700D01*
X191626300Y-152599200D02*
X189861800Y-154363700D01*
X192047100Y-151333200D02*
X191626300Y-151754000D01*
X120092800Y-151416600D02*
X118877900Y-150201700D01*
X197169400Y-156660300D02*
X228140300Y-156660300D01*
X174671400Y-151130300D02*
X172875900Y-152925800D01*
X191626300Y-151754000D02*
X191626300Y-152599200D01*
X120952700Y-152103800D02*
X120952700Y-151844400D01*
X178773000Y-150619000D02*
X175182700Y-150619000D01*
X120952700Y-151844400D02*
X120524900Y-151416600D01*
X192896600Y-151246900D02*
X193761100Y-152111400D01*
X247263300Y-156360100D02*
X249791300Y-153832100D01*
X245306000Y-156360100D02*
X247263300Y-156360100D01*
X192133400Y-151246900D02*
X192896600Y-151246900D01*
X228140300Y-156660300D02*
X228316100Y-156836100D01*
X228316100Y-156836100D02*
X228917400Y-156836100D01*
X229093100Y-156660400D02*
X243079200Y-156660400D01*
X228917400Y-156836100D02*
X229093100Y-156660400D01*
X175182700Y-150619000D02*
X174671400Y-151130300D01*
X289431000Y-153832100D02*
X296484300Y-146778800D01*
X249791300Y-153832100D02*
X289431000Y-153832100D01*
X191517200Y-150803300D02*
X191273600Y-150803300D01*
X243079200Y-156660400D02*
X243203600Y-156536000D01*
X193761100Y-153252000D02*
X197169400Y-156660300D01*
X182517700Y-154363700D02*
X178773000Y-150619000D01*
X118877900Y-150201700D02*
X118877900Y-148599800D01*
X172875900Y-152925800D02*
X121774700Y-152925800D01*
%TO.N,CS_RADAR_L*%
X193105400Y-152379600D02*
X193005900Y-152479100D01*
X193005900Y-152875100D02*
X193156000Y-153025200D01*
X193005900Y-152479100D02*
X193005900Y-152875100D01*
X119977100Y-145239200D02*
X120250000Y-145512100D01*
X192367300Y-151578200D02*
X193105400Y-152316300D01*
X120250000Y-145512100D02*
X120250000Y-146250000D01*
X119509600Y-145239200D02*
X119977100Y-145239200D01*
X191202300Y-155232100D02*
X165457900Y-155232100D01*
X193156000Y-153025200D02*
X193156000Y-153278400D01*
X193105400Y-152316300D02*
X193105400Y-152379600D01*
X192196400Y-151578200D02*
X192367300Y-151578200D01*
X193156000Y-153278400D02*
X191202300Y-155232100D01*
X122082300Y-154468700D02*
X118015100Y-150401500D01*
X164694500Y-154468700D02*
X122082300Y-154468700D01*
X118015100Y-146733700D02*
X119509600Y-145239200D01*
X118015100Y-150401500D02*
X118015100Y-146733700D01*
X165457900Y-155232100D02*
X164694500Y-154468700D01*
%TO.N,SPI_MISO*%
X196844800Y-154515900D02*
X197569000Y-155240100D01*
X190363000Y-154576900D02*
X180472300Y-154576900D01*
X192282100Y-151935100D02*
X192282100Y-152657800D01*
X197569000Y-155240100D02*
X228285300Y-155240100D01*
X118598400Y-146573900D02*
X118598400Y-150207400D01*
X175562000Y-150820700D02*
X175250000Y-151132700D01*
X190642600Y-154297300D02*
X190363000Y-154576900D01*
X176716100Y-150820700D02*
X175562000Y-150820700D01*
X121735700Y-153172000D02*
X173210700Y-153172000D01*
X192282100Y-152657800D02*
X190642600Y-154297300D01*
X180472300Y-154576900D02*
X176716100Y-150820700D01*
X120751000Y-151927900D02*
X120751000Y-152187300D01*
X118598400Y-150207400D02*
X120009300Y-151618300D01*
X245420400Y-156636800D02*
X247271800Y-156636800D01*
X247271800Y-156636800D02*
X249873300Y-154035300D01*
X291222100Y-154035300D02*
X296484800Y-148772600D01*
X118883700Y-146288600D02*
X118598400Y-146573900D01*
X249873300Y-154035300D02*
X291222100Y-154035300D01*
X120009300Y-151618300D02*
X120441400Y-151618300D01*
X120751000Y-152187300D02*
X121735700Y-153172000D01*
X120441400Y-151618300D02*
X120751000Y-151927900D01*
X173210700Y-153172000D02*
X175250000Y-151132700D01*
%TO.N,CS_RADAR_R*%
X244985500Y-157316900D02*
X244890700Y-157222100D01*
X194292800Y-153210700D02*
X194292800Y-152072700D01*
X254856900Y-157001400D02*
X247863000Y-157001400D01*
X228853800Y-156492200D02*
X228618500Y-156256900D01*
X190434100Y-150379600D02*
X190434100Y-152044300D01*
X296866200Y-154260200D02*
X257598100Y-154260200D01*
X228618500Y-156256900D02*
X197339000Y-156256900D01*
X192449000Y-150228900D02*
X190584800Y-150228900D01*
X194292800Y-152072700D02*
X192449000Y-150228900D01*
X247547500Y-157316900D02*
X244985500Y-157316900D01*
X247863000Y-157001400D02*
X247547500Y-157316900D01*
X300114600Y-150114600D02*
X300114600Y-151011800D01*
X300114600Y-151011800D02*
X296866200Y-154260200D01*
X197339000Y-156256900D02*
X194292800Y-153210700D01*
X299750000Y-149750000D02*
X300114600Y-150114600D01*
X257598100Y-154260200D02*
X254856900Y-157001400D01*
X190584800Y-150228900D02*
X190434100Y-150379600D01*
%TO.N,CS_CAM*%
X192745600Y-152585600D02*
X192745600Y-152348000D01*
X175828900Y-151130600D02*
X179525500Y-154827200D01*
X190504000Y-154827200D02*
X192745600Y-152585600D01*
X179525500Y-154827200D02*
X190504000Y-154827200D01*
%TO.N,RADAR_EN*%
X297015200Y-154461900D02*
X301119500Y-150357600D01*
X191331100Y-155445600D02*
X165386200Y-155445600D01*
X193357700Y-153419000D02*
X191331100Y-155445600D01*
X299240000Y-145716400D02*
X298849000Y-145716400D01*
X301119500Y-146071100D02*
X300560700Y-145512300D01*
X193369800Y-152189500D02*
X193369800Y-152400400D01*
X299444100Y-145512300D02*
X299240000Y-145716400D01*
X164611000Y-154670400D02*
X121883000Y-154670400D01*
X257681500Y-154461900D02*
X297015200Y-154461900D01*
X193207600Y-152791600D02*
X193357700Y-152941700D01*
X193357700Y-153419000D02*
X197540300Y-157601600D01*
X165386200Y-155445600D02*
X164611000Y-154670400D01*
X193207600Y-152562600D02*
X193207600Y-152791600D01*
X298849000Y-145716400D02*
X298250000Y-145117400D01*
X193357700Y-152941700D02*
X193357700Y-153419000D01*
X254541800Y-157601600D02*
X257681500Y-154461900D01*
X301119500Y-150357600D02*
X301119500Y-146071100D01*
X197540300Y-157601600D02*
X254541800Y-157601600D01*
X193369800Y-152400400D02*
X193207600Y-152562600D01*
X192951600Y-151771300D02*
X193369800Y-152189500D01*
X300560700Y-145512300D02*
X299444100Y-145512300D01*
X121883000Y-154670400D02*
X118460600Y-151248000D01*
%TO.N,RADAR_IRQ_L*%
X118321700Y-150316600D02*
X119825100Y-151820000D01*
X119825100Y-151820000D02*
X120357900Y-151820000D01*
X120357900Y-151820000D02*
X120549300Y-152011400D01*
X165541400Y-155030400D02*
X190989100Y-155030400D01*
X120549300Y-152011400D02*
X120549300Y-152270800D01*
X164778000Y-154267000D02*
X165541400Y-155030400D01*
X120549300Y-152270800D02*
X122545500Y-154267000D01*
X190989100Y-155030400D02*
X192879200Y-153140300D01*
X122545500Y-154267000D02*
X164778000Y-154267000D01*
%TO.N,RADAR_IRQ_R*%
X245222400Y-156158400D02*
X245046500Y-156334300D01*
X232375500Y-155905100D02*
X228943200Y-155905100D01*
X242995800Y-156458600D02*
X232929000Y-156458600D01*
X289233700Y-153630400D02*
X249707800Y-153630400D01*
X243120100Y-156334300D02*
X242995800Y-156458600D01*
X228943200Y-155905100D02*
X228891600Y-155853500D01*
X232929000Y-156458600D02*
X232375500Y-155905100D01*
X245046500Y-156334300D02*
X243120100Y-156334300D01*
X228891600Y-155853500D02*
X197506000Y-155853500D01*
X197506000Y-155853500D02*
X194696200Y-153043700D01*
X247179800Y-156158400D02*
X245222400Y-156158400D01*
X194696200Y-151679400D02*
X194600000Y-151583200D01*
X194696200Y-153043700D02*
X194696200Y-151679400D01*
X249707800Y-153630400D02*
X247179800Y-156158400D01*
X295332700Y-147531400D02*
X289233700Y-153630400D01*
%TO.N,MUX_EN_N*%
X226029500Y-156937800D02*
X226129500Y-157037800D01*
X229100900Y-156937800D02*
X243087100Y-156937800D01*
X245305900Y-156913500D02*
X247280300Y-156913500D01*
X243287200Y-156737700D02*
X245130100Y-156737700D01*
X197514400Y-155576700D02*
X224868200Y-155576700D01*
X229000900Y-157037800D02*
X229100900Y-156937800D01*
X243087100Y-156937800D02*
X243287200Y-156737700D01*
X247280300Y-156913500D02*
X249707100Y-154486700D01*
X195015000Y-151999400D02*
X195015000Y-153077300D01*
X249707100Y-154486700D02*
X254617800Y-154486700D01*
X226129500Y-157037800D02*
X229000900Y-157037800D01*
X245130100Y-156737700D02*
X245305900Y-156913500D01*
X195015000Y-153077300D02*
X197514400Y-155576700D01*
%TO.N,SWDIO*%
X181241800Y-148145200D02*
X175100000Y-142003400D01*
X181241800Y-149664300D02*
X181241800Y-148145200D01*
X181469600Y-149892100D02*
X181241800Y-149664300D01*
X182188600Y-149542100D02*
X181838600Y-149892100D01*
X181838600Y-149892100D02*
X181469600Y-149892100D01*
%TO.N,SWDCLK*%
X180965100Y-149587000D02*
X174100000Y-142721900D01*
X174100000Y-142721900D02*
X174100000Y-142013700D01*
%TO.N,HALL_OUT*%
X187584300Y-151020200D02*
X189748800Y-148855700D01*
X185031700Y-151020200D02*
X187584300Y-151020200D01*
%TO.N,ANT_FEED*%
X167298300Y-149996400D02*
X170913100Y-146381600D01*
X167298300Y-151979600D02*
X167298300Y-149996400D01*
%TO.N,DECRF*%
X193158300Y-142647000D02*
X197511200Y-146999900D01*
X197583900Y-146999900D02*
X197583900Y-147000000D01*
X197511200Y-146999900D02*
X197583900Y-146999900D01*
X192499600Y-142647000D02*
X193158300Y-142647000D01*
%TO.N,XTAL32M_1*%
X184632700Y-142465700D02*
X184743000Y-142355400D01*
X184743000Y-142355400D02*
X193151900Y-142355400D01*
X193151900Y-142355400D02*
X197396500Y-146600000D01*
X197396500Y-146600000D02*
X197578600Y-146600000D01*
%TO.N,XTAL32M_2*%
X197584800Y-146181700D02*
X197584800Y-145576700D01*
X193168000Y-141159900D02*
X186044700Y-141159900D01*
X197584800Y-145576700D02*
X193168000Y-141159900D01*
%TO.N,IR_LED_EN*%
X184473600Y-141938600D02*
X193521600Y-141938600D01*
X193521600Y-141938600D02*
X196536700Y-144953700D01*
X183876100Y-144503600D02*
X183876100Y-142536100D01*
X183876100Y-142536100D02*
X184473600Y-141938600D01*
%TO.N,TOF_XSHUT*%
X184210700Y-142486700D02*
X184557100Y-142140300D01*
X179843800Y-149448300D02*
X180706500Y-150311000D01*
X182103900Y-150311000D02*
X183514700Y-148900200D01*
X184210700Y-147919000D02*
X184210700Y-142486700D01*
X180706500Y-150311000D02*
X182103900Y-150311000D01*
X183514700Y-148900200D02*
X183514700Y-148615000D01*
X193328000Y-142140300D02*
X195618400Y-144430700D01*
X183514700Y-148615000D02*
X184210700Y-147919000D01*
X184557100Y-142140300D02*
X193328000Y-142140300D01*
%TO.N,ADC4*%
X212910000Y-152623900D02*
X212456800Y-152170700D01*
X212456800Y-147434600D02*
X209625000Y-144602800D01*
X212456800Y-152170700D02*
X212456800Y-147434600D01*
X223078000Y-152623900D02*
X212910000Y-152623900D01*
X226928200Y-149697700D02*
X226004200Y-149697700D01*
X226004200Y-149697700D02*
X223078000Y-152623900D01*
X209625000Y-144602800D02*
X209625000Y-144084300D01*
%TO.N,ADC5*%
X208491800Y-145023800D02*
X208491800Y-143759300D01*
X221232500Y-152904900D02*
X210019700Y-152904900D01*
X241368500Y-147377700D02*
X241368500Y-148700600D01*
X209572600Y-152457800D02*
X209572600Y-146104600D01*
X237206800Y-152862300D02*
X237206800Y-153309200D01*
X241368500Y-148700600D02*
X237206800Y-152862300D01*
X210019700Y-152904900D02*
X209572600Y-152457800D01*
X209572600Y-146104600D02*
X208491800Y-145023800D01*
%TO.N,TOF_INT*%
X189335200Y-143465200D02*
X193230700Y-143465200D01*
X182058700Y-150926700D02*
X183918100Y-149067300D01*
X183918100Y-149067300D02*
X183918100Y-148882300D01*
X193230700Y-143465200D02*
X194188500Y-144423000D01*
X182058700Y-151651100D02*
X182058700Y-150926700D01*
X183918100Y-148882300D02*
X189335200Y-143465200D01*
%TO.N,DECA*%
X192806600Y-143666900D02*
X189542800Y-143666900D01*
X193556300Y-144416600D02*
X192806600Y-143666900D01*
X189542800Y-143666900D02*
X187509700Y-145700000D01*
%TO.N,DECD*%
X193000000Y-144284200D02*
X193000000Y-144411300D01*
X190408900Y-143870500D02*
X192586300Y-143870500D01*
X192586300Y-143870500D02*
X193000000Y-144284200D01*
X187474700Y-146804700D02*
X190408900Y-143870500D01*
%TO.N,FSR_C0*%
X232989600Y-156233900D02*
X232459100Y-155703400D01*
X235110700Y-154690100D02*
X236286400Y-154690100D01*
X247622200Y-153966100D02*
X247129500Y-153966100D01*
X236286400Y-154690100D02*
X241971000Y-149005500D01*
X229453600Y-155576800D02*
X229453600Y-155283100D01*
X229580200Y-155703400D02*
X229453600Y-155576800D01*
X247129500Y-153966100D02*
X244963000Y-156132600D01*
X230363100Y-154373600D02*
X234794200Y-154373600D01*
X242935300Y-156233900D02*
X232989600Y-156233900D01*
X229453600Y-155283100D02*
X230363100Y-154373600D01*
X232459100Y-155703400D02*
X229580200Y-155703400D01*
X244963000Y-156132600D02*
X243036600Y-156132600D01*
X243036600Y-156132600D02*
X242935300Y-156233900D01*
X241971000Y-141997200D02*
X242129200Y-141839000D01*
X234794200Y-154373600D02*
X235110700Y-154690100D01*
X241971000Y-149005500D02*
X241971000Y-141997200D01*
X229453600Y-155576800D02*
X227142600Y-155576800D01*
%TO.N,X24R_1*%
X300105200Y-146392100D02*
X300105200Y-145791200D01*
X294936500Y-142918600D02*
X298621100Y-146603200D01*
X299894100Y-146603200D02*
X300105200Y-146392100D01*
X294936500Y-142916500D02*
X294936500Y-142918600D01*
X298621100Y-146603200D02*
X299894100Y-146603200D01*
X291752200Y-142918600D02*
X294936500Y-142918600D01*
X291492000Y-143178800D02*
X291752200Y-142918600D01*
%TO.N,FSR_SINK*%
X233650000Y-144709100D02*
X234355300Y-144709100D01*
X234355300Y-144709100D02*
X238188900Y-148542700D01*
X238188900Y-148542700D02*
X238188900Y-148658100D01*
%TO.N,FSR_C6*%
X244239400Y-141197300D02*
X244408200Y-141366100D01*
X247340900Y-149586000D02*
X247340900Y-149871100D01*
X247340900Y-149871100D02*
X247340900Y-150450900D01*
X246276700Y-151327300D02*
X244922500Y-152681500D01*
X244408200Y-141366100D02*
X244408200Y-146653300D01*
X246464500Y-151327300D02*
X246276700Y-151327300D01*
X244922500Y-152681500D02*
X244490800Y-152681500D01*
X244490800Y-152681500D02*
X242628700Y-154543600D01*
X247340900Y-150450900D02*
X246464500Y-151327300D01*
X244408200Y-146653300D02*
X247340900Y-149586000D01*
%TO.N,FSR_C5*%
X243605100Y-146276700D02*
X243605100Y-141399000D01*
X246320100Y-150477500D02*
X246376900Y-150420700D01*
X246941000Y-150565600D02*
X246941000Y-149612600D01*
X245117400Y-152201400D02*
X246394900Y-150923900D01*
X246041800Y-150477500D02*
X246320100Y-150477500D01*
X244746100Y-152015700D02*
X241759000Y-152015700D01*
X246582700Y-150923900D02*
X246941000Y-150565600D01*
X244746100Y-151773200D02*
X246041800Y-150477500D01*
X244931800Y-152201400D02*
X245117400Y-152201400D01*
X244746100Y-152015700D02*
X244931800Y-152201400D01*
X246941000Y-149612600D02*
X243605100Y-146276700D01*
X241759000Y-152015700D02*
X238738200Y-155036500D01*
X246394900Y-150923900D02*
X246582700Y-150923900D01*
X244746100Y-152015700D02*
X244746100Y-151773200D01*
%TO.N,FSR_C4*%
X242583900Y-150185700D02*
X242978300Y-150185700D01*
X242978300Y-150185600D02*
X246085800Y-150185600D01*
X242978300Y-150185600D02*
X242978300Y-141750800D01*
X242978300Y-150185700D02*
X242978300Y-150185600D01*
X237698900Y-155070700D02*
X242583900Y-150185700D01*
%TO.N,FSR_C3*%
X246676800Y-152217900D02*
X246298400Y-152217900D01*
X247027100Y-151867600D02*
X246676800Y-152217900D01*
X246499200Y-150722200D02*
X246200500Y-150722200D01*
X240571400Y-154873300D02*
X239790200Y-154873300D01*
X243492600Y-155023700D02*
X240721800Y-155023700D01*
X246200500Y-150722200D02*
X245044000Y-151878700D01*
X243042700Y-141399000D02*
X243255000Y-141611300D01*
X246655800Y-150565600D02*
X246499200Y-150722200D01*
X243255000Y-146730000D02*
X246655800Y-150130800D01*
X240721800Y-155023700D02*
X240571400Y-154873300D01*
X239312700Y-155350800D02*
X239206500Y-155350800D01*
X243255000Y-141611300D02*
X243255000Y-146730000D01*
X239790200Y-154873300D02*
X239312700Y-155350800D01*
X246298400Y-152217900D02*
X243492600Y-155023700D01*
X246655800Y-150130800D02*
X246655800Y-150565600D01*
%TO.N,FSR_C2*%
X247614400Y-152525000D02*
X247337400Y-152525000D01*
X234860200Y-155295200D02*
X236615300Y-155295200D01*
X242726200Y-141933600D02*
X242683900Y-141891300D01*
X247337400Y-152525000D02*
X247039400Y-152823000D01*
X242726200Y-149184300D02*
X242726200Y-141933600D01*
X247039400Y-152823000D02*
X246548900Y-152823000D01*
X246548900Y-152823000D02*
X243642700Y-155729200D01*
X234097000Y-155314700D02*
X233990600Y-155314700D01*
X234611600Y-155829300D02*
X234097000Y-155314700D01*
X234314600Y-154978700D02*
X234543700Y-154978700D01*
X233990600Y-155302700D02*
X234314600Y-154978700D01*
X233101200Y-155314600D02*
X233990600Y-155314600D01*
X242683900Y-141891300D02*
X242683900Y-141399000D01*
X243642700Y-155729200D02*
X242869600Y-155729200D01*
X233990600Y-155314600D02*
X233990600Y-155302700D01*
X236615300Y-155295200D02*
X242726200Y-149184300D01*
X234543700Y-154978700D02*
X234860200Y-155295200D01*
X242769500Y-155829300D02*
X234611600Y-155829300D01*
X242869600Y-155729200D02*
X242769500Y-155829300D01*
X233990600Y-155314700D02*
X233990600Y-155314600D01*
%TO.N,FSR_C15*%
X254949300Y-147575900D02*
X254949300Y-152293100D01*
X246929800Y-153217800D02*
X246545600Y-153217800D01*
X248549200Y-141175800D02*
X254949300Y-147575900D01*
X254469000Y-152773400D02*
X254187500Y-152492000D01*
X254121900Y-153120500D02*
X253966700Y-153120500D01*
X253808300Y-152642100D02*
X253768700Y-152642100D01*
X253958400Y-152492000D02*
X253808300Y-152642100D01*
X254949300Y-152293100D02*
X254469000Y-152773400D01*
X254469000Y-152773400D02*
X254121900Y-153120500D01*
X253577200Y-152833600D02*
X247314000Y-152833600D01*
X254187500Y-152492000D02*
X253958400Y-152492000D01*
X247314000Y-152833600D02*
X246929800Y-153217800D01*
X253768700Y-152642100D02*
X253577200Y-152833600D01*
%TO.N,FSR_C14*%
X253811500Y-153405400D02*
X253690000Y-153283900D01*
X250781800Y-141710200D02*
X255164500Y-146092900D01*
X255164500Y-152446600D02*
X254205700Y-153405400D01*
X254205700Y-153405400D02*
X253811500Y-153405400D01*
X253690000Y-153006000D02*
X253690000Y-153110000D01*
X253852200Y-152843800D02*
X253690000Y-153006000D01*
X253997800Y-152843800D02*
X253852200Y-152843800D01*
X255164500Y-146092900D02*
X255164500Y-152446600D01*
X247322800Y-153110000D02*
X246256700Y-154176100D01*
X253690000Y-153283900D02*
X253690000Y-153110000D01*
X254072900Y-152768700D02*
X253997800Y-152843800D01*
X246256700Y-154176100D02*
X245587000Y-154176100D01*
X253690000Y-153110000D02*
X247322800Y-153110000D01*
%TO.N,FSR_C13*%
X253992800Y-152042000D02*
X247249900Y-152042000D01*
X246381900Y-152419600D02*
X243576100Y-155225400D01*
X254521500Y-151666800D02*
X254521500Y-152044300D01*
X254521500Y-152044300D02*
X254469000Y-152096800D01*
X240046600Y-155225400D02*
X239979200Y-155158000D01*
X247621400Y-141601100D02*
X247621400Y-144766700D01*
X246872300Y-152419600D02*
X246381900Y-152419600D01*
X254469000Y-152096800D02*
X254460800Y-152088600D01*
X243576100Y-155225400D02*
X240046600Y-155225400D01*
X254039400Y-152088600D02*
X253992800Y-152042000D01*
X254460800Y-152088600D02*
X254039400Y-152088600D01*
X247621400Y-144766700D02*
X254521500Y-151666800D01*
X247249900Y-152042000D02*
X246872300Y-152419600D01*
%TO.N,FSR_C12*%
X239092100Y-155074100D02*
X238815400Y-155350800D01*
X242317200Y-154671600D02*
X239688300Y-154671600D01*
X243352400Y-154822000D02*
X242467600Y-154822000D01*
X247150000Y-141600700D02*
X247150000Y-144874600D01*
X239285800Y-155074100D02*
X239092100Y-155074100D01*
X246387500Y-152016200D02*
X246158200Y-152016200D01*
X250444400Y-148102400D02*
X254153800Y-151811800D01*
X242467600Y-154822000D02*
X242317200Y-154671600D01*
X250377800Y-148102400D02*
X250444400Y-148102400D01*
X254208200Y-151811800D02*
X254208200Y-151811900D01*
X254208200Y-151811900D02*
X254229300Y-151811900D01*
X238815400Y-155350800D02*
X237194000Y-155350800D01*
X250339600Y-148064100D02*
X246387500Y-152016200D01*
X246158200Y-152016200D02*
X243352400Y-154822000D01*
X254153800Y-151811800D02*
X254208200Y-151811800D01*
X239688300Y-154671600D02*
X239285800Y-155074100D01*
X250339600Y-148064100D02*
X250377800Y-148102400D01*
X247150000Y-144874600D02*
X250339600Y-148064100D01*
%TO.N,FSR_C11*%
X243559200Y-155527500D02*
X242786100Y-155527500D01*
X254726400Y-147744100D02*
X254726400Y-151060100D01*
X253753500Y-152243700D02*
X247333500Y-152243700D01*
X253800100Y-152290300D02*
X253753500Y-152243700D01*
X254271000Y-152290300D02*
X253800100Y-152290300D01*
X254745700Y-151307400D02*
X254745700Y-152211500D01*
X246465400Y-152621300D02*
X243559200Y-155527500D01*
X247333500Y-152243700D02*
X246955900Y-152621300D01*
X234801300Y-155627600D02*
X234429100Y-155255400D01*
X246955900Y-152621300D02*
X246465400Y-152621300D01*
X254726400Y-151060100D02*
X254612400Y-151174100D01*
X242686000Y-155627600D02*
X234801300Y-155627600D01*
X254745700Y-152211500D02*
X254514900Y-152442300D01*
X247902800Y-140920500D02*
X254726400Y-147744100D01*
X246419800Y-141035600D02*
X246534900Y-140920500D01*
X254423000Y-152442300D02*
X254271000Y-152290300D01*
X246534900Y-140920500D02*
X247902800Y-140920500D01*
X254612400Y-151174100D02*
X254745700Y-151307400D01*
X254514900Y-152442300D02*
X254423000Y-152442300D01*
X242786100Y-155527500D02*
X242686000Y-155627600D01*
%TO.N,FSR_C10*%
X254445000Y-150770300D02*
X247898100Y-144223400D01*
X236448300Y-154891800D02*
X242247700Y-149092400D01*
X242247700Y-149092400D02*
X242247700Y-142455300D01*
X232590000Y-154654900D02*
X232669600Y-154575300D01*
X247898100Y-144223400D02*
X247898100Y-141902700D01*
X232669600Y-154575300D02*
X234710700Y-154575300D01*
X234710700Y-154575300D02*
X235027200Y-154891800D01*
X235027200Y-154891800D02*
X236448300Y-154891800D01*
%TO.N,FSR_C9*%
X236504300Y-153831900D02*
X235881300Y-154454900D01*
X245855000Y-141588800D02*
X246569000Y-141588800D01*
X245650000Y-141383800D02*
X245855000Y-141588800D01*
X248369900Y-143863800D02*
X254449700Y-149943600D01*
X235160700Y-154454900D02*
X234792700Y-154086900D01*
X243767400Y-141122200D02*
X242454600Y-141122200D01*
X235881300Y-154454900D02*
X235160700Y-154454900D01*
X241769300Y-141807500D02*
X241769300Y-145840300D01*
X242454600Y-141122200D02*
X241769300Y-141807500D01*
X241769300Y-145840300D02*
X240605700Y-147003900D01*
X240605700Y-147003900D02*
X240605700Y-149178200D01*
X247735800Y-141323900D02*
X248369900Y-141958000D01*
X246569000Y-141588800D02*
X246833900Y-141323900D01*
X246833900Y-141323900D02*
X247735800Y-141323900D01*
X240605700Y-149178200D02*
X236504300Y-153279600D01*
X244068900Y-141524300D02*
X244068900Y-141423700D01*
X244068900Y-141423700D02*
X243767400Y-141122200D01*
X234792700Y-154086900D02*
X229790100Y-154086900D01*
X248369900Y-141958000D02*
X248369900Y-143863800D01*
X236504300Y-153279600D02*
X236504300Y-153831900D01*
%TO.N,FSR_C8*%
X241567600Y-145671000D02*
X241567600Y-141724000D01*
X234843000Y-153768500D02*
X235327700Y-154253200D01*
X245025000Y-140920500D02*
X245186600Y-141082100D01*
X238711500Y-148527100D02*
X241567600Y-145671000D01*
X229585300Y-153768500D02*
X234843000Y-153768500D01*
X246750400Y-141122200D02*
X247819300Y-141122200D01*
X246004600Y-141347100D02*
X246525500Y-141347100D01*
X242371100Y-140920500D02*
X245025000Y-140920500D01*
X229448600Y-153905200D02*
X229585300Y-153768500D01*
X245186600Y-141082100D02*
X245739600Y-141082100D01*
X238711500Y-149563300D02*
X238711500Y-148527100D01*
X241567600Y-141724000D02*
X242371100Y-140920500D01*
X245739600Y-141082100D02*
X246004600Y-141347100D01*
X236302600Y-151972200D02*
X238711500Y-149563300D01*
X254446600Y-147749500D02*
X254446600Y-149275000D01*
X236302600Y-153748400D02*
X236302600Y-151972200D01*
X235327700Y-154253200D02*
X235797800Y-154253200D01*
X247819300Y-141122200D02*
X254446600Y-147749500D01*
X235797800Y-154253200D02*
X236302600Y-153748400D01*
X228500000Y-153905200D02*
X229448600Y-153905200D01*
X246525500Y-141347100D02*
X246750400Y-141122200D01*
%TO.N,VBUSOUT*%
X215371300Y-143718800D02*
X217016400Y-142073700D01*
X217016400Y-142073700D02*
X218093700Y-142073700D01*
X215371300Y-146187600D02*
X215371300Y-143718800D01*
%TO.N,VSYS*%
X186115200Y-147261500D02*
X187423700Y-147261500D01*
X187423700Y-147261500D02*
X190613000Y-144072200D01*
X198091900Y-147930800D02*
X199743700Y-146279000D01*
X196061400Y-147930800D02*
X198091900Y-147930800D01*
X192630000Y-144285700D02*
X192630000Y-144499400D01*
X221035100Y-147482800D02*
X220217400Y-146665100D01*
X199743700Y-146279000D02*
X203714800Y-146279000D01*
X220217400Y-146665100D02*
X217434600Y-143882300D01*
X192630000Y-144499400D02*
X196061400Y-147930800D01*
X221035100Y-147575100D02*
X221035100Y-147482800D01*
X182442700Y-150934000D02*
X186115200Y-147261500D01*
X190613000Y-144072200D02*
X192416500Y-144072200D01*
X192416500Y-144072200D02*
X192630000Y-144285700D01*
X220217400Y-146665100D02*
X224340800Y-142541700D01*
X207652400Y-142599100D02*
X208206200Y-143152900D01*
X208206200Y-143152900D02*
X208206200Y-146453900D01*
%TO.N,NTC*%
X216826000Y-144073900D02*
X218671100Y-142228800D01*
X217325300Y-147788600D02*
X216826000Y-147289300D01*
X216826000Y-147289300D02*
X216826000Y-144073900D01*
X218671100Y-142228800D02*
X220000000Y-142228800D01*
%TO.N,SW1*%
D12*
X208650000Y-151823500D02*
X208650000Y-146547100D01*
X208650000Y-152813800D02*
X208767000Y-152696800D01*
X208767000Y-151940500D02*
X208650000Y-151823500D01*
X208767000Y-152696800D02*
X208767000Y-151940500D01*
X208650000Y-146547100D02*
X209063200Y-146133900D01*
%TO.N,LED0*%
D11*
X217150600Y-144140500D02*
X221546000Y-148535900D01*
X221546000Y-148535900D02*
X225128500Y-148535900D01*
%TO.N,FSR_R1*%
X229043700Y-152279600D02*
X229043700Y-146946100D01*
X229248800Y-152484700D02*
X229043700Y-152279600D01*
X229495500Y-152484700D02*
X229248800Y-152484700D01*
X230295000Y-146049800D02*
X236288600Y-140056200D01*
X229043700Y-146946100D02*
X229940000Y-146049800D01*
X229590400Y-151937300D02*
X229608800Y-151955700D01*
X229608800Y-152371400D02*
X229495500Y-152484700D01*
X229940000Y-146049800D02*
X230295000Y-146049800D01*
X229608800Y-151955700D02*
X229608800Y-152371400D01*
%TO.N,VQI*%
D12*
X215928000Y-146744300D02*
X215928000Y-143676400D01*
X215928000Y-147003600D02*
X215928000Y-146744300D01*
X215928000Y-143676400D02*
X216478900Y-143125500D01*
X215928000Y-146744300D02*
X215409300Y-146744300D01*
X219944400Y-151020000D02*
X215928000Y-147003600D01*
X223020300Y-151020000D02*
X219944400Y-151020000D01*
%TO.N,SW2*%
X208198300Y-152010600D02*
X208198300Y-147274600D01*
X208315300Y-152127600D02*
X208198300Y-152010600D01*
%TO.N,FSR_R4*%
D11*
X242104100Y-140517100D02*
X237399600Y-145221600D01*
X237399600Y-145221600D02*
X237399600Y-147102300D01*
X248567100Y-140517100D02*
X242104100Y-140517100D01*
X249589800Y-141539800D02*
X248567100Y-140517100D01*
X250246600Y-141539800D02*
X249589800Y-141539800D01*
X250741200Y-141045200D02*
X250246600Y-141539800D01*
X250819000Y-141045200D02*
X250741200Y-141045200D01*
%TO.N,FSR_R2*%
X233094800Y-151870400D02*
X233094800Y-147486600D01*
X250024500Y-141053900D02*
X249145000Y-140174400D01*
X249145000Y-140174400D02*
X238886800Y-140174400D01*
X233060800Y-144601400D02*
X233060800Y-147452600D01*
X237487800Y-140174400D02*
X233060800Y-144601400D01*
X233060800Y-147452600D02*
X233026800Y-147452600D01*
X238587200Y-140103900D02*
X238516700Y-140174400D01*
X238816300Y-140103900D02*
X238587200Y-140103900D01*
X233094800Y-147486600D02*
X233060800Y-147452600D01*
X238886800Y-140174400D02*
X238816300Y-140103900D01*
X238516700Y-140174400D02*
X237487800Y-140174400D01*
%TO.N,IR_LED_K*%
X182760800Y-144890100D02*
X181575400Y-146075500D01*
X181575400Y-146075500D02*
X181575400Y-149603300D01*
%TO.N,X24R_2*%
X299165200Y-145392000D02*
X301004500Y-143552700D01*
X301004500Y-143552700D02*
X301004500Y-142500000D01*
%TO.N,X24L_2*%
X121208000Y-149792000D02*
X121285500Y-149714500D01*
X121285500Y-149714500D02*
X121285500Y-142065700D01*
X121285500Y-142065700D02*
X117934800Y-142065700D01*
X128510300Y-142065700D02*
X121285500Y-142065700D01*
X117934800Y-142065700D02*
X117927100Y-142058000D01*
%TO.N,FSR_R5*%
X236030100Y-153735700D02*
X235714300Y-154051500D01*
X238509700Y-148337700D02*
X238509700Y-148728900D01*
X235473800Y-154051500D02*
X235266000Y-153843700D01*
X239086700Y-147760700D02*
X239086700Y-143919700D01*
X250712600Y-141388200D02*
X251159500Y-141388200D01*
X235714300Y-154051500D02*
X235473800Y-154051500D01*
X250309200Y-141791600D02*
X250712600Y-141388200D01*
X239086700Y-143919700D02*
X242287600Y-140718800D01*
X238509700Y-148728900D02*
X236030100Y-151208500D01*
X249556400Y-141791600D02*
X250309200Y-141791600D01*
X239086700Y-147760700D02*
X238509700Y-148337700D01*
X235266000Y-153843700D02*
X235266000Y-152429400D01*
X242287600Y-140718800D02*
X248483600Y-140718800D01*
X236030100Y-151208500D02*
X236030100Y-153735700D01*
X248483600Y-140718800D02*
X249556400Y-141791600D01*
%TD*%
M02*
