M48
; DRILL file KiCad 10.0.4 date 2026-09-02T14:46:28
; FORMAT={-:-/ absolute / metric / decimal}
; #@! TF.CreationDate,2026-09-02T14:46:28+02:00
; #@! TF.GenerationSoftware,Kicad,Pcbnew,10.0.4
; #@! TF.FileFunction,Plated,1,6,PTH
FMAT,2
METRIC
; #@! TA.AperFunction,Plated,PTH,ViaDrill
T1C0.100
; #@! TA.AperFunction,Plated,PTH,ComponentDrill
T2C0.750
%
G90
G05
T1
X113.549Y-153.97
X114.103Y-141.583
X115.44Y-151.109
X116.0Y-140.4
X116.0Y-155.6
X116.209Y-146.116
X116.217Y-150.617
X116.303Y-149.75
X116.355Y-150.25
X116.813Y-145.707
X117.005Y-148.505
X117.24Y-144.45
X117.24Y-151.55
X117.25Y-146.25
X117.25Y-146.75
X117.25Y-147.75
X117.25Y-148.25
X117.25Y-149.25
X117.25Y-149.75
X117.707Y-147.613
X117.75Y-146.25
X117.75Y-149.75
X118.744Y-142.55
X118.75Y-146.25
X118.75Y-149.75
X118.75Y-150.611
X118.913Y-149.161
X118.995Y-145.054
X119.25Y-146.25
X119.25Y-149.75
X119.75Y-146.25
X119.75Y-149.75
X119.75Y-150.669
X120.0Y-140.4
X120.0Y-155.6
X120.18Y-144.45
X120.25Y-146.25
X120.25Y-149.75
X120.592Y-147.831
X120.75Y-146.25
X120.75Y-149.75
X123.021Y-141.474
X128.0Y-140.4
X128.0Y-155.6
X134.0Y-145.4
X134.0Y-150.6
X137.0Y-145.4
X137.0Y-150.6
X140.0Y-145.4
X140.0Y-150.6
X143.0Y-145.4
X143.0Y-150.6
X146.0Y-145.4
X146.0Y-150.6
X149.0Y-145.4
X149.0Y-150.6
X152.0Y-145.4
X152.0Y-150.6
X153.456Y-148.61
X155.0Y-145.4
X155.0Y-150.6
X158.0Y-145.4
X158.0Y-150.6
X159.853Y-151.898
X161.0Y-145.4
X161.0Y-150.6
X161.61Y-147.942
X163.794Y-148.991
X164.0Y-138.7
X166.739Y-151.315
X166.899Y-141.159
X167.25Y-151.424
X167.912Y-151.686
X168.0Y-138.7
X168.25Y-151.144
X168.892Y-151.135
X168.922Y-141.891
X169.461Y-151.129
X169.75Y-151.81
X170.148Y-151.128
X170.291Y-142.015
X170.75Y-151.15
X171.137Y-147.205
X171.25Y-151.128
X172.0Y-138.7
X172.568Y-150.029
X176.0Y-138.7
X176.0Y-157.3
X179.935Y-144.931
X180.0Y-138.7
X180.0Y-157.3
X181.8Y-144.05
X182.651Y-148.729
X183.993Y-148.105
X184.0Y-138.7
X184.0Y-157.3
X184.901Y-142.413
X185.046Y-151.993
X186.433Y-141.579
X186.887Y-153.95
X187.506Y-145.925
X187.53Y-154.852
X187.542Y-150.643
X187.908Y-152.801
X187.908Y-153.185
X188.0Y-138.7
X188.0Y-157.3
X188.193Y-146.444
X188.587Y-149.1
X188.611Y-148.391
X188.88Y-149.505
X189.78Y-149.0
X189.852Y-144.799
X190.023Y-156.099
X190.45Y-151.4
X190.7Y-145.8
X190.7Y-146.2
X190.7Y-146.6
X190.7Y-147.0
X190.7Y-147.4
X190.7Y-147.8
X190.7Y-148.2
X190.7Y-148.6
X190.7Y-149.0
X190.7Y-149.4
X190.7Y-149.8
X190.7Y-150.2
X191.164Y-150.915
X191.355Y-150.528
X191.73Y-143.35
X191.8Y-144.7
X191.8Y-151.3
X192.0Y-138.7
X192.0Y-157.3
X192.2Y-151.3
X192.6Y-144.7
X192.6Y-151.3
X192.999Y-151.897
X193.0Y-144.7
X193.0Y-151.3
X193.31Y-145.734
X193.4Y-151.3
X193.48Y-143.411
X193.8Y-144.7
X193.8Y-151.3
X194.2Y-144.7
X194.2Y-151.3
X194.514Y-153.144
X194.6Y-151.3
X195.0Y-144.7
X195.0Y-151.3
X195.33Y-143.35
X195.33Y-152.65
X195.4Y-144.7
X195.8Y-144.7
X195.8Y-151.3
X195.934Y-153.251
X196.0Y-138.7
X196.0Y-157.3
X196.2Y-144.7
X196.2Y-151.3
X196.289Y-142.388
X197.3Y-145.8
X197.3Y-146.2
X197.3Y-146.6
X197.3Y-147.0
X197.3Y-147.8
X197.3Y-148.2
X197.3Y-148.6
X197.3Y-149.0
X197.3Y-149.4
X197.3Y-149.8
X197.3Y-150.2
X198.091Y-150.617
X198.692Y-142.624
X199.19Y-142.021
X199.218Y-152.323
X199.88Y-145.4
X200.0Y-138.7
X200.0Y-157.3
X201.147Y-145.007
X201.581Y-152.398
X202.56Y-142.358
X203.823Y-148.2
X204.0Y-138.7
X204.0Y-157.3
X204.353Y-150.383
X204.95Y-140.411
X205.5Y-140.348
X206.259Y-149.719
X206.698Y-150.274
X208.0Y-138.7
X208.0Y-157.3
X208.69Y-153.156
X208.754Y-152.727
X208.792Y-142.36
X208.84Y-144.976
X208.84Y-146.794
X210.15Y-145.85
X210.15Y-147.35
X210.252Y-152.814
X211.07Y-146.25
X211.07Y-147.25
X211.07Y-147.75
X211.07Y-148.25
X211.07Y-149.25
X211.25Y-153.862
X212.0Y-138.7
X212.0Y-157.3
X212.037Y-143.862
X212.107Y-145.212
X212.417Y-152.047
X213.607Y-145.212
X213.607Y-150.788
X214.107Y-145.212
X214.107Y-150.788
X214.607Y-150.788
X215.107Y-150.788
X215.237Y-152.138
X215.414Y-153.783
X215.607Y-145.212
X215.607Y-150.788
X216.0Y-138.7
X216.0Y-157.3
X216.644Y-147.25
X216.644Y-147.75
X216.644Y-148.25
X216.644Y-148.75
X216.644Y-149.25
X216.644Y-149.75
X217.387Y-153.836
X218.372Y-149.038
X219.074Y-153.912
X219.225Y-150.15
X220.0Y-138.7
X220.0Y-157.3
X222.905Y-148.492
X223.407Y-149.026
X224.0Y-138.7
X225.243Y-150.04
X225.403Y-147.215
X225.956Y-151.169
X226.115Y-141.3
X226.316Y-148.515
X226.476Y-149.084
X227.471Y-140.96
X227.798Y-145.797
X228.0Y-138.7
X228.125Y-144.89
X228.345Y-143.269
X228.508Y-141.526
X229.617Y-146.157
X229.63Y-146.641
X229.836Y-142.375
X229.967Y-148.954
X230.446Y-143.135
X230.49Y-149.828
X230.876Y-141.9
X231.986Y-142.762
X232.0Y-138.7
X232.0Y-157.3
X233.709Y-151.422
X233.871Y-144.363
X233.888Y-150.803
X234.003Y-141.52
X234.052Y-147.691
X234.068Y-145.647
X234.075Y-146.323
X234.077Y-145.273
X234.183Y-147.24
X234.25Y-148.262
X235.588Y-153.583
X235.766Y-146.776
X236.0Y-138.7
X236.0Y-157.3
X236.13Y-152.342
X236.134Y-149.776
X236.135Y-149.176
X236.206Y-142.426
X237.354Y-150.943
X237.568Y-146.178
X238.029Y-154.751
X238.659Y-145.104
X239.15Y-147.586
X239.43Y-146.18
X239.566Y-155.007
X239.911Y-152.419
X240.0Y-138.7
X240.0Y-157.3
X240.375Y-155.227
X240.708Y-147.018
X240.807Y-146.556
X241.069Y-145.383
X241.318Y-148.819
X241.83Y-149.632
X241.849Y-152.705
X241.851Y-150.076
X241.887Y-155.533
X241.939Y-153.914
X242.084Y-146.272
X242.215Y-145.184
X243.813Y-150.153
X243.902Y-140.666
X243.938Y-148.97
X244.0Y-138.7
X244.0Y-144.506
X244.0Y-157.3
X244.153Y-147.026
X244.891Y-147.157
X245.3Y-154.255
X245.304Y-155.13
X245.368Y-151.226
X245.474Y-146.181
X245.917Y-148.332
X245.985Y-147.309
X246.688Y-154.225
X246.697Y-148.609
X247.603Y-152.326
X247.68Y-150.981
X247.787Y-154.928
X247.898Y-140.375
X248.0Y-157.3
X248.247Y-152.976
X249.14Y-153.95
X249.153Y-147.028
X250.08Y-155.13
X250.658Y-141.469
X250.809Y-141.033
X251.25Y-139.259
X251.42Y-147.772
X251.579Y-153.753
X251.703Y-141.035
X252.0Y-157.3
X252.427Y-139.272
X252.5Y-155.13
X253.09Y-141.032
X253.402Y-141.233
X253.609Y-155.514
X253.933Y-141.03
X254.084Y-151.915
X254.503Y-141.03
X254.889Y-153.486
X254.9Y-155.215
X255.027Y-139.194
X255.293Y-151.276
X255.379Y-139.269
X255.498Y-141.079
X255.912Y-155.533
X256.0Y-157.3
X256.027Y-139.255
X256.248Y-141.028
X256.285Y-153.7
X256.522Y-150.057
X256.75Y-141.038
X257.056Y-155.026
X257.462Y-141.244
X257.814Y-141.149
X258.25Y-141.04
X258.666Y-156.904
X258.95Y-141.142
X259.25Y-139.083
X259.452Y-154.378
X259.75Y-138.933
X260.215Y-141.124
X260.373Y-150.914
X260.401Y-148.97
X260.78Y-141.079
X261.15Y-147.989
X261.15Y-148.639
X261.15Y-149.289
X261.15Y-149.939
X261.15Y-150.589
X261.15Y-151.239
X261.15Y-151.889
X261.15Y-152.539
X261.15Y-153.189
X261.15Y-153.839
X261.15Y-154.489
X261.166Y-141.287
X267.569Y-145.826
X268.43Y-146.389
X268.568Y-156.283
X268.788Y-156.003
X268.85Y-147.989
X268.85Y-148.639
X268.85Y-149.289
X268.85Y-149.939
X268.85Y-150.589
X268.85Y-151.239
X268.85Y-151.889
X268.85Y-152.539
X268.85Y-153.189
X268.85Y-153.839
X268.85Y-154.489
X268.85Y-155.139
X270.0Y-145.4
X271.144Y-153.219
X273.0Y-145.4
X273.0Y-150.6
X276.0Y-145.4
X276.0Y-150.6
X279.0Y-145.4
X279.0Y-150.6
X282.0Y-145.4
X282.0Y-150.6
X285.0Y-145.4
X285.0Y-150.6
X288.0Y-145.4
X288.0Y-150.6
X292.0Y-140.4
X292.0Y-155.6
X296.0Y-155.6
X296.982Y-142.438
X298.541Y-150.935
X299.25Y-146.25
X299.25Y-149.75
X299.74Y-151.55
X299.75Y-146.25
X299.75Y-149.75
X300.0Y-140.4
X300.0Y-155.6
X300.006Y-142.126
X300.232Y-147.989
X300.25Y-146.25
X300.25Y-149.75
X300.25Y-150.683
X300.75Y-146.25
X300.75Y-149.75
X300.779Y-144.514
X301.25Y-145.302
X301.25Y-146.25
X301.25Y-149.75
X302.25Y-146.25
X302.25Y-149.75
X302.315Y-150.839
X302.554Y-147.054
X302.68Y-144.45
X302.68Y-151.55
X302.75Y-146.25
X302.75Y-146.75
X302.75Y-147.75
X302.75Y-148.25
X302.75Y-149.25
X302.75Y-149.75
X302.987Y-147.013
X303.114Y-145.819
X303.268Y-145.473
X303.587Y-141.45
X303.611Y-150.151
X303.677Y-146.25
X303.969Y-149.371
X304.0Y-140.4
X304.0Y-155.6
X304.435Y-153.5
T2
X219.597Y-141.635
X221.597Y-141.635
X223.597Y-141.635
M30
