%TF.GenerationSoftware,KiCad,Pcbnew,10.0.4*%
%TF.CreationDate,2026-08-31T21:17:38+02:00*%
%TF.ProjectId,smartbag_core,736d6172-7462-4616-975f-636f72652e6b,rev?*%
%TF.SameCoordinates,Original*%
%TF.FileFunction,Legend,Top*%
%TF.FilePolarity,Positive*%
%FSLAX46Y46*%
G04 Gerber Fmt 4.6, Leading zero omitted, Abs format (unit mm)*
G04 Created by KiCad (PCBNEW 10.0.4) date 2026-08-31 21:17:38*
%MOMM*%
%LPD*%
G01*
G04 APERTURE LIST*
G04 Aperture macros list*
%AMRoundRect*
0 Rectangle with rounded corners*
0 $1 Rounding radius*
0 $2 $3 $4 $5 $6 $7 $8 $9 X,Y pos of 4 corners*
0 Add a 4 corners polygon primitive as box body*
4,1,4,$2,$3,$4,$5,$6,$7,$8,$9,$2,$3,0*
0 Add four circle primitives for the rounded corners*
1,1,$1+$1,$2,$3*
1,1,$1+$1,$4,$5*
1,1,$1+$1,$6,$7*
1,1,$1+$1,$8,$9*
0 Add four rect primitives between the rounded corners*
20,1,$1+$1,$2,$3,$4,$5,0*
20,1,$1+$1,$4,$5,$6,$7,0*
20,1,$1+$1,$6,$7,$8,$9,0*
20,1,$1+$1,$8,$9,$2,$3,0*%
%AMFreePoly0*
4,1,13,0.375000,1.525000,1.025000,1.525000,1.025000,-1.525000,0.375000,-1.525000,0.375000,-1.925000,-0.375000,-1.925000,-0.375000,-1.525000,-1.025000,-1.525000,-1.025000,1.525000,-0.375000,1.525000,-0.375000,1.925000,0.375000,1.925000,0.375000,1.525000,0.375000,1.525000,$1*%
G04 Aperture macros list end*
%ADD10C,0.120000*%
%ADD11C,0.225000*%
%ADD12C,0.100000*%
%ADD13C,2.000000*%
%ADD14RoundRect,0.140000X-0.140000X-0.170000X0.140000X-0.170000X0.140000X0.170000X-0.140000X0.170000X0*%
%ADD15RoundRect,0.135000X-0.135000X-0.185000X0.135000X-0.185000X0.135000X0.185000X-0.135000X0.185000X0*%
%ADD16RoundRect,0.100000X-0.637500X-0.100000X0.637500X-0.100000X0.637500X0.100000X-0.637500X0.100000X0*%
%ADD17C,0.250000*%
%ADD18RoundRect,0.200000X-0.250000X-0.200000X0.250000X-0.200000X0.250000X0.200000X-0.250000X0.200000X0*%
%ADD19RoundRect,0.218750X-0.218750X-0.256250X0.218750X-0.256250X0.218750X0.256250X-0.218750X0.256250X0*%
%ADD20R,0.675000X0.250000*%
%ADD21R,0.250000X0.675000*%
%ADD22RoundRect,0.150000X-0.150000X-0.625000X0.150000X-0.625000X0.150000X0.625000X-0.150000X0.625000X0*%
%ADD23RoundRect,0.250000X-0.350000X-0.650000X0.350000X-0.650000X0.350000X0.650000X-0.350000X0.650000X0*%
%ADD24RoundRect,0.150000X-0.587500X-0.150000X0.587500X-0.150000X0.587500X0.150000X-0.587500X0.150000X0*%
%ADD25RoundRect,0.050000X-0.350000X-0.050000X0.350000X-0.050000X0.350000X0.050000X-0.350000X0.050000X0*%
%ADD26RoundRect,0.050000X-0.050000X-0.350000X0.050000X-0.350000X0.050000X0.350000X-0.050000X0.350000X0*%
%ADD27R,4.600000X4.600000*%
%ADD28RoundRect,0.062500X-0.375000X-0.062500X0.375000X-0.062500X0.375000X0.062500X-0.375000X0.062500X0*%
%ADD29RoundRect,0.062500X-0.062500X-0.375000X0.062500X-0.375000X0.062500X0.375000X-0.062500X0.375000X0*%
%ADD30R,3.450000X3.450000*%
%ADD31RoundRect,0.147500X-0.147500X-0.172500X0.147500X-0.172500X0.147500X0.172500X-0.147500X0.172500X0*%
%ADD32RoundRect,0.225000X-0.225000X-0.250000X0.225000X-0.250000X0.225000X0.250000X-0.225000X0.250000X0*%
%ADD33RoundRect,0.050400X-0.069600X-0.249600X0.069600X-0.249600X0.069600X0.249600X-0.069600X0.249600X0*%
%ADD34RoundRect,0.050400X-0.249600X-0.069600X0.249600X-0.069600X0.249600X0.069600X-0.249600X0.069600X0*%
%ADD35RoundRect,0.050000X-0.050000X-0.250000X0.050000X-0.250000X0.050000X0.250000X-0.050000X0.250000X0*%
%ADD36FreePoly0,0.000000*%
%ADD37RoundRect,0.100000X-0.850000X-0.100000X0.850000X-0.100000X0.850000X0.100000X-0.850000X0.100000X0*%
%ADD38R,0.300000X1.300000*%
%ADD39R,1.800000X2.200000*%
%ADD40RoundRect,0.250000X-0.350000X-0.850000X0.350000X-0.850000X0.350000X0.850000X-0.350000X0.850000X0*%
%ADD41RoundRect,0.150000X-0.150000X-0.400000X0.150000X-0.400000X0.150000X0.400000X-0.150000X0.400000X0*%
G04 APERTURE END LIST*
D10*
X140155137Y-146430521D02*
X140459899Y-146430521D01*
X140269423Y-146963855D02*
X140269423Y-146278140D01*
X140269423Y-146278140D02*
X140307518Y-146201950D01*
X140307518Y-146201950D02*
X140383708Y-146163855D01*
X140383708Y-146163855D02*
X140459899Y-146163855D01*
X140840851Y-146963855D02*
X140764661Y-146925760D01*
X140764661Y-146925760D02*
X140726566Y-146849569D01*
X140726566Y-146849569D02*
X140726566Y-146163855D01*
X141450376Y-146925760D02*
X141374185Y-146963855D01*
X141374185Y-146963855D02*
X141221804Y-146963855D01*
X141221804Y-146963855D02*
X141145614Y-146925760D01*
X141145614Y-146925760D02*
X141107518Y-146849569D01*
X141107518Y-146849569D02*
X141107518Y-146544807D01*
X141107518Y-146544807D02*
X141145614Y-146468617D01*
X141145614Y-146468617D02*
X141221804Y-146430521D01*
X141221804Y-146430521D02*
X141374185Y-146430521D01*
X141374185Y-146430521D02*
X141450376Y-146468617D01*
X141450376Y-146468617D02*
X141488471Y-146544807D01*
X141488471Y-146544807D02*
X141488471Y-146620998D01*
X141488471Y-146620998D02*
X141107518Y-146697188D01*
X141755137Y-146963855D02*
X142174185Y-146430521D01*
X141755137Y-146430521D02*
X142174185Y-146963855D01*
X234536089Y-138744807D02*
X234269423Y-138744807D01*
X234269423Y-139163855D02*
X234269423Y-138363855D01*
X234269423Y-138363855D02*
X234650375Y-138363855D01*
X234917041Y-139125760D02*
X235031327Y-139163855D01*
X235031327Y-139163855D02*
X235221803Y-139163855D01*
X235221803Y-139163855D02*
X235297994Y-139125760D01*
X235297994Y-139125760D02*
X235336089Y-139087664D01*
X235336089Y-139087664D02*
X235374184Y-139011474D01*
X235374184Y-139011474D02*
X235374184Y-138935283D01*
X235374184Y-138935283D02*
X235336089Y-138859093D01*
X235336089Y-138859093D02*
X235297994Y-138820998D01*
X235297994Y-138820998D02*
X235221803Y-138782902D01*
X235221803Y-138782902D02*
X235069422Y-138744807D01*
X235069422Y-138744807D02*
X234993232Y-138706712D01*
X234993232Y-138706712D02*
X234955137Y-138668617D01*
X234955137Y-138668617D02*
X234917041Y-138592426D01*
X234917041Y-138592426D02*
X234917041Y-138516236D01*
X234917041Y-138516236D02*
X234955137Y-138440045D01*
X234955137Y-138440045D02*
X234993232Y-138401950D01*
X234993232Y-138401950D02*
X235069422Y-138363855D01*
X235069422Y-138363855D02*
X235259899Y-138363855D01*
X235259899Y-138363855D02*
X235374184Y-138401950D01*
X236174185Y-139163855D02*
X235907518Y-138782902D01*
X235717042Y-139163855D02*
X235717042Y-138363855D01*
X235717042Y-138363855D02*
X236021804Y-138363855D01*
X236021804Y-138363855D02*
X236097994Y-138401950D01*
X236097994Y-138401950D02*
X236136089Y-138440045D01*
X236136089Y-138440045D02*
X236174185Y-138516236D01*
X236174185Y-138516236D02*
X236174185Y-138630521D01*
X236174185Y-138630521D02*
X236136089Y-138706712D01*
X236136089Y-138706712D02*
X236097994Y-138744807D01*
X236097994Y-138744807D02*
X236021804Y-138782902D01*
X236021804Y-138782902D02*
X235717042Y-138782902D01*
X270155137Y-146430521D02*
X270459899Y-146430521D01*
X270269423Y-146963855D02*
X270269423Y-146278140D01*
X270269423Y-146278140D02*
X270307518Y-146201950D01*
X270307518Y-146201950D02*
X270383708Y-146163855D01*
X270383708Y-146163855D02*
X270459899Y-146163855D01*
X270840851Y-146963855D02*
X270764661Y-146925760D01*
X270764661Y-146925760D02*
X270726566Y-146849569D01*
X270726566Y-146849569D02*
X270726566Y-146163855D01*
X271450376Y-146925760D02*
X271374185Y-146963855D01*
X271374185Y-146963855D02*
X271221804Y-146963855D01*
X271221804Y-146963855D02*
X271145614Y-146925760D01*
X271145614Y-146925760D02*
X271107518Y-146849569D01*
X271107518Y-146849569D02*
X271107518Y-146544807D01*
X271107518Y-146544807D02*
X271145614Y-146468617D01*
X271145614Y-146468617D02*
X271221804Y-146430521D01*
X271221804Y-146430521D02*
X271374185Y-146430521D01*
X271374185Y-146430521D02*
X271450376Y-146468617D01*
X271450376Y-146468617D02*
X271488471Y-146544807D01*
X271488471Y-146544807D02*
X271488471Y-146620998D01*
X271488471Y-146620998D02*
X271107518Y-146697188D01*
X271755137Y-146963855D02*
X272174185Y-146430521D01*
X271755137Y-146430521D02*
X272174185Y-146963855D01*
%TO.C,C51*%
X204892164Y-152640000D02*
X205107836Y-152640000D01*
X204892164Y-153360000D02*
X205107836Y-153360000D01*
%TO.C,R4*%
X222346359Y-148120000D02*
X222653641Y-148120000D01*
X222346359Y-148880000D02*
X222653641Y-148880000D01*
%TO.C,R42*%
X242596359Y-146670000D02*
X242903641Y-146670000D01*
X242596359Y-147430000D02*
X242903641Y-147430000D01*
%TO.C,C3*%
X196892164Y-152640000D02*
X197107836Y-152640000D01*
X196892164Y-153360000D02*
X197107836Y-153360000D01*
%TO.C,C30*%
X305392164Y-153140000D02*
X305607836Y-153140000D01*
X305392164Y-153860000D02*
X305607836Y-153860000D01*
%TO.C,R61*%
X241896359Y-155520000D02*
X242203641Y-155520000D01*
X241896359Y-156280000D02*
X242203641Y-156280000D01*
%TO.C,U9*%
X245590000Y-148740000D02*
X250210000Y-148740000D01*
X245590000Y-148940000D02*
X245590000Y-148740000D01*
X245590000Y-153960000D02*
X245590000Y-153760000D01*
X250210000Y-148740000D02*
X250210000Y-148940000D01*
X250210000Y-153760000D02*
X250210000Y-153960000D01*
X250210000Y-153960000D02*
X245590000Y-153960000D01*
X244950000Y-148940000D02*
X244610000Y-148470000D01*
X245290000Y-148470000D01*
X244950000Y-148940000D01*
G36*
X244950000Y-148940000D02*
G01*
X244610000Y-148470000D01*
X245290000Y-148470000D01*
X244950000Y-148940000D01*
G37*
%TO.C,R10*%
X238846359Y-144120000D02*
X239153641Y-144120000D01*
X238846359Y-144880000D02*
X239153641Y-144880000D01*
%TO.C,U2*%
X121750000Y-145400000D02*
X116250000Y-145400000D01*
X121750000Y-150600000D02*
X116250000Y-150600000D01*
D11*
X122262500Y-145000000D02*
G75*
G02*
X122037500Y-145000000I-112500J0D01*
G01*
X122037500Y-145000000D02*
G75*
G02*
X122262500Y-145000000I112500J0D01*
G01*
%TO.C,C60*%
D10*
X246042164Y-145590000D02*
X246257836Y-145590000D01*
X246042164Y-146310000D02*
X246257836Y-146310000D01*
%TO.C,Y2*%
X121590000Y-140790000D02*
X121590000Y-143210000D01*
X121590000Y-143210000D02*
X124410000Y-143210000D01*
%TO.C,L4*%
X211687221Y-152490000D02*
X212012779Y-152490000D01*
X211687221Y-153510000D02*
X212012779Y-153510000D01*
%TO.C,R11*%
X241346359Y-144120000D02*
X241653641Y-144120000D01*
X241346359Y-144880000D02*
X241653641Y-144880000D01*
%TO.C,R41*%
X240296359Y-146670000D02*
X240603641Y-146670000D01*
X240296359Y-147430000D02*
X240603641Y-147430000D01*
%TO.C,R75*%
X256996359Y-152420000D02*
X257303641Y-152420000D01*
X256996359Y-153180000D02*
X257303641Y-153180000D01*
%TO.C,U4*%
D12*
X203050000Y-143350000D02*
X203050000Y-143130000D01*
X203050000Y-143350000D02*
X203770000Y-143350000D01*
X203250000Y-140650000D02*
X203770000Y-140650000D01*
X205530000Y-140650000D02*
X206250000Y-140650000D01*
X206250000Y-140650000D02*
X206250000Y-140870000D01*
X206250000Y-143130000D02*
X206250000Y-143350000D01*
X206250000Y-143350000D02*
X205530000Y-143350000D01*
X203050000Y-140650000D02*
X202690000Y-140650000D01*
X203050000Y-140290000D01*
X203050000Y-140650000D01*
G36*
X203050000Y-140650000D02*
G01*
X202690000Y-140650000D01*
X203050000Y-140290000D01*
X203050000Y-140650000D01*
G37*
%TO.C,R2*%
D10*
X217296359Y-148120000D02*
X217603641Y-148120000D01*
X217296359Y-148880000D02*
X217603641Y-148880000D01*
%TO.C,C20*%
X114392164Y-153140000D02*
X114607836Y-153140000D01*
X114392164Y-153860000D02*
X114607836Y-153860000D01*
%TO.C,C35*%
X304892164Y-141640000D02*
X305107836Y-141640000D01*
X304892164Y-142360000D02*
X305107836Y-142360000D01*
%TO.C,C46*%
X220892164Y-142140000D02*
X221107836Y-142140000D01*
X220892164Y-142860000D02*
X221107836Y-142860000D01*
%TO.C,C4*%
X188392164Y-148840000D02*
X188607836Y-148840000D01*
X188392164Y-149560000D02*
X188607836Y-149560000D01*
%TO.C,R62*%
X244646359Y-155870000D02*
X244953641Y-155870000D01*
X244646359Y-156630000D02*
X244953641Y-156630000D01*
%TO.C,U6*%
X298250000Y-145400000D02*
X303750000Y-145400000D01*
X298250000Y-150600000D02*
X303750000Y-150600000D01*
D11*
X297962500Y-151000000D02*
G75*
G02*
X297737500Y-151000000I-112500J0D01*
G01*
X297737500Y-151000000D02*
G75*
G02*
X297962500Y-151000000I112500J0D01*
G01*
%TO.C,C7*%
D10*
X194892164Y-152640000D02*
X195107836Y-152640000D01*
X194892164Y-153360000D02*
X195107836Y-153360000D01*
%TO.C,R40*%
X237996359Y-146670000D02*
X238303641Y-146670000D01*
X237996359Y-147430000D02*
X238303641Y-147430000D01*
%TO.C,C63*%
X243892164Y-139640000D02*
X244107836Y-139640000D01*
X243892164Y-140360000D02*
X244107836Y-140360000D01*
%TO.C,C31*%
X302392164Y-153140000D02*
X302607836Y-153140000D01*
X302392164Y-153860000D02*
X302607836Y-153860000D01*
%TO.C,J5*%
X165890000Y-141215000D02*
X166940000Y-141215000D01*
X165890000Y-143715000D02*
X165890000Y-141215000D01*
X166940000Y-141215000D02*
X166940000Y-140225000D01*
X167060000Y-145685000D02*
X170940000Y-145685000D01*
X172110000Y-141215000D02*
X171060000Y-141215000D01*
X172110000Y-143715000D02*
X172110000Y-141215000D01*
%TO.C,Q1*%
X179390000Y-143440000D02*
X180910000Y-143440000D01*
X179390000Y-143490000D02*
X179390000Y-143440000D01*
X179390000Y-145390000D02*
X179390000Y-144610000D01*
X179390000Y-146560000D02*
X179390000Y-146510000D01*
X180910000Y-143440000D02*
X180910000Y-144440000D01*
X180910000Y-145560000D02*
X180910000Y-146560000D01*
X180910000Y-146560000D02*
X179390000Y-146560000D01*
X178850000Y-144620000D02*
X179090000Y-144950000D01*
X178610000Y-144950000D01*
X178850000Y-144620000D01*
G36*
X179090000Y-144950000D02*
G01*
X178610000Y-144950000D01*
X178850000Y-144620000D01*
X179090000Y-144950000D01*
G37*
%TO.C,U1*%
X190890000Y-144890000D02*
X191440000Y-144890000D01*
X190890000Y-145440000D02*
X190890000Y-144890000D01*
X190890000Y-151110000D02*
X190890000Y-150560000D01*
X191440000Y-151110000D02*
X190890000Y-151110000D01*
X196560000Y-144890000D02*
X197110000Y-144890000D01*
X197110000Y-144890000D02*
X197110000Y-145440000D01*
X197110000Y-150560000D02*
X197110000Y-151110000D01*
X197110000Y-151110000D02*
X196560000Y-151110000D01*
X190390000Y-145800000D02*
X190060000Y-146040000D01*
X190060000Y-145560000D01*
X190390000Y-145800000D01*
G36*
X190390000Y-145800000D02*
G01*
X190060000Y-146040000D01*
X190060000Y-145560000D01*
X190390000Y-145800000D01*
G37*
%TO.C,C45*%
X218892164Y-142140000D02*
X219107836Y-142140000D01*
X218892164Y-142860000D02*
X219107836Y-142860000D01*
%TO.C,R66*%
X254246359Y-154820000D02*
X254553641Y-154820000D01*
X254246359Y-155580000D02*
X254553641Y-155580000D01*
%TO.C,R43*%
X245246359Y-146670000D02*
X245553641Y-146670000D01*
X245246359Y-147430000D02*
X245553641Y-147430000D01*
%TO.C,U3*%
X210340000Y-144340000D02*
X210815000Y-144340000D01*
X210340000Y-144815000D02*
X210340000Y-144340000D01*
X210340000Y-149560000D02*
X210340000Y-149085000D01*
X210815000Y-149560000D02*
X210340000Y-149560000D01*
X215085000Y-144340000D02*
X215560000Y-144340000D01*
X215560000Y-144340000D02*
X215560000Y-144815000D01*
X215560000Y-149085000D02*
X215560000Y-149560000D01*
X215560000Y-149560000D02*
X215085000Y-149560000D01*
X209810000Y-145200000D02*
X209480000Y-145440000D01*
X209480000Y-144960000D01*
X209810000Y-145200000D01*
G36*
X209810000Y-145200000D02*
G01*
X209480000Y-145440000D01*
X209480000Y-144960000D01*
X209810000Y-145200000D01*
G37*
%TO.C,C40*%
X208892164Y-142490000D02*
X209107836Y-142490000D01*
X208892164Y-143210000D02*
X209107836Y-143210000D01*
%TO.C,C8*%
X199392164Y-146440000D02*
X199607836Y-146440000D01*
X199392164Y-147160000D02*
X199607836Y-147160000D01*
%TO.C,R45*%
X249846359Y-147370000D02*
X250153641Y-147370000D01*
X249846359Y-148130000D02*
X250153641Y-148130000D01*
%TO.C,R64*%
X249446359Y-155870000D02*
X249753641Y-155870000D01*
X249446359Y-156630000D02*
X249753641Y-156630000D01*
%TO.C,R22*%
X236196359Y-141120000D02*
X236503641Y-141120000D01*
X236196359Y-141880000D02*
X236503641Y-141880000D01*
%TO.C,U8*%
X237690000Y-148390000D02*
X242310000Y-148390000D01*
X237690000Y-148590000D02*
X237690000Y-148390000D01*
X237690000Y-153610000D02*
X237690000Y-153410000D01*
X242310000Y-148390000D02*
X242310000Y-148590000D01*
X242310000Y-153410000D02*
X242310000Y-153610000D01*
X242310000Y-153610000D02*
X237690000Y-153610000D01*
X237050000Y-148590000D02*
X236710000Y-148120000D01*
X237390000Y-148120000D01*
X237050000Y-148590000D01*
G36*
X237050000Y-148590000D02*
G01*
X236710000Y-148120000D01*
X237390000Y-148120000D01*
X237050000Y-148590000D01*
G37*
%TO.C,R73*%
X252896359Y-152420000D02*
X253203641Y-152420000D01*
X252896359Y-153180000D02*
X253203641Y-153180000D01*
%TO.C,C5*%
X192392164Y-142640000D02*
X192607836Y-142640000D01*
X192392164Y-143360000D02*
X192607836Y-143360000D01*
%TO.C,C22*%
X120392164Y-153140000D02*
X120607836Y-153140000D01*
X120392164Y-153860000D02*
X120607836Y-153860000D01*
%TO.C,R8*%
X200346359Y-141620000D02*
X200653641Y-141620000D01*
X200346359Y-142380000D02*
X200653641Y-142380000D01*
%TO.C,R74*%
X254946359Y-152420000D02*
X255253641Y-152420000D01*
X254946359Y-153180000D02*
X255253641Y-153180000D01*
%TO.C,C82*%
X226892164Y-144640000D02*
X227107836Y-144640000D01*
X226892164Y-145360000D02*
X227107836Y-145360000D01*
%TO.C,R69*%
X241896359Y-154170000D02*
X242203641Y-154170000D01*
X241896359Y-154930000D02*
X242203641Y-154930000D01*
%TO.C,C34*%
X300892164Y-141640000D02*
X301107836Y-141640000D01*
X300892164Y-142360000D02*
X301107836Y-142360000D01*
%TO.C,C81*%
X229742164Y-149440000D02*
X229957836Y-149440000D01*
X229742164Y-150160000D02*
X229957836Y-150160000D01*
%TO.C,C32*%
X299392164Y-153140000D02*
X299607836Y-153140000D01*
X299392164Y-153860000D02*
X299607836Y-153860000D01*
%TO.C,R20*%
X231496359Y-140770000D02*
X231803641Y-140770000D01*
X231496359Y-141530000D02*
X231803641Y-141530000D01*
%TO.C,C87*%
X229042164Y-141140000D02*
X229257836Y-141140000D01*
X229042164Y-141860000D02*
X229257836Y-141860000D01*
%TO.C,C33*%
X296392164Y-153140000D02*
X296607836Y-153140000D01*
X296392164Y-153860000D02*
X296607836Y-153860000D01*
%TO.C,Y1*%
X183240000Y-140790000D02*
X183240000Y-143210000D01*
X183240000Y-143210000D02*
X186060000Y-143210000D01*
%TO.C,J2*%
X216390000Y-151935000D02*
X217440000Y-151935000D01*
X216390000Y-154435000D02*
X216390000Y-151935000D01*
X217440000Y-151935000D02*
X217440000Y-150945000D01*
X217560000Y-156405000D02*
X220440000Y-156405000D01*
X221610000Y-151935000D02*
X220560000Y-151935000D01*
X221610000Y-154435000D02*
X221610000Y-151935000D01*
%TO.C,R12*%
X243846359Y-144120000D02*
X244153641Y-144120000D01*
X243846359Y-144880000D02*
X244153641Y-144880000D01*
%TO.C,R72*%
X249446359Y-154520000D02*
X249753641Y-154520000D01*
X249446359Y-155280000D02*
X249753641Y-155280000D01*
%TO.C,C84*%
X232209420Y-142040000D02*
X232490580Y-142040000D01*
X232209420Y-143060000D02*
X232490580Y-143060000D01*
%TO.C,C24*%
X118892164Y-141640000D02*
X119107836Y-141640000D01*
X118892164Y-142360000D02*
X119107836Y-142360000D01*
%TO.C,R13*%
X183196359Y-144620000D02*
X183503641Y-144620000D01*
X183196359Y-145380000D02*
X183503641Y-145380000D01*
%TO.C,R5*%
X224696359Y-147420000D02*
X225003641Y-147420000D01*
X224696359Y-148180000D02*
X225003641Y-148180000D01*
%TO.C,C43*%
X214892164Y-142140000D02*
X215107836Y-142140000D01*
X214892164Y-142860000D02*
X215107836Y-142860000D01*
%TO.C,Y3*%
X295590000Y-140790000D02*
X295590000Y-143210000D01*
X295590000Y-143210000D02*
X298410000Y-143210000D01*
%TO.C,C1*%
X188392164Y-145340000D02*
X188607836Y-145340000D01*
X188392164Y-146060000D02*
X188607836Y-146060000D01*
%TO.C,C21*%
X117392164Y-153140000D02*
X117607836Y-153140000D01*
X117392164Y-153860000D02*
X117607836Y-153860000D01*
%TO.C,R68*%
X239846359Y-154170000D02*
X240153641Y-154170000D01*
X239846359Y-154930000D02*
X240153641Y-154930000D01*
%TO.C,R67*%
X256646359Y-154820000D02*
X256953641Y-154820000D01*
X256646359Y-155580000D02*
X256953641Y-155580000D01*
%TO.C,C6*%
X160892164Y-151640000D02*
X161107836Y-151640000D01*
X160892164Y-152360000D02*
X161107836Y-152360000D01*
%TO.C,C44*%
X216892164Y-142140000D02*
X217107836Y-142140000D01*
X216892164Y-142860000D02*
X217107836Y-142860000D01*
%TO.C,C62*%
X241392164Y-139640000D02*
X241607836Y-139640000D01*
X241392164Y-140360000D02*
X241607836Y-140360000D01*
%TO.C,C11*%
X164892164Y-147790000D02*
X165107836Y-147790000D01*
X164892164Y-148510000D02*
X165107836Y-148510000D01*
%TO.C,J3*%
X224890000Y-151935000D02*
X225940000Y-151935000D01*
X224890000Y-154435000D02*
X224890000Y-151935000D01*
X225940000Y-151935000D02*
X225940000Y-150945000D01*
X226060000Y-156405000D02*
X227940000Y-156405000D01*
X229110000Y-151935000D02*
X228060000Y-151935000D01*
X229110000Y-154435000D02*
X229110000Y-151935000D01*
%TO.C,C2*%
X188392164Y-146990000D02*
X188607836Y-146990000D01*
X188392164Y-147710000D02*
X188607836Y-147710000D01*
%TO.C,R44*%
X247546359Y-147370000D02*
X247853641Y-147370000D01*
X247546359Y-148130000D02*
X247853641Y-148130000D01*
%TO.C,C52*%
X182392164Y-152640000D02*
X182607836Y-152640000D01*
X182392164Y-153360000D02*
X182607836Y-153360000D01*
%TO.C,C85*%
X235059420Y-144490000D02*
X235340580Y-144490000D01*
X235059420Y-145510000D02*
X235340580Y-145510000D01*
%TO.C,U11*%
X228790000Y-148380000D02*
X228790000Y-148610000D01*
X228790000Y-148610000D02*
X229520000Y-148610000D01*
X229520000Y-143890000D02*
X229090000Y-143890000D01*
X231780000Y-143890000D02*
X232510000Y-143890000D01*
X231780000Y-148610000D02*
X232510000Y-148610000D01*
X232510000Y-143890000D02*
X232510000Y-144120000D01*
X232510000Y-148380000D02*
X232510000Y-148610000D01*
X228790000Y-143890000D02*
X228550000Y-143560000D01*
X229030000Y-143560000D01*
X228790000Y-143890000D01*
G36*
X228790000Y-143890000D02*
G01*
X228550000Y-143560000D01*
X229030000Y-143560000D01*
X228790000Y-143890000D01*
G37*
%TO.C,U7*%
X262240000Y-147540000D02*
X267760000Y-147540000D01*
X262240000Y-147715000D02*
X262240000Y-147540000D01*
X262240000Y-155960000D02*
X262240000Y-155785000D01*
X267760000Y-147540000D02*
X267760000Y-147715000D01*
X267760000Y-155785000D02*
X267760000Y-155960000D01*
X267760000Y-155960000D02*
X262240000Y-155960000D01*
X261500000Y-147710000D02*
X261160000Y-147240000D01*
X261840000Y-147240000D01*
X261500000Y-147710000D01*
G36*
X261500000Y-147710000D02*
G01*
X261160000Y-147240000D01*
X261840000Y-147240000D01*
X261500000Y-147710000D01*
G37*
%TO.C,L3*%
X208487221Y-152490000D02*
X208812779Y-152490000D01*
X208487221Y-153510000D02*
X208812779Y-153510000D01*
%TO.C,R60*%
X239846359Y-155520000D02*
X240153641Y-155520000D01*
X239846359Y-156280000D02*
X240153641Y-156280000D01*
%TO.C,R70*%
X244996359Y-154520000D02*
X245303641Y-154520000D01*
X244996359Y-155280000D02*
X245303641Y-155280000D01*
%TO.C,C83*%
X229042164Y-142540000D02*
X229257836Y-142540000D01*
X229042164Y-143260000D02*
X229257836Y-143260000D01*
%TO.C,R65*%
X251846359Y-154820000D02*
X252153641Y-154820000D01*
X251846359Y-155580000D02*
X252153641Y-155580000D01*
%TO.C,C25*%
X114892164Y-141640000D02*
X115107836Y-141640000D01*
X114892164Y-142360000D02*
X115107836Y-142360000D01*
%TO.C,R3*%
X219996359Y-148120000D02*
X220303641Y-148120000D01*
X219996359Y-148880000D02*
X220303641Y-148880000D01*
%TO.C,C80*%
X226509420Y-148940000D02*
X226790580Y-148940000D01*
X226509420Y-149960000D02*
X226790580Y-149960000D01*
%TO.C,C41*%
X210892164Y-142140000D02*
X211107836Y-142140000D01*
X210892164Y-142860000D02*
X211107836Y-142860000D01*
%TO.C,R71*%
X247046359Y-154520000D02*
X247353641Y-154520000D01*
X247046359Y-155280000D02*
X247353641Y-155280000D01*
%TO.C,R21*%
X233846359Y-140770000D02*
X234153641Y-140770000D01*
X233846359Y-141530000D02*
X234153641Y-141530000D01*
%TO.C,R63*%
X247046359Y-155870000D02*
X247353641Y-155870000D01*
X247046359Y-156630000D02*
X247353641Y-156630000D01*
%TO.C,J4*%
X248700000Y-140700000D02*
X248700000Y-142040000D01*
X248700000Y-144760000D02*
X248700000Y-146500000D01*
X248700000Y-146500000D02*
X264000000Y-146500000D01*
X250190000Y-140700000D02*
X248700000Y-140700000D01*
X250190000Y-140700000D02*
X250190000Y-139500000D01*
X262510000Y-140700000D02*
X264000000Y-140700000D01*
X264000000Y-140700000D02*
X264000000Y-142040000D01*
X264000000Y-146500000D02*
X264000000Y-144760000D01*
%TO.C,R7*%
X197846359Y-141620000D02*
X198153641Y-141620000D01*
X197846359Y-142380000D02*
X198153641Y-142380000D01*
%TO.C,AE1*%
X153940000Y-146640000D02*
X153940000Y-149360000D01*
X153940000Y-149360000D02*
X160650000Y-149360000D01*
X160650000Y-146640000D02*
X153940000Y-146640000D01*
%TO.C,U5*%
X184240000Y-148590000D02*
X185760000Y-148590000D01*
X184240000Y-148640000D02*
X184240000Y-148590000D01*
X184240000Y-150540000D02*
X184240000Y-149760000D01*
X184240000Y-151710000D02*
X184240000Y-151660000D01*
X185760000Y-148590000D02*
X185760000Y-149590000D01*
X185760000Y-150710000D02*
X185760000Y-151710000D01*
X185760000Y-151710000D02*
X184240000Y-151710000D01*
X183700000Y-149770000D02*
X183940000Y-150100000D01*
X183460000Y-150100000D01*
X183700000Y-149770000D01*
G36*
X183940000Y-150100000D02*
G01*
X183460000Y-150100000D01*
X183700000Y-149770000D01*
X183940000Y-150100000D01*
G37*
%TO.C,C50*%
X207742164Y-141290000D02*
X207957836Y-141290000D01*
X207742164Y-142010000D02*
X207957836Y-142010000D01*
%TO.C,R6*%
X227046359Y-147420000D02*
X227353641Y-147420000D01*
X227046359Y-148180000D02*
X227353641Y-148180000D01*
%TO.C,C86*%
X226892164Y-141140000D02*
X227107836Y-141140000D01*
X226892164Y-141860000D02*
X227107836Y-141860000D01*
%TO.C,J1*%
X164350000Y-150800000D02*
X164350000Y-152140000D01*
X164350000Y-154860000D02*
X164350000Y-156600000D01*
X164350000Y-156600000D02*
X173650000Y-156600000D01*
X165840000Y-150800000D02*
X164350000Y-150800000D01*
X165840000Y-150800000D02*
X165840000Y-149600000D01*
X172160000Y-150800000D02*
X173650000Y-150800000D01*
X173650000Y-150800000D02*
X173650000Y-152140000D01*
X173650000Y-156600000D02*
X173650000Y-154860000D01*
%TO.C,C42*%
X212892164Y-142140000D02*
X213107836Y-142140000D01*
X212892164Y-142860000D02*
X213107836Y-142860000D01*
%TO.C,L1*%
X187837221Y-152840000D02*
X188162779Y-152840000D01*
X187837221Y-153860000D02*
X188162779Y-153860000D01*
%TO.C,C88*%
X234159420Y-150340000D02*
X234440580Y-150340000D01*
X234159420Y-151360000D02*
X234440580Y-151360000D01*
%TO.C,C23*%
X123392164Y-153140000D02*
X123607836Y-153140000D01*
X123392164Y-153860000D02*
X123607836Y-153860000D01*
%TO.C,Y4*%
X187090000Y-143090000D02*
X187090000Y-144810000D01*
X187090000Y-144810000D02*
X189610000Y-144810000D01*
X189610000Y-143090000D02*
X187090000Y-143090000D01*
%TO.C,C61*%
X238892164Y-139640000D02*
X239107836Y-139640000D01*
X238892164Y-140360000D02*
X239107836Y-140360000D01*
%TD*%
%LPC*%
D13*
%TO.C,FID1*%
X114000000Y-144250000D03*
%TD*%
D14*
%TO.C,C51*%
X204520000Y-153000000D03*
X205480000Y-153000000D03*
%TD*%
D15*
%TO.C,R4*%
X221990000Y-148500000D03*
X223010000Y-148500000D03*
%TD*%
%TO.C,R42*%
X242240000Y-147050000D03*
X243260000Y-147050000D03*
%TD*%
D14*
%TO.C,C3*%
X196520000Y-153000000D03*
X197480000Y-153000000D03*
%TD*%
%TO.C,C30*%
X305020000Y-153500000D03*
X305980000Y-153500000D03*
%TD*%
D15*
%TO.C,R61*%
X241540000Y-155900000D03*
X242560000Y-155900000D03*
%TD*%
D16*
%TO.C,U9*%
X245037500Y-149400000D03*
X245037500Y-150050000D03*
X245037500Y-150700000D03*
X245037500Y-151350000D03*
X245037500Y-152000000D03*
X245037500Y-152650000D03*
X245037500Y-153300000D03*
X250762500Y-153300000D03*
X250762500Y-152650000D03*
X250762500Y-152000000D03*
X250762500Y-151350000D03*
X250762500Y-150700000D03*
X250762500Y-150050000D03*
X250762500Y-149400000D03*
%TD*%
D15*
%TO.C,R10*%
X238490000Y-144500000D03*
X239510000Y-144500000D03*
%TD*%
D17*
%TO.C,U2*%
X121250000Y-146250000D03*
X121250000Y-146750000D03*
X121250000Y-147250000D03*
X121250000Y-147750000D03*
X121250000Y-148250000D03*
X121250000Y-148750000D03*
X121250000Y-149250000D03*
X121250000Y-149750000D03*
X120750000Y-145750000D03*
X120750000Y-146250000D03*
X120750000Y-149750000D03*
X120750000Y-150250000D03*
X120250000Y-145750000D03*
X120250000Y-146250000D03*
X120250000Y-149750000D03*
X120250000Y-150250000D03*
X119750000Y-145750000D03*
X119750000Y-146250000D03*
X119750000Y-149750000D03*
X119750000Y-150250000D03*
X119250000Y-145750000D03*
X119250000Y-146250000D03*
X119250000Y-149750000D03*
X119250000Y-150250000D03*
X118750000Y-145750000D03*
X118750000Y-146250000D03*
X118750000Y-149750000D03*
X118750000Y-150250000D03*
X118250000Y-145750000D03*
X118250000Y-150250000D03*
X117750000Y-145750000D03*
X117750000Y-146250000D03*
X117750000Y-149750000D03*
X117750000Y-150250000D03*
X117250000Y-145750000D03*
X117250000Y-146250000D03*
X117250000Y-146750000D03*
X117250000Y-147750000D03*
X117250000Y-148250000D03*
X117250000Y-149250000D03*
X117250000Y-149750000D03*
X117250000Y-150250000D03*
X116750000Y-146250000D03*
X116750000Y-146750000D03*
X116750000Y-147250000D03*
X116750000Y-147750000D03*
X116750000Y-148250000D03*
X116750000Y-148750000D03*
X116750000Y-149250000D03*
X116750000Y-149750000D03*
%TD*%
D14*
%TO.C,C60*%
X245670000Y-145950000D03*
X246630000Y-145950000D03*
%TD*%
D18*
%TO.C,Y2*%
X122300000Y-142550000D03*
X123700000Y-142550000D03*
X123700000Y-141450000D03*
X122300000Y-141450000D03*
%TD*%
D19*
%TO.C,L4*%
X211062500Y-153000000D03*
X212637500Y-153000000D03*
%TD*%
D15*
%TO.C,R11*%
X240990000Y-144500000D03*
X242010000Y-144500000D03*
%TD*%
%TO.C,R41*%
X239940000Y-147050000D03*
X240960000Y-147050000D03*
%TD*%
%TO.C,R75*%
X256640000Y-152800000D03*
X257660000Y-152800000D03*
%TD*%
D20*
%TO.C,U4*%
X203387500Y-141250000D03*
X203387500Y-141750000D03*
X203387500Y-142250000D03*
X203387500Y-142750000D03*
D21*
X204150000Y-143012500D03*
X204650000Y-143012500D03*
X205150000Y-143012500D03*
D20*
X205912500Y-142750000D03*
X205912500Y-142250000D03*
X205912500Y-141750000D03*
X205912500Y-141250000D03*
D21*
X205150000Y-140987500D03*
X204650000Y-140987500D03*
X204150000Y-140987500D03*
%TD*%
D15*
%TO.C,R2*%
X216940000Y-148500000D03*
X217960000Y-148500000D03*
%TD*%
D14*
%TO.C,C20*%
X114020000Y-153500000D03*
X114980000Y-153500000D03*
%TD*%
%TO.C,C35*%
X304520000Y-142000000D03*
X305480000Y-142000000D03*
%TD*%
%TO.C,C46*%
X220520000Y-142500000D03*
X221480000Y-142500000D03*
%TD*%
%TO.C,C4*%
X188020000Y-149200000D03*
X188980000Y-149200000D03*
%TD*%
D15*
%TO.C,R62*%
X244290000Y-156250000D03*
X245310000Y-156250000D03*
%TD*%
D13*
%TO.C,FID6*%
X306000000Y-155750000D03*
%TD*%
D17*
%TO.C,U6*%
X298750000Y-149750000D03*
X298750000Y-149250000D03*
X298750000Y-148750000D03*
X298750000Y-148250000D03*
X298750000Y-147750000D03*
X298750000Y-147250000D03*
X298750000Y-146750000D03*
X298750000Y-146250000D03*
X299250000Y-150250000D03*
X299250000Y-149750000D03*
X299250000Y-146250000D03*
X299250000Y-145750000D03*
X299750000Y-150250000D03*
X299750000Y-149750000D03*
X299750000Y-146250000D03*
X299750000Y-145750000D03*
X300250000Y-150250000D03*
X300250000Y-149750000D03*
X300250000Y-146250000D03*
X300250000Y-145750000D03*
X300750000Y-150250000D03*
X300750000Y-149750000D03*
X300750000Y-146250000D03*
X300750000Y-145750000D03*
X301250000Y-150250000D03*
X301250000Y-149750000D03*
X301250000Y-146250000D03*
X301250000Y-145750000D03*
X301750000Y-150250000D03*
X301750000Y-145750000D03*
X302250000Y-150250000D03*
X302250000Y-149750000D03*
X302250000Y-146250000D03*
X302250000Y-145750000D03*
X302750000Y-150250000D03*
X302750000Y-149750000D03*
X302750000Y-149250000D03*
X302750000Y-148250000D03*
X302750000Y-147750000D03*
X302750000Y-146750000D03*
X302750000Y-146250000D03*
X302750000Y-145750000D03*
X303250000Y-149750000D03*
X303250000Y-149250000D03*
X303250000Y-148750000D03*
X303250000Y-148250000D03*
X303250000Y-147750000D03*
X303250000Y-147250000D03*
X303250000Y-146750000D03*
X303250000Y-146250000D03*
%TD*%
D14*
%TO.C,C7*%
X194520000Y-153000000D03*
X195480000Y-153000000D03*
%TD*%
D13*
%TO.C,FID3*%
X151000000Y-140500000D03*
%TD*%
D15*
%TO.C,R40*%
X237640000Y-147050000D03*
X238660000Y-147050000D03*
%TD*%
D14*
%TO.C,C63*%
X243520000Y-140000000D03*
X244480000Y-140000000D03*
%TD*%
%TO.C,C31*%
X302020000Y-153500000D03*
X302980000Y-153500000D03*
%TD*%
D22*
%TO.C,J5*%
X167500000Y-141000000D03*
X168500000Y-141000000D03*
X169500000Y-141000000D03*
X170500000Y-141000000D03*
D23*
X166200000Y-144875000D03*
X171800000Y-144875000D03*
%TD*%
D24*
%TO.C,Q1*%
X179212500Y-144050000D03*
X179212500Y-145950000D03*
X181087500Y-145000000D03*
%TD*%
D25*
%TO.C,U1*%
X191050000Y-145800000D03*
X191050000Y-146200000D03*
X191050000Y-146600000D03*
X191050000Y-147000000D03*
X191050000Y-147400000D03*
X191050000Y-147800000D03*
X191050000Y-148200000D03*
X191050000Y-148600000D03*
X191050000Y-149000000D03*
X191050000Y-149400000D03*
X191050000Y-149800000D03*
X191050000Y-150200000D03*
D26*
X191800000Y-150950000D03*
X192200000Y-150950000D03*
X192600000Y-150950000D03*
X193000000Y-150950000D03*
X193400000Y-150950000D03*
X193800000Y-150950000D03*
X194200000Y-150950000D03*
X194600000Y-150950000D03*
X195000000Y-150950000D03*
X195400000Y-150950000D03*
X195800000Y-150950000D03*
X196200000Y-150950000D03*
D25*
X196950000Y-150200000D03*
X196950000Y-149800000D03*
X196950000Y-149400000D03*
X196950000Y-149000000D03*
X196950000Y-148600000D03*
X196950000Y-148200000D03*
X196950000Y-147800000D03*
X196950000Y-147400000D03*
X196950000Y-147000000D03*
X196950000Y-146600000D03*
X196950000Y-146200000D03*
X196950000Y-145800000D03*
D26*
X196200000Y-145050000D03*
X195800000Y-145050000D03*
X195400000Y-145050000D03*
X195000000Y-145050000D03*
X194600000Y-145050000D03*
X194200000Y-145050000D03*
X193800000Y-145050000D03*
X193400000Y-145050000D03*
X193000000Y-145050000D03*
X192600000Y-145050000D03*
X192200000Y-145050000D03*
X191800000Y-145050000D03*
D27*
X194000000Y-148000000D03*
%TD*%
D14*
%TO.C,C45*%
X218520000Y-142500000D03*
X219480000Y-142500000D03*
%TD*%
D13*
%TO.C,FID5*%
X296000000Y-145000000D03*
%TD*%
D15*
%TO.C,R66*%
X253890000Y-155200000D03*
X254910000Y-155200000D03*
%TD*%
%TO.C,R43*%
X244890000Y-147050000D03*
X245910000Y-147050000D03*
%TD*%
D28*
%TO.C,U3*%
X210512500Y-145200000D03*
X210512500Y-145700000D03*
X210512500Y-146200000D03*
X210512500Y-146700000D03*
X210512500Y-147200000D03*
X210512500Y-147700000D03*
X210512500Y-148200000D03*
X210512500Y-148700000D03*
D29*
X211200000Y-149387500D03*
X211700000Y-149387500D03*
X212200000Y-149387500D03*
X212700000Y-149387500D03*
X213200000Y-149387500D03*
X213700000Y-149387500D03*
X214200000Y-149387500D03*
X214700000Y-149387500D03*
D28*
X215387500Y-148700000D03*
X215387500Y-148200000D03*
X215387500Y-147700000D03*
X215387500Y-147200000D03*
X215387500Y-146700000D03*
X215387500Y-146200000D03*
X215387500Y-145700000D03*
X215387500Y-145200000D03*
D29*
X214700000Y-144512500D03*
X214200000Y-144512500D03*
X213700000Y-144512500D03*
X213200000Y-144512500D03*
X212700000Y-144512500D03*
X212200000Y-144512500D03*
X211700000Y-144512500D03*
X211200000Y-144512500D03*
D30*
X212950000Y-146950000D03*
%TD*%
D14*
%TO.C,C40*%
X208520000Y-142850000D03*
X209480000Y-142850000D03*
%TD*%
%TO.C,C8*%
X199020000Y-146800000D03*
X199980000Y-146800000D03*
%TD*%
D31*
%TO.C,L2*%
X162365000Y-148000000D03*
X163335000Y-148000000D03*
%TD*%
D15*
%TO.C,R45*%
X249490000Y-147750000D03*
X250510000Y-147750000D03*
%TD*%
%TO.C,R64*%
X249090000Y-156250000D03*
X250110000Y-156250000D03*
%TD*%
%TO.C,R22*%
X235840000Y-141500000D03*
X236860000Y-141500000D03*
%TD*%
D16*
%TO.C,U8*%
X237137500Y-149050000D03*
X237137500Y-149700000D03*
X237137500Y-150350000D03*
X237137500Y-151000000D03*
X237137500Y-151650000D03*
X237137500Y-152300000D03*
X237137500Y-152950000D03*
X242862500Y-152950000D03*
X242862500Y-152300000D03*
X242862500Y-151650000D03*
X242862500Y-151000000D03*
X242862500Y-150350000D03*
X242862500Y-149700000D03*
X242862500Y-149050000D03*
%TD*%
D15*
%TO.C,R73*%
X252540000Y-152800000D03*
X253560000Y-152800000D03*
%TD*%
D14*
%TO.C,C5*%
X192020000Y-143000000D03*
X192980000Y-143000000D03*
%TD*%
%TO.C,C22*%
X120020000Y-153500000D03*
X120980000Y-153500000D03*
%TD*%
D15*
%TO.C,R8*%
X199990000Y-142000000D03*
X201010000Y-142000000D03*
%TD*%
%TO.C,R74*%
X254590000Y-152800000D03*
X255610000Y-152800000D03*
%TD*%
D14*
%TO.C,C82*%
X226520000Y-145000000D03*
X227480000Y-145000000D03*
%TD*%
D15*
%TO.C,R69*%
X241540000Y-154550000D03*
X242560000Y-154550000D03*
%TD*%
D14*
%TO.C,C34*%
X300520000Y-142000000D03*
X301480000Y-142000000D03*
%TD*%
%TO.C,C81*%
X229370000Y-149800000D03*
X230330000Y-149800000D03*
%TD*%
%TO.C,C32*%
X299020000Y-153500000D03*
X299980000Y-153500000D03*
%TD*%
D15*
%TO.C,R20*%
X231140000Y-141150000D03*
X232160000Y-141150000D03*
%TD*%
D14*
%TO.C,C87*%
X228670000Y-141500000D03*
X229630000Y-141500000D03*
%TD*%
%TO.C,C33*%
X296020000Y-153500000D03*
X296980000Y-153500000D03*
%TD*%
D18*
%TO.C,Y1*%
X183950000Y-142550000D03*
X185350000Y-142550000D03*
X185350000Y-141450000D03*
X183950000Y-141450000D03*
%TD*%
D22*
%TO.C,J2*%
X218000000Y-151720000D03*
X219000000Y-151720000D03*
X220000000Y-151720000D03*
D23*
X216700000Y-155595000D03*
X221300000Y-155595000D03*
%TD*%
D15*
%TO.C,R12*%
X243490000Y-144500000D03*
X244510000Y-144500000D03*
%TD*%
%TO.C,R72*%
X249090000Y-154900000D03*
X250110000Y-154900000D03*
%TD*%
D32*
%TO.C,C84*%
X231575000Y-142550000D03*
X233125000Y-142550000D03*
%TD*%
D14*
%TO.C,C24*%
X118520000Y-142000000D03*
X119480000Y-142000000D03*
%TD*%
D15*
%TO.C,R13*%
X182840000Y-145000000D03*
X183860000Y-145000000D03*
%TD*%
%TO.C,R5*%
X224340000Y-147800000D03*
X225360000Y-147800000D03*
%TD*%
D14*
%TO.C,C43*%
X214520000Y-142500000D03*
X215480000Y-142500000D03*
%TD*%
D18*
%TO.C,Y3*%
X296300000Y-142550000D03*
X297700000Y-142550000D03*
X297700000Y-141450000D03*
X296300000Y-141450000D03*
%TD*%
D13*
%TO.C,FID2*%
X124000000Y-155750000D03*
%TD*%
D14*
%TO.C,C1*%
X188020000Y-145700000D03*
X188980000Y-145700000D03*
%TD*%
D13*
%TO.C,FID4*%
X269000000Y-145500000D03*
%TD*%
D14*
%TO.C,C21*%
X117020000Y-153500000D03*
X117980000Y-153500000D03*
%TD*%
D15*
%TO.C,R68*%
X239490000Y-154550000D03*
X240510000Y-154550000D03*
%TD*%
%TO.C,R67*%
X256290000Y-155200000D03*
X257310000Y-155200000D03*
%TD*%
D14*
%TO.C,C6*%
X160520000Y-152000000D03*
X161480000Y-152000000D03*
%TD*%
%TO.C,C44*%
X216520000Y-142500000D03*
X217480000Y-142500000D03*
%TD*%
%TO.C,C62*%
X241020000Y-140000000D03*
X241980000Y-140000000D03*
%TD*%
%TO.C,C11*%
X164520000Y-148150000D03*
X165480000Y-148150000D03*
%TD*%
D22*
%TO.C,J3*%
X226500000Y-151720000D03*
X227500000Y-151720000D03*
D23*
X225200000Y-155595000D03*
X228800000Y-155595000D03*
%TD*%
D14*
%TO.C,C2*%
X188020000Y-147350000D03*
X188980000Y-147350000D03*
%TD*%
D15*
%TO.C,R44*%
X247190000Y-147750000D03*
X248210000Y-147750000D03*
%TD*%
D14*
%TO.C,C52*%
X182020000Y-153000000D03*
X182980000Y-153000000D03*
%TD*%
D32*
%TO.C,C85*%
X234425000Y-145000000D03*
X235975000Y-145000000D03*
%TD*%
D33*
%TO.C,U11*%
X229900000Y-144100000D03*
D34*
X229000000Y-144500000D03*
X229000000Y-145000000D03*
X229000000Y-145500000D03*
X229000000Y-146000000D03*
X229000000Y-146500000D03*
X229000000Y-147000000D03*
X229000000Y-147500000D03*
X229000000Y-148000000D03*
D33*
X229900000Y-148400000D03*
X231400000Y-148400000D03*
D34*
X232300000Y-148000000D03*
X232300000Y-147500000D03*
X232300000Y-147000000D03*
X232300000Y-146500000D03*
X232300000Y-146000000D03*
X232300000Y-145500000D03*
X232300000Y-145000000D03*
X232300000Y-144500000D03*
D33*
X231400000Y-144100000D03*
D35*
X230375000Y-144100000D03*
X230375000Y-148400000D03*
D36*
X230650000Y-146250000D03*
D35*
X230925000Y-144100000D03*
X230925000Y-148400000D03*
%TD*%
D37*
%TO.C,U7*%
X261500000Y-148175000D03*
X261500000Y-148825000D03*
X261500000Y-149475000D03*
X261500000Y-150125000D03*
X261500000Y-150775000D03*
X261500000Y-151425000D03*
X261500000Y-152075000D03*
X261500000Y-152725000D03*
X261500000Y-153375000D03*
X261500000Y-154025000D03*
X261500000Y-154675000D03*
X261500000Y-155325000D03*
X268500000Y-155325000D03*
X268500000Y-154675000D03*
X268500000Y-154025000D03*
X268500000Y-153375000D03*
X268500000Y-152725000D03*
X268500000Y-152075000D03*
X268500000Y-151425000D03*
X268500000Y-150775000D03*
X268500000Y-150125000D03*
X268500000Y-149475000D03*
X268500000Y-148825000D03*
X268500000Y-148175000D03*
%TD*%
D19*
%TO.C,L3*%
X207862500Y-153000000D03*
X209437500Y-153000000D03*
%TD*%
D15*
%TO.C,R60*%
X239490000Y-155900000D03*
X240510000Y-155900000D03*
%TD*%
%TO.C,R70*%
X244640000Y-154900000D03*
X245660000Y-154900000D03*
%TD*%
D14*
%TO.C,C83*%
X228670000Y-142900000D03*
X229630000Y-142900000D03*
%TD*%
D15*
%TO.C,R65*%
X251490000Y-155200000D03*
X252510000Y-155200000D03*
%TD*%
D14*
%TO.C,C25*%
X114520000Y-142000000D03*
X115480000Y-142000000D03*
%TD*%
D15*
%TO.C,R3*%
X219640000Y-148500000D03*
X220660000Y-148500000D03*
%TD*%
D32*
%TO.C,C80*%
X225875000Y-149450000D03*
X227425000Y-149450000D03*
%TD*%
D14*
%TO.C,C41*%
X210520000Y-142500000D03*
X211480000Y-142500000D03*
%TD*%
D15*
%TO.C,R71*%
X246690000Y-154900000D03*
X247710000Y-154900000D03*
%TD*%
%TO.C,R21*%
X233490000Y-141150000D03*
X234510000Y-141150000D03*
%TD*%
%TO.C,R63*%
X246690000Y-156250000D03*
X247710000Y-156250000D03*
%TD*%
D38*
%TO.C,J4*%
X250600000Y-140150000D03*
X251100000Y-140150000D03*
X251600000Y-140150000D03*
X252100000Y-140150000D03*
X252600000Y-140150000D03*
X253100000Y-140150000D03*
X253600000Y-140150000D03*
X254100000Y-140150000D03*
X254600000Y-140150000D03*
X255100000Y-140150000D03*
X255600000Y-140150000D03*
X256100000Y-140150000D03*
X256600000Y-140150000D03*
X257100000Y-140150000D03*
X257600000Y-140150000D03*
X258100000Y-140150000D03*
X258600000Y-140150000D03*
X259100000Y-140150000D03*
X259600000Y-140150000D03*
X260100000Y-140150000D03*
X260600000Y-140150000D03*
X261100000Y-140150000D03*
X261600000Y-140150000D03*
X262100000Y-140150000D03*
D39*
X248700000Y-143400000D03*
X264000000Y-143400000D03*
%TD*%
D15*
%TO.C,R7*%
X197490000Y-142000000D03*
X198510000Y-142000000D03*
%TD*%
D40*
%TO.C,AE1*%
X154800000Y-148000000D03*
X160500000Y-148000000D03*
%TD*%
D24*
%TO.C,U5*%
X184062500Y-149200000D03*
X184062500Y-151100000D03*
X185937500Y-150150000D03*
%TD*%
D14*
%TO.C,C50*%
X207370000Y-141650000D03*
X208330000Y-141650000D03*
%TD*%
D15*
%TO.C,R6*%
X226690000Y-147800000D03*
X227710000Y-147800000D03*
%TD*%
D14*
%TO.C,C86*%
X226520000Y-141500000D03*
X227480000Y-141500000D03*
%TD*%
D38*
%TO.C,J1*%
X166250000Y-150250000D03*
X166750000Y-150250000D03*
X167250000Y-150250000D03*
X167750000Y-150250000D03*
X168250000Y-150250000D03*
X168750000Y-150250000D03*
X169250000Y-150250000D03*
X169750000Y-150250000D03*
X170250000Y-150250000D03*
X170750000Y-150250000D03*
X171250000Y-150250000D03*
X171750000Y-150250000D03*
D39*
X164350000Y-153500000D03*
X173650000Y-153500000D03*
%TD*%
D14*
%TO.C,C42*%
X212520000Y-142500000D03*
X213480000Y-142500000D03*
%TD*%
D19*
%TO.C,L1*%
X187212500Y-153350000D03*
X188787500Y-153350000D03*
%TD*%
D32*
%TO.C,C88*%
X233525000Y-150850000D03*
X235075000Y-150850000D03*
%TD*%
D14*
%TO.C,C23*%
X123020000Y-153500000D03*
X123980000Y-153500000D03*
%TD*%
D41*
%TO.C,Y4*%
X187650000Y-143950000D03*
X189050000Y-143950000D03*
%TD*%
D14*
%TO.C,C61*%
X238520000Y-140000000D03*
X239480000Y-140000000D03*
%TD*%
%LPD*%
M02*
