%TF.GenerationSoftware,KiCad,Pcbnew,10.0.4*%
%TF.CreationDate,2026-08-31T10:03:01+02:00*%
%TF.ProjectId,smartbag_core,736d6172-7462-4616-975f-636f72652e6b,rev?*%
%TF.SameCoordinates,Original*%
%TF.FileFunction,Drillmap*%
%TF.FilePolarity,Positive*%
%FSLAX45Y45*%
G04 Gerber Fmt 4.5, Leading zero omitted, Abs format (unit mm)*
G04 Created by KiCad (PCBNEW 10.0.4) date 2026-08-31 10:03:01*
%MOMM*%
%LPD*%
G01*
G04 APERTURE LIST*
%ADD10C,0.100000*%
%ADD11C,0.200000*%
G04 APERTURE END LIST*
D10*
X11200000Y-13800000D02*
X13200000Y-13800000D01*
X11200000Y-15800000D02*
X11200000Y-13800000D01*
X13200000Y-13800000D02*
X13200000Y-14100000D01*
X13200000Y-14100000D02*
X16200000Y-14100000D01*
X13200000Y-15500000D02*
X13200000Y-15800000D01*
X13200000Y-15800000D02*
X11200000Y-15800000D01*
X16200000Y-13800000D02*
X25800000Y-13800000D01*
X16200000Y-14100000D02*
X16200000Y-13800000D01*
X16200000Y-15500000D02*
X13200000Y-15500000D01*
X16200000Y-15800000D02*
X16200000Y-15500000D01*
X25800000Y-13800000D02*
X25800000Y-14100000D01*
X25800000Y-14100000D02*
X28800000Y-14100000D01*
X25800000Y-15500000D02*
X25800000Y-15800000D01*
X25800000Y-15800000D02*
X16200000Y-15800000D01*
X28800000Y-13800000D02*
X30800000Y-13800000D01*
X28800000Y-14100000D02*
X28800000Y-13800000D01*
X28800000Y-15500000D02*
X25800000Y-15500000D01*
X28800000Y-15800000D02*
X28800000Y-15500000D01*
X30800000Y-13800000D02*
X30800000Y-15800000D01*
X30800000Y-15800000D02*
X28800000Y-15800000D01*
D11*
X11455777Y-16116484D02*
X11455777Y-15916484D01*
X11455777Y-15916484D02*
X11503396Y-15916484D01*
X11503396Y-15916484D02*
X11531967Y-15926008D01*
X11531967Y-15926008D02*
X11551015Y-15945055D01*
X11551015Y-15945055D02*
X11560539Y-15964103D01*
X11560539Y-15964103D02*
X11570062Y-16002198D01*
X11570062Y-16002198D02*
X11570062Y-16030769D01*
X11570062Y-16030769D02*
X11560539Y-16068865D01*
X11560539Y-16068865D02*
X11551015Y-16087912D01*
X11551015Y-16087912D02*
X11531967Y-16106960D01*
X11531967Y-16106960D02*
X11503396Y-16116484D01*
X11503396Y-16116484D02*
X11455777Y-16116484D01*
X11655777Y-16116484D02*
X11655777Y-15983150D01*
X11655777Y-16021246D02*
X11665301Y-16002198D01*
X11665301Y-16002198D02*
X11674824Y-15992674D01*
X11674824Y-15992674D02*
X11693872Y-15983150D01*
X11693872Y-15983150D02*
X11712920Y-15983150D01*
X11779586Y-16116484D02*
X11779586Y-15983150D01*
X11779586Y-15916484D02*
X11770062Y-15926008D01*
X11770062Y-15926008D02*
X11779586Y-15935531D01*
X11779586Y-15935531D02*
X11789110Y-15926008D01*
X11789110Y-15926008D02*
X11779586Y-15916484D01*
X11779586Y-15916484D02*
X11779586Y-15935531D01*
X11903396Y-16116484D02*
X11884348Y-16106960D01*
X11884348Y-16106960D02*
X11874824Y-16087912D01*
X11874824Y-16087912D02*
X11874824Y-15916484D01*
X12008158Y-16116484D02*
X11989110Y-16106960D01*
X11989110Y-16106960D02*
X11979586Y-16087912D01*
X11979586Y-16087912D02*
X11979586Y-15916484D01*
X12236729Y-16116484D02*
X12236729Y-15916484D01*
X12236729Y-15916484D02*
X12303396Y-16059341D01*
X12303396Y-16059341D02*
X12370062Y-15916484D01*
X12370062Y-15916484D02*
X12370062Y-16116484D01*
X12551015Y-16116484D02*
X12551015Y-16011722D01*
X12551015Y-16011722D02*
X12541491Y-15992674D01*
X12541491Y-15992674D02*
X12522443Y-15983150D01*
X12522443Y-15983150D02*
X12484348Y-15983150D01*
X12484348Y-15983150D02*
X12465301Y-15992674D01*
X12551015Y-16106960D02*
X12531967Y-16116484D01*
X12531967Y-16116484D02*
X12484348Y-16116484D01*
X12484348Y-16116484D02*
X12465301Y-16106960D01*
X12465301Y-16106960D02*
X12455777Y-16087912D01*
X12455777Y-16087912D02*
X12455777Y-16068865D01*
X12455777Y-16068865D02*
X12465301Y-16049817D01*
X12465301Y-16049817D02*
X12484348Y-16040293D01*
X12484348Y-16040293D02*
X12531967Y-16040293D01*
X12531967Y-16040293D02*
X12551015Y-16030769D01*
X12646253Y-15983150D02*
X12646253Y-16183150D01*
X12646253Y-15992674D02*
X12665301Y-15983150D01*
X12665301Y-15983150D02*
X12703396Y-15983150D01*
X12703396Y-15983150D02*
X12722443Y-15992674D01*
X12722443Y-15992674D02*
X12731967Y-16002198D01*
X12731967Y-16002198D02*
X12741491Y-16021246D01*
X12741491Y-16021246D02*
X12741491Y-16078388D01*
X12741491Y-16078388D02*
X12731967Y-16097436D01*
X12731967Y-16097436D02*
X12722443Y-16106960D01*
X12722443Y-16106960D02*
X12703396Y-16116484D01*
X12703396Y-16116484D02*
X12665301Y-16116484D01*
X12665301Y-16116484D02*
X12646253Y-16106960D01*
X12827205Y-16097436D02*
X12836729Y-16106960D01*
X12836729Y-16106960D02*
X12827205Y-16116484D01*
X12827205Y-16116484D02*
X12817682Y-16106960D01*
X12817682Y-16106960D02*
X12827205Y-16097436D01*
X12827205Y-16097436D02*
X12827205Y-16116484D01*
X12827205Y-15992674D02*
X12836729Y-16002198D01*
X12836729Y-16002198D02*
X12827205Y-16011722D01*
X12827205Y-16011722D02*
X12817682Y-16002198D01*
X12817682Y-16002198D02*
X12827205Y-15992674D01*
X12827205Y-15992674D02*
X12827205Y-16011722D01*
M02*
