%TF.GenerationSoftware,KiCad,Pcbnew,10.0.4*%
%TF.CreationDate,2026-09-01T18:38:58+02:00*%
%TF.ProjectId,smartbag_core,736d6172-7462-4616-975f-636f72652e6b,rev?*%
%TF.SameCoordinates,Original*%
%TF.FileFunction,Paste,Top*%
%TF.FilePolarity,Positive*%
%FSLAX46Y46*%
G04 Gerber Fmt 4.6, Leading zero omitted, Abs format (unit mm)*
G04 Created by KiCad (PCBNEW 10.0.4) date 2026-09-01 18:38:58*
%MOMM*%
%LPD*%
G01*
G04 APERTURE LIST*
G04 Aperture macros list*
%AMRoundRect*
0 Rectangle with rounded corners*
0 $1 Rounding radius*
0 $2 $3 $4 $5 $6 $7 $8 $9 X,Y pos of 4 corners*
0 Add a 4 corners polygon primitive as box body*
4,1,4,$2,$3,$4,$5,$6,$7,$8,$9,$2,$3,0*
0 Add four circle primitives for the rounded corners*
1,1,$1+$1,$2,$3*
1,1,$1+$1,$4,$5*
1,1,$1+$1,$6,$7*
1,1,$1+$1,$8,$9*
0 Add four rect primitives between the rounded corners*
20,1,$1+$1,$2,$3,$4,$5,0*
20,1,$1+$1,$4,$5,$6,$7,0*
20,1,$1+$1,$6,$7,$8,$9,0*
20,1,$1+$1,$8,$9,$2,$3,0*%
G04 Aperture macros list end*
%ADD10RoundRect,0.140000X-0.140000X-0.170000X0.140000X-0.170000X0.140000X0.170000X-0.140000X0.170000X0*%
%ADD11RoundRect,0.135000X-0.135000X-0.185000X0.135000X-0.185000X0.135000X0.185000X-0.135000X0.185000X0*%
%ADD12RoundRect,0.232500X-0.232500X-0.232500X0.232500X-0.232500X0.232500X0.232500X-0.232500X0.232500X0*%
%ADD13RoundRect,0.062500X-0.375000X-0.062500X0.375000X-0.062500X0.375000X0.062500X-0.375000X0.062500X0*%
%ADD14RoundRect,0.062500X-0.062500X-0.375000X0.062500X-0.375000X0.062500X0.375000X-0.062500X0.375000X0*%
%ADD15R,0.675000X0.250000*%
%ADD16R,0.250000X0.675000*%
%ADD17RoundRect,0.200000X-0.250000X-0.200000X0.250000X-0.200000X0.250000X0.200000X-0.250000X0.200000X0*%
%ADD18RoundRect,0.150000X-0.587500X-0.150000X0.587500X-0.150000X0.587500X0.150000X-0.587500X0.150000X0*%
%ADD19RoundRect,0.218750X-0.218750X-0.256250X0.218750X-0.256250X0.218750X0.256250X-0.218750X0.256250X0*%
%ADD20RoundRect,0.250000X-0.350000X-0.850000X0.350000X-0.850000X0.350000X0.850000X-0.350000X0.850000X0*%
%ADD21R,0.300000X1.300000*%
%ADD22R,1.800000X2.200000*%
%ADD23RoundRect,0.147500X-0.147500X-0.172500X0.147500X-0.172500X0.147500X0.172500X-0.147500X0.172500X0*%
%ADD24RoundRect,0.225000X-0.225000X-0.250000X0.225000X-0.250000X0.225000X0.250000X-0.225000X0.250000X0*%
%ADD25C,0.250000*%
%ADD26RoundRect,0.150000X-0.150000X-0.625000X0.150000X-0.625000X0.150000X0.625000X-0.150000X0.625000X0*%
%ADD27RoundRect,0.250000X-0.350000X-0.650000X0.350000X-0.650000X0.350000X0.650000X-0.350000X0.650000X0*%
%ADD28RoundRect,0.100000X-0.637500X-0.100000X0.637500X-0.100000X0.637500X0.100000X-0.637500X0.100000X0*%
%ADD29R,0.920000X0.850000*%
%ADD30R,0.750000X0.250000*%
%ADD31RoundRect,0.050400X-0.069600X-0.249600X0.069600X-0.249600X0.069600X0.249600X-0.069600X0.249600X0*%
%ADD32RoundRect,0.050400X-0.249600X-0.069600X0.249600X-0.069600X0.249600X0.069600X-0.249600X0.069600X0*%
%ADD33RoundRect,0.050000X-0.050000X-0.250000X0.050000X-0.250000X0.050000X0.250000X-0.050000X0.250000X0*%
%ADD34RoundRect,0.150000X-0.150000X-0.400000X0.150000X-0.400000X0.150000X0.400000X-0.150000X0.400000X0*%
%ADD35RoundRect,0.250000X-0.370000X-0.370000X0.370000X-0.370000X0.370000X0.370000X-0.370000X0.370000X0*%
%ADD36RoundRect,0.050000X-0.350000X-0.050000X0.350000X-0.050000X0.350000X0.050000X-0.350000X0.050000X0*%
%ADD37RoundRect,0.050000X-0.050000X-0.350000X0.050000X-0.350000X0.050000X0.350000X-0.050000X0.350000X0*%
%ADD38RoundRect,0.100000X-0.850000X-0.100000X0.850000X-0.100000X0.850000X0.100000X-0.850000X0.100000X0*%
G04 APERTURE END LIST*
D10*
%TO.C,C83*%
X228670000Y-142900000D03*
X229630000Y-142900000D03*
%TD*%
D11*
%TO.C,R22*%
X235840000Y-141500000D03*
X236860000Y-141500000D03*
%TD*%
%TO.C,R74*%
X254590000Y-152800000D03*
X255610000Y-152800000D03*
%TD*%
%TO.C,R61*%
X241540000Y-155900000D03*
X242560000Y-155900000D03*
%TD*%
D10*
%TO.C,C23*%
X123020000Y-153500000D03*
X123980000Y-153500000D03*
%TD*%
D12*
%TO.C,U3*%
X210750000Y-146850000D03*
X210750000Y-148000000D03*
X210750000Y-149150000D03*
X211900000Y-146850000D03*
X211900000Y-148000000D03*
X211900000Y-149150000D03*
X213050000Y-146850000D03*
X213050000Y-148000000D03*
X213050000Y-149150000D03*
D13*
X209462500Y-146250000D03*
X209462500Y-146750000D03*
X209462500Y-147250000D03*
X209462500Y-147750000D03*
X209462500Y-148250000D03*
X209462500Y-148750000D03*
X209462500Y-149250000D03*
X209462500Y-149750000D03*
D14*
X210150000Y-150437500D03*
X210650000Y-150437500D03*
X211150000Y-150437500D03*
X211650000Y-150437500D03*
X212150000Y-150437500D03*
X212650000Y-150437500D03*
X213150000Y-150437500D03*
X213650000Y-150437500D03*
D13*
X214337500Y-149750000D03*
X214337500Y-149250000D03*
X214337500Y-148750000D03*
X214337500Y-148250000D03*
X214337500Y-147750000D03*
X214337500Y-147250000D03*
X214337500Y-146750000D03*
X214337500Y-146250000D03*
D14*
X213650000Y-145562500D03*
X213150000Y-145562500D03*
X212650000Y-145562500D03*
X212150000Y-145562500D03*
X211650000Y-145562500D03*
X211150000Y-145562500D03*
X210650000Y-145562500D03*
X210150000Y-145562500D03*
%TD*%
D10*
%TO.C,C82*%
X226520000Y-145000000D03*
X227480000Y-145000000D03*
%TD*%
D11*
%TO.C,R72*%
X249090000Y-154900000D03*
X250110000Y-154900000D03*
%TD*%
D15*
%TO.C,U4*%
X203387500Y-141250000D03*
X203387500Y-141750000D03*
X203387500Y-142250000D03*
X203387500Y-142750000D03*
D16*
X204150000Y-143012500D03*
X204650000Y-143012500D03*
X205150000Y-143012500D03*
D15*
X205912500Y-142750000D03*
X205912500Y-142250000D03*
X205912500Y-141750000D03*
X205912500Y-141250000D03*
D16*
X205150000Y-140987500D03*
X204650000Y-140987500D03*
X204150000Y-140987500D03*
%TD*%
D17*
%TO.C,Y2*%
X122300000Y-142550000D03*
X123700000Y-142550000D03*
X123700000Y-141450000D03*
X122300000Y-141450000D03*
%TD*%
D10*
%TO.C,C21*%
X117020000Y-153500000D03*
X117980000Y-153500000D03*
%TD*%
%TO.C,C63*%
X243520000Y-140000000D03*
X244480000Y-140000000D03*
%TD*%
%TO.C,C8*%
X199020000Y-146800000D03*
X199980000Y-146800000D03*
%TD*%
%TO.C,C34*%
X300520000Y-142000000D03*
X301480000Y-142000000D03*
%TD*%
D11*
%TO.C,R73*%
X252540000Y-152800000D03*
X253560000Y-152800000D03*
%TD*%
%TO.C,R62*%
X244290000Y-156250000D03*
X245310000Y-156250000D03*
%TD*%
D10*
%TO.C,C81*%
X229720000Y-149800000D03*
X230680000Y-149800000D03*
%TD*%
D18*
%TO.C,U5*%
X184062500Y-149200000D03*
X184062500Y-151100000D03*
X185937500Y-150150000D03*
%TD*%
D10*
%TO.C,C42*%
X212520000Y-142500000D03*
X213480000Y-142500000D03*
%TD*%
%TO.C,C6*%
X160520000Y-152000000D03*
X161480000Y-152000000D03*
%TD*%
%TO.C,C30*%
X305020000Y-153500000D03*
X305980000Y-153500000D03*
%TD*%
D11*
%TO.C,R60*%
X239490000Y-155900000D03*
X240510000Y-155900000D03*
%TD*%
%TO.C,R44*%
X247190000Y-147750000D03*
X248210000Y-147750000D03*
%TD*%
D10*
%TO.C,C52*%
X182020000Y-153000000D03*
X182980000Y-153000000D03*
%TD*%
D19*
%TO.C,L1*%
X187212500Y-153350000D03*
X188787500Y-153350000D03*
%TD*%
D11*
%TO.C,R71*%
X246690000Y-154900000D03*
X247710000Y-154900000D03*
%TD*%
D10*
%TO.C,C43*%
X214520000Y-142500000D03*
X215480000Y-142500000D03*
%TD*%
%TO.C,C35*%
X304520000Y-142000000D03*
X305480000Y-142000000D03*
%TD*%
D11*
%TO.C,R2*%
X217290000Y-146750000D03*
X218310000Y-146750000D03*
%TD*%
%TO.C,R3*%
X219640000Y-146750000D03*
X220660000Y-146750000D03*
%TD*%
D19*
%TO.C,L3*%
X207862500Y-153000000D03*
X209437500Y-153000000D03*
%TD*%
D11*
%TO.C,R42*%
X242240000Y-147050000D03*
X243260000Y-147050000D03*
%TD*%
D20*
%TO.C,AE1*%
X154800000Y-148000000D03*
X160500000Y-148000000D03*
%TD*%
D21*
%TO.C,J4*%
X250600000Y-140150000D03*
X251100000Y-140150000D03*
X251600000Y-140150000D03*
X252100000Y-140150000D03*
X252600000Y-140150000D03*
X253100000Y-140150000D03*
X253600000Y-140150000D03*
X254100000Y-140150000D03*
X254600000Y-140150000D03*
X255100000Y-140150000D03*
X255600000Y-140150000D03*
X256100000Y-140150000D03*
X256600000Y-140150000D03*
X257100000Y-140150000D03*
X257600000Y-140150000D03*
X258100000Y-140150000D03*
X258600000Y-140150000D03*
X259100000Y-140150000D03*
X259600000Y-140150000D03*
X260100000Y-140150000D03*
X260600000Y-140150000D03*
X261100000Y-140150000D03*
X261600000Y-140150000D03*
X262100000Y-140150000D03*
D22*
X248700000Y-143400000D03*
X264000000Y-143400000D03*
%TD*%
D11*
%TO.C,R41*%
X239940000Y-147050000D03*
X240960000Y-147050000D03*
%TD*%
D10*
%TO.C,C41*%
X210520000Y-142500000D03*
X211480000Y-142500000D03*
%TD*%
%TO.C,C51*%
X204520000Y-153000000D03*
X205480000Y-153000000D03*
%TD*%
%TO.C,C3*%
X196520000Y-153000000D03*
X197480000Y-153000000D03*
%TD*%
%TO.C,C87*%
X228670000Y-141500000D03*
X229630000Y-141500000D03*
%TD*%
D21*
%TO.C,J1*%
X166250000Y-150250000D03*
X166750000Y-150250000D03*
X167250000Y-150250000D03*
X167750000Y-150250000D03*
X168250000Y-150250000D03*
X168750000Y-150250000D03*
X169250000Y-150250000D03*
X169750000Y-150250000D03*
X170250000Y-150250000D03*
X170750000Y-150250000D03*
X171250000Y-150250000D03*
X171750000Y-150250000D03*
D22*
X164350000Y-153500000D03*
X173650000Y-153500000D03*
%TD*%
D10*
%TO.C,C62*%
X241020000Y-140000000D03*
X241980000Y-140000000D03*
%TD*%
D11*
%TO.C,R5*%
X224340000Y-146750000D03*
X225360000Y-146750000D03*
%TD*%
%TO.C,R21*%
X233490000Y-141150000D03*
X234510000Y-141150000D03*
%TD*%
D23*
%TO.C,L2*%
X162365000Y-148000000D03*
X163335000Y-148000000D03*
%TD*%
D24*
%TO.C,C88*%
X233175000Y-151200000D03*
X234725000Y-151200000D03*
%TD*%
D11*
%TO.C,R63*%
X246690000Y-156250000D03*
X247710000Y-156250000D03*
%TD*%
D10*
%TO.C,C2*%
X188020000Y-147350000D03*
X188980000Y-147350000D03*
%TD*%
D24*
%TO.C,C85*%
X234425000Y-145000000D03*
X235975000Y-145000000D03*
%TD*%
D11*
%TO.C,R65*%
X251490000Y-155200000D03*
X252510000Y-155200000D03*
%TD*%
D10*
%TO.C,C86*%
X226520000Y-141500000D03*
X227480000Y-141500000D03*
%TD*%
%TO.C,C45*%
X218520000Y-142500000D03*
X219480000Y-142500000D03*
%TD*%
D11*
%TO.C,R10*%
X238490000Y-144500000D03*
X239510000Y-144500000D03*
%TD*%
D10*
%TO.C,C25*%
X114520000Y-142000000D03*
X115480000Y-142000000D03*
%TD*%
D25*
%TO.C,U2*%
X121250000Y-146250000D03*
X121250000Y-146750000D03*
X121250000Y-147250000D03*
X121250000Y-147750000D03*
X121250000Y-148250000D03*
X121250000Y-148750000D03*
X121250000Y-149250000D03*
X121250000Y-149750000D03*
X120750000Y-145750000D03*
X120750000Y-146250000D03*
X120750000Y-149750000D03*
X120750000Y-150250000D03*
X120250000Y-145750000D03*
X120250000Y-146250000D03*
X120250000Y-149750000D03*
X120250000Y-150250000D03*
X119750000Y-145750000D03*
X119750000Y-146250000D03*
X119750000Y-149750000D03*
X119750000Y-150250000D03*
X119250000Y-145750000D03*
X119250000Y-146250000D03*
X119250000Y-149750000D03*
X119250000Y-150250000D03*
X118750000Y-145750000D03*
X118750000Y-146250000D03*
X118750000Y-149750000D03*
X118750000Y-150250000D03*
X118250000Y-145750000D03*
X118250000Y-150250000D03*
X117750000Y-145750000D03*
X117750000Y-146250000D03*
X117750000Y-149750000D03*
X117750000Y-150250000D03*
X117250000Y-145750000D03*
X117250000Y-146250000D03*
X117250000Y-146750000D03*
X117250000Y-147750000D03*
X117250000Y-148250000D03*
X117250000Y-149250000D03*
X117250000Y-149750000D03*
X117250000Y-150250000D03*
X116750000Y-146250000D03*
X116750000Y-146750000D03*
X116750000Y-147250000D03*
X116750000Y-147750000D03*
X116750000Y-148250000D03*
X116750000Y-148750000D03*
X116750000Y-149250000D03*
X116750000Y-149750000D03*
%TD*%
D10*
%TO.C,C4*%
X188020000Y-149200000D03*
X188980000Y-149200000D03*
%TD*%
D11*
%TO.C,R64*%
X249090000Y-156250000D03*
X250110000Y-156250000D03*
%TD*%
D26*
%TO.C,J3*%
X227550000Y-151720000D03*
X228550000Y-151720000D03*
D27*
X226250000Y-155595000D03*
X229850000Y-155595000D03*
%TD*%
D11*
%TO.C,R67*%
X256290000Y-155200000D03*
X257310000Y-155200000D03*
%TD*%
D10*
%TO.C,C60*%
X245670000Y-145950000D03*
X246630000Y-145950000D03*
%TD*%
D18*
%TO.C,Q1*%
X179212500Y-144050000D03*
X179212500Y-145950000D03*
X181087500Y-145000000D03*
%TD*%
D11*
%TO.C,R70*%
X244640000Y-154900000D03*
X245660000Y-154900000D03*
%TD*%
D28*
%TO.C,U9*%
X245037500Y-149400000D03*
X245037500Y-150050000D03*
X245037500Y-150700000D03*
X245037500Y-151350000D03*
X245037500Y-152000000D03*
X245037500Y-152650000D03*
X245037500Y-153300000D03*
X250762500Y-153300000D03*
X250762500Y-152650000D03*
X250762500Y-152000000D03*
X250762500Y-151350000D03*
X250762500Y-150700000D03*
X250762500Y-150050000D03*
X250762500Y-149400000D03*
%TD*%
D10*
%TO.C,C46*%
X220520000Y-142500000D03*
X221480000Y-142500000D03*
%TD*%
D11*
%TO.C,R6*%
X226690000Y-147800000D03*
X227710000Y-147800000D03*
%TD*%
D17*
%TO.C,Y3*%
X296300000Y-142550000D03*
X297700000Y-142550000D03*
X297700000Y-141450000D03*
X296300000Y-141450000D03*
%TD*%
D10*
%TO.C,C61*%
X238520000Y-140000000D03*
X239480000Y-140000000D03*
%TD*%
%TO.C,C11*%
X164520000Y-148150000D03*
X165480000Y-148150000D03*
%TD*%
%TO.C,C33*%
X296020000Y-153500000D03*
X296980000Y-153500000D03*
%TD*%
%TO.C,C50*%
X207370000Y-141650000D03*
X208330000Y-141650000D03*
%TD*%
D28*
%TO.C,U8*%
X236787500Y-149050000D03*
X236787500Y-149700000D03*
X236787500Y-150350000D03*
X236787500Y-151000000D03*
X236787500Y-151650000D03*
X236787500Y-152300000D03*
X236787500Y-152950000D03*
X242512500Y-152950000D03*
X242512500Y-152300000D03*
X242512500Y-151650000D03*
X242512500Y-151000000D03*
X242512500Y-150350000D03*
X242512500Y-149700000D03*
X242512500Y-149050000D03*
%TD*%
D10*
%TO.C,C40*%
X208520000Y-142850000D03*
X209480000Y-142850000D03*
%TD*%
%TO.C,C31*%
X302020000Y-153500000D03*
X302980000Y-153500000D03*
%TD*%
%TO.C,C32*%
X299020000Y-153500000D03*
X299980000Y-153500000D03*
%TD*%
D11*
%TO.C,R12*%
X243490000Y-144500000D03*
X244510000Y-144500000D03*
%TD*%
D10*
%TO.C,C7*%
X194520000Y-153000000D03*
X195480000Y-153000000D03*
%TD*%
D11*
%TO.C,R66*%
X253890000Y-155200000D03*
X254910000Y-155200000D03*
%TD*%
%TO.C,R13*%
X182840000Y-145000000D03*
X183860000Y-145000000D03*
%TD*%
D10*
%TO.C,C24*%
X118520000Y-142000000D03*
X119480000Y-142000000D03*
%TD*%
D17*
%TO.C,Y1*%
X183950000Y-142550000D03*
X185350000Y-142550000D03*
X185350000Y-141450000D03*
X183950000Y-141450000D03*
%TD*%
D29*
%TO.C,U11*%
X230440000Y-145200000D03*
X230440000Y-146250000D03*
X230440000Y-147300000D03*
D30*
X231000000Y-144450000D03*
X231000000Y-148050000D03*
D29*
X231560000Y-145200000D03*
X231560000Y-146250000D03*
X231560000Y-147300000D03*
D31*
X230250000Y-144100000D03*
D32*
X229350000Y-144500000D03*
X229350000Y-145000000D03*
X229350000Y-145500000D03*
X229350000Y-146000000D03*
X229350000Y-146500000D03*
X229350000Y-147000000D03*
X229350000Y-147500000D03*
X229350000Y-148000000D03*
D31*
X230250000Y-148400000D03*
X231750000Y-148400000D03*
D32*
X232650000Y-148000000D03*
X232650000Y-147500000D03*
X232650000Y-147000000D03*
X232650000Y-146500000D03*
X232650000Y-146000000D03*
X232650000Y-145500000D03*
X232650000Y-145000000D03*
X232650000Y-144500000D03*
D31*
X231750000Y-144100000D03*
D33*
X230725000Y-144100000D03*
X230725000Y-148400000D03*
X231275000Y-144100000D03*
X231275000Y-148400000D03*
%TD*%
D11*
%TO.C,R68*%
X239490000Y-154550000D03*
X240510000Y-154550000D03*
%TD*%
D26*
%TO.C,J5*%
X167500000Y-141000000D03*
X168500000Y-141000000D03*
X169500000Y-141000000D03*
X170500000Y-141000000D03*
D27*
X166200000Y-144875000D03*
X171800000Y-144875000D03*
%TD*%
D11*
%TO.C,R69*%
X241540000Y-154550000D03*
X242560000Y-154550000D03*
%TD*%
%TO.C,R20*%
X231140000Y-141150000D03*
X232160000Y-141150000D03*
%TD*%
D24*
%TO.C,C84*%
X231575000Y-142550000D03*
X233125000Y-142550000D03*
%TD*%
D19*
%TO.C,L4*%
X211062500Y-153000000D03*
X212637500Y-153000000D03*
%TD*%
D11*
%TO.C,R45*%
X249490000Y-147750000D03*
X250510000Y-147750000D03*
%TD*%
%TO.C,R8*%
X199990000Y-142000000D03*
X201010000Y-142000000D03*
%TD*%
%TO.C,R43*%
X244890000Y-147050000D03*
X245910000Y-147050000D03*
%TD*%
%TO.C,R75*%
X256640000Y-152800000D03*
X257660000Y-152800000D03*
%TD*%
D34*
%TO.C,Y4*%
X187650000Y-143950000D03*
X189050000Y-143950000D03*
%TD*%
D35*
%TO.C,U1*%
X192470000Y-146470000D03*
X192470000Y-148000000D03*
X192470000Y-149530000D03*
X194000000Y-146470000D03*
X194000000Y-148000000D03*
X194000000Y-149530000D03*
X195530000Y-146470000D03*
X195530000Y-148000000D03*
X195530000Y-149530000D03*
D36*
X191050000Y-145800000D03*
X191050000Y-146200000D03*
X191050000Y-146600000D03*
X191050000Y-147000000D03*
X191050000Y-147400000D03*
X191050000Y-147800000D03*
X191050000Y-148200000D03*
X191050000Y-148600000D03*
X191050000Y-149000000D03*
X191050000Y-149400000D03*
X191050000Y-149800000D03*
X191050000Y-150200000D03*
D37*
X191800000Y-150950000D03*
X192200000Y-150950000D03*
X192600000Y-150950000D03*
X193000000Y-150950000D03*
X193400000Y-150950000D03*
X193800000Y-150950000D03*
X194200000Y-150950000D03*
X194600000Y-150950000D03*
X195000000Y-150950000D03*
X195400000Y-150950000D03*
X195800000Y-150950000D03*
X196200000Y-150950000D03*
D36*
X196950000Y-150200000D03*
X196950000Y-149800000D03*
X196950000Y-149400000D03*
X196950000Y-149000000D03*
X196950000Y-148600000D03*
X196950000Y-148200000D03*
X196950000Y-147800000D03*
X196950000Y-147400000D03*
X196950000Y-147000000D03*
X196950000Y-146600000D03*
X196950000Y-146200000D03*
X196950000Y-145800000D03*
D37*
X196200000Y-145050000D03*
X195800000Y-145050000D03*
X195400000Y-145050000D03*
X195000000Y-145050000D03*
X194600000Y-145050000D03*
X194200000Y-145050000D03*
X193800000Y-145050000D03*
X193400000Y-145050000D03*
X193000000Y-145050000D03*
X192600000Y-145050000D03*
X192200000Y-145050000D03*
X191800000Y-145050000D03*
%TD*%
D25*
%TO.C,U6*%
X298750000Y-149750000D03*
X298750000Y-149250000D03*
X298750000Y-148750000D03*
X298750000Y-148250000D03*
X298750000Y-147750000D03*
X298750000Y-147250000D03*
X298750000Y-146750000D03*
X298750000Y-146250000D03*
X299250000Y-150250000D03*
X299250000Y-149750000D03*
X299250000Y-146250000D03*
X299250000Y-145750000D03*
X299750000Y-150250000D03*
X299750000Y-149750000D03*
X299750000Y-146250000D03*
X299750000Y-145750000D03*
X300250000Y-150250000D03*
X300250000Y-149750000D03*
X300250000Y-146250000D03*
X300250000Y-145750000D03*
X300750000Y-150250000D03*
X300750000Y-149750000D03*
X300750000Y-146250000D03*
X300750000Y-145750000D03*
X301250000Y-150250000D03*
X301250000Y-149750000D03*
X301250000Y-146250000D03*
X301250000Y-145750000D03*
X301750000Y-150250000D03*
X301750000Y-145750000D03*
X302250000Y-150250000D03*
X302250000Y-149750000D03*
X302250000Y-146250000D03*
X302250000Y-145750000D03*
X302750000Y-150250000D03*
X302750000Y-149750000D03*
X302750000Y-149250000D03*
X302750000Y-148250000D03*
X302750000Y-147750000D03*
X302750000Y-146750000D03*
X302750000Y-146250000D03*
X302750000Y-145750000D03*
X303250000Y-149750000D03*
X303250000Y-149250000D03*
X303250000Y-148750000D03*
X303250000Y-148250000D03*
X303250000Y-147750000D03*
X303250000Y-147250000D03*
X303250000Y-146750000D03*
X303250000Y-146250000D03*
%TD*%
D38*
%TO.C,U7*%
X261500000Y-148175000D03*
X261500000Y-148825000D03*
X261500000Y-149475000D03*
X261500000Y-150125000D03*
X261500000Y-150775000D03*
X261500000Y-151425000D03*
X261500000Y-152075000D03*
X261500000Y-152725000D03*
X261500000Y-153375000D03*
X261500000Y-154025000D03*
X261500000Y-154675000D03*
X261500000Y-155325000D03*
X268500000Y-155325000D03*
X268500000Y-154675000D03*
X268500000Y-154025000D03*
X268500000Y-153375000D03*
X268500000Y-152725000D03*
X268500000Y-152075000D03*
X268500000Y-151425000D03*
X268500000Y-150775000D03*
X268500000Y-150125000D03*
X268500000Y-149475000D03*
X268500000Y-148825000D03*
X268500000Y-148175000D03*
%TD*%
D10*
%TO.C,C1*%
X188020000Y-145700000D03*
X188980000Y-145700000D03*
%TD*%
D11*
%TO.C,R4*%
X221990000Y-146750000D03*
X223010000Y-146750000D03*
%TD*%
%TO.C,R11*%
X240990000Y-144500000D03*
X242010000Y-144500000D03*
%TD*%
%TO.C,R40*%
X237640000Y-147050000D03*
X238660000Y-147050000D03*
%TD*%
D24*
%TO.C,C80*%
X226225000Y-149450000D03*
X227775000Y-149450000D03*
%TD*%
D10*
%TO.C,C22*%
X120020000Y-153500000D03*
X120980000Y-153500000D03*
%TD*%
%TO.C,C20*%
X114020000Y-153500000D03*
X114980000Y-153500000D03*
%TD*%
%TO.C,C5*%
X192020000Y-143000000D03*
X192980000Y-143000000D03*
%TD*%
%TO.C,C44*%
X216520000Y-142500000D03*
X217480000Y-142500000D03*
%TD*%
D11*
%TO.C,R7*%
X197490000Y-142000000D03*
X198510000Y-142000000D03*
%TD*%
M02*
