%TF.GenerationSoftware,KiCad,Pcbnew,10.0.4*%
%TF.CreationDate,2026-09-02T14:46:28+02:00*%
%TF.ProjectId,smartbag_core,736d6172-7462-4616-975f-636f72652e6b,rev?*%
%TF.SameCoordinates,Original*%
%TF.FileFunction,Soldermask,Top*%
%TF.FilePolarity,Negative*%
%FSLAX46Y46*%
G04 Gerber Fmt 4.6, Leading zero omitted, Abs format (unit mm)*
G04 Created by KiCad (PCBNEW 10.0.4) date 2026-09-02 14:46:28*
%MOMM*%
%LPD*%
G01*
G04 APERTURE LIST*
G04 Aperture macros list*
%AMRoundRect*
0 Rectangle with rounded corners*
0 $1 Rounding radius*
0 $2 $3 $4 $5 $6 $7 $8 $9 X,Y pos of 4 corners*
0 Add a 4 corners polygon primitive as box body*
4,1,4,$2,$3,$4,$5,$6,$7,$8,$9,$2,$3,0*
0 Add four circle primitives for the rounded corners*
1,1,$1+$1,$2,$3*
1,1,$1+$1,$4,$5*
1,1,$1+$1,$6,$7*
1,1,$1+$1,$8,$9*
0 Add four rect primitives between the rounded corners*
20,1,$1+$1,$2,$3,$4,$5,0*
20,1,$1+$1,$4,$5,$6,$7,0*
20,1,$1+$1,$6,$7,$8,$9,0*
20,1,$1+$1,$8,$9,$2,$3,0*%
%AMFreePoly0*
4,1,13,0.375000,1.525000,1.025000,1.525000,1.025000,-1.525000,0.375000,-1.525000,0.375000,-1.925000,-0.375000,-1.925000,-0.375000,-1.525000,-1.025000,-1.525000,-1.025000,1.525000,-0.375000,1.525000,-0.375000,1.925000,0.375000,1.925000,0.375000,1.525000,0.375000,1.525000,$1*%
G04 Aperture macros list end*
%ADD10RoundRect,0.140000X-0.140000X-0.170000X0.140000X-0.170000X0.140000X0.170000X-0.140000X0.170000X0*%
%ADD11RoundRect,0.050400X-0.069600X-0.249600X0.069600X-0.249600X0.069600X0.249600X-0.069600X0.249600X0*%
%ADD12RoundRect,0.050400X-0.249600X-0.069600X0.249600X-0.069600X0.249600X0.069600X-0.249600X0.069600X0*%
%ADD13RoundRect,0.050000X-0.050000X-0.250000X0.050000X-0.250000X0.050000X0.250000X-0.050000X0.250000X0*%
%ADD14FreePoly0,0.000000*%
%ADD15RoundRect,0.135000X-0.135000X-0.185000X0.135000X-0.185000X0.135000X0.185000X-0.135000X0.185000X0*%
%ADD16RoundRect,0.200000X-0.250000X-0.200000X0.250000X-0.200000X0.250000X0.200000X-0.250000X0.200000X0*%
%ADD17RoundRect,0.150000X-0.587500X-0.150000X0.587500X-0.150000X0.587500X0.150000X-0.587500X0.150000X0*%
%ADD18RoundRect,0.050000X-0.350000X-0.050000X0.350000X-0.050000X0.350000X0.050000X-0.350000X0.050000X0*%
%ADD19RoundRect,0.050000X-0.050000X-0.350000X0.050000X-0.350000X0.050000X0.350000X-0.050000X0.350000X0*%
%ADD20R,4.600000X4.600000*%
%ADD21RoundRect,0.250000X-0.350000X-0.625000X0.350000X-0.625000X0.350000X0.625000X-0.350000X0.625000X0*%
%ADD22O,1.200000X1.750000*%
%ADD23RoundRect,0.150000X-0.150000X-0.625000X0.150000X-0.625000X0.150000X0.625000X-0.150000X0.625000X0*%
%ADD24RoundRect,0.250000X-0.350000X-0.650000X0.350000X-0.650000X0.350000X0.650000X-0.350000X0.650000X0*%
%ADD25RoundRect,0.100000X-0.850000X-0.100000X0.850000X-0.100000X0.850000X0.100000X-0.850000X0.100000X0*%
%ADD26RoundRect,0.225000X-0.225000X-0.250000X0.225000X-0.250000X0.225000X0.250000X-0.225000X0.250000X0*%
%ADD27C,2.000000*%
%ADD28RoundRect,0.218750X-0.218750X-0.256250X0.218750X-0.256250X0.218750X0.256250X-0.218750X0.256250X0*%
%ADD29RoundRect,0.150000X-0.150000X-0.400000X0.150000X-0.400000X0.150000X0.400000X-0.150000X0.400000X0*%
%ADD30R,0.300000X1.300000*%
%ADD31R,1.800000X2.200000*%
%ADD32R,0.675000X0.250000*%
%ADD33R,0.250000X0.675000*%
%ADD34RoundRect,0.062500X-0.375000X-0.062500X0.375000X-0.062500X0.375000X0.062500X-0.375000X0.062500X0*%
%ADD35RoundRect,0.062500X-0.062500X-0.375000X0.062500X-0.375000X0.062500X0.375000X-0.062500X0.375000X0*%
%ADD36R,3.450000X3.450000*%
%ADD37RoundRect,0.147500X-0.147500X-0.172500X0.147500X-0.172500X0.147500X0.172500X-0.147500X0.172500X0*%
%ADD38C,0.250000*%
%ADD39RoundRect,0.250000X-0.350000X-0.850000X0.350000X-0.850000X0.350000X0.850000X-0.350000X0.850000X0*%
%ADD40RoundRect,0.100000X-0.637500X-0.100000X0.637500X-0.100000X0.637500X0.100000X-0.637500X0.100000X0*%
G04 APERTURE END LIST*
D10*
%TO.C,C60*%
X242503000Y-150153000D03*
X243463000Y-150153000D03*
%TD*%
D11*
%TO.C,U11*%
X231069000Y-144365000D03*
D12*
X230169000Y-144765000D03*
X230169000Y-145265000D03*
X230169000Y-145765000D03*
X230169000Y-146265000D03*
X230169000Y-146765000D03*
X230169000Y-147265000D03*
X230169000Y-147765000D03*
X230169000Y-148265000D03*
D11*
X231069000Y-148665000D03*
X232569000Y-148665000D03*
D12*
X233469000Y-148265000D03*
X233469000Y-147765000D03*
X233469000Y-147265000D03*
X233469000Y-146765000D03*
X233469000Y-146265000D03*
X233469000Y-145765000D03*
X233469000Y-145265000D03*
X233469000Y-144765000D03*
D11*
X232569000Y-144365000D03*
D13*
X231544000Y-144365000D03*
X231544000Y-148665000D03*
D14*
X231819000Y-146515000D03*
D13*
X232094000Y-144365000D03*
X232094000Y-148665000D03*
%TD*%
D15*
%TO.C,R68*%
X239990000Y-154583000D03*
X241010000Y-154583000D03*
%TD*%
D16*
%TO.C,Y3*%
X296300000Y-142550000D03*
X297700000Y-142550000D03*
X297700000Y-141450000D03*
X296300000Y-141450000D03*
%TD*%
D17*
%TO.C,Q1*%
X179302500Y-144050000D03*
X179302500Y-145950000D03*
X181177500Y-145000000D03*
%TD*%
D15*
%TO.C,R72*%
X249590000Y-154400000D03*
X250610000Y-154400000D03*
%TD*%
%TO.C,R60*%
X239990000Y-155677000D03*
X241010000Y-155677000D03*
%TD*%
D18*
%TO.C,U1*%
X191050000Y-145800000D03*
X191050000Y-146200000D03*
X191050000Y-146600000D03*
X191050000Y-147000000D03*
X191050000Y-147400000D03*
X191050000Y-147800000D03*
X191050000Y-148200000D03*
X191050000Y-148600000D03*
X191050000Y-149000000D03*
X191050000Y-149400000D03*
X191050000Y-149800000D03*
X191050000Y-150200000D03*
D19*
X191800000Y-150950000D03*
X192200000Y-150950000D03*
X192600000Y-150950000D03*
X193000000Y-150950000D03*
X193400000Y-150950000D03*
X193800000Y-150950000D03*
X194200000Y-150950000D03*
X194600000Y-150950000D03*
X195000000Y-150950000D03*
X195400000Y-150950000D03*
X195800000Y-150950000D03*
X196200000Y-150950000D03*
D18*
X196950000Y-150200000D03*
X196950000Y-149800000D03*
X196950000Y-149400000D03*
X196950000Y-149000000D03*
X196950000Y-148600000D03*
X196950000Y-148200000D03*
X196950000Y-147800000D03*
X196950000Y-147400000D03*
X196950000Y-147000000D03*
X196950000Y-146600000D03*
X196950000Y-146200000D03*
X196950000Y-145800000D03*
D19*
X196200000Y-145050000D03*
X195800000Y-145050000D03*
X195400000Y-145050000D03*
X195000000Y-145050000D03*
X194600000Y-145050000D03*
X194200000Y-145050000D03*
X193800000Y-145050000D03*
X193400000Y-145050000D03*
X193000000Y-145050000D03*
X192600000Y-145050000D03*
X192200000Y-145050000D03*
X191800000Y-145050000D03*
D20*
X194000000Y-148000000D03*
%TD*%
D10*
%TO.C,C45*%
X217520000Y-154500000D03*
X218480000Y-154500000D03*
%TD*%
%TO.C,C9*%
X190420000Y-143350000D03*
X191380000Y-143350000D03*
%TD*%
D21*
%TO.C,J2*%
X219597000Y-141635000D03*
D22*
X221597000Y-141635000D03*
X223597000Y-141635000D03*
%TD*%
D15*
%TO.C,R73*%
X251990000Y-154400000D03*
X253010000Y-154400000D03*
%TD*%
D23*
%TO.C,J5*%
X167500000Y-141000000D03*
X168500000Y-141000000D03*
X169500000Y-141000000D03*
X170500000Y-141000000D03*
D24*
X166200000Y-144875000D03*
X171800000Y-144875000D03*
%TD*%
D25*
%TO.C,U7*%
X261500000Y-147989000D03*
X261500000Y-148639000D03*
X261500000Y-149289000D03*
X261500000Y-149939000D03*
X261500000Y-150589000D03*
X261500000Y-151239000D03*
X261500000Y-151889000D03*
X261500000Y-152539000D03*
X261500000Y-153189000D03*
X261500000Y-153839000D03*
X261500000Y-154489000D03*
X261500000Y-155139000D03*
X268500000Y-155139000D03*
X268500000Y-154489000D03*
X268500000Y-153839000D03*
X268500000Y-153189000D03*
X268500000Y-152539000D03*
X268500000Y-151889000D03*
X268500000Y-151239000D03*
X268500000Y-150589000D03*
X268500000Y-149939000D03*
X268500000Y-149289000D03*
X268500000Y-148639000D03*
X268500000Y-147989000D03*
%TD*%
D15*
%TO.C,R3*%
X220886000Y-149050000D03*
X221906000Y-149050000D03*
%TD*%
D26*
%TO.C,C85*%
X234875000Y-145000000D03*
X236425000Y-145000000D03*
%TD*%
D10*
%TO.C,C81*%
X229020000Y-149828000D03*
X229980000Y-149828000D03*
%TD*%
D27*
%TO.C,FID5*%
X296000000Y-145000000D03*
%TD*%
D10*
%TO.C,C2*%
X188020000Y-147000000D03*
X188980000Y-147000000D03*
%TD*%
D28*
%TO.C,L3*%
X207902500Y-153000000D03*
X209477500Y-153000000D03*
%TD*%
D10*
%TO.C,C23*%
X115930000Y-144450000D03*
X116890000Y-144450000D03*
%TD*%
D15*
%TO.C,R45*%
X249490000Y-147524000D03*
X250510000Y-147524000D03*
%TD*%
D10*
%TO.C,C11*%
X164520000Y-148486000D03*
X165480000Y-148486000D03*
%TD*%
D29*
%TO.C,Y4*%
X187380000Y-144165000D03*
X188780000Y-144165000D03*
%TD*%
D10*
%TO.C,C30*%
X305020000Y-153500000D03*
X305980000Y-153500000D03*
%TD*%
%TO.C,C22*%
X118870000Y-144450000D03*
X119830000Y-144450000D03*
%TD*%
%TO.C,C50*%
X207482000Y-142360000D03*
X208442000Y-142360000D03*
%TD*%
D15*
%TO.C,R6*%
X227260000Y-147131000D03*
X228280000Y-147131000D03*
%TD*%
%TO.C,R43*%
X244890000Y-146600000D03*
X245910000Y-146600000D03*
%TD*%
D10*
%TO.C,C82*%
X226649000Y-145000000D03*
X227609000Y-145000000D03*
%TD*%
%TO.C,C62*%
X244058000Y-151226000D03*
X245018000Y-151226000D03*
%TD*%
%TO.C,C61*%
X232578000Y-150803000D03*
X233538000Y-150803000D03*
%TD*%
D27*
%TO.C,FID4*%
X258500000Y-151500000D03*
%TD*%
D10*
%TO.C,C86*%
X226629000Y-141500000D03*
X227589000Y-141500000D03*
%TD*%
%TO.C,C51*%
X213927000Y-152138000D03*
X214887000Y-152138000D03*
%TD*%
D15*
%TO.C,R10*%
X238490000Y-144500000D03*
X239510000Y-144500000D03*
%TD*%
D10*
%TO.C,C46*%
X219520000Y-154500000D03*
X220480000Y-154500000D03*
%TD*%
D30*
%TO.C,J4*%
X250250000Y-140150000D03*
X250750000Y-140150000D03*
X251250000Y-140150000D03*
X251750000Y-140150000D03*
X252250000Y-140150000D03*
X252750000Y-140150000D03*
X253250000Y-140150000D03*
X253750000Y-140150000D03*
X254250000Y-140150000D03*
X254750000Y-140150000D03*
X255250000Y-140150000D03*
X255750000Y-140150000D03*
X256250000Y-140150000D03*
X256750000Y-140150000D03*
X257250000Y-140150000D03*
X257750000Y-140150000D03*
X258250000Y-140150000D03*
X258750000Y-140150000D03*
X259250000Y-140150000D03*
X259750000Y-140150000D03*
X260250000Y-140150000D03*
X260750000Y-140150000D03*
X261250000Y-140150000D03*
X261750000Y-140150000D03*
D31*
X248350000Y-143400000D03*
X263650000Y-143400000D03*
%TD*%
D10*
%TO.C,C7*%
X194020000Y-152650000D03*
X194980000Y-152650000D03*
%TD*%
D26*
%TO.C,C88*%
X234875000Y-147438000D03*
X236425000Y-147438000D03*
%TD*%
D15*
%TO.C,R4*%
X222897000Y-149050000D03*
X223917000Y-149050000D03*
%TD*%
%TO.C,R20*%
X231473000Y-141500000D03*
X232493000Y-141500000D03*
%TD*%
D10*
%TO.C,C6*%
X160520000Y-152000000D03*
X161480000Y-152000000D03*
%TD*%
D15*
%TO.C,R13*%
X182750000Y-145000000D03*
X183770000Y-145000000D03*
%TD*%
D10*
%TO.C,C40*%
X208840000Y-147350000D03*
X209800000Y-147350000D03*
%TD*%
D32*
%TO.C,U4*%
X203737500Y-141250000D03*
X203737500Y-141750000D03*
X203737500Y-142250000D03*
X203737500Y-142750000D03*
D33*
X204500000Y-143012500D03*
X205000000Y-143012500D03*
X205500000Y-143012500D03*
D32*
X206262500Y-142750000D03*
X206262500Y-142250000D03*
X206262500Y-141750000D03*
X206262500Y-141250000D03*
D33*
X205500000Y-140987500D03*
X205000000Y-140987500D03*
X204500000Y-140987500D03*
%TD*%
D34*
%TO.C,U3*%
X211419500Y-146250000D03*
X211419500Y-146750000D03*
X211419500Y-147250000D03*
X211419500Y-147750000D03*
X211419500Y-148250000D03*
X211419500Y-148750000D03*
X211419500Y-149250000D03*
X211419500Y-149750000D03*
D35*
X212107000Y-150437500D03*
X212607000Y-150437500D03*
X213107000Y-150437500D03*
X213607000Y-150437500D03*
X214107000Y-150437500D03*
X214607000Y-150437500D03*
X215107000Y-150437500D03*
X215607000Y-150437500D03*
D34*
X216294500Y-149750000D03*
X216294500Y-149250000D03*
X216294500Y-148750000D03*
X216294500Y-148250000D03*
X216294500Y-147750000D03*
X216294500Y-147250000D03*
X216294500Y-146750000D03*
X216294500Y-146250000D03*
D35*
X215607000Y-145562500D03*
X215107000Y-145562500D03*
X214607000Y-145562500D03*
X214107000Y-145562500D03*
X213607000Y-145562500D03*
X213107000Y-145562500D03*
X212607000Y-145562500D03*
X212107000Y-145562500D03*
D36*
X213857000Y-148000000D03*
%TD*%
D10*
%TO.C,C64*%
X267120000Y-146389000D03*
X268080000Y-146389000D03*
%TD*%
%TO.C,C44*%
X215520000Y-154500000D03*
X216480000Y-154500000D03*
%TD*%
%TO.C,C63*%
X253983000Y-151276000D03*
X254943000Y-151276000D03*
%TD*%
D15*
%TO.C,R61*%
X242390000Y-155600000D03*
X243410000Y-155600000D03*
%TD*%
D37*
%TO.C,L2*%
X162160000Y-148000000D03*
X163130000Y-148000000D03*
%TD*%
D27*
%TO.C,FID1*%
X114000000Y-146500000D03*
%TD*%
D26*
%TO.C,C80*%
X227204000Y-148486000D03*
X228754000Y-148486000D03*
%TD*%
D15*
%TO.C,R7*%
X197490000Y-142000000D03*
X198510000Y-142000000D03*
%TD*%
%TO.C,R70*%
X244790000Y-154400000D03*
X245810000Y-154400000D03*
%TD*%
D10*
%TO.C,C33*%
X301370000Y-151550000D03*
X302330000Y-151550000D03*
%TD*%
D15*
%TO.C,R40*%
X237990000Y-146600000D03*
X239010000Y-146600000D03*
%TD*%
D17*
%TO.C,U5*%
X184062500Y-149505000D03*
X184062500Y-151405000D03*
X185937500Y-150455000D03*
%TD*%
D10*
%TO.C,C3*%
X196520000Y-153000000D03*
X197480000Y-153000000D03*
%TD*%
D27*
%TO.C,FID2*%
X124000000Y-155500000D03*
%TD*%
D10*
%TO.C,C41*%
X208840000Y-145850000D03*
X209800000Y-145850000D03*
%TD*%
D38*
%TO.C,U2*%
X121250000Y-146250000D03*
X121250000Y-146750000D03*
X121250000Y-147250000D03*
X121250000Y-147750000D03*
X121250000Y-148250000D03*
X121250000Y-148750000D03*
X121250000Y-149250000D03*
X121250000Y-149750000D03*
X120750000Y-145750000D03*
X120750000Y-146250000D03*
X120750000Y-149750000D03*
X120750000Y-150250000D03*
X120250000Y-145750000D03*
X120250000Y-146250000D03*
X120250000Y-149750000D03*
X120250000Y-150250000D03*
X119750000Y-145750000D03*
X119750000Y-146250000D03*
X119750000Y-149750000D03*
X119750000Y-150250000D03*
X119250000Y-145750000D03*
X119250000Y-146250000D03*
X119250000Y-149750000D03*
X119250000Y-150250000D03*
X118750000Y-145750000D03*
X118750000Y-146250000D03*
X118750000Y-149750000D03*
X118750000Y-150250000D03*
X118250000Y-145750000D03*
X118250000Y-150250000D03*
X117750000Y-145750000D03*
X117750000Y-146250000D03*
X117750000Y-149750000D03*
X117750000Y-150250000D03*
X117250000Y-145750000D03*
X117250000Y-146250000D03*
X117250000Y-146750000D03*
X117250000Y-147750000D03*
X117250000Y-148250000D03*
X117250000Y-149250000D03*
X117250000Y-149750000D03*
X117250000Y-150250000D03*
X116750000Y-146250000D03*
X116750000Y-146750000D03*
X116750000Y-147250000D03*
X116750000Y-147750000D03*
X116750000Y-148250000D03*
X116750000Y-148750000D03*
X116750000Y-149250000D03*
X116750000Y-149750000D03*
%TD*%
D15*
%TO.C,R21*%
X233493000Y-141500000D03*
X234513000Y-141500000D03*
%TD*%
%TO.C,R22*%
X235505000Y-141500000D03*
X236525000Y-141500000D03*
%TD*%
D10*
%TO.C,C87*%
X229020000Y-141500000D03*
X229980000Y-141500000D03*
%TD*%
D27*
%TO.C,FID3*%
X151000000Y-140500000D03*
%TD*%
D39*
%TO.C,AE1*%
X155005000Y-148000000D03*
X160705000Y-148000000D03*
%TD*%
D27*
%TO.C,FID6*%
X306000000Y-155750000D03*
%TD*%
D15*
%TO.C,R63*%
X247190000Y-155600000D03*
X248210000Y-155600000D03*
%TD*%
D28*
%TO.C,L1*%
X187212500Y-153045000D03*
X188787500Y-153045000D03*
%TD*%
D38*
%TO.C,U6*%
X298750000Y-149750000D03*
X298750000Y-149250000D03*
X298750000Y-148750000D03*
X298750000Y-148250000D03*
X298750000Y-147750000D03*
X298750000Y-147250000D03*
X298750000Y-146750000D03*
X298750000Y-146250000D03*
X299250000Y-150250000D03*
X299250000Y-149750000D03*
X299250000Y-146250000D03*
X299250000Y-145750000D03*
X299750000Y-150250000D03*
X299750000Y-149750000D03*
X299750000Y-146250000D03*
X299750000Y-145750000D03*
X300250000Y-150250000D03*
X300250000Y-149750000D03*
X300250000Y-146250000D03*
X300250000Y-145750000D03*
X300750000Y-150250000D03*
X300750000Y-149750000D03*
X300750000Y-146250000D03*
X300750000Y-145750000D03*
X301250000Y-150250000D03*
X301250000Y-149750000D03*
X301250000Y-146250000D03*
X301250000Y-145750000D03*
X301750000Y-150250000D03*
X301750000Y-145750000D03*
X302250000Y-150250000D03*
X302250000Y-149750000D03*
X302250000Y-146250000D03*
X302250000Y-145750000D03*
X302750000Y-150250000D03*
X302750000Y-149750000D03*
X302750000Y-149250000D03*
X302750000Y-148250000D03*
X302750000Y-147750000D03*
X302750000Y-146750000D03*
X302750000Y-146250000D03*
X302750000Y-145750000D03*
X303250000Y-149750000D03*
X303250000Y-149250000D03*
X303250000Y-148750000D03*
X303250000Y-148250000D03*
X303250000Y-147750000D03*
X303250000Y-147250000D03*
X303250000Y-146750000D03*
X303250000Y-146250000D03*
%TD*%
D15*
%TO.C,R12*%
X243490000Y-144500000D03*
X244510000Y-144500000D03*
%TD*%
%TO.C,R74*%
X254390000Y-153700000D03*
X255410000Y-153700000D03*
%TD*%
D10*
%TO.C,C4*%
X188470000Y-149000000D03*
X189430000Y-149000000D03*
%TD*%
%TO.C,C34*%
X300520000Y-142000000D03*
X301480000Y-142000000D03*
%TD*%
%TO.C,C1*%
X188020000Y-145885000D03*
X188980000Y-145885000D03*
%TD*%
D15*
%TO.C,R44*%
X247190000Y-147523000D03*
X248210000Y-147523000D03*
%TD*%
D10*
%TO.C,C52*%
X182683000Y-148105000D03*
X183643000Y-148105000D03*
%TD*%
%TO.C,C8*%
X198570000Y-145400000D03*
X199530000Y-145400000D03*
%TD*%
D15*
%TO.C,R67*%
X256790000Y-155600000D03*
X257810000Y-155600000D03*
%TD*%
D10*
%TO.C,C5*%
X194020000Y-143350000D03*
X194980000Y-143350000D03*
%TD*%
D40*
%TO.C,U9*%
X246637500Y-149076000D03*
X246637500Y-149726000D03*
X246637500Y-150376000D03*
X246637500Y-151026000D03*
X246637500Y-151676000D03*
X246637500Y-152326000D03*
X246637500Y-152976000D03*
X252362500Y-152976000D03*
X252362500Y-152326000D03*
X252362500Y-151676000D03*
X252362500Y-151026000D03*
X252362500Y-150376000D03*
X252362500Y-149726000D03*
X252362500Y-149076000D03*
%TD*%
D10*
%TO.C,C42*%
X210727000Y-143862000D03*
X211687000Y-143862000D03*
%TD*%
D15*
%TO.C,R62*%
X244790000Y-155600000D03*
X245810000Y-155600000D03*
%TD*%
D10*
%TO.C,C20*%
X114020000Y-153500000D03*
X114980000Y-153500000D03*
%TD*%
D30*
%TO.C,J1*%
X166250000Y-150250000D03*
X166750000Y-150250000D03*
X167250000Y-150250000D03*
X167750000Y-150250000D03*
X168250000Y-150250000D03*
X168750000Y-150250000D03*
X169250000Y-150250000D03*
X169750000Y-150250000D03*
X170250000Y-150250000D03*
X170750000Y-150250000D03*
X171250000Y-150250000D03*
X171750000Y-150250000D03*
D31*
X164350000Y-153500000D03*
X173650000Y-153500000D03*
%TD*%
D40*
%TO.C,U8*%
X235158500Y-149253000D03*
X235158500Y-149903000D03*
X235158500Y-150553000D03*
X235158500Y-151203000D03*
X235158500Y-151853000D03*
X235158500Y-152503000D03*
X235158500Y-153153000D03*
X240883500Y-153153000D03*
X240883500Y-152503000D03*
X240883500Y-151853000D03*
X240883500Y-151203000D03*
X240883500Y-150553000D03*
X240883500Y-149903000D03*
X240883500Y-149253000D03*
%TD*%
D15*
%TO.C,R64*%
X249590000Y-155600000D03*
X250610000Y-155600000D03*
%TD*%
%TO.C,R8*%
X199990000Y-142000000D03*
X201010000Y-142000000D03*
%TD*%
D23*
%TO.C,J3*%
X226500000Y-151720000D03*
X227500000Y-151720000D03*
D24*
X225200000Y-155595000D03*
X228800000Y-155595000D03*
%TD*%
D15*
%TO.C,R71*%
X247190000Y-154398000D03*
X248210000Y-154398000D03*
%TD*%
D16*
%TO.C,Y1*%
X184220000Y-142500000D03*
X185620000Y-142500000D03*
X185620000Y-141400000D03*
X184220000Y-141400000D03*
%TD*%
D15*
%TO.C,R11*%
X240990000Y-144500000D03*
X242010000Y-144500000D03*
%TD*%
D26*
%TO.C,C84*%
X231131000Y-142932000D03*
X232681000Y-142932000D03*
%TD*%
D15*
%TO.C,R65*%
X251990000Y-155600000D03*
X253010000Y-155600000D03*
%TD*%
%TO.C,R69*%
X242442000Y-153700000D03*
X243462000Y-153700000D03*
%TD*%
D28*
%TO.C,L4*%
X211022500Y-153000000D03*
X212597500Y-153000000D03*
%TD*%
D10*
%TO.C,C31*%
X301370000Y-144450000D03*
X302330000Y-144450000D03*
%TD*%
D15*
%TO.C,R42*%
X242590000Y-146600000D03*
X243610000Y-146600000D03*
%TD*%
%TO.C,R5*%
X224908000Y-149032000D03*
X225928000Y-149032000D03*
%TD*%
D10*
%TO.C,C25*%
X114520000Y-142000000D03*
X115480000Y-142000000D03*
%TD*%
D15*
%TO.C,R66*%
X254390000Y-155600000D03*
X255410000Y-155600000D03*
%TD*%
D10*
%TO.C,C83*%
X228876000Y-143203000D03*
X229836000Y-143203000D03*
%TD*%
D15*
%TO.C,R2*%
X218874000Y-149050000D03*
X219894000Y-149050000D03*
%TD*%
%TO.C,R75*%
X256790000Y-153700000D03*
X257810000Y-153700000D03*
%TD*%
D10*
%TO.C,C43*%
X217915000Y-150150000D03*
X218875000Y-150150000D03*
%TD*%
D15*
%TO.C,R41*%
X240290000Y-146600000D03*
X241310000Y-146600000D03*
%TD*%
D10*
%TO.C,C35*%
X304520000Y-142000000D03*
X305480000Y-142000000D03*
%TD*%
%TO.C,C21*%
X115930000Y-151550000D03*
X116890000Y-151550000D03*
%TD*%
D16*
%TO.C,Y2*%
X122300000Y-142550000D03*
X123700000Y-142550000D03*
X123700000Y-141450000D03*
X122300000Y-141450000D03*
%TD*%
D10*
%TO.C,C24*%
X118520000Y-142000000D03*
X119480000Y-142000000D03*
%TD*%
%TO.C,C32*%
X298430000Y-151550000D03*
X299390000Y-151550000D03*
%TD*%
M02*
