%TF.GenerationSoftware,KiCad,Pcbnew,10.0.4*%
%TF.CreationDate,2026-08-31T21:17:39+02:00*%
%TF.ProjectId,smartbag_core,736d6172-7462-4616-975f-636f72652e6b,rev?*%
%TF.SameCoordinates,Original*%
%TF.FileFunction,Drillmap*%
%TF.FilePolarity,Positive*%
%FSLAX45Y45*%
G04 Gerber Fmt 4.5, Leading zero omitted, Abs format (unit mm)*
G04 Created by KiCad (PCBNEW 10.0.4) date 2026-08-31 21:17:39*
%MOMM*%
%LPD*%
G01*
G04 APERTURE LIST*
%ADD10C,0.100000*%
%ADD11C,0.200000*%
G04 APERTURE END LIST*
D10*
X11200000Y-13800000D02*
X12600000Y-13800000D01*
X11200000Y-15800000D02*
X11200000Y-13800000D01*
X12600000Y-13800000D02*
X12600000Y-14100000D01*
X12600000Y-14100000D02*
X14800000Y-14100000D01*
X12600000Y-15500000D02*
X12600000Y-15800000D01*
X12600000Y-15800000D02*
X11200000Y-15800000D01*
X14800000Y-13800000D02*
X27200000Y-13800000D01*
X14800000Y-14100000D02*
X14800000Y-13800000D01*
X14800000Y-15500000D02*
X12600000Y-15500000D01*
X14800000Y-15800000D02*
X14800000Y-15500000D01*
X27200000Y-13800000D02*
X27200000Y-14100000D01*
X27200000Y-14100000D02*
X29400000Y-14100000D01*
X27200000Y-15500000D02*
X27200000Y-15800000D01*
X27200000Y-15800000D02*
X14800000Y-15800000D01*
X29400000Y-13800000D02*
X30800000Y-13800000D01*
X29400000Y-14100000D02*
X29400000Y-13800000D01*
X29400000Y-15500000D02*
X27200000Y-15500000D01*
X29400000Y-15800000D02*
X29400000Y-15500000D01*
X30800000Y-13800000D02*
X30800000Y-15800000D01*
X30800000Y-15800000D02*
X29400000Y-15800000D01*
D11*
D10*
X11387170Y-15282730D02*
X11397170Y-15292730D01*
X11397170Y-15282730D02*
X11387170Y-15292730D01*
X11486370Y-14239500D02*
X11496370Y-14249500D01*
X11496370Y-14239500D02*
X11486370Y-14249500D01*
X11519130Y-15027910D02*
X11529130Y-15037910D01*
X11529130Y-15027910D02*
X11519130Y-15037910D01*
X11589130Y-14150650D02*
X11599130Y-14160650D01*
X11599130Y-14150650D02*
X11589130Y-14160650D01*
X11595000Y-14035000D02*
X11605000Y-14045000D01*
X11605000Y-14035000D02*
X11595000Y-14045000D01*
X11595000Y-15555000D02*
X11605000Y-15565000D01*
X11605000Y-15555000D02*
X11595000Y-15565000D01*
X11615920Y-14604650D02*
X11625920Y-14614650D01*
X11625920Y-14604650D02*
X11615920Y-14614650D01*
X11615920Y-14779890D02*
X11625920Y-14789890D01*
X11625920Y-14779890D02*
X11615920Y-14789890D01*
X11626560Y-14981530D02*
X11636560Y-14991530D01*
X11636560Y-14981530D02*
X11626560Y-14991530D01*
X11627000Y-15108460D02*
X11637000Y-15118460D01*
X11637000Y-15108460D02*
X11627000Y-15118460D01*
X11639530Y-15345000D02*
X11649530Y-15355000D01*
X11649530Y-15345000D02*
X11639530Y-15355000D01*
X11720000Y-14525520D02*
X11730000Y-14535520D01*
X11730000Y-14525520D02*
X11720000Y-14535520D01*
X11720000Y-14620000D02*
X11730000Y-14630000D01*
X11730000Y-14620000D02*
X11720000Y-14630000D01*
X11720000Y-14970000D02*
X11730000Y-14980000D01*
X11730000Y-14970000D02*
X11720000Y-14980000D01*
X11792320Y-14737460D02*
X11802320Y-14747460D01*
X11802320Y-14737460D02*
X11792320Y-14747460D01*
X11800630Y-15111310D02*
X11810630Y-15121310D01*
X11810630Y-15111310D02*
X11800630Y-15121310D01*
X11808220Y-14620000D02*
X11818220Y-14630000D01*
X11818220Y-14620000D02*
X11808220Y-14630000D01*
X11822900Y-14867100D02*
X11832900Y-14877100D01*
X11832900Y-14867100D02*
X11822900Y-14877100D01*
X11906120Y-14447130D02*
X11916120Y-14457130D01*
X11916120Y-14447130D02*
X11906120Y-14457130D01*
X11908490Y-15345000D02*
X11918490Y-15355000D01*
X11918490Y-15345000D02*
X11908490Y-15355000D01*
X11995000Y-14035000D02*
X12005000Y-14045000D01*
X12005000Y-14035000D02*
X11995000Y-14045000D01*
X11995000Y-15555000D02*
X12005000Y-15565000D01*
X12005000Y-15555000D02*
X11995000Y-15565000D01*
X12020000Y-14620000D02*
X12030000Y-14630000D01*
X12030000Y-14620000D02*
X12020000Y-14630000D01*
X12020000Y-14970000D02*
X12030000Y-14980000D01*
X12030000Y-14970000D02*
X12020000Y-14980000D01*
X12039620Y-14823530D02*
X12049620Y-14833530D01*
X12049620Y-14823530D02*
X12039620Y-14833530D01*
X12155410Y-14629930D02*
X12165410Y-14639930D01*
X12165410Y-14629930D02*
X12155410Y-14639930D01*
X12241140Y-15345000D02*
X12251140Y-15355000D01*
X12251140Y-15345000D02*
X12241140Y-15355000D01*
X12287170Y-14779890D02*
X12297170Y-14789890D01*
X12297170Y-14779890D02*
X12287170Y-14789890D01*
X12297110Y-14142210D02*
X12307110Y-14152210D01*
X12307110Y-14142210D02*
X12297110Y-14152210D01*
X13395000Y-14535000D02*
X13405000Y-14545000D01*
X13405000Y-14535000D02*
X13395000Y-14545000D01*
X13395000Y-15055000D02*
X13405000Y-15065000D01*
X13405000Y-15055000D02*
X13395000Y-15065000D01*
X13695000Y-14535000D02*
X13705000Y-14545000D01*
X13705000Y-14535000D02*
X13695000Y-14545000D01*
X13695000Y-15055000D02*
X13705000Y-15065000D01*
X13705000Y-15055000D02*
X13695000Y-15065000D01*
X13995000Y-14535000D02*
X14005000Y-14545000D01*
X14005000Y-14535000D02*
X13995000Y-14545000D01*
X13995000Y-15055000D02*
X14005000Y-15065000D01*
X14005000Y-15055000D02*
X13995000Y-15065000D01*
X14295000Y-14535000D02*
X14305000Y-14545000D01*
X14305000Y-14535000D02*
X14295000Y-14545000D01*
X14295000Y-15055000D02*
X14305000Y-15065000D01*
X14305000Y-15055000D02*
X14295000Y-15065000D01*
X14595000Y-14535000D02*
X14605000Y-14545000D01*
X14605000Y-14535000D02*
X14595000Y-14545000D01*
X14595000Y-15055000D02*
X14605000Y-15065000D01*
X14605000Y-15055000D02*
X14595000Y-15065000D01*
X14895000Y-14535000D02*
X14905000Y-14545000D01*
X14905000Y-14535000D02*
X14895000Y-14545000D01*
X14895000Y-15055000D02*
X14905000Y-15065000D01*
X14905000Y-15055000D02*
X14895000Y-15065000D01*
X15195000Y-14535000D02*
X15205000Y-14545000D01*
X15205000Y-14535000D02*
X15195000Y-14545000D01*
X15195000Y-15055000D02*
X15205000Y-15065000D01*
X15205000Y-15055000D02*
X15195000Y-15065000D01*
X15319830Y-14857150D02*
X15329830Y-14867150D01*
X15329830Y-14857150D02*
X15319830Y-14867150D01*
X15495000Y-14535000D02*
X15505000Y-14545000D01*
X15505000Y-14535000D02*
X15495000Y-14545000D01*
X15495000Y-15055000D02*
X15505000Y-15065000D01*
X15505000Y-15055000D02*
X15495000Y-15065000D01*
X15795000Y-14535000D02*
X15805000Y-14545000D01*
X15805000Y-14535000D02*
X15795000Y-14545000D01*
X15795000Y-15055000D02*
X15805000Y-15065000D01*
X15805000Y-15055000D02*
X15795000Y-15065000D01*
X16047000Y-15248850D02*
X16057000Y-15258850D01*
X16057000Y-15248850D02*
X16047000Y-15258850D01*
X16095000Y-14535000D02*
X16105000Y-14545000D01*
X16105000Y-14535000D02*
X16095000Y-14545000D01*
X16095000Y-15055000D02*
X16105000Y-15065000D01*
X16105000Y-15055000D02*
X16095000Y-15065000D01*
X16244960Y-14739100D02*
X16254960Y-14749100D01*
X16254960Y-14739100D02*
X16244960Y-14749100D01*
X16378370Y-14865540D02*
X16388370Y-14875540D01*
X16388370Y-14865540D02*
X16378370Y-14875540D01*
X16395000Y-13865000D02*
X16405000Y-13875000D01*
X16405000Y-13865000D02*
X16395000Y-13875000D01*
X16670160Y-15109440D02*
X16680160Y-15119440D01*
X16680160Y-15109440D02*
X16670160Y-15119440D01*
X16681750Y-14095000D02*
X16691750Y-14105000D01*
X16691750Y-14095000D02*
X16681750Y-14105000D01*
X16729520Y-15108410D02*
X16739520Y-15118410D01*
X16739520Y-15108410D02*
X16729520Y-15118410D01*
X16748740Y-14224110D02*
X16758740Y-14234110D01*
X16758740Y-14224110D02*
X16748740Y-14234110D01*
X16770000Y-14932130D02*
X16780000Y-14942130D01*
X16780000Y-14932130D02*
X16770000Y-14942130D01*
X16795000Y-13865000D02*
X16805000Y-13875000D01*
X16805000Y-13865000D02*
X16795000Y-13875000D01*
X16876100Y-15108170D02*
X16886100Y-15118170D01*
X16886100Y-15108170D02*
X16876100Y-15118170D01*
X16900110Y-15197060D02*
X16910110Y-15207060D01*
X16910110Y-15197060D02*
X16900110Y-15207060D01*
X16920000Y-15107820D02*
X16930000Y-15117820D01*
X16930000Y-15107820D02*
X16920000Y-15117820D01*
X17002270Y-14913870D02*
X17012270Y-14923870D01*
X17012270Y-14913870D02*
X17002270Y-14923870D01*
X17195000Y-13865000D02*
X17205000Y-13875000D01*
X17205000Y-13865000D02*
X17195000Y-13875000D01*
X17206300Y-15097240D02*
X17216300Y-15107240D01*
X17216300Y-15097240D02*
X17206300Y-15107240D01*
X17476250Y-14950620D02*
X17486250Y-14960620D01*
X17486250Y-14950620D02*
X17476250Y-14960620D01*
X17495770Y-14847790D02*
X17505770Y-14857790D01*
X17505770Y-14847790D02*
X17495770Y-14857790D01*
X17524910Y-14820110D02*
X17534910Y-14830110D01*
X17534910Y-14820110D02*
X17524910Y-14830110D01*
X17595000Y-13865000D02*
X17605000Y-13875000D01*
X17605000Y-13865000D02*
X17595000Y-13875000D01*
X17595000Y-15725000D02*
X17605000Y-15735000D01*
X17605000Y-15725000D02*
X17595000Y-15735000D01*
X17995000Y-13865000D02*
X18005000Y-13875000D01*
X18005000Y-13865000D02*
X17995000Y-13875000D01*
X17995000Y-15725000D02*
X18005000Y-15735000D01*
X18005000Y-15725000D02*
X17995000Y-15735000D01*
X18100190Y-14244800D02*
X18110190Y-14254800D01*
X18110190Y-14244800D02*
X18100190Y-14254800D01*
X18201680Y-14490660D02*
X18211680Y-14500660D01*
X18211680Y-14490660D02*
X18201680Y-14500660D01*
X18251110Y-14823300D02*
X18261110Y-14833300D01*
X18261110Y-14823300D02*
X18251110Y-14833300D01*
X18276260Y-14871480D02*
X18286260Y-14881480D01*
X18286260Y-14871480D02*
X18276260Y-14881480D01*
X18297800Y-14915000D02*
X18307800Y-14925000D01*
X18307800Y-14915000D02*
X18297800Y-14925000D01*
X18348930Y-14372440D02*
X18358930Y-14382440D01*
X18358930Y-14372440D02*
X18348930Y-14382440D01*
X18395000Y-13865000D02*
X18405000Y-13875000D01*
X18405000Y-13865000D02*
X18395000Y-13875000D01*
X18395000Y-15725000D02*
X18405000Y-15735000D01*
X18405000Y-15725000D02*
X18395000Y-15735000D01*
X18458270Y-14241570D02*
X18468270Y-14251570D01*
X18468270Y-14241570D02*
X18458270Y-14251570D01*
X18738290Y-14915000D02*
X18748290Y-14925000D01*
X18748290Y-14915000D02*
X18738290Y-14925000D01*
X18742730Y-14804560D02*
X18752730Y-14814560D01*
X18752730Y-14804560D02*
X18742730Y-14814560D01*
X18744670Y-14725800D02*
X18754670Y-14735800D01*
X18754670Y-14725800D02*
X18744670Y-14735800D01*
X18747130Y-14186430D02*
X18757130Y-14196430D01*
X18757130Y-14186430D02*
X18747130Y-14196430D01*
X18782820Y-15330000D02*
X18792820Y-15340000D01*
X18792820Y-15330000D02*
X18782820Y-15340000D01*
X18793000Y-14620260D02*
X18803000Y-14630260D01*
X18803000Y-14620260D02*
X18793000Y-14630260D01*
X18795000Y-13865000D02*
X18805000Y-13875000D01*
X18805000Y-13865000D02*
X18795000Y-13875000D01*
X18795000Y-15725000D02*
X18805000Y-15735000D01*
X18805000Y-15725000D02*
X18795000Y-15735000D01*
X18872740Y-14804560D02*
X18882740Y-14814560D01*
X18882740Y-14804560D02*
X18872740Y-14814560D01*
X18899440Y-14627080D02*
X18909440Y-14637080D01*
X18909440Y-14627080D02*
X18899440Y-14637080D01*
X18944000Y-14733300D02*
X18954000Y-14743300D01*
X18954000Y-14733300D02*
X18944000Y-14743300D01*
X18975470Y-14700620D02*
X18985470Y-14710620D01*
X18985470Y-14700620D02*
X18975470Y-14710620D01*
X18987120Y-14855000D02*
X18997120Y-14865000D01*
X18997120Y-14855000D02*
X18987120Y-14865000D01*
X19002590Y-14977870D02*
X19012590Y-14987870D01*
X19012590Y-14977870D02*
X19002590Y-14987870D01*
X19017760Y-15150460D02*
X19027760Y-15160460D01*
X19027760Y-15150460D02*
X19017760Y-15160460D01*
X19028760Y-14954300D02*
X19038760Y-14964300D01*
X19038760Y-14954300D02*
X19028760Y-14964300D01*
X19031310Y-14888570D02*
X19041310Y-14898570D01*
X19041310Y-14888570D02*
X19031310Y-14898570D01*
X19036390Y-14782710D02*
X19046390Y-14792710D01*
X19046390Y-14782710D02*
X19036390Y-14792710D01*
X19036650Y-15009650D02*
X19046650Y-15019650D01*
X19046650Y-15009650D02*
X19036650Y-15019650D01*
X19036810Y-14747530D02*
X19046810Y-14757530D01*
X19046810Y-14747530D02*
X19036810Y-14757530D01*
X19037110Y-14712350D02*
X19047110Y-14722350D01*
X19047110Y-14712350D02*
X19037110Y-14722350D01*
X19055040Y-15120590D02*
X19065040Y-15130590D01*
X19065040Y-15120590D02*
X19055040Y-15130590D01*
X19066040Y-15048960D02*
X19076040Y-15058960D01*
X19076040Y-15048960D02*
X19066040Y-15058960D01*
X19081780Y-15224390D02*
X19091780Y-15234390D01*
X19091780Y-15224390D02*
X19081780Y-15234390D01*
X19089160Y-14451950D02*
X19099160Y-14461950D01*
X19099160Y-14451950D02*
X19089160Y-14461950D01*
X19114380Y-15048710D02*
X19124380Y-15058710D01*
X19124380Y-15048710D02*
X19114380Y-15058710D01*
X19136280Y-14500000D02*
X19146280Y-14510000D01*
X19146280Y-14500000D02*
X19136280Y-14510000D01*
X19142190Y-15074050D02*
X19152190Y-15084050D01*
X19152190Y-15074050D02*
X19142190Y-15084050D01*
X19165030Y-15153810D02*
X19175030Y-15163810D01*
X19175030Y-15153810D02*
X19165030Y-15163810D01*
X19195000Y-13865000D02*
X19205000Y-13875000D01*
X19205000Y-13865000D02*
X19195000Y-13875000D01*
X19195000Y-15725000D02*
X19205000Y-15735000D01*
X19205000Y-15725000D02*
X19195000Y-15735000D01*
X19228300Y-15152790D02*
X19238300Y-15162790D01*
X19238300Y-15152790D02*
X19228300Y-15162790D01*
X19228830Y-15189100D02*
X19238830Y-15199100D01*
X19238830Y-15189100D02*
X19228830Y-15199100D01*
X19240200Y-14435940D02*
X19250200Y-14445940D01*
X19250200Y-14435940D02*
X19240200Y-14445940D01*
X19290510Y-14436100D02*
X19300510Y-14446100D01*
X19300510Y-14436100D02*
X19290510Y-14446100D01*
X19312420Y-15152340D02*
X19322420Y-15162340D01*
X19322420Y-15152340D02*
X19312420Y-15162340D01*
X19362790Y-15152890D02*
X19372790Y-15162890D01*
X19372790Y-15152890D02*
X19362790Y-15162890D01*
X19375000Y-14436390D02*
X19385000Y-14446390D01*
X19385000Y-14436390D02*
X19375000Y-14446390D01*
X19415000Y-14435720D02*
X19425000Y-14445720D01*
X19425000Y-14435720D02*
X19415000Y-14445720D01*
X19420000Y-15152710D02*
X19430000Y-15162710D01*
X19430000Y-15152710D02*
X19420000Y-15162710D01*
X19459300Y-15209730D02*
X19469300Y-15219730D01*
X19469300Y-15209730D02*
X19459300Y-15219730D01*
X19495000Y-14435560D02*
X19505000Y-14445560D01*
X19505000Y-14435560D02*
X19495000Y-14445560D01*
X19575000Y-14436830D02*
X19585000Y-14446830D01*
X19585000Y-14436830D02*
X19575000Y-14446830D01*
X19595000Y-13865000D02*
X19605000Y-13875000D01*
X19605000Y-13865000D02*
X19595000Y-13875000D01*
X19595000Y-15725000D02*
X19605000Y-15735000D01*
X19605000Y-15725000D02*
X19595000Y-15735000D01*
X19647850Y-14469540D02*
X19657850Y-14479540D01*
X19657850Y-14469540D02*
X19647850Y-14479540D01*
X19655130Y-14244370D02*
X19665130Y-14254370D01*
X19665130Y-14244370D02*
X19655130Y-14254370D01*
X19670420Y-15053030D02*
X19680420Y-15063030D01*
X19680420Y-15053030D02*
X19670420Y-15063030D01*
X19706660Y-15071020D02*
X19716660Y-15081020D01*
X19716660Y-15071020D02*
X19706660Y-15081020D01*
X19736190Y-15096900D02*
X19746190Y-15106900D01*
X19746190Y-15096900D02*
X19736190Y-15106900D01*
X19760510Y-14579440D02*
X19770510Y-14589440D01*
X19770510Y-14579440D02*
X19760510Y-14589440D01*
X19785880Y-14236880D02*
X19795880Y-14246880D01*
X19795880Y-14236880D02*
X19785880Y-14246880D01*
X19813880Y-14869450D02*
X19823880Y-14879450D01*
X19823880Y-14869450D02*
X19813880Y-14879450D01*
X19834920Y-15516140D02*
X19844920Y-15526140D01*
X19844920Y-15516140D02*
X19834920Y-15526140D01*
X19835600Y-14944970D02*
X19845600Y-14954970D01*
X19845600Y-14944970D02*
X19835600Y-14954970D01*
X19844260Y-15357450D02*
X19854260Y-15367450D01*
X19854260Y-15357450D02*
X19844260Y-15367450D01*
X19851400Y-14799450D02*
X19861400Y-14809450D01*
X19861400Y-14799450D02*
X19851400Y-14809450D01*
X19855710Y-14761070D02*
X19865710Y-14771070D01*
X19865710Y-14761070D02*
X19855710Y-14771070D01*
X19870780Y-14942350D02*
X19880780Y-14952350D01*
X19880780Y-14942350D02*
X19870780Y-14952350D01*
X19872210Y-14615750D02*
X19882210Y-14625750D01*
X19882210Y-14615750D02*
X19872210Y-14625750D01*
X19903690Y-14532390D02*
X19913690Y-14542390D01*
X19913690Y-14532390D02*
X19903690Y-14542390D01*
X19943770Y-14193700D02*
X19953770Y-14203700D01*
X19953770Y-14193700D02*
X19943770Y-14203700D01*
X19946750Y-14576210D02*
X19956750Y-14586210D01*
X19956750Y-14576210D02*
X19946750Y-14586210D01*
X19978070Y-15360550D02*
X19988070Y-15370550D01*
X19988070Y-15360550D02*
X19978070Y-15370550D01*
X19994740Y-15071670D02*
X20004740Y-15081670D01*
X20004740Y-15071670D02*
X19994740Y-15081670D01*
X19995000Y-13865000D02*
X20005000Y-13875000D01*
X20005000Y-13865000D02*
X19995000Y-13875000D01*
X19995000Y-15725000D02*
X20005000Y-15735000D01*
X20005000Y-15725000D02*
X19995000Y-15735000D01*
X20040740Y-15148970D02*
X20050740Y-15158970D01*
X20050740Y-15148970D02*
X20040740Y-15158970D01*
X20071420Y-14738780D02*
X20081420Y-14748780D01*
X20081420Y-14738780D02*
X20071420Y-14748780D01*
X20144490Y-14439060D02*
X20154490Y-14449060D01*
X20154490Y-14439060D02*
X20144490Y-14449060D01*
X20163744Y-14191547D02*
X20173744Y-14201547D01*
X20173744Y-14191547D02*
X20163744Y-14201547D01*
X20249660Y-14377160D02*
X20259660Y-14387160D01*
X20259660Y-14377160D02*
X20249660Y-14387160D01*
X20271800Y-14312830D02*
X20281800Y-14322830D01*
X20281800Y-14312830D02*
X20271800Y-14322830D01*
X20360540Y-15044870D02*
X20370540Y-15054870D01*
X20370540Y-15044870D02*
X20360540Y-15054870D01*
X20395000Y-13865000D02*
X20405000Y-13875000D01*
X20405000Y-13865000D02*
X20395000Y-13875000D01*
X20395000Y-15725000D02*
X20405000Y-15735000D01*
X20405000Y-15725000D02*
X20395000Y-15735000D01*
X20421170Y-14150280D02*
X20431170Y-14160280D01*
X20431170Y-14150280D02*
X20421170Y-14160280D01*
X20562001Y-14149884D02*
X20572001Y-14159884D01*
X20572001Y-14149884D02*
X20562001Y-14159884D01*
X20795000Y-13865000D02*
X20805000Y-13875000D01*
X20805000Y-13865000D02*
X20795000Y-13875000D01*
X20795000Y-15725000D02*
X20805000Y-15735000D01*
X20805000Y-15725000D02*
X20795000Y-15735000D01*
X20832490Y-14956180D02*
X20842490Y-14966180D01*
X20842490Y-14956180D02*
X20832490Y-14966180D01*
X20833970Y-14732770D02*
X20843970Y-14742770D01*
X20843970Y-14732770D02*
X20833970Y-14742770D01*
X20854570Y-15290630D02*
X20864570Y-15300630D01*
X20864570Y-15290630D02*
X20854570Y-15300630D01*
X20876640Y-14615000D02*
X20886640Y-14625000D01*
X20886640Y-14615000D02*
X20876640Y-14625000D01*
X20888530Y-14321530D02*
X20898530Y-14331530D01*
X20898530Y-14321530D02*
X20888530Y-14331530D01*
X20967660Y-14522460D02*
X20977660Y-14532460D01*
X20977660Y-14522460D02*
X20967660Y-14532460D01*
X20967660Y-14707540D02*
X20977660Y-14717540D01*
X20977660Y-14707540D02*
X20967660Y-14717540D01*
X20978790Y-14663610D02*
X20988790Y-14673610D01*
X20988790Y-14663610D02*
X20978790Y-14673610D01*
X21010690Y-15285690D02*
X21020690Y-15295690D01*
X21020690Y-15285690D02*
X21010690Y-15295690D01*
X21011250Y-14299860D02*
X21021250Y-14309860D01*
X21021250Y-14299860D02*
X21011250Y-14309860D01*
X21079330Y-15051970D02*
X21089330Y-15061970D01*
X21089330Y-15051970D02*
X21079330Y-15061970D01*
X21120010Y-15371470D02*
X21130010Y-15381470D01*
X21130010Y-15371470D02*
X21120010Y-15381470D01*
X21149260Y-15001170D02*
X21159260Y-15011170D01*
X21159260Y-15001170D02*
X21149260Y-15011170D01*
X21161210Y-15108150D02*
X21171210Y-15118150D01*
X21171210Y-15108150D02*
X21161210Y-15118150D01*
X21195000Y-13865000D02*
X21205000Y-13875000D01*
X21205000Y-13865000D02*
X21195000Y-13875000D01*
X21195000Y-15725000D02*
X21205000Y-15735000D01*
X21205000Y-15725000D02*
X21195000Y-15735000D01*
X21215930Y-14377880D02*
X21225930Y-14387880D01*
X21225930Y-14377880D02*
X21215930Y-14387880D01*
X21221830Y-14327000D02*
X21231830Y-14337000D01*
X21231830Y-14327000D02*
X21221830Y-14337000D01*
X21251770Y-15372740D02*
X21261770Y-15382740D01*
X21261770Y-15372740D02*
X21251770Y-15382740D01*
X21275730Y-15007040D02*
X21285730Y-15017040D01*
X21285730Y-15007040D02*
X21275730Y-15017040D01*
X21361240Y-15010620D02*
X21371240Y-15020620D01*
X21371240Y-15010620D02*
X21361240Y-15020620D01*
X21397970Y-14202640D02*
X21407970Y-14212640D01*
X21407970Y-14202640D02*
X21397970Y-14212640D01*
X21500230Y-14405170D02*
X21510230Y-14415170D01*
X21510230Y-14405170D02*
X21500230Y-14415170D01*
X21595000Y-13865000D02*
X21605000Y-13875000D01*
X21605000Y-13865000D02*
X21595000Y-13875000D01*
X21598590Y-14196590D02*
X21608590Y-14206590D01*
X21608590Y-14196590D02*
X21598590Y-14206590D01*
X21600360Y-14611020D02*
X21610360Y-14621020D01*
X21610360Y-14611020D02*
X21600360Y-14621020D01*
X21607440Y-14757540D02*
X21617440Y-14767540D01*
X21617440Y-14757540D02*
X21607440Y-14767540D01*
X21613480Y-14702200D02*
X21623480Y-14712200D01*
X21623480Y-14702200D02*
X21613480Y-14712200D01*
X21638200Y-14659520D02*
X21648200Y-14669520D01*
X21648200Y-14659520D02*
X21638200Y-14669520D01*
X21674590Y-14763310D02*
X21684590Y-14773310D01*
X21684590Y-14763310D02*
X21674590Y-14773310D01*
X21726728Y-14757502D02*
X21736728Y-14767502D01*
X21736728Y-14757502D02*
X21726728Y-14767502D01*
X21735670Y-15226330D02*
X21745670Y-15236330D01*
X21745670Y-15226330D02*
X21735670Y-15236330D01*
X21804640Y-14202640D02*
X21814640Y-14212640D01*
X21814640Y-14202640D02*
X21804640Y-14212640D01*
X21851430Y-15079630D02*
X21861430Y-15089630D01*
X21861430Y-15079630D02*
X21851430Y-15089630D01*
X21995000Y-13865000D02*
X22005000Y-13875000D01*
X22005000Y-13865000D02*
X21995000Y-13875000D01*
X22034900Y-15412200D02*
X22044900Y-15422200D01*
X22044900Y-15412200D02*
X22034900Y-15422200D01*
X22395000Y-13865000D02*
X22405000Y-13875000D01*
X22405000Y-13865000D02*
X22395000Y-13875000D01*
X22553360Y-14861050D02*
X22563360Y-14871050D01*
X22563360Y-14861050D02*
X22553360Y-14871050D01*
X22588930Y-14773440D02*
X22598930Y-14783440D01*
X22598930Y-14773440D02*
X22588930Y-14783440D01*
X22591950Y-15112740D02*
X22601950Y-15122740D01*
X22601950Y-15112740D02*
X22591950Y-15122740D01*
X22602830Y-14663290D02*
X22612830Y-14673290D01*
X22612830Y-14663290D02*
X22602830Y-14673290D01*
X22650350Y-14915820D02*
X22660350Y-14925820D01*
X22660350Y-14915820D02*
X22650350Y-14925820D01*
X22688570Y-14186570D02*
X22698570Y-14196570D01*
X22698570Y-14186570D02*
X22688570Y-14196570D01*
X22784550Y-14103610D02*
X22794550Y-14113610D01*
X22794550Y-14103610D02*
X22784550Y-14113610D01*
X22795000Y-13865000D02*
X22805000Y-13875000D01*
X22805000Y-13865000D02*
X22795000Y-13875000D01*
X22828270Y-14528220D02*
X22838270Y-14538220D01*
X22838270Y-14528220D02*
X22828270Y-14538220D01*
X22841610Y-14589590D02*
X22851610Y-14599590D01*
X22851610Y-14589590D02*
X22841610Y-14599590D01*
X22879020Y-14381030D02*
X22889020Y-14391030D01*
X22889020Y-14381030D02*
X22879020Y-14391030D01*
X22950960Y-14921040D02*
X22960960Y-14931040D01*
X22960960Y-14921040D02*
X22950960Y-14931040D01*
X23042420Y-14218080D02*
X23052420Y-14228080D01*
X23052420Y-14218080D02*
X23042420Y-14228080D01*
X23081180Y-14981530D02*
X23091180Y-14991530D01*
X23091180Y-14981530D02*
X23081180Y-14991530D01*
X23095530Y-14306970D02*
X23105530Y-14316970D01*
X23105530Y-14306970D02*
X23095530Y-14316970D01*
X23130326Y-14397136D02*
X23140326Y-14407136D01*
X23140326Y-14397136D02*
X23130326Y-14407136D01*
X23195000Y-13865000D02*
X23205000Y-13875000D01*
X23205000Y-13865000D02*
X23195000Y-13875000D01*
X23195000Y-15725000D02*
X23205000Y-15735000D01*
X23205000Y-15725000D02*
X23195000Y-15735000D01*
X23200810Y-14182660D02*
X23210810Y-14192660D01*
X23210810Y-14182660D02*
X23200810Y-14192660D01*
X23238880Y-14235410D02*
X23248880Y-14245410D01*
X23248880Y-14235410D02*
X23238880Y-14245410D01*
X23276240Y-14665310D02*
X23286240Y-14675310D01*
X23286240Y-14665310D02*
X23276240Y-14675310D01*
X23277780Y-14776670D02*
X23287780Y-14786670D01*
X23287780Y-14776670D02*
X23277780Y-14786670D01*
X23279210Y-15080000D02*
X23289210Y-15090000D01*
X23289210Y-15080000D02*
X23279210Y-15090000D01*
X23288280Y-14094090D02*
X23298280Y-14104090D01*
X23298280Y-14094090D02*
X23288280Y-14104090D01*
X23295630Y-14500970D02*
X23305630Y-14510970D01*
X23305630Y-14500970D02*
X23295630Y-14510970D01*
X23321430Y-14384670D02*
X23331430Y-14394670D01*
X23331430Y-14384670D02*
X23321430Y-14394670D01*
X23354940Y-14745000D02*
X23364940Y-14755000D01*
X23364940Y-14745000D02*
X23354940Y-14755000D01*
X23355750Y-14705300D02*
X23365750Y-14715300D01*
X23365750Y-14705300D02*
X23355750Y-14715300D01*
X23394130Y-14110000D02*
X23404130Y-14120000D01*
X23404130Y-14110000D02*
X23394130Y-14120000D01*
X23595000Y-13865000D02*
X23605000Y-13875000D01*
X23605000Y-13865000D02*
X23595000Y-13875000D01*
X23595000Y-15725000D02*
X23605000Y-15735000D01*
X23605000Y-15725000D02*
X23595000Y-15735000D01*
X23606910Y-15095000D02*
X23616910Y-15105000D01*
X23616910Y-15095000D02*
X23606910Y-15105000D01*
X23612000Y-15225000D02*
X23622000Y-15235000D01*
X23622000Y-15225000D02*
X23612000Y-15235000D01*
X23630000Y-14146970D02*
X23640000Y-14156970D01*
X23640000Y-14146970D02*
X23630000Y-14156970D01*
X23746060Y-15333190D02*
X23756060Y-15343190D01*
X23756060Y-15333190D02*
X23746060Y-15343190D01*
X23789440Y-13986490D02*
X23799440Y-13996490D01*
X23799440Y-13986490D02*
X23789440Y-13996490D01*
X23805250Y-14958740D02*
X23815250Y-14968740D01*
X23815250Y-14958740D02*
X23805250Y-14968740D01*
X23851930Y-14607070D02*
X23861930Y-14617070D01*
X23861930Y-14607070D02*
X23851930Y-14617070D01*
X23894070Y-15450000D02*
X23904070Y-15460000D01*
X23904070Y-15450000D02*
X23894070Y-15460000D01*
X23894520Y-14394480D02*
X23904520Y-14404480D01*
X23904520Y-14394480D02*
X23894520Y-14404480D01*
X23947330Y-14741670D02*
X23957330Y-14751670D01*
X23957330Y-14741670D02*
X23947330Y-14751670D01*
X23985030Y-14979220D02*
X23995030Y-14989220D01*
X23995030Y-14979220D02*
X23985030Y-14989220D01*
X23985030Y-15040450D02*
X23995030Y-15050450D01*
X23995030Y-15040450D02*
X23985030Y-15050450D01*
X23986770Y-15524350D02*
X23996770Y-15534350D01*
X23996770Y-15524350D02*
X23986770Y-15534350D01*
X23995000Y-13865000D02*
X24005000Y-13875000D01*
X24005000Y-13865000D02*
X23995000Y-13875000D01*
X23995000Y-15725000D02*
X24005000Y-15735000D01*
X24005000Y-15725000D02*
X23995000Y-15735000D01*
X24011700Y-13986490D02*
X24021700Y-13996490D01*
X24021700Y-13986490D02*
X24011700Y-13996490D01*
X24035020Y-14868960D02*
X24045020Y-14878960D01*
X24045020Y-14868960D02*
X24035020Y-14878960D01*
X24040180Y-14712660D02*
X24050180Y-14722660D01*
X24050180Y-14712660D02*
X24040180Y-14722660D01*
X24053820Y-15730660D02*
X24063820Y-15740660D01*
X24063820Y-15730660D02*
X24053820Y-15740660D01*
X24086010Y-15684580D02*
X24096010Y-15694580D01*
X24096010Y-15684580D02*
X24086010Y-15694580D01*
X24087700Y-14823990D02*
X24097700Y-14833990D01*
X24097700Y-14823990D02*
X24087700Y-14833990D01*
X24112540Y-15711830D02*
X24122540Y-15721830D01*
X24122540Y-15711830D02*
X24112540Y-15721830D01*
X24112900Y-15326260D02*
X24122900Y-15336260D01*
X24122900Y-15326260D02*
X24112900Y-15336260D01*
X24270000Y-14697340D02*
X24280000Y-14707340D01*
X24280000Y-14697340D02*
X24270000Y-14707340D01*
X24286130Y-14636590D02*
X24296130Y-14646590D01*
X24296130Y-14636590D02*
X24286130Y-14646590D01*
X24289240Y-13995000D02*
X24299240Y-14005000D01*
X24299240Y-13995000D02*
X24289240Y-14005000D01*
X24308230Y-15434500D02*
X24318230Y-15444500D01*
X24318230Y-15434500D02*
X24308230Y-15444500D01*
X24346750Y-15540950D02*
X24356750Y-15550950D01*
X24356750Y-15540950D02*
X24346750Y-15550950D01*
X24364290Y-14590000D02*
X24374290Y-14600000D01*
X24374290Y-14590000D02*
X24364290Y-14600000D01*
X24366480Y-15326260D02*
X24376480Y-15336260D01*
X24376480Y-15326260D02*
X24366480Y-15336260D01*
X24372350Y-14936010D02*
X24382350Y-14946010D01*
X24382350Y-14936010D02*
X24372350Y-14946010D01*
X24377990Y-15225000D02*
X24387990Y-15235000D01*
X24387990Y-15225000D02*
X24377990Y-15235000D01*
X24378780Y-15493110D02*
X24388780Y-15503110D01*
X24388780Y-15493110D02*
X24378780Y-15503110D01*
X24378910Y-15157990D02*
X24388910Y-15167990D01*
X24388910Y-15157990D02*
X24378910Y-15167990D01*
X24395000Y-13865000D02*
X24405000Y-13875000D01*
X24405000Y-13865000D02*
X24395000Y-13875000D01*
X24401660Y-15264830D02*
X24411660Y-15274830D01*
X24411660Y-15264830D02*
X24401660Y-15274830D01*
X24409210Y-15469550D02*
X24419210Y-15479550D01*
X24419210Y-15469550D02*
X24409210Y-15479550D01*
X24433230Y-14700000D02*
X24443230Y-14710000D01*
X24443230Y-14700000D02*
X24433230Y-14710000D01*
X24477770Y-15561820D02*
X24487770Y-15571820D01*
X24487770Y-15561820D02*
X24477770Y-15571820D01*
X24569550Y-14191150D02*
X24579550Y-14201150D01*
X24579550Y-14191150D02*
X24569550Y-14201150D01*
X24589600Y-15354670D02*
X24599600Y-15364670D01*
X24599600Y-15354670D02*
X24589600Y-15364670D01*
X24595810Y-14985710D02*
X24605810Y-14995710D01*
X24605810Y-14985710D02*
X24595810Y-14995710D01*
X24607090Y-14939540D02*
X24617090Y-14949540D01*
X24617090Y-14939540D02*
X24607090Y-14949540D01*
X24622620Y-14018050D02*
X24632620Y-14028050D01*
X24632620Y-14018050D02*
X24622620Y-14028050D01*
X24624390Y-15119210D02*
X24634390Y-15129210D01*
X24634390Y-15119210D02*
X24624390Y-15129210D01*
X24706050Y-15560830D02*
X24716050Y-15570830D01*
X24716050Y-15560830D02*
X24706050Y-15570830D01*
X24715000Y-15476710D02*
X24725000Y-15486710D01*
X24725000Y-15476710D02*
X24715000Y-15486710D01*
X24724250Y-14710430D02*
X24734250Y-14720430D01*
X24734250Y-14710430D02*
X24724250Y-14720430D01*
X24753070Y-14814920D02*
X24763070Y-14824920D01*
X24763070Y-14814920D02*
X24753070Y-14824920D01*
X24778530Y-14118960D02*
X24788530Y-14128960D01*
X24788530Y-14118960D02*
X24778530Y-14128960D01*
X24894420Y-15012340D02*
X24904420Y-15022340D01*
X24904420Y-15012340D02*
X24894420Y-15022340D01*
X24929900Y-15540660D02*
X24939900Y-15550660D01*
X24939900Y-15540660D02*
X24929900Y-15550660D01*
X24949470Y-14143130D02*
X24959470Y-14153130D01*
X24959470Y-14143130D02*
X24949470Y-14153130D01*
X24965080Y-15529800D02*
X24975080Y-15539800D01*
X24975080Y-15529800D02*
X24965080Y-15539800D01*
X25002580Y-14090170D02*
X25012580Y-14100170D01*
X25012580Y-14090170D02*
X25002580Y-14100170D01*
X25007510Y-14017270D02*
X25017510Y-14027270D01*
X25017510Y-14017270D02*
X25007510Y-14027270D01*
X25015460Y-14519980D02*
X25025460Y-14529980D01*
X25025460Y-14519980D02*
X25015460Y-14529980D01*
X25078890Y-15597150D02*
X25088890Y-15607150D01*
X25088890Y-15597150D02*
X25078890Y-15607150D01*
X25093460Y-14732610D02*
X25103460Y-14742610D01*
X25103460Y-14732610D02*
X25093460Y-14742610D01*
X25190260Y-15439960D02*
X25200260Y-15449960D01*
X25200260Y-15439960D02*
X25190260Y-15449960D01*
X25195000Y-15725000D02*
X25205000Y-15735000D01*
X25205000Y-15725000D02*
X25195000Y-15735000D01*
X25207830Y-14732770D02*
X25217830Y-14742770D01*
X25217830Y-14732770D02*
X25207830Y-14742770D01*
X25250030Y-15717370D02*
X25260030Y-15727370D01*
X25260030Y-15717370D02*
X25250030Y-15727370D01*
X25273310Y-15419790D02*
X25283310Y-15429790D01*
X25283310Y-15419790D02*
X25273310Y-15429790D01*
X25320290Y-15329530D02*
X25330290Y-15339530D01*
X25330290Y-15329530D02*
X25320290Y-15339530D01*
X25326280Y-14237680D02*
X25336280Y-14247680D01*
X25336280Y-14237680D02*
X25326280Y-14247680D01*
X25351150Y-14212800D02*
X25361150Y-14222800D01*
X25361150Y-14212800D02*
X25351150Y-14222800D01*
X25376690Y-14188590D02*
X25386690Y-14198590D01*
X25386690Y-14188590D02*
X25376690Y-14198590D01*
X25431150Y-14172150D02*
X25441150Y-14182150D01*
X25441150Y-14172150D02*
X25431150Y-14182150D01*
X25466340Y-14173210D02*
X25476340Y-14183210D01*
X25476340Y-14173210D02*
X25466340Y-14183210D01*
X25487310Y-15675140D02*
X25497310Y-15685140D01*
X25497310Y-15675140D02*
X25487310Y-15685140D01*
X25505000Y-14173140D02*
X25515000Y-14183140D01*
X25515000Y-14173140D02*
X25505000Y-14183140D01*
X25529850Y-14097590D02*
X25539850Y-14107590D01*
X25539850Y-14097590D02*
X25529850Y-14107590D01*
X25546180Y-15481900D02*
X25556180Y-15491900D01*
X25556180Y-15481900D02*
X25546180Y-15491900D01*
X25580420Y-15391740D02*
X25590420Y-15401740D01*
X25590420Y-15391740D02*
X25580420Y-15401740D01*
X25595000Y-15725000D02*
X25605000Y-15735000D01*
X25605000Y-15725000D02*
X25595000Y-15735000D01*
X25599320Y-15360330D02*
X25609320Y-15370330D01*
X25609320Y-15360330D02*
X25599320Y-15370330D01*
X25610370Y-14127000D02*
X25620370Y-14137000D01*
X25620370Y-14127000D02*
X25610370Y-14137000D01*
X25638130Y-15329720D02*
X25648130Y-15339720D01*
X25648130Y-15329720D02*
X25638130Y-15339720D01*
X25655000Y-14136390D02*
X25665000Y-14146390D01*
X25665000Y-14136390D02*
X25655000Y-14146390D01*
X25705000Y-14099400D02*
X25715000Y-14109400D01*
X25715000Y-14099400D02*
X25705000Y-14109400D01*
X25755000Y-14097690D02*
X25765000Y-14107690D01*
X25765000Y-14097690D02*
X25755000Y-14107690D01*
X25772980Y-14199340D02*
X25782980Y-14209340D01*
X25782980Y-14199340D02*
X25772980Y-14209340D01*
X25791430Y-14098700D02*
X25801430Y-14108700D01*
X25801430Y-14098700D02*
X25791430Y-14108700D01*
X25837290Y-14116190D02*
X25847290Y-14126190D01*
X25847290Y-14116190D02*
X25837290Y-14126190D01*
X25857910Y-15724980D02*
X25867910Y-15734980D01*
X25867910Y-15724980D02*
X25857910Y-15734980D01*
X25965520Y-14136210D02*
X25975520Y-14146210D01*
X25975520Y-14136210D02*
X25965520Y-14146210D01*
X25970610Y-15400020D02*
X25980610Y-15410020D01*
X25980610Y-15400020D02*
X25970610Y-15410020D01*
X25972450Y-14099000D02*
X25982450Y-14109000D01*
X25982450Y-14099000D02*
X25972450Y-14109000D01*
X25975060Y-14856180D02*
X25985060Y-14866180D01*
X25985060Y-14856180D02*
X25975060Y-14866180D01*
X25995850Y-15137500D02*
X26005850Y-15147500D01*
X26005850Y-15137500D02*
X25995850Y-15147500D01*
X26009000Y-14156380D02*
X26019000Y-14166380D01*
X26019000Y-14156380D02*
X26009000Y-14166380D01*
X26012190Y-14955510D02*
X26022190Y-14965510D01*
X26022190Y-14955510D02*
X26012190Y-14965510D01*
X26012190Y-14996610D02*
X26022190Y-15006610D01*
X26022190Y-14996610D02*
X26012190Y-15006610D01*
X26012190Y-15072500D02*
X26022190Y-15082500D01*
X26022190Y-15072500D02*
X26012190Y-15082500D01*
X26026700Y-15217180D02*
X26036700Y-15227180D01*
X26036700Y-15217180D02*
X26026700Y-15227180D01*
X26026940Y-15407260D02*
X26036940Y-15417260D01*
X26036940Y-15407260D02*
X26026940Y-15417260D01*
X26027210Y-15267500D02*
X26037210Y-15277500D01*
X26037210Y-15267500D02*
X26027210Y-15277500D01*
X26030840Y-14099990D02*
X26040840Y-14109990D01*
X26040840Y-14099990D02*
X26030840Y-14109990D01*
X26033000Y-14847720D02*
X26043000Y-14857720D01*
X26043000Y-14847720D02*
X26033000Y-14857720D01*
X26105000Y-14100350D02*
X26115000Y-14110350D01*
X26115000Y-14100350D02*
X26105000Y-14110350D01*
X26455700Y-14877500D02*
X26465700Y-14887500D01*
X26465700Y-14877500D02*
X26455700Y-14887500D01*
X26569730Y-15462500D02*
X26579730Y-15472500D01*
X26579730Y-15462500D02*
X26569730Y-15472500D01*
X26636370Y-14955690D02*
X26646370Y-14965690D01*
X26646370Y-14955690D02*
X26636370Y-14965690D01*
X26640500Y-13986490D02*
X26650500Y-13996490D01*
X26650500Y-13986490D02*
X26640500Y-13996490D01*
X26644120Y-15230290D02*
X26654120Y-15240290D01*
X26654120Y-15230290D02*
X26644120Y-15240290D01*
X26673500Y-15302310D02*
X26683500Y-15312310D01*
X26683500Y-15302310D02*
X26673500Y-15312310D01*
X26680710Y-15001550D02*
X26690710Y-15011550D01*
X26690710Y-15001550D02*
X26680710Y-15011550D01*
X26682030Y-15089200D02*
X26692030Y-15099200D01*
X26692030Y-15089200D02*
X26682030Y-15099200D01*
X26695000Y-14535000D02*
X26705000Y-14545000D01*
X26705000Y-14535000D02*
X26695000Y-14545000D01*
X26697000Y-15137500D02*
X26707000Y-15147500D01*
X26707000Y-15137500D02*
X26697000Y-15147500D01*
X26714640Y-15303500D02*
X26724640Y-15313500D01*
X26724640Y-15303500D02*
X26714640Y-15313500D01*
X26726180Y-15268320D02*
X26736180Y-15278320D01*
X26736180Y-15268320D02*
X26726180Y-15278320D01*
X26727290Y-15388650D02*
X26737290Y-15398650D01*
X26737290Y-15388650D02*
X26727290Y-15398650D01*
X26729570Y-15500800D02*
X26739570Y-15510800D01*
X26739570Y-15500800D02*
X26729570Y-15510800D01*
X26895030Y-14762470D02*
X26905030Y-14772470D01*
X26905030Y-14762470D02*
X26895030Y-14772470D01*
X27295000Y-14535000D02*
X27305000Y-14545000D01*
X27305000Y-14535000D02*
X27295000Y-14545000D01*
X27295000Y-15055000D02*
X27305000Y-15065000D01*
X27305000Y-15055000D02*
X27295000Y-15065000D01*
X27296310Y-15384560D02*
X27306310Y-15394560D01*
X27306310Y-15384560D02*
X27296310Y-15394560D01*
X27352940Y-15288530D02*
X27362940Y-15298530D01*
X27362940Y-15288530D02*
X27352940Y-15298530D01*
X27595000Y-14535000D02*
X27605000Y-14545000D01*
X27605000Y-14535000D02*
X27595000Y-14545000D01*
X27595000Y-15055000D02*
X27605000Y-15065000D01*
X27605000Y-15055000D02*
X27595000Y-15065000D01*
X27895000Y-14535000D02*
X27905000Y-14545000D01*
X27905000Y-14535000D02*
X27895000Y-14545000D01*
X27895000Y-15055000D02*
X27905000Y-15065000D01*
X27905000Y-15055000D02*
X27895000Y-15065000D01*
X28195000Y-14535000D02*
X28205000Y-14545000D01*
X28205000Y-14535000D02*
X28195000Y-14545000D01*
X28195000Y-15055000D02*
X28205000Y-15065000D01*
X28205000Y-15055000D02*
X28195000Y-15065000D01*
X28495000Y-14535000D02*
X28505000Y-14545000D01*
X28505000Y-14535000D02*
X28495000Y-14545000D01*
X28495000Y-15055000D02*
X28505000Y-15065000D01*
X28505000Y-15055000D02*
X28495000Y-15065000D01*
X28795000Y-14535000D02*
X28805000Y-14545000D01*
X28805000Y-14535000D02*
X28795000Y-14545000D01*
X28795000Y-15055000D02*
X28805000Y-15065000D01*
X28805000Y-15055000D02*
X28795000Y-15065000D01*
X29595000Y-15555000D02*
X29605000Y-15565000D01*
X29605000Y-15555000D02*
X29595000Y-15565000D01*
X29642910Y-15390910D02*
X29652910Y-15400910D01*
X29652910Y-15390910D02*
X29642910Y-15400910D01*
X29693160Y-14238760D02*
X29703160Y-14248760D01*
X29703160Y-14238760D02*
X29693160Y-14248760D01*
X29836000Y-15339590D02*
X29846000Y-15349590D01*
X29846000Y-15339590D02*
X29836000Y-15349590D01*
X29970000Y-14620000D02*
X29980000Y-14630000D01*
X29980000Y-14620000D02*
X29970000Y-14630000D01*
X29970000Y-14970000D02*
X29980000Y-14980000D01*
X29980000Y-14970000D02*
X29970000Y-14980000D01*
X29995000Y-14035000D02*
X30005000Y-14045000D01*
X30005000Y-14035000D02*
X29995000Y-14045000D01*
X29995000Y-15555000D02*
X30005000Y-15565000D01*
X30005000Y-15555000D02*
X29995000Y-15565000D01*
X29995650Y-14207580D02*
X30005650Y-14217580D01*
X30005650Y-14207580D02*
X29995650Y-14217580D01*
X30020000Y-14524620D02*
X30030000Y-14534620D01*
X30030000Y-14524620D02*
X30020000Y-14534620D01*
X30020000Y-15065300D02*
X30030000Y-15075300D01*
X30030000Y-15065300D02*
X30020000Y-15075300D01*
X30035090Y-14481070D02*
X30045090Y-14491070D01*
X30045090Y-14481070D02*
X30035090Y-14491070D01*
X30085300Y-15211610D02*
X30095300Y-15221610D01*
X30095300Y-15211610D02*
X30085300Y-15221610D01*
X30220000Y-14140000D02*
X30230000Y-14150000D01*
X30230000Y-14140000D02*
X30220000Y-14150000D01*
X30220000Y-14534210D02*
X30230000Y-14544210D01*
X30230000Y-14534210D02*
X30220000Y-14544210D01*
X30270000Y-14620000D02*
X30280000Y-14630000D01*
X30280000Y-14620000D02*
X30270000Y-14630000D01*
X30270000Y-14970000D02*
X30280000Y-14980000D01*
X30280000Y-14970000D02*
X30270000Y-14980000D01*
X30297480Y-15049650D02*
X30307480Y-15059650D01*
X30307480Y-15049650D02*
X30297480Y-15059650D01*
X30306300Y-14576850D02*
X30316300Y-14586850D01*
X30316300Y-14576850D02*
X30306300Y-14586850D01*
X30362700Y-14620000D02*
X30372700Y-14630000D01*
X30372700Y-14620000D02*
X30362700Y-14630000D01*
X30363340Y-14813340D02*
X30373340Y-14823340D01*
X30373340Y-14813340D02*
X30363340Y-14823340D01*
X30363340Y-14957890D02*
X30373340Y-14967890D01*
X30373340Y-14957890D02*
X30363340Y-14967890D01*
X30395000Y-14035000D02*
X30405000Y-14045000D01*
X30405000Y-14035000D02*
X30395000Y-14045000D01*
X30395000Y-15555000D02*
X30405000Y-15565000D01*
X30405000Y-15555000D02*
X30395000Y-15565000D01*
X30402830Y-15018890D02*
X30412830Y-15028890D01*
X30412830Y-15018890D02*
X30402830Y-15028890D01*
X30440100Y-14988860D02*
X30450100Y-14998860D01*
X30450100Y-14988860D02*
X30440100Y-14998860D01*
D11*
X11455777Y-16116484D02*
X11455777Y-15916484D01*
X11455777Y-15916484D02*
X11503396Y-15916484D01*
X11503396Y-15916484D02*
X11531967Y-15926008D01*
X11531967Y-15926008D02*
X11551015Y-15945055D01*
X11551015Y-15945055D02*
X11560539Y-15964103D01*
X11560539Y-15964103D02*
X11570062Y-16002198D01*
X11570062Y-16002198D02*
X11570062Y-16030769D01*
X11570062Y-16030769D02*
X11560539Y-16068865D01*
X11560539Y-16068865D02*
X11551015Y-16087912D01*
X11551015Y-16087912D02*
X11531967Y-16106960D01*
X11531967Y-16106960D02*
X11503396Y-16116484D01*
X11503396Y-16116484D02*
X11455777Y-16116484D01*
X11655777Y-16116484D02*
X11655777Y-15983150D01*
X11655777Y-16021246D02*
X11665301Y-16002198D01*
X11665301Y-16002198D02*
X11674824Y-15992674D01*
X11674824Y-15992674D02*
X11693872Y-15983150D01*
X11693872Y-15983150D02*
X11712920Y-15983150D01*
X11779586Y-16116484D02*
X11779586Y-15983150D01*
X11779586Y-15916484D02*
X11770062Y-15926008D01*
X11770062Y-15926008D02*
X11779586Y-15935531D01*
X11779586Y-15935531D02*
X11789110Y-15926008D01*
X11789110Y-15926008D02*
X11779586Y-15916484D01*
X11779586Y-15916484D02*
X11779586Y-15935531D01*
X11903396Y-16116484D02*
X11884348Y-16106960D01*
X11884348Y-16106960D02*
X11874824Y-16087912D01*
X11874824Y-16087912D02*
X11874824Y-15916484D01*
X12008158Y-16116484D02*
X11989110Y-16106960D01*
X11989110Y-16106960D02*
X11979586Y-16087912D01*
X11979586Y-16087912D02*
X11979586Y-15916484D01*
X12236729Y-16116484D02*
X12236729Y-15916484D01*
X12236729Y-15916484D02*
X12303396Y-16059341D01*
X12303396Y-16059341D02*
X12370062Y-15916484D01*
X12370062Y-15916484D02*
X12370062Y-16116484D01*
X12551015Y-16116484D02*
X12551015Y-16011722D01*
X12551015Y-16011722D02*
X12541491Y-15992674D01*
X12541491Y-15992674D02*
X12522443Y-15983150D01*
X12522443Y-15983150D02*
X12484348Y-15983150D01*
X12484348Y-15983150D02*
X12465301Y-15992674D01*
X12551015Y-16106960D02*
X12531967Y-16116484D01*
X12531967Y-16116484D02*
X12484348Y-16116484D01*
X12484348Y-16116484D02*
X12465301Y-16106960D01*
X12465301Y-16106960D02*
X12455777Y-16087912D01*
X12455777Y-16087912D02*
X12455777Y-16068865D01*
X12455777Y-16068865D02*
X12465301Y-16049817D01*
X12465301Y-16049817D02*
X12484348Y-16040293D01*
X12484348Y-16040293D02*
X12531967Y-16040293D01*
X12531967Y-16040293D02*
X12551015Y-16030769D01*
X12646253Y-15983150D02*
X12646253Y-16183150D01*
X12646253Y-15992674D02*
X12665301Y-15983150D01*
X12665301Y-15983150D02*
X12703396Y-15983150D01*
X12703396Y-15983150D02*
X12722443Y-15992674D01*
X12722443Y-15992674D02*
X12731967Y-16002198D01*
X12731967Y-16002198D02*
X12741491Y-16021246D01*
X12741491Y-16021246D02*
X12741491Y-16078388D01*
X12741491Y-16078388D02*
X12731967Y-16097436D01*
X12731967Y-16097436D02*
X12722443Y-16106960D01*
X12722443Y-16106960D02*
X12703396Y-16116484D01*
X12703396Y-16116484D02*
X12665301Y-16116484D01*
X12665301Y-16116484D02*
X12646253Y-16106960D01*
X12827205Y-16097436D02*
X12836729Y-16106960D01*
X12836729Y-16106960D02*
X12827205Y-16116484D01*
X12827205Y-16116484D02*
X12817682Y-16106960D01*
X12817682Y-16106960D02*
X12827205Y-16097436D01*
X12827205Y-16097436D02*
X12827205Y-16116484D01*
X12827205Y-15992674D02*
X12836729Y-16002198D01*
X12836729Y-16002198D02*
X12827205Y-16011722D01*
X12827205Y-16011722D02*
X12817682Y-16002198D01*
X12817682Y-16002198D02*
X12827205Y-15992674D01*
X12827205Y-15992674D02*
X12827205Y-16011722D01*
D10*
X11185000Y-16440000D02*
X11195000Y-16450000D01*
X11195000Y-16440000D02*
X11185000Y-16450000D01*
D11*
X11493872Y-16336484D02*
X11512920Y-16336484D01*
X11512920Y-16336484D02*
X11531967Y-16346008D01*
X11531967Y-16346008D02*
X11541491Y-16355531D01*
X11541491Y-16355531D02*
X11551015Y-16374579D01*
X11551015Y-16374579D02*
X11560539Y-16412674D01*
X11560539Y-16412674D02*
X11560539Y-16460293D01*
X11560539Y-16460293D02*
X11551015Y-16498388D01*
X11551015Y-16498388D02*
X11541491Y-16517436D01*
X11541491Y-16517436D02*
X11531967Y-16526960D01*
X11531967Y-16526960D02*
X11512920Y-16536484D01*
X11512920Y-16536484D02*
X11493872Y-16536484D01*
X11493872Y-16536484D02*
X11474824Y-16526960D01*
X11474824Y-16526960D02*
X11465301Y-16517436D01*
X11465301Y-16517436D02*
X11455777Y-16498388D01*
X11455777Y-16498388D02*
X11446253Y-16460293D01*
X11446253Y-16460293D02*
X11446253Y-16412674D01*
X11446253Y-16412674D02*
X11455777Y-16374579D01*
X11455777Y-16374579D02*
X11465301Y-16355531D01*
X11465301Y-16355531D02*
X11474824Y-16346008D01*
X11474824Y-16346008D02*
X11493872Y-16336484D01*
X11646253Y-16517436D02*
X11655777Y-16526960D01*
X11655777Y-16526960D02*
X11646253Y-16536484D01*
X11646253Y-16536484D02*
X11636729Y-16526960D01*
X11636729Y-16526960D02*
X11646253Y-16517436D01*
X11646253Y-16517436D02*
X11646253Y-16536484D01*
X11846253Y-16536484D02*
X11731967Y-16536484D01*
X11789110Y-16536484D02*
X11789110Y-16336484D01*
X11789110Y-16336484D02*
X11770062Y-16365055D01*
X11770062Y-16365055D02*
X11751015Y-16384103D01*
X11751015Y-16384103D02*
X11731967Y-16393627D01*
X11970062Y-16336484D02*
X11989110Y-16336484D01*
X11989110Y-16336484D02*
X12008158Y-16346008D01*
X12008158Y-16346008D02*
X12017682Y-16355531D01*
X12017682Y-16355531D02*
X12027205Y-16374579D01*
X12027205Y-16374579D02*
X12036729Y-16412674D01*
X12036729Y-16412674D02*
X12036729Y-16460293D01*
X12036729Y-16460293D02*
X12027205Y-16498388D01*
X12027205Y-16498388D02*
X12017682Y-16517436D01*
X12017682Y-16517436D02*
X12008158Y-16526960D01*
X12008158Y-16526960D02*
X11989110Y-16536484D01*
X11989110Y-16536484D02*
X11970062Y-16536484D01*
X11970062Y-16536484D02*
X11951015Y-16526960D01*
X11951015Y-16526960D02*
X11941491Y-16517436D01*
X11941491Y-16517436D02*
X11931967Y-16498388D01*
X11931967Y-16498388D02*
X11922443Y-16460293D01*
X11922443Y-16460293D02*
X11922443Y-16412674D01*
X11922443Y-16412674D02*
X11931967Y-16374579D01*
X11931967Y-16374579D02*
X11941491Y-16355531D01*
X11941491Y-16355531D02*
X11951015Y-16346008D01*
X11951015Y-16346008D02*
X11970062Y-16336484D01*
X12160539Y-16336484D02*
X12179586Y-16336484D01*
X12179586Y-16336484D02*
X12198634Y-16346008D01*
X12198634Y-16346008D02*
X12208158Y-16355531D01*
X12208158Y-16355531D02*
X12217682Y-16374579D01*
X12217682Y-16374579D02*
X12227205Y-16412674D01*
X12227205Y-16412674D02*
X12227205Y-16460293D01*
X12227205Y-16460293D02*
X12217682Y-16498388D01*
X12217682Y-16498388D02*
X12208158Y-16517436D01*
X12208158Y-16517436D02*
X12198634Y-16526960D01*
X12198634Y-16526960D02*
X12179586Y-16536484D01*
X12179586Y-16536484D02*
X12160539Y-16536484D01*
X12160539Y-16536484D02*
X12141491Y-16526960D01*
X12141491Y-16526960D02*
X12131967Y-16517436D01*
X12131967Y-16517436D02*
X12122443Y-16498388D01*
X12122443Y-16498388D02*
X12112920Y-16460293D01*
X12112920Y-16460293D02*
X12112920Y-16412674D01*
X12112920Y-16412674D02*
X12122443Y-16374579D01*
X12122443Y-16374579D02*
X12131967Y-16355531D01*
X12131967Y-16355531D02*
X12141491Y-16346008D01*
X12141491Y-16346008D02*
X12160539Y-16336484D01*
X12312920Y-16536484D02*
X12312920Y-16403150D01*
X12312920Y-16422198D02*
X12322443Y-16412674D01*
X12322443Y-16412674D02*
X12341491Y-16403150D01*
X12341491Y-16403150D02*
X12370063Y-16403150D01*
X12370063Y-16403150D02*
X12389110Y-16412674D01*
X12389110Y-16412674D02*
X12398634Y-16431722D01*
X12398634Y-16431722D02*
X12398634Y-16536484D01*
X12398634Y-16431722D02*
X12408158Y-16412674D01*
X12408158Y-16412674D02*
X12427205Y-16403150D01*
X12427205Y-16403150D02*
X12455777Y-16403150D01*
X12455777Y-16403150D02*
X12474824Y-16412674D01*
X12474824Y-16412674D02*
X12484348Y-16431722D01*
X12484348Y-16431722D02*
X12484348Y-16536484D01*
X12579586Y-16536484D02*
X12579586Y-16403150D01*
X12579586Y-16422198D02*
X12589110Y-16412674D01*
X12589110Y-16412674D02*
X12608158Y-16403150D01*
X12608158Y-16403150D02*
X12636729Y-16403150D01*
X12636729Y-16403150D02*
X12655777Y-16412674D01*
X12655777Y-16412674D02*
X12665301Y-16431722D01*
X12665301Y-16431722D02*
X12665301Y-16536484D01*
X12665301Y-16431722D02*
X12674824Y-16412674D01*
X12674824Y-16412674D02*
X12693872Y-16403150D01*
X12693872Y-16403150D02*
X12722443Y-16403150D01*
X12722443Y-16403150D02*
X12741491Y-16412674D01*
X12741491Y-16412674D02*
X12751015Y-16431722D01*
X12751015Y-16431722D02*
X12751015Y-16536484D01*
X13141491Y-16326960D02*
X12970063Y-16584103D01*
X13398634Y-16336484D02*
X13417682Y-16336484D01*
X13417682Y-16336484D02*
X13436729Y-16346008D01*
X13436729Y-16346008D02*
X13446253Y-16355531D01*
X13446253Y-16355531D02*
X13455777Y-16374579D01*
X13455777Y-16374579D02*
X13465301Y-16412674D01*
X13465301Y-16412674D02*
X13465301Y-16460293D01*
X13465301Y-16460293D02*
X13455777Y-16498388D01*
X13455777Y-16498388D02*
X13446253Y-16517436D01*
X13446253Y-16517436D02*
X13436729Y-16526960D01*
X13436729Y-16526960D02*
X13417682Y-16536484D01*
X13417682Y-16536484D02*
X13398634Y-16536484D01*
X13398634Y-16536484D02*
X13379586Y-16526960D01*
X13379586Y-16526960D02*
X13370063Y-16517436D01*
X13370063Y-16517436D02*
X13360539Y-16498388D01*
X13360539Y-16498388D02*
X13351015Y-16460293D01*
X13351015Y-16460293D02*
X13351015Y-16412674D01*
X13351015Y-16412674D02*
X13360539Y-16374579D01*
X13360539Y-16374579D02*
X13370063Y-16355531D01*
X13370063Y-16355531D02*
X13379586Y-16346008D01*
X13379586Y-16346008D02*
X13398634Y-16336484D01*
X13551015Y-16517436D02*
X13560539Y-16526960D01*
X13560539Y-16526960D02*
X13551015Y-16536484D01*
X13551015Y-16536484D02*
X13541491Y-16526960D01*
X13541491Y-16526960D02*
X13551015Y-16517436D01*
X13551015Y-16517436D02*
X13551015Y-16536484D01*
X13684348Y-16336484D02*
X13703396Y-16336484D01*
X13703396Y-16336484D02*
X13722444Y-16346008D01*
X13722444Y-16346008D02*
X13731967Y-16355531D01*
X13731967Y-16355531D02*
X13741491Y-16374579D01*
X13741491Y-16374579D02*
X13751015Y-16412674D01*
X13751015Y-16412674D02*
X13751015Y-16460293D01*
X13751015Y-16460293D02*
X13741491Y-16498388D01*
X13741491Y-16498388D02*
X13731967Y-16517436D01*
X13731967Y-16517436D02*
X13722444Y-16526960D01*
X13722444Y-16526960D02*
X13703396Y-16536484D01*
X13703396Y-16536484D02*
X13684348Y-16536484D01*
X13684348Y-16536484D02*
X13665301Y-16526960D01*
X13665301Y-16526960D02*
X13655777Y-16517436D01*
X13655777Y-16517436D02*
X13646253Y-16498388D01*
X13646253Y-16498388D02*
X13636729Y-16460293D01*
X13636729Y-16460293D02*
X13636729Y-16412674D01*
X13636729Y-16412674D02*
X13646253Y-16374579D01*
X13646253Y-16374579D02*
X13655777Y-16355531D01*
X13655777Y-16355531D02*
X13665301Y-16346008D01*
X13665301Y-16346008D02*
X13684348Y-16336484D01*
X13874825Y-16336484D02*
X13893872Y-16336484D01*
X13893872Y-16336484D02*
X13912920Y-16346008D01*
X13912920Y-16346008D02*
X13922444Y-16355531D01*
X13922444Y-16355531D02*
X13931967Y-16374579D01*
X13931967Y-16374579D02*
X13941491Y-16412674D01*
X13941491Y-16412674D02*
X13941491Y-16460293D01*
X13941491Y-16460293D02*
X13931967Y-16498388D01*
X13931967Y-16498388D02*
X13922444Y-16517436D01*
X13922444Y-16517436D02*
X13912920Y-16526960D01*
X13912920Y-16526960D02*
X13893872Y-16536484D01*
X13893872Y-16536484D02*
X13874825Y-16536484D01*
X13874825Y-16536484D02*
X13855777Y-16526960D01*
X13855777Y-16526960D02*
X13846253Y-16517436D01*
X13846253Y-16517436D02*
X13836729Y-16498388D01*
X13836729Y-16498388D02*
X13827206Y-16460293D01*
X13827206Y-16460293D02*
X13827206Y-16412674D01*
X13827206Y-16412674D02*
X13836729Y-16374579D01*
X13836729Y-16374579D02*
X13846253Y-16355531D01*
X13846253Y-16355531D02*
X13855777Y-16346008D01*
X13855777Y-16346008D02*
X13874825Y-16336484D01*
X14008158Y-16336484D02*
X14131967Y-16336484D01*
X14131967Y-16336484D02*
X14065301Y-16412674D01*
X14065301Y-16412674D02*
X14093872Y-16412674D01*
X14093872Y-16412674D02*
X14112920Y-16422198D01*
X14112920Y-16422198D02*
X14122444Y-16431722D01*
X14122444Y-16431722D02*
X14131967Y-16450769D01*
X14131967Y-16450769D02*
X14131967Y-16498388D01*
X14131967Y-16498388D02*
X14122444Y-16517436D01*
X14122444Y-16517436D02*
X14112920Y-16526960D01*
X14112920Y-16526960D02*
X14093872Y-16536484D01*
X14093872Y-16536484D02*
X14036729Y-16536484D01*
X14036729Y-16536484D02*
X14017682Y-16526960D01*
X14017682Y-16526960D02*
X14008158Y-16517436D01*
X14227206Y-16536484D02*
X14265301Y-16536484D01*
X14265301Y-16536484D02*
X14284348Y-16526960D01*
X14284348Y-16526960D02*
X14293872Y-16517436D01*
X14293872Y-16517436D02*
X14312920Y-16488865D01*
X14312920Y-16488865D02*
X14322444Y-16450769D01*
X14322444Y-16450769D02*
X14322444Y-16374579D01*
X14322444Y-16374579D02*
X14312920Y-16355531D01*
X14312920Y-16355531D02*
X14303396Y-16346008D01*
X14303396Y-16346008D02*
X14284348Y-16336484D01*
X14284348Y-16336484D02*
X14246253Y-16336484D01*
X14246253Y-16336484D02*
X14227206Y-16346008D01*
X14227206Y-16346008D02*
X14217682Y-16355531D01*
X14217682Y-16355531D02*
X14208158Y-16374579D01*
X14208158Y-16374579D02*
X14208158Y-16422198D01*
X14208158Y-16422198D02*
X14217682Y-16441246D01*
X14217682Y-16441246D02*
X14227206Y-16450769D01*
X14227206Y-16450769D02*
X14246253Y-16460293D01*
X14246253Y-16460293D02*
X14284348Y-16460293D01*
X14284348Y-16460293D02*
X14303396Y-16450769D01*
X14303396Y-16450769D02*
X14312920Y-16441246D01*
X14312920Y-16441246D02*
X14322444Y-16422198D01*
X14398634Y-16336484D02*
X14398634Y-16374579D01*
X14474825Y-16336484D02*
X14474825Y-16374579D01*
X14770063Y-16612674D02*
X14760539Y-16603150D01*
X14760539Y-16603150D02*
X14741491Y-16574579D01*
X14741491Y-16574579D02*
X14731968Y-16555531D01*
X14731968Y-16555531D02*
X14722444Y-16526960D01*
X14722444Y-16526960D02*
X14712920Y-16479341D01*
X14712920Y-16479341D02*
X14712920Y-16441246D01*
X14712920Y-16441246D02*
X14722444Y-16393627D01*
X14722444Y-16393627D02*
X14731968Y-16365055D01*
X14731968Y-16365055D02*
X14741491Y-16346008D01*
X14741491Y-16346008D02*
X14760539Y-16317436D01*
X14760539Y-16317436D02*
X14770063Y-16307912D01*
X14827206Y-16336484D02*
X14951015Y-16336484D01*
X14951015Y-16336484D02*
X14884348Y-16412674D01*
X14884348Y-16412674D02*
X14912920Y-16412674D01*
X14912920Y-16412674D02*
X14931968Y-16422198D01*
X14931968Y-16422198D02*
X14941491Y-16431722D01*
X14941491Y-16431722D02*
X14951015Y-16450769D01*
X14951015Y-16450769D02*
X14951015Y-16498388D01*
X14951015Y-16498388D02*
X14941491Y-16517436D01*
X14941491Y-16517436D02*
X14931968Y-16526960D01*
X14931968Y-16526960D02*
X14912920Y-16536484D01*
X14912920Y-16536484D02*
X14855777Y-16536484D01*
X14855777Y-16536484D02*
X14836729Y-16526960D01*
X14836729Y-16526960D02*
X14827206Y-16517436D01*
X15065301Y-16422198D02*
X15046253Y-16412674D01*
X15046253Y-16412674D02*
X15036729Y-16403150D01*
X15036729Y-16403150D02*
X15027206Y-16384103D01*
X15027206Y-16384103D02*
X15027206Y-16374579D01*
X15027206Y-16374579D02*
X15036729Y-16355531D01*
X15036729Y-16355531D02*
X15046253Y-16346008D01*
X15046253Y-16346008D02*
X15065301Y-16336484D01*
X15065301Y-16336484D02*
X15103396Y-16336484D01*
X15103396Y-16336484D02*
X15122444Y-16346008D01*
X15122444Y-16346008D02*
X15131968Y-16355531D01*
X15131968Y-16355531D02*
X15141491Y-16374579D01*
X15141491Y-16374579D02*
X15141491Y-16384103D01*
X15141491Y-16384103D02*
X15131968Y-16403150D01*
X15131968Y-16403150D02*
X15122444Y-16412674D01*
X15122444Y-16412674D02*
X15103396Y-16422198D01*
X15103396Y-16422198D02*
X15065301Y-16422198D01*
X15065301Y-16422198D02*
X15046253Y-16431722D01*
X15046253Y-16431722D02*
X15036729Y-16441246D01*
X15036729Y-16441246D02*
X15027206Y-16460293D01*
X15027206Y-16460293D02*
X15027206Y-16498388D01*
X15027206Y-16498388D02*
X15036729Y-16517436D01*
X15036729Y-16517436D02*
X15046253Y-16526960D01*
X15046253Y-16526960D02*
X15065301Y-16536484D01*
X15065301Y-16536484D02*
X15103396Y-16536484D01*
X15103396Y-16536484D02*
X15122444Y-16526960D01*
X15122444Y-16526960D02*
X15131968Y-16517436D01*
X15131968Y-16517436D02*
X15141491Y-16498388D01*
X15141491Y-16498388D02*
X15141491Y-16460293D01*
X15141491Y-16460293D02*
X15131968Y-16441246D01*
X15131968Y-16441246D02*
X15122444Y-16431722D01*
X15122444Y-16431722D02*
X15103396Y-16422198D01*
X15312920Y-16336484D02*
X15274825Y-16336484D01*
X15274825Y-16336484D02*
X15255777Y-16346008D01*
X15255777Y-16346008D02*
X15246253Y-16355531D01*
X15246253Y-16355531D02*
X15227206Y-16384103D01*
X15227206Y-16384103D02*
X15217682Y-16422198D01*
X15217682Y-16422198D02*
X15217682Y-16498388D01*
X15217682Y-16498388D02*
X15227206Y-16517436D01*
X15227206Y-16517436D02*
X15236729Y-16526960D01*
X15236729Y-16526960D02*
X15255777Y-16536484D01*
X15255777Y-16536484D02*
X15293872Y-16536484D01*
X15293872Y-16536484D02*
X15312920Y-16526960D01*
X15312920Y-16526960D02*
X15322444Y-16517436D01*
X15322444Y-16517436D02*
X15331968Y-16498388D01*
X15331968Y-16498388D02*
X15331968Y-16450769D01*
X15331968Y-16450769D02*
X15322444Y-16431722D01*
X15322444Y-16431722D02*
X15312920Y-16422198D01*
X15312920Y-16422198D02*
X15293872Y-16412674D01*
X15293872Y-16412674D02*
X15255777Y-16412674D01*
X15255777Y-16412674D02*
X15236729Y-16422198D01*
X15236729Y-16422198D02*
X15227206Y-16431722D01*
X15227206Y-16431722D02*
X15217682Y-16450769D01*
X15570063Y-16536484D02*
X15570063Y-16336484D01*
X15655777Y-16536484D02*
X15655777Y-16431722D01*
X15655777Y-16431722D02*
X15646253Y-16412674D01*
X15646253Y-16412674D02*
X15627206Y-16403150D01*
X15627206Y-16403150D02*
X15598634Y-16403150D01*
X15598634Y-16403150D02*
X15579587Y-16412674D01*
X15579587Y-16412674D02*
X15570063Y-16422198D01*
X15779587Y-16536484D02*
X15760539Y-16526960D01*
X15760539Y-16526960D02*
X15751015Y-16517436D01*
X15751015Y-16517436D02*
X15741491Y-16498388D01*
X15741491Y-16498388D02*
X15741491Y-16441246D01*
X15741491Y-16441246D02*
X15751015Y-16422198D01*
X15751015Y-16422198D02*
X15760539Y-16412674D01*
X15760539Y-16412674D02*
X15779587Y-16403150D01*
X15779587Y-16403150D02*
X15808158Y-16403150D01*
X15808158Y-16403150D02*
X15827206Y-16412674D01*
X15827206Y-16412674D02*
X15836730Y-16422198D01*
X15836730Y-16422198D02*
X15846253Y-16441246D01*
X15846253Y-16441246D02*
X15846253Y-16498388D01*
X15846253Y-16498388D02*
X15836730Y-16517436D01*
X15836730Y-16517436D02*
X15827206Y-16526960D01*
X15827206Y-16526960D02*
X15808158Y-16536484D01*
X15808158Y-16536484D02*
X15779587Y-16536484D01*
X15960539Y-16536484D02*
X15941491Y-16526960D01*
X15941491Y-16526960D02*
X15931968Y-16507912D01*
X15931968Y-16507912D02*
X15931968Y-16336484D01*
X16112920Y-16526960D02*
X16093872Y-16536484D01*
X16093872Y-16536484D02*
X16055777Y-16536484D01*
X16055777Y-16536484D02*
X16036730Y-16526960D01*
X16036730Y-16526960D02*
X16027206Y-16507912D01*
X16027206Y-16507912D02*
X16027206Y-16431722D01*
X16027206Y-16431722D02*
X16036730Y-16412674D01*
X16036730Y-16412674D02*
X16055777Y-16403150D01*
X16055777Y-16403150D02*
X16093872Y-16403150D01*
X16093872Y-16403150D02*
X16112920Y-16412674D01*
X16112920Y-16412674D02*
X16122444Y-16431722D01*
X16122444Y-16431722D02*
X16122444Y-16450769D01*
X16122444Y-16450769D02*
X16027206Y-16469817D01*
X16198634Y-16526960D02*
X16217682Y-16536484D01*
X16217682Y-16536484D02*
X16255777Y-16536484D01*
X16255777Y-16536484D02*
X16274825Y-16526960D01*
X16274825Y-16526960D02*
X16284349Y-16507912D01*
X16284349Y-16507912D02*
X16284349Y-16498388D01*
X16284349Y-16498388D02*
X16274825Y-16479341D01*
X16274825Y-16479341D02*
X16255777Y-16469817D01*
X16255777Y-16469817D02*
X16227206Y-16469817D01*
X16227206Y-16469817D02*
X16208158Y-16460293D01*
X16208158Y-16460293D02*
X16198634Y-16441246D01*
X16198634Y-16441246D02*
X16198634Y-16431722D01*
X16198634Y-16431722D02*
X16208158Y-16412674D01*
X16208158Y-16412674D02*
X16227206Y-16403150D01*
X16227206Y-16403150D02*
X16255777Y-16403150D01*
X16255777Y-16403150D02*
X16274825Y-16412674D01*
X16351015Y-16612674D02*
X16360539Y-16603150D01*
X16360539Y-16603150D02*
X16379587Y-16574579D01*
X16379587Y-16574579D02*
X16389111Y-16555531D01*
X16389111Y-16555531D02*
X16398634Y-16526960D01*
X16398634Y-16526960D02*
X16408158Y-16479341D01*
X16408158Y-16479341D02*
X16408158Y-16441246D01*
X16408158Y-16441246D02*
X16398634Y-16393627D01*
X16398634Y-16393627D02*
X16389111Y-16365055D01*
X16389111Y-16365055D02*
X16379587Y-16346008D01*
X16379587Y-16346008D02*
X16360539Y-16317436D01*
X16360539Y-16317436D02*
X16351015Y-16307912D01*
M02*
