%TF.GenerationSoftware,KiCad,Pcbnew,10.0.4*%
%TF.CreationDate,2026-08-31T10:03:01+02:00*%
%TF.ProjectId,smartbag_core,736d6172-7462-4616-975f-636f72652e6b,rev?*%
%TF.SameCoordinates,Original*%
%TF.FileFunction,Drillmap*%
%TF.FilePolarity,Positive*%
%FSLAX45Y45*%
G04 Gerber Fmt 4.5, Leading zero omitted, Abs format (unit mm)*
G04 Created by KiCad (PCBNEW 10.0.4) date 2026-08-31 10:03:01*
%MOMM*%
%LPD*%
G01*
G04 APERTURE LIST*
%ADD10C,0.100000*%
%ADD11C,0.200000*%
G04 APERTURE END LIST*
D10*
X11200000Y-13800000D02*
X13200000Y-13800000D01*
X11200000Y-15800000D02*
X11200000Y-13800000D01*
X13200000Y-13800000D02*
X13200000Y-14100000D01*
X13200000Y-14100000D02*
X16200000Y-14100000D01*
X13200000Y-15500000D02*
X13200000Y-15800000D01*
X13200000Y-15800000D02*
X11200000Y-15800000D01*
X16200000Y-13800000D02*
X25800000Y-13800000D01*
X16200000Y-14100000D02*
X16200000Y-13800000D01*
X16200000Y-15500000D02*
X13200000Y-15500000D01*
X16200000Y-15800000D02*
X16200000Y-15500000D01*
X25800000Y-13800000D02*
X25800000Y-14100000D01*
X25800000Y-14100000D02*
X28800000Y-14100000D01*
X25800000Y-15500000D02*
X25800000Y-15800000D01*
X25800000Y-15800000D02*
X16200000Y-15800000D01*
X28800000Y-13800000D02*
X30800000Y-13800000D01*
X28800000Y-14100000D02*
X28800000Y-13800000D01*
X28800000Y-15500000D02*
X25800000Y-15500000D01*
X28800000Y-15800000D02*
X28800000Y-15500000D01*
X30800000Y-13800000D02*
X30800000Y-15800000D01*
X30800000Y-15800000D02*
X28800000Y-15800000D01*
D11*
D10*
X11595000Y-14035000D02*
X11605000Y-14045000D01*
X11605000Y-14035000D02*
X11595000Y-14045000D01*
X11595000Y-15555000D02*
X11605000Y-15565000D01*
X11605000Y-15555000D02*
X11595000Y-15565000D01*
X11787700Y-14200800D02*
X11797700Y-14210800D01*
X11797700Y-14200800D02*
X11787700Y-14210800D01*
X11817800Y-15020000D02*
X11827800Y-15030000D01*
X11827800Y-15020000D02*
X11817800Y-15030000D01*
X11929000Y-14981500D02*
X11939000Y-14991500D01*
X11939000Y-14981500D02*
X11929000Y-14991500D01*
X11933900Y-14820000D02*
X11943900Y-14830000D01*
X11943900Y-14820000D02*
X11933900Y-14830000D01*
X11936000Y-14636300D02*
X11946000Y-14646300D01*
X11946000Y-14636300D02*
X11936000Y-14646300D01*
X11981600Y-14551000D02*
X11991600Y-14561000D01*
X11991600Y-14551000D02*
X11981600Y-14561000D01*
X11995000Y-14035000D02*
X12005000Y-14045000D01*
X12005000Y-14035000D02*
X11995000Y-14045000D01*
X11995000Y-15555000D02*
X12005000Y-15565000D01*
X12005000Y-15555000D02*
X11995000Y-15565000D01*
X12011100Y-15215900D02*
X12021100Y-15225900D01*
X12021100Y-15215900D02*
X12011100Y-15225900D01*
X12020000Y-14620000D02*
X12030000Y-14630000D01*
X12030000Y-14620000D02*
X12020000Y-14630000D01*
X12020000Y-14970000D02*
X12030000Y-14980000D01*
X12030000Y-14970000D02*
X12020000Y-14980000D01*
X12088600Y-14252000D02*
X12098600Y-14262000D01*
X12098600Y-14252000D02*
X12088600Y-14262000D01*
X12108700Y-15057100D02*
X12118700Y-15067100D01*
X12118700Y-15057100D02*
X12108700Y-15067100D01*
X12265500Y-15202400D02*
X12275500Y-15212400D01*
X12275500Y-15202400D02*
X12265500Y-15212400D01*
X12270000Y-14526900D02*
X12280000Y-14536900D01*
X12280000Y-14526900D02*
X12270000Y-14536900D01*
X12281000Y-15061300D02*
X12291000Y-15071300D01*
X12291000Y-15061300D02*
X12281000Y-15071300D01*
X12301800Y-15125600D02*
X12311800Y-15135600D01*
X12311800Y-15125600D02*
X12301800Y-15135600D01*
X12320000Y-14620000D02*
X12330000Y-14630000D01*
X12330000Y-14620000D02*
X12320000Y-14630000D01*
X12320000Y-14970000D02*
X12330000Y-14980000D01*
X12330000Y-14970000D02*
X12320000Y-14980000D01*
X12337800Y-14851200D02*
X12347800Y-14861200D01*
X12347800Y-14851200D02*
X12337800Y-14861200D01*
X12339000Y-14717700D02*
X12349000Y-14727700D01*
X12349000Y-14717700D02*
X12339000Y-14727700D01*
X12395000Y-14035000D02*
X12405000Y-14045000D01*
X12405000Y-14035000D02*
X12395000Y-14045000D01*
X12395000Y-15555000D02*
X12405000Y-15565000D01*
X12405000Y-15555000D02*
X12395000Y-15565000D01*
X12499600Y-15247600D02*
X12509600Y-15257600D01*
X12509600Y-15247600D02*
X12499600Y-15257600D01*
X12795000Y-14035000D02*
X12805000Y-14045000D01*
X12805000Y-14035000D02*
X12795000Y-14045000D01*
X12795000Y-15555000D02*
X12805000Y-15565000D01*
X12805000Y-15555000D02*
X12795000Y-15565000D01*
X12846000Y-14201600D02*
X12856000Y-14211600D01*
X12856000Y-14201600D02*
X12846000Y-14211600D01*
X13395000Y-14535000D02*
X13405000Y-14545000D01*
X13405000Y-14535000D02*
X13395000Y-14545000D01*
X13395000Y-15055000D02*
X13405000Y-15065000D01*
X13405000Y-15055000D02*
X13395000Y-15065000D01*
X13695000Y-14535000D02*
X13705000Y-14545000D01*
X13705000Y-14535000D02*
X13695000Y-14545000D01*
X13695000Y-15055000D02*
X13705000Y-15065000D01*
X13705000Y-15055000D02*
X13695000Y-15065000D01*
X13995000Y-14535000D02*
X14005000Y-14545000D01*
X14005000Y-14535000D02*
X13995000Y-14545000D01*
X13995000Y-15055000D02*
X14005000Y-15065000D01*
X14005000Y-15055000D02*
X13995000Y-15065000D01*
X14295000Y-14535000D02*
X14305000Y-14545000D01*
X14305000Y-14535000D02*
X14295000Y-14545000D01*
X14295000Y-15055000D02*
X14305000Y-15065000D01*
X14305000Y-15055000D02*
X14295000Y-15065000D01*
X14595000Y-14535000D02*
X14605000Y-14545000D01*
X14605000Y-14535000D02*
X14595000Y-14545000D01*
X14595000Y-15055000D02*
X14605000Y-15065000D01*
X14605000Y-15055000D02*
X14595000Y-15065000D01*
X14895000Y-14535000D02*
X14905000Y-14545000D01*
X14905000Y-14535000D02*
X14895000Y-14545000D01*
X14895000Y-15055000D02*
X14905000Y-15065000D01*
X14905000Y-15055000D02*
X14895000Y-15065000D01*
X15195000Y-14535000D02*
X15205000Y-14545000D01*
X15205000Y-14535000D02*
X15195000Y-14545000D01*
X15195000Y-15055000D02*
X15205000Y-15065000D01*
X15205000Y-15055000D02*
X15195000Y-15065000D01*
X15495000Y-14535000D02*
X15505000Y-14545000D01*
X15505000Y-14535000D02*
X15495000Y-14545000D01*
X15495000Y-15055000D02*
X15505000Y-15065000D01*
X15505000Y-15055000D02*
X15495000Y-15065000D01*
X15795000Y-14535000D02*
X15805000Y-14545000D01*
X15805000Y-14535000D02*
X15795000Y-14545000D01*
X15795000Y-15055000D02*
X15805000Y-15065000D01*
X15805000Y-15055000D02*
X15795000Y-15065000D01*
X16095000Y-14535000D02*
X16105000Y-14545000D01*
X16105000Y-14535000D02*
X16095000Y-14545000D01*
X16095000Y-15055000D02*
X16105000Y-15065000D01*
X16105000Y-15055000D02*
X16095000Y-15065000D01*
X16229200Y-15192300D02*
X16239200Y-15202300D01*
X16239200Y-15192300D02*
X16229200Y-15202300D01*
X16395000Y-13865000D02*
X16405000Y-13875000D01*
X16405000Y-13865000D02*
X16395000Y-13875000D01*
X16395000Y-15725000D02*
X16405000Y-15735000D01*
X16405000Y-15725000D02*
X16395000Y-15735000D01*
X16610300Y-14562600D02*
X16620300Y-14572600D01*
X16620300Y-14562600D02*
X16610300Y-14572600D01*
X16794900Y-15195000D02*
X16804900Y-15205000D01*
X16804900Y-15195000D02*
X16794900Y-15205000D01*
X16795000Y-13865000D02*
X16805000Y-13875000D01*
X16805000Y-13865000D02*
X16795000Y-13875000D01*
X16795000Y-15725000D02*
X16805000Y-15735000D01*
X16805000Y-15725000D02*
X16795000Y-15735000D01*
X16970300Y-14562600D02*
X16980300Y-14572600D01*
X16980300Y-14562600D02*
X16970300Y-14572600D01*
X17058900Y-14732900D02*
X17068900Y-14742900D01*
X17068900Y-14732900D02*
X17058900Y-14742900D01*
X17195000Y-13865000D02*
X17205000Y-13875000D01*
X17205000Y-13865000D02*
X17195000Y-13875000D01*
X17380400Y-14095000D02*
X17390400Y-14105000D01*
X17390400Y-14095000D02*
X17380400Y-14105000D01*
X17458400Y-14931700D02*
X17468400Y-14941700D01*
X17468400Y-14931700D02*
X17458400Y-14941700D01*
X17540600Y-14196200D02*
X17550600Y-14206200D01*
X17550600Y-14196200D02*
X17540600Y-14206200D01*
X17555200Y-14932200D02*
X17565200Y-14942200D01*
X17565200Y-14932200D02*
X17555200Y-14942200D01*
X17595000Y-13865000D02*
X17605000Y-13875000D01*
X17605000Y-13865000D02*
X17595000Y-13875000D01*
X17598200Y-15114700D02*
X17608200Y-15124700D01*
X17608200Y-15114700D02*
X17598200Y-15124700D01*
X17626200Y-13994200D02*
X17636200Y-14004200D01*
X17636200Y-13994200D02*
X17626200Y-14004200D01*
X17644000Y-15107900D02*
X17654000Y-15117900D01*
X17654000Y-15107900D02*
X17644000Y-15117900D01*
X17710400Y-15124200D02*
X17720400Y-15134200D01*
X17720400Y-15124200D02*
X17710400Y-15134200D01*
X17875700Y-15117600D02*
X17885700Y-15127600D01*
X17885700Y-15117600D02*
X17875700Y-15127600D01*
X17995000Y-13865000D02*
X18005000Y-13875000D01*
X18005000Y-13865000D02*
X17995000Y-13875000D01*
X18090651Y-14884912D02*
X18100651Y-14894912D01*
X18100651Y-14884912D02*
X18090651Y-14894912D01*
X18155700Y-14819000D02*
X18165700Y-14829000D01*
X18165700Y-14819000D02*
X18155700Y-14829000D01*
X18155900Y-15264500D02*
X18165900Y-15274500D01*
X18165900Y-15264500D02*
X18155900Y-15274500D01*
X18213900Y-15206700D02*
X18223900Y-15216700D01*
X18223900Y-15206700D02*
X18213900Y-15216700D01*
X18215400Y-15067200D02*
X18225400Y-15077200D01*
X18225400Y-15067200D02*
X18215400Y-15077200D01*
X18277100Y-15242200D02*
X18287100Y-15252200D01*
X18287100Y-15242200D02*
X18277100Y-15252200D01*
X18301500Y-15023100D02*
X18311500Y-15033100D01*
X18311500Y-15023100D02*
X18301500Y-15033100D01*
X18395000Y-13865000D02*
X18405000Y-13875000D01*
X18405000Y-13865000D02*
X18395000Y-13875000D01*
X18395000Y-15725000D02*
X18405000Y-15735000D01*
X18405000Y-15725000D02*
X18395000Y-15735000D01*
X18452300Y-15035900D02*
X18462300Y-15045900D01*
X18462300Y-15035900D02*
X18452300Y-15045900D01*
X18492500Y-15318600D02*
X18502500Y-15328600D01*
X18502500Y-15318600D02*
X18492500Y-15328600D01*
X18493600Y-14229200D02*
X18503600Y-14239200D01*
X18503600Y-14229200D02*
X18493600Y-14239200D01*
X18518500Y-14915000D02*
X18528500Y-14925000D01*
X18528500Y-14915000D02*
X18518500Y-14925000D01*
X18521100Y-15107400D02*
X18531100Y-15117400D01*
X18531100Y-15107400D02*
X18521100Y-15117400D01*
X18551500Y-15163600D02*
X18561500Y-15173600D01*
X18561500Y-15163600D02*
X18551500Y-15173600D01*
X18558500Y-15090000D02*
X18568500Y-15100000D01*
X18568500Y-15090000D02*
X18558500Y-15100000D01*
X18592600Y-15072900D02*
X18602600Y-15082900D01*
X18602600Y-15072900D02*
X18592600Y-15082900D01*
X18648900Y-15319000D02*
X18658900Y-15329000D01*
X18658900Y-15319000D02*
X18648900Y-15329000D01*
X18651700Y-15477800D02*
X18661700Y-15487800D01*
X18661700Y-15477800D02*
X18651700Y-15487800D01*
X18707000Y-14678400D02*
X18717000Y-14688400D01*
X18717000Y-14678400D02*
X18707000Y-14688400D01*
X18795000Y-13865000D02*
X18805000Y-13875000D01*
X18805000Y-13865000D02*
X18795000Y-13875000D01*
X18795000Y-15725000D02*
X18805000Y-15735000D01*
X18805000Y-15725000D02*
X18795000Y-15735000D01*
X18839000Y-14537000D02*
X18849000Y-14547000D01*
X18849000Y-14537000D02*
X18839000Y-14547000D01*
X18912700Y-14850700D02*
X18922700Y-14860700D01*
X18922700Y-14850700D02*
X18912700Y-14860700D01*
X18933400Y-15354700D02*
X18943400Y-15364700D01*
X18943400Y-15354700D02*
X18933400Y-15364700D01*
X18948200Y-14680800D02*
X18958200Y-14690800D01*
X18958200Y-14680800D02*
X18948200Y-14690800D01*
X18962000Y-14835800D02*
X18972000Y-14845800D01*
X18972000Y-14835800D02*
X18962000Y-14845800D01*
X18976400Y-14626300D02*
X18986400Y-14636300D01*
X18986400Y-14626300D02*
X18976400Y-14636300D01*
X18982300Y-14995200D02*
X18992300Y-15005200D01*
X18992300Y-14995200D02*
X18982300Y-15005200D01*
X18983400Y-14376300D02*
X18993400Y-14386300D01*
X18993400Y-14376300D02*
X18983400Y-14386300D01*
X18985600Y-14805200D02*
X18995600Y-14815200D01*
X18995600Y-14805200D02*
X18985600Y-14815200D01*
X18991200Y-14894400D02*
X19001200Y-14904400D01*
X19001200Y-14894400D02*
X18991200Y-14904400D01*
X19007600Y-14777600D02*
X19017600Y-14787600D01*
X19017600Y-14777600D02*
X19007600Y-14787600D01*
X19030800Y-14832700D02*
X19040800Y-14842700D01*
X19040800Y-14832700D02*
X19030800Y-14842700D01*
X19037300Y-14574400D02*
X19047300Y-14584400D01*
X19047300Y-14574400D02*
X19037300Y-14584400D01*
X19037300Y-14610600D02*
X19047300Y-14620600D01*
X19047300Y-14610600D02*
X19037300Y-14620600D01*
X19096200Y-15070600D02*
X19106200Y-15080600D01*
X19106200Y-15070600D02*
X19096200Y-15080600D01*
X19123500Y-14398100D02*
X19133500Y-14408100D01*
X19133500Y-14398100D02*
X19123500Y-14408100D01*
X19134800Y-14500000D02*
X19144800Y-14510000D01*
X19144800Y-14500000D02*
X19134800Y-14510000D01*
X19160800Y-15337600D02*
X19170800Y-15347600D01*
X19170800Y-15337600D02*
X19160800Y-15347600D01*
X19171100Y-15211600D02*
X19181100Y-15221600D01*
X19181100Y-15211600D02*
X19171100Y-15221600D01*
X19195000Y-13865000D02*
X19205000Y-13875000D01*
X19205000Y-13865000D02*
X19195000Y-13875000D01*
X19195000Y-15725000D02*
X19205000Y-15735000D01*
X19205000Y-15725000D02*
X19195000Y-15735000D01*
X19226000Y-15239800D02*
X19236000Y-15249800D01*
X19236000Y-15239800D02*
X19226000Y-15249800D01*
X19248100Y-14436700D02*
X19258100Y-14446700D01*
X19258100Y-14436700D02*
X19248100Y-14446700D01*
X19289600Y-15253600D02*
X19299600Y-15263600D01*
X19299600Y-15253600D02*
X19289600Y-15263600D01*
X19298700Y-15168100D02*
X19308700Y-15178100D01*
X19308700Y-15168100D02*
X19298700Y-15178100D01*
X19301000Y-15477800D02*
X19311000Y-15487800D01*
X19311000Y-15477800D02*
X19301000Y-15487800D01*
X19320800Y-15331400D02*
X19330800Y-15341400D01*
X19330800Y-15331400D02*
X19320800Y-15341400D01*
X19329473Y-14566869D02*
X19339473Y-14576869D01*
X19339473Y-14566869D02*
X19329473Y-14576869D01*
X19359600Y-14376600D02*
X19369600Y-14386600D01*
X19369600Y-14376600D02*
X19359600Y-14386600D01*
X19375000Y-14436100D02*
X19385000Y-14446100D01*
X19385000Y-14436100D02*
X19375000Y-14446100D01*
X19396600Y-15151000D02*
X19406600Y-15161000D01*
X19406600Y-15151000D02*
X19396600Y-15161000D01*
X19426000Y-15477000D02*
X19436000Y-15487000D01*
X19436000Y-15477000D02*
X19426000Y-15487000D01*
X19455000Y-15172500D02*
X19465000Y-15182500D01*
X19465000Y-15172500D02*
X19455000Y-15182500D01*
X19492700Y-14385200D02*
X19502700Y-14395200D01*
X19502700Y-14385200D02*
X19492700Y-14395200D01*
X19495000Y-14436000D02*
X19505000Y-14446000D01*
X19505000Y-14436000D02*
X19495000Y-14446000D01*
X19574800Y-14407500D02*
X19584800Y-14417500D01*
X19584800Y-14407500D02*
X19574800Y-14417500D01*
X19595000Y-13865000D02*
X19605000Y-13875000D01*
X19605000Y-13865000D02*
X19595000Y-13875000D01*
X19595000Y-15725000D02*
X19605000Y-15735000D01*
X19605000Y-15725000D02*
X19595000Y-15735000D01*
X19628000Y-15354200D02*
X19638000Y-15364200D01*
X19638000Y-15354200D02*
X19628000Y-15364200D01*
X19648600Y-15106700D02*
X19658600Y-15116700D01*
X19658600Y-15106700D02*
X19648600Y-15116700D01*
X19687500Y-15101100D02*
X19697500Y-15111100D01*
X19697500Y-15101100D02*
X19687500Y-15111100D01*
X19698700Y-14235100D02*
X19708700Y-14245100D01*
X19708700Y-14235100D02*
X19698700Y-14245100D01*
X19699200Y-14278600D02*
X19709200Y-14288600D01*
X19709200Y-14278600D02*
X19699200Y-14288600D01*
X19727000Y-14342100D02*
X19737000Y-14352100D01*
X19737000Y-14342100D02*
X19727000Y-14352100D01*
X19752800Y-14964100D02*
X19762800Y-14974100D01*
X19762800Y-14964100D02*
X19752800Y-14974100D01*
X19754300Y-14615000D02*
X19764300Y-14625000D01*
X19764300Y-14615000D02*
X19754300Y-14625000D01*
X19754300Y-14655000D02*
X19764300Y-14665000D01*
X19764300Y-14655000D02*
X19754300Y-14665000D01*
X19759000Y-14908800D02*
X19769000Y-14918800D01*
X19769000Y-14908800D02*
X19759000Y-14918800D01*
X19763600Y-14781700D02*
X19773600Y-14791700D01*
X19773600Y-14781700D02*
X19763600Y-14791700D01*
X19783300Y-14691200D02*
X19793300Y-14701200D01*
X19793300Y-14691200D02*
X19783300Y-14701200D01*
X19786200Y-14726400D02*
X19796200Y-14736400D01*
X19796200Y-14726400D02*
X19786200Y-14736400D01*
X19788500Y-14835700D02*
X19798500Y-14845700D01*
X19798500Y-14835700D02*
X19788500Y-14845700D01*
X19804600Y-14902400D02*
X19814600Y-14912400D01*
X19814600Y-14902400D02*
X19804600Y-14912400D01*
X19872200Y-14134400D02*
X19882200Y-14144400D01*
X19882200Y-14134400D02*
X19872200Y-14144400D01*
X19872200Y-14736500D02*
X19882200Y-14746500D01*
X19882200Y-14736500D02*
X19872200Y-14746500D01*
X19872200Y-15328100D02*
X19882200Y-15338100D01*
X19882200Y-15328100D02*
X19872200Y-15338100D01*
X19903000Y-14920200D02*
X19913000Y-14930200D01*
X19913000Y-14920200D02*
X19903000Y-14930200D01*
X19919890Y-14183050D02*
X19929890Y-14193050D01*
X19929890Y-14183050D02*
X19919890Y-14193050D01*
X19995000Y-13865000D02*
X20005000Y-13875000D01*
X20005000Y-13865000D02*
X19995000Y-13875000D01*
X19995000Y-15725000D02*
X20005000Y-15735000D01*
X20005000Y-15725000D02*
X19995000Y-15735000D01*
X20134200Y-14115100D02*
X20144200Y-14125100D01*
X20144200Y-14115100D02*
X20134200Y-14125100D01*
X20152500Y-14195000D02*
X20162500Y-14205000D01*
X20162500Y-14195000D02*
X20152500Y-14205000D01*
X20277100Y-14262200D02*
X20287100Y-14272200D01*
X20287100Y-14262200D02*
X20277100Y-14272200D01*
X20390500Y-15295000D02*
X20400500Y-15305000D01*
X20400500Y-15295000D02*
X20390500Y-15305000D01*
X20395000Y-13865000D02*
X20405000Y-13875000D01*
X20405000Y-13865000D02*
X20395000Y-13875000D01*
X20395000Y-15725000D02*
X20405000Y-15735000D01*
X20405000Y-15725000D02*
X20395000Y-15735000D01*
X20403400Y-15343700D02*
X20413400Y-15353700D01*
X20413400Y-15343700D02*
X20403400Y-15353700D01*
X20410000Y-14233600D02*
X20420000Y-14243600D01*
X20420000Y-14233600D02*
X20410000Y-14243600D01*
X20460000Y-14150300D02*
X20470000Y-14160300D01*
X20470000Y-14150300D02*
X20460000Y-14160300D01*
X20492800Y-15403500D02*
X20502800Y-15413500D01*
X20502800Y-15403500D02*
X20492800Y-15413500D01*
X20510000Y-14158100D02*
X20520000Y-14168100D01*
X20520000Y-14158100D02*
X20510000Y-14168100D01*
X20511000Y-15166700D02*
X20521000Y-15176700D01*
X20521000Y-15166700D02*
X20511000Y-15176700D01*
X20703700Y-14262500D02*
X20713700Y-14272500D01*
X20713700Y-14262500D02*
X20703700Y-14272500D01*
X20745600Y-15372800D02*
X20755600Y-15382800D01*
X20755600Y-15372800D02*
X20745600Y-15382800D01*
X20759500Y-14665600D02*
X20769500Y-14675600D01*
X20769500Y-14665600D02*
X20759500Y-14675600D01*
X20759900Y-15092200D02*
X20769900Y-15102200D01*
X20769900Y-15092200D02*
X20759900Y-15102200D01*
X20760900Y-14270200D02*
X20770900Y-14280200D01*
X20770900Y-14270200D02*
X20760900Y-14280200D01*
X20771300Y-15452800D02*
X20781300Y-15462800D01*
X20781300Y-15452800D02*
X20771300Y-15462800D01*
X20773000Y-15136400D02*
X20783000Y-15146400D01*
X20783000Y-15136400D02*
X20773000Y-15146400D01*
X20795000Y-13865000D02*
X20805000Y-13875000D01*
X20805000Y-13865000D02*
X20795000Y-13875000D01*
X20795000Y-15725000D02*
X20805000Y-15735000D01*
X20805000Y-15725000D02*
X20795000Y-15735000D01*
X20860100Y-15285600D02*
X20870100Y-15295600D01*
X20870100Y-15285600D02*
X20860100Y-15295600D01*
X20901100Y-14722600D02*
X20911100Y-14732600D01*
X20911100Y-14722600D02*
X20901100Y-14732600D01*
X20903500Y-14607500D02*
X20913500Y-14617500D01*
X20913500Y-14607500D02*
X20903500Y-14617500D01*
X20912400Y-14484000D02*
X20922400Y-14494000D01*
X20922400Y-14484000D02*
X20912400Y-14494000D01*
X20925800Y-14432100D02*
X20935800Y-14442100D01*
X20935800Y-14432100D02*
X20925800Y-14442100D01*
X20951800Y-15207800D02*
X20961800Y-15217800D01*
X20961800Y-15207800D02*
X20951800Y-15217800D01*
X20987900Y-14273000D02*
X20997900Y-14283000D01*
X20997900Y-14273000D02*
X20987900Y-14283000D01*
X21002900Y-15702800D02*
X21012900Y-15712800D01*
X21012900Y-15702800D02*
X21002900Y-15712800D01*
X21029400Y-15285800D02*
X21039400Y-15295800D01*
X21039400Y-15285800D02*
X21029400Y-15295800D01*
X21120000Y-15719400D02*
X21130000Y-15729400D01*
X21130000Y-15719400D02*
X21120000Y-15729400D01*
X21138800Y-14377900D02*
X21148800Y-14387900D01*
X21148800Y-14377900D02*
X21138800Y-14387900D01*
X21170200Y-15002400D02*
X21180200Y-15012400D01*
X21180200Y-15002400D02*
X21170200Y-15012400D01*
X21195000Y-13865000D02*
X21205000Y-13875000D01*
X21205000Y-13865000D02*
X21195000Y-13875000D01*
X21195000Y-15725000D02*
X21205000Y-15735000D01*
X21205000Y-15725000D02*
X21195000Y-15735000D01*
X21244800Y-14304100D02*
X21254800Y-14314100D01*
X21254800Y-14304100D02*
X21244800Y-14314100D01*
X21257300Y-15719400D02*
X21267300Y-15729400D01*
X21267300Y-15719400D02*
X21257300Y-15729400D01*
X21283500Y-14350000D02*
X21293500Y-14360000D01*
X21293500Y-14350000D02*
X21283500Y-14360000D01*
X21331900Y-15294800D02*
X21341900Y-15304800D01*
X21341900Y-15294800D02*
X21331900Y-15304800D01*
X21398000Y-14202600D02*
X21408000Y-14212600D01*
X21408000Y-14202600D02*
X21398000Y-14212600D01*
X21530800Y-14574200D02*
X21540800Y-14584200D01*
X21540800Y-14574200D02*
X21530800Y-14584200D01*
X21535800Y-14765000D02*
X21545800Y-14775000D01*
X21545800Y-14765000D02*
X21535800Y-14775000D01*
X21537700Y-14672500D02*
X21547700Y-14682500D01*
X21547700Y-14672500D02*
X21537700Y-14682500D01*
X21595000Y-13865000D02*
X21605000Y-13875000D01*
X21605000Y-13865000D02*
X21595000Y-13875000D01*
X21598600Y-14196600D02*
X21608600Y-14206600D01*
X21608600Y-14196600D02*
X21598600Y-14206600D01*
X21642500Y-14446200D02*
X21652500Y-14456200D01*
X21652500Y-14446200D02*
X21642500Y-14456200D01*
X21644400Y-15195500D02*
X21654400Y-15205500D01*
X21654400Y-15195500D02*
X21644400Y-15205500D01*
X21804600Y-14202600D02*
X21814600Y-14212600D01*
X21814600Y-14202600D02*
X21804600Y-14212600D01*
X21993000Y-14757500D02*
X22003000Y-14767500D01*
X22003000Y-14757500D02*
X21993000Y-14767500D01*
X21995000Y-13865000D02*
X22005000Y-13875000D01*
X22005000Y-13865000D02*
X21995000Y-13875000D01*
X22049313Y-14757427D02*
X22059313Y-14767427D01*
X22059313Y-14757427D02*
X22049313Y-14767427D01*
X22273000Y-14845200D02*
X22283000Y-14855200D01*
X22283000Y-14845200D02*
X22273000Y-14855200D01*
X22290900Y-15097000D02*
X22300900Y-15107000D01*
X22300900Y-15097000D02*
X22290900Y-15107000D01*
X22291700Y-14732800D02*
X22301700Y-14742800D01*
X22301700Y-14732800D02*
X22291700Y-14742800D01*
X22395000Y-13865000D02*
X22405000Y-13875000D01*
X22405000Y-13865000D02*
X22395000Y-13875000D01*
X22429100Y-14249200D02*
X22439100Y-14259200D01*
X22439100Y-14249200D02*
X22429100Y-14259200D01*
X22453800Y-14969400D02*
X22463800Y-14979400D01*
X22463800Y-14969400D02*
X22453800Y-14979400D01*
X22492500Y-14811000D02*
X22502500Y-14821000D01*
X22502500Y-14811000D02*
X22492500Y-14821000D01*
X22530000Y-14225000D02*
X22540000Y-14235000D01*
X22540000Y-14225000D02*
X22530000Y-14235000D01*
X22590000Y-15002500D02*
X22600000Y-15012500D01*
X22600000Y-15002500D02*
X22590000Y-15012500D01*
X22648800Y-14639600D02*
X22658800Y-14649600D01*
X22658800Y-14639600D02*
X22648800Y-14649600D01*
X22708800Y-14675800D02*
X22718800Y-14685800D01*
X22718800Y-14675800D02*
X22708800Y-14685800D01*
X22724500Y-15046000D02*
X22734500Y-15056000D01*
X22734500Y-15046000D02*
X22724500Y-15056000D01*
X22730600Y-14852500D02*
X22740600Y-14862500D01*
X22740600Y-14852500D02*
X22730600Y-14862500D01*
X22731400Y-14772500D02*
X22741400Y-14782500D01*
X22741400Y-14772500D02*
X22731400Y-14782500D01*
X22731800Y-14918200D02*
X22741800Y-14928200D01*
X22741800Y-14918200D02*
X22731800Y-14928200D01*
X22786400Y-14110900D02*
X22796400Y-14120900D01*
X22796400Y-14110900D02*
X22786400Y-14120900D01*
X22795000Y-13865000D02*
X22805000Y-13875000D01*
X22805000Y-13865000D02*
X22795000Y-13875000D01*
X22802000Y-15605200D02*
X22812000Y-15615200D01*
X22812000Y-15605200D02*
X22802000Y-15615200D01*
X22845200Y-15383500D02*
X22855200Y-15393500D01*
X22855200Y-15383500D02*
X22845200Y-15393500D01*
X22865700Y-14380700D02*
X22875700Y-14390700D01*
X22875700Y-14380700D02*
X22865700Y-14390700D01*
X22912000Y-14689100D02*
X22922000Y-14699100D01*
X22922000Y-14689100D02*
X22912000Y-14699100D01*
X22925800Y-15241600D02*
X22935800Y-15251600D01*
X22935800Y-15241600D02*
X22925800Y-15251600D01*
X22926700Y-15189200D02*
X22936700Y-15199200D01*
X22936700Y-15189200D02*
X22926700Y-15199200D01*
X22932093Y-15034032D02*
X22942093Y-15044032D01*
X22942093Y-15034032D02*
X22932093Y-15044032D01*
X22940300Y-15552200D02*
X22950300Y-15562200D01*
X22950300Y-15552200D02*
X22940300Y-15562200D01*
X22973200Y-15412900D02*
X22983200Y-15422900D01*
X22983200Y-15412900D02*
X22973200Y-15422900D01*
X22987800Y-15453000D02*
X22997800Y-15463000D01*
X22997800Y-15453000D02*
X22987800Y-15463000D01*
X23011400Y-14599500D02*
X23021400Y-14609500D01*
X23021400Y-14599500D02*
X23011400Y-14609500D01*
X23079700Y-15676100D02*
X23089700Y-15686100D01*
X23089700Y-15676100D02*
X23079700Y-15686100D01*
X23089600Y-15474800D02*
X23099600Y-15484800D01*
X23099600Y-15474800D02*
X23089600Y-15484800D01*
X23093500Y-14995000D02*
X23103500Y-15005000D01*
X23103500Y-14995000D02*
X23093500Y-15005000D01*
X23119500Y-15702800D02*
X23129500Y-15712800D01*
X23129500Y-15702800D02*
X23119500Y-15712800D01*
X23136300Y-14090000D02*
X23146300Y-14100000D01*
X23146300Y-14090000D02*
X23136300Y-14100000D01*
X23141400Y-14655000D02*
X23151400Y-14665000D01*
X23151400Y-14655000D02*
X23141400Y-14665000D01*
X23161900Y-14521500D02*
X23171900Y-14531500D01*
X23171900Y-14521500D02*
X23161900Y-14531500D01*
X23195000Y-13865000D02*
X23205000Y-13875000D01*
X23205000Y-13865000D02*
X23195000Y-13875000D01*
X23195000Y-15725000D02*
X23205000Y-15735000D01*
X23205000Y-15725000D02*
X23195000Y-15735000D01*
X23201500Y-15272500D02*
X23211500Y-15282500D01*
X23211500Y-15272500D02*
X23201500Y-15282500D01*
X23205500Y-15441000D02*
X23215500Y-15451000D01*
X23215500Y-15441000D02*
X23205500Y-15451000D01*
X23225600Y-14918200D02*
X23235600Y-14928200D01*
X23235600Y-14918200D02*
X23225600Y-14928200D01*
X23252200Y-14604700D02*
X23262200Y-14614700D01*
X23262200Y-14604700D02*
X23252200Y-14614700D01*
X23256100Y-14527300D02*
X23266100Y-14537300D01*
X23266100Y-14527300D02*
X23256100Y-14537300D01*
X23270000Y-14650700D02*
X23280000Y-14660700D01*
X23280000Y-14650700D02*
X23270000Y-14660700D01*
X23270900Y-15584800D02*
X23280900Y-15594800D01*
X23280900Y-15584800D02*
X23270900Y-15594800D01*
X23278000Y-15460400D02*
X23288000Y-15470400D01*
X23288000Y-15460400D02*
X23278000Y-15470400D01*
X23285100Y-15349200D02*
X23295100Y-15359200D01*
X23295100Y-15349200D02*
X23285100Y-15359200D01*
X23288000Y-14136500D02*
X23298000Y-14146500D01*
X23298000Y-14136500D02*
X23288000Y-14146500D01*
X23298800Y-15218100D02*
X23308800Y-15228100D01*
X23308800Y-15218100D02*
X23298800Y-15228100D01*
X23304500Y-15179700D02*
X23314500Y-15189700D01*
X23314500Y-15179700D02*
X23304500Y-15189700D01*
X23448800Y-14820000D02*
X23458800Y-14830000D01*
X23458800Y-14820000D02*
X23448800Y-14830000D01*
X23498500Y-14949300D02*
X23508500Y-14959300D01*
X23508500Y-14949300D02*
X23498500Y-14959300D01*
X23499100Y-15005900D02*
X23509100Y-15015900D01*
X23509100Y-15005900D02*
X23499100Y-15015900D01*
X23519500Y-15072600D02*
X23529500Y-15082600D01*
X23529500Y-15072600D02*
X23519500Y-15082600D01*
X23526700Y-15557300D02*
X23536700Y-15567300D01*
X23536700Y-15557300D02*
X23526700Y-15567300D01*
X23595000Y-13865000D02*
X23605000Y-13875000D01*
X23605000Y-13865000D02*
X23595000Y-13875000D01*
X23595000Y-15725000D02*
X23605000Y-15735000D01*
X23605000Y-15725000D02*
X23595000Y-15735000D01*
X23648000Y-15472900D02*
X23658000Y-15482900D01*
X23658000Y-15472900D02*
X23648000Y-15482900D01*
X23653300Y-14631000D02*
X23663300Y-14641000D01*
X23663300Y-14631000D02*
X23653300Y-14641000D01*
X23670800Y-14669300D02*
X23680800Y-14679300D01*
X23680800Y-14669300D02*
X23670800Y-14679300D01*
X23708100Y-14966900D02*
X23718100Y-14976900D01*
X23718100Y-14966900D02*
X23708100Y-14976900D01*
X23710400Y-15354700D02*
X23720400Y-15364700D01*
X23720400Y-15354700D02*
X23710400Y-15364700D01*
X23739500Y-15246200D02*
X23749500Y-15256200D01*
X23749500Y-15246200D02*
X23739500Y-15256200D01*
X23758500Y-14838300D02*
X23768500Y-14848300D01*
X23768500Y-14838300D02*
X23758500Y-14848300D01*
X23760600Y-15120600D02*
X23770600Y-15130600D01*
X23770600Y-15120600D02*
X23760600Y-15130600D01*
X23786200Y-15534300D02*
X23796200Y-15544300D01*
X23796200Y-15534300D02*
X23786200Y-15544300D01*
X23867400Y-14559800D02*
X23877400Y-14569800D01*
X23877400Y-14559800D02*
X23867400Y-14569800D01*
X23887600Y-14506100D02*
X23897600Y-14516100D01*
X23897600Y-14506100D02*
X23887600Y-14516100D01*
X23902200Y-15516800D02*
X23912200Y-15526800D01*
X23912200Y-15516800D02*
X23902200Y-15526800D01*
X23917900Y-15676100D02*
X23927900Y-15686100D01*
X23927900Y-15676100D02*
X23917900Y-15686100D01*
X23955000Y-15719400D02*
X23965000Y-15729400D01*
X23965000Y-15719400D02*
X23955000Y-15729400D01*
X23986300Y-15516800D02*
X23996300Y-15526800D01*
X23996300Y-15516800D02*
X23986300Y-15526800D01*
X23995000Y-13865000D02*
X24005000Y-13875000D01*
X24005000Y-13865000D02*
X23995000Y-13875000D01*
X23995000Y-15725000D02*
X24005000Y-15735000D01*
X24005000Y-15725000D02*
X23995000Y-15735000D01*
X24030600Y-14798900D02*
X24040600Y-14808900D01*
X24040600Y-14798900D02*
X24030600Y-14808900D01*
X24120700Y-14830900D02*
X24130700Y-14840900D01*
X24130700Y-14830900D02*
X24120700Y-14840900D01*
X24125100Y-15592400D02*
X24135100Y-15602400D01*
X24135100Y-15592400D02*
X24125100Y-15602400D01*
X24138500Y-14126400D02*
X24148500Y-14136400D01*
X24148500Y-14126400D02*
X24138500Y-14136400D01*
X24159100Y-15495000D02*
X24169100Y-15505000D01*
X24169100Y-15495000D02*
X24159100Y-15505000D01*
X24173700Y-14098000D02*
X24183700Y-14108000D01*
X24183700Y-14098000D02*
X24173700Y-14108000D01*
X24279100Y-14240600D02*
X24289100Y-14250600D01*
X24289100Y-14240600D02*
X24279100Y-14250600D01*
X24295552Y-14897965D02*
X24305552Y-14907965D01*
X24305552Y-14897965D02*
X24295552Y-14907965D01*
X24349200Y-14201000D02*
X24359200Y-14211000D01*
X24359200Y-14201000D02*
X24349200Y-14211000D01*
X24366600Y-15422600D02*
X24376600Y-15432600D01*
X24376600Y-15422600D02*
X24366600Y-15432600D01*
X24367600Y-15141100D02*
X24377600Y-15151100D01*
X24377600Y-15141100D02*
X24367600Y-15151100D01*
X24372800Y-13892700D02*
X24382800Y-13902700D01*
X24382800Y-13892700D02*
X24372800Y-13902700D01*
X24377800Y-14172500D02*
X24387800Y-14182500D01*
X24387800Y-14172500D02*
X24377800Y-14182500D01*
X24395000Y-13865000D02*
X24405000Y-13875000D01*
X24405000Y-13865000D02*
X24395000Y-13875000D01*
X24395000Y-15725000D02*
X24405000Y-15735000D01*
X24405000Y-15725000D02*
X24395000Y-15735000D01*
X24398800Y-15274200D02*
X24408800Y-15284200D01*
X24408800Y-15274200D02*
X24398800Y-15284200D01*
X24413400Y-14153300D02*
X24423400Y-14163300D01*
X24423400Y-14153300D02*
X24413400Y-14163300D01*
X24416400Y-14251300D02*
X24426400Y-14261300D01*
X24426400Y-14251300D02*
X24416400Y-14261300D01*
X24448600Y-14153400D02*
X24458600Y-14163400D01*
X24458600Y-14153400D02*
X24448600Y-14163400D01*
X24483700Y-14153100D02*
X24493700Y-14163100D01*
X24493700Y-14153100D02*
X24483700Y-14163100D01*
X24487000Y-15442900D02*
X24497000Y-15452900D01*
X24497000Y-15442900D02*
X24487000Y-15452900D01*
X24510000Y-13915400D02*
X24520000Y-13925400D01*
X24520000Y-13915400D02*
X24510000Y-13925400D01*
X24520500Y-15555700D02*
X24530500Y-15565700D01*
X24530500Y-15555700D02*
X24520500Y-15565700D01*
X24528600Y-15291800D02*
X24538600Y-15301800D01*
X24538600Y-15291800D02*
X24528600Y-15301800D01*
X24576400Y-13896400D02*
X24586400Y-13906400D01*
X24586400Y-13896400D02*
X24576400Y-13906400D01*
X24599600Y-14100600D02*
X24609600Y-14110600D01*
X24609600Y-14100600D02*
X24599600Y-14110600D01*
X24626600Y-13868300D02*
X24636600Y-13878300D01*
X24636600Y-13868300D02*
X24626600Y-13878300D01*
X24653000Y-14732800D02*
X24663000Y-14742800D01*
X24663000Y-14732800D02*
X24653000Y-14742800D01*
X24656600Y-15208300D02*
X24666600Y-15218300D01*
X24666600Y-15208300D02*
X24656600Y-15218300D01*
X24660000Y-14098000D02*
X24670000Y-14108000D01*
X24670000Y-14098000D02*
X24660000Y-14108000D01*
X24663400Y-15099100D02*
X24673400Y-15109100D01*
X24673400Y-15099100D02*
X24663400Y-15109100D01*
X24694600Y-15080600D02*
X24704600Y-15090600D01*
X24704600Y-15080600D02*
X24694600Y-15090600D01*
X24710000Y-14115600D02*
X24720000Y-14125600D01*
X24720000Y-14115600D02*
X24710000Y-14125600D01*
X24721700Y-14985000D02*
X24731700Y-14995000D01*
X24731700Y-14985000D02*
X24721700Y-14995000D01*
X24729500Y-15480400D02*
X24739500Y-15490400D01*
X24739500Y-15480400D02*
X24729500Y-15490400D01*
X24732500Y-15364500D02*
X24742500Y-15374500D01*
X24742500Y-15364500D02*
X24732500Y-15374500D01*
X24741800Y-14913800D02*
X24751800Y-14923800D01*
X24751800Y-14913800D02*
X24741800Y-14923800D01*
X24795000Y-13865000D02*
X24805000Y-13875000D01*
X24805000Y-13865000D02*
X24795000Y-13875000D01*
X24795000Y-15725000D02*
X24805000Y-15735000D01*
X24805000Y-15725000D02*
X24795000Y-15735000D01*
X24796400Y-14143800D02*
X24806400Y-14153800D01*
X24806400Y-14143800D02*
X24796400Y-14153800D01*
X24811700Y-14204400D02*
X24821700Y-14214400D01*
X24821700Y-14204400D02*
X24811700Y-14214400D01*
X24823300Y-14166600D02*
X24833300Y-14176600D01*
X24833300Y-14166600D02*
X24823300Y-14176600D01*
X24922600Y-14147800D02*
X24932600Y-14157800D01*
X24932600Y-14147800D02*
X24922600Y-14157800D01*
X24960000Y-14098000D02*
X24970000Y-14108000D01*
X24970000Y-14098000D02*
X24960000Y-14108000D01*
X25010000Y-14098000D02*
X25020000Y-14108000D01*
X25020000Y-14098000D02*
X25010000Y-14108000D01*
X25060000Y-14099000D02*
X25070000Y-14109000D01*
X25070000Y-14099000D02*
X25060000Y-14109000D01*
X25098800Y-14134100D02*
X25108800Y-14144100D01*
X25108800Y-14134100D02*
X25098800Y-14144100D01*
X25132200Y-15752700D02*
X25142200Y-15762700D01*
X25142200Y-15752700D02*
X25132200Y-15762700D01*
X25133000Y-15268300D02*
X25143000Y-15278300D01*
X25143000Y-15268300D02*
X25133000Y-15278300D01*
X25147900Y-15574300D02*
X25157900Y-15584300D01*
X25157900Y-15574300D02*
X25147900Y-15584300D01*
X25175400Y-14110500D02*
X25185400Y-14120500D01*
X25185400Y-14110500D02*
X25175400Y-14120500D01*
X25195000Y-13865000D02*
X25205000Y-13875000D01*
X25205000Y-13865000D02*
X25195000Y-13875000D01*
X25195000Y-15725000D02*
X25205000Y-15735000D01*
X25205000Y-15725000D02*
X25195000Y-15735000D01*
X25217900Y-15695800D02*
X25227900Y-15705800D01*
X25227900Y-15695800D02*
X25217900Y-15705800D01*
X25226500Y-15494600D02*
X25236500Y-15504600D01*
X25236500Y-15494600D02*
X25226500Y-15504600D01*
X25278600Y-15442500D02*
X25288600Y-15452500D01*
X25288600Y-15442500D02*
X25278600Y-15452500D01*
X25379100Y-15574300D02*
X25389100Y-15584300D01*
X25389100Y-15574300D02*
X25379100Y-15584300D01*
X25387900Y-15262000D02*
X25397900Y-15272000D01*
X25397900Y-15262000D02*
X25387900Y-15272000D01*
X25449500Y-15220400D02*
X25459500Y-15230400D01*
X25459500Y-15220400D02*
X25449500Y-15230400D01*
X25456100Y-15058000D02*
X25466100Y-15068000D01*
X25466100Y-15058000D02*
X25456100Y-15068000D01*
X25456300Y-15182500D02*
X25466300Y-15192500D01*
X25466300Y-15182500D02*
X25456300Y-15192500D01*
X25456400Y-14993100D02*
X25466400Y-15003100D01*
X25466400Y-14993100D02*
X25456400Y-15003100D01*
X25456700Y-15116400D02*
X25466700Y-15126400D01*
X25466700Y-15116400D02*
X25456700Y-15126400D01*
X25457100Y-14934100D02*
X25467100Y-14944100D01*
X25467100Y-14934100D02*
X25457100Y-14944100D01*
X25595000Y-13865000D02*
X25605000Y-13875000D01*
X25605000Y-13865000D02*
X25595000Y-13875000D01*
X25595000Y-15725000D02*
X25605000Y-15735000D01*
X25605000Y-15725000D02*
X25595000Y-15735000D01*
X25701500Y-14857200D02*
X25711500Y-14867200D01*
X25711500Y-14857200D02*
X25701500Y-14867200D01*
X26095000Y-14535000D02*
X26105000Y-14545000D01*
X26105000Y-14535000D02*
X26095000Y-14545000D01*
X26095000Y-15055000D02*
X26105000Y-15065000D01*
X26105000Y-15055000D02*
X26095000Y-15065000D01*
X26395000Y-14535000D02*
X26405000Y-14545000D01*
X26405000Y-14535000D02*
X26395000Y-14545000D01*
X26395000Y-15055000D02*
X26405000Y-15065000D01*
X26405000Y-15055000D02*
X26395000Y-15065000D01*
X26695000Y-14535000D02*
X26705000Y-14545000D01*
X26705000Y-14535000D02*
X26695000Y-14545000D01*
X26695000Y-15055000D02*
X26705000Y-15065000D01*
X26705000Y-15055000D02*
X26695000Y-15065000D01*
X26995000Y-14535000D02*
X27005000Y-14545000D01*
X27005000Y-14535000D02*
X26995000Y-14545000D01*
X26995000Y-15055000D02*
X27005000Y-15065000D01*
X27005000Y-15055000D02*
X26995000Y-15065000D01*
X27295000Y-14535000D02*
X27305000Y-14545000D01*
X27305000Y-14535000D02*
X27295000Y-14545000D01*
X27295000Y-15055000D02*
X27305000Y-15065000D01*
X27305000Y-15055000D02*
X27295000Y-15065000D01*
X27595000Y-14535000D02*
X27605000Y-14545000D01*
X27605000Y-14535000D02*
X27595000Y-14545000D01*
X27595000Y-15055000D02*
X27605000Y-15065000D01*
X27605000Y-15055000D02*
X27595000Y-15065000D01*
X27895000Y-14535000D02*
X27905000Y-14545000D01*
X27905000Y-14535000D02*
X27895000Y-14545000D01*
X27895000Y-15055000D02*
X27905000Y-15065000D01*
X27905000Y-15055000D02*
X27895000Y-15065000D01*
X28195000Y-14535000D02*
X28205000Y-14545000D01*
X28205000Y-14535000D02*
X28195000Y-14545000D01*
X28195000Y-15055000D02*
X28205000Y-15065000D01*
X28205000Y-15055000D02*
X28195000Y-15065000D01*
X28495000Y-14535000D02*
X28505000Y-14545000D01*
X28505000Y-14535000D02*
X28495000Y-14545000D01*
X28495000Y-15055000D02*
X28505000Y-15065000D01*
X28505000Y-15055000D02*
X28495000Y-15065000D01*
X28795000Y-14535000D02*
X28805000Y-14545000D01*
X28805000Y-14535000D02*
X28795000Y-14545000D01*
X28795000Y-15055000D02*
X28805000Y-15065000D01*
X28805000Y-15055000D02*
X28795000Y-15065000D01*
X29144200Y-14312900D02*
X29154200Y-14322900D01*
X29154200Y-14312900D02*
X29144200Y-14322900D01*
X29195000Y-14035000D02*
X29205000Y-14045000D01*
X29205000Y-14035000D02*
X29195000Y-14045000D01*
X29195000Y-15555000D02*
X29205000Y-15565000D01*
X29205000Y-15555000D02*
X29195000Y-15565000D01*
X29375100Y-15236000D02*
X29385100Y-15246000D01*
X29385100Y-15236000D02*
X29375100Y-15246000D01*
X29488600Y-14286600D02*
X29498600Y-14296600D01*
X29498600Y-14286600D02*
X29488600Y-14296600D01*
X29595000Y-14035000D02*
X29605000Y-14045000D01*
X29605000Y-14035000D02*
X29595000Y-14045000D01*
X29595000Y-15555000D02*
X29605000Y-15565000D01*
X29605000Y-15555000D02*
X29595000Y-15565000D01*
X29605000Y-15194500D02*
X29615000Y-15204500D01*
X29615000Y-15194500D02*
X29605000Y-15204500D01*
X29626800Y-14738700D02*
X29636800Y-14748700D01*
X29636800Y-14738700D02*
X29626800Y-14748700D01*
X29670000Y-14620000D02*
X29680000Y-14630000D01*
X29680000Y-14620000D02*
X29670000Y-14630000D01*
X29670000Y-14970000D02*
X29680000Y-14980000D01*
X29680000Y-14970000D02*
X29670000Y-14980000D01*
X29696400Y-14533800D02*
X29706400Y-14543800D01*
X29706400Y-14533800D02*
X29696400Y-14543800D01*
X29720000Y-15062800D02*
X29730000Y-15072800D01*
X29730000Y-15062800D02*
X29720000Y-15072800D01*
X29789700Y-15193800D02*
X29799700Y-15203800D01*
X29799700Y-15193800D02*
X29789700Y-15203800D01*
X29928500Y-14534600D02*
X29938500Y-14544600D01*
X29938500Y-14534600D02*
X29928500Y-14544600D01*
X29970000Y-14620000D02*
X29980000Y-14630000D01*
X29980000Y-14620000D02*
X29970000Y-14630000D01*
X29970000Y-14970000D02*
X29980000Y-14980000D01*
X29980000Y-14970000D02*
X29970000Y-14980000D01*
X29970000Y-15063000D02*
X29980000Y-15073000D01*
X29980000Y-15063000D02*
X29970000Y-15073000D01*
X29995000Y-14035000D02*
X30005000Y-14045000D01*
X30005000Y-14035000D02*
X29995000Y-14045000D01*
X29995000Y-15555000D02*
X30005000Y-15565000D01*
X30005000Y-15555000D02*
X29995000Y-15565000D01*
X30005500Y-14576600D02*
X30015500Y-14586600D01*
X30015500Y-14576600D02*
X30005500Y-14586600D01*
X30056600Y-15018400D02*
X30066600Y-15028400D01*
X30066600Y-15018400D02*
X30056600Y-15028400D01*
X30061500Y-14620000D02*
X30071500Y-14630000D01*
X30071500Y-14620000D02*
X30061500Y-14630000D01*
X30074600Y-14249800D02*
X30084600Y-14259800D01*
X30084600Y-14249800D02*
X30074600Y-14259800D01*
X30104300Y-14966200D02*
X30114300Y-14976200D01*
X30114300Y-14966200D02*
X30104300Y-14976200D01*
X30105000Y-14855000D02*
X30115000Y-14865000D01*
X30115000Y-14855000D02*
X30105000Y-14865000D01*
X30131700Y-14484000D02*
X30141700Y-14494000D01*
X30141700Y-14484000D02*
X30131700Y-14494000D01*
X30163200Y-14920000D02*
X30173200Y-14930000D01*
X30173200Y-14920000D02*
X30163200Y-14930000D01*
X30395000Y-14035000D02*
X30405000Y-14045000D01*
X30405000Y-14035000D02*
X30395000Y-14045000D01*
X30395000Y-15555000D02*
X30405000Y-15565000D01*
X30405000Y-15555000D02*
X30395000Y-15565000D01*
D11*
X11455777Y-16116484D02*
X11455777Y-15916484D01*
X11455777Y-15916484D02*
X11503396Y-15916484D01*
X11503396Y-15916484D02*
X11531967Y-15926008D01*
X11531967Y-15926008D02*
X11551015Y-15945055D01*
X11551015Y-15945055D02*
X11560539Y-15964103D01*
X11560539Y-15964103D02*
X11570062Y-16002198D01*
X11570062Y-16002198D02*
X11570062Y-16030769D01*
X11570062Y-16030769D02*
X11560539Y-16068865D01*
X11560539Y-16068865D02*
X11551015Y-16087912D01*
X11551015Y-16087912D02*
X11531967Y-16106960D01*
X11531967Y-16106960D02*
X11503396Y-16116484D01*
X11503396Y-16116484D02*
X11455777Y-16116484D01*
X11655777Y-16116484D02*
X11655777Y-15983150D01*
X11655777Y-16021246D02*
X11665301Y-16002198D01*
X11665301Y-16002198D02*
X11674824Y-15992674D01*
X11674824Y-15992674D02*
X11693872Y-15983150D01*
X11693872Y-15983150D02*
X11712920Y-15983150D01*
X11779586Y-16116484D02*
X11779586Y-15983150D01*
X11779586Y-15916484D02*
X11770062Y-15926008D01*
X11770062Y-15926008D02*
X11779586Y-15935531D01*
X11779586Y-15935531D02*
X11789110Y-15926008D01*
X11789110Y-15926008D02*
X11779586Y-15916484D01*
X11779586Y-15916484D02*
X11779586Y-15935531D01*
X11903396Y-16116484D02*
X11884348Y-16106960D01*
X11884348Y-16106960D02*
X11874824Y-16087912D01*
X11874824Y-16087912D02*
X11874824Y-15916484D01*
X12008158Y-16116484D02*
X11989110Y-16106960D01*
X11989110Y-16106960D02*
X11979586Y-16087912D01*
X11979586Y-16087912D02*
X11979586Y-15916484D01*
X12236729Y-16116484D02*
X12236729Y-15916484D01*
X12236729Y-15916484D02*
X12303396Y-16059341D01*
X12303396Y-16059341D02*
X12370062Y-15916484D01*
X12370062Y-15916484D02*
X12370062Y-16116484D01*
X12551015Y-16116484D02*
X12551015Y-16011722D01*
X12551015Y-16011722D02*
X12541491Y-15992674D01*
X12541491Y-15992674D02*
X12522443Y-15983150D01*
X12522443Y-15983150D02*
X12484348Y-15983150D01*
X12484348Y-15983150D02*
X12465301Y-15992674D01*
X12551015Y-16106960D02*
X12531967Y-16116484D01*
X12531967Y-16116484D02*
X12484348Y-16116484D01*
X12484348Y-16116484D02*
X12465301Y-16106960D01*
X12465301Y-16106960D02*
X12455777Y-16087912D01*
X12455777Y-16087912D02*
X12455777Y-16068865D01*
X12455777Y-16068865D02*
X12465301Y-16049817D01*
X12465301Y-16049817D02*
X12484348Y-16040293D01*
X12484348Y-16040293D02*
X12531967Y-16040293D01*
X12531967Y-16040293D02*
X12551015Y-16030769D01*
X12646253Y-15983150D02*
X12646253Y-16183150D01*
X12646253Y-15992674D02*
X12665301Y-15983150D01*
X12665301Y-15983150D02*
X12703396Y-15983150D01*
X12703396Y-15983150D02*
X12722443Y-15992674D01*
X12722443Y-15992674D02*
X12731967Y-16002198D01*
X12731967Y-16002198D02*
X12741491Y-16021246D01*
X12741491Y-16021246D02*
X12741491Y-16078388D01*
X12741491Y-16078388D02*
X12731967Y-16097436D01*
X12731967Y-16097436D02*
X12722443Y-16106960D01*
X12722443Y-16106960D02*
X12703396Y-16116484D01*
X12703396Y-16116484D02*
X12665301Y-16116484D01*
X12665301Y-16116484D02*
X12646253Y-16106960D01*
X12827205Y-16097436D02*
X12836729Y-16106960D01*
X12836729Y-16106960D02*
X12827205Y-16116484D01*
X12827205Y-16116484D02*
X12817682Y-16106960D01*
X12817682Y-16106960D02*
X12827205Y-16097436D01*
X12827205Y-16097436D02*
X12827205Y-16116484D01*
X12827205Y-15992674D02*
X12836729Y-16002198D01*
X12836729Y-16002198D02*
X12827205Y-16011722D01*
X12827205Y-16011722D02*
X12817682Y-16002198D01*
X12817682Y-16002198D02*
X12827205Y-15992674D01*
X12827205Y-15992674D02*
X12827205Y-16011722D01*
D10*
X11185000Y-16440000D02*
X11195000Y-16450000D01*
X11195000Y-16440000D02*
X11185000Y-16450000D01*
D11*
X11493872Y-16336484D02*
X11512920Y-16336484D01*
X11512920Y-16336484D02*
X11531967Y-16346008D01*
X11531967Y-16346008D02*
X11541491Y-16355531D01*
X11541491Y-16355531D02*
X11551015Y-16374579D01*
X11551015Y-16374579D02*
X11560539Y-16412674D01*
X11560539Y-16412674D02*
X11560539Y-16460293D01*
X11560539Y-16460293D02*
X11551015Y-16498388D01*
X11551015Y-16498388D02*
X11541491Y-16517436D01*
X11541491Y-16517436D02*
X11531967Y-16526960D01*
X11531967Y-16526960D02*
X11512920Y-16536484D01*
X11512920Y-16536484D02*
X11493872Y-16536484D01*
X11493872Y-16536484D02*
X11474824Y-16526960D01*
X11474824Y-16526960D02*
X11465301Y-16517436D01*
X11465301Y-16517436D02*
X11455777Y-16498388D01*
X11455777Y-16498388D02*
X11446253Y-16460293D01*
X11446253Y-16460293D02*
X11446253Y-16412674D01*
X11446253Y-16412674D02*
X11455777Y-16374579D01*
X11455777Y-16374579D02*
X11465301Y-16355531D01*
X11465301Y-16355531D02*
X11474824Y-16346008D01*
X11474824Y-16346008D02*
X11493872Y-16336484D01*
X11646253Y-16517436D02*
X11655777Y-16526960D01*
X11655777Y-16526960D02*
X11646253Y-16536484D01*
X11646253Y-16536484D02*
X11636729Y-16526960D01*
X11636729Y-16526960D02*
X11646253Y-16517436D01*
X11646253Y-16517436D02*
X11646253Y-16536484D01*
X11846253Y-16536484D02*
X11731967Y-16536484D01*
X11789110Y-16536484D02*
X11789110Y-16336484D01*
X11789110Y-16336484D02*
X11770062Y-16365055D01*
X11770062Y-16365055D02*
X11751015Y-16384103D01*
X11751015Y-16384103D02*
X11731967Y-16393627D01*
X11970062Y-16336484D02*
X11989110Y-16336484D01*
X11989110Y-16336484D02*
X12008158Y-16346008D01*
X12008158Y-16346008D02*
X12017682Y-16355531D01*
X12017682Y-16355531D02*
X12027205Y-16374579D01*
X12027205Y-16374579D02*
X12036729Y-16412674D01*
X12036729Y-16412674D02*
X12036729Y-16460293D01*
X12036729Y-16460293D02*
X12027205Y-16498388D01*
X12027205Y-16498388D02*
X12017682Y-16517436D01*
X12017682Y-16517436D02*
X12008158Y-16526960D01*
X12008158Y-16526960D02*
X11989110Y-16536484D01*
X11989110Y-16536484D02*
X11970062Y-16536484D01*
X11970062Y-16536484D02*
X11951015Y-16526960D01*
X11951015Y-16526960D02*
X11941491Y-16517436D01*
X11941491Y-16517436D02*
X11931967Y-16498388D01*
X11931967Y-16498388D02*
X11922443Y-16460293D01*
X11922443Y-16460293D02*
X11922443Y-16412674D01*
X11922443Y-16412674D02*
X11931967Y-16374579D01*
X11931967Y-16374579D02*
X11941491Y-16355531D01*
X11941491Y-16355531D02*
X11951015Y-16346008D01*
X11951015Y-16346008D02*
X11970062Y-16336484D01*
X12160539Y-16336484D02*
X12179586Y-16336484D01*
X12179586Y-16336484D02*
X12198634Y-16346008D01*
X12198634Y-16346008D02*
X12208158Y-16355531D01*
X12208158Y-16355531D02*
X12217682Y-16374579D01*
X12217682Y-16374579D02*
X12227205Y-16412674D01*
X12227205Y-16412674D02*
X12227205Y-16460293D01*
X12227205Y-16460293D02*
X12217682Y-16498388D01*
X12217682Y-16498388D02*
X12208158Y-16517436D01*
X12208158Y-16517436D02*
X12198634Y-16526960D01*
X12198634Y-16526960D02*
X12179586Y-16536484D01*
X12179586Y-16536484D02*
X12160539Y-16536484D01*
X12160539Y-16536484D02*
X12141491Y-16526960D01*
X12141491Y-16526960D02*
X12131967Y-16517436D01*
X12131967Y-16517436D02*
X12122443Y-16498388D01*
X12122443Y-16498388D02*
X12112920Y-16460293D01*
X12112920Y-16460293D02*
X12112920Y-16412674D01*
X12112920Y-16412674D02*
X12122443Y-16374579D01*
X12122443Y-16374579D02*
X12131967Y-16355531D01*
X12131967Y-16355531D02*
X12141491Y-16346008D01*
X12141491Y-16346008D02*
X12160539Y-16336484D01*
X12312920Y-16536484D02*
X12312920Y-16403150D01*
X12312920Y-16422198D02*
X12322443Y-16412674D01*
X12322443Y-16412674D02*
X12341491Y-16403150D01*
X12341491Y-16403150D02*
X12370063Y-16403150D01*
X12370063Y-16403150D02*
X12389110Y-16412674D01*
X12389110Y-16412674D02*
X12398634Y-16431722D01*
X12398634Y-16431722D02*
X12398634Y-16536484D01*
X12398634Y-16431722D02*
X12408158Y-16412674D01*
X12408158Y-16412674D02*
X12427205Y-16403150D01*
X12427205Y-16403150D02*
X12455777Y-16403150D01*
X12455777Y-16403150D02*
X12474824Y-16412674D01*
X12474824Y-16412674D02*
X12484348Y-16431722D01*
X12484348Y-16431722D02*
X12484348Y-16536484D01*
X12579586Y-16536484D02*
X12579586Y-16403150D01*
X12579586Y-16422198D02*
X12589110Y-16412674D01*
X12589110Y-16412674D02*
X12608158Y-16403150D01*
X12608158Y-16403150D02*
X12636729Y-16403150D01*
X12636729Y-16403150D02*
X12655777Y-16412674D01*
X12655777Y-16412674D02*
X12665301Y-16431722D01*
X12665301Y-16431722D02*
X12665301Y-16536484D01*
X12665301Y-16431722D02*
X12674824Y-16412674D01*
X12674824Y-16412674D02*
X12693872Y-16403150D01*
X12693872Y-16403150D02*
X12722443Y-16403150D01*
X12722443Y-16403150D02*
X12741491Y-16412674D01*
X12741491Y-16412674D02*
X12751015Y-16431722D01*
X12751015Y-16431722D02*
X12751015Y-16536484D01*
X13141491Y-16326960D02*
X12970063Y-16584103D01*
X13398634Y-16336484D02*
X13417682Y-16336484D01*
X13417682Y-16336484D02*
X13436729Y-16346008D01*
X13436729Y-16346008D02*
X13446253Y-16355531D01*
X13446253Y-16355531D02*
X13455777Y-16374579D01*
X13455777Y-16374579D02*
X13465301Y-16412674D01*
X13465301Y-16412674D02*
X13465301Y-16460293D01*
X13465301Y-16460293D02*
X13455777Y-16498388D01*
X13455777Y-16498388D02*
X13446253Y-16517436D01*
X13446253Y-16517436D02*
X13436729Y-16526960D01*
X13436729Y-16526960D02*
X13417682Y-16536484D01*
X13417682Y-16536484D02*
X13398634Y-16536484D01*
X13398634Y-16536484D02*
X13379586Y-16526960D01*
X13379586Y-16526960D02*
X13370063Y-16517436D01*
X13370063Y-16517436D02*
X13360539Y-16498388D01*
X13360539Y-16498388D02*
X13351015Y-16460293D01*
X13351015Y-16460293D02*
X13351015Y-16412674D01*
X13351015Y-16412674D02*
X13360539Y-16374579D01*
X13360539Y-16374579D02*
X13370063Y-16355531D01*
X13370063Y-16355531D02*
X13379586Y-16346008D01*
X13379586Y-16346008D02*
X13398634Y-16336484D01*
X13551015Y-16517436D02*
X13560539Y-16526960D01*
X13560539Y-16526960D02*
X13551015Y-16536484D01*
X13551015Y-16536484D02*
X13541491Y-16526960D01*
X13541491Y-16526960D02*
X13551015Y-16517436D01*
X13551015Y-16517436D02*
X13551015Y-16536484D01*
X13684348Y-16336484D02*
X13703396Y-16336484D01*
X13703396Y-16336484D02*
X13722444Y-16346008D01*
X13722444Y-16346008D02*
X13731967Y-16355531D01*
X13731967Y-16355531D02*
X13741491Y-16374579D01*
X13741491Y-16374579D02*
X13751015Y-16412674D01*
X13751015Y-16412674D02*
X13751015Y-16460293D01*
X13751015Y-16460293D02*
X13741491Y-16498388D01*
X13741491Y-16498388D02*
X13731967Y-16517436D01*
X13731967Y-16517436D02*
X13722444Y-16526960D01*
X13722444Y-16526960D02*
X13703396Y-16536484D01*
X13703396Y-16536484D02*
X13684348Y-16536484D01*
X13684348Y-16536484D02*
X13665301Y-16526960D01*
X13665301Y-16526960D02*
X13655777Y-16517436D01*
X13655777Y-16517436D02*
X13646253Y-16498388D01*
X13646253Y-16498388D02*
X13636729Y-16460293D01*
X13636729Y-16460293D02*
X13636729Y-16412674D01*
X13636729Y-16412674D02*
X13646253Y-16374579D01*
X13646253Y-16374579D02*
X13655777Y-16355531D01*
X13655777Y-16355531D02*
X13665301Y-16346008D01*
X13665301Y-16346008D02*
X13684348Y-16336484D01*
X13874825Y-16336484D02*
X13893872Y-16336484D01*
X13893872Y-16336484D02*
X13912920Y-16346008D01*
X13912920Y-16346008D02*
X13922444Y-16355531D01*
X13922444Y-16355531D02*
X13931967Y-16374579D01*
X13931967Y-16374579D02*
X13941491Y-16412674D01*
X13941491Y-16412674D02*
X13941491Y-16460293D01*
X13941491Y-16460293D02*
X13931967Y-16498388D01*
X13931967Y-16498388D02*
X13922444Y-16517436D01*
X13922444Y-16517436D02*
X13912920Y-16526960D01*
X13912920Y-16526960D02*
X13893872Y-16536484D01*
X13893872Y-16536484D02*
X13874825Y-16536484D01*
X13874825Y-16536484D02*
X13855777Y-16526960D01*
X13855777Y-16526960D02*
X13846253Y-16517436D01*
X13846253Y-16517436D02*
X13836729Y-16498388D01*
X13836729Y-16498388D02*
X13827206Y-16460293D01*
X13827206Y-16460293D02*
X13827206Y-16412674D01*
X13827206Y-16412674D02*
X13836729Y-16374579D01*
X13836729Y-16374579D02*
X13846253Y-16355531D01*
X13846253Y-16355531D02*
X13855777Y-16346008D01*
X13855777Y-16346008D02*
X13874825Y-16336484D01*
X14008158Y-16336484D02*
X14131967Y-16336484D01*
X14131967Y-16336484D02*
X14065301Y-16412674D01*
X14065301Y-16412674D02*
X14093872Y-16412674D01*
X14093872Y-16412674D02*
X14112920Y-16422198D01*
X14112920Y-16422198D02*
X14122444Y-16431722D01*
X14122444Y-16431722D02*
X14131967Y-16450769D01*
X14131967Y-16450769D02*
X14131967Y-16498388D01*
X14131967Y-16498388D02*
X14122444Y-16517436D01*
X14122444Y-16517436D02*
X14112920Y-16526960D01*
X14112920Y-16526960D02*
X14093872Y-16536484D01*
X14093872Y-16536484D02*
X14036729Y-16536484D01*
X14036729Y-16536484D02*
X14017682Y-16526960D01*
X14017682Y-16526960D02*
X14008158Y-16517436D01*
X14227206Y-16536484D02*
X14265301Y-16536484D01*
X14265301Y-16536484D02*
X14284348Y-16526960D01*
X14284348Y-16526960D02*
X14293872Y-16517436D01*
X14293872Y-16517436D02*
X14312920Y-16488865D01*
X14312920Y-16488865D02*
X14322444Y-16450769D01*
X14322444Y-16450769D02*
X14322444Y-16374579D01*
X14322444Y-16374579D02*
X14312920Y-16355531D01*
X14312920Y-16355531D02*
X14303396Y-16346008D01*
X14303396Y-16346008D02*
X14284348Y-16336484D01*
X14284348Y-16336484D02*
X14246253Y-16336484D01*
X14246253Y-16336484D02*
X14227206Y-16346008D01*
X14227206Y-16346008D02*
X14217682Y-16355531D01*
X14217682Y-16355531D02*
X14208158Y-16374579D01*
X14208158Y-16374579D02*
X14208158Y-16422198D01*
X14208158Y-16422198D02*
X14217682Y-16441246D01*
X14217682Y-16441246D02*
X14227206Y-16450769D01*
X14227206Y-16450769D02*
X14246253Y-16460293D01*
X14246253Y-16460293D02*
X14284348Y-16460293D01*
X14284348Y-16460293D02*
X14303396Y-16450769D01*
X14303396Y-16450769D02*
X14312920Y-16441246D01*
X14312920Y-16441246D02*
X14322444Y-16422198D01*
X14398634Y-16336484D02*
X14398634Y-16374579D01*
X14474825Y-16336484D02*
X14474825Y-16374579D01*
X14770063Y-16612674D02*
X14760539Y-16603150D01*
X14760539Y-16603150D02*
X14741491Y-16574579D01*
X14741491Y-16574579D02*
X14731968Y-16555531D01*
X14731968Y-16555531D02*
X14722444Y-16526960D01*
X14722444Y-16526960D02*
X14712920Y-16479341D01*
X14712920Y-16479341D02*
X14712920Y-16441246D01*
X14712920Y-16441246D02*
X14722444Y-16393627D01*
X14722444Y-16393627D02*
X14731968Y-16365055D01*
X14731968Y-16365055D02*
X14741491Y-16346008D01*
X14741491Y-16346008D02*
X14760539Y-16317436D01*
X14760539Y-16317436D02*
X14770063Y-16307912D01*
X14827206Y-16336484D02*
X14951015Y-16336484D01*
X14951015Y-16336484D02*
X14884348Y-16412674D01*
X14884348Y-16412674D02*
X14912920Y-16412674D01*
X14912920Y-16412674D02*
X14931968Y-16422198D01*
X14931968Y-16422198D02*
X14941491Y-16431722D01*
X14941491Y-16431722D02*
X14951015Y-16450769D01*
X14951015Y-16450769D02*
X14951015Y-16498388D01*
X14951015Y-16498388D02*
X14941491Y-16517436D01*
X14941491Y-16517436D02*
X14931968Y-16526960D01*
X14931968Y-16526960D02*
X14912920Y-16536484D01*
X14912920Y-16536484D02*
X14855777Y-16536484D01*
X14855777Y-16536484D02*
X14836729Y-16526960D01*
X14836729Y-16526960D02*
X14827206Y-16517436D01*
X15046253Y-16536484D02*
X15084348Y-16536484D01*
X15084348Y-16536484D02*
X15103396Y-16526960D01*
X15103396Y-16526960D02*
X15112920Y-16517436D01*
X15112920Y-16517436D02*
X15131968Y-16488865D01*
X15131968Y-16488865D02*
X15141491Y-16450769D01*
X15141491Y-16450769D02*
X15141491Y-16374579D01*
X15141491Y-16374579D02*
X15131968Y-16355531D01*
X15131968Y-16355531D02*
X15122444Y-16346008D01*
X15122444Y-16346008D02*
X15103396Y-16336484D01*
X15103396Y-16336484D02*
X15065301Y-16336484D01*
X15065301Y-16336484D02*
X15046253Y-16346008D01*
X15046253Y-16346008D02*
X15036729Y-16355531D01*
X15036729Y-16355531D02*
X15027206Y-16374579D01*
X15027206Y-16374579D02*
X15027206Y-16422198D01*
X15027206Y-16422198D02*
X15036729Y-16441246D01*
X15036729Y-16441246D02*
X15046253Y-16450769D01*
X15046253Y-16450769D02*
X15065301Y-16460293D01*
X15065301Y-16460293D02*
X15103396Y-16460293D01*
X15103396Y-16460293D02*
X15122444Y-16450769D01*
X15122444Y-16450769D02*
X15131968Y-16441246D01*
X15131968Y-16441246D02*
X15141491Y-16422198D01*
X15208158Y-16336484D02*
X15331968Y-16336484D01*
X15331968Y-16336484D02*
X15265301Y-16412674D01*
X15265301Y-16412674D02*
X15293872Y-16412674D01*
X15293872Y-16412674D02*
X15312920Y-16422198D01*
X15312920Y-16422198D02*
X15322444Y-16431722D01*
X15322444Y-16431722D02*
X15331968Y-16450769D01*
X15331968Y-16450769D02*
X15331968Y-16498388D01*
X15331968Y-16498388D02*
X15322444Y-16517436D01*
X15322444Y-16517436D02*
X15312920Y-16526960D01*
X15312920Y-16526960D02*
X15293872Y-16536484D01*
X15293872Y-16536484D02*
X15236729Y-16536484D01*
X15236729Y-16536484D02*
X15217682Y-16526960D01*
X15217682Y-16526960D02*
X15208158Y-16517436D01*
X15570063Y-16536484D02*
X15570063Y-16336484D01*
X15655777Y-16536484D02*
X15655777Y-16431722D01*
X15655777Y-16431722D02*
X15646253Y-16412674D01*
X15646253Y-16412674D02*
X15627206Y-16403150D01*
X15627206Y-16403150D02*
X15598634Y-16403150D01*
X15598634Y-16403150D02*
X15579587Y-16412674D01*
X15579587Y-16412674D02*
X15570063Y-16422198D01*
X15779587Y-16536484D02*
X15760539Y-16526960D01*
X15760539Y-16526960D02*
X15751015Y-16517436D01*
X15751015Y-16517436D02*
X15741491Y-16498388D01*
X15741491Y-16498388D02*
X15741491Y-16441246D01*
X15741491Y-16441246D02*
X15751015Y-16422198D01*
X15751015Y-16422198D02*
X15760539Y-16412674D01*
X15760539Y-16412674D02*
X15779587Y-16403150D01*
X15779587Y-16403150D02*
X15808158Y-16403150D01*
X15808158Y-16403150D02*
X15827206Y-16412674D01*
X15827206Y-16412674D02*
X15836730Y-16422198D01*
X15836730Y-16422198D02*
X15846253Y-16441246D01*
X15846253Y-16441246D02*
X15846253Y-16498388D01*
X15846253Y-16498388D02*
X15836730Y-16517436D01*
X15836730Y-16517436D02*
X15827206Y-16526960D01*
X15827206Y-16526960D02*
X15808158Y-16536484D01*
X15808158Y-16536484D02*
X15779587Y-16536484D01*
X15960539Y-16536484D02*
X15941491Y-16526960D01*
X15941491Y-16526960D02*
X15931968Y-16507912D01*
X15931968Y-16507912D02*
X15931968Y-16336484D01*
X16112920Y-16526960D02*
X16093872Y-16536484D01*
X16093872Y-16536484D02*
X16055777Y-16536484D01*
X16055777Y-16536484D02*
X16036730Y-16526960D01*
X16036730Y-16526960D02*
X16027206Y-16507912D01*
X16027206Y-16507912D02*
X16027206Y-16431722D01*
X16027206Y-16431722D02*
X16036730Y-16412674D01*
X16036730Y-16412674D02*
X16055777Y-16403150D01*
X16055777Y-16403150D02*
X16093872Y-16403150D01*
X16093872Y-16403150D02*
X16112920Y-16412674D01*
X16112920Y-16412674D02*
X16122444Y-16431722D01*
X16122444Y-16431722D02*
X16122444Y-16450769D01*
X16122444Y-16450769D02*
X16027206Y-16469817D01*
X16198634Y-16526960D02*
X16217682Y-16536484D01*
X16217682Y-16536484D02*
X16255777Y-16536484D01*
X16255777Y-16536484D02*
X16274825Y-16526960D01*
X16274825Y-16526960D02*
X16284349Y-16507912D01*
X16284349Y-16507912D02*
X16284349Y-16498388D01*
X16284349Y-16498388D02*
X16274825Y-16479341D01*
X16274825Y-16479341D02*
X16255777Y-16469817D01*
X16255777Y-16469817D02*
X16227206Y-16469817D01*
X16227206Y-16469817D02*
X16208158Y-16460293D01*
X16208158Y-16460293D02*
X16198634Y-16441246D01*
X16198634Y-16441246D02*
X16198634Y-16431722D01*
X16198634Y-16431722D02*
X16208158Y-16412674D01*
X16208158Y-16412674D02*
X16227206Y-16403150D01*
X16227206Y-16403150D02*
X16255777Y-16403150D01*
X16255777Y-16403150D02*
X16274825Y-16412674D01*
X16351015Y-16612674D02*
X16360539Y-16603150D01*
X16360539Y-16603150D02*
X16379587Y-16574579D01*
X16379587Y-16574579D02*
X16389111Y-16555531D01*
X16389111Y-16555531D02*
X16398634Y-16526960D01*
X16398634Y-16526960D02*
X16408158Y-16479341D01*
X16408158Y-16479341D02*
X16408158Y-16441246D01*
X16408158Y-16441246D02*
X16398634Y-16393627D01*
X16398634Y-16393627D02*
X16389111Y-16365055D01*
X16389111Y-16365055D02*
X16379587Y-16346008D01*
X16379587Y-16346008D02*
X16360539Y-16317436D01*
X16360539Y-16317436D02*
X16351015Y-16307912D01*
M02*
