M48
; DRILL file KiCad 10.0.4 date 2026-08-31T16:31:31
; FORMAT={-:-/ absolute / metric / decimal}
; #@! TF.CreationDate,2026-08-31T16:31:31+02:00
; #@! TF.GenerationSoftware,Kicad,Pcbnew,10.0.4
; #@! TF.FileFunction,Plated,1,4,PTH
FMAT,2
METRIC
; #@! TA.AperFunction,Plated,PTH,ViaDrill
T1C0.100
%
G90
G05
T1
X116.0Y-140.4
X116.0Y-155.6
X117.927Y-142.058
X118.322Y-150.317
X118.461Y-151.248
X118.878Y-148.6
X118.884Y-146.289
X119.319Y-149.865
X119.835Y-145.595
X120.0Y-140.4
X120.0Y-155.6
X120.223Y-152.147
X120.25Y-146.25
X120.25Y-149.75
X120.387Y-150.607
X121.009Y-142.57
X121.208Y-149.792
X122.082Y-152.052
X122.75Y-145.301
X122.773Y-150.667
X123.25Y-146.25
X123.25Y-149.75
X124.0Y-140.4
X124.0Y-155.6
X125.046Y-152.526
X128.0Y-140.4
X128.0Y-155.6
X128.51Y-142.066
X133.28Y-144.906
X134.0Y-145.4
X134.0Y-150.6
X137.0Y-145.4
X137.0Y-150.6
X140.0Y-145.4
X140.0Y-150.6
X143.0Y-145.4
X143.0Y-150.6
X146.0Y-145.4
X146.0Y-150.6
X149.0Y-145.4
X149.0Y-150.6
X152.0Y-145.4
X152.0Y-150.6
X155.0Y-145.4
X155.0Y-150.6
X158.0Y-145.4
X158.0Y-150.6
X161.0Y-145.4
X161.0Y-150.6
X164.0Y-138.7
X164.0Y-157.3
X167.298Y-151.98
X168.0Y-138.7
X168.0Y-157.3
X170.913Y-146.382
X172.0Y-138.7
X172.666Y-140.052
X173.704Y-149.369
X174.1Y-142.014
X174.25Y-149.353
X174.671Y-151.13
X175.1Y-142.003
X175.25Y-151.133
X175.829Y-151.131
X176.0Y-138.7
X176.533Y-151.351
X179.176Y-148.768
X179.844Y-149.448
X180.0Y-138.7
X180.965Y-149.587
X181.575Y-149.603
X181.727Y-151.317
X182.059Y-151.651
X182.189Y-149.542
X182.443Y-150.934
X182.551Y-152.365
X182.697Y-151.603
X182.761Y-144.89
X183.876Y-144.504
X184.0Y-138.7
X184.0Y-157.3
X184.633Y-142.466
X185.032Y-151.02
X185.307Y-149.2
X186.045Y-141.16
X187.475Y-146.805
X187.51Y-145.7
X187.679Y-146.2
X188.0Y-138.7
X188.0Y-157.3
X189.536Y-153.597
X189.653Y-143.95
X189.749Y-148.856
X189.815Y-147.51
X189.859Y-148.078
X190.052Y-149.337
X190.109Y-149.8
X190.118Y-145.422
X190.407Y-148.576
X190.409Y-147.0
X190.421Y-146.566
X190.423Y-148.069
X190.434Y-152.044
X190.437Y-152.659
X190.643Y-154.297
X190.722Y-150.528
X191.274Y-150.803
X191.418Y-145.192
X191.466Y-151.244
X192.0Y-138.7
X192.0Y-157.3
X192.196Y-151.578
X192.282Y-151.935
X192.315Y-144.371
X192.5Y-142.647
X192.746Y-152.348
X192.879Y-153.14
X192.952Y-151.771
X193.0Y-144.411
X193.282Y-145.85
X193.382Y-152.124
X193.484Y-152.677
X193.556Y-144.417
X194.189Y-144.423
X194.6Y-151.583
X195.015Y-151.999
X195.618Y-144.431
X196.0Y-138.7
X196.0Y-157.3
X196.537Y-144.954
X196.82Y-152.402
X196.845Y-154.516
X197.254Y-151.56
X197.579Y-146.6
X197.58Y-150.369
X197.584Y-147.0
X197.585Y-146.182
X197.829Y-150.008
X197.906Y-149.021
X197.934Y-147.639
X197.998Y-140.968
X198.013Y-146.861
X198.042Y-141.449
X198.772Y-141.395
X199.458Y-147.704
X199.477Y-147.257
X200.0Y-138.7
X200.0Y-157.3
X200.02Y-142.552
X201.575Y-142.0
X203.715Y-146.279
X204.0Y-138.7
X204.0Y-157.3
X204.066Y-152.546
X204.15Y-142.386
X204.581Y-141.553
X205.069Y-142.317
X205.15Y-141.631
X205.172Y-150.95
X205.357Y-149.794
X205.394Y-143.552
X206.759Y-141.791
X207.652Y-142.599
X207.764Y-150.027
X208.0Y-138.7
X208.0Y-157.3
X208.09Y-140.968
X208.198Y-147.275
X208.206Y-146.454
X208.315Y-152.128
X208.492Y-143.759
X208.65Y-152.814
X209.063Y-146.134
X209.087Y-148.075
X209.174Y-144.89
X209.625Y-144.084
X209.94Y-142.5
X210.021Y-152.356
X210.072Y-144.512
X212.0Y-138.7
X212.0Y-157.3
X212.044Y-142.024
X213.051Y-152.227
X213.39Y-143.51
X213.465Y-150.183
X214.574Y-143.116
X215.371Y-146.188
X215.409Y-146.744
X215.475Y-147.625
X216.0Y-138.7
X216.479Y-143.125
X216.485Y-152.076
X217.151Y-144.141
X217.325Y-147.789
X217.435Y-143.882
X217.832Y-147.624
X218.094Y-142.074
X220.0Y-138.7
X220.0Y-142.229
X221.035Y-147.575
X221.232Y-152.905
X222.625Y-148.243
X223.02Y-151.02
X223.25Y-153.052
X223.994Y-152.634
X224.0Y-138.7
X224.341Y-142.542
X224.868Y-155.577
X225.129Y-148.536
X226.029Y-156.938
X226.928Y-149.698
X227.141Y-146.589
X227.143Y-155.577
X227.224Y-150.65
X227.364Y-149.23
X227.371Y-148.575
X227.913Y-141.159
X227.928Y-148.264
X227.952Y-144.126
X228.0Y-138.7
X228.285Y-155.24
X228.427Y-156.556
X228.5Y-153.905
X228.672Y-153.351
X228.719Y-146.052
X228.854Y-156.492
X229.332Y-152.177
X229.424Y-153.539
X229.574Y-149.087
X229.59Y-151.937
X229.785Y-155.35
X229.79Y-154.087
X229.804Y-150.39
X229.94Y-146.05
X230.176Y-141.159
X231.367Y-157.323
X231.378Y-146.182
X232.0Y-138.7
X232.0Y-157.3
X232.463Y-156.383
X232.59Y-154.655
X232.762Y-146.889
X232.93Y-141.415
X233.027Y-147.453
X233.095Y-151.87
X233.101Y-155.315
X233.152Y-152.308
X233.65Y-144.709
X234.098Y-155.707
X234.429Y-155.255
X234.784Y-145.535
X234.958Y-146.05
X235.034Y-149.368
X235.035Y-150.019
X235.209Y-151.35
X235.266Y-152.429
X235.592Y-153.775
X236.0Y-138.7
X236.0Y-157.3
X236.289Y-140.056
X236.325Y-148.718
X237.194Y-155.351
X237.207Y-153.309
X237.4Y-147.102
X237.699Y-155.071
X237.883Y-152.577
X238.189Y-148.658
X238.702Y-140.381
X238.738Y-155.036
X239.087Y-147.761
X239.206Y-155.351
X239.979Y-155.158
X240.0Y-138.7
X240.0Y-157.3
X241.045Y-157.323
X241.368Y-147.378
X242.129Y-141.839
X242.248Y-142.455
X242.378Y-141.59
X242.629Y-154.544
X242.684Y-141.399
X242.978Y-141.751
X243.043Y-141.399
X243.387Y-154.328
X243.436Y-149.066
X243.605Y-141.399
X244.0Y-138.7
X244.0Y-157.3
X244.069Y-141.524
X244.239Y-141.197
X244.732Y-141.197
X244.891Y-157.222
X245.044Y-151.879
X245.187Y-141.082
X245.42Y-156.637
X245.587Y-154.176
X245.65Y-141.384
X246.086Y-150.186
X246.377Y-150.421
X246.42Y-141.036
X246.546Y-153.218
X247.027Y-151.868
X247.15Y-141.601
X247.341Y-149.871
X247.371Y-155.034
X247.614Y-152.525
X247.615Y-153.42
X247.619Y-149.244
X247.621Y-141.601
X247.622Y-153.966
X247.898Y-141.903
X248.0Y-138.7
X248.0Y-157.3
X248.549Y-141.176
X249.477Y-141.028
X250.024Y-141.054
X250.782Y-141.71
X250.819Y-141.045
X251.159Y-141.388
X251.18Y-138.59
X252.0Y-138.7
X252.0Y-157.3
X253.967Y-153.12
X254.073Y-152.769
X254.229Y-151.812
X254.445Y-150.77
X254.447Y-149.275
X254.45Y-149.944
X254.469Y-152.097
X254.612Y-151.174
X254.614Y-155.76
X254.618Y-154.487
X255.156Y-157.389
X256.0Y-138.7
X256.0Y-157.3
X257.065Y-148.621
X261.0Y-145.4
X261.0Y-150.6
X264.0Y-145.4
X264.0Y-150.6
X267.0Y-145.4
X267.0Y-150.6
X270.0Y-145.4
X270.0Y-150.6
X273.0Y-145.4
X273.0Y-150.6
X276.0Y-145.4
X276.0Y-150.6
X279.0Y-145.4
X279.0Y-150.6
X282.0Y-145.4
X282.0Y-150.6
X285.0Y-145.4
X285.0Y-150.6
X288.0Y-145.4
X288.0Y-150.6
X291.492Y-143.179
X292.0Y-140.4
X292.0Y-155.6
X293.801Y-152.409
X294.936Y-142.916
X295.333Y-147.531
X296.0Y-140.4
X296.0Y-155.6
X296.101Y-151.995
X296.484Y-146.779
X296.485Y-148.773
X296.75Y-146.25
X296.75Y-149.75
X297.021Y-150.6
X297.378Y-144.861
X297.947Y-151.988
X298.25Y-145.117
X298.299Y-147.531
X299.165Y-145.392
X299.75Y-146.25
X299.75Y-149.75
X299.75Y-150.68
X300.0Y-140.4
X300.0Y-155.6
X300.105Y-145.791
X300.716Y-146.25
X300.749Y-147.391
X301.005Y-142.5
X301.397Y-149.776
X304.0Y-140.4
X304.0Y-155.6
M30
