M48
; DRILL file KiCad 10.0.4 date 2026-08-31T10:03:01
; FORMAT={-:-/ absolute / metric / decimal}
; #@! TF.CreationDate,2026-08-31T10:03:01+02:00
; #@! TF.GenerationSoftware,Kicad,Pcbnew,10.0.4
; #@! TF.FileFunction,Plated,1,4,PTH
FMAT,2
METRIC
; #@! TA.AperFunction,Plated,PTH,ViaDrill
T1C0.100
%
G90
G05
T1
X116.0Y-140.4
X116.0Y-155.6
X117.927Y-142.058
X118.228Y-150.25
X119.34Y-149.865
X119.389Y-148.25
X119.41Y-146.413
X119.866Y-145.56
X120.0Y-140.4
X120.0Y-155.6
X120.161Y-152.209
X120.25Y-146.25
X120.25Y-149.75
X120.936Y-142.57
X121.137Y-150.621
X122.705Y-152.074
X122.75Y-145.319
X122.86Y-150.663
X123.068Y-151.306
X123.25Y-146.25
X123.25Y-149.75
X123.428Y-148.562
X123.44Y-147.227
X124.0Y-140.4
X124.0Y-155.6
X125.046Y-152.526
X128.0Y-140.4
X128.0Y-155.6
X128.51Y-142.066
X134.0Y-145.4
X134.0Y-150.6
X137.0Y-145.4
X137.0Y-150.6
X140.0Y-145.4
X140.0Y-150.6
X143.0Y-145.4
X143.0Y-150.6
X146.0Y-145.4
X146.0Y-150.6
X149.0Y-145.4
X149.0Y-150.6
X152.0Y-145.4
X152.0Y-150.6
X155.0Y-145.4
X155.0Y-150.6
X158.0Y-145.4
X158.0Y-150.6
X161.0Y-145.4
X161.0Y-150.6
X162.342Y-151.973
X164.0Y-138.7
X164.0Y-157.3
X166.153Y-145.676
X167.999Y-152.0
X168.0Y-138.7
X168.0Y-157.3
X169.753Y-145.676
X170.639Y-147.379
X172.0Y-138.7
X173.854Y-141.0
X174.634Y-149.367
X175.456Y-142.012
X175.602Y-149.372
X176.0Y-138.7
X176.032Y-151.197
X176.312Y-139.992
X176.49Y-151.129
X177.154Y-151.292
X178.807Y-151.226
X180.0Y-138.7
X180.957Y-148.899
X181.607Y-148.24
X181.609Y-152.695
X182.189Y-152.117
X182.204Y-150.722
X182.821Y-152.472
X183.065Y-150.281
X184.0Y-138.7
X184.0Y-157.3
X184.573Y-150.409
X184.975Y-153.236
X184.986Y-142.342
X185.235Y-149.2
X185.261Y-151.124
X185.565Y-151.686
X185.635Y-150.95
X185.976Y-150.779
X186.539Y-153.24
X186.567Y-154.828
X187.12Y-146.834
X188.0Y-138.7
X188.0Y-157.3
X188.44Y-145.42
X189.177Y-148.557
X189.384Y-153.597
X189.532Y-146.858
X189.67Y-148.408
X189.814Y-146.313
X189.873Y-150.002
X189.884Y-143.813
X189.906Y-148.102
X189.962Y-148.994
X190.126Y-147.826
X190.358Y-148.377
X190.423Y-145.794
X190.423Y-146.156
X191.012Y-150.756
X191.285Y-144.031
X191.398Y-145.05
X191.658Y-153.426
X191.761Y-152.166
X192.0Y-138.7
X192.0Y-157.3
X192.31Y-152.448
X192.531Y-144.417
X192.946Y-152.586
X193.037Y-151.731
X193.06Y-154.828
X193.258Y-153.364
X193.345Y-145.719
X193.646Y-143.816
X193.8Y-144.411
X194.016Y-151.56
X194.31Y-154.82
X194.6Y-151.775
X194.977Y-143.902
X195.0Y-144.41
X195.798Y-144.125
X196.0Y-138.7
X196.0Y-157.3
X196.33Y-153.592
X196.536Y-151.117
X196.925Y-151.061
X197.037Y-142.401
X197.042Y-142.836
X197.32Y-143.471
X197.578Y-149.691
X197.593Y-146.2
X197.593Y-146.6
X197.64Y-149.138
X197.686Y-147.867
X197.883Y-146.962
X197.912Y-147.314
X197.935Y-148.407
X198.096Y-149.074
X198.772Y-141.394
X198.772Y-147.415
X198.772Y-153.331
X199.08Y-149.252
X199.249Y-141.88
X200.0Y-138.7
X200.0Y-157.3
X201.392Y-141.201
X201.575Y-142.0
X202.821Y-142.672
X203.955Y-153.0
X204.0Y-138.7
X204.0Y-157.3
X204.084Y-153.487
X204.15Y-142.386
X204.65Y-141.553
X204.978Y-154.085
X205.15Y-141.631
X205.16Y-151.717
X207.087Y-142.675
X207.506Y-153.778
X207.645Y-146.706
X207.649Y-150.972
X207.659Y-142.752
X207.763Y-154.578
X207.78Y-151.414
X208.0Y-138.7
X208.0Y-157.3
X208.651Y-152.906
X209.061Y-147.276
X209.085Y-146.125
X209.174Y-144.89
X209.308Y-144.371
X209.568Y-152.128
X209.929Y-142.78
X210.079Y-157.078
X210.344Y-152.908
X211.25Y-157.244
X211.438Y-143.829
X211.752Y-150.074
X212.0Y-138.7
X212.0Y-157.3
X212.498Y-143.091
X212.623Y-157.244
X212.885Y-143.55
X213.369Y-152.998
X214.03Y-142.076
X215.358Y-145.792
X215.408Y-147.7
X215.427Y-146.775
X216.0Y-138.7
X216.036Y-142.016
X216.475Y-144.512
X216.494Y-152.005
X218.096Y-142.076
X219.98Y-147.625
X220.0Y-138.7
X220.543Y-147.624
X222.78Y-148.502
X222.959Y-151.02
X222.967Y-147.378
X224.0Y-138.7
X224.341Y-142.542
X224.588Y-149.744
X224.975Y-148.16
X225.35Y-142.3
X225.95Y-150.075
X226.538Y-146.446
X227.138Y-146.808
X227.295Y-150.51
X227.356Y-148.575
X227.364Y-147.775
X227.368Y-149.232
X227.914Y-141.159
X228.0Y-138.7
X228.07Y-156.102
X228.502Y-153.885
X228.707Y-143.857
X229.17Y-146.941
X229.308Y-152.466
X229.317Y-151.942
X229.371Y-150.39
X229.453Y-155.572
X229.782Y-154.179
X229.928Y-154.58
X230.164Y-146.045
X230.847Y-156.811
X230.946Y-154.798
X230.985Y-150.0
X231.245Y-157.078
X231.413Y-140.95
X231.464Y-146.6
X231.669Y-145.265
X232.0Y-138.7
X232.0Y-157.3
X232.065Y-152.775
X232.105Y-154.46
X232.306Y-149.232
X232.572Y-146.097
X232.611Y-145.323
X232.75Y-146.557
X232.759Y-155.898
X232.83Y-154.654
X232.901Y-153.542
X232.93Y-141.415
X233.038Y-152.231
X233.095Y-151.847
X234.538Y-148.25
X235.035Y-149.543
X235.041Y-150.109
X235.245Y-150.776
X235.317Y-155.623
X236.0Y-138.7
X236.0Y-157.3
X236.53Y-154.779
X236.583Y-146.36
X236.758Y-146.743
X237.131Y-149.719
X237.154Y-153.597
X237.445Y-152.512
X237.635Y-148.433
X237.656Y-151.256
X237.912Y-155.393
X238.724Y-145.648
X238.926Y-145.111
X239.072Y-155.218
X239.229Y-156.811
X239.6Y-157.244
X239.913Y-155.218
X240.0Y-138.7
X240.0Y-157.3
X240.356Y-148.039
X241.257Y-148.359
X241.301Y-155.974
X241.435Y-141.314
X241.641Y-155.0
X241.787Y-141.03
X242.841Y-142.456
X243.006Y-149.03
X243.542Y-142.06
X243.716Y-154.276
X243.726Y-151.461
X243.778Y-138.977
X243.828Y-141.775
X244.0Y-138.7
X244.0Y-157.3
X244.038Y-152.792
X244.184Y-141.583
X244.214Y-142.563
X244.536Y-141.584
X244.887Y-141.581
X244.92Y-154.479
X245.15Y-139.204
X245.255Y-155.607
X245.336Y-152.968
X245.814Y-139.014
X246.046Y-141.056
X246.316Y-138.733
X246.58Y-147.378
X246.616Y-152.133
X246.65Y-141.03
X246.684Y-151.041
X246.996Y-150.856
X247.15Y-141.206
X247.267Y-149.9
X247.345Y-154.854
X247.375Y-153.695
X247.468Y-149.188
X248.0Y-138.7
X248.0Y-157.3
X248.014Y-141.488
X248.167Y-142.094
X248.283Y-141.716
X249.276Y-141.528
X249.65Y-141.03
X250.15Y-141.03
X250.65Y-141.04
X251.038Y-141.391
X251.372Y-157.577
X251.38Y-152.733
X251.529Y-155.793
X251.804Y-141.155
X252.0Y-138.7
X252.0Y-157.3
X252.229Y-157.008
X252.315Y-154.996
X252.836Y-154.475
X253.841Y-155.793
X253.929Y-152.67
X254.545Y-152.254
X254.611Y-150.63
X254.613Y-151.875
X254.614Y-149.981
X254.617Y-151.214
X254.621Y-149.391
X256.0Y-138.7
X256.0Y-157.3
X257.065Y-148.622
X261.0Y-145.4
X261.0Y-150.6
X264.0Y-145.4
X264.0Y-150.6
X267.0Y-145.4
X267.0Y-150.6
X270.0Y-145.4
X270.0Y-150.6
X273.0Y-145.4
X273.0Y-150.6
X276.0Y-145.4
X276.0Y-150.6
X279.0Y-145.4
X279.0Y-150.6
X282.0Y-145.4
X282.0Y-150.6
X285.0Y-145.4
X285.0Y-150.6
X288.0Y-145.4
X288.0Y-150.6
X291.492Y-143.179
X292.0Y-140.4
X292.0Y-155.6
X293.801Y-152.41
X294.936Y-142.916
X296.0Y-140.4
X296.0Y-155.6
X296.1Y-151.995
X296.318Y-147.437
X296.75Y-146.25
X296.75Y-149.75
X297.014Y-145.388
X297.25Y-150.678
X297.947Y-151.988
X299.335Y-145.396
X299.75Y-146.25
X299.75Y-149.75
X299.75Y-150.68
X300.0Y-140.4
X300.0Y-155.6
X300.105Y-145.816
X300.616Y-150.234
X300.665Y-146.25
X300.796Y-142.548
X301.093Y-149.712
X301.1Y-148.6
X301.367Y-144.89
X301.682Y-149.25
X304.0Y-140.4
X304.0Y-155.6
M30
