%TF.GenerationSoftware,KiCad,Pcbnew,10.0.4*%
%TF.CreationDate,2026-08-31T16:36:30+02:00*%
%TF.ProjectId,smartbag_core,736d6172-7462-4616-975f-636f72652e6b,rev?*%
%TF.SameCoordinates,Original*%
%TF.FileFunction,Copper,L3,Inr*%
%TF.FilePolarity,Positive*%
%FSLAX46Y46*%
G04 Gerber Fmt 4.6, Leading zero omitted, Abs format (unit mm)*
G04 Created by KiCad (PCBNEW 10.0.4) date 2026-08-31 16:36:30*
%MOMM*%
%LPD*%
G01*
G04 APERTURE LIST*
%TA.AperFunction,ViaPad*%
%ADD10C,0.250000*%
%TD*%
%TA.AperFunction,Conductor*%
%ADD11C,0.100000*%
%TD*%
%TA.AperFunction,Conductor*%
%ADD12C,0.300000*%
%TD*%
G04 APERTURE END LIST*
D10*
%TO.N,FSR_C6*%
X244239000Y-141197000D03*
X247341000Y-149871000D03*
X242629000Y-154544000D03*
%TO.N,VREF*%
X235035000Y-150019000D03*
X235592000Y-153775000D03*
X234784000Y-145535000D03*
%TO.N,FSR_SINK*%
X233650000Y-144709000D03*
X238189000Y-148658000D03*
%TO.N,FSR_C7*%
X244732000Y-141197000D03*
X243387000Y-154328000D03*
X247619000Y-149244000D03*
%TO.N,FSR_C5*%
X246377000Y-150421000D03*
X238738000Y-155036000D03*
X243605000Y-141399000D03*
%TO.N,FSR_C4*%
X246086000Y-150186000D03*
X237699000Y-155071000D03*
X242978000Y-141751000D03*
%TO.N,FSR_C3*%
X243043000Y-141399000D03*
X239206000Y-155351000D03*
X234098000Y-155707000D03*
X247027000Y-151868000D03*
X245044000Y-151879000D03*
%TO.N,FSR_C2*%
X242684000Y-141399000D03*
X233101000Y-155315000D03*
X247614000Y-152525000D03*
%TO.N,FSR_C1*%
X242378000Y-141590000D03*
X247615000Y-153420000D03*
X229785000Y-155350000D03*
%TO.N,FSR_C0*%
X227143000Y-155577000D03*
X242129000Y-141839000D03*
X247622000Y-153966000D03*
%TO.N,MUX_S0*%
X237883000Y-152577000D03*
X223994000Y-152634000D03*
X190421000Y-146566000D03*
%TO.N,MUX_S1*%
X247371000Y-155034000D03*
X223250000Y-153052000D03*
X229424000Y-153539000D03*
X190409000Y-147000000D03*
%TO.N,GND*%
X155000000Y-145400000D03*
X236000000Y-157300000D03*
X168000000Y-138700000D03*
X276000000Y-150600000D03*
X232000000Y-157300000D03*
X296000000Y-155600000D03*
X288000000Y-145400000D03*
X296000000Y-140400000D03*
X270000000Y-150600000D03*
X212000000Y-138700000D03*
X204000000Y-157300000D03*
X208000000Y-157300000D03*
X149000000Y-150600000D03*
X116000000Y-155600000D03*
X264000000Y-150600000D03*
X304000000Y-155600000D03*
X155000000Y-150600000D03*
X273000000Y-145400000D03*
X188000000Y-138700000D03*
X137000000Y-145400000D03*
X204000000Y-138700000D03*
X143000000Y-150600000D03*
X256000000Y-138700000D03*
X232000000Y-138700000D03*
X196000000Y-138700000D03*
X273000000Y-150600000D03*
X300000000Y-140400000D03*
X180000000Y-138700000D03*
X152000000Y-150600000D03*
X168000000Y-157300000D03*
X192000000Y-157300000D03*
X217832000Y-147624000D03*
X158000000Y-150600000D03*
X282000000Y-150600000D03*
X267000000Y-145400000D03*
X240000000Y-157300000D03*
X220000000Y-138700000D03*
X248000000Y-138700000D03*
X212000000Y-157300000D03*
X279000000Y-150600000D03*
X267000000Y-150600000D03*
X304000000Y-140400000D03*
X264000000Y-145400000D03*
X146000000Y-145400000D03*
X134000000Y-145400000D03*
X124000000Y-140400000D03*
X184000000Y-138700000D03*
X120000000Y-155600000D03*
X292000000Y-155600000D03*
X193282000Y-145850000D03*
X261000000Y-150600000D03*
X161000000Y-145400000D03*
X248000000Y-157300000D03*
X244000000Y-157300000D03*
X161000000Y-150600000D03*
X276000000Y-145400000D03*
X285000000Y-145400000D03*
X158000000Y-145400000D03*
X128000000Y-140400000D03*
X192000000Y-138700000D03*
X116000000Y-140400000D03*
X236000000Y-138700000D03*
X140000000Y-150600000D03*
X152000000Y-145400000D03*
X252000000Y-157300000D03*
X124000000Y-155600000D03*
X184000000Y-157300000D03*
X200000000Y-157300000D03*
X244000000Y-138700000D03*
X176000000Y-138700000D03*
X240000000Y-138700000D03*
X143000000Y-145400000D03*
X164000000Y-157300000D03*
X208000000Y-138700000D03*
X229804000Y-150390000D03*
X200000000Y-138700000D03*
X224000000Y-138700000D03*
X252000000Y-138700000D03*
X270000000Y-145400000D03*
X134000000Y-150600000D03*
X120000000Y-140400000D03*
X279000000Y-145400000D03*
X256000000Y-157300000D03*
X172000000Y-138700000D03*
X300000000Y-155600000D03*
X285000000Y-150600000D03*
X243436000Y-149066000D03*
X188000000Y-157300000D03*
X216000000Y-138700000D03*
X190118000Y-145422000D03*
X261000000Y-145400000D03*
X288000000Y-150600000D03*
X128000000Y-155600000D03*
X140000000Y-145400000D03*
X196000000Y-157300000D03*
X164000000Y-138700000D03*
X292000000Y-140400000D03*
X149000000Y-145400000D03*
X282000000Y-145400000D03*
X137000000Y-150600000D03*
X228000000Y-138700000D03*
X146000000Y-150600000D03*
%TO.N,MUX_S3*%
X190109000Y-149800000D03*
X231367000Y-157323000D03*
X190437000Y-152659000D03*
X193484000Y-152677000D03*
X254614000Y-155760000D03*
X241045000Y-157323000D03*
%TO.N,MUX_S2*%
X232463000Y-156384000D03*
X190052000Y-149337000D03*
%TO.N,MUX_EN_N*%
X254618000Y-154487000D03*
X195015000Y-151999000D03*
X224868000Y-155577000D03*
X226030000Y-156938000D03*
%TO.N,FSR_C15*%
X246546000Y-153218000D03*
X253967000Y-153120000D03*
X248549000Y-141176000D03*
%TO.N,FSR_C14*%
X250782000Y-141710000D03*
X245587000Y-154176000D03*
X254073000Y-152769000D03*
%TO.N,FSR_C13*%
X247621000Y-141601000D03*
X239979000Y-155158000D03*
X254469000Y-152097000D03*
%TO.N,FSR_C12*%
X254229000Y-151812000D03*
X237194000Y-155351000D03*
X247150000Y-141601000D03*
%TO.N,FSR_C11*%
X234429000Y-155255000D03*
X254612000Y-151174000D03*
X246420000Y-141036000D03*
%TO.N,FSR_C10*%
X247898000Y-141903000D03*
X242248000Y-142455000D03*
X254445000Y-150770000D03*
X232590000Y-154655000D03*
%TO.N,FSR_C9*%
X254450000Y-149944000D03*
X245650000Y-141384000D03*
X229790000Y-154087000D03*
X244069000Y-141524000D03*
%TO.N,FSR_C8*%
X245187000Y-141082000D03*
X228500000Y-153905000D03*
X254447000Y-149275000D03*
%TO.N,VDD_3V3*%
X172666000Y-140052000D03*
X227914000Y-141159000D03*
X119319000Y-149865000D03*
X201575000Y-142000000D03*
X206759000Y-141791000D03*
X204066000Y-152546000D03*
X232930000Y-141415000D03*
X125046000Y-152526000D03*
X293801000Y-152410000D03*
X212044000Y-142024000D03*
X227224000Y-150650000D03*
X299750000Y-150680000D03*
X205150000Y-141631000D03*
X119835000Y-145595000D03*
X300716000Y-146250000D03*
X196820000Y-152402000D03*
X182551000Y-152365000D03*
X198772000Y-141395000D03*
X210072000Y-144512000D03*
X213051000Y-152227000D03*
X204150000Y-142386000D03*
X199478000Y-147258000D03*
X227952000Y-144126000D03*
X191418000Y-145192000D03*
X189536000Y-153597000D03*
X185307000Y-149200000D03*
X230176000Y-141159000D03*
X235209000Y-151350000D03*
X257065000Y-148622000D03*
%TO.N,IR_LED_EN*%
X196537000Y-144954000D03*
X183876000Y-144504000D03*
%TO.N,VBUSOUT*%
X215371000Y-146188000D03*
X218094000Y-142074000D03*
%TO.N,VDD_CAM*%
X173704000Y-149369000D03*
X213466000Y-150183000D03*
X213390000Y-143510000D03*
X191466000Y-151244000D03*
%TO.N,SPI_SCK*%
X301397000Y-149776000D03*
X190722000Y-150528000D03*
X174250000Y-149353000D03*
X228428000Y-156556000D03*
X133280000Y-144906000D03*
X255156000Y-157389000D03*
%TO.N,SPI_MOSI*%
X191274000Y-150803000D03*
X300749000Y-147391000D03*
X118878000Y-148600000D03*
X174671000Y-151130000D03*
X296484000Y-146779000D03*
%TO.N,SPI_MISO*%
X190643000Y-154297000D03*
X245420000Y-156637000D03*
X228285000Y-155240000D03*
X175250000Y-151133000D03*
X192282000Y-151935000D03*
X118884000Y-146289000D03*
X196845000Y-154516000D03*
X296485000Y-148773000D03*
%TO.N,CS_CAM*%
X192746000Y-152348000D03*
X175829000Y-151131000D03*
%TO.N,I2C_SDA*%
X198042000Y-141449000D03*
X179176000Y-148768000D03*
X198013000Y-146861000D03*
X207764000Y-150027000D03*
X199458000Y-147704000D03*
X197254000Y-151560000D03*
%TO.N,I2C_SCL*%
X181727000Y-151317000D03*
X205172000Y-150950000D03*
X200020000Y-142552000D03*
X204581000Y-141553000D03*
X205069000Y-142317000D03*
X176533000Y-151351000D03*
%TO.N,TOF_XSHUT*%
X195618000Y-144431000D03*
X179844000Y-149448000D03*
%TO.N,TOF_INT*%
X182059000Y-151651000D03*
X194188000Y-144423000D03*
%TO.N,VSYS*%
X203715000Y-146279000D03*
X182443000Y-150934000D03*
X207652000Y-142599000D03*
X217435000Y-143882000D03*
X224341000Y-142542000D03*
X221035000Y-147575000D03*
X208206000Y-146454000D03*
%TO.N,IR_LED_K*%
X182761000Y-144890000D03*
X181575000Y-149603000D03*
%TO.N,VBAT*%
X216485000Y-152076000D03*
X215475000Y-147625000D03*
X214574000Y-143116000D03*
%TO.N,X24L_2*%
X117927000Y-142058000D03*
X128510000Y-142066000D03*
X121208000Y-149792000D03*
%TO.N,XTAL32K_2*%
X187679000Y-146200000D03*
X189653000Y-143950000D03*
%TO.N,VDD_1V8*%
X299750000Y-146250000D03*
X297021000Y-150600000D03*
X122750000Y-145301000D03*
X120250000Y-149750000D03*
X120223000Y-152147000D03*
X297378000Y-144861000D03*
X297947000Y-151988000D03*
X296750000Y-146250000D03*
X123250000Y-149750000D03*
X209174000Y-144890000D03*
X210021000Y-152356000D03*
X296100000Y-151995000D03*
X208090000Y-140968000D03*
X122773000Y-150667000D03*
X122082000Y-152052000D03*
X296750000Y-149750000D03*
X209940000Y-142500000D03*
X197998000Y-140968000D03*
X123250000Y-146250000D03*
%TO.N,SW2*%
X208198000Y-147275000D03*
X208315000Y-152128000D03*
%TO.N,X24L_1*%
X120387000Y-150607000D03*
X121009000Y-142570000D03*
%TO.N,VQI*%
X223020000Y-151020000D03*
X215409000Y-146744000D03*
X216479000Y-143126000D03*
%TO.N,DECD*%
X187475000Y-146805000D03*
X193000000Y-144411000D03*
%TO.N,NTC*%
X217325000Y-147789000D03*
X220000000Y-142229000D03*
%TO.N,NRESET*%
X209087000Y-148075000D03*
X222625000Y-148243000D03*
%TO.N,X24R_1*%
X291492000Y-143179000D03*
X294936000Y-142916000D03*
X300105000Y-145791000D03*
%TO.N,RADAR_EN*%
X192952000Y-151771000D03*
X298250000Y-145117000D03*
X193382000Y-152124000D03*
X118461000Y-151248000D03*
%TO.N,CS_RADAR_L*%
X192196000Y-151578000D03*
X120250000Y-146250000D03*
%TO.N,RADAR_IRQ_L*%
X192879000Y-153140000D03*
X118322000Y-150317000D03*
%TO.N,ANT_FEED*%
X170913000Y-146382000D03*
X197934000Y-147639000D03*
X167298000Y-151980000D03*
%TO.N,HALL_OUT*%
X189749000Y-148856000D03*
X197906000Y-149021000D03*
X185032000Y-151020000D03*
%TO.N,SWDCLK*%
X180965000Y-149587000D03*
X174100000Y-142014000D03*
X197580000Y-150369000D03*
%TO.N,SWDIO*%
X182189000Y-149542000D03*
X197829000Y-150008000D03*
X175100000Y-142003000D03*
%TO.N,FSR_R0*%
X249477000Y-141028000D03*
X227364000Y-149230000D03*
X229574000Y-149087000D03*
X227141000Y-146589000D03*
%TO.N,FSR_R1*%
X229940000Y-146050000D03*
X236289000Y-140056000D03*
X229590000Y-151937000D03*
%TO.N,FSR_R2*%
X250024000Y-141054000D03*
X233095000Y-151870000D03*
X233027000Y-147453000D03*
%TO.N,FSR_R3*%
X238702000Y-140381000D03*
X234958000Y-146050000D03*
X235034000Y-149368000D03*
X251180000Y-138590000D03*
%TO.N,FSR_R4*%
X250819000Y-141045000D03*
X237400000Y-147102000D03*
%TO.N,FSR_R5*%
X235266000Y-152429000D03*
X239087000Y-147761000D03*
X251160000Y-141388000D03*
%TO.N,X24R_2*%
X301004000Y-142500000D03*
X299165000Y-145392000D03*
%TO.N,CS_RADAR_R*%
X244891000Y-157222000D03*
X190434000Y-152044000D03*
X299750000Y-149750000D03*
X228854000Y-156492000D03*
%TO.N,RADAR_IRQ_R*%
X295333000Y-147531000D03*
X194600000Y-151583000D03*
X298299000Y-147531000D03*
%TO.N,DECRF*%
X192500000Y-142647000D03*
X197584000Y-147000000D03*
%TO.N,ADC3*%
X227928000Y-148264000D03*
X190408000Y-148576000D03*
%TO.N,ADC0*%
X227371000Y-148575000D03*
X228719000Y-146052000D03*
X189815000Y-147510000D03*
%TO.N,ADC1*%
X231378000Y-146182000D03*
X189859000Y-148078000D03*
X229332000Y-152176000D03*
X228672000Y-153351000D03*
%TO.N,ADC2*%
X190423000Y-148069000D03*
X233152000Y-152308000D03*
X232762000Y-146889000D03*
%TO.N,IMU_INT1*%
X205394000Y-143552000D03*
X205358000Y-149794000D03*
%TO.N,DCC*%
X192315000Y-144371000D03*
X182697000Y-151603000D03*
%TO.N,ADC4*%
X209625000Y-144084000D03*
X226928000Y-149698000D03*
X236325000Y-148718000D03*
%TO.N,SW1*%
X209063000Y-146134000D03*
X208650000Y-152814000D03*
%TO.N,DECA*%
X187510000Y-145700000D03*
X193556000Y-144417000D03*
%TO.N,LED0*%
X225128000Y-148536000D03*
X217151000Y-144140000D03*
%TO.N,XTAL32M_1*%
X197579000Y-146600000D03*
X184633000Y-142466000D03*
%TO.N,XTAL32M_2*%
X186045000Y-141160000D03*
X197585000Y-146182000D03*
%TO.N,ADC5*%
X237207000Y-153309000D03*
X241368000Y-147378000D03*
X221232000Y-152905000D03*
X208492000Y-143759000D03*
%TD*%
%TO.N,FSR_C6*%
D11*
X244408000Y-146653000D02*
X247341000Y-149586000D01*
X247341000Y-149871000D02*
X247341000Y-150451000D01*
X246277000Y-151327000D02*
X244922000Y-152682000D01*
X244408000Y-141366000D02*
X244408000Y-146653000D01*
X247341000Y-149586000D02*
X247341000Y-149871000D01*
X244491000Y-152682000D02*
X242629000Y-154544000D01*
X247341000Y-150451000D02*
X246464000Y-151327000D01*
X244239000Y-141197000D02*
X244408000Y-141366000D01*
X244922000Y-152682000D02*
X244491000Y-152682000D01*
X246464000Y-151327000D02*
X246277000Y-151327000D01*
%TO.N,VREF*%
X234865000Y-145535000D02*
X234784000Y-145535000D01*
X235794000Y-150640000D02*
X235173000Y-150019000D01*
X235173000Y-150019000D02*
X235035000Y-150019000D01*
X235173000Y-150019000D02*
X235311000Y-149881000D01*
X235311000Y-149881000D02*
X235311000Y-145980000D01*
X235794000Y-153573000D02*
X235794000Y-150640000D01*
X235592000Y-153775000D02*
X235794000Y-153573000D01*
X235311000Y-145980000D02*
X234865000Y-145535000D01*
%TO.N,FSR_SINK*%
X234355000Y-144709000D02*
X238189000Y-148543000D01*
X238189000Y-148543000D02*
X238189000Y-148658000D01*
X233650000Y-144709000D02*
X234355000Y-144709000D01*
%TO.N,FSR_C7*%
X247619000Y-150498000D02*
X247619000Y-149244000D01*
X247619000Y-149244000D02*
X244732000Y-146358000D01*
X244732000Y-146358000D02*
X244732000Y-141197000D01*
X246410000Y-151707000D02*
X247619000Y-150498000D01*
X243562000Y-154328000D02*
X246182000Y-151707000D01*
X246182000Y-151707000D02*
X246410000Y-151707000D01*
X243387000Y-154328000D02*
X243562000Y-154328000D01*
%TO.N,FSR_C5*%
X246583000Y-150924000D02*
X246941000Y-150566000D01*
X245117000Y-152201000D02*
X246395000Y-150924000D01*
X246320000Y-150478000D02*
X246377000Y-150421000D01*
X244932000Y-152201000D02*
X245117000Y-152201000D01*
X244746000Y-151773000D02*
X246042000Y-150478000D01*
X244746000Y-152016000D02*
X241759000Y-152016000D01*
X243605000Y-146277000D02*
X243605000Y-141399000D01*
X246042000Y-150478000D02*
X246320000Y-150478000D01*
X241759000Y-152016000D02*
X238738000Y-155036000D01*
X244746000Y-152016000D02*
X244932000Y-152201000D01*
X246395000Y-150924000D02*
X246583000Y-150924000D01*
X246941000Y-150566000D02*
X246941000Y-149613000D01*
X246941000Y-149613000D02*
X243605000Y-146277000D01*
X244746000Y-152016000D02*
X244746000Y-151773000D01*
%TO.N,FSR_C4*%
X242584000Y-150186000D02*
X242978000Y-150186000D01*
X242978000Y-150186000D02*
X246086000Y-150186000D01*
X237699000Y-155071000D02*
X242584000Y-150186000D01*
X242978000Y-150186000D02*
X242978000Y-141751000D01*
%TO.N,FSR_C3*%
X243043000Y-141399000D02*
X243255000Y-141611000D01*
X246200000Y-150722000D02*
X245044000Y-151879000D01*
X240722000Y-155024000D02*
X240571000Y-154873000D01*
X239313000Y-155351000D02*
X239206000Y-155351000D01*
X243255000Y-146730000D02*
X246656000Y-150131000D01*
X240571000Y-154873000D02*
X239790000Y-154873000D01*
X243255000Y-141611000D02*
X243255000Y-146730000D01*
X246677000Y-152218000D02*
X246298000Y-152218000D01*
X246656000Y-150131000D02*
X246656000Y-150566000D01*
X246656000Y-150566000D02*
X246499000Y-150722000D01*
X246499000Y-150722000D02*
X246200000Y-150722000D01*
X243493000Y-155024000D02*
X240722000Y-155024000D01*
X239790000Y-154873000D02*
X239313000Y-155351000D01*
X247027000Y-151868000D02*
X246677000Y-152218000D01*
X246298000Y-152218000D02*
X243493000Y-155024000D01*
%TO.N,FSR_C2*%
X234097000Y-155315000D02*
X233991000Y-155315000D01*
X246549000Y-152823000D02*
X243643000Y-155729000D01*
X242726000Y-149184000D02*
X242726000Y-141934000D01*
X247039000Y-152823000D02*
X246549000Y-152823000D01*
X243643000Y-155729000D02*
X242870000Y-155729000D01*
X233991000Y-155303000D02*
X234315000Y-154979000D01*
X242770000Y-155829000D02*
X234612000Y-155829000D01*
X233101000Y-155315000D02*
X233991000Y-155315000D01*
X236615000Y-155295000D02*
X242726000Y-149184000D01*
X242870000Y-155729000D02*
X242770000Y-155829000D01*
X234544000Y-154979000D02*
X234860000Y-155295000D01*
X233991000Y-155315000D02*
X233991000Y-155303000D01*
X247614000Y-152525000D02*
X247337000Y-152525000D01*
X234860000Y-155295000D02*
X236615000Y-155295000D01*
X234315000Y-154979000D02*
X234544000Y-154979000D01*
X242684000Y-141891000D02*
X242684000Y-141399000D01*
X234612000Y-155829000D02*
X234097000Y-155315000D01*
X247337000Y-152525000D02*
X247039000Y-152823000D01*
X242726000Y-141934000D02*
X242684000Y-141891000D01*
%TO.N,FSR_C1*%
X244880000Y-155931000D02*
X242953000Y-155931000D01*
X233219000Y-154777000D02*
X234627000Y-154777000D01*
X247615000Y-153420000D02*
X247390000Y-153420000D01*
X247390000Y-153420000D02*
X244880000Y-155931000D01*
X234944000Y-155094000D02*
X236532000Y-155094000D01*
X233428000Y-156032000D02*
X232780000Y-155385000D01*
X242425000Y-141637000D02*
X242378000Y-141590000D01*
X234627000Y-154777000D02*
X234944000Y-155094000D01*
X232780000Y-155385000D02*
X232780000Y-155350000D01*
X232780000Y-155350000D02*
X232780000Y-155216000D01*
X242425000Y-141917000D02*
X242425000Y-141637000D01*
X242953000Y-155931000D02*
X242852000Y-156032000D01*
X232780000Y-155216000D02*
X233219000Y-154777000D01*
X242852000Y-156032000D02*
X233428000Y-156032000D01*
X232780000Y-155350000D02*
X229785000Y-155350000D01*
X236532000Y-155094000D02*
X242524000Y-149101000D01*
X242524000Y-142017000D02*
X242425000Y-141917000D01*
X242524000Y-149101000D02*
X242524000Y-142017000D01*
%TO.N,FSR_C0*%
X242935000Y-156234000D02*
X232990000Y-156234000D01*
X229580000Y-155703000D02*
X229454000Y-155577000D01*
X244963000Y-156133000D02*
X243037000Y-156133000D01*
X235111000Y-154690000D02*
X236286000Y-154690000D01*
X236286000Y-154690000D02*
X241971000Y-149006000D01*
X230363000Y-154374000D02*
X234794000Y-154374000D01*
X241971000Y-149006000D02*
X241971000Y-141997000D01*
X241971000Y-141997000D02*
X242129000Y-141839000D01*
X247622000Y-153966000D02*
X247130000Y-153966000D01*
X243037000Y-156133000D02*
X242935000Y-156234000D01*
X232990000Y-156234000D02*
X232459000Y-155703000D01*
X234794000Y-154374000D02*
X235111000Y-154690000D01*
X229454000Y-155577000D02*
X229454000Y-155283000D01*
X232459000Y-155703000D02*
X229580000Y-155703000D01*
X229454000Y-155577000D02*
X227143000Y-155577000D01*
X247130000Y-153966000D02*
X244963000Y-156133000D01*
X229454000Y-155283000D02*
X230363000Y-154374000D01*
%TO.N,MUX_S0*%
X197092000Y-153231000D02*
X196416000Y-152555000D01*
X223994000Y-152701000D02*
X223366000Y-153328000D01*
X196416000Y-152555000D02*
X196416000Y-151582000D01*
X223994000Y-152634000D02*
X223994000Y-152701000D01*
X197475000Y-153328000D02*
X197377000Y-153231000D01*
X191400000Y-146566000D02*
X190421000Y-146566000D01*
X223366000Y-153328000D02*
X197475000Y-153328000D01*
X197377000Y-153231000D02*
X197092000Y-153231000D01*
X196416000Y-151582000D02*
X191400000Y-146566000D01*
%TO.N,MUX_S1*%
X224333000Y-152687000D02*
X223490000Y-153530000D01*
X224065000Y-152308000D02*
X224333000Y-152576000D01*
X223250000Y-153052000D02*
X223250000Y-152949000D01*
X197293000Y-153432000D02*
X197008000Y-153432000D01*
X223891000Y-152308000D02*
X224065000Y-152308000D01*
X196215000Y-152639000D02*
X196215000Y-151666000D01*
X197008000Y-153432000D02*
X196215000Y-152639000D01*
X224333000Y-152576000D02*
X224333000Y-152687000D01*
X223490000Y-153530000D02*
X197391000Y-153530000D01*
X197391000Y-153530000D02*
X197293000Y-153432000D01*
X223250000Y-152949000D02*
X223891000Y-152308000D01*
X196215000Y-151666000D02*
X191549000Y-147000000D01*
X191549000Y-147000000D02*
X190409000Y-147000000D01*
%TO.N,MUX_S3*%
X190109000Y-152331000D02*
X190437000Y-152659000D01*
X224440000Y-156862000D02*
X224901000Y-157323000D01*
X197086000Y-156862000D02*
X224440000Y-156862000D01*
X224901000Y-157323000D02*
X231367000Y-157323000D01*
X241045000Y-157323000D02*
X243087000Y-157323000D01*
X193484000Y-152677000D02*
X193559000Y-152752000D01*
X248719000Y-155760000D02*
X254614000Y-155760000D01*
X243087000Y-157323000D02*
X243470000Y-156939000D01*
X193559000Y-153336000D02*
X197086000Y-156862000D01*
X245047000Y-156939000D02*
X245222000Y-157115000D01*
X190109000Y-149800000D02*
X190109000Y-152331000D01*
X245222000Y-157115000D02*
X247364000Y-157115000D01*
X247364000Y-157115000D02*
X248719000Y-155760000D01*
X243470000Y-156939000D02*
X245047000Y-156939000D01*
X193559000Y-152752000D02*
X193559000Y-153336000D01*
%TO.N,MUX_S2*%
X197422000Y-156055000D02*
X194494000Y-153127000D01*
X194494000Y-151989000D02*
X192262000Y-149756000D01*
X229136000Y-156384000D02*
X228808000Y-156055000D01*
X192262000Y-149756000D02*
X190472000Y-149756000D01*
X190472000Y-149756000D02*
X190052000Y-149337000D01*
X228808000Y-156055000D02*
X197422000Y-156055000D01*
X232463000Y-156384000D02*
X229136000Y-156384000D01*
X194494000Y-153127000D02*
X194494000Y-151989000D01*
%TO.N,MUX_EN_N*%
X195015000Y-151999000D02*
X195015000Y-153077000D01*
X249707000Y-154487000D02*
X254618000Y-154487000D01*
X245130000Y-156738000D02*
X245306000Y-156914000D01*
X247280000Y-156914000D02*
X249707000Y-154487000D01*
X226030000Y-156938000D02*
X226130000Y-157038000D01*
X195015000Y-153077000D02*
X197514000Y-155577000D01*
X229001000Y-157038000D02*
X229101000Y-156938000D01*
X243087000Y-156938000D02*
X243287000Y-156738000D01*
X243287000Y-156738000D02*
X245130000Y-156738000D01*
X226130000Y-157038000D02*
X229001000Y-157038000D01*
X197514000Y-155577000D02*
X224868000Y-155577000D01*
X245306000Y-156914000D02*
X247280000Y-156914000D01*
X229101000Y-156938000D02*
X243087000Y-156938000D01*
%TO.N,FSR_C15*%
X254188000Y-152492000D02*
X253958000Y-152492000D01*
X253808000Y-152642000D02*
X253769000Y-152642000D01*
X254469000Y-152773000D02*
X254188000Y-152492000D01*
X248549000Y-141176000D02*
X254949000Y-147576000D01*
X253577000Y-152834000D02*
X247314000Y-152834000D01*
X254949000Y-147576000D02*
X254949000Y-152293000D01*
X253958000Y-152492000D02*
X253808000Y-152642000D01*
X254469000Y-152773000D02*
X254122000Y-153120000D01*
X253769000Y-152642000D02*
X253577000Y-152834000D01*
X246930000Y-153218000D02*
X246546000Y-153218000D01*
X254949000Y-152293000D02*
X254469000Y-152773000D01*
X247314000Y-152834000D02*
X246930000Y-153218000D01*
X254122000Y-153120000D02*
X253967000Y-153120000D01*
%TO.N,FSR_C14*%
X253812000Y-153405000D02*
X253690000Y-153284000D01*
X247323000Y-153110000D02*
X246257000Y-154176000D01*
X253690000Y-153284000D02*
X253690000Y-153110000D01*
X253690000Y-153006000D02*
X253690000Y-153110000D01*
X246257000Y-154176000D02*
X245587000Y-154176000D01*
X254206000Y-153405000D02*
X253812000Y-153405000D01*
X253690000Y-153110000D02*
X247323000Y-153110000D01*
X253852000Y-152844000D02*
X253690000Y-153006000D01*
X255164000Y-152447000D02*
X254206000Y-153405000D01*
X254073000Y-152769000D02*
X253998000Y-152844000D01*
X255164000Y-146093000D02*
X255164000Y-152447000D01*
X253998000Y-152844000D02*
X253852000Y-152844000D01*
X250782000Y-141710000D02*
X255164000Y-146093000D01*
%TO.N,FSR_C13*%
X243576000Y-155225000D02*
X240047000Y-155225000D01*
X254522000Y-151667000D02*
X254522000Y-152044000D01*
X253993000Y-152042000D02*
X247250000Y-152042000D01*
X246872000Y-152420000D02*
X246382000Y-152420000D01*
X254461000Y-152089000D02*
X254039000Y-152089000D01*
X254522000Y-152044000D02*
X254469000Y-152097000D01*
X254469000Y-152097000D02*
X254461000Y-152089000D01*
X247621000Y-144767000D02*
X254522000Y-151667000D01*
X254039000Y-152089000D02*
X253993000Y-152042000D01*
X246382000Y-152420000D02*
X243576000Y-155225000D01*
X247621000Y-141601000D02*
X247621000Y-144767000D01*
X240047000Y-155225000D02*
X239979000Y-155158000D01*
X247250000Y-152042000D02*
X246872000Y-152420000D01*
%TO.N,FSR_C12*%
X250340000Y-148064000D02*
X250378000Y-148102000D01*
X239092000Y-155074000D02*
X238815000Y-155351000D01*
X242317000Y-154672000D02*
X239688000Y-154672000D01*
X254154000Y-151812000D02*
X254229000Y-151812000D01*
X238815000Y-155351000D02*
X237194000Y-155351000D01*
X247150000Y-144875000D02*
X250340000Y-148064000D01*
X243352000Y-154822000D02*
X242468000Y-154822000D01*
X250378000Y-148102000D02*
X250444000Y-148102000D01*
X247150000Y-141601000D02*
X247150000Y-144875000D01*
X239286000Y-155074000D02*
X239092000Y-155074000D01*
X250444000Y-148102000D02*
X254154000Y-151812000D01*
X242468000Y-154822000D02*
X242317000Y-154672000D01*
X246388000Y-152016000D02*
X246158000Y-152016000D01*
X246158000Y-152016000D02*
X243352000Y-154822000D01*
X250340000Y-148064000D02*
X246388000Y-152016000D01*
X239688000Y-154672000D02*
X239286000Y-155074000D01*
%TO.N,FSR_C11*%
X253754000Y-152244000D02*
X247334000Y-152244000D01*
X234801000Y-155628000D02*
X234429000Y-155255000D01*
X242786000Y-155528000D02*
X242686000Y-155628000D01*
X253800000Y-152290000D02*
X253754000Y-152244000D01*
X246535000Y-140920000D02*
X247903000Y-140920000D01*
X247334000Y-152244000D02*
X246956000Y-152621000D01*
X254515000Y-152442000D02*
X254423000Y-152442000D01*
X254423000Y-152442000D02*
X254271000Y-152290000D01*
X242686000Y-155628000D02*
X234801000Y-155628000D01*
X243559000Y-155528000D02*
X242786000Y-155528000D01*
X254726000Y-151060000D02*
X254612000Y-151174000D01*
X246420000Y-141036000D02*
X246535000Y-140920000D01*
X254612000Y-151174000D02*
X254746000Y-151307000D01*
X254746000Y-152212000D02*
X254515000Y-152442000D01*
X246465000Y-152621000D02*
X243559000Y-155528000D01*
X254271000Y-152290000D02*
X253800000Y-152290000D01*
X254746000Y-151307000D02*
X254746000Y-152212000D01*
X247903000Y-140920000D02*
X254726000Y-147744000D01*
X254726000Y-147744000D02*
X254726000Y-151060000D01*
X246956000Y-152621000D02*
X246465000Y-152621000D01*
%TO.N,FSR_C10*%
X247898000Y-144223000D02*
X247898000Y-141903000D01*
X254445000Y-150770000D02*
X247898000Y-144223000D01*
X236448000Y-154892000D02*
X242248000Y-149092000D01*
X234711000Y-154575000D02*
X235027000Y-154892000D01*
X235027000Y-154892000D02*
X236448000Y-154892000D01*
X232670000Y-154575000D02*
X234711000Y-154575000D01*
X242248000Y-149092000D02*
X242248000Y-142455000D01*
X232590000Y-154655000D02*
X232670000Y-154575000D01*
%TO.N,FSR_C9*%
X241769000Y-141808000D02*
X241769000Y-145840000D01*
X245855000Y-141589000D02*
X246569000Y-141589000D01*
X240606000Y-149178000D02*
X236504000Y-153280000D01*
X236504000Y-153280000D02*
X236504000Y-153832000D01*
X234793000Y-154087000D02*
X229790000Y-154087000D01*
X235161000Y-154455000D02*
X234793000Y-154087000D01*
X244069000Y-141524000D02*
X244069000Y-141424000D01*
X247736000Y-141324000D02*
X248370000Y-141958000D01*
X241769000Y-145840000D02*
X240606000Y-147004000D01*
X242455000Y-141122000D02*
X241769000Y-141808000D01*
X236504000Y-153832000D02*
X235881000Y-154455000D01*
X245650000Y-141384000D02*
X245855000Y-141589000D01*
X246569000Y-141589000D02*
X246834000Y-141324000D01*
X235881000Y-154455000D02*
X235161000Y-154455000D01*
X248370000Y-143864000D02*
X254450000Y-149944000D01*
X246834000Y-141324000D02*
X247736000Y-141324000D01*
X244069000Y-141424000D02*
X243767000Y-141122000D01*
X240606000Y-147004000D02*
X240606000Y-149178000D01*
X248370000Y-141958000D02*
X248370000Y-143864000D01*
X243767000Y-141122000D02*
X242455000Y-141122000D01*
%TO.N,FSR_C8*%
X238712000Y-148527000D02*
X241568000Y-145671000D01*
X247819000Y-141122000D02*
X254447000Y-147750000D01*
X241568000Y-141724000D02*
X242371000Y-140920000D01*
X241568000Y-145671000D02*
X241568000Y-141724000D01*
X235798000Y-154253000D02*
X236303000Y-153748000D01*
X236303000Y-153748000D02*
X236303000Y-151972000D01*
X254447000Y-147750000D02*
X254447000Y-149275000D01*
X228500000Y-153905000D02*
X229449000Y-153905000D01*
X238712000Y-149563000D02*
X238712000Y-148527000D01*
X245025000Y-140920000D02*
X245187000Y-141082000D01*
X234843000Y-153768000D02*
X235328000Y-154253000D01*
X229585000Y-153768000D02*
X234843000Y-153768000D01*
X236303000Y-151972000D02*
X238712000Y-149563000D01*
X229449000Y-153905000D02*
X229585000Y-153768000D01*
X246750000Y-141122000D02*
X247819000Y-141122000D01*
X246526000Y-141347000D02*
X246750000Y-141122000D01*
X245740000Y-141082000D02*
X246005000Y-141347000D01*
X235328000Y-154253000D02*
X235798000Y-154253000D01*
X242371000Y-140920000D02*
X245025000Y-140920000D01*
X245187000Y-141082000D02*
X245740000Y-141082000D01*
X246005000Y-141347000D02*
X246526000Y-141347000D01*
%TO.N,VDD_3V3*%
D12*
X199288000Y-147259000D02*
X197953000Y-148594000D01*
X300716000Y-146250000D02*
X300716000Y-146321000D01*
X227914000Y-144088000D02*
X227952000Y-144126000D01*
X213039000Y-152215000D02*
X213051000Y-152227000D01*
X120238000Y-151065000D02*
X119319000Y-150145000D01*
X299750000Y-150680000D02*
X299233000Y-150680000D01*
X204150000Y-142386000D02*
X203764000Y-142000000D01*
X285382000Y-148622000D02*
X257065000Y-148622000D01*
X196820000Y-149504000D02*
X195730000Y-149504000D01*
X121872000Y-152526000D02*
X121304000Y-151958000D01*
X250000000Y-139621000D02*
X239116000Y-139621000D01*
X299204000Y-147833000D02*
X299204000Y-150652000D01*
X201575000Y-142000000D02*
X200970000Y-141395000D01*
X187184000Y-149200000D02*
X191192000Y-145192000D01*
X197953000Y-148594000D02*
X197730000Y-148594000D01*
X191192000Y-145192000D02*
X191418000Y-145192000D01*
X199478000Y-147259000D02*
X199288000Y-147259000D01*
X197730000Y-148594000D02*
X196820000Y-149504000D01*
X204150000Y-142386000D02*
X204150000Y-146881000D01*
X182551000Y-152365000D02*
X182158000Y-152365000D01*
X172666000Y-140052000D02*
X172666000Y-142873000D01*
X196820000Y-149504000D02*
X196820000Y-152402000D01*
X204150000Y-142386000D02*
X204395000Y-142386000D01*
X121304000Y-151958000D02*
X121304000Y-151699000D01*
X203764000Y-142000000D02*
X201575000Y-142000000D01*
X134698000Y-142873000D02*
X125046000Y-152526000D01*
X228356000Y-149518000D02*
X228356000Y-147078000D01*
X119319000Y-146111000D02*
X119835000Y-145595000D01*
X230176000Y-141159000D02*
X232674000Y-141159000D01*
X297145000Y-145774000D02*
X288229000Y-145774000D01*
X229103000Y-152836000D02*
X227224000Y-150957000D01*
X125046000Y-152526000D02*
X121872000Y-152526000D01*
X227914000Y-141643000D02*
X227914000Y-144088000D01*
X210072000Y-144512000D02*
X213039000Y-147479000D01*
X119319000Y-150145000D02*
X119319000Y-149865000D01*
X206992000Y-142024000D02*
X210392000Y-142024000D01*
X238288000Y-139621000D02*
X234723000Y-139621000D01*
X172666000Y-142873000D02*
X134698000Y-142873000D01*
X119319000Y-149865000D02*
X119319000Y-146111000D01*
X228356000Y-147078000D02*
X229161000Y-146273000D01*
X299233000Y-151342000D02*
X298127000Y-152447000D01*
X229161000Y-146273000D02*
X229161000Y-145335000D01*
X203772000Y-147259000D02*
X203772000Y-152252000D01*
X293838000Y-152447000D02*
X293801000Y-152410000D01*
X299204000Y-147833000D02*
X297145000Y-145774000D01*
X204150000Y-146881000D02*
X203772000Y-147259000D01*
X203772000Y-147259000D02*
X199478000Y-147259000D01*
X210392000Y-142024000D02*
X210392000Y-144192000D01*
X227914000Y-141159000D02*
X230176000Y-141159000D01*
X120670000Y-151065000D02*
X120238000Y-151065000D01*
X298127000Y-152447000D02*
X293838000Y-152447000D01*
X203772000Y-152252000D02*
X204066000Y-152546000D01*
X206759000Y-141791000D02*
X206992000Y-142024000D01*
X199478000Y-147259000D02*
X199478000Y-147258000D01*
X239045000Y-139550000D02*
X238358000Y-139550000D01*
X288229000Y-145774000D02*
X285382000Y-148622000D01*
X185307000Y-149200000D02*
X185307000Y-149609000D01*
X227914000Y-141159000D02*
X227914000Y-141643000D01*
X189536000Y-153597000D02*
X188304000Y-152365000D01*
X234723000Y-139621000D02*
X232930000Y-141415000D01*
X299204000Y-150652000D02*
X299233000Y-150680000D01*
X204395000Y-142386000D02*
X205150000Y-141631000D01*
X185307000Y-149609000D02*
X182551000Y-152365000D01*
X188304000Y-152365000D02*
X182551000Y-152365000D01*
X235209000Y-151350000D02*
X233723000Y-152836000D01*
X299233000Y-150680000D02*
X299233000Y-151342000D01*
X229161000Y-145335000D02*
X227952000Y-144126000D01*
X213039000Y-147479000D02*
X213039000Y-152215000D01*
X200970000Y-141395000D02*
X198772000Y-141395000D01*
X205310000Y-141791000D02*
X206759000Y-141791000D01*
X300716000Y-146321000D02*
X299204000Y-147833000D01*
X257065000Y-148622000D02*
X257065000Y-146686000D01*
X233723000Y-152836000D02*
X229103000Y-152836000D01*
X185307000Y-149200000D02*
X187184000Y-149200000D01*
X238358000Y-139550000D02*
X238288000Y-139621000D01*
X257065000Y-146686000D02*
X250000000Y-139621000D01*
X210392000Y-142024000D02*
X212044000Y-142024000D01*
X232674000Y-141159000D02*
X232930000Y-141415000D01*
X239116000Y-139621000D02*
X239045000Y-139550000D01*
X227914000Y-141643000D02*
X212425000Y-141643000D01*
X205150000Y-141631000D02*
X205310000Y-141791000D01*
X195730000Y-149504000D02*
X191418000Y-145192000D01*
X227224000Y-150650000D02*
X228356000Y-149518000D01*
X227224000Y-150957000D02*
X227224000Y-150650000D01*
X210392000Y-144192000D02*
X210072000Y-144512000D01*
X182158000Y-152365000D02*
X172666000Y-142873000D01*
X212425000Y-141643000D02*
X212044000Y-142024000D01*
X121304000Y-151699000D02*
X120670000Y-151065000D01*
%TO.N,IR_LED_EN*%
D11*
X183876000Y-142536000D02*
X184474000Y-141939000D01*
X184474000Y-141939000D02*
X193522000Y-141939000D01*
X183876000Y-144504000D02*
X183876000Y-142536000D01*
X193522000Y-141939000D02*
X196537000Y-144954000D01*
%TO.N,VBUSOUT*%
X215371000Y-143719000D02*
X217016000Y-142074000D01*
X215371000Y-146188000D02*
X215371000Y-143719000D01*
X217016000Y-142074000D02*
X218094000Y-142074000D01*
%TO.N,VDD_CAM*%
X179037000Y-150053000D02*
X183147000Y-154162000D01*
X173704000Y-149369000D02*
X174388000Y-150053000D01*
X183147000Y-154162000D02*
X189778000Y-154162000D01*
X213466000Y-143585000D02*
X213390000Y-143510000D01*
X191350000Y-151361000D02*
X191466000Y-151244000D01*
X174388000Y-150053000D02*
X179037000Y-150053000D01*
X191350000Y-152591000D02*
X191350000Y-151361000D01*
X213466000Y-150183000D02*
X213466000Y-143585000D01*
X189778000Y-154162000D02*
X191350000Y-152591000D01*
%TO.N,SPI_SCK*%
X189695000Y-153960000D02*
X190722000Y-152933000D01*
X169889000Y-144906000D02*
X133280000Y-144906000D01*
X297170000Y-154664000D02*
X257765000Y-154664000D01*
X193963000Y-153168000D02*
X197253000Y-156459000D01*
X257765000Y-154664000D02*
X255156000Y-157273000D01*
X174250000Y-149268000D02*
X169889000Y-144906000D01*
X178637000Y-149353000D02*
X183244000Y-153960000D01*
X192380000Y-150445000D02*
X193963000Y-152028000D01*
X193963000Y-152028000D02*
X193963000Y-153168000D01*
X190722000Y-150528000D02*
X190805000Y-150445000D01*
X174250000Y-149353000D02*
X178637000Y-149353000D01*
X301397000Y-149776000D02*
X301397000Y-150437000D01*
X183244000Y-153960000D02*
X189695000Y-153960000D01*
X255156000Y-157273000D02*
X255156000Y-157389000D01*
X190805000Y-150445000D02*
X192380000Y-150445000D01*
X174250000Y-149353000D02*
X174250000Y-149268000D01*
X197253000Y-156459000D02*
X228330000Y-156459000D01*
X301397000Y-150437000D02*
X297170000Y-154664000D01*
X190722000Y-152933000D02*
X190722000Y-150528000D01*
X228330000Y-156459000D02*
X228428000Y-156556000D01*
%TO.N,SPI_MOSI*%
X228140000Y-156660000D02*
X228316000Y-156836000D01*
X243079000Y-156660000D02*
X243204000Y-156536000D01*
X192047000Y-151333000D02*
X191517000Y-150803000D01*
X182518000Y-154364000D02*
X178773000Y-150619000D01*
X175183000Y-150619000D02*
X174671000Y-151130000D01*
X120953000Y-151844000D02*
X120525000Y-151417000D01*
X193761000Y-152111000D02*
X193761000Y-153252000D01*
X191626000Y-152599000D02*
X189862000Y-154364000D01*
X118878000Y-150202000D02*
X118878000Y-148600000D01*
X174671000Y-151130000D02*
X172876000Y-152926000D01*
X121775000Y-152926000D02*
X120953000Y-152104000D01*
X172876000Y-152926000D02*
X121775000Y-152926000D01*
X289431000Y-153832000D02*
X296484000Y-146779000D01*
X192133000Y-151247000D02*
X192897000Y-151247000D01*
X192047000Y-151333000D02*
X191626000Y-151754000D01*
X229093000Y-156660000D02*
X243079000Y-156660000D01*
X228316000Y-156836000D02*
X228917000Y-156836000D01*
X193761000Y-153252000D02*
X197169000Y-156660000D01*
X247263000Y-156360000D02*
X249791000Y-153832000D01*
X245306000Y-156360000D02*
X247263000Y-156360000D01*
X178773000Y-150619000D02*
X175183000Y-150619000D01*
X192047000Y-151333000D02*
X192133000Y-151247000D01*
X191517000Y-150803000D02*
X191274000Y-150803000D01*
X120953000Y-152104000D02*
X120953000Y-151844000D01*
X249791000Y-153832000D02*
X289431000Y-153832000D01*
X228917000Y-156836000D02*
X229093000Y-156660000D01*
X189862000Y-154364000D02*
X182518000Y-154364000D01*
X120525000Y-151417000D02*
X120093000Y-151417000D01*
X245130000Y-156536000D02*
X245306000Y-156360000D01*
X197169000Y-156660000D02*
X228140000Y-156660000D01*
X120093000Y-151417000D02*
X118878000Y-150202000D01*
X243204000Y-156536000D02*
X245130000Y-156536000D01*
X191626000Y-151754000D02*
X191626000Y-152599000D01*
X192897000Y-151247000D02*
X193761000Y-152111000D01*
%TO.N,SPI_MISO*%
X249873000Y-154035000D02*
X291222000Y-154035000D01*
X118884000Y-146289000D02*
X118598000Y-146574000D01*
X120751000Y-152187000D02*
X121736000Y-153172000D01*
X192282000Y-151935000D02*
X192282000Y-152658000D01*
X120751000Y-151928000D02*
X120751000Y-152187000D01*
X173211000Y-153172000D02*
X175250000Y-151133000D01*
X190643000Y-154297000D02*
X190363000Y-154577000D01*
X120441000Y-151618000D02*
X120751000Y-151928000D01*
X175562000Y-150821000D02*
X175250000Y-151133000D01*
X121736000Y-153172000D02*
X173211000Y-153172000D01*
X120009000Y-151618000D02*
X120441000Y-151618000D01*
X196845000Y-154516000D02*
X197569000Y-155240000D01*
X180472000Y-154577000D02*
X176716000Y-150821000D01*
X176716000Y-150821000D02*
X175562000Y-150821000D01*
X197569000Y-155240000D02*
X228285000Y-155240000D01*
X192282000Y-152658000D02*
X190643000Y-154297000D01*
X118598000Y-146574000D02*
X118598000Y-150207000D01*
X245420000Y-156637000D02*
X247272000Y-156637000D01*
X118598000Y-150207000D02*
X120009000Y-151618000D01*
X247272000Y-156637000D02*
X249873000Y-154035000D01*
X291222000Y-154035000D02*
X296485000Y-148773000D01*
X190363000Y-154577000D02*
X180472000Y-154577000D01*
%TO.N,CS_CAM*%
X175829000Y-151131000D02*
X179526000Y-154827000D01*
X179526000Y-154827000D02*
X190504000Y-154827000D01*
X192746000Y-152586000D02*
X192746000Y-152348000D01*
X190504000Y-154827000D02*
X192746000Y-152586000D01*
%TO.N,I2C_SDA*%
X179176000Y-148768000D02*
X179623000Y-148768000D01*
X180964000Y-150109000D02*
X182020000Y-150109000D01*
X183242000Y-142876000D02*
X185286000Y-140833000D01*
X183242000Y-148887000D02*
X183242000Y-142876000D01*
X198013000Y-141478000D02*
X198042000Y-141449000D01*
X195820000Y-141478000D02*
X198013000Y-141478000D01*
X195175000Y-140833000D02*
X195820000Y-141478000D01*
X197254000Y-151560000D02*
X199458000Y-149356000D01*
X199458000Y-149356000D02*
X199458000Y-147704000D01*
X204860000Y-152931000D02*
X207764000Y-150027000D01*
X197254000Y-151560000D02*
X198626000Y-152931000D01*
X198626000Y-152931000D02*
X204860000Y-152931000D01*
X185286000Y-140833000D02*
X195175000Y-140833000D01*
X182020000Y-150109000D02*
X183242000Y-148887000D01*
X198013000Y-146861000D02*
X198013000Y-141478000D01*
X179623000Y-148768000D02*
X180964000Y-150109000D01*
%TO.N,I2C_SCL*%
X198418000Y-141618000D02*
X198418000Y-141232000D01*
X181727000Y-150973000D02*
X183716000Y-148984000D01*
X181727000Y-151317000D02*
X181727000Y-150973000D01*
X183716000Y-148763000D02*
X189218000Y-143261000D01*
X198660000Y-140990000D02*
X204018000Y-140990000D01*
X205069000Y-142317000D02*
X205069000Y-150848000D01*
X193418000Y-143261000D02*
X197439000Y-147282000D01*
X200020000Y-142552000D02*
X199352000Y-142552000D01*
X199352000Y-145913000D02*
X199352000Y-142552000D01*
X198418000Y-141232000D02*
X198660000Y-140990000D01*
X199352000Y-142552000D02*
X198418000Y-141618000D01*
X197439000Y-147282000D02*
X197983000Y-147282000D01*
X204018000Y-140990000D02*
X204581000Y-141553000D01*
X197983000Y-147282000D02*
X199352000Y-145913000D01*
X205069000Y-150848000D02*
X205172000Y-150950000D01*
X189218000Y-143261000D02*
X193418000Y-143261000D01*
X183716000Y-148984000D02*
X183716000Y-148763000D01*
%TO.N,TOF_XSHUT*%
X179844000Y-149448000D02*
X180706000Y-150311000D01*
X184211000Y-142487000D02*
X184557000Y-142140000D01*
X184211000Y-147919000D02*
X184211000Y-142487000D01*
X180706000Y-150311000D02*
X182104000Y-150311000D01*
X182104000Y-150311000D02*
X183515000Y-148900000D01*
X183515000Y-148615000D02*
X184211000Y-147919000D01*
X183515000Y-148900000D02*
X183515000Y-148615000D01*
X193328000Y-142140000D02*
X195618000Y-144431000D01*
X184557000Y-142140000D02*
X193328000Y-142140000D01*
%TO.N,TOF_INT*%
X193231000Y-143465000D02*
X194188000Y-144423000D01*
X182059000Y-150927000D02*
X183918000Y-149067000D01*
X183918000Y-148882000D02*
X189335000Y-143465000D01*
X189335000Y-143465000D02*
X193231000Y-143465000D01*
X183918000Y-149067000D02*
X183918000Y-148882000D01*
X182059000Y-151651000D02*
X182059000Y-150927000D01*
%TO.N,VSYS*%
X187424000Y-147262000D02*
X190613000Y-144072000D01*
X220217000Y-146665000D02*
X224341000Y-142542000D01*
X192416000Y-144072000D02*
X192630000Y-144286000D01*
X186115000Y-147262000D02*
X187424000Y-147262000D01*
X182443000Y-150934000D02*
X186115000Y-147262000D01*
X207652000Y-142599000D02*
X208206000Y-143153000D01*
X198092000Y-147931000D02*
X199744000Y-146279000D01*
X208206000Y-143153000D02*
X208206000Y-146454000D01*
X199744000Y-146279000D02*
X203715000Y-146279000D01*
X220217000Y-146665000D02*
X217435000Y-143882000D01*
X192630000Y-144286000D02*
X192630000Y-144499000D01*
X192630000Y-144499000D02*
X196061000Y-147931000D01*
X221035000Y-147483000D02*
X220217000Y-146665000D01*
X196061000Y-147931000D02*
X198092000Y-147931000D01*
X221035000Y-147575000D02*
X221035000Y-147483000D01*
X190613000Y-144072000D02*
X192416000Y-144072000D01*
%TO.N,IR_LED_K*%
X182761000Y-144890000D02*
X181575000Y-146076000D01*
X181575000Y-146076000D02*
X181575000Y-149603000D01*
%TO.N,VBAT*%
D12*
X215475000Y-151066000D02*
X215475000Y-147625000D01*
X214574000Y-143116000D02*
X214574000Y-146724000D01*
X214574000Y-146724000D02*
X215475000Y-147625000D01*
X216485000Y-152076000D02*
X215475000Y-151066000D01*
%TO.N,X24L_2*%
D11*
X121286000Y-149714000D02*
X121286000Y-142066000D01*
X121208000Y-149792000D02*
X121286000Y-149714000D01*
X121286000Y-142066000D02*
X117935000Y-142066000D01*
X117935000Y-142066000D02*
X117927000Y-142058000D01*
X128510000Y-142066000D02*
X121286000Y-142066000D01*
%TO.N,XTAL32K_2*%
X187679000Y-146200000D02*
X187679000Y-145924000D01*
X187679000Y-145924000D02*
X189653000Y-143950000D01*
%TO.N,VDD_1V8*%
D12*
X129944000Y-141985000D02*
X170042000Y-141985000D01*
X209889000Y-139169000D02*
X208090000Y-140968000D01*
X296100000Y-151250000D02*
X296750000Y-150600000D01*
X239232000Y-139099000D02*
X238171000Y-139099000D01*
X170042000Y-141985000D02*
X172482000Y-139545000D01*
X252659000Y-139169000D02*
X239303000Y-139169000D01*
X122082000Y-152052000D02*
X123250000Y-150884000D01*
X120727000Y-150227000D02*
X122773000Y-150227000D01*
X196575000Y-139545000D02*
X197998000Y-140968000D01*
X296750000Y-150600000D02*
X297021000Y-150600000D01*
X122750000Y-145750000D02*
X122750000Y-145301000D01*
X125679000Y-146250000D02*
X129944000Y-141985000D01*
X296750000Y-149750000D02*
X296921000Y-149579000D01*
X239303000Y-139169000D02*
X239232000Y-139099000D01*
X172482000Y-139545000D02*
X196575000Y-139545000D01*
X123250000Y-146250000D02*
X125679000Y-146250000D01*
X238101000Y-139169000D02*
X209889000Y-139169000D01*
X210021000Y-145737000D02*
X209174000Y-144890000D01*
X296921000Y-149579000D02*
X296921000Y-146421000D01*
X255925000Y-142435000D02*
X252659000Y-139169000D01*
X209174000Y-143266000D02*
X209940000Y-142500000D01*
X296750000Y-149750000D02*
X296750000Y-150600000D01*
X295090000Y-142435000D02*
X255925000Y-142435000D01*
X120250000Y-149750000D02*
X120727000Y-150227000D01*
X238171000Y-139099000D02*
X238101000Y-139169000D01*
X297947000Y-151988000D02*
X296107000Y-151988000D01*
X122773000Y-150227000D02*
X123250000Y-149750000D01*
X298767000Y-146250000D02*
X299750000Y-146250000D01*
X296921000Y-146421000D02*
X296750000Y-146250000D01*
X297378000Y-144861000D02*
X297378000Y-144723000D01*
X123250000Y-146250000D02*
X122750000Y-145750000D01*
X123250000Y-150884000D02*
X123250000Y-149750000D01*
X209174000Y-144890000D02*
X209174000Y-143266000D01*
X297378000Y-144723000D02*
X295090000Y-142435000D01*
X210021000Y-152356000D02*
X210021000Y-145737000D01*
X297378000Y-144861000D02*
X298767000Y-146250000D01*
X123250000Y-146250000D02*
X123250000Y-149750000D01*
X296100000Y-151995000D02*
X296100000Y-151250000D01*
X122773000Y-150667000D02*
X122773000Y-150227000D01*
X296107000Y-151988000D02*
X296100000Y-151995000D01*
%TO.N,SW2*%
X208198000Y-152011000D02*
X208198000Y-147275000D01*
X208315000Y-152128000D02*
X208198000Y-152011000D01*
%TO.N,X24L_1*%
D11*
X119849000Y-150069000D02*
X120387000Y-150607000D01*
X121009000Y-148491000D02*
X119849000Y-149651000D01*
X121009000Y-142570000D02*
X121009000Y-148491000D01*
X119849000Y-149651000D02*
X119849000Y-150069000D01*
%TO.N,VQI*%
D12*
X215928000Y-146744000D02*
X215409000Y-146744000D01*
X215928000Y-147004000D02*
X215928000Y-146744000D01*
X215928000Y-146744000D02*
X215928000Y-143676000D01*
X215928000Y-143676000D02*
X216479000Y-143126000D01*
X219944000Y-151020000D02*
X215928000Y-147004000D01*
X223020000Y-151020000D02*
X219944000Y-151020000D01*
%TO.N,DECD*%
D11*
X192586000Y-143870000D02*
X193000000Y-144284000D01*
X190409000Y-143870000D02*
X192586000Y-143870000D01*
X193000000Y-144284000D02*
X193000000Y-144411000D01*
X187475000Y-146805000D02*
X190409000Y-143870000D01*
%TO.N,NTC*%
X218671000Y-142229000D02*
X220000000Y-142229000D01*
X216826000Y-147289000D02*
X216826000Y-144074000D01*
X217325000Y-147789000D02*
X216826000Y-147289000D01*
X216826000Y-144074000D02*
X218671000Y-142229000D01*
%TO.N,X24R_1*%
X291492000Y-143179000D02*
X291752000Y-142919000D01*
X291752000Y-142919000D02*
X294936000Y-142919000D01*
X299894000Y-146603000D02*
X300105000Y-146392000D01*
X294936000Y-142916000D02*
X294936000Y-142919000D01*
X294936000Y-142919000D02*
X298621000Y-146603000D01*
X300105000Y-146392000D02*
X300105000Y-145791000D01*
X298621000Y-146603000D02*
X299894000Y-146603000D01*
%TO.N,RADAR_EN*%
X298849000Y-145716000D02*
X298250000Y-145117000D01*
X193358000Y-152942000D02*
X193358000Y-153419000D01*
X300561000Y-145512000D02*
X299444000Y-145512000D01*
X193358000Y-153419000D02*
X197540000Y-157602000D01*
X299240000Y-145716000D02*
X298849000Y-145716000D01*
X299444000Y-145512000D02*
X299240000Y-145716000D01*
X254542000Y-157602000D02*
X257682000Y-154462000D01*
X193208000Y-152563000D02*
X193208000Y-152792000D01*
X301120000Y-146071000D02*
X300561000Y-145512000D01*
X193208000Y-152792000D02*
X193358000Y-152942000D01*
X192952000Y-151771000D02*
X193370000Y-152190000D01*
X197540000Y-157602000D02*
X254542000Y-157602000D01*
X301120000Y-150358000D02*
X301120000Y-146071000D01*
X121883000Y-154670000D02*
X118461000Y-151248000D01*
X297015000Y-154462000D02*
X301120000Y-150358000D01*
X165386000Y-155446000D02*
X164611000Y-154670000D01*
X164611000Y-154670000D02*
X121883000Y-154670000D01*
X193370000Y-152400000D02*
X193208000Y-152563000D01*
X257682000Y-154462000D02*
X297015000Y-154462000D01*
X191331000Y-155446000D02*
X165386000Y-155446000D01*
X193370000Y-152190000D02*
X193370000Y-152400000D01*
X193358000Y-153419000D02*
X191331000Y-155446000D01*
%TO.N,CS_RADAR_L*%
X193105000Y-152316000D02*
X193105000Y-152380000D01*
X193105000Y-152380000D02*
X193006000Y-152479000D01*
X120250000Y-145512000D02*
X120250000Y-146250000D01*
X193156000Y-153278000D02*
X191202000Y-155232000D01*
X119977000Y-145239000D02*
X120250000Y-145512000D01*
X193156000Y-153025000D02*
X193156000Y-153278000D01*
X193006000Y-152875000D02*
X193156000Y-153025000D01*
X118015000Y-150402000D02*
X118015000Y-146734000D01*
X118015000Y-146734000D02*
X119510000Y-145239000D01*
X165458000Y-155232000D02*
X164694000Y-154469000D01*
X192196000Y-151578000D02*
X192367000Y-151578000D01*
X192367000Y-151578000D02*
X193105000Y-152316000D01*
X119510000Y-145239000D02*
X119977000Y-145239000D01*
X193006000Y-152479000D02*
X193006000Y-152875000D01*
X122082000Y-154469000D02*
X118015000Y-150402000D01*
X164694000Y-154469000D02*
X122082000Y-154469000D01*
X191202000Y-155232000D02*
X165458000Y-155232000D01*
%TO.N,RADAR_IRQ_L*%
X120358000Y-151820000D02*
X120549000Y-152011000D01*
X120549000Y-152011000D02*
X120549000Y-152271000D01*
X120549000Y-152271000D02*
X122546000Y-154267000D01*
X119825000Y-151820000D02*
X120358000Y-151820000D01*
X164778000Y-154267000D02*
X165541000Y-155030000D01*
X118322000Y-150317000D02*
X119825000Y-151820000D01*
X190989000Y-155030000D02*
X192879000Y-153140000D01*
X165541000Y-155030000D02*
X190989000Y-155030000D01*
X122546000Y-154267000D02*
X164778000Y-154267000D01*
%TO.N,ANT_FEED*%
X167298000Y-151980000D02*
X167298000Y-149996000D01*
X167298000Y-149996000D02*
X170913000Y-146382000D01*
%TO.N,HALL_OUT*%
X187584000Y-151020000D02*
X189749000Y-148856000D01*
X185032000Y-151020000D02*
X187584000Y-151020000D01*
%TO.N,SWDCLK*%
X174100000Y-142722000D02*
X174100000Y-142014000D01*
X180965000Y-149587000D02*
X174100000Y-142722000D01*
%TO.N,SWDIO*%
X181242000Y-148145000D02*
X175100000Y-142003000D01*
X181839000Y-149892000D02*
X181470000Y-149892000D01*
X182189000Y-149542000D02*
X181839000Y-149892000D01*
X181242000Y-149664000D02*
X181242000Y-148145000D01*
X181470000Y-149892000D02*
X181242000Y-149664000D01*
%TO.N,FSR_R0*%
X227141000Y-146589000D02*
X227079000Y-146651000D01*
X249787000Y-141338000D02*
X250134000Y-141338000D01*
X249477000Y-141028000D02*
X249787000Y-141338000D01*
X237404000Y-139973000D02*
X231940000Y-145436000D01*
X250308000Y-141164000D02*
X250308000Y-140924000D01*
X238970000Y-139973000D02*
X238900000Y-139902000D01*
X227079000Y-148945000D02*
X227364000Y-149230000D01*
X227079000Y-146651000D02*
X227079000Y-148945000D01*
X238900000Y-139902000D02*
X238504000Y-139902000D01*
X231940000Y-146721000D02*
X229574000Y-149087000D01*
X238504000Y-139902000D02*
X238433000Y-139973000D01*
X249357000Y-139973000D02*
X238970000Y-139973000D01*
X250134000Y-141338000D02*
X250308000Y-141164000D01*
X238433000Y-139973000D02*
X237404000Y-139973000D01*
X231940000Y-145436000D02*
X231940000Y-146721000D01*
X250308000Y-140924000D02*
X249357000Y-139973000D01*
%TO.N,FSR_R1*%
X229249000Y-152485000D02*
X229044000Y-152280000D01*
X229609000Y-151956000D02*
X229609000Y-152371000D01*
X229940000Y-146050000D02*
X230295000Y-146050000D01*
X229044000Y-146946000D02*
X229940000Y-146050000D01*
X229496000Y-152485000D02*
X229249000Y-152485000D01*
X229590000Y-151937000D02*
X229609000Y-151956000D01*
X229044000Y-152280000D02*
X229044000Y-146946000D01*
X229609000Y-152371000D02*
X229496000Y-152485000D01*
X230295000Y-146050000D02*
X236289000Y-140056000D01*
%TO.N,FSR_R2*%
X250024000Y-141054000D02*
X249145000Y-140174000D01*
X233095000Y-147487000D02*
X233061000Y-147453000D01*
X233061000Y-147453000D02*
X233027000Y-147453000D01*
X238517000Y-140174000D02*
X237488000Y-140174000D01*
X237488000Y-140174000D02*
X233061000Y-144601000D01*
X238816000Y-140104000D02*
X238587000Y-140104000D01*
X233061000Y-144601000D02*
X233061000Y-147453000D01*
X249145000Y-140174000D02*
X238887000Y-140174000D01*
X238887000Y-140174000D02*
X238816000Y-140104000D01*
X238587000Y-140104000D02*
X238517000Y-140174000D01*
X233095000Y-151870000D02*
X233095000Y-147487000D01*
%TO.N,FSR_R3*%
X234552000Y-146050000D02*
X234958000Y-146050000D01*
X234958000Y-146050000D02*
X235034000Y-146126000D01*
X233365000Y-144592000D02*
X233365000Y-144864000D01*
X238702000Y-140381000D02*
X237577000Y-140381000D01*
X233365000Y-144864000D02*
X234552000Y-146050000D01*
X235034000Y-146126000D02*
X235034000Y-149368000D01*
X237577000Y-140381000D02*
X233365000Y-144592000D01*
%TO.N,FSR_R4*%
X242104000Y-140517000D02*
X237400000Y-145222000D01*
X250247000Y-141540000D02*
X249590000Y-141540000D01*
X249590000Y-141540000D02*
X248567000Y-140517000D01*
X250819000Y-141045000D02*
X250741000Y-141045000D01*
X237400000Y-145222000D02*
X237400000Y-147102000D01*
X248567000Y-140517000D02*
X242104000Y-140517000D01*
X250741000Y-141045000D02*
X250247000Y-141540000D01*
%TO.N,FSR_R5*%
X238510000Y-148338000D02*
X238510000Y-148729000D01*
X236030000Y-153736000D02*
X235714000Y-154052000D01*
X249556000Y-141792000D02*
X250309000Y-141792000D01*
X235266000Y-153844000D02*
X235266000Y-152429000D01*
X238510000Y-148729000D02*
X236030000Y-151208000D01*
X250309000Y-141792000D02*
X250713000Y-141388000D01*
X239087000Y-147761000D02*
X239087000Y-143920000D01*
X242288000Y-140719000D02*
X248484000Y-140719000D01*
X235714000Y-154052000D02*
X235474000Y-154052000D01*
X235474000Y-154052000D02*
X235266000Y-153844000D01*
X239087000Y-143920000D02*
X242288000Y-140719000D01*
X250713000Y-141388000D02*
X251160000Y-141388000D01*
X236030000Y-151208000D02*
X236030000Y-153736000D01*
X239087000Y-147761000D02*
X238510000Y-148338000D01*
X248484000Y-140719000D02*
X249556000Y-141792000D01*
%TO.N,X24R_2*%
X301004000Y-143553000D02*
X301004000Y-142500000D01*
X299165000Y-145392000D02*
X301004000Y-143553000D01*
%TO.N,CS_RADAR_R*%
X192449000Y-150229000D02*
X190585000Y-150229000D01*
X300115000Y-151012000D02*
X296866000Y-154260000D01*
X190585000Y-150229000D02*
X190434000Y-150380000D01*
X228618000Y-156257000D02*
X197339000Y-156257000D01*
X247863000Y-157001000D02*
X247548000Y-157317000D01*
X190434000Y-150380000D02*
X190434000Y-152044000D01*
X228854000Y-156492000D02*
X228618000Y-156257000D01*
X197339000Y-156257000D02*
X194293000Y-153211000D01*
X257598000Y-154260000D02*
X254857000Y-157001000D01*
X244986000Y-157317000D02*
X244891000Y-157222000D01*
X194293000Y-153211000D02*
X194293000Y-152073000D01*
X299750000Y-149750000D02*
X300115000Y-150115000D01*
X296866000Y-154260000D02*
X257598000Y-154260000D01*
X247548000Y-157317000D02*
X244986000Y-157317000D01*
X254857000Y-157001000D02*
X247863000Y-157001000D01*
X300115000Y-150115000D02*
X300115000Y-151012000D01*
X194293000Y-152073000D02*
X192449000Y-150229000D01*
%TO.N,RADAR_IRQ_R*%
X245046000Y-156334000D02*
X243120000Y-156334000D01*
X194696000Y-153044000D02*
X194696000Y-151679000D01*
X228943000Y-155905000D02*
X228892000Y-155854000D01*
X228892000Y-155854000D02*
X197506000Y-155854000D01*
X232929000Y-156459000D02*
X232376000Y-155905000D01*
X232376000Y-155905000D02*
X228943000Y-155905000D01*
X194696000Y-151679000D02*
X194600000Y-151583000D01*
X245222000Y-156158000D02*
X245046000Y-156334000D01*
X197506000Y-155854000D02*
X194696000Y-153044000D01*
X249708000Y-153630000D02*
X247180000Y-156158000D01*
X243120000Y-156334000D02*
X242996000Y-156459000D01*
X247180000Y-156158000D02*
X245222000Y-156158000D01*
X289234000Y-153630000D02*
X249708000Y-153630000D01*
X295333000Y-147531000D02*
X289234000Y-153630000D01*
X242996000Y-156459000D02*
X232929000Y-156459000D01*
%TO.N,DECRF*%
X197511000Y-147000000D02*
X197584000Y-147000000D01*
X192500000Y-142647000D02*
X193158000Y-142647000D01*
X193158000Y-142647000D02*
X197511000Y-147000000D01*
%TO.N,ADC3*%
X225036000Y-152555000D02*
X223657000Y-153934000D01*
X197224000Y-153934000D02*
X197126000Y-153836000D01*
X197126000Y-153836000D02*
X196841000Y-153836000D01*
X223657000Y-153934000D02*
X197224000Y-153934000D01*
X190139000Y-148308000D02*
X190408000Y-148576000D01*
X195811000Y-151833000D02*
X191711000Y-147733000D01*
X191711000Y-147733000D02*
X190300000Y-147733000D01*
X227928000Y-149378000D02*
X225036000Y-152270000D01*
X190300000Y-147733000D02*
X190139000Y-147894000D01*
X225036000Y-152270000D02*
X225036000Y-152555000D01*
X196841000Y-153836000D02*
X195811000Y-152806000D01*
X227928000Y-148264000D02*
X227928000Y-149378000D01*
X195811000Y-152806000D02*
X195811000Y-151833000D01*
X190139000Y-147894000D02*
X190139000Y-148308000D01*
%TO.N,ADC0*%
X196013000Y-152722000D02*
X196013000Y-151749000D01*
X224834000Y-152186000D02*
X224834000Y-152472000D01*
X227371000Y-148575000D02*
X227653000Y-148857000D01*
X227371000Y-147401000D02*
X227371000Y-148575000D01*
X227653000Y-149368000D02*
X224834000Y-152186000D01*
X197210000Y-153634000D02*
X196925000Y-153634000D01*
X196013000Y-151749000D02*
X191774000Y-147510000D01*
X197308000Y-153732000D02*
X197210000Y-153634000D01*
X224834000Y-152472000D02*
X223574000Y-153732000D01*
X196925000Y-153634000D02*
X196013000Y-152722000D01*
X228719000Y-146052000D02*
X227371000Y-147401000D01*
X223574000Y-153732000D02*
X197308000Y-153732000D01*
X227653000Y-148857000D02*
X227653000Y-149368000D01*
X191774000Y-147510000D02*
X189815000Y-147510000D01*
%TO.N,ADC1*%
X229296000Y-148264000D02*
X229296000Y-152140000D01*
X190618000Y-149215000D02*
X189859000Y-148457000D01*
X228672000Y-153351000D02*
X228655000Y-153351000D01*
X196674000Y-154239000D02*
X195408000Y-152974000D01*
X229296000Y-152140000D02*
X229332000Y-152176000D01*
X197057000Y-154337000D02*
X196959000Y-154239000D01*
X227668000Y-154337000D02*
X197057000Y-154337000D01*
X231378000Y-146182000D02*
X229296000Y-148264000D01*
X196959000Y-154239000D02*
X196674000Y-154239000D01*
X192623000Y-149215000D02*
X190618000Y-149215000D01*
X195408000Y-152974000D02*
X195408000Y-152000000D01*
X195408000Y-152000000D02*
X192623000Y-149215000D01*
X228655000Y-153351000D02*
X227668000Y-154337000D01*
X189859000Y-148457000D02*
X189859000Y-148078000D01*
%TO.N,ADC2*%
X195610000Y-151916000D02*
X191762000Y-148069000D01*
X191762000Y-148069000D02*
X190423000Y-148069000D01*
X233152000Y-152308000D02*
X234465000Y-150995000D01*
X232750000Y-146901000D02*
X232762000Y-146889000D01*
X195610000Y-152890000D02*
X195610000Y-151916000D01*
X232750000Y-151957000D02*
X232750000Y-146901000D01*
X196757000Y-154038000D02*
X195610000Y-152890000D01*
X228918000Y-153206000D02*
X228787000Y-153074000D01*
X233152000Y-152308000D02*
X233102000Y-152308000D01*
X228787000Y-153074000D02*
X224802000Y-153074000D01*
X224802000Y-153074000D02*
X223741000Y-154135000D01*
X197141000Y-154135000D02*
X197043000Y-154038000D01*
X233896000Y-153206000D02*
X228918000Y-153206000D01*
X223741000Y-154135000D02*
X197141000Y-154135000D01*
X197043000Y-154038000D02*
X196757000Y-154038000D01*
X235592000Y-151509000D02*
X233896000Y-153206000D01*
X235592000Y-151200000D02*
X235592000Y-151509000D01*
X233102000Y-152308000D02*
X232750000Y-151957000D01*
X234465000Y-150995000D02*
X235388000Y-150995000D01*
X235388000Y-150995000D02*
X235592000Y-151200000D01*
%TO.N,IMU_INT1*%
X205358000Y-149794000D02*
X205394000Y-149758000D01*
X205394000Y-149758000D02*
X205394000Y-143552000D01*
%TO.N,DCC*%
X185546000Y-148432000D02*
X186538000Y-148432000D01*
X186538000Y-148432000D02*
X190600000Y-144371000D01*
X190600000Y-144371000D02*
X192315000Y-144371000D01*
X182697000Y-151603000D02*
X182697000Y-151281000D01*
X182697000Y-151281000D02*
X185546000Y-148432000D01*
%TO.N,ADC4*%
X226928000Y-149698000D02*
X226004000Y-149698000D01*
X212457000Y-152171000D02*
X212457000Y-147435000D01*
X226004000Y-149698000D02*
X223078000Y-152624000D01*
X212910000Y-152624000D02*
X212457000Y-152171000D01*
X223078000Y-152624000D02*
X212910000Y-152624000D01*
X209625000Y-144603000D02*
X209625000Y-144084000D01*
X212457000Y-147435000D02*
X209625000Y-144603000D01*
%TO.N,SW1*%
D12*
X208767000Y-151940000D02*
X208650000Y-151824000D01*
X208650000Y-152814000D02*
X208767000Y-152697000D01*
X208650000Y-146547000D02*
X209063000Y-146134000D01*
X208767000Y-152697000D02*
X208767000Y-151940000D01*
X208650000Y-151824000D02*
X208650000Y-146547000D01*
%TO.N,DECA*%
D11*
X192807000Y-143667000D02*
X189543000Y-143667000D01*
X193556000Y-144417000D02*
X192807000Y-143667000D01*
X189543000Y-143667000D02*
X187510000Y-145700000D01*
%TO.N,LED0*%
X221546000Y-148536000D02*
X225128000Y-148536000D01*
X217151000Y-144140000D02*
X221546000Y-148536000D01*
%TO.N,XTAL32M_1*%
X184633000Y-142466000D02*
X184743000Y-142355000D01*
X193152000Y-142355000D02*
X197396000Y-146600000D01*
X197396000Y-146600000D02*
X197579000Y-146600000D01*
X184743000Y-142355000D02*
X193152000Y-142355000D01*
%TO.N,XTAL32M_2*%
X197585000Y-145577000D02*
X193168000Y-141160000D01*
X193168000Y-141160000D02*
X186045000Y-141160000D01*
X197585000Y-146182000D02*
X197585000Y-145577000D01*
%TO.N,ADC5*%
X209573000Y-152458000D02*
X209573000Y-146105000D01*
X209573000Y-146105000D02*
X208492000Y-145024000D01*
X210020000Y-152905000D02*
X209573000Y-152458000D01*
X241368000Y-148701000D02*
X237207000Y-152862000D01*
X208492000Y-145024000D02*
X208492000Y-143759000D01*
X237207000Y-152862000D02*
X237207000Y-153309000D01*
X221232000Y-152905000D02*
X210020000Y-152905000D01*
X241368000Y-147378000D02*
X241368000Y-148701000D01*
%TD*%
M02*
