%TF.GenerationSoftware,KiCad,Pcbnew,10.0.4*%
%TF.CreationDate,2026-09-02T14:46:28+02:00*%
%TF.ProjectId,smartbag_core,736d6172-7462-4616-975f-636f72652e6b,rev?*%
%TF.SameCoordinates,Original*%
%TF.FileFunction,Legend,Top*%
%TF.FilePolarity,Positive*%
%FSLAX46Y46*%
G04 Gerber Fmt 4.6, Leading zero omitted, Abs format (unit mm)*
G04 Created by KiCad (PCBNEW 10.0.4) date 2026-09-02 14:46:28*
%MOMM*%
%LPD*%
G01*
G04 APERTURE LIST*
G04 Aperture macros list*
%AMRoundRect*
0 Rectangle with rounded corners*
0 $1 Rounding radius*
0 $2 $3 $4 $5 $6 $7 $8 $9 X,Y pos of 4 corners*
0 Add a 4 corners polygon primitive as box body*
4,1,4,$2,$3,$4,$5,$6,$7,$8,$9,$2,$3,0*
0 Add four circle primitives for the rounded corners*
1,1,$1+$1,$2,$3*
1,1,$1+$1,$4,$5*
1,1,$1+$1,$6,$7*
1,1,$1+$1,$8,$9*
0 Add four rect primitives between the rounded corners*
20,1,$1+$1,$2,$3,$4,$5,0*
20,1,$1+$1,$4,$5,$6,$7,0*
20,1,$1+$1,$6,$7,$8,$9,0*
20,1,$1+$1,$8,$9,$2,$3,0*%
%AMFreePoly0*
4,1,13,0.375000,1.525000,1.025000,1.525000,1.025000,-1.525000,0.375000,-1.525000,0.375000,-1.925000,-0.375000,-1.925000,-0.375000,-1.525000,-1.025000,-1.525000,-1.025000,1.525000,-0.375000,1.525000,-0.375000,1.925000,0.375000,1.925000,0.375000,1.525000,0.375000,1.525000,$1*%
G04 Aperture macros list end*
%ADD10C,0.120000*%
%ADD11C,0.100000*%
%ADD12C,0.225000*%
%ADD13RoundRect,0.140000X-0.140000X-0.170000X0.140000X-0.170000X0.140000X0.170000X-0.140000X0.170000X0*%
%ADD14RoundRect,0.050400X-0.069600X-0.249600X0.069600X-0.249600X0.069600X0.249600X-0.069600X0.249600X0*%
%ADD15RoundRect,0.050400X-0.249600X-0.069600X0.249600X-0.069600X0.249600X0.069600X-0.249600X0.069600X0*%
%ADD16RoundRect,0.050000X-0.050000X-0.250000X0.050000X-0.250000X0.050000X0.250000X-0.050000X0.250000X0*%
%ADD17FreePoly0,0.000000*%
%ADD18RoundRect,0.135000X-0.135000X-0.185000X0.135000X-0.185000X0.135000X0.185000X-0.135000X0.185000X0*%
%ADD19RoundRect,0.200000X-0.250000X-0.200000X0.250000X-0.200000X0.250000X0.200000X-0.250000X0.200000X0*%
%ADD20RoundRect,0.150000X-0.587500X-0.150000X0.587500X-0.150000X0.587500X0.150000X-0.587500X0.150000X0*%
%ADD21RoundRect,0.050000X-0.350000X-0.050000X0.350000X-0.050000X0.350000X0.050000X-0.350000X0.050000X0*%
%ADD22RoundRect,0.050000X-0.050000X-0.350000X0.050000X-0.350000X0.050000X0.350000X-0.050000X0.350000X0*%
%ADD23R,4.600000X4.600000*%
%ADD24RoundRect,0.250000X-0.350000X-0.625000X0.350000X-0.625000X0.350000X0.625000X-0.350000X0.625000X0*%
%ADD25O,1.200000X1.750000*%
%ADD26RoundRect,0.150000X-0.150000X-0.625000X0.150000X-0.625000X0.150000X0.625000X-0.150000X0.625000X0*%
%ADD27RoundRect,0.250000X-0.350000X-0.650000X0.350000X-0.650000X0.350000X0.650000X-0.350000X0.650000X0*%
%ADD28RoundRect,0.100000X-0.850000X-0.100000X0.850000X-0.100000X0.850000X0.100000X-0.850000X0.100000X0*%
%ADD29RoundRect,0.225000X-0.225000X-0.250000X0.225000X-0.250000X0.225000X0.250000X-0.225000X0.250000X0*%
%ADD30C,2.000000*%
%ADD31RoundRect,0.218750X-0.218750X-0.256250X0.218750X-0.256250X0.218750X0.256250X-0.218750X0.256250X0*%
%ADD32RoundRect,0.150000X-0.150000X-0.400000X0.150000X-0.400000X0.150000X0.400000X-0.150000X0.400000X0*%
%ADD33R,0.300000X1.300000*%
%ADD34R,1.800000X2.200000*%
%ADD35R,0.675000X0.250000*%
%ADD36R,0.250000X0.675000*%
%ADD37RoundRect,0.062500X-0.375000X-0.062500X0.375000X-0.062500X0.375000X0.062500X-0.375000X0.062500X0*%
%ADD38RoundRect,0.062500X-0.062500X-0.375000X0.062500X-0.375000X0.062500X0.375000X-0.062500X0.375000X0*%
%ADD39R,3.450000X3.450000*%
%ADD40RoundRect,0.147500X-0.147500X-0.172500X0.147500X-0.172500X0.147500X0.172500X-0.147500X0.172500X0*%
%ADD41C,0.250000*%
%ADD42RoundRect,0.250000X-0.350000X-0.850000X0.350000X-0.850000X0.350000X0.850000X-0.350000X0.850000X0*%
%ADD43RoundRect,0.100000X-0.637500X-0.100000X0.637500X-0.100000X0.637500X0.100000X-0.637500X0.100000X0*%
G04 APERTURE END LIST*
D10*
X140155137Y-146430521D02*
X140459899Y-146430521D01*
X140269423Y-146963855D02*
X140269423Y-146278140D01*
X140269423Y-146278140D02*
X140307518Y-146201950D01*
X140307518Y-146201950D02*
X140383708Y-146163855D01*
X140383708Y-146163855D02*
X140459899Y-146163855D01*
X140840851Y-146963855D02*
X140764661Y-146925760D01*
X140764661Y-146925760D02*
X140726566Y-146849569D01*
X140726566Y-146849569D02*
X140726566Y-146163855D01*
X141450376Y-146925760D02*
X141374185Y-146963855D01*
X141374185Y-146963855D02*
X141221804Y-146963855D01*
X141221804Y-146963855D02*
X141145614Y-146925760D01*
X141145614Y-146925760D02*
X141107518Y-146849569D01*
X141107518Y-146849569D02*
X141107518Y-146544807D01*
X141107518Y-146544807D02*
X141145614Y-146468617D01*
X141145614Y-146468617D02*
X141221804Y-146430521D01*
X141221804Y-146430521D02*
X141374185Y-146430521D01*
X141374185Y-146430521D02*
X141450376Y-146468617D01*
X141450376Y-146468617D02*
X141488471Y-146544807D01*
X141488471Y-146544807D02*
X141488471Y-146620998D01*
X141488471Y-146620998D02*
X141107518Y-146697188D01*
X141755137Y-146963855D02*
X142174185Y-146430521D01*
X141755137Y-146430521D02*
X142174185Y-146963855D01*
X234536089Y-138744807D02*
X234269423Y-138744807D01*
X234269423Y-139163855D02*
X234269423Y-138363855D01*
X234269423Y-138363855D02*
X234650375Y-138363855D01*
X234917041Y-139125760D02*
X235031327Y-139163855D01*
X235031327Y-139163855D02*
X235221803Y-139163855D01*
X235221803Y-139163855D02*
X235297994Y-139125760D01*
X235297994Y-139125760D02*
X235336089Y-139087664D01*
X235336089Y-139087664D02*
X235374184Y-139011474D01*
X235374184Y-139011474D02*
X235374184Y-138935283D01*
X235374184Y-138935283D02*
X235336089Y-138859093D01*
X235336089Y-138859093D02*
X235297994Y-138820998D01*
X235297994Y-138820998D02*
X235221803Y-138782902D01*
X235221803Y-138782902D02*
X235069422Y-138744807D01*
X235069422Y-138744807D02*
X234993232Y-138706712D01*
X234993232Y-138706712D02*
X234955137Y-138668617D01*
X234955137Y-138668617D02*
X234917041Y-138592426D01*
X234917041Y-138592426D02*
X234917041Y-138516236D01*
X234917041Y-138516236D02*
X234955137Y-138440045D01*
X234955137Y-138440045D02*
X234993232Y-138401950D01*
X234993232Y-138401950D02*
X235069422Y-138363855D01*
X235069422Y-138363855D02*
X235259899Y-138363855D01*
X235259899Y-138363855D02*
X235374184Y-138401950D01*
X236174185Y-139163855D02*
X235907518Y-138782902D01*
X235717042Y-139163855D02*
X235717042Y-138363855D01*
X235717042Y-138363855D02*
X236021804Y-138363855D01*
X236021804Y-138363855D02*
X236097994Y-138401950D01*
X236097994Y-138401950D02*
X236136089Y-138440045D01*
X236136089Y-138440045D02*
X236174185Y-138516236D01*
X236174185Y-138516236D02*
X236174185Y-138630521D01*
X236174185Y-138630521D02*
X236136089Y-138706712D01*
X236136089Y-138706712D02*
X236097994Y-138744807D01*
X236097994Y-138744807D02*
X236021804Y-138782902D01*
X236021804Y-138782902D02*
X235717042Y-138782902D01*
X270155137Y-146430521D02*
X270459899Y-146430521D01*
X270269423Y-146963855D02*
X270269423Y-146278140D01*
X270269423Y-146278140D02*
X270307518Y-146201950D01*
X270307518Y-146201950D02*
X270383708Y-146163855D01*
X270383708Y-146163855D02*
X270459899Y-146163855D01*
X270840851Y-146963855D02*
X270764661Y-146925760D01*
X270764661Y-146925760D02*
X270726566Y-146849569D01*
X270726566Y-146849569D02*
X270726566Y-146163855D01*
X271450376Y-146925760D02*
X271374185Y-146963855D01*
X271374185Y-146963855D02*
X271221804Y-146963855D01*
X271221804Y-146963855D02*
X271145614Y-146925760D01*
X271145614Y-146925760D02*
X271107518Y-146849569D01*
X271107518Y-146849569D02*
X271107518Y-146544807D01*
X271107518Y-146544807D02*
X271145614Y-146468617D01*
X271145614Y-146468617D02*
X271221804Y-146430521D01*
X271221804Y-146430521D02*
X271374185Y-146430521D01*
X271374185Y-146430521D02*
X271450376Y-146468617D01*
X271450376Y-146468617D02*
X271488471Y-146544807D01*
X271488471Y-146544807D02*
X271488471Y-146620998D01*
X271488471Y-146620998D02*
X271107518Y-146697188D01*
X271755137Y-146963855D02*
X272174185Y-146430521D01*
X271755137Y-146430521D02*
X272174185Y-146963855D01*
%TO.C,C60*%
X242875164Y-149793000D02*
X243090836Y-149793000D01*
X242875164Y-150513000D02*
X243090836Y-150513000D01*
%TO.C,U11*%
X229959000Y-148645000D02*
X229959000Y-148875000D01*
X229959000Y-148875000D02*
X230689000Y-148875000D01*
X230689000Y-144155000D02*
X230259000Y-144155000D01*
X232949000Y-144155000D02*
X233679000Y-144155000D01*
X232949000Y-148875000D02*
X233679000Y-148875000D01*
X233679000Y-144155000D02*
X233679000Y-144385000D01*
X233679000Y-148645000D02*
X233679000Y-148875000D01*
X229959000Y-144155000D02*
X229719000Y-143825000D01*
X230199000Y-143825000D01*
X229959000Y-144155000D01*
G36*
X229959000Y-144155000D02*
G01*
X229719000Y-143825000D01*
X230199000Y-143825000D01*
X229959000Y-144155000D01*
G37*
%TO.C,R68*%
X240346359Y-154203000D02*
X240653641Y-154203000D01*
X240346359Y-154963000D02*
X240653641Y-154963000D01*
%TO.C,Y3*%
X295590000Y-140790000D02*
X295590000Y-143210000D01*
X295590000Y-143210000D02*
X298410000Y-143210000D01*
%TO.C,Q1*%
X179480000Y-143440000D02*
X181000000Y-143440000D01*
X179480000Y-143490000D02*
X179480000Y-143440000D01*
X179480000Y-145390000D02*
X179480000Y-144610000D01*
X179480000Y-146560000D02*
X179480000Y-146510000D01*
X181000000Y-143440000D02*
X181000000Y-144440000D01*
X181000000Y-145560000D02*
X181000000Y-146560000D01*
X181000000Y-146560000D02*
X179480000Y-146560000D01*
X178940000Y-144620000D02*
X179180000Y-144950000D01*
X178700000Y-144950000D01*
X178940000Y-144620000D01*
G36*
X179180000Y-144950000D02*
G01*
X178700000Y-144950000D01*
X178940000Y-144620000D01*
X179180000Y-144950000D01*
G37*
%TO.C,R72*%
X249946359Y-154020000D02*
X250253641Y-154020000D01*
X249946359Y-154780000D02*
X250253641Y-154780000D01*
%TO.C,R60*%
X240346359Y-155297000D02*
X240653641Y-155297000D01*
X240346359Y-156057000D02*
X240653641Y-156057000D01*
%TO.C,U1*%
X190890000Y-144890000D02*
X191440000Y-144890000D01*
X190890000Y-145440000D02*
X190890000Y-144890000D01*
X190890000Y-151110000D02*
X190890000Y-150560000D01*
X191440000Y-151110000D02*
X190890000Y-151110000D01*
X196560000Y-144890000D02*
X197110000Y-144890000D01*
X197110000Y-144890000D02*
X197110000Y-145440000D01*
X197110000Y-150560000D02*
X197110000Y-151110000D01*
X197110000Y-151110000D02*
X196560000Y-151110000D01*
X190390000Y-145800000D02*
X190060000Y-146040000D01*
X190060000Y-145560000D01*
X190390000Y-145800000D01*
G36*
X190390000Y-145800000D02*
G01*
X190060000Y-146040000D01*
X190060000Y-145560000D01*
X190390000Y-145800000D01*
G37*
%TO.C,C45*%
X217892164Y-154140000D02*
X218107836Y-154140000D01*
X217892164Y-154860000D02*
X218107836Y-154860000D01*
%TO.C,C9*%
X190792164Y-142990000D02*
X191007836Y-142990000D01*
X190792164Y-143710000D02*
X191007836Y-143710000D01*
%TO.C,J2*%
X217537000Y-140175000D02*
X217537000Y-147995000D01*
X217537000Y-141775000D02*
X218457000Y-141775000D01*
X217537000Y-147995000D02*
X225657000Y-147995000D01*
X218457000Y-140175000D02*
X217537000Y-140175000D01*
X218457000Y-141775000D02*
X218457000Y-140175000D01*
X218737000Y-141775000D02*
X218457000Y-141775000D01*
X218737000Y-141775000D02*
X218737000Y-140560000D01*
X218797000Y-145735000D02*
X218797000Y-147995000D01*
X219297000Y-145735000D02*
X219297000Y-147995000D01*
X220097000Y-143635000D02*
X223097000Y-143635000D01*
X220097000Y-147995000D02*
X220097000Y-143635000D01*
X223097000Y-143635000D02*
X223097000Y-147995000D01*
X224737000Y-140175000D02*
X224737000Y-141775000D01*
X224737000Y-141775000D02*
X224457000Y-141775000D01*
X225657000Y-140175000D02*
X224737000Y-140175000D01*
X225657000Y-141775000D02*
X224737000Y-141775000D01*
X225657000Y-147995000D02*
X225657000Y-140175000D01*
X218297000Y-144135000D02*
X219297000Y-144135000D01*
X219297000Y-145735000D01*
X218297000Y-145735000D01*
X218297000Y-144135000D01*
X223897000Y-144135000D02*
X224897000Y-144135000D01*
X224897000Y-145735000D01*
X223897000Y-145735000D01*
X223897000Y-144135000D01*
%TO.C,R73*%
X252346359Y-154020000D02*
X252653641Y-154020000D01*
X252346359Y-154780000D02*
X252653641Y-154780000D01*
%TO.C,J5*%
X165890000Y-141215000D02*
X166940000Y-141215000D01*
X165890000Y-143715000D02*
X165890000Y-141215000D01*
X166940000Y-141215000D02*
X166940000Y-140225000D01*
X167060000Y-145685000D02*
X170940000Y-145685000D01*
X172110000Y-141215000D02*
X171060000Y-141215000D01*
X172110000Y-143715000D02*
X172110000Y-141215000D01*
%TO.C,U7*%
X262240000Y-147354000D02*
X267760000Y-147354000D01*
X262240000Y-147529000D02*
X262240000Y-147354000D01*
X262240000Y-155774000D02*
X262240000Y-155599000D01*
X267760000Y-147354000D02*
X267760000Y-147529000D01*
X267760000Y-155599000D02*
X267760000Y-155774000D01*
X267760000Y-155774000D02*
X262240000Y-155774000D01*
X261500000Y-147524000D02*
X261160000Y-147054000D01*
X261840000Y-147054000D01*
X261500000Y-147524000D01*
G36*
X261500000Y-147524000D02*
G01*
X261160000Y-147054000D01*
X261840000Y-147054000D01*
X261500000Y-147524000D01*
G37*
%TO.C,R3*%
X221242359Y-148670000D02*
X221549641Y-148670000D01*
X221242359Y-149430000D02*
X221549641Y-149430000D01*
%TO.C,C85*%
X235509420Y-144490000D02*
X235790580Y-144490000D01*
X235509420Y-145510000D02*
X235790580Y-145510000D01*
%TO.C,C81*%
X229392164Y-149468000D02*
X229607836Y-149468000D01*
X229392164Y-150188000D02*
X229607836Y-150188000D01*
%TO.C,C2*%
X188392164Y-146640000D02*
X188607836Y-146640000D01*
X188392164Y-147360000D02*
X188607836Y-147360000D01*
%TO.C,L3*%
X208527221Y-152490000D02*
X208852779Y-152490000D01*
X208527221Y-153510000D02*
X208852779Y-153510000D01*
%TO.C,C23*%
X116302164Y-144090000D02*
X116517836Y-144090000D01*
X116302164Y-144810000D02*
X116517836Y-144810000D01*
%TO.C,R45*%
X249846359Y-147144000D02*
X250153641Y-147144000D01*
X249846359Y-147904000D02*
X250153641Y-147904000D01*
%TO.C,C11*%
X164892164Y-148126000D02*
X165107836Y-148126000D01*
X164892164Y-148846000D02*
X165107836Y-148846000D01*
%TO.C,Y4*%
X186820000Y-143305000D02*
X186820000Y-145025000D01*
X186820000Y-145025000D02*
X189340000Y-145025000D01*
X189340000Y-143305000D02*
X186820000Y-143305000D01*
%TO.C,C30*%
X305392164Y-153140000D02*
X305607836Y-153140000D01*
X305392164Y-153860000D02*
X305607836Y-153860000D01*
%TO.C,C22*%
X119242164Y-144090000D02*
X119457836Y-144090000D01*
X119242164Y-144810000D02*
X119457836Y-144810000D01*
%TO.C,C50*%
X207854164Y-142000000D02*
X208069836Y-142000000D01*
X207854164Y-142720000D02*
X208069836Y-142720000D01*
%TO.C,R6*%
X227616359Y-146751000D02*
X227923641Y-146751000D01*
X227616359Y-147511000D02*
X227923641Y-147511000D01*
%TO.C,R43*%
X245246359Y-146220000D02*
X245553641Y-146220000D01*
X245246359Y-146980000D02*
X245553641Y-146980000D01*
%TO.C,C82*%
X227021164Y-144640000D02*
X227236836Y-144640000D01*
X227021164Y-145360000D02*
X227236836Y-145360000D01*
%TO.C,C62*%
X244430164Y-150866000D02*
X244645836Y-150866000D01*
X244430164Y-151586000D02*
X244645836Y-151586000D01*
%TO.C,C61*%
X232950164Y-150443000D02*
X233165836Y-150443000D01*
X232950164Y-151163000D02*
X233165836Y-151163000D01*
%TO.C,C86*%
X227001164Y-141140000D02*
X227216836Y-141140000D01*
X227001164Y-141860000D02*
X227216836Y-141860000D01*
%TO.C,C51*%
X214299164Y-151778000D02*
X214514836Y-151778000D01*
X214299164Y-152498000D02*
X214514836Y-152498000D01*
%TO.C,R10*%
X238846359Y-144120000D02*
X239153641Y-144120000D01*
X238846359Y-144880000D02*
X239153641Y-144880000D01*
%TO.C,C46*%
X219892164Y-154140000D02*
X220107836Y-154140000D01*
X219892164Y-154860000D02*
X220107836Y-154860000D01*
%TO.C,J4*%
X248350000Y-140700000D02*
X248350000Y-142040000D01*
X248350000Y-144760000D02*
X248350000Y-146500000D01*
X248350000Y-146500000D02*
X263650000Y-146500000D01*
X249840000Y-140700000D02*
X248350000Y-140700000D01*
X249840000Y-140700000D02*
X249840000Y-139500000D01*
X262160000Y-140700000D02*
X263650000Y-140700000D01*
X263650000Y-140700000D02*
X263650000Y-142040000D01*
X263650000Y-146500000D02*
X263650000Y-144760000D01*
%TO.C,C7*%
X194392164Y-152290000D02*
X194607836Y-152290000D01*
X194392164Y-153010000D02*
X194607836Y-153010000D01*
%TO.C,C88*%
X235509420Y-146928000D02*
X235790580Y-146928000D01*
X235509420Y-147948000D02*
X235790580Y-147948000D01*
%TO.C,R4*%
X223253359Y-148670000D02*
X223560641Y-148670000D01*
X223253359Y-149430000D02*
X223560641Y-149430000D01*
%TO.C,R20*%
X231829359Y-141120000D02*
X232136641Y-141120000D01*
X231829359Y-141880000D02*
X232136641Y-141880000D01*
%TO.C,C6*%
X160892164Y-151640000D02*
X161107836Y-151640000D01*
X160892164Y-152360000D02*
X161107836Y-152360000D01*
%TO.C,R13*%
X183106359Y-144620000D02*
X183413641Y-144620000D01*
X183106359Y-145380000D02*
X183413641Y-145380000D01*
%TO.C,C40*%
X209212164Y-146990000D02*
X209427836Y-146990000D01*
X209212164Y-147710000D02*
X209427836Y-147710000D01*
%TO.C,U4*%
D11*
X203400000Y-143350000D02*
X203400000Y-143130000D01*
X203400000Y-143350000D02*
X204120000Y-143350000D01*
X203600000Y-140650000D02*
X204120000Y-140650000D01*
X205880000Y-140650000D02*
X206600000Y-140650000D01*
X206600000Y-140650000D02*
X206600000Y-140870000D01*
X206600000Y-143130000D02*
X206600000Y-143350000D01*
X206600000Y-143350000D02*
X205880000Y-143350000D01*
X203400000Y-140650000D02*
X203040000Y-140650000D01*
X203400000Y-140290000D01*
X203400000Y-140650000D01*
G36*
X203400000Y-140650000D02*
G01*
X203040000Y-140650000D01*
X203400000Y-140290000D01*
X203400000Y-140650000D01*
G37*
%TO.C,U3*%
D10*
X211247000Y-145390000D02*
X211722000Y-145390000D01*
X211247000Y-145865000D02*
X211247000Y-145390000D01*
X211247000Y-150610000D02*
X211247000Y-150135000D01*
X211722000Y-150610000D02*
X211247000Y-150610000D01*
X215992000Y-145390000D02*
X216467000Y-145390000D01*
X216467000Y-145390000D02*
X216467000Y-145865000D01*
X216467000Y-150135000D02*
X216467000Y-150610000D01*
X216467000Y-150610000D02*
X215992000Y-150610000D01*
X210717000Y-146250000D02*
X210387000Y-146490000D01*
X210387000Y-146010000D01*
X210717000Y-146250000D01*
G36*
X210717000Y-146250000D02*
G01*
X210387000Y-146490000D01*
X210387000Y-146010000D01*
X210717000Y-146250000D01*
G37*
%TO.C,C64*%
X267492164Y-146029000D02*
X267707836Y-146029000D01*
X267492164Y-146749000D02*
X267707836Y-146749000D01*
%TO.C,C44*%
X215892164Y-154140000D02*
X216107836Y-154140000D01*
X215892164Y-154860000D02*
X216107836Y-154860000D01*
%TO.C,C63*%
X254355164Y-150916000D02*
X254570836Y-150916000D01*
X254355164Y-151636000D02*
X254570836Y-151636000D01*
%TO.C,R61*%
X242746359Y-155220000D02*
X243053641Y-155220000D01*
X242746359Y-155980000D02*
X243053641Y-155980000D01*
%TO.C,C80*%
X227838420Y-147976000D02*
X228119580Y-147976000D01*
X227838420Y-148996000D02*
X228119580Y-148996000D01*
%TO.C,R7*%
X197846359Y-141620000D02*
X198153641Y-141620000D01*
X197846359Y-142380000D02*
X198153641Y-142380000D01*
%TO.C,R70*%
X245146359Y-154020000D02*
X245453641Y-154020000D01*
X245146359Y-154780000D02*
X245453641Y-154780000D01*
%TO.C,C33*%
X301742164Y-151190000D02*
X301957836Y-151190000D01*
X301742164Y-151910000D02*
X301957836Y-151910000D01*
%TO.C,R40*%
X238346359Y-146220000D02*
X238653641Y-146220000D01*
X238346359Y-146980000D02*
X238653641Y-146980000D01*
%TO.C,U5*%
X184240000Y-148895000D02*
X185760000Y-148895000D01*
X184240000Y-148945000D02*
X184240000Y-148895000D01*
X184240000Y-150845000D02*
X184240000Y-150065000D01*
X184240000Y-152015000D02*
X184240000Y-151965000D01*
X185760000Y-148895000D02*
X185760000Y-149895000D01*
X185760000Y-151015000D02*
X185760000Y-152015000D01*
X185760000Y-152015000D02*
X184240000Y-152015000D01*
X183700000Y-150075000D02*
X183940000Y-150405000D01*
X183460000Y-150405000D01*
X183700000Y-150075000D01*
G36*
X183940000Y-150405000D02*
G01*
X183460000Y-150405000D01*
X183700000Y-150075000D01*
X183940000Y-150405000D01*
G37*
%TO.C,C3*%
X196892164Y-152640000D02*
X197107836Y-152640000D01*
X196892164Y-153360000D02*
X197107836Y-153360000D01*
%TO.C,C41*%
X209212164Y-145490000D02*
X209427836Y-145490000D01*
X209212164Y-146210000D02*
X209427836Y-146210000D01*
%TO.C,U2*%
X121750000Y-145400000D02*
X116250000Y-145400000D01*
X121750000Y-150600000D02*
X116250000Y-150600000D01*
D12*
X122262500Y-145000000D02*
G75*
G02*
X122037500Y-145000000I-112500J0D01*
G01*
X122037500Y-145000000D02*
G75*
G02*
X122262500Y-145000000I112500J0D01*
G01*
%TO.C,R21*%
D10*
X233849359Y-141120000D02*
X234156641Y-141120000D01*
X233849359Y-141880000D02*
X234156641Y-141880000D01*
%TO.C,R22*%
X235861359Y-141120000D02*
X236168641Y-141120000D01*
X235861359Y-141880000D02*
X236168641Y-141880000D01*
%TO.C,C87*%
X229392164Y-141140000D02*
X229607836Y-141140000D01*
X229392164Y-141860000D02*
X229607836Y-141860000D01*
%TO.C,AE1*%
X154145000Y-146640000D02*
X154145000Y-149360000D01*
X154145000Y-149360000D02*
X160855000Y-149360000D01*
X160855000Y-146640000D02*
X154145000Y-146640000D01*
%TO.C,R63*%
X247546359Y-155220000D02*
X247853641Y-155220000D01*
X247546359Y-155980000D02*
X247853641Y-155980000D01*
%TO.C,L1*%
X187837221Y-152535000D02*
X188162779Y-152535000D01*
X187837221Y-153555000D02*
X188162779Y-153555000D01*
%TO.C,U6*%
X298250000Y-145400000D02*
X303750000Y-145400000D01*
X298250000Y-150600000D02*
X303750000Y-150600000D01*
D12*
X297962500Y-151000000D02*
G75*
G02*
X297737500Y-151000000I-112500J0D01*
G01*
X297737500Y-151000000D02*
G75*
G02*
X297962500Y-151000000I112500J0D01*
G01*
%TO.C,R12*%
D10*
X243846359Y-144120000D02*
X244153641Y-144120000D01*
X243846359Y-144880000D02*
X244153641Y-144880000D01*
%TO.C,R74*%
X254746359Y-153320000D02*
X255053641Y-153320000D01*
X254746359Y-154080000D02*
X255053641Y-154080000D01*
%TO.C,C4*%
X188842164Y-148640000D02*
X189057836Y-148640000D01*
X188842164Y-149360000D02*
X189057836Y-149360000D01*
%TO.C,C34*%
X300892164Y-141640000D02*
X301107836Y-141640000D01*
X300892164Y-142360000D02*
X301107836Y-142360000D01*
%TO.C,C1*%
X188392164Y-145525000D02*
X188607836Y-145525000D01*
X188392164Y-146245000D02*
X188607836Y-146245000D01*
%TO.C,R44*%
X247546359Y-147143000D02*
X247853641Y-147143000D01*
X247546359Y-147903000D02*
X247853641Y-147903000D01*
%TO.C,C52*%
X183055164Y-147745000D02*
X183270836Y-147745000D01*
X183055164Y-148465000D02*
X183270836Y-148465000D01*
%TO.C,C8*%
X198942164Y-145040000D02*
X199157836Y-145040000D01*
X198942164Y-145760000D02*
X199157836Y-145760000D01*
%TO.C,R67*%
X257146359Y-155220000D02*
X257453641Y-155220000D01*
X257146359Y-155980000D02*
X257453641Y-155980000D01*
%TO.C,C5*%
X194392164Y-142990000D02*
X194607836Y-142990000D01*
X194392164Y-143710000D02*
X194607836Y-143710000D01*
%TO.C,U9*%
X247190000Y-148416000D02*
X251810000Y-148416000D01*
X247190000Y-148616000D02*
X247190000Y-148416000D01*
X247190000Y-153636000D02*
X247190000Y-153436000D01*
X251810000Y-148416000D02*
X251810000Y-148616000D01*
X251810000Y-153436000D02*
X251810000Y-153636000D01*
X251810000Y-153636000D02*
X247190000Y-153636000D01*
X246550000Y-148616000D02*
X246210000Y-148146000D01*
X246890000Y-148146000D01*
X246550000Y-148616000D01*
G36*
X246550000Y-148616000D02*
G01*
X246210000Y-148146000D01*
X246890000Y-148146000D01*
X246550000Y-148616000D01*
G37*
%TO.C,C42*%
X211099164Y-143502000D02*
X211314836Y-143502000D01*
X211099164Y-144222000D02*
X211314836Y-144222000D01*
%TO.C,R62*%
X245146359Y-155220000D02*
X245453641Y-155220000D01*
X245146359Y-155980000D02*
X245453641Y-155980000D01*
%TO.C,C20*%
X114392164Y-153140000D02*
X114607836Y-153140000D01*
X114392164Y-153860000D02*
X114607836Y-153860000D01*
%TO.C,J1*%
X164350000Y-150800000D02*
X164350000Y-152140000D01*
X164350000Y-154860000D02*
X164350000Y-156600000D01*
X164350000Y-156600000D02*
X173650000Y-156600000D01*
X165840000Y-150800000D02*
X164350000Y-150800000D01*
X165840000Y-150800000D02*
X165840000Y-149600000D01*
X172160000Y-150800000D02*
X173650000Y-150800000D01*
X173650000Y-150800000D02*
X173650000Y-152140000D01*
X173650000Y-156600000D02*
X173650000Y-154860000D01*
%TO.C,U8*%
X235711000Y-148593000D02*
X240331000Y-148593000D01*
X235711000Y-148793000D02*
X235711000Y-148593000D01*
X235711000Y-153813000D02*
X235711000Y-153613000D01*
X240331000Y-148593000D02*
X240331000Y-148793000D01*
X240331000Y-153613000D02*
X240331000Y-153813000D01*
X240331000Y-153813000D02*
X235711000Y-153813000D01*
X235071000Y-148793000D02*
X234731000Y-148323000D01*
X235411000Y-148323000D01*
X235071000Y-148793000D01*
G36*
X235071000Y-148793000D02*
G01*
X234731000Y-148323000D01*
X235411000Y-148323000D01*
X235071000Y-148793000D01*
G37*
%TO.C,R64*%
X249946359Y-155220000D02*
X250253641Y-155220000D01*
X249946359Y-155980000D02*
X250253641Y-155980000D01*
%TO.C,R8*%
X200346359Y-141620000D02*
X200653641Y-141620000D01*
X200346359Y-142380000D02*
X200653641Y-142380000D01*
%TO.C,J3*%
X224890000Y-151935000D02*
X225940000Y-151935000D01*
X224890000Y-154435000D02*
X224890000Y-151935000D01*
X225940000Y-151935000D02*
X225940000Y-150945000D01*
X226060000Y-156405000D02*
X227940000Y-156405000D01*
X229110000Y-151935000D02*
X228060000Y-151935000D01*
X229110000Y-154435000D02*
X229110000Y-151935000D01*
%TO.C,R71*%
X247546359Y-154018000D02*
X247853641Y-154018000D01*
X247546359Y-154778000D02*
X247853641Y-154778000D01*
%TO.C,Y1*%
X183510000Y-140740000D02*
X183510000Y-143160000D01*
X183510000Y-143160000D02*
X186330000Y-143160000D01*
%TO.C,R11*%
X241346359Y-144120000D02*
X241653641Y-144120000D01*
X241346359Y-144880000D02*
X241653641Y-144880000D01*
%TO.C,C84*%
X231765420Y-142422000D02*
X232046580Y-142422000D01*
X231765420Y-143442000D02*
X232046580Y-143442000D01*
%TO.C,R65*%
X252346359Y-155220000D02*
X252653641Y-155220000D01*
X252346359Y-155980000D02*
X252653641Y-155980000D01*
%TO.C,R69*%
X242798359Y-153320000D02*
X243105641Y-153320000D01*
X242798359Y-154080000D02*
X243105641Y-154080000D01*
%TO.C,L4*%
X211647221Y-152490000D02*
X211972779Y-152490000D01*
X211647221Y-153510000D02*
X211972779Y-153510000D01*
%TO.C,C31*%
X301742164Y-144090000D02*
X301957836Y-144090000D01*
X301742164Y-144810000D02*
X301957836Y-144810000D01*
%TO.C,R42*%
X242946359Y-146220000D02*
X243253641Y-146220000D01*
X242946359Y-146980000D02*
X243253641Y-146980000D01*
%TO.C,R5*%
X225264359Y-148652000D02*
X225571641Y-148652000D01*
X225264359Y-149412000D02*
X225571641Y-149412000D01*
%TO.C,C25*%
X114892164Y-141640000D02*
X115107836Y-141640000D01*
X114892164Y-142360000D02*
X115107836Y-142360000D01*
%TO.C,R66*%
X254746359Y-155220000D02*
X255053641Y-155220000D01*
X254746359Y-155980000D02*
X255053641Y-155980000D01*
%TO.C,C83*%
X229248164Y-142843000D02*
X229463836Y-142843000D01*
X229248164Y-143563000D02*
X229463836Y-143563000D01*
%TO.C,R2*%
X219230359Y-148670000D02*
X219537641Y-148670000D01*
X219230359Y-149430000D02*
X219537641Y-149430000D01*
%TO.C,R75*%
X257146359Y-153320000D02*
X257453641Y-153320000D01*
X257146359Y-154080000D02*
X257453641Y-154080000D01*
%TO.C,C43*%
X218287164Y-149790000D02*
X218502836Y-149790000D01*
X218287164Y-150510000D02*
X218502836Y-150510000D01*
%TO.C,R41*%
X240646359Y-146220000D02*
X240953641Y-146220000D01*
X240646359Y-146980000D02*
X240953641Y-146980000D01*
%TO.C,C35*%
X304892164Y-141640000D02*
X305107836Y-141640000D01*
X304892164Y-142360000D02*
X305107836Y-142360000D01*
%TO.C,C21*%
X116302164Y-151190000D02*
X116517836Y-151190000D01*
X116302164Y-151910000D02*
X116517836Y-151910000D01*
%TO.C,Y2*%
X121590000Y-140790000D02*
X121590000Y-143210000D01*
X121590000Y-143210000D02*
X124410000Y-143210000D01*
%TO.C,C24*%
X118892164Y-141640000D02*
X119107836Y-141640000D01*
X118892164Y-142360000D02*
X119107836Y-142360000D01*
%TO.C,C32*%
X298802164Y-151190000D02*
X299017836Y-151190000D01*
X298802164Y-151910000D02*
X299017836Y-151910000D01*
%TD*%
%LPC*%
D13*
%TO.C,C60*%
X242503000Y-150153000D03*
X243463000Y-150153000D03*
%TD*%
D14*
%TO.C,U11*%
X231069000Y-144365000D03*
D15*
X230169000Y-144765000D03*
X230169000Y-145265000D03*
X230169000Y-145765000D03*
X230169000Y-146265000D03*
X230169000Y-146765000D03*
X230169000Y-147265000D03*
X230169000Y-147765000D03*
X230169000Y-148265000D03*
D14*
X231069000Y-148665000D03*
X232569000Y-148665000D03*
D15*
X233469000Y-148265000D03*
X233469000Y-147765000D03*
X233469000Y-147265000D03*
X233469000Y-146765000D03*
X233469000Y-146265000D03*
X233469000Y-145765000D03*
X233469000Y-145265000D03*
X233469000Y-144765000D03*
D14*
X232569000Y-144365000D03*
D16*
X231544000Y-144365000D03*
X231544000Y-148665000D03*
D17*
X231819000Y-146515000D03*
D16*
X232094000Y-144365000D03*
X232094000Y-148665000D03*
%TD*%
D18*
%TO.C,R68*%
X239990000Y-154583000D03*
X241010000Y-154583000D03*
%TD*%
D19*
%TO.C,Y3*%
X296300000Y-142550000D03*
X297700000Y-142550000D03*
X297700000Y-141450000D03*
X296300000Y-141450000D03*
%TD*%
D20*
%TO.C,Q1*%
X179302500Y-144050000D03*
X179302500Y-145950000D03*
X181177500Y-145000000D03*
%TD*%
D18*
%TO.C,R72*%
X249590000Y-154400000D03*
X250610000Y-154400000D03*
%TD*%
%TO.C,R60*%
X239990000Y-155677000D03*
X241010000Y-155677000D03*
%TD*%
D21*
%TO.C,U1*%
X191050000Y-145800000D03*
X191050000Y-146200000D03*
X191050000Y-146600000D03*
X191050000Y-147000000D03*
X191050000Y-147400000D03*
X191050000Y-147800000D03*
X191050000Y-148200000D03*
X191050000Y-148600000D03*
X191050000Y-149000000D03*
X191050000Y-149400000D03*
X191050000Y-149800000D03*
X191050000Y-150200000D03*
D22*
X191800000Y-150950000D03*
X192200000Y-150950000D03*
X192600000Y-150950000D03*
X193000000Y-150950000D03*
X193400000Y-150950000D03*
X193800000Y-150950000D03*
X194200000Y-150950000D03*
X194600000Y-150950000D03*
X195000000Y-150950000D03*
X195400000Y-150950000D03*
X195800000Y-150950000D03*
X196200000Y-150950000D03*
D21*
X196950000Y-150200000D03*
X196950000Y-149800000D03*
X196950000Y-149400000D03*
X196950000Y-149000000D03*
X196950000Y-148600000D03*
X196950000Y-148200000D03*
X196950000Y-147800000D03*
X196950000Y-147400000D03*
X196950000Y-147000000D03*
X196950000Y-146600000D03*
X196950000Y-146200000D03*
X196950000Y-145800000D03*
D22*
X196200000Y-145050000D03*
X195800000Y-145050000D03*
X195400000Y-145050000D03*
X195000000Y-145050000D03*
X194600000Y-145050000D03*
X194200000Y-145050000D03*
X193800000Y-145050000D03*
X193400000Y-145050000D03*
X193000000Y-145050000D03*
X192600000Y-145050000D03*
X192200000Y-145050000D03*
X191800000Y-145050000D03*
D23*
X194000000Y-148000000D03*
%TD*%
D13*
%TO.C,C45*%
X217520000Y-154500000D03*
X218480000Y-154500000D03*
%TD*%
%TO.C,C9*%
X190420000Y-143350000D03*
X191380000Y-143350000D03*
%TD*%
D24*
%TO.C,J2*%
X219597000Y-141635000D03*
D25*
X221597000Y-141635000D03*
X223597000Y-141635000D03*
%TD*%
D18*
%TO.C,R73*%
X251990000Y-154400000D03*
X253010000Y-154400000D03*
%TD*%
D26*
%TO.C,J5*%
X167500000Y-141000000D03*
X168500000Y-141000000D03*
X169500000Y-141000000D03*
X170500000Y-141000000D03*
D27*
X166200000Y-144875000D03*
X171800000Y-144875000D03*
%TD*%
D28*
%TO.C,U7*%
X261500000Y-147989000D03*
X261500000Y-148639000D03*
X261500000Y-149289000D03*
X261500000Y-149939000D03*
X261500000Y-150589000D03*
X261500000Y-151239000D03*
X261500000Y-151889000D03*
X261500000Y-152539000D03*
X261500000Y-153189000D03*
X261500000Y-153839000D03*
X261500000Y-154489000D03*
X261500000Y-155139000D03*
X268500000Y-155139000D03*
X268500000Y-154489000D03*
X268500000Y-153839000D03*
X268500000Y-153189000D03*
X268500000Y-152539000D03*
X268500000Y-151889000D03*
X268500000Y-151239000D03*
X268500000Y-150589000D03*
X268500000Y-149939000D03*
X268500000Y-149289000D03*
X268500000Y-148639000D03*
X268500000Y-147989000D03*
%TD*%
D18*
%TO.C,R3*%
X220886000Y-149050000D03*
X221906000Y-149050000D03*
%TD*%
D29*
%TO.C,C85*%
X234875000Y-145000000D03*
X236425000Y-145000000D03*
%TD*%
D13*
%TO.C,C81*%
X229020000Y-149828000D03*
X229980000Y-149828000D03*
%TD*%
D30*
%TO.C,FID5*%
X296000000Y-145000000D03*
%TD*%
D13*
%TO.C,C2*%
X188020000Y-147000000D03*
X188980000Y-147000000D03*
%TD*%
D31*
%TO.C,L3*%
X207902500Y-153000000D03*
X209477500Y-153000000D03*
%TD*%
D13*
%TO.C,C23*%
X115930000Y-144450000D03*
X116890000Y-144450000D03*
%TD*%
D18*
%TO.C,R45*%
X249490000Y-147524000D03*
X250510000Y-147524000D03*
%TD*%
D13*
%TO.C,C11*%
X164520000Y-148486000D03*
X165480000Y-148486000D03*
%TD*%
D32*
%TO.C,Y4*%
X187380000Y-144165000D03*
X188780000Y-144165000D03*
%TD*%
D13*
%TO.C,C30*%
X305020000Y-153500000D03*
X305980000Y-153500000D03*
%TD*%
%TO.C,C22*%
X118870000Y-144450000D03*
X119830000Y-144450000D03*
%TD*%
%TO.C,C50*%
X207482000Y-142360000D03*
X208442000Y-142360000D03*
%TD*%
D18*
%TO.C,R6*%
X227260000Y-147131000D03*
X228280000Y-147131000D03*
%TD*%
%TO.C,R43*%
X244890000Y-146600000D03*
X245910000Y-146600000D03*
%TD*%
D13*
%TO.C,C82*%
X226649000Y-145000000D03*
X227609000Y-145000000D03*
%TD*%
%TO.C,C62*%
X244058000Y-151226000D03*
X245018000Y-151226000D03*
%TD*%
%TO.C,C61*%
X232578000Y-150803000D03*
X233538000Y-150803000D03*
%TD*%
D30*
%TO.C,FID4*%
X258500000Y-151500000D03*
%TD*%
D13*
%TO.C,C86*%
X226629000Y-141500000D03*
X227589000Y-141500000D03*
%TD*%
%TO.C,C51*%
X213927000Y-152138000D03*
X214887000Y-152138000D03*
%TD*%
D18*
%TO.C,R10*%
X238490000Y-144500000D03*
X239510000Y-144500000D03*
%TD*%
D13*
%TO.C,C46*%
X219520000Y-154500000D03*
X220480000Y-154500000D03*
%TD*%
D33*
%TO.C,J4*%
X250250000Y-140150000D03*
X250750000Y-140150000D03*
X251250000Y-140150000D03*
X251750000Y-140150000D03*
X252250000Y-140150000D03*
X252750000Y-140150000D03*
X253250000Y-140150000D03*
X253750000Y-140150000D03*
X254250000Y-140150000D03*
X254750000Y-140150000D03*
X255250000Y-140150000D03*
X255750000Y-140150000D03*
X256250000Y-140150000D03*
X256750000Y-140150000D03*
X257250000Y-140150000D03*
X257750000Y-140150000D03*
X258250000Y-140150000D03*
X258750000Y-140150000D03*
X259250000Y-140150000D03*
X259750000Y-140150000D03*
X260250000Y-140150000D03*
X260750000Y-140150000D03*
X261250000Y-140150000D03*
X261750000Y-140150000D03*
D34*
X248350000Y-143400000D03*
X263650000Y-143400000D03*
%TD*%
D13*
%TO.C,C7*%
X194020000Y-152650000D03*
X194980000Y-152650000D03*
%TD*%
D29*
%TO.C,C88*%
X234875000Y-147438000D03*
X236425000Y-147438000D03*
%TD*%
D18*
%TO.C,R4*%
X222897000Y-149050000D03*
X223917000Y-149050000D03*
%TD*%
%TO.C,R20*%
X231473000Y-141500000D03*
X232493000Y-141500000D03*
%TD*%
D13*
%TO.C,C6*%
X160520000Y-152000000D03*
X161480000Y-152000000D03*
%TD*%
D18*
%TO.C,R13*%
X182750000Y-145000000D03*
X183770000Y-145000000D03*
%TD*%
D13*
%TO.C,C40*%
X208840000Y-147350000D03*
X209800000Y-147350000D03*
%TD*%
D35*
%TO.C,U4*%
X203737500Y-141250000D03*
X203737500Y-141750000D03*
X203737500Y-142250000D03*
X203737500Y-142750000D03*
D36*
X204500000Y-143012500D03*
X205000000Y-143012500D03*
X205500000Y-143012500D03*
D35*
X206262500Y-142750000D03*
X206262500Y-142250000D03*
X206262500Y-141750000D03*
X206262500Y-141250000D03*
D36*
X205500000Y-140987500D03*
X205000000Y-140987500D03*
X204500000Y-140987500D03*
%TD*%
D37*
%TO.C,U3*%
X211419500Y-146250000D03*
X211419500Y-146750000D03*
X211419500Y-147250000D03*
X211419500Y-147750000D03*
X211419500Y-148250000D03*
X211419500Y-148750000D03*
X211419500Y-149250000D03*
X211419500Y-149750000D03*
D38*
X212107000Y-150437500D03*
X212607000Y-150437500D03*
X213107000Y-150437500D03*
X213607000Y-150437500D03*
X214107000Y-150437500D03*
X214607000Y-150437500D03*
X215107000Y-150437500D03*
X215607000Y-150437500D03*
D37*
X216294500Y-149750000D03*
X216294500Y-149250000D03*
X216294500Y-148750000D03*
X216294500Y-148250000D03*
X216294500Y-147750000D03*
X216294500Y-147250000D03*
X216294500Y-146750000D03*
X216294500Y-146250000D03*
D38*
X215607000Y-145562500D03*
X215107000Y-145562500D03*
X214607000Y-145562500D03*
X214107000Y-145562500D03*
X213607000Y-145562500D03*
X213107000Y-145562500D03*
X212607000Y-145562500D03*
X212107000Y-145562500D03*
D39*
X213857000Y-148000000D03*
%TD*%
D13*
%TO.C,C64*%
X267120000Y-146389000D03*
X268080000Y-146389000D03*
%TD*%
%TO.C,C44*%
X215520000Y-154500000D03*
X216480000Y-154500000D03*
%TD*%
%TO.C,C63*%
X253983000Y-151276000D03*
X254943000Y-151276000D03*
%TD*%
D18*
%TO.C,R61*%
X242390000Y-155600000D03*
X243410000Y-155600000D03*
%TD*%
D40*
%TO.C,L2*%
X162160000Y-148000000D03*
X163130000Y-148000000D03*
%TD*%
D30*
%TO.C,FID1*%
X114000000Y-146500000D03*
%TD*%
D29*
%TO.C,C80*%
X227204000Y-148486000D03*
X228754000Y-148486000D03*
%TD*%
D18*
%TO.C,R7*%
X197490000Y-142000000D03*
X198510000Y-142000000D03*
%TD*%
%TO.C,R70*%
X244790000Y-154400000D03*
X245810000Y-154400000D03*
%TD*%
D13*
%TO.C,C33*%
X301370000Y-151550000D03*
X302330000Y-151550000D03*
%TD*%
D18*
%TO.C,R40*%
X237990000Y-146600000D03*
X239010000Y-146600000D03*
%TD*%
D20*
%TO.C,U5*%
X184062500Y-149505000D03*
X184062500Y-151405000D03*
X185937500Y-150455000D03*
%TD*%
D13*
%TO.C,C3*%
X196520000Y-153000000D03*
X197480000Y-153000000D03*
%TD*%
D30*
%TO.C,FID2*%
X124000000Y-155500000D03*
%TD*%
D13*
%TO.C,C41*%
X208840000Y-145850000D03*
X209800000Y-145850000D03*
%TD*%
D41*
%TO.C,U2*%
X121250000Y-146250000D03*
X121250000Y-146750000D03*
X121250000Y-147250000D03*
X121250000Y-147750000D03*
X121250000Y-148250000D03*
X121250000Y-148750000D03*
X121250000Y-149250000D03*
X121250000Y-149750000D03*
X120750000Y-145750000D03*
X120750000Y-146250000D03*
X120750000Y-149750000D03*
X120750000Y-150250000D03*
X120250000Y-145750000D03*
X120250000Y-146250000D03*
X120250000Y-149750000D03*
X120250000Y-150250000D03*
X119750000Y-145750000D03*
X119750000Y-146250000D03*
X119750000Y-149750000D03*
X119750000Y-150250000D03*
X119250000Y-145750000D03*
X119250000Y-146250000D03*
X119250000Y-149750000D03*
X119250000Y-150250000D03*
X118750000Y-145750000D03*
X118750000Y-146250000D03*
X118750000Y-149750000D03*
X118750000Y-150250000D03*
X118250000Y-145750000D03*
X118250000Y-150250000D03*
X117750000Y-145750000D03*
X117750000Y-146250000D03*
X117750000Y-149750000D03*
X117750000Y-150250000D03*
X117250000Y-145750000D03*
X117250000Y-146250000D03*
X117250000Y-146750000D03*
X117250000Y-147750000D03*
X117250000Y-148250000D03*
X117250000Y-149250000D03*
X117250000Y-149750000D03*
X117250000Y-150250000D03*
X116750000Y-146250000D03*
X116750000Y-146750000D03*
X116750000Y-147250000D03*
X116750000Y-147750000D03*
X116750000Y-148250000D03*
X116750000Y-148750000D03*
X116750000Y-149250000D03*
X116750000Y-149750000D03*
%TD*%
D18*
%TO.C,R21*%
X233493000Y-141500000D03*
X234513000Y-141500000D03*
%TD*%
%TO.C,R22*%
X235505000Y-141500000D03*
X236525000Y-141500000D03*
%TD*%
D13*
%TO.C,C87*%
X229020000Y-141500000D03*
X229980000Y-141500000D03*
%TD*%
D30*
%TO.C,FID3*%
X151000000Y-140500000D03*
%TD*%
D42*
%TO.C,AE1*%
X155005000Y-148000000D03*
X160705000Y-148000000D03*
%TD*%
D30*
%TO.C,FID6*%
X306000000Y-155750000D03*
%TD*%
D18*
%TO.C,R63*%
X247190000Y-155600000D03*
X248210000Y-155600000D03*
%TD*%
D31*
%TO.C,L1*%
X187212500Y-153045000D03*
X188787500Y-153045000D03*
%TD*%
D41*
%TO.C,U6*%
X298750000Y-149750000D03*
X298750000Y-149250000D03*
X298750000Y-148750000D03*
X298750000Y-148250000D03*
X298750000Y-147750000D03*
X298750000Y-147250000D03*
X298750000Y-146750000D03*
X298750000Y-146250000D03*
X299250000Y-150250000D03*
X299250000Y-149750000D03*
X299250000Y-146250000D03*
X299250000Y-145750000D03*
X299750000Y-150250000D03*
X299750000Y-149750000D03*
X299750000Y-146250000D03*
X299750000Y-145750000D03*
X300250000Y-150250000D03*
X300250000Y-149750000D03*
X300250000Y-146250000D03*
X300250000Y-145750000D03*
X300750000Y-150250000D03*
X300750000Y-149750000D03*
X300750000Y-146250000D03*
X300750000Y-145750000D03*
X301250000Y-150250000D03*
X301250000Y-149750000D03*
X301250000Y-146250000D03*
X301250000Y-145750000D03*
X301750000Y-150250000D03*
X301750000Y-145750000D03*
X302250000Y-150250000D03*
X302250000Y-149750000D03*
X302250000Y-146250000D03*
X302250000Y-145750000D03*
X302750000Y-150250000D03*
X302750000Y-149750000D03*
X302750000Y-149250000D03*
X302750000Y-148250000D03*
X302750000Y-147750000D03*
X302750000Y-146750000D03*
X302750000Y-146250000D03*
X302750000Y-145750000D03*
X303250000Y-149750000D03*
X303250000Y-149250000D03*
X303250000Y-148750000D03*
X303250000Y-148250000D03*
X303250000Y-147750000D03*
X303250000Y-147250000D03*
X303250000Y-146750000D03*
X303250000Y-146250000D03*
%TD*%
D18*
%TO.C,R12*%
X243490000Y-144500000D03*
X244510000Y-144500000D03*
%TD*%
%TO.C,R74*%
X254390000Y-153700000D03*
X255410000Y-153700000D03*
%TD*%
D13*
%TO.C,C4*%
X188470000Y-149000000D03*
X189430000Y-149000000D03*
%TD*%
%TO.C,C34*%
X300520000Y-142000000D03*
X301480000Y-142000000D03*
%TD*%
%TO.C,C1*%
X188020000Y-145885000D03*
X188980000Y-145885000D03*
%TD*%
D18*
%TO.C,R44*%
X247190000Y-147523000D03*
X248210000Y-147523000D03*
%TD*%
D13*
%TO.C,C52*%
X182683000Y-148105000D03*
X183643000Y-148105000D03*
%TD*%
%TO.C,C8*%
X198570000Y-145400000D03*
X199530000Y-145400000D03*
%TD*%
D18*
%TO.C,R67*%
X256790000Y-155600000D03*
X257810000Y-155600000D03*
%TD*%
D13*
%TO.C,C5*%
X194020000Y-143350000D03*
X194980000Y-143350000D03*
%TD*%
D43*
%TO.C,U9*%
X246637500Y-149076000D03*
X246637500Y-149726000D03*
X246637500Y-150376000D03*
X246637500Y-151026000D03*
X246637500Y-151676000D03*
X246637500Y-152326000D03*
X246637500Y-152976000D03*
X252362500Y-152976000D03*
X252362500Y-152326000D03*
X252362500Y-151676000D03*
X252362500Y-151026000D03*
X252362500Y-150376000D03*
X252362500Y-149726000D03*
X252362500Y-149076000D03*
%TD*%
D13*
%TO.C,C42*%
X210727000Y-143862000D03*
X211687000Y-143862000D03*
%TD*%
D18*
%TO.C,R62*%
X244790000Y-155600000D03*
X245810000Y-155600000D03*
%TD*%
D13*
%TO.C,C20*%
X114020000Y-153500000D03*
X114980000Y-153500000D03*
%TD*%
D33*
%TO.C,J1*%
X166250000Y-150250000D03*
X166750000Y-150250000D03*
X167250000Y-150250000D03*
X167750000Y-150250000D03*
X168250000Y-150250000D03*
X168750000Y-150250000D03*
X169250000Y-150250000D03*
X169750000Y-150250000D03*
X170250000Y-150250000D03*
X170750000Y-150250000D03*
X171250000Y-150250000D03*
X171750000Y-150250000D03*
D34*
X164350000Y-153500000D03*
X173650000Y-153500000D03*
%TD*%
D43*
%TO.C,U8*%
X235158500Y-149253000D03*
X235158500Y-149903000D03*
X235158500Y-150553000D03*
X235158500Y-151203000D03*
X235158500Y-151853000D03*
X235158500Y-152503000D03*
X235158500Y-153153000D03*
X240883500Y-153153000D03*
X240883500Y-152503000D03*
X240883500Y-151853000D03*
X240883500Y-151203000D03*
X240883500Y-150553000D03*
X240883500Y-149903000D03*
X240883500Y-149253000D03*
%TD*%
D18*
%TO.C,R64*%
X249590000Y-155600000D03*
X250610000Y-155600000D03*
%TD*%
%TO.C,R8*%
X199990000Y-142000000D03*
X201010000Y-142000000D03*
%TD*%
D26*
%TO.C,J3*%
X226500000Y-151720000D03*
X227500000Y-151720000D03*
D27*
X225200000Y-155595000D03*
X228800000Y-155595000D03*
%TD*%
D18*
%TO.C,R71*%
X247190000Y-154398000D03*
X248210000Y-154398000D03*
%TD*%
D19*
%TO.C,Y1*%
X184220000Y-142500000D03*
X185620000Y-142500000D03*
X185620000Y-141400000D03*
X184220000Y-141400000D03*
%TD*%
D18*
%TO.C,R11*%
X240990000Y-144500000D03*
X242010000Y-144500000D03*
%TD*%
D29*
%TO.C,C84*%
X231131000Y-142932000D03*
X232681000Y-142932000D03*
%TD*%
D18*
%TO.C,R65*%
X251990000Y-155600000D03*
X253010000Y-155600000D03*
%TD*%
%TO.C,R69*%
X242442000Y-153700000D03*
X243462000Y-153700000D03*
%TD*%
D31*
%TO.C,L4*%
X211022500Y-153000000D03*
X212597500Y-153000000D03*
%TD*%
D13*
%TO.C,C31*%
X301370000Y-144450000D03*
X302330000Y-144450000D03*
%TD*%
D18*
%TO.C,R42*%
X242590000Y-146600000D03*
X243610000Y-146600000D03*
%TD*%
%TO.C,R5*%
X224908000Y-149032000D03*
X225928000Y-149032000D03*
%TD*%
D13*
%TO.C,C25*%
X114520000Y-142000000D03*
X115480000Y-142000000D03*
%TD*%
D18*
%TO.C,R66*%
X254390000Y-155600000D03*
X255410000Y-155600000D03*
%TD*%
D13*
%TO.C,C83*%
X228876000Y-143203000D03*
X229836000Y-143203000D03*
%TD*%
D18*
%TO.C,R2*%
X218874000Y-149050000D03*
X219894000Y-149050000D03*
%TD*%
%TO.C,R75*%
X256790000Y-153700000D03*
X257810000Y-153700000D03*
%TD*%
D13*
%TO.C,C43*%
X217915000Y-150150000D03*
X218875000Y-150150000D03*
%TD*%
D18*
%TO.C,R41*%
X240290000Y-146600000D03*
X241310000Y-146600000D03*
%TD*%
D13*
%TO.C,C35*%
X304520000Y-142000000D03*
X305480000Y-142000000D03*
%TD*%
%TO.C,C21*%
X115930000Y-151550000D03*
X116890000Y-151550000D03*
%TD*%
D19*
%TO.C,Y2*%
X122300000Y-142550000D03*
X123700000Y-142550000D03*
X123700000Y-141450000D03*
X122300000Y-141450000D03*
%TD*%
D13*
%TO.C,C24*%
X118520000Y-142000000D03*
X119480000Y-142000000D03*
%TD*%
%TO.C,C32*%
X298430000Y-151550000D03*
X299390000Y-151550000D03*
%TD*%
%LPD*%
M02*
