%TF.GenerationSoftware,KiCad,Pcbnew,10.0.4*%
%TF.CreationDate,2026-09-02T14:46:28+02:00*%
%TF.ProjectId,smartbag_core,736d6172-7462-4616-975f-636f72652e6b,rev?*%
%TF.SameCoordinates,Original*%
%TF.FileFunction,Copper,L3,Inr*%
%TF.FilePolarity,Positive*%
%FSLAX46Y46*%
G04 Gerber Fmt 4.6, Leading zero omitted, Abs format (unit mm)*
G04 Created by KiCad (PCBNEW 10.0.4) date 2026-09-02 14:46:28*
%MOMM*%
%LPD*%
G01*
G04 APERTURE LIST*
G04 Aperture macros list*
%AMRoundRect*
0 Rectangle with rounded corners*
0 $1 Rounding radius*
0 $2 $3 $4 $5 $6 $7 $8 $9 X,Y pos of 4 corners*
0 Add a 4 corners polygon primitive as box body*
4,1,4,$2,$3,$4,$5,$6,$7,$8,$9,$2,$3,0*
0 Add four circle primitives for the rounded corners*
1,1,$1+$1,$2,$3*
1,1,$1+$1,$4,$5*
1,1,$1+$1,$6,$7*
1,1,$1+$1,$8,$9*
0 Add four rect primitives between the rounded corners*
20,1,$1+$1,$2,$3,$4,$5,0*
20,1,$1+$1,$4,$5,$6,$7,0*
20,1,$1+$1,$6,$7,$8,$9,0*
20,1,$1+$1,$8,$9,$2,$3,0*%
G04 Aperture macros list end*
%TA.AperFunction,ComponentPad*%
%ADD10RoundRect,0.250000X-0.350000X-0.625000X0.350000X-0.625000X0.350000X0.625000X-0.350000X0.625000X0*%
%TD*%
%TA.AperFunction,ComponentPad*%
%ADD11O,1.200000X1.750000*%
%TD*%
%TA.AperFunction,ViaPad*%
%ADD12C,0.250000*%
%TD*%
%TA.AperFunction,Conductor*%
%ADD13C,0.100000*%
%TD*%
%TA.AperFunction,Conductor*%
%ADD14C,0.300000*%
%TD*%
G04 APERTURE END LIST*
D10*
%TO.N,VBAT*%
%TO.C,J2*%
X219597000Y-141635000D03*
D11*
%TO.N,GND*%
X221597000Y-141635000D03*
%TO.N,NTC*%
X223597000Y-141635000D03*
%TD*%
D12*
%TO.N,VREF*%
X241850600Y-150076400D03*
X241069500Y-145383000D03*
%TO.N,GND*%
X155000000Y-150600000D03*
X146000000Y-145400000D03*
X116000000Y-140400000D03*
X134000000Y-150600000D03*
X120000000Y-155600000D03*
X120180000Y-144450000D03*
X158000000Y-150600000D03*
X256000000Y-157300000D03*
X180000000Y-138700000D03*
X252000000Y-157300000D03*
X299740000Y-151550000D03*
X164000000Y-138700000D03*
X301250000Y-146250000D03*
X117750000Y-149750000D03*
X120750000Y-146250000D03*
X240000000Y-157300000D03*
X120000000Y-140400000D03*
X228000000Y-138700000D03*
X224000000Y-138700000D03*
X183993000Y-148105000D03*
X220000000Y-138700000D03*
X117250000Y-148250000D03*
X296000000Y-155600000D03*
X140000000Y-150600000D03*
X301250000Y-149750000D03*
X128000000Y-140400000D03*
X282000000Y-145400000D03*
X245368000Y-151226000D03*
X232000000Y-157300000D03*
X204000000Y-157300000D03*
X302750000Y-149250000D03*
X300750000Y-149750000D03*
X119750000Y-146250000D03*
X128000000Y-155600000D03*
X155000000Y-145400000D03*
X137000000Y-150600000D03*
X288000000Y-150600000D03*
X152000000Y-150600000D03*
X191730000Y-143350000D03*
X279000000Y-150600000D03*
X189780000Y-149000000D03*
X304000000Y-155600000D03*
X149000000Y-150600000D03*
X273000000Y-150600000D03*
X137000000Y-145400000D03*
X304000000Y-140400000D03*
X237353553Y-150943325D03*
X276000000Y-150600000D03*
X216000000Y-138700000D03*
X273000000Y-145400000D03*
X200000000Y-138700000D03*
X200000000Y-157300000D03*
X210150000Y-145850000D03*
X176000000Y-157300000D03*
X208000000Y-157300000D03*
X180000000Y-157300000D03*
X212000000Y-157300000D03*
X116000000Y-155600000D03*
X196000000Y-157300000D03*
X143000000Y-145400000D03*
X208792000Y-142360000D03*
X184000000Y-157300000D03*
X219225000Y-150150000D03*
X196000000Y-138700000D03*
X300250000Y-146250000D03*
X215237000Y-152138000D03*
X188000000Y-157300000D03*
X248000000Y-157300000D03*
X233888000Y-150803000D03*
X243813000Y-150153000D03*
X255293000Y-151276000D03*
X302680000Y-144450000D03*
X236000000Y-138700000D03*
X302250000Y-146250000D03*
X172000000Y-138700000D03*
X285000000Y-145400000D03*
X300000000Y-155600000D03*
X292000000Y-155600000D03*
X118750000Y-146250000D03*
X146000000Y-150600000D03*
X192000000Y-138700000D03*
X192000000Y-157300000D03*
X117750000Y-146250000D03*
X204000000Y-138700000D03*
X302750000Y-148250000D03*
X140000000Y-145400000D03*
X168000000Y-138700000D03*
X268430000Y-146389000D03*
X299250000Y-149750000D03*
X117250000Y-147750000D03*
X119750000Y-149750000D03*
X120750000Y-149750000D03*
X119250000Y-149750000D03*
X285000000Y-150600000D03*
X300750000Y-146250000D03*
X117250000Y-149250000D03*
X240000000Y-138700000D03*
X244000000Y-138700000D03*
X292000000Y-140400000D03*
X193310295Y-145733770D03*
X300000000Y-140400000D03*
X216000000Y-157300000D03*
X208000000Y-138700000D03*
X302750000Y-146750000D03*
X117240000Y-144450000D03*
X158000000Y-145400000D03*
X302750000Y-147750000D03*
X288000000Y-145400000D03*
X184000000Y-138700000D03*
X212037000Y-143862000D03*
X282000000Y-150600000D03*
X195330000Y-143350000D03*
X161000000Y-145400000D03*
X152000000Y-145400000D03*
X117240000Y-151550000D03*
X176000000Y-138700000D03*
X279000000Y-145400000D03*
X299250000Y-146250000D03*
X232000000Y-138700000D03*
X118750000Y-149750000D03*
X149000000Y-145400000D03*
X210150000Y-147350000D03*
X195330000Y-152650000D03*
X302680000Y-151550000D03*
X244000000Y-157300000D03*
X236000000Y-157300000D03*
X212000000Y-138700000D03*
X276000000Y-145400000D03*
X188000000Y-138700000D03*
X161000000Y-150600000D03*
X134000000Y-145400000D03*
X117250000Y-146750000D03*
X143000000Y-150600000D03*
X119250000Y-146250000D03*
X302250000Y-149750000D03*
X270000000Y-145400000D03*
X220000000Y-157300000D03*
X300250000Y-149750000D03*
X199880000Y-145400000D03*
%TO.N,QI_AC1*%
X228125300Y-144890100D03*
X229967100Y-148954100D03*
X227471500Y-140960500D03*
X231985500Y-142761900D03*
%TO.N,VQI*%
X227797900Y-145797500D03*
X215414400Y-153783400D03*
X216644000Y-147750000D03*
%TO.N,QI_CLAMP1*%
X230446200Y-143135400D03*
X229617100Y-146157500D03*
%TO.N,QI_COMM1*%
X229629700Y-146641100D03*
X226115500Y-141300000D03*
%TO.N,QI_ILIM*%
X230875800Y-141899600D03*
X234249600Y-148262000D03*
%TO.N,QI_TS*%
X234051800Y-147690800D03*
X236206100Y-142425600D03*
%TO.N,QI_FOD*%
X234003000Y-141519700D03*
X235765900Y-146776000D03*
%TO.N,QI_COMM2*%
X234074900Y-146323400D03*
X228507600Y-141526100D03*
%TO.N,QI_BOOT2*%
X228345500Y-143268900D03*
X234067700Y-145646700D03*
%TO.N,QI_RECT*%
X234076800Y-145272800D03*
X234182800Y-147239600D03*
%TO.N,QI_AC2*%
X229836000Y-142375200D03*
X233871000Y-144363000D03*
X230490300Y-149828000D03*
%TO.N,FSR_C8*%
X260400700Y-148969800D03*
X268850000Y-148639000D03*
X255497500Y-141079300D03*
X239566000Y-155007000D03*
X243938300Y-148969800D03*
%TO.N,X24R_1*%
X303114200Y-145818500D03*
X296981600Y-142437600D03*
X300006500Y-142125800D03*
%TO.N,X24R_2*%
X303587300Y-141450000D03*
X303267800Y-145473300D03*
%TO.N,IR_LED_EN*%
X181800000Y-144050000D03*
X196200000Y-144700000D03*
%TO.N,IR_LED_K*%
X179935300Y-144931300D03*
X172568300Y-150029300D03*
%TO.N,FSR_C12*%
X268850000Y-151239000D03*
X256750000Y-141038500D03*
X249140300Y-153950300D03*
X260372800Y-150914000D03*
%TO.N,FSR_C0*%
X240375200Y-155227000D03*
X250809300Y-141032700D03*
X261150000Y-153189000D03*
%TO.N,XTAL32K_1*%
X190700000Y-145800000D03*
%TO.N,XTAL32K_2*%
X190700000Y-146200000D03*
X189852100Y-144799100D03*
%TO.N,MUX_S0*%
X187908300Y-152801300D03*
X258666500Y-156903900D03*
X261150000Y-153839000D03*
X190700000Y-146600000D03*
%TO.N,MUX_S1*%
X261150000Y-154489000D03*
X201580900Y-152398300D03*
X190700000Y-147000000D03*
%TO.N,ADC0*%
X236135500Y-149175800D03*
X239430000Y-146180000D03*
X190700000Y-147400000D03*
%TO.N,ADC1*%
X190700000Y-147800000D03*
X240807100Y-146556300D03*
X235588300Y-153582800D03*
%TO.N,ADC2*%
X241848600Y-152704600D03*
X190700000Y-148200000D03*
X244153200Y-147026300D03*
%TO.N,ADC3*%
X187530200Y-154852200D03*
X190700000Y-148600000D03*
X188880000Y-149505100D03*
X238028600Y-154751200D03*
X241317700Y-148818800D03*
X245474400Y-146180600D03*
%TO.N,MUX_S2*%
X255911800Y-155533400D03*
X268850000Y-154489000D03*
X190700000Y-149000000D03*
%TO.N,VDD_3V3*%
X238658700Y-145104000D03*
X267569200Y-145826100D03*
X205500000Y-140348300D03*
X116303500Y-149750000D03*
X247680200Y-150981400D03*
X194513600Y-153143600D03*
X197300000Y-145800000D03*
X233709300Y-151422200D03*
X186887500Y-153950000D03*
X212107000Y-145212000D03*
X182651100Y-148729000D03*
X188610800Y-148391400D03*
X226316500Y-148514800D03*
X302314900Y-150838700D03*
X191800000Y-144700000D03*
X166898600Y-141158700D03*
X116813400Y-145706500D03*
X190700000Y-149400000D03*
X198091200Y-150617300D03*
X303677000Y-146250000D03*
X188587500Y-149100000D03*
X268850000Y-147989000D03*
X254083900Y-151914800D03*
X195934200Y-153250700D03*
X198691700Y-142624000D03*
X213607000Y-150788000D03*
X300232200Y-147989000D03*
%TO.N,CS_RADAR_L*%
X171136900Y-147205200D03*
X117250000Y-146250000D03*
X190700000Y-149800000D03*
%TO.N,SPI_SCK*%
X190700000Y-150200000D03*
X187541900Y-150643300D03*
X268567700Y-156282600D03*
X167250000Y-151424100D03*
X116209200Y-146115700D03*
X303611100Y-150150900D03*
X190023000Y-156098800D03*
X117706600Y-147613100D03*
%TO.N,SPI_MOSI*%
X117005400Y-148505400D03*
X204352600Y-150382800D03*
X239149600Y-147585800D03*
X167912100Y-151686300D03*
X302554000Y-147054000D03*
X191800000Y-151300000D03*
%TO.N,RADAR_IRQ_L*%
X118912900Y-149160700D03*
X192200000Y-151300000D03*
%TO.N,SPI_MISO*%
X120592300Y-147831300D03*
X168250000Y-151143600D03*
X185046300Y-151992500D03*
X303968500Y-149371300D03*
X192600000Y-151300000D03*
X192998700Y-151897100D03*
%TO.N,CS_CAM*%
X193000000Y-151300000D03*
X168892500Y-151135000D03*
%TO.N,RADAR_EN*%
X118750000Y-150611100D03*
X271144500Y-153219400D03*
X193400000Y-151300000D03*
X268788500Y-156002600D03*
X301250000Y-145302000D03*
%TO.N,MUX_S3*%
X268850000Y-155139000D03*
X193800000Y-151300000D03*
%TO.N,MUX_EN_N*%
X268850000Y-153839000D03*
X194200000Y-151300000D03*
%TO.N,RADAR_IRQ_R*%
X302987000Y-147013000D03*
X194600000Y-151300000D03*
%TO.N,CS_RADAR_R*%
X302750000Y-149750000D03*
X195000000Y-151300000D03*
%TO.N,I2C_SDA*%
X195800000Y-151300000D03*
X169460700Y-151128700D03*
X196289400Y-142388000D03*
X214107000Y-150788000D03*
%TO.N,I2C_SCL*%
X204950000Y-140411500D03*
X214607000Y-150788000D03*
X196200000Y-151300000D03*
X169750000Y-151810100D03*
X199190000Y-142021200D03*
%TO.N,SWDIO*%
X197300000Y-150200000D03*
X170291100Y-142015300D03*
%TO.N,SWDCLK*%
X197300000Y-149800000D03*
X168921800Y-141891300D03*
%TO.N,IMU_INT1*%
X197300000Y-149400000D03*
X202559900Y-142358100D03*
%TO.N,HALL_OUT*%
X190450000Y-151399800D03*
X197300000Y-149000000D03*
%TO.N,PMIC_IRQ*%
X211070000Y-149250000D03*
X197300000Y-148600000D03*
%TO.N,NRESET*%
X203823300Y-148200000D03*
X197300000Y-148200000D03*
X225242800Y-150040100D03*
%TO.N,ANT_FEED*%
X197300000Y-147800000D03*
X161609700Y-147941600D03*
X199217800Y-152323500D03*
X159853000Y-151897700D03*
%TO.N,DECRF*%
X197300000Y-147000000D03*
X193479500Y-143411300D03*
%TO.N,XTAL32M_1*%
X184900900Y-142412600D03*
X197300000Y-146600000D03*
%TO.N,XTAL32M_2*%
X186432800Y-141579200D03*
X197300000Y-146200000D03*
%TO.N,TOF_XSHUT*%
X191164200Y-150914800D03*
X170147600Y-151128100D03*
X195800000Y-144700000D03*
%TO.N,ADC4*%
X246696900Y-148608600D03*
X242214700Y-145183900D03*
X195400000Y-144700000D03*
%TO.N,ADC5*%
X195000000Y-144700000D03*
X248247400Y-152976000D03*
X201147200Y-145006900D03*
X251419700Y-147771700D03*
X206697800Y-150273900D03*
%TO.N,TOF_INT*%
X170750000Y-151149600D03*
X191354800Y-150528500D03*
X194200000Y-144700000D03*
%TO.N,DECA*%
X187505700Y-145925400D03*
X193800000Y-144700000D03*
%TO.N,DECD*%
X188193200Y-146443700D03*
X193000000Y-144700000D03*
%TO.N,DCC*%
X192600000Y-144700000D03*
X187908300Y-153185100D03*
%TO.N,VBUSOUT*%
X217386800Y-153835600D03*
X216644000Y-147250000D03*
%TO.N,VBAT*%
X216644000Y-148750000D03*
%TO.N,NTC*%
X216644000Y-149250000D03*
%TO.N,FSR_C13*%
X268850000Y-151889000D03*
X257461900Y-141244000D03*
X251578900Y-153753100D03*
%TO.N,FSR_SINK*%
X244000000Y-144506200D03*
X245917000Y-148331800D03*
X261150000Y-147989000D03*
%TO.N,FSR_C7*%
X257055900Y-155026500D03*
X261150000Y-148639000D03*
X254502800Y-141030500D03*
%TO.N,FSR_C6*%
X254900000Y-155215100D03*
X261150000Y-149289000D03*
X253933000Y-141029600D03*
%TO.N,FSR_C5*%
X261150000Y-149939000D03*
X256522100Y-150057100D03*
X253402400Y-141232700D03*
X252500000Y-155130000D03*
%TO.N,FSR_C4*%
X261150000Y-150589000D03*
X250080400Y-155130000D03*
X253090500Y-141031600D03*
%TO.N,FSR_C3*%
X252427500Y-139271600D03*
X261150000Y-151239000D03*
X247786700Y-154928300D03*
%TO.N,FSR_C2*%
X261150000Y-151889000D03*
X251703400Y-141035500D03*
X245303900Y-155130000D03*
%TO.N,FSR_C1*%
X253608900Y-155513600D03*
X261150000Y-152539000D03*
X251250000Y-139259300D03*
X241887200Y-155533400D03*
%TO.N,FSR_C15*%
X256284700Y-153700000D03*
X268850000Y-153189000D03*
X258250000Y-141039500D03*
%TO.N,FSR_C14*%
X268850000Y-152539000D03*
X254889000Y-153485600D03*
X257813700Y-141148700D03*
%TO.N,FSR_C11*%
X268850000Y-150589000D03*
X256247800Y-141028500D03*
X246688100Y-154225100D03*
%TO.N,FSR_C10*%
X250657600Y-141469400D03*
X255379200Y-139269100D03*
X245300000Y-154254800D03*
X268850000Y-149939000D03*
%TO.N,FSR_C9*%
X268850000Y-149289000D03*
X255027400Y-139193600D03*
X241939000Y-153914000D03*
%TO.N,VSET2*%
X215607000Y-150788000D03*
%TO.N,SW1*%
X208690000Y-153156200D03*
X211070000Y-147250000D03*
X208754500Y-152727100D03*
%TO.N,VDD_1V8*%
X298540900Y-150935300D03*
X300778700Y-144514300D03*
X118995000Y-145054100D03*
X120250000Y-149750000D03*
X119750000Y-150669200D03*
X210251600Y-152813800D03*
X299750000Y-146250000D03*
X259451900Y-154378100D03*
X299750000Y-149750000D03*
X211070000Y-146250000D03*
X208840000Y-144975600D03*
X302750000Y-146250000D03*
X113549500Y-153970500D03*
X117250000Y-149750000D03*
X300250000Y-150682500D03*
X115440200Y-151109100D03*
X120250000Y-146250000D03*
X304435500Y-153500000D03*
%TO.N,FSR_R5*%
X249152600Y-147027800D03*
X261165700Y-141286700D03*
X247602900Y-152326000D03*
%TO.N,BLE_ANT*%
X163794000Y-148991300D03*
X153455700Y-148610000D03*
%TO.N,LED0*%
X225402600Y-147214700D03*
X215607000Y-145212000D03*
%TO.N,FSR_R3*%
X256027300Y-139254500D03*
X244891200Y-147156600D03*
X241829900Y-149632400D03*
X260214800Y-141123700D03*
%TO.N,VDD_CAM*%
X166739400Y-151314900D03*
X212417100Y-152046800D03*
X213607000Y-145212000D03*
X219073800Y-153911900D03*
%TO.N,FSR_R0*%
X258950500Y-141141700D03*
X237567600Y-146177600D03*
X236133800Y-149776500D03*
X243901900Y-140665900D03*
%TO.N,FSR_R1*%
X259250000Y-139082600D03*
X236130400Y-152341800D03*
X240707700Y-147017700D03*
%TO.N,FSR_R2*%
X239911000Y-152418700D03*
X242084200Y-146271700D03*
X259750000Y-138933100D03*
%TO.N,FSR_R4*%
X260780200Y-141079300D03*
X247898300Y-140374900D03*
X245984900Y-147309100D03*
%TO.N,SHPHLD*%
X222905100Y-148491500D03*
X215107000Y-150788000D03*
%TO.N,VSYS*%
X214107000Y-145212000D03*
X206258900Y-149718600D03*
X216644000Y-148250000D03*
X211070000Y-147750000D03*
X171250000Y-151128200D03*
X223407000Y-149026100D03*
X208840000Y-146794000D03*
%TO.N,SW2*%
X211070000Y-148250000D03*
X211250100Y-153861900D03*
%TO.N,VSET1*%
X218371900Y-149038000D03*
X216644000Y-149750000D03*
%TO.N,QI_COIL_A*%
X225955900Y-151169500D03*
X226476000Y-149083900D03*
%TO.N,X24L_2*%
X116217200Y-150617100D03*
X123021100Y-141473700D03*
X114103400Y-141583400D03*
%TO.N,X24L_1*%
X118744300Y-142550000D03*
X116354800Y-150250000D03*
%TD*%
%TO.N,QI_AC1*%
D13*
X227471500Y-144236300D02*
X227471500Y-140960500D01*
X228125300Y-144890100D02*
X227471500Y-144236300D01*
%TO.N,VQI*%
D14*
X216644000Y-147750000D02*
X225845400Y-147750000D01*
X225845400Y-147750000D02*
X227797900Y-145797500D01*
%TO.N,QI_CLAMP1*%
D13*
X230446200Y-143135400D02*
X229617100Y-143964500D01*
X229617100Y-143964500D02*
X229617100Y-146157500D01*
%TO.N,QI_COMM1*%
X229443200Y-146641100D02*
X229629700Y-146641100D01*
X226115500Y-141300000D02*
X226115500Y-143313400D01*
X226115500Y-143313400D02*
X229443200Y-146641100D01*
%TO.N,QI_ILIM*%
X230953300Y-141977100D02*
X230953300Y-145044100D01*
X230875800Y-141899600D02*
X230953300Y-141977100D01*
X230953300Y-145044100D02*
X234171200Y-148262000D01*
X234171200Y-148262000D02*
X234249600Y-148262000D01*
%TO.N,QI_FOD*%
X235765900Y-143282600D02*
X235765900Y-146776000D01*
X234003000Y-141519700D02*
X235765900Y-143282600D01*
%TO.N,QI_COMM2*%
X234644100Y-144341700D02*
X234644100Y-145754200D01*
X228863500Y-141170200D02*
X231472600Y-141170200D01*
X228507600Y-141526100D02*
X228863500Y-141170200D01*
X231472600Y-141170200D02*
X234644100Y-144341700D01*
X234644100Y-145754200D02*
X234074900Y-146323400D01*
%TO.N,QI_BOOT2*%
X234373400Y-145439800D02*
X234166500Y-145646700D01*
X234373400Y-144362500D02*
X234373400Y-145439800D01*
X231414500Y-141403600D02*
X234373400Y-144362500D01*
X228345500Y-143268900D02*
X230210800Y-141403600D01*
X230210800Y-141403600D02*
X231414500Y-141403600D01*
X234166500Y-145646700D02*
X234067700Y-145646700D01*
%TO.N,QI_RECT*%
X234050400Y-145272800D02*
X234076800Y-145272800D01*
X233791000Y-145532200D02*
X234050400Y-145272800D01*
X233791000Y-146847800D02*
X233791000Y-145532200D01*
X234182800Y-147239600D02*
X233791000Y-146847800D01*
%TO.N,QI_AC2*%
X233871000Y-144363000D02*
X233871000Y-144256100D01*
X230745000Y-142952300D02*
X230745000Y-149573300D01*
X229943600Y-142267600D02*
X229836000Y-142375200D01*
X230060300Y-142267600D02*
X230745000Y-142952300D01*
X230060300Y-142267600D02*
X229943600Y-142267600D01*
X230745000Y-149573300D02*
X230490300Y-149828000D01*
X233871000Y-144256100D02*
X231237700Y-141622800D01*
X230705100Y-141622800D02*
X230060300Y-142267600D01*
X231237700Y-141622800D02*
X230705100Y-141622800D01*
%TO.N,FSR_C8*%
X243365200Y-149542900D02*
X243938300Y-148969800D01*
X243365200Y-151580900D02*
X243365200Y-149542900D01*
X261432800Y-149425400D02*
X261245700Y-149612500D01*
X261432800Y-147014600D02*
X261432800Y-149425400D01*
X261043400Y-149612500D02*
X260400700Y-148969800D01*
X255497500Y-141079300D02*
X261432800Y-147014600D01*
X239566000Y-155007000D02*
X241435400Y-153137600D01*
X241435400Y-153137600D02*
X241808500Y-153137600D01*
X261245700Y-149612500D02*
X261043400Y-149612500D01*
X241808500Y-153137600D02*
X243365200Y-151580900D01*
%TO.N,X24R_1*%
X296981600Y-142437600D02*
X297293400Y-142125800D01*
X297293400Y-142125800D02*
X300006500Y-142125800D01*
X300006500Y-142710800D02*
X303114200Y-145818500D01*
X300006500Y-142125800D02*
X300006500Y-142710800D01*
%TO.N,X24R_2*%
X303587300Y-141450000D02*
X303267800Y-141769500D01*
X303267800Y-141769500D02*
X303267800Y-145473300D01*
%TO.N,IR_LED_EN*%
X195348300Y-143848300D02*
X182001700Y-143848300D01*
X182001700Y-143848300D02*
X181800000Y-144050000D01*
X196200000Y-144700000D02*
X195348300Y-143848300D01*
%TO.N,FSR_C12*%
X260372800Y-150914000D02*
X259792600Y-150333800D01*
X268656600Y-151239000D02*
X268850000Y-151239000D01*
X258673800Y-141062800D02*
X258673800Y-141256200D01*
X257050300Y-140738200D02*
X258349200Y-140738200D01*
X258673800Y-141256200D02*
X268656600Y-151239000D01*
X256750000Y-141038500D02*
X257050300Y-140738200D01*
X252756800Y-150333800D02*
X249140300Y-153950300D01*
X258349200Y-140738200D02*
X258673800Y-141062800D01*
X259792600Y-150333800D02*
X252756800Y-150333800D01*
%TO.N,FSR_C0*%
X245503900Y-154853300D02*
X245189400Y-154853300D01*
X261082200Y-153256800D02*
X255759900Y-153256800D01*
X250934300Y-141157700D02*
X250934300Y-149422900D01*
X250809300Y-141032700D02*
X250934300Y-141157700D01*
X261150000Y-153189000D02*
X261082200Y-153256800D01*
X255759900Y-153256800D02*
X253779800Y-155236900D01*
X253779800Y-155236900D02*
X253494500Y-155236900D01*
X245113600Y-155406800D02*
X245023800Y-155317000D01*
X253494500Y-155236900D02*
X253324600Y-155406800D01*
X245023800Y-155317000D02*
X245023800Y-155227000D01*
X253324600Y-155406800D02*
X245113600Y-155406800D01*
X245189400Y-154853300D02*
X245023800Y-155018900D01*
X245023800Y-155018900D02*
X245023800Y-155227000D01*
X245023800Y-155227000D02*
X240375200Y-155227000D01*
X250934300Y-149422900D02*
X245503900Y-154853300D01*
%TO.N,MUX_S0*%
X192174200Y-157020400D02*
X258550000Y-157020400D01*
X187955100Y-152801300D02*
X192174200Y-157020400D01*
X187908300Y-152801300D02*
X187955100Y-152801300D01*
X258550000Y-157020400D02*
X258666500Y-156903900D01*
%TO.N,MUX_S1*%
X199087300Y-152869400D02*
X201109800Y-152869400D01*
X190700000Y-147000000D02*
X193217900Y-147000000D01*
X201109800Y-152869400D02*
X201580900Y-152398300D01*
X193217900Y-147000000D02*
X199087300Y-152869400D01*
%TO.N,ADC0*%
X239131300Y-146180000D02*
X239430000Y-146180000D01*
X236135500Y-149175800D02*
X239131300Y-146180000D01*
%TO.N,ADC1*%
X234350800Y-154820300D02*
X235588300Y-153582800D01*
X235588400Y-153582800D02*
X235588400Y-151704100D01*
X190700000Y-147800000D02*
X193732700Y-147800000D01*
X235588400Y-151704100D02*
X240736200Y-146556300D01*
X193732700Y-147800000D02*
X200753000Y-154820300D01*
X200753000Y-154820300D02*
X234350800Y-154820300D01*
X240736200Y-146556300D02*
X240807100Y-146556300D01*
%TO.N,ADC2*%
X244153200Y-147026300D02*
X244038700Y-147026300D01*
X193847500Y-148200000D02*
X200684400Y-155036900D01*
X241525100Y-149539900D02*
X241525100Y-152381100D01*
X190700000Y-148200000D02*
X193847500Y-148200000D01*
X200684400Y-155036900D02*
X238869300Y-155036900D01*
X238869300Y-155036900D02*
X241525100Y-152381100D01*
X241525100Y-152381100D02*
X241848600Y-152704600D01*
X244038700Y-147026300D02*
X241525100Y-149539900D01*
%TO.N,ADC3*%
X241317700Y-148818800D02*
X243955900Y-146180600D01*
X190700000Y-148600000D02*
X189794900Y-149505100D01*
X241317700Y-148818800D02*
X241317700Y-151462100D01*
X241317700Y-151462100D02*
X238028600Y-154751200D01*
X189794900Y-149505100D02*
X188880000Y-149505100D01*
X243955900Y-146180600D02*
X245474400Y-146180600D01*
%TO.N,MUX_S2*%
X201172400Y-155810200D02*
X194362200Y-149000000D01*
X194362200Y-149000000D02*
X190700000Y-149000000D01*
X253980600Y-155533400D02*
X253703800Y-155810200D01*
X253703800Y-155810200D02*
X201172400Y-155810200D01*
X255911800Y-155533400D02*
X253980600Y-155533400D01*
%TO.N,VDD_3V3*%
D14*
X188610800Y-147361300D02*
X188610800Y-148391400D01*
X301750100Y-149506900D02*
X300232200Y-147989000D01*
X212468700Y-144850300D02*
X212107000Y-145212000D01*
X194620700Y-153250700D02*
X194513600Y-153143600D01*
X238658700Y-145104000D02*
X238010900Y-145104000D01*
X191174200Y-144700000D02*
X188610800Y-147263400D01*
X116448500Y-149605000D02*
X116448500Y-147547500D01*
X226163200Y-148514800D02*
X222062000Y-152616000D01*
X222062000Y-152616000D02*
X215030500Y-152616000D01*
X182651100Y-147361300D02*
X188610800Y-147361300D01*
X173101200Y-147361300D02*
X166898600Y-141158700D01*
X268850000Y-147989000D02*
X267569200Y-146708200D01*
X215030500Y-152616000D02*
X213607000Y-151192500D01*
X238010900Y-145104000D02*
X236231900Y-146883000D01*
X303536600Y-149617000D02*
X302314900Y-150838700D01*
X116813400Y-147182600D02*
X116813400Y-145706500D01*
X182651100Y-148729000D02*
X182651100Y-147361300D01*
X166898600Y-141158700D02*
X160874700Y-147182600D01*
X188610800Y-147263400D02*
X188610800Y-147361300D01*
X303536600Y-146390400D02*
X303536600Y-149617000D01*
X229417700Y-151422200D02*
X226510300Y-148514800D01*
X212468700Y-143684400D02*
X212468700Y-144850300D01*
X226316500Y-148514800D02*
X226163200Y-148514800D01*
X233461300Y-151174200D02*
X233709300Y-151422200D01*
X198691700Y-150016800D02*
X198091200Y-150617300D01*
X233461300Y-149762600D02*
X233461300Y-151174200D01*
X267569200Y-146708200D02*
X267569200Y-145826100D01*
X301750100Y-150273900D02*
X301750100Y-149506900D01*
X302314900Y-150838700D02*
X301750100Y-150273900D01*
X191800000Y-144700000D02*
X191174200Y-144700000D01*
X226510300Y-148514800D02*
X226316500Y-148514800D01*
X233709300Y-151422200D02*
X229417700Y-151422200D01*
X116448500Y-147547500D02*
X116813400Y-147182600D01*
X182651100Y-147361300D02*
X173101200Y-147361300D01*
X205500000Y-140348300D02*
X209132600Y-140348300D01*
X209132600Y-140348300D02*
X212468700Y-143684400D01*
X236231900Y-146992000D02*
X233461300Y-149762600D01*
X303677000Y-146250000D02*
X303536600Y-146390400D01*
X213607000Y-151192500D02*
X213607000Y-150788000D01*
X198691700Y-142624000D02*
X198691700Y-150016800D01*
X236231900Y-146883000D02*
X236231900Y-146992000D01*
X195934200Y-153250700D02*
X194620700Y-153250700D01*
X116303500Y-149750000D02*
X116448500Y-149605000D01*
X160874700Y-147182600D02*
X116813400Y-147182600D01*
%TO.N,CS_RADAR_L*%
D13*
X171136900Y-147205200D02*
X173731700Y-149800000D01*
X173731700Y-149800000D02*
X190700000Y-149800000D01*
%TO.N,SPI_SCK*%
X168030800Y-150643300D02*
X187541900Y-150643300D01*
X190256800Y-150643200D02*
X190700000Y-150200000D01*
X269279200Y-155921300D02*
X268917900Y-156282600D01*
X303611100Y-150150900D02*
X304818900Y-151358700D01*
X163380500Y-147554600D02*
X117765100Y-147554600D01*
X167250000Y-151424100D02*
X168030800Y-150643300D01*
X304818900Y-151358700D02*
X304818900Y-153617000D01*
X302514600Y-155921300D02*
X269279200Y-155921300D01*
X304818900Y-153617000D02*
X302514600Y-155921300D01*
X187541900Y-150643200D02*
X190256800Y-150643200D01*
X117765100Y-147554600D02*
X117706600Y-147613100D01*
X268917900Y-156282600D02*
X268567700Y-156282600D01*
X167250000Y-151424100D02*
X163380500Y-147554600D01*
%TO.N,SPI_MOSI*%
X185323100Y-152106900D02*
X185060000Y-152370000D01*
X117383900Y-148883900D02*
X142292900Y-148883900D01*
X208563500Y-154593700D02*
X204352600Y-150382800D01*
X239149600Y-147585800D02*
X232141700Y-154593700D01*
X142292900Y-148883900D02*
X145608100Y-152199100D01*
X145608100Y-152199100D02*
X167912100Y-152199100D01*
X232141700Y-154593700D02*
X208563500Y-154593700D01*
X117005400Y-148505400D02*
X117383900Y-148883900D01*
X167912100Y-152199100D02*
X167912100Y-151686300D01*
X191800000Y-151300000D02*
X190993100Y-152106900D01*
X190993100Y-152106900D02*
X185323100Y-152106900D01*
X168083000Y-152370000D02*
X167912100Y-152199100D01*
X185060000Y-152370000D02*
X168083000Y-152370000D01*
%TO.N,RADAR_IRQ_L*%
X118912900Y-149160700D02*
X126669600Y-149160700D01*
X130080600Y-152571700D02*
X185143600Y-152571700D01*
X185143600Y-152571700D02*
X185392400Y-152322900D01*
X191177100Y-152322900D02*
X192200000Y-151300000D01*
X185392400Y-152322900D02*
X191177100Y-152322900D01*
X126669600Y-149160700D02*
X130080600Y-152571700D01*
%TO.N,SPI_MISO*%
X184919700Y-152119100D02*
X169225500Y-152119100D01*
X185046300Y-151992500D02*
X184919700Y-152119100D01*
X197388900Y-156818700D02*
X254121300Y-156818700D01*
X269205300Y-156617100D02*
X269699400Y-156123000D01*
X269699400Y-156123000D02*
X302598100Y-156123000D01*
X305020600Y-153700500D02*
X305020600Y-150423400D01*
X161025100Y-147831300D02*
X120592300Y-147831300D01*
X302598100Y-156123000D02*
X305020600Y-153700500D01*
X305020600Y-150423400D02*
X303968500Y-149371300D01*
X169225500Y-152119100D02*
X168250000Y-151143600D01*
X192998700Y-151897100D02*
X192998700Y-152428500D01*
X164903500Y-151709700D02*
X161025100Y-147831300D01*
X167497600Y-151709700D02*
X164903500Y-151709700D01*
X168250000Y-151143600D02*
X168063700Y-151143600D01*
X254322900Y-156617100D02*
X269205300Y-156617100D01*
X192998700Y-152428500D02*
X197388900Y-156818700D01*
X254121300Y-156818700D02*
X254322900Y-156617100D01*
X168063700Y-151143600D02*
X167497600Y-151709700D01*
%TO.N,RADAR_EN*%
X197472400Y-156617000D02*
X193926900Y-153071500D01*
X193926900Y-153071500D02*
X193926900Y-152364100D01*
X268788500Y-156002600D02*
X266275700Y-156002600D01*
X193926900Y-152364100D02*
X193131400Y-151568600D01*
X290690100Y-153219400D02*
X299767000Y-144142500D01*
X192833700Y-151620400D02*
X193079600Y-151620400D01*
X299767000Y-144142500D02*
X300945800Y-144142500D01*
X193079600Y-151620400D02*
X193131400Y-151568600D01*
X271144500Y-153219400D02*
X290690100Y-153219400D01*
X193400000Y-151300000D02*
X193131400Y-151568600D01*
X301250000Y-144446700D02*
X301250000Y-145302000D01*
X254037800Y-156617000D02*
X197472400Y-156617000D01*
X187531500Y-152786900D02*
X187793800Y-152524600D01*
X187793800Y-152524600D02*
X191929500Y-152524600D01*
X265863000Y-156415300D02*
X254239500Y-156415300D01*
X120925800Y-152786900D02*
X187531500Y-152786900D01*
X254239500Y-156415300D02*
X254037800Y-156617000D01*
X266275700Y-156002600D02*
X265863000Y-156415300D01*
X300945800Y-144142500D02*
X301250000Y-144446700D01*
X118750000Y-150611100D02*
X120925800Y-152786900D01*
X191929500Y-152524600D02*
X192833700Y-151620400D01*
%TO.N,MUX_S3*%
X200190100Y-156415300D02*
X196003800Y-152229000D01*
X254156000Y-156213600D02*
X253954300Y-156415300D01*
X257119100Y-156213600D02*
X254156000Y-156213600D01*
X259347700Y-153985000D02*
X257119100Y-156213600D01*
X194729000Y-152229000D02*
X193800000Y-151300000D01*
X260737200Y-155139000D02*
X259583200Y-153985000D01*
X196003800Y-152229000D02*
X194729000Y-152229000D01*
X268850000Y-155139000D02*
X260737200Y-155139000D01*
X259583200Y-153985000D02*
X259347700Y-153985000D01*
X253954300Y-156415300D02*
X200190100Y-156415300D01*
%TO.N,MUX_EN_N*%
X260044900Y-154128100D02*
X259700100Y-153783300D01*
X256750400Y-156011900D02*
X254072500Y-156011900D01*
X200835300Y-156213600D02*
X196629900Y-152008200D01*
X194908200Y-152008200D02*
X194200000Y-151300000D01*
X254072500Y-156011900D02*
X253870800Y-156213600D01*
X196629900Y-152008200D02*
X194908200Y-152008200D01*
X268560900Y-154128100D02*
X260044900Y-154128100D01*
X268850000Y-153839000D02*
X268560900Y-154128100D01*
X253870800Y-156213600D02*
X200835300Y-156213600D01*
X258979000Y-153783300D02*
X256750400Y-156011900D01*
X259700100Y-153783300D02*
X258979000Y-153783300D01*
%TO.N,CS_RADAR_R*%
X195302700Y-151670400D02*
X195000000Y-151367700D01*
X196747200Y-151670400D02*
X195302700Y-151670400D01*
X302750000Y-149750000D02*
X300615300Y-147615300D01*
X258963100Y-153514000D02*
X256666900Y-155810200D01*
X256666900Y-155810200D02*
X253989000Y-155810200D01*
X201088700Y-156011900D02*
X196747200Y-151670400D01*
X253989000Y-155810200D02*
X253787300Y-156011900D01*
X195000000Y-151367700D02*
X195000000Y-151300000D01*
X300615300Y-147615300D02*
X299960000Y-147615300D01*
X299960000Y-147615300D02*
X294061300Y-153514000D01*
X294061300Y-153514000D02*
X258963100Y-153514000D01*
X253787300Y-156011900D02*
X201088700Y-156011900D01*
%TO.N,I2C_SDA*%
X184931900Y-151715800D02*
X184769500Y-151878200D01*
X170210200Y-151878200D02*
X169460700Y-151128700D01*
X185160900Y-151715800D02*
X184931900Y-151715800D01*
X184769500Y-151878200D02*
X170210200Y-151878200D01*
X195800000Y-151215700D02*
X195527800Y-150943500D01*
X191618100Y-150943500D02*
X190683400Y-151878200D01*
X195800000Y-151300000D02*
X195800000Y-151215700D01*
X190683400Y-151878200D02*
X185323300Y-151878200D01*
X185323300Y-151878200D02*
X185160900Y-151715800D01*
X195527800Y-150943500D02*
X191618100Y-150943500D01*
%TO.N,I2C_SCL*%
X169750000Y-151810100D02*
X169181100Y-151241200D01*
X187356800Y-150849400D02*
X187427400Y-150920000D01*
X191088200Y-150205200D02*
X195105200Y-150205200D01*
X195105200Y-150205200D02*
X196200000Y-151300000D01*
X169181100Y-150985900D02*
X169317600Y-150849400D01*
X190373400Y-150920000D02*
X191088200Y-150205200D01*
X187427400Y-150920000D02*
X190373400Y-150920000D01*
X169317600Y-150849400D02*
X187356800Y-150849400D01*
X169181100Y-151241200D02*
X169181100Y-150985900D01*
%TO.N,SWDIO*%
X171151000Y-142875200D02*
X170291100Y-142015300D01*
X197300000Y-150200000D02*
X196512500Y-149412500D01*
X196512500Y-149412500D02*
X196512500Y-144137200D01*
X196512500Y-144137200D02*
X195250500Y-142875200D01*
X195250500Y-142875200D02*
X171151000Y-142875200D01*
%TO.N,SWDCLK*%
X197022000Y-149522000D02*
X197022000Y-147637400D01*
X197907100Y-146830500D02*
X197907100Y-144676200D01*
X194317400Y-141086500D02*
X169726600Y-141086500D01*
X197300000Y-149800000D02*
X197022000Y-149522000D01*
X197907100Y-144676200D02*
X194317400Y-141086500D01*
X197259400Y-147400000D02*
X197337600Y-147400000D01*
X197022000Y-147637400D02*
X197259400Y-147400000D01*
X197337600Y-147400000D02*
X197907100Y-146830500D01*
X169726600Y-141086500D02*
X168921800Y-141891300D01*
%TO.N,NRESET*%
X225242800Y-150040100D02*
X221092600Y-154190300D01*
X203823300Y-148765400D02*
X203823300Y-148200000D01*
X221092600Y-154190300D02*
X209248200Y-154190300D01*
X209248200Y-154190300D02*
X203823300Y-148765400D01*
%TO.N,ANT_FEED*%
X197720900Y-150826600D02*
X199217800Y-152323500D01*
X197720900Y-148220900D02*
X197720900Y-150826600D01*
X197300000Y-147800000D02*
X197720900Y-148220900D01*
%TO.N,XTAL32M_1*%
X194245500Y-141299800D02*
X186013700Y-141299800D01*
X186013700Y-141299800D02*
X184900900Y-142412600D01*
X197647700Y-144702000D02*
X194245500Y-141299800D01*
X197300000Y-146600000D02*
X197647700Y-146252300D01*
X197647700Y-146252300D02*
X197647700Y-144702000D01*
%TO.N,XTAL32M_2*%
X197300000Y-146200000D02*
X197167800Y-146200000D01*
X196889100Y-144228600D02*
X194239700Y-141579200D01*
X194239700Y-141579200D02*
X186432800Y-141579200D01*
X197167800Y-146200000D02*
X196889100Y-145921300D01*
X196889100Y-145921300D02*
X196889100Y-144228600D01*
%TO.N,TOF_XSHUT*%
X184685900Y-151676500D02*
X170696000Y-151676500D01*
X170696000Y-151676500D02*
X170147600Y-151128100D01*
X185406800Y-151676500D02*
X185244400Y-151514100D01*
X184848300Y-151514100D02*
X184685900Y-151676500D01*
X191164200Y-150914800D02*
X191164200Y-151076900D01*
X191164200Y-151076900D02*
X190564600Y-151676500D01*
X190564600Y-151676500D02*
X185406800Y-151676500D01*
X185244400Y-151514100D02*
X184848300Y-151514100D01*
%TO.N,ADC4*%
X209156400Y-154392000D02*
X231922400Y-154392000D01*
X200840100Y-152617800D02*
X203353700Y-150104200D01*
X231922400Y-154392000D02*
X240293500Y-146020900D01*
X199120900Y-152617800D02*
X200840100Y-152617800D01*
X204868600Y-150104200D02*
X209156400Y-154392000D01*
X195400000Y-148896900D02*
X199120900Y-152617800D01*
X203353700Y-150104200D02*
X204868600Y-150104200D01*
X195400000Y-144700000D02*
X195400000Y-148896900D01*
X241377700Y-146020900D02*
X242214700Y-145183900D01*
X240293500Y-146020900D02*
X241377700Y-146020900D01*
%TO.N,ADC5*%
X251419700Y-149803700D02*
X248247400Y-152976000D01*
X251419700Y-147771700D02*
X251419700Y-149803700D01*
X206414200Y-150273900D02*
X206697800Y-150273900D01*
X201147200Y-145006900D02*
X206414200Y-150273900D01*
%TO.N,TOF_INT*%
X191074200Y-150528500D02*
X190479600Y-151123100D01*
X191354800Y-150528500D02*
X191074200Y-150528500D01*
X190479600Y-151123100D02*
X184954100Y-151123100D01*
X171005400Y-151405000D02*
X170750000Y-151149600D01*
X184954100Y-151123100D02*
X184672200Y-151405000D01*
X184672200Y-151405000D02*
X171005400Y-151405000D01*
%TO.N,DECA*%
X189332400Y-144098700D02*
X187505700Y-145925400D01*
X193800000Y-144700000D02*
X193198700Y-144098700D01*
X193198700Y-144098700D02*
X189332400Y-144098700D01*
%TO.N,DECD*%
X190720000Y-144324000D02*
X188600400Y-146443600D01*
X193000000Y-144700000D02*
X192624000Y-144324000D01*
X192624000Y-144324000D02*
X190720000Y-144324000D01*
X188600400Y-146443600D02*
X188193200Y-146443600D01*
%TO.N,VBAT*%
D14*
X216146800Y-145085200D02*
X216146800Y-148431200D01*
X219597000Y-141635000D02*
X216146800Y-145085200D01*
X216146800Y-148431200D02*
X216465600Y-148750000D01*
X216465600Y-148750000D02*
X216644000Y-148750000D01*
%TO.N,NTC*%
D13*
X216422200Y-149250000D02*
X215273200Y-148101000D01*
X223597000Y-141635000D02*
X222845300Y-141635000D01*
X219095300Y-140513000D02*
X221869900Y-140513000D01*
X221869900Y-140513000D02*
X222845300Y-141488400D01*
X222845300Y-141488400D02*
X222845300Y-141635000D01*
X215273200Y-144335100D02*
X219095300Y-140513000D01*
X216644000Y-149250000D02*
X216422200Y-149250000D01*
X215273200Y-148101000D02*
X215273200Y-144335100D01*
%TO.N,FSR_C13*%
X268850000Y-151889000D02*
X268106900Y-151889000D01*
X268106900Y-151889000D02*
X257461900Y-141244000D01*
%TO.N,FSR_SINK*%
X244000000Y-144506200D02*
X244193200Y-144506200D01*
X245708200Y-147193000D02*
X245708200Y-148123000D01*
X245783200Y-146096200D02*
X245783200Y-147118000D01*
X245708200Y-148123000D02*
X245917000Y-148331800D01*
X244193200Y-144506200D02*
X245783200Y-146096200D01*
X245783200Y-147118000D02*
X245708200Y-147193000D01*
%TO.N,FSR_C7*%
X254502800Y-141991800D02*
X254502800Y-141030500D01*
X261150000Y-148639000D02*
X254502800Y-141991800D01*
%TO.N,FSR_C6*%
X253933000Y-142072000D02*
X253933000Y-141029600D01*
X261150000Y-149289000D02*
X253933000Y-142072000D01*
%TO.N,FSR_C5*%
X260936100Y-149939000D02*
X261150000Y-149939000D01*
X253402400Y-142405300D02*
X260936100Y-149939000D01*
X253402400Y-141232700D02*
X253402400Y-142405300D01*
%TO.N,FSR_C4*%
X252087400Y-152853400D02*
X250080400Y-154860400D01*
X259646300Y-152853400D02*
X252087400Y-152853400D01*
X261440500Y-150879500D02*
X261440500Y-152064200D01*
X250080400Y-154860400D02*
X250080400Y-155130000D01*
X261150000Y-150589000D02*
X261440500Y-150879500D01*
X261290700Y-152214000D02*
X260285700Y-152214000D01*
X253090500Y-142529500D02*
X261150000Y-150589000D01*
X260285700Y-152214000D02*
X259646300Y-152853400D01*
X261440500Y-152064200D02*
X261290700Y-152214000D01*
X253090500Y-141031600D02*
X253090500Y-142529500D01*
%TO.N,FSR_C3*%
X259691400Y-149780400D02*
X252798200Y-149780400D01*
X261150000Y-151239000D02*
X259691400Y-149780400D01*
X247786700Y-154791900D02*
X247786700Y-154928300D01*
X252427500Y-139271600D02*
X252427500Y-149409700D01*
X252427500Y-149409700D02*
X252798200Y-149780400D01*
X252798200Y-149780400D02*
X247786700Y-154791900D01*
%TO.N,FSR_C2*%
X260325400Y-151889000D02*
X259562700Y-152651700D01*
X259562700Y-152651700D02*
X251388100Y-152651700D01*
X247423300Y-154483000D02*
X251703400Y-150202900D01*
X247498400Y-155205100D02*
X247423300Y-155130000D01*
X261150000Y-151889000D02*
X260325400Y-151889000D01*
X248834700Y-155205100D02*
X247498400Y-155205100D01*
X251703400Y-150202900D02*
X251703400Y-141035500D01*
X251388100Y-152651700D02*
X248834700Y-155205100D01*
X247423300Y-155130000D02*
X247423300Y-154483000D01*
X247423300Y-155130000D02*
X245303900Y-155130000D01*
%TO.N,FSR_C1*%
X240232900Y-155533400D02*
X240048200Y-155348700D01*
X241962300Y-155608500D02*
X241887200Y-155533400D01*
X240048200Y-155348700D02*
X240048200Y-155112200D01*
X241821200Y-153410100D02*
X246218500Y-149012800D01*
X253514000Y-155608500D02*
X241962300Y-155608500D01*
X240048200Y-155112200D02*
X241750300Y-153410100D01*
X241750300Y-153410100D02*
X241821200Y-153410100D01*
X246218500Y-149012800D02*
X246218500Y-148373800D01*
X241887200Y-155533400D02*
X240232900Y-155533400D01*
X246218500Y-148373800D02*
X246261600Y-148330700D01*
X246261600Y-148330700D02*
X246261600Y-144249800D01*
X246261600Y-144249800D02*
X251250000Y-139261400D01*
X253608900Y-155513600D02*
X253514000Y-155608500D01*
%TO.N,FSR_C15*%
X269154700Y-152884300D02*
X268850000Y-153189000D01*
X268985000Y-151564100D02*
X269154700Y-151733800D01*
X268696500Y-151564100D02*
X268985000Y-151564100D01*
X258250000Y-141039500D02*
X258250000Y-141117600D01*
X269154700Y-151733800D02*
X269154700Y-152884300D01*
X258250000Y-141117600D02*
X268696500Y-151564100D01*
%TO.N,FSR_C14*%
X261642200Y-145815500D02*
X257173400Y-141346700D01*
X259917900Y-152867000D02*
X261314200Y-152867000D01*
X257604900Y-140939900D02*
X257813700Y-141148700D01*
X261314200Y-152867000D02*
X261642200Y-152539000D01*
X257173400Y-141346700D02*
X257173400Y-141117900D01*
X261642200Y-152539000D02*
X261642200Y-145815500D01*
X255319500Y-153055100D02*
X259729800Y-153055100D01*
X268850000Y-152539000D02*
X261642200Y-152539000D01*
X254889000Y-153485600D02*
X255319500Y-153055100D01*
X259729800Y-153055100D02*
X259917900Y-152867000D01*
X257173400Y-141117900D02*
X257351400Y-140939900D01*
X257351400Y-140939900D02*
X257604900Y-140939900D01*
%TO.N,FSR_C11*%
X256741300Y-140535000D02*
X256247800Y-141028500D01*
X251136000Y-140137900D02*
X251136000Y-149696200D01*
X254194200Y-138974900D02*
X252299000Y-138974900D01*
X246688100Y-154144100D02*
X246688100Y-154225100D01*
X268850000Y-150589000D02*
X258796000Y-140535000D01*
X256247800Y-141028500D02*
X254194200Y-138974900D01*
X258796000Y-140535000D02*
X256741300Y-140535000D01*
X251136000Y-149696200D02*
X246688100Y-154144100D01*
X252299000Y-138974900D02*
X251136000Y-140137900D01*
%TO.N,FSR_C10*%
X247046400Y-152508400D02*
X245300000Y-154254800D01*
X256133800Y-140023700D02*
X258722900Y-140023700D01*
X258722900Y-140023700D02*
X268638200Y-149939000D01*
X268638200Y-149939000D02*
X268850000Y-149939000D01*
X255379200Y-139269100D02*
X256133800Y-140023700D01*
X247046400Y-145080600D02*
X247046400Y-152508400D01*
X250657600Y-141469400D02*
X247046400Y-145080600D01*
%TO.N,FSR_C9*%
X246531300Y-148346200D02*
X246420200Y-148457300D01*
X260503500Y-141193800D02*
X268598700Y-149289000D01*
X255300200Y-138920800D02*
X258406500Y-138920800D01*
X260503500Y-141017800D02*
X260503500Y-141193800D01*
X252215500Y-138773200D02*
X246531300Y-144457400D01*
X254607000Y-138773200D02*
X252215500Y-138773200D01*
X255027400Y-139193600D02*
X254607000Y-138773200D01*
X246420200Y-148457300D02*
X246420200Y-149432800D01*
X255027400Y-139193600D02*
X255300200Y-138920800D01*
X246531300Y-144457400D02*
X246531300Y-148346200D01*
X246420200Y-149432800D02*
X241939000Y-153914000D01*
X268598700Y-149289000D02*
X268850000Y-149289000D01*
X258406500Y-138920800D02*
X260503500Y-141017800D01*
%TO.N,SW1*%
D14*
X211070000Y-147250000D02*
X210910000Y-147250000D01*
X208754500Y-149405500D02*
X208754500Y-152727100D01*
X210910000Y-147250000D02*
X208754500Y-149405500D01*
%TO.N,VDD_1V8*%
X210995100Y-146324900D02*
X209957400Y-146324900D01*
X294962000Y-154514200D02*
X271150800Y-154514200D01*
X116643900Y-150576300D02*
X117250000Y-149970200D01*
X120250000Y-146250000D02*
X120250000Y-146124800D01*
X211070000Y-146250000D02*
X210995100Y-146324900D01*
X209957400Y-146324900D02*
X208840000Y-145207500D01*
X153429400Y-140687700D02*
X149787100Y-144330000D01*
X300778700Y-145747300D02*
X300778700Y-144514300D01*
X116393900Y-151043800D02*
X116643900Y-150793800D01*
X299750000Y-146086100D02*
X299750000Y-146250000D01*
X115440200Y-151109100D02*
X115440200Y-152079800D01*
X120250000Y-149750000D02*
X120250000Y-149913900D01*
X115440200Y-151109100D02*
X116111100Y-151109100D01*
X300088800Y-145747300D02*
X299750000Y-146086100D01*
X271150800Y-154514200D02*
X270097600Y-155567400D01*
X117461900Y-150182100D02*
X117250000Y-149970200D01*
X119750000Y-150182100D02*
X119750000Y-150669200D01*
X299750000Y-150182500D02*
X299293700Y-150182500D01*
X117250000Y-149750000D02*
X117250000Y-149970200D01*
X298540900Y-150935300D02*
X294962000Y-154514200D01*
X116643900Y-150793800D02*
X116643900Y-150576300D01*
X120250000Y-146362600D02*
X120250000Y-146250000D01*
X142541500Y-144330000D02*
X140171400Y-146700100D01*
X149787100Y-144330000D02*
X142541500Y-144330000D01*
X140171400Y-146700100D02*
X120587500Y-146700100D01*
X208840000Y-145207500D02*
X208840000Y-144975600D01*
X116176400Y-151043800D02*
X116393900Y-151043800D01*
X119179400Y-145054200D02*
X118995000Y-145054200D01*
X270097600Y-155567400D02*
X260641200Y-155567400D01*
X116111100Y-151109100D02*
X116176400Y-151043800D01*
X119750000Y-150182100D02*
X117461900Y-150182100D01*
X299750000Y-149750000D02*
X299750000Y-150182500D01*
X119981800Y-150182100D02*
X119750000Y-150182100D01*
X302750000Y-146250000D02*
X302750000Y-146124800D01*
X208840000Y-144975600D02*
X204552100Y-140687700D01*
X300250000Y-150682500D02*
X303067500Y-153500000D01*
X299293700Y-150182500D02*
X298540900Y-150935300D01*
X302372500Y-145747300D02*
X300778700Y-145747300D01*
X120587500Y-146700100D02*
X120250000Y-146362600D01*
X303067500Y-153500000D02*
X304435500Y-153500000D01*
X115440200Y-152079800D02*
X113549500Y-153970500D01*
X260641200Y-155567400D02*
X259451900Y-154378100D01*
X120250000Y-149913900D02*
X119981800Y-150182100D01*
X120250000Y-146124800D02*
X119179400Y-145054200D01*
X300778700Y-145747300D02*
X300088800Y-145747300D01*
X302750000Y-146124800D02*
X302372500Y-145747300D01*
X299750000Y-150182500D02*
X300250000Y-150682500D01*
X204552100Y-140687700D02*
X153429400Y-140687700D01*
%TO.N,FSR_R5*%
D13*
X247602900Y-152326000D02*
X249152500Y-150776400D01*
X249152500Y-150776400D02*
X249152500Y-147027800D01*
%TO.N,FSR_R3*%
X256027300Y-139254500D02*
X258345600Y-139254500D01*
X241829900Y-149632400D02*
X242415400Y-149632400D01*
X258345600Y-139254500D02*
X260214800Y-141123700D01*
X242415400Y-149632400D02*
X244891200Y-147156600D01*
%TO.N,VDD_CAM*%
X213213800Y-151417600D02*
X213213800Y-145605200D01*
X213213800Y-151417600D02*
X214937500Y-153141300D01*
X213213800Y-151417600D02*
X213046300Y-151417600D01*
X213213800Y-145605200D02*
X213607000Y-145212000D01*
X218303200Y-153141300D02*
X219073800Y-153911900D01*
X213046300Y-151417600D02*
X212417100Y-152046800D01*
X214937500Y-153141300D02*
X218303200Y-153141300D01*
%TO.N,FSR_R0*%
X238390200Y-146177600D02*
X243901900Y-140665900D01*
X235858700Y-149501400D02*
X236133800Y-149776500D01*
X237567600Y-146177600D02*
X235858700Y-147886500D01*
X235858700Y-147886500D02*
X235858700Y-149501400D01*
X237567600Y-146177600D02*
X238390200Y-146177600D01*
%TO.N,FSR_R1*%
X247218100Y-140378700D02*
X249227000Y-138369800D01*
X236130400Y-152341800D02*
X236130400Y-151595000D01*
X240707700Y-147017700D02*
X240772200Y-147017700D01*
X240772200Y-147017700D02*
X247218100Y-140571800D01*
X247218100Y-140571800D02*
X247218100Y-140378700D01*
X236130400Y-151595000D02*
X240707700Y-147017700D01*
X258537200Y-138369800D02*
X259250000Y-139082600D01*
X249227000Y-138369800D02*
X258537200Y-138369800D01*
%TO.N,FSR_R2*%
X259750000Y-139061800D02*
X259750000Y-138933100D01*
X247621600Y-140473100D02*
X247621600Y-140260400D01*
X249310500Y-138571500D02*
X258342500Y-138571500D01*
X242084200Y-146010500D02*
X247621600Y-140473100D01*
X239911000Y-148444900D02*
X242084200Y-146271700D01*
X258342500Y-138571500D02*
X259177600Y-139406600D01*
X259405200Y-139406600D02*
X259750000Y-139061800D01*
X247621600Y-140260400D02*
X249310500Y-138571500D01*
X239911000Y-152418700D02*
X239911000Y-148444900D01*
X259177600Y-139406600D02*
X259405200Y-139406600D01*
X242084200Y-146271700D02*
X242084200Y-146010500D01*
%TO.N,FSR_R4*%
X247898300Y-140374900D02*
X247898300Y-142327900D01*
X245984900Y-144241300D02*
X245984900Y-147309100D01*
X247898300Y-142327900D02*
X245984900Y-144241300D01*
%TO.N,SHPHLD*%
X215107000Y-150788000D02*
X215572400Y-150322600D01*
X218210400Y-150322600D02*
X220041400Y-148491600D01*
X215572400Y-150322600D02*
X218210400Y-150322600D01*
X220041400Y-148491600D02*
X222905100Y-148491600D01*
%TO.N,VSYS*%
X214107000Y-145212000D02*
X213824300Y-144929300D01*
X213498500Y-144929300D02*
X211426000Y-147001800D01*
X223407000Y-148553500D02*
X223407000Y-149026100D01*
X208840000Y-147137500D02*
X206258900Y-149718600D01*
X211218200Y-146794000D02*
X208840000Y-146794000D01*
X211426000Y-147001800D02*
X211426000Y-147394000D01*
X216644000Y-148250000D02*
X216724700Y-148169300D01*
X213824300Y-144929300D02*
X213498500Y-144929300D01*
X211426000Y-147001800D02*
X211218200Y-146794000D01*
X216724700Y-148169300D02*
X223022800Y-148169300D01*
X208840000Y-146794000D02*
X208840000Y-147137500D01*
X223022800Y-148169300D02*
X223407000Y-148553500D01*
X211426000Y-147394000D02*
X211070000Y-147750000D01*
%TO.N,VSET1*%
X217356000Y-149038000D02*
X218371900Y-149038000D01*
X216644000Y-149750000D02*
X217356000Y-149038000D01*
%TO.N,QI_COIL_A*%
X226476000Y-149083900D02*
X226476000Y-150649400D01*
X226476000Y-150649400D02*
X225955900Y-151169500D01*
%TO.N,X24L_2*%
X116217200Y-150617100D02*
X115493400Y-149893300D01*
X115493400Y-141583400D02*
X114103400Y-141583400D01*
X123021100Y-141473700D02*
X122911500Y-141583300D01*
X115493400Y-149893300D02*
X115493400Y-141583400D01*
X122911500Y-141583300D02*
X115493400Y-141583300D01*
%TO.N,X24L_1*%
X116260900Y-150250000D02*
X116354800Y-150250000D01*
X118744300Y-142550000D02*
X115698300Y-145596000D01*
X115698300Y-149687400D02*
X116260900Y-150250000D01*
X115698300Y-145596000D02*
X115698300Y-149687400D01*
%TD*%
M02*
