%TF.GenerationSoftware,KiCad,Pcbnew,10.0.4*%
%TF.CreationDate,2026-08-30T17:52:46+02:00*%
%TF.ProjectId,smartbag_core,736d6172-7462-4616-975f-636f72652e6b,rev?*%
%TF.SameCoordinates,Original*%
%TF.FileFunction,Paste,Top*%
%TF.FilePolarity,Positive*%
%FSLAX46Y46*%
G04 Gerber Fmt 4.6, Leading zero omitted, Abs format (unit mm)*
G04 Created by KiCad (PCBNEW 10.0.4) date 2026-08-30 17:52:46*
%MOMM*%
%LPD*%
G01*
G04 APERTURE LIST*
G04 Aperture macros list*
%AMRoundRect*
0 Rectangle with rounded corners*
0 $1 Rounding radius*
0 $2 $3 $4 $5 $6 $7 $8 $9 X,Y pos of 4 corners*
0 Add a 4 corners polygon primitive as box body*
4,1,4,$2,$3,$4,$5,$6,$7,$8,$9,$2,$3,0*
0 Add four circle primitives for the rounded corners*
1,1,$1+$1,$2,$3*
1,1,$1+$1,$4,$5*
1,1,$1+$1,$6,$7*
1,1,$1+$1,$8,$9*
0 Add four rect primitives between the rounded corners*
20,1,$1+$1,$2,$3,$4,$5,0*
20,1,$1+$1,$4,$5,$6,$7,0*
20,1,$1+$1,$6,$7,$8,$9,0*
20,1,$1+$1,$8,$9,$2,$3,0*%
G04 Aperture macros list end*
%ADD10RoundRect,0.250000X-0.350000X-0.850000X0.350000X-0.850000X0.350000X0.850000X-0.350000X0.850000X0*%
%ADD11RoundRect,0.135000X-0.135000X-0.185000X0.135000X-0.185000X0.135000X0.185000X-0.135000X0.185000X0*%
%ADD12RoundRect,0.250000X-0.315000X-0.315000X0.315000X-0.315000X0.315000X0.315000X-0.315000X0.315000X0*%
%ADD13RoundRect,0.062500X-0.325000X-0.062500X0.325000X-0.062500X0.325000X0.062500X-0.325000X0.062500X0*%
%ADD14RoundRect,0.062500X-0.062500X-0.325000X0.062500X-0.325000X0.062500X0.325000X-0.062500X0.325000X0*%
%ADD15R,0.300000X1.300000*%
%ADD16R,1.800000X2.200000*%
%ADD17RoundRect,0.250000X-0.450000X-0.350000X0.450000X-0.350000X0.450000X0.350000X-0.450000X0.350000X0*%
%ADD18RoundRect,0.218750X-0.218750X-0.256250X0.218750X-0.256250X0.218750X0.256250X-0.218750X0.256250X0*%
%ADD19RoundRect,0.140000X-0.140000X-0.170000X0.140000X-0.170000X0.140000X0.170000X-0.140000X0.170000X0*%
%ADD20RoundRect,0.150000X-0.150000X-0.625000X0.150000X-0.625000X0.150000X0.625000X-0.150000X0.625000X0*%
%ADD21RoundRect,0.250000X-0.350000X-0.650000X0.350000X-0.650000X0.350000X0.650000X-0.350000X0.650000X0*%
%ADD22RoundRect,0.250000X-0.260000X-0.260000X0.260000X-0.260000X0.260000X0.260000X-0.260000X0.260000X0*%
%ADD23RoundRect,0.050000X-0.337500X-0.050000X0.337500X-0.050000X0.337500X0.050000X-0.337500X0.050000X0*%
%ADD24RoundRect,0.050000X-0.050000X-0.337500X0.050000X-0.337500X0.050000X0.337500X-0.050000X0.337500X0*%
%ADD25RoundRect,0.150000X-0.587500X-0.150000X0.587500X-0.150000X0.587500X0.150000X-0.587500X0.150000X0*%
%ADD26RoundRect,0.250000X-0.370000X-0.370000X0.370000X-0.370000X0.370000X0.370000X-0.370000X0.370000X0*%
%ADD27RoundRect,0.050000X-0.350000X-0.050000X0.350000X-0.050000X0.350000X0.050000X-0.350000X0.050000X0*%
%ADD28RoundRect,0.050000X-0.050000X-0.350000X0.050000X-0.350000X0.050000X0.350000X-0.050000X0.350000X0*%
%ADD29R,0.675000X0.250000*%
%ADD30R,0.250000X0.675000*%
G04 APERTURE END LIST*
D10*
%TO.C,AE1*%
X163150000Y-148000000D03*
X168850000Y-148000000D03*
%TD*%
D11*
%TO.C,R4*%
X218990000Y-149000000D03*
X220010000Y-149000000D03*
%TD*%
D12*
%TO.C,U3*%
X213300000Y-149800000D03*
X213300000Y-151200000D03*
X214700000Y-149800000D03*
X214700000Y-151200000D03*
D13*
X212012500Y-149250000D03*
X212012500Y-149750000D03*
X212012500Y-150250000D03*
X212012500Y-150750000D03*
X212012500Y-151250000D03*
X212012500Y-151750000D03*
D14*
X212750000Y-152487500D03*
X213250000Y-152487500D03*
X213750000Y-152487500D03*
X214250000Y-152487500D03*
X214750000Y-152487500D03*
X215250000Y-152487500D03*
D13*
X215987500Y-151750000D03*
X215987500Y-151250000D03*
X215987500Y-150750000D03*
X215987500Y-150250000D03*
X215987500Y-149750000D03*
X215987500Y-149250000D03*
D14*
X215250000Y-148512500D03*
X214750000Y-148512500D03*
X214250000Y-148512500D03*
X213750000Y-148512500D03*
X213250000Y-148512500D03*
X212750000Y-148512500D03*
%TD*%
D15*
%TO.C,J4*%
X234250000Y-140150000D03*
X234750000Y-140150000D03*
X235250000Y-140150000D03*
X235750000Y-140150000D03*
X236250000Y-140150000D03*
X236750000Y-140150000D03*
X237250000Y-140150000D03*
X237750000Y-140150000D03*
X238250000Y-140150000D03*
X238750000Y-140150000D03*
X239250000Y-140150000D03*
X239750000Y-140150000D03*
X240250000Y-140150000D03*
X240750000Y-140150000D03*
X241250000Y-140150000D03*
X241750000Y-140150000D03*
X242250000Y-140150000D03*
X242750000Y-140150000D03*
X243250000Y-140150000D03*
X243750000Y-140150000D03*
X244250000Y-140150000D03*
X244750000Y-140150000D03*
X245250000Y-140150000D03*
X245750000Y-140150000D03*
D16*
X232350000Y-143400000D03*
X247650000Y-143400000D03*
%TD*%
D17*
%TO.C,Y1*%
X174900000Y-155350000D03*
X177100000Y-155350000D03*
X177100000Y-153650000D03*
X174900000Y-153650000D03*
%TD*%
D18*
%TO.C,L1*%
X221212500Y-154500000D03*
X222787500Y-154500000D03*
%TD*%
D19*
%TO.C,C1*%
X184520000Y-141500000D03*
X185480000Y-141500000D03*
%TD*%
D20*
%TO.C,J5*%
X174500000Y-139500000D03*
X175500000Y-139500000D03*
X176500000Y-139500000D03*
X177500000Y-139500000D03*
D21*
X173200000Y-143375000D03*
X178800000Y-143375000D03*
%TD*%
D20*
%TO.C,J2*%
X251500000Y-152000000D03*
X252500000Y-152000000D03*
D21*
X250200000Y-155875000D03*
X253800000Y-155875000D03*
%TD*%
D19*
%TO.C,C3*%
X189520000Y-141500000D03*
X190480000Y-141500000D03*
%TD*%
D20*
%TO.C,J3*%
X243500000Y-152000000D03*
X244500000Y-152000000D03*
D21*
X242200000Y-155875000D03*
X245800000Y-155875000D03*
%TD*%
D19*
%TO.C,C5*%
X199020000Y-154500000D03*
X199980000Y-154500000D03*
%TD*%
%TO.C,C4*%
X196520000Y-154500000D03*
X197480000Y-154500000D03*
%TD*%
D22*
%TO.C,U2*%
X202730000Y-148730000D03*
X202730000Y-150000000D03*
X202730000Y-151270000D03*
X204000000Y-148730000D03*
X204000000Y-150000000D03*
X204000000Y-151270000D03*
X205270000Y-148730000D03*
X205270000Y-150000000D03*
X205270000Y-151270000D03*
D23*
X201512500Y-148200000D03*
X201512500Y-148600000D03*
X201512500Y-149000000D03*
X201512500Y-149400000D03*
X201512500Y-149800000D03*
X201512500Y-150200000D03*
X201512500Y-150600000D03*
X201512500Y-151000000D03*
X201512500Y-151400000D03*
X201512500Y-151800000D03*
D24*
X202200000Y-152487500D03*
X202600000Y-152487500D03*
X203000000Y-152487500D03*
X203400000Y-152487500D03*
X203800000Y-152487500D03*
X204200000Y-152487500D03*
X204600000Y-152487500D03*
X205000000Y-152487500D03*
X205400000Y-152487500D03*
X205800000Y-152487500D03*
D23*
X206487500Y-151800000D03*
X206487500Y-151400000D03*
X206487500Y-151000000D03*
X206487500Y-150600000D03*
X206487500Y-150200000D03*
X206487500Y-149800000D03*
X206487500Y-149400000D03*
X206487500Y-149000000D03*
X206487500Y-148600000D03*
X206487500Y-148200000D03*
D24*
X205800000Y-147512500D03*
X205400000Y-147512500D03*
X205000000Y-147512500D03*
X204600000Y-147512500D03*
X204200000Y-147512500D03*
X203800000Y-147512500D03*
X203400000Y-147512500D03*
X203000000Y-147512500D03*
X202600000Y-147512500D03*
X202200000Y-147512500D03*
%TD*%
D11*
%TO.C,R3*%
X218990000Y-147000000D03*
X220010000Y-147000000D03*
%TD*%
D25*
%TO.C,U5*%
X167062500Y-153550000D03*
X167062500Y-155450000D03*
X168937500Y-154500000D03*
%TD*%
D26*
%TO.C,U1*%
X190470000Y-146470000D03*
X190470000Y-148000000D03*
X190470000Y-149530000D03*
X192000000Y-146470000D03*
X192000000Y-148000000D03*
X192000000Y-149530000D03*
X193530000Y-146470000D03*
X193530000Y-148000000D03*
X193530000Y-149530000D03*
D27*
X189050000Y-145800000D03*
X189050000Y-146200000D03*
X189050000Y-146600000D03*
X189050000Y-147000000D03*
X189050000Y-147400000D03*
X189050000Y-147800000D03*
X189050000Y-148200000D03*
X189050000Y-148600000D03*
X189050000Y-149000000D03*
X189050000Y-149400000D03*
X189050000Y-149800000D03*
X189050000Y-150200000D03*
D28*
X189800000Y-150950000D03*
X190200000Y-150950000D03*
X190600000Y-150950000D03*
X191000000Y-150950000D03*
X191400000Y-150950000D03*
X191800000Y-150950000D03*
X192200000Y-150950000D03*
X192600000Y-150950000D03*
X193000000Y-150950000D03*
X193400000Y-150950000D03*
X193800000Y-150950000D03*
X194200000Y-150950000D03*
D27*
X194950000Y-150200000D03*
X194950000Y-149800000D03*
X194950000Y-149400000D03*
X194950000Y-149000000D03*
X194950000Y-148600000D03*
X194950000Y-148200000D03*
X194950000Y-147800000D03*
X194950000Y-147400000D03*
X194950000Y-147000000D03*
X194950000Y-146600000D03*
X194950000Y-146200000D03*
X194950000Y-145800000D03*
D28*
X194200000Y-145050000D03*
X193800000Y-145050000D03*
X193400000Y-145050000D03*
X193000000Y-145050000D03*
X192600000Y-145050000D03*
X192200000Y-145050000D03*
X191800000Y-145050000D03*
X191400000Y-145050000D03*
X191000000Y-145050000D03*
X190600000Y-145050000D03*
X190200000Y-145050000D03*
X189800000Y-145050000D03*
%TD*%
D19*
%TO.C,C6*%
X201520000Y-154500000D03*
X202480000Y-154500000D03*
%TD*%
%TO.C,C2*%
X187020000Y-141500000D03*
X187980000Y-141500000D03*
%TD*%
D18*
%TO.C,L2*%
X224712500Y-154500000D03*
X226287500Y-154500000D03*
%TD*%
D19*
%TO.C,C7*%
X228520000Y-154500000D03*
X229480000Y-154500000D03*
%TD*%
%TO.C,C8*%
X231020000Y-154500000D03*
X231980000Y-154500000D03*
%TD*%
D29*
%TO.C,U4*%
X210737500Y-140750000D03*
X210737500Y-141250000D03*
X210737500Y-141750000D03*
X210737500Y-142250000D03*
D30*
X211500000Y-142512500D03*
X212000000Y-142512500D03*
X212500000Y-142512500D03*
D29*
X213262500Y-142250000D03*
X213262500Y-141750000D03*
X213262500Y-141250000D03*
X213262500Y-140750000D03*
D30*
X212500000Y-140487500D03*
X212000000Y-140487500D03*
X211500000Y-140487500D03*
%TD*%
D15*
%TO.C,J1*%
X199750000Y-139150000D03*
X200250000Y-139150000D03*
X200750000Y-139150000D03*
X201250000Y-139150000D03*
X201750000Y-139150000D03*
X202250000Y-139150000D03*
X202750000Y-139150000D03*
X203250000Y-139150000D03*
X203750000Y-139150000D03*
X204250000Y-139150000D03*
D16*
X197850000Y-142400000D03*
X206150000Y-142400000D03*
%TD*%
D11*
%TO.C,R2*%
X183490000Y-154500000D03*
X184510000Y-154500000D03*
%TD*%
%TO.C,R1*%
X180990000Y-154500000D03*
X182010000Y-154500000D03*
%TD*%
M02*
