%TF.GenerationSoftware,KiCad,Pcbnew,10.0.4*%
%TF.CreationDate,2026-09-02T14:46:28+02:00*%
%TF.ProjectId,smartbag_core,736d6172-7462-4616-975f-636f72652e6b,rev?*%
%TF.SameCoordinates,Original*%
%TF.FileFunction,Copper,L4,Inr*%
%TF.FilePolarity,Positive*%
%FSLAX46Y46*%
G04 Gerber Fmt 4.6, Leading zero omitted, Abs format (unit mm)*
G04 Created by KiCad (PCBNEW 10.0.4) date 2026-09-02 14:46:28*
%MOMM*%
%LPD*%
G01*
G04 APERTURE LIST*
G04 Aperture macros list*
%AMRoundRect*
0 Rectangle with rounded corners*
0 $1 Rounding radius*
0 $2 $3 $4 $5 $6 $7 $8 $9 X,Y pos of 4 corners*
0 Add a 4 corners polygon primitive as box body*
4,1,4,$2,$3,$4,$5,$6,$7,$8,$9,$2,$3,0*
0 Add four circle primitives for the rounded corners*
1,1,$1+$1,$2,$3*
1,1,$1+$1,$4,$5*
1,1,$1+$1,$6,$7*
1,1,$1+$1,$8,$9*
0 Add four rect primitives between the rounded corners*
20,1,$1+$1,$2,$3,$4,$5,0*
20,1,$1+$1,$4,$5,$6,$7,0*
20,1,$1+$1,$6,$7,$8,$9,0*
20,1,$1+$1,$8,$9,$2,$3,0*%
G04 Aperture macros list end*
%TA.AperFunction,ComponentPad*%
%ADD10RoundRect,0.250000X-0.350000X-0.625000X0.350000X-0.625000X0.350000X0.625000X-0.350000X0.625000X0*%
%TD*%
%TA.AperFunction,ComponentPad*%
%ADD11O,1.200000X1.750000*%
%TD*%
%TA.AperFunction,ViaPad*%
%ADD12C,0.250000*%
%TD*%
%TA.AperFunction,Conductor*%
%ADD13C,0.100000*%
%TD*%
%TA.AperFunction,Conductor*%
%ADD14C,0.300000*%
%TD*%
%TA.AperFunction,Conductor*%
%ADD15C,1.400000*%
%TD*%
G04 APERTURE END LIST*
D10*
%TO.N,VBAT*%
%TO.C,J2*%
X219597000Y-141635000D03*
D11*
%TO.N,GND*%
X221597000Y-141635000D03*
%TO.N,NTC*%
X223597000Y-141635000D03*
%TD*%
D12*
%TO.N,VREF*%
X241850600Y-150076400D03*
X241069500Y-145383000D03*
%TO.N,GND*%
X155000000Y-150600000D03*
X146000000Y-145400000D03*
X116000000Y-140400000D03*
X134000000Y-150600000D03*
X120000000Y-155600000D03*
X120180000Y-144450000D03*
X158000000Y-150600000D03*
X256000000Y-157300000D03*
X180000000Y-138700000D03*
X252000000Y-157300000D03*
X299740000Y-151550000D03*
X164000000Y-138700000D03*
X301250000Y-146250000D03*
X117750000Y-149750000D03*
X120750000Y-146250000D03*
X240000000Y-157300000D03*
X120000000Y-140400000D03*
X228000000Y-138700000D03*
X224000000Y-138700000D03*
X183993000Y-148105000D03*
X220000000Y-138700000D03*
X117250000Y-148250000D03*
X296000000Y-155600000D03*
X140000000Y-150600000D03*
X301250000Y-149750000D03*
X128000000Y-140400000D03*
X282000000Y-145400000D03*
X245368000Y-151226000D03*
X232000000Y-157300000D03*
X204000000Y-157300000D03*
X302750000Y-149250000D03*
X300750000Y-149750000D03*
X119750000Y-146250000D03*
X128000000Y-155600000D03*
X155000000Y-145400000D03*
X137000000Y-150600000D03*
X288000000Y-150600000D03*
X152000000Y-150600000D03*
X191730000Y-143350000D03*
X279000000Y-150600000D03*
X189780000Y-149000000D03*
X304000000Y-155600000D03*
X149000000Y-150600000D03*
X273000000Y-150600000D03*
X137000000Y-145400000D03*
X304000000Y-140400000D03*
X237353553Y-150943325D03*
X276000000Y-150600000D03*
X216000000Y-138700000D03*
X273000000Y-145400000D03*
X200000000Y-138700000D03*
X200000000Y-157300000D03*
X210150000Y-145850000D03*
X176000000Y-157300000D03*
X208000000Y-157300000D03*
X180000000Y-157300000D03*
X212000000Y-157300000D03*
X116000000Y-155600000D03*
X196000000Y-157300000D03*
X143000000Y-145400000D03*
X208792000Y-142360000D03*
X184000000Y-157300000D03*
X219225000Y-150150000D03*
X196000000Y-138700000D03*
X300250000Y-146250000D03*
X215237000Y-152138000D03*
X188000000Y-157300000D03*
X248000000Y-157300000D03*
X233888000Y-150803000D03*
X243813000Y-150153000D03*
X255293000Y-151276000D03*
X302680000Y-144450000D03*
X236000000Y-138700000D03*
X302250000Y-146250000D03*
X172000000Y-138700000D03*
X285000000Y-145400000D03*
X300000000Y-155600000D03*
X292000000Y-155600000D03*
X118750000Y-146250000D03*
X146000000Y-150600000D03*
X192000000Y-138700000D03*
X192000000Y-157300000D03*
X117750000Y-146250000D03*
X204000000Y-138700000D03*
X302750000Y-148250000D03*
X140000000Y-145400000D03*
X168000000Y-138700000D03*
X268430000Y-146389000D03*
X299250000Y-149750000D03*
X117250000Y-147750000D03*
X119750000Y-149750000D03*
X120750000Y-149750000D03*
X119250000Y-149750000D03*
X285000000Y-150600000D03*
X300750000Y-146250000D03*
X117250000Y-149250000D03*
X240000000Y-138700000D03*
X244000000Y-138700000D03*
X292000000Y-140400000D03*
X193310295Y-145733770D03*
X300000000Y-140400000D03*
X216000000Y-157300000D03*
X208000000Y-138700000D03*
X302750000Y-146750000D03*
X117240000Y-144450000D03*
X158000000Y-145400000D03*
X302750000Y-147750000D03*
X288000000Y-145400000D03*
X184000000Y-138700000D03*
X212037000Y-143862000D03*
X282000000Y-150600000D03*
X195330000Y-143350000D03*
X161000000Y-145400000D03*
X152000000Y-145400000D03*
X117240000Y-151550000D03*
X176000000Y-138700000D03*
X279000000Y-145400000D03*
X299250000Y-146250000D03*
X232000000Y-138700000D03*
X118750000Y-149750000D03*
X149000000Y-145400000D03*
X210150000Y-147350000D03*
X195330000Y-152650000D03*
X302680000Y-151550000D03*
X244000000Y-157300000D03*
X236000000Y-157300000D03*
X212000000Y-138700000D03*
X276000000Y-145400000D03*
X188000000Y-138700000D03*
X161000000Y-150600000D03*
X134000000Y-145400000D03*
X117250000Y-146750000D03*
X143000000Y-150600000D03*
X119250000Y-146250000D03*
X302250000Y-149750000D03*
X270000000Y-145400000D03*
X220000000Y-157300000D03*
X300250000Y-149750000D03*
X199880000Y-145400000D03*
%TO.N,QI_AC1*%
X228125300Y-144890100D03*
X229967100Y-148954100D03*
X227471500Y-140960500D03*
X231985500Y-142761900D03*
%TO.N,VQI*%
X227797900Y-145797500D03*
X215414400Y-153783400D03*
X216644000Y-147750000D03*
%TO.N,QI_CLAMP1*%
X230446200Y-143135400D03*
X229617100Y-146157500D03*
%TO.N,QI_COMM1*%
X229629700Y-146641100D03*
X226115500Y-141300000D03*
%TO.N,QI_ILIM*%
X230875800Y-141899600D03*
X234249600Y-148262000D03*
%TO.N,QI_TS*%
X234051800Y-147690800D03*
X236206100Y-142425600D03*
%TO.N,QI_FOD*%
X234003000Y-141519700D03*
X235765900Y-146776000D03*
%TO.N,QI_COMM2*%
X234074900Y-146323400D03*
X228507600Y-141526100D03*
%TO.N,QI_BOOT2*%
X228345500Y-143268900D03*
X234067700Y-145646700D03*
%TO.N,QI_RECT*%
X234076800Y-145272800D03*
X234182800Y-147239600D03*
%TO.N,QI_AC2*%
X229836000Y-142375200D03*
X233871000Y-144363000D03*
X230490300Y-149828000D03*
%TO.N,FSR_C8*%
X260400700Y-148969800D03*
X268850000Y-148639000D03*
X255497500Y-141079300D03*
X239566000Y-155007000D03*
X243938300Y-148969800D03*
%TO.N,X24R_1*%
X303114200Y-145818500D03*
X296981600Y-142437600D03*
X300006500Y-142125800D03*
%TO.N,X24R_2*%
X303587300Y-141450000D03*
X303267800Y-145473300D03*
%TO.N,IR_LED_EN*%
X181800000Y-144050000D03*
X196200000Y-144700000D03*
%TO.N,IR_LED_K*%
X179935300Y-144931300D03*
X172568300Y-150029300D03*
%TO.N,FSR_C12*%
X268850000Y-151239000D03*
X256750000Y-141038500D03*
X249140300Y-153950300D03*
X260372800Y-150914000D03*
%TO.N,FSR_C0*%
X240375200Y-155227000D03*
X250809300Y-141032700D03*
X261150000Y-153189000D03*
%TO.N,XTAL32K_1*%
X190700000Y-145800000D03*
%TO.N,XTAL32K_2*%
X190700000Y-146200000D03*
X189852100Y-144799100D03*
%TO.N,MUX_S0*%
X187908300Y-152801300D03*
X258666500Y-156903900D03*
X261150000Y-153839000D03*
X190700000Y-146600000D03*
%TO.N,MUX_S1*%
X261150000Y-154489000D03*
X201580900Y-152398300D03*
X190700000Y-147000000D03*
%TO.N,ADC0*%
X236135500Y-149175800D03*
X239430000Y-146180000D03*
X190700000Y-147400000D03*
%TO.N,ADC1*%
X190700000Y-147800000D03*
X240807100Y-146556300D03*
X235588300Y-153582800D03*
%TO.N,ADC2*%
X241848600Y-152704600D03*
X190700000Y-148200000D03*
X244153200Y-147026300D03*
%TO.N,ADC3*%
X187530200Y-154852200D03*
X190700000Y-148600000D03*
X188880000Y-149505100D03*
X238028600Y-154751200D03*
X241317700Y-148818800D03*
X245474400Y-146180600D03*
%TO.N,MUX_S2*%
X255911800Y-155533400D03*
X268850000Y-154489000D03*
X190700000Y-149000000D03*
%TO.N,VDD_3V3*%
X238658700Y-145104000D03*
X267569200Y-145826100D03*
X205500000Y-140348300D03*
X116303500Y-149750000D03*
X247680200Y-150981400D03*
X194513600Y-153143600D03*
X197300000Y-145800000D03*
X233709300Y-151422200D03*
X186887500Y-153950000D03*
X212107000Y-145212000D03*
X182651100Y-148729000D03*
X188610800Y-148391400D03*
X226316500Y-148514800D03*
X302314900Y-150838700D03*
X191800000Y-144700000D03*
X166898600Y-141158700D03*
X116813400Y-145706500D03*
X190700000Y-149400000D03*
X198091200Y-150617300D03*
X303677000Y-146250000D03*
X188587500Y-149100000D03*
X268850000Y-147989000D03*
X254083900Y-151914800D03*
X195934200Y-153250700D03*
X198691700Y-142624000D03*
X213607000Y-150788000D03*
X300232200Y-147989000D03*
%TO.N,CS_RADAR_L*%
X171136900Y-147205200D03*
X117250000Y-146250000D03*
X190700000Y-149800000D03*
%TO.N,SPI_SCK*%
X190700000Y-150200000D03*
X187541900Y-150643300D03*
X268567700Y-156282600D03*
X167250000Y-151424100D03*
X116209200Y-146115700D03*
X303611100Y-150150900D03*
X190023000Y-156098800D03*
X117706600Y-147613100D03*
%TO.N,SPI_MOSI*%
X117005400Y-148505400D03*
X204352600Y-150382800D03*
X239149600Y-147585800D03*
X167912100Y-151686300D03*
X302554000Y-147054000D03*
X191800000Y-151300000D03*
%TO.N,RADAR_IRQ_L*%
X118912900Y-149160700D03*
X192200000Y-151300000D03*
%TO.N,SPI_MISO*%
X120592300Y-147831300D03*
X168250000Y-151143600D03*
X185046300Y-151992500D03*
X303968500Y-149371300D03*
X192600000Y-151300000D03*
X192998700Y-151897100D03*
%TO.N,CS_CAM*%
X193000000Y-151300000D03*
X168892500Y-151135000D03*
%TO.N,RADAR_EN*%
X118750000Y-150611100D03*
X271144500Y-153219400D03*
X193400000Y-151300000D03*
X268788500Y-156002600D03*
X301250000Y-145302000D03*
%TO.N,MUX_S3*%
X268850000Y-155139000D03*
X193800000Y-151300000D03*
%TO.N,MUX_EN_N*%
X268850000Y-153839000D03*
X194200000Y-151300000D03*
%TO.N,RADAR_IRQ_R*%
X302987000Y-147013000D03*
X194600000Y-151300000D03*
%TO.N,CS_RADAR_R*%
X302750000Y-149750000D03*
X195000000Y-151300000D03*
%TO.N,I2C_SDA*%
X195800000Y-151300000D03*
X169460700Y-151128700D03*
X196289400Y-142388000D03*
X214107000Y-150788000D03*
%TO.N,I2C_SCL*%
X204950000Y-140411500D03*
X214607000Y-150788000D03*
X196200000Y-151300000D03*
X169750000Y-151810100D03*
X199190000Y-142021200D03*
%TO.N,SWDIO*%
X197300000Y-150200000D03*
X170291100Y-142015300D03*
%TO.N,SWDCLK*%
X197300000Y-149800000D03*
X168921800Y-141891300D03*
%TO.N,IMU_INT1*%
X197300000Y-149400000D03*
X202559900Y-142358100D03*
%TO.N,HALL_OUT*%
X190450000Y-151399800D03*
X197300000Y-149000000D03*
%TO.N,PMIC_IRQ*%
X211070000Y-149250000D03*
X197300000Y-148600000D03*
%TO.N,NRESET*%
X203823300Y-148200000D03*
X197300000Y-148200000D03*
X225242800Y-150040100D03*
%TO.N,ANT_FEED*%
X197300000Y-147800000D03*
X161609700Y-147941600D03*
X199217800Y-152323500D03*
X159853000Y-151897700D03*
%TO.N,DECRF*%
X197300000Y-147000000D03*
X193479500Y-143411300D03*
%TO.N,XTAL32M_1*%
X184900900Y-142412600D03*
X197300000Y-146600000D03*
%TO.N,XTAL32M_2*%
X186432800Y-141579200D03*
X197300000Y-146200000D03*
%TO.N,TOF_XSHUT*%
X191164200Y-150914800D03*
X170147600Y-151128100D03*
X195800000Y-144700000D03*
%TO.N,ADC4*%
X246696900Y-148608600D03*
X242214700Y-145183900D03*
X195400000Y-144700000D03*
%TO.N,ADC5*%
X195000000Y-144700000D03*
X248247400Y-152976000D03*
X201147200Y-145006900D03*
X251419700Y-147771700D03*
X206697800Y-150273900D03*
%TO.N,TOF_INT*%
X170750000Y-151149600D03*
X191354800Y-150528500D03*
X194200000Y-144700000D03*
%TO.N,DECA*%
X187505700Y-145925400D03*
X193800000Y-144700000D03*
%TO.N,DECD*%
X188193200Y-146443700D03*
X193000000Y-144700000D03*
%TO.N,DCC*%
X192600000Y-144700000D03*
X187908300Y-153185100D03*
%TO.N,VBUSOUT*%
X217386800Y-153835600D03*
X216644000Y-147250000D03*
%TO.N,VBAT*%
X216644000Y-148750000D03*
%TO.N,NTC*%
X216644000Y-149250000D03*
%TO.N,FSR_C13*%
X268850000Y-151889000D03*
X257461900Y-141244000D03*
X251578900Y-153753100D03*
%TO.N,FSR_SINK*%
X244000000Y-144506200D03*
X245917000Y-148331800D03*
X261150000Y-147989000D03*
%TO.N,FSR_C7*%
X257055900Y-155026500D03*
X261150000Y-148639000D03*
X254502800Y-141030500D03*
%TO.N,FSR_C6*%
X254900000Y-155215100D03*
X261150000Y-149289000D03*
X253933000Y-141029600D03*
%TO.N,FSR_C5*%
X261150000Y-149939000D03*
X256522100Y-150057100D03*
X253402400Y-141232700D03*
X252500000Y-155130000D03*
%TO.N,FSR_C4*%
X261150000Y-150589000D03*
X250080400Y-155130000D03*
X253090500Y-141031600D03*
%TO.N,FSR_C3*%
X252427500Y-139271600D03*
X261150000Y-151239000D03*
X247786700Y-154928300D03*
%TO.N,FSR_C2*%
X261150000Y-151889000D03*
X251703400Y-141035500D03*
X245303900Y-155130000D03*
%TO.N,FSR_C1*%
X253608900Y-155513600D03*
X261150000Y-152539000D03*
X251250000Y-139259300D03*
X241887200Y-155533400D03*
%TO.N,FSR_C15*%
X256284700Y-153700000D03*
X268850000Y-153189000D03*
X258250000Y-141039500D03*
%TO.N,FSR_C14*%
X268850000Y-152539000D03*
X254889000Y-153485600D03*
X257813700Y-141148700D03*
%TO.N,FSR_C11*%
X268850000Y-150589000D03*
X256247800Y-141028500D03*
X246688100Y-154225100D03*
%TO.N,FSR_C10*%
X250657600Y-141469400D03*
X255379200Y-139269100D03*
X245300000Y-154254800D03*
X268850000Y-149939000D03*
%TO.N,FSR_C9*%
X268850000Y-149289000D03*
X255027400Y-139193600D03*
X241939000Y-153914000D03*
%TO.N,VSET2*%
X215607000Y-150788000D03*
%TO.N,SW1*%
X208690000Y-153156200D03*
X211070000Y-147250000D03*
X208754500Y-152727100D03*
%TO.N,VDD_1V8*%
X298540900Y-150935300D03*
X300778700Y-144514300D03*
X118995000Y-145054100D03*
X120250000Y-149750000D03*
X119750000Y-150669200D03*
X210251600Y-152813800D03*
X299750000Y-146250000D03*
X259451900Y-154378100D03*
X299750000Y-149750000D03*
X211070000Y-146250000D03*
X208840000Y-144975600D03*
X302750000Y-146250000D03*
X113549500Y-153970500D03*
X117250000Y-149750000D03*
X300250000Y-150682500D03*
X115440200Y-151109100D03*
X120250000Y-146250000D03*
X304435500Y-153500000D03*
%TO.N,FSR_R5*%
X249152600Y-147027800D03*
X261165700Y-141286700D03*
X247602900Y-152326000D03*
%TO.N,BLE_ANT*%
X163794000Y-148991300D03*
X153455700Y-148610000D03*
%TO.N,LED0*%
X225402600Y-147214700D03*
X215607000Y-145212000D03*
%TO.N,FSR_R3*%
X256027300Y-139254500D03*
X244891200Y-147156600D03*
X241829900Y-149632400D03*
X260214800Y-141123700D03*
%TO.N,VDD_CAM*%
X166739400Y-151314900D03*
X212417100Y-152046800D03*
X213607000Y-145212000D03*
X219073800Y-153911900D03*
%TO.N,FSR_R0*%
X258950500Y-141141700D03*
X237567600Y-146177600D03*
X236133800Y-149776500D03*
X243901900Y-140665900D03*
%TO.N,FSR_R1*%
X259250000Y-139082600D03*
X236130400Y-152341800D03*
X240707700Y-147017700D03*
%TO.N,FSR_R2*%
X239911000Y-152418700D03*
X242084200Y-146271700D03*
X259750000Y-138933100D03*
%TO.N,FSR_R4*%
X260780200Y-141079300D03*
X247898300Y-140374900D03*
X245984900Y-147309100D03*
%TO.N,SHPHLD*%
X222905100Y-148491500D03*
X215107000Y-150788000D03*
%TO.N,VSYS*%
X214107000Y-145212000D03*
X206258900Y-149718600D03*
X216644000Y-148250000D03*
X211070000Y-147750000D03*
X171250000Y-151128200D03*
X223407000Y-149026100D03*
X208840000Y-146794000D03*
%TO.N,SW2*%
X211070000Y-148250000D03*
X211250100Y-153861900D03*
%TO.N,VSET1*%
X218371900Y-149038000D03*
X216644000Y-149750000D03*
%TO.N,QI_COIL_A*%
X225955900Y-151169500D03*
X226476000Y-149083900D03*
%TO.N,X24L_2*%
X116217200Y-150617100D03*
X123021100Y-141473700D03*
X114103400Y-141583400D03*
%TO.N,X24L_1*%
X118744300Y-142550000D03*
X116354800Y-150250000D03*
%TD*%
%TO.N,FSR_C8*%
D13*
X268519200Y-148969800D02*
X260400700Y-148969800D01*
X268850000Y-148639000D02*
X268519200Y-148969800D01*
X243938300Y-148969800D02*
X260400700Y-148969800D01*
%TO.N,FSR_C12*%
X268525000Y-150914000D02*
X268850000Y-151239000D01*
X260372800Y-150914000D02*
X268525000Y-150914000D01*
%TO.N,MUX_S1*%
X201580900Y-152398300D02*
X212379500Y-152398300D01*
X247406900Y-152812300D02*
X247970700Y-153376100D01*
X247121700Y-152812300D02*
X247406900Y-152812300D01*
X212424200Y-152443000D02*
X235834600Y-152443000D01*
X240892900Y-152427800D02*
X246737200Y-152427800D01*
X253574900Y-153376100D02*
X254223800Y-154025000D01*
X246737200Y-152427800D02*
X247121700Y-152812300D01*
X212379500Y-152398300D02*
X212424200Y-152443000D01*
X254223800Y-154025000D02*
X260686000Y-154025000D01*
X260686000Y-154025000D02*
X261150000Y-154489000D01*
X236108100Y-152716500D02*
X240604200Y-152716500D01*
X247970700Y-153376100D02*
X253574900Y-153376100D01*
X240604200Y-152716500D02*
X240892900Y-152427800D01*
X235834600Y-152443000D02*
X236108100Y-152716500D01*
%TO.N,ADC0*%
X211285000Y-146924800D02*
X235523500Y-146924800D01*
X235523500Y-146924800D02*
X235690700Y-147092000D01*
X210273500Y-146837400D02*
X211197600Y-146837400D01*
X238518000Y-147092000D02*
X239430000Y-146180000D01*
X190700000Y-147400000D02*
X197291300Y-147400000D01*
X197291300Y-147400000D02*
X197620500Y-147070800D01*
X210040100Y-147070800D02*
X210273500Y-146837400D01*
X211197600Y-146837400D02*
X211285000Y-146924800D01*
X235690700Y-147092000D02*
X238518000Y-147092000D01*
X197620500Y-147070800D02*
X210040100Y-147070800D01*
%TO.N,ADC3*%
X237927600Y-154852200D02*
X238028600Y-154751200D01*
X187530200Y-154852200D02*
X237927600Y-154852200D01*
%TO.N,MUX_S2*%
X268850000Y-154489000D02*
X267805600Y-155533400D01*
X267805600Y-155533400D02*
X255911800Y-155533400D01*
%TO.N,VDD_3V3*%
D14*
X268850000Y-147989000D02*
X300232200Y-147989000D01*
D13*
X188900000Y-148700000D02*
X188800000Y-148600000D01*
D14*
X254083900Y-151914800D02*
X253150500Y-150981400D01*
D13*
X189300000Y-149100000D02*
X189000000Y-148800000D01*
D14*
X253150500Y-150981400D02*
X247680200Y-150981400D01*
D13*
X188737499Y-149050000D02*
X189900000Y-149400000D01*
X190000000Y-149400000D02*
X189900000Y-149400000D01*
X189600000Y-149400000D02*
X189500000Y-149300000D01*
X189000000Y-148800000D02*
X188900000Y-148700000D01*
X188587500Y-149100000D02*
X188687500Y-149100000D01*
X189400000Y-149200000D02*
X189300000Y-149100000D01*
X189900000Y-149400000D02*
X189600000Y-149400000D01*
X190400000Y-149400000D02*
X190000000Y-149400000D01*
X190500000Y-149400000D02*
X190400000Y-149400000D01*
X188687500Y-149100000D02*
X188737499Y-149050000D01*
X188800000Y-148600000D02*
X188600000Y-148400000D01*
X189500000Y-149300000D02*
X189400000Y-149200000D01*
X190700000Y-149400000D02*
X190500000Y-149400000D01*
%TO.N,CS_RADAR_L*%
X118205200Y-147205200D02*
X171136900Y-147205200D01*
X117250000Y-146250000D02*
X118205200Y-147205200D01*
%TO.N,SPI_SCK*%
X190023000Y-156098800D02*
X268383900Y-156098800D01*
X268383900Y-156098800D02*
X268567700Y-156282600D01*
%TO.N,SPI_MOSI*%
X192398600Y-150701400D02*
X197509900Y-150701400D01*
X302554000Y-147054000D02*
X249639200Y-147054000D01*
X197932900Y-150278400D02*
X204248200Y-150278400D01*
X249107400Y-147585800D02*
X239149600Y-147585800D01*
X191800000Y-151300000D02*
X192398600Y-150701400D01*
X204248200Y-150278400D02*
X204352600Y-150382800D01*
X197509900Y-150701400D02*
X197932900Y-150278400D01*
X249639200Y-147054000D02*
X249107400Y-147585800D01*
%TO.N,SPI_MISO*%
X192998700Y-151897100D02*
X185141700Y-151897100D01*
X185141700Y-151897100D02*
X185046300Y-151992500D01*
%TO.N,CS_CAM*%
X170496400Y-151410400D02*
X169167900Y-151410400D01*
X193000000Y-151300000D02*
X192623500Y-151676500D01*
X169167900Y-151410400D02*
X168892500Y-151135000D01*
X170762500Y-151676500D02*
X170496400Y-151410400D01*
X192623500Y-151676500D02*
X170762500Y-151676500D01*
%TO.N,RADAR_IRQ_R*%
X214555700Y-149994100D02*
X206583600Y-149994100D01*
X250190600Y-147493900D02*
X249672600Y-148011900D01*
X236805400Y-149483200D02*
X219500600Y-149483200D01*
X194931000Y-150969000D02*
X194600000Y-151300000D01*
X205608700Y-150969000D02*
X194931000Y-150969000D01*
X249672600Y-148011900D02*
X238276700Y-148011900D01*
X238276700Y-148011900D02*
X236805400Y-149483200D01*
X206583600Y-149994100D02*
X205608700Y-150969000D01*
X214606100Y-150044500D02*
X214555700Y-149994100D01*
X219500600Y-149483200D02*
X218939300Y-150044500D01*
X302987000Y-147013000D02*
X302506100Y-147493900D01*
X218939300Y-150044500D02*
X214606100Y-150044500D01*
X302506100Y-147493900D02*
X250190600Y-147493900D01*
%TO.N,I2C_SDA*%
X213311200Y-151583800D02*
X196083800Y-151583800D01*
X214107000Y-150788000D02*
X213311200Y-151583800D01*
X196083800Y-151583800D02*
X195800000Y-151300000D01*
%TO.N,I2C_SCL*%
X211769800Y-151300000D02*
X196200000Y-151300000D01*
X214607000Y-150788000D02*
X214264500Y-150445500D01*
X212624300Y-150445500D02*
X211769800Y-151300000D01*
X214264500Y-150445500D02*
X212624300Y-150445500D01*
%TO.N,PMIC_IRQ*%
X210420000Y-148600000D02*
X197300000Y-148600000D01*
X211070000Y-149250000D02*
X210420000Y-148600000D01*
%TO.N,NRESET*%
X197300000Y-148200000D02*
X203823300Y-148200000D01*
%TO.N,ANT_FEED*%
X193248800Y-152323500D02*
X199217800Y-152323500D01*
X159853000Y-151897700D02*
X160426200Y-152470900D01*
X193101400Y-152470900D02*
X193248800Y-152323500D01*
X160426200Y-152470900D02*
X193101400Y-152470900D01*
%TO.N,ADC5*%
X246489800Y-151753800D02*
X217217600Y-151753800D01*
X248247400Y-152976000D02*
X247882000Y-152610600D01*
X214404000Y-150195800D02*
X206775900Y-150195800D01*
X206775900Y-150195800D02*
X206697800Y-150273900D01*
X247346600Y-152610600D02*
X246489800Y-151753800D01*
X215882200Y-150418400D02*
X214626600Y-150418400D01*
X247882000Y-152610600D02*
X247346600Y-152610600D01*
X195000000Y-144700000D02*
X195306900Y-145006900D01*
X214626600Y-150418400D02*
X214404000Y-150195800D01*
X217217600Y-151753800D02*
X215882200Y-150418400D01*
X195306900Y-145006900D02*
X201147200Y-145006900D01*
%TO.N,FSR_SINK*%
X260807200Y-148331800D02*
X261150000Y-147989000D01*
X245917000Y-148331800D02*
X260807200Y-148331800D01*
%TO.N,FSR_C5*%
X261031900Y-150057100D02*
X256522100Y-150057100D01*
X261150000Y-149939000D02*
X261031900Y-150057100D01*
%TO.N,FSR_C15*%
X268525000Y-153514000D02*
X256470700Y-153514000D01*
X268850000Y-153189000D02*
X268525000Y-153514000D01*
X256470700Y-153514000D02*
X256284700Y-153700000D01*
%TO.N,VDD_1V8*%
D14*
X235665600Y-152813800D02*
X236015800Y-153164000D01*
X236015800Y-153164000D02*
X247196200Y-153164000D01*
X210251600Y-152813800D02*
X235665600Y-152813800D01*
X248410300Y-154378100D02*
X259451900Y-154378100D01*
X247196200Y-153164000D02*
X248410300Y-154378100D01*
%TO.N,BLE_ANT*%
D15*
X153837000Y-148991300D02*
X153455700Y-148610000D01*
X163794000Y-148991300D02*
X153837000Y-148991300D01*
%TO.N,VDD_CAM*%
D13*
X167764500Y-151147400D02*
X166906900Y-151147400D01*
X168886300Y-152269200D02*
X167764500Y-151147400D01*
X193017900Y-152269200D02*
X168886300Y-152269200D01*
X193240300Y-152046800D02*
X193017900Y-152269200D01*
X212417100Y-152046800D02*
X193240300Y-152046800D01*
X166906900Y-151147400D02*
X166739400Y-151314900D01*
%TO.N,FSR_R0*%
X258950500Y-141141700D02*
X258474700Y-140665900D01*
X258474700Y-140665900D02*
X243901900Y-140665900D01*
%TO.N,FSR_R4*%
X260780200Y-141079300D02*
X260075800Y-140374900D01*
X260075800Y-140374900D02*
X247898300Y-140374900D01*
%TO.N,VSYS*%
X191970500Y-150499700D02*
X197426400Y-150499700D01*
X211570000Y-148250000D02*
X211070000Y-147750000D01*
X197426400Y-150499700D02*
X198207500Y-149718600D01*
X190633000Y-151191500D02*
X191278700Y-151191500D01*
X216644000Y-148250000D02*
X211570000Y-148250000D01*
X191278700Y-151191500D02*
X191970500Y-150499700D01*
X190564600Y-151123100D02*
X190633000Y-151191500D01*
X198207500Y-149718600D02*
X206258900Y-149718600D01*
X171250000Y-151128200D02*
X171255100Y-151123100D01*
X171255100Y-151123100D02*
X190564600Y-151123100D01*
%TD*%
M02*
