%TF.GenerationSoftware,KiCad,Pcbnew,10.0.4*%
%TF.CreationDate,2026-08-31T15:56:00+02:00*%
%TF.ProjectId,smartbag_core,736d6172-7462-4616-975f-636f72652e6b,rev?*%
%TF.SameCoordinates,Original*%
%TF.FileFunction,Profile,NP*%
%FSLAX46Y46*%
G04 Gerber Fmt 4.6, Leading zero omitted, Abs format (unit mm)*
G04 Created by KiCad (PCBNEW 10.0.4) date 2026-08-31 15:56:00*
%MOMM*%
%LPD*%
G01*
G04 APERTURE LIST*
%TA.AperFunction,Profile*%
%ADD10C,0.100000*%
%TD*%
G04 APERTURE END LIST*
D10*
X112000000Y-138000000D02*
X132000000Y-138000000D01*
X112000000Y-158000000D02*
X112000000Y-138000000D01*
X132000000Y-138000000D02*
X132000000Y-141000000D01*
X132000000Y-141000000D02*
X162000000Y-141000000D01*
X132000000Y-155000000D02*
X132000000Y-158000000D01*
X132000000Y-158000000D02*
X112000000Y-158000000D01*
X162000000Y-138000000D02*
X258000000Y-138000000D01*
X162000000Y-141000000D02*
X162000000Y-138000000D01*
X162000000Y-155000000D02*
X132000000Y-155000000D01*
X162000000Y-158000000D02*
X162000000Y-155000000D01*
X258000000Y-138000000D02*
X258000000Y-141000000D01*
X258000000Y-141000000D02*
X288000000Y-141000000D01*
X258000000Y-155000000D02*
X258000000Y-158000000D01*
X258000000Y-158000000D02*
X162000000Y-158000000D01*
X288000000Y-138000000D02*
X308000000Y-138000000D01*
X288000000Y-141000000D02*
X288000000Y-138000000D01*
X288000000Y-155000000D02*
X258000000Y-155000000D01*
X288000000Y-158000000D02*
X288000000Y-155000000D01*
X308000000Y-138000000D02*
X308000000Y-158000000D01*
X308000000Y-158000000D02*
X288000000Y-158000000D01*
M02*
