%TF.GenerationSoftware,KiCad,Pcbnew,10.0.4*%
%TF.CreationDate,2026-08-31T21:17:38+02:00*%
%TF.ProjectId,smartbag_core,736d6172-7462-4616-975f-636f72652e6b,rev?*%
%TF.SameCoordinates,Original*%
%TF.FileFunction,Copper,L3,Inr*%
%TF.FilePolarity,Positive*%
%FSLAX46Y46*%
G04 Gerber Fmt 4.6, Leading zero omitted, Abs format (unit mm)*
G04 Created by KiCad (PCBNEW 10.0.4) date 2026-08-31 21:17:38*
%MOMM*%
%LPD*%
G01*
G04 APERTURE LIST*
%TA.AperFunction,ViaPad*%
%ADD10C,0.250000*%
%TD*%
%TA.AperFunction,Conductor*%
%ADD11C,0.300000*%
%TD*%
%TA.AperFunction,Conductor*%
%ADD12C,0.100000*%
%TD*%
%TA.AperFunction,Conductor*%
%ADD13C,1.400000*%
%TD*%
G04 APERTURE END LIST*
D10*
%TO.N,VDD_3V3*%
X303024800Y-150546500D03*
X296479100Y-153959100D03*
X240167000Y-139914900D03*
X211662100Y-151131500D03*
X236119100Y-151000000D03*
X183028000Y-149200000D03*
X212807300Y-150120400D03*
X242942400Y-140000000D03*
X212567700Y-153777400D03*
X199517500Y-145812100D03*
X303677000Y-146250000D03*
X212268300Y-143320000D03*
X187432900Y-149200000D03*
X237944400Y-139914900D03*
X117250000Y-145305200D03*
X166867500Y-141000000D03*
X116315600Y-149865300D03*
X198772100Y-146207500D03*
X238995200Y-143994800D03*
X122461400Y-153500000D03*
X246293900Y-151242100D03*
X225939300Y-147784400D03*
X269000300Y-147674700D03*
X197655100Y-145844400D03*
X191412800Y-145050000D03*
X202546600Y-143821600D03*
%TO.N,GND*%
X279000000Y-150600000D03*
X143000000Y-145400000D03*
X244000000Y-138700000D03*
X172000000Y-138700000D03*
X161000000Y-150600000D03*
X240000000Y-157300000D03*
X180000000Y-138700000D03*
X232000000Y-157300000D03*
X134000000Y-150600000D03*
X200000000Y-157300000D03*
X285000000Y-145400000D03*
X208000000Y-138700000D03*
X155000000Y-145400000D03*
X267000000Y-145400000D03*
X212000000Y-157300000D03*
X288000000Y-145400000D03*
X228000000Y-138700000D03*
X116000000Y-140400000D03*
X282000000Y-150600000D03*
X196000000Y-157300000D03*
X176000000Y-157300000D03*
X224000000Y-138700000D03*
X146000000Y-145400000D03*
X273000000Y-145400000D03*
X304000000Y-140400000D03*
X192000000Y-157300000D03*
X205670011Y-141548845D03*
X240000000Y-138700000D03*
X300000000Y-140400000D03*
X188000000Y-138700000D03*
X137000000Y-150600000D03*
X120000000Y-155600000D03*
X220000000Y-138700000D03*
X168000000Y-138700000D03*
X134000000Y-145400000D03*
X232000000Y-138700000D03*
X161000000Y-145400000D03*
X288000000Y-150600000D03*
X208000000Y-157300000D03*
X152000000Y-145400000D03*
X155000000Y-150600000D03*
X192000000Y-138700000D03*
X188000000Y-157300000D03*
X120000000Y-140400000D03*
X256000000Y-157300000D03*
X273000000Y-150600000D03*
X140000000Y-145400000D03*
X204000000Y-157300000D03*
X279000000Y-145400000D03*
X200000000Y-138700000D03*
X236000000Y-138700000D03*
X276000000Y-150600000D03*
X217317277Y-147625017D03*
X184000000Y-157300000D03*
X216000000Y-138700000D03*
X300000000Y-155600000D03*
X201687439Y-141965475D03*
X304000000Y-155600000D03*
X231353260Y-144021365D03*
X176000000Y-138700000D03*
X164000000Y-138700000D03*
X140000000Y-150600000D03*
X180000000Y-157300000D03*
X276000000Y-145400000D03*
X149000000Y-150600000D03*
X149000000Y-145400000D03*
X204000000Y-138700000D03*
X146000000Y-150600000D03*
X158000000Y-150600000D03*
X212000000Y-138700000D03*
X152000000Y-150600000D03*
X282000000Y-145400000D03*
X116000000Y-155600000D03*
X285000000Y-150600000D03*
X137000000Y-145400000D03*
X158000000Y-145400000D03*
X252000000Y-157300000D03*
X196000000Y-138700000D03*
X236000000Y-157300000D03*
X143000000Y-150600000D03*
X296000000Y-155600000D03*
X184000000Y-138700000D03*
%TO.N,VSYS*%
X208389700Y-147377700D03*
X208935300Y-143265300D03*
X209837900Y-146686100D03*
X175007700Y-148527900D03*
X215052300Y-144101700D03*
X216184800Y-147072000D03*
%TO.N,FSR_R2*%
X242750000Y-147023400D03*
X259774500Y-141040000D03*
X243829900Y-152300000D03*
%TO.N,ADC2*%
X242911300Y-146415900D03*
X241179000Y-153312600D03*
X190413900Y-147877100D03*
X243714800Y-153312600D03*
%TO.N,VDD_1V8*%
X210156900Y-152906900D03*
X300250000Y-150703000D03*
X298410000Y-153445900D03*
X120250000Y-146250000D03*
X210162500Y-143048600D03*
X120250000Y-149750000D03*
X299750000Y-146250000D03*
X118279000Y-148721000D03*
X300250000Y-145296200D03*
X119111200Y-144521300D03*
X299750000Y-149750000D03*
X302750000Y-146250000D03*
X300903000Y-152166100D03*
X113921700Y-152877300D03*
X119134900Y-153500000D03*
X117250000Y-149750000D03*
X116445300Y-153500000D03*
X209726600Y-145274600D03*
X118056300Y-151163100D03*
%TO.N,FSR_C1*%
X260322100Y-152725000D03*
X247835300Y-141239600D03*
X243517500Y-155459500D03*
%TO.N,VREF*%
X243692900Y-145950000D03*
X243839100Y-151629900D03*
X243132300Y-154395000D03*
%TO.N,ADC4*%
X246120900Y-149445400D03*
X201494900Y-144440600D03*
X239900300Y-149842200D03*
%TO.N,FSR_R4*%
X261100000Y-141053500D03*
X246008100Y-149907100D03*
X247580700Y-148199200D03*
%TO.N,FSR_R5*%
X260140000Y-141613800D03*
X244066600Y-152698300D03*
X247292500Y-147154300D03*
%TO.N,ADC5*%
X248994200Y-150173400D03*
X250984600Y-147376100D03*
X239900300Y-150454500D03*
X195000000Y-144405600D03*
X245946000Y-153596700D03*
%TO.N,RADAR_EN*%
X266455000Y-139914900D03*
X193174200Y-151573400D03*
X250125100Y-140222700D03*
X198399200Y-155211400D03*
X300400900Y-144860700D03*
X220399000Y-154172000D03*
%TO.N,X24L_2*%
X114913700Y-142445000D03*
X116320000Y-151134600D03*
X123021100Y-141472100D03*
%TO.N,CS_RADAR_L*%
X118132200Y-146250000D03*
X190337600Y-149593000D03*
X117250000Y-146250000D03*
%TO.N,X24L_1*%
X115241300Y-150329100D03*
X115941300Y-141556500D03*
%TO.N,SPI_SCK*%
X121604100Y-146349300D03*
X167345200Y-151134100D03*
X254923100Y-156801400D03*
X191700300Y-151588100D03*
X116209200Y-146096500D03*
X304078300Y-150238900D03*
X190710400Y-150539600D03*
X241175400Y-157168300D03*
%TO.N,SPI_MISO*%
X303683400Y-149628900D03*
X252550300Y-157223700D03*
X169051100Y-152020600D03*
X273013100Y-153895600D03*
X273579400Y-152935300D03*
X192338300Y-151941000D03*
X240910100Y-156895800D03*
X117973200Y-147424600D03*
%TO.N,SPI_MOSI*%
X116209200Y-147848900D03*
X303683400Y-148183400D03*
X122921700Y-147848900D03*
X167750000Y-149371300D03*
X191471900Y-150790500D03*
%TO.N,RADAR_IRQ_L*%
X192333000Y-151577900D03*
X120446200Y-148285300D03*
%TO.N,SW2*%
X209726600Y-147125400D03*
X211250100Y-153764700D03*
%TO.N,FSR_R1*%
X246276200Y-140230500D03*
X236170000Y-152300000D03*
X239523300Y-147466700D03*
%TO.N,ADC1*%
X237510600Y-153381900D03*
X190418100Y-147525300D03*
X240451800Y-147176600D03*
%TO.N,FSR_C15*%
X267196400Y-153085000D03*
X256431300Y-153347200D03*
X258422900Y-141211900D03*
%TO.N,IMU_INT1*%
X202768000Y-143178300D03*
X198406000Y-149499700D03*
%TO.N,I2C_SCL*%
X204261700Y-141552800D03*
X208374900Y-149611800D03*
X199487700Y-141987000D03*
X191193800Y-150537100D03*
X213662400Y-150156200D03*
X203655400Y-150498700D03*
X196754200Y-150580300D03*
X172113000Y-151022400D03*
%TO.N,I2C_SDA*%
X197908800Y-142418800D03*
X210843300Y-150569700D03*
X169250000Y-151128200D03*
X190600400Y-151255900D03*
X200457400Y-151539700D03*
%TO.N,X24R_2*%
X302250000Y-145392100D03*
X302250000Y-141450000D03*
%TO.N,VDD_CAM*%
X166751600Y-151144400D03*
X190416500Y-150146500D03*
X212209300Y-143828800D03*
X211542600Y-150061700D03*
%TO.N,FSR_C2*%
X249544700Y-141481300D03*
X260317000Y-152221800D03*
X244827700Y-155668200D03*
%TO.N,CS_RADAR_R*%
X302750000Y-149750000D03*
X304451000Y-149938600D03*
X194643000Y-152147300D03*
X240588200Y-157356600D03*
X258629100Y-157299800D03*
%TO.N,X24R_1*%
X300006500Y-142125800D03*
X303113000Y-145818500D03*
X296981600Y-142437600D03*
%TO.N,FSR_R0*%
X259705200Y-141412100D03*
X238569300Y-146120700D03*
X238102500Y-149637400D03*
%TO.N,ADC0*%
X190421100Y-147173500D03*
X240400200Y-148739600D03*
%TO.N,SWDCLK*%
X174812500Y-149556200D03*
X167537400Y-142291100D03*
X197411900Y-151019000D03*
%TO.N,SWDIO*%
X197116600Y-150760200D03*
X181051900Y-142498000D03*
X199997400Y-150766700D03*
%TO.N,IR_LED_EN*%
X196528500Y-144745400D03*
X183539300Y-143774400D03*
%TO.N,IR_LED_K*%
X182066800Y-144956600D03*
X182812600Y-148764800D03*
%TO.N,XTAL32K_2*%
X190941600Y-144569500D03*
X189044400Y-146320800D03*
%TO.N,MUX_S0*%
X189490000Y-147383000D03*
X260319400Y-154122600D03*
%TO.N,MUX_S1*%
X189804700Y-147056200D03*
X250838900Y-156021500D03*
%TO.N,ADC3*%
X189921200Y-148600000D03*
X240927000Y-148289900D03*
X199830700Y-153655500D03*
X198492600Y-153624500D03*
%TO.N,MUX_S2*%
X265747300Y-154675000D03*
X190363100Y-148935700D03*
%TO.N,CS_CAM*%
X190227600Y-151554600D03*
X190867800Y-152293900D03*
X168811000Y-151131700D03*
%TO.N,MUX_S3*%
X267345700Y-155058000D03*
X193677900Y-151578900D03*
%TO.N,MUX_EN_N*%
X194250000Y-151577100D03*
X267322900Y-153936500D03*
%TO.N,HALL_OUT*%
X190075900Y-149828700D03*
X198757800Y-149473500D03*
%TO.N,NRESET*%
X198188800Y-148744500D03*
X225583600Y-148660500D03*
%TO.N,ANT_FEED*%
X198564000Y-148044500D03*
X162499600Y-147441000D03*
X160520000Y-152538500D03*
%TO.N,DECRF*%
X196601300Y-142493700D03*
X198607100Y-147660700D03*
%TO.N,XTAL32M_1*%
X184632700Y-142465700D03*
X200764200Y-147437800D03*
%TO.N,XTAL32M_2*%
X187521300Y-141914300D03*
X199086900Y-145373900D03*
%TO.N,TOF_XSHUT*%
X182561100Y-148283000D03*
X170072700Y-149188700D03*
X195800000Y-144418300D03*
%TO.N,TOF_INT*%
X194200000Y-144407200D03*
X175299100Y-148251100D03*
%TO.N,DECA*%
X193800000Y-144413900D03*
X187980000Y-146252600D03*
%TO.N,DECD*%
X187496700Y-147308000D03*
X192955100Y-144411000D03*
%TO.N,DCC*%
X188777400Y-148095600D03*
X192452000Y-144409400D03*
X187477300Y-148095600D03*
X187878200Y-153350000D03*
%TO.N,VBUSOUT*%
X216053600Y-146160200D03*
X218096400Y-142076400D03*
%TO.N,FSR_C6*%
X252783100Y-154247900D03*
X260171900Y-149605100D03*
X254361500Y-141771500D03*
%TO.N,FSR_R3*%
X260358400Y-141049900D03*
X243773500Y-149410100D03*
X244382300Y-147050000D03*
%TO.N,SW1*%
X208595700Y-152956300D03*
X208816400Y-146200000D03*
%TO.N,NTC*%
X218564300Y-150846300D03*
X216795900Y-147683100D03*
%TO.N,VBAT*%
X216124400Y-147625400D03*
X217406700Y-152313300D03*
X214029700Y-142076400D03*
%TO.N,VQI*%
X216432000Y-146645200D03*
X228332700Y-145332200D03*
X216035900Y-142015900D03*
%TO.N,BLE_ANT*%
X153248300Y-148621500D03*
X163833700Y-148705400D03*
%TO.N,FSR_C4*%
X249349000Y-155456600D03*
X253561500Y-142178000D03*
X260171900Y-150775000D03*
%TO.N,QI_TS*%
X233599400Y-147500000D03*
X236350000Y-141519700D03*
%TO.N,FSR_C13*%
X257600000Y-141026900D03*
X266491200Y-152352900D03*
X256043200Y-153653300D03*
X253252900Y-153345300D03*
%TO.N,FSR_C14*%
X255854200Y-153967400D03*
X257964300Y-141037000D03*
X266785000Y-153073100D03*
X267311800Y-152733200D03*
%TO.N,QI_AC1*%
X230474200Y-142230800D03*
X228840200Y-143860300D03*
X229559600Y-149260400D03*
X227895500Y-141086100D03*
X232438800Y-142404100D03*
%TO.N,FSR_C9*%
X255348500Y-141025900D03*
X266413700Y-149606900D03*
X243837800Y-154981100D03*
%TO.N,QI_AC2*%
X233264300Y-143896700D03*
X230861800Y-149865300D03*
%TO.N,QI_ILIM*%
X232058100Y-141876600D03*
X232827800Y-147816700D03*
%TO.N,QI_FOD*%
X233991300Y-141150000D03*
X233607500Y-147103000D03*
%TO.N,QI_COMM2*%
X232812400Y-146703100D03*
X232932800Y-140990900D03*
%TO.N,FSR_SINK*%
X250204600Y-145249800D03*
X252128300Y-147377700D03*
%TO.N,FSR_C12*%
X249700800Y-155348000D03*
X257100000Y-141044000D03*
X267020000Y-151425000D03*
%TO.N,QI_CLAMP1*%
X231005300Y-143119700D03*
X228466100Y-145945900D03*
%TO.N,FSR_C8*%
X255100000Y-141781400D03*
X264607000Y-148825000D03*
X238990700Y-154550000D03*
X245745500Y-141961500D03*
%TO.N,FSR_C7*%
X260380000Y-148527200D03*
X255511800Y-154869000D03*
X259800600Y-148611800D03*
X254713400Y-141782100D03*
%TO.N,QI_COIL_A*%
X225969500Y-151177400D03*
X226553500Y-149208200D03*
%TO.N,QI_COMM1*%
X226935700Y-141915700D03*
X226078300Y-146682900D03*
%TO.N,QI_RECT*%
X232842100Y-150850000D03*
X233006300Y-145059700D03*
%TO.N,FSR_C5*%
X251952600Y-154449600D03*
X260171900Y-150016100D03*
X253816900Y-141935900D03*
%TO.N,FSR_C3*%
X253312800Y-142426800D03*
X260008500Y-151425000D03*
X247110500Y-155658300D03*
%TO.N,FSR_C0*%
X250075800Y-140951700D03*
X259756100Y-154050200D03*
X239917700Y-155293500D03*
%TO.N,FSR_C11*%
X266870300Y-150942000D03*
X247200000Y-154817100D03*
X256600000Y-141413900D03*
%TO.N,FSR_C10*%
X244142100Y-154745500D03*
X256153700Y-141320000D03*
X266857100Y-150065500D03*
X257779800Y-142043400D03*
%TD*%
%TO.N,VDD_3V3*%
D11*
X117702400Y-145757600D02*
X117250000Y-145305200D01*
X268457100Y-147674700D02*
X260373100Y-139590700D01*
X290194700Y-147674700D02*
X269000300Y-147674700D01*
X212807300Y-152806000D02*
X212807300Y-151131500D01*
X117546500Y-146901200D02*
X117546500Y-147601200D01*
X201508000Y-143821600D02*
X199517500Y-145812100D01*
X269000300Y-147674700D02*
X268457100Y-147674700D01*
X166867500Y-141000000D02*
X162894500Y-144973000D01*
X240167000Y-139914900D02*
X237944400Y-139914900D01*
X117702400Y-147757100D02*
X117702400Y-149993800D01*
X212303900Y-143320000D02*
X212268300Y-143320000D01*
X183028000Y-149200000D02*
X175067500Y-149200000D01*
X121208600Y-153500000D02*
X122461400Y-153500000D01*
X236119100Y-151000000D02*
X236119100Y-146870900D01*
X197655100Y-145844400D02*
X198409000Y-145844400D01*
X225939300Y-147784400D02*
X226505000Y-147218700D01*
X303024800Y-150683100D02*
X299748800Y-153959100D01*
X188105700Y-148527200D02*
X188105700Y-148151900D01*
X243351700Y-139590700D02*
X242942400Y-140000000D01*
X303677000Y-146250000D02*
X303248200Y-146678800D01*
X212807300Y-153537800D02*
X212807300Y-152806000D01*
X187432900Y-149200000D02*
X188105700Y-148527200D01*
X212807300Y-151131500D02*
X211662100Y-151131500D01*
X183028000Y-149200000D02*
X187432900Y-149200000D01*
X175067500Y-149200000D02*
X166867500Y-141000000D01*
X296479100Y-153959100D02*
X290194700Y-147674700D01*
X212807300Y-150120400D02*
X212807300Y-143823400D01*
X237944400Y-139914900D02*
X237944400Y-142944000D01*
X225856400Y-147784400D02*
X225939300Y-147784400D01*
X117546500Y-147601200D02*
X117702400Y-147757100D01*
X117466400Y-150229800D02*
X117702400Y-149993800D01*
X220834800Y-152806000D02*
X225856400Y-147784400D01*
X116680100Y-150229800D02*
X117466400Y-150229800D01*
X228439900Y-144880500D02*
X233405500Y-139914900D01*
X212807300Y-151131500D02*
X212807300Y-150120400D01*
X237944400Y-142944000D02*
X238995200Y-143994800D01*
X189628100Y-146629500D02*
X190226600Y-146629500D01*
X260373100Y-139590700D02*
X243351700Y-139590700D01*
X117702400Y-146745300D02*
X117546500Y-146901200D01*
X233405500Y-139914900D02*
X237944400Y-139914900D01*
X228145700Y-144880500D02*
X228439900Y-144880500D01*
X118487000Y-144973000D02*
X117702400Y-145757600D01*
X242857300Y-139914900D02*
X242942400Y-140000000D01*
X117702400Y-149993800D02*
X121208600Y-153500000D01*
X226505000Y-147218700D02*
X226505000Y-146521200D01*
X226505000Y-146521200D02*
X228145700Y-144880500D01*
X240167000Y-139914900D02*
X242857300Y-139914900D01*
X236119100Y-146870900D02*
X238995200Y-143994800D01*
X212807300Y-152806000D02*
X220834800Y-152806000D01*
X303024800Y-150546500D02*
X303024800Y-150683100D01*
X188105700Y-148151900D02*
X189628100Y-146629500D01*
X299748800Y-153959100D02*
X296479100Y-153959100D01*
X191412800Y-145443300D02*
X191412800Y-145050000D01*
X190226600Y-146629500D02*
X191412800Y-145443300D01*
X191412800Y-145443300D02*
X191813900Y-145844400D01*
X212807300Y-143823400D02*
X212303900Y-143320000D01*
X198409000Y-145844400D02*
X198772100Y-146207500D01*
X212567700Y-153777400D02*
X212807300Y-153537800D01*
X303248200Y-150323100D02*
X303024800Y-150546500D01*
X202546600Y-143821600D02*
X201508000Y-143821600D01*
X162894500Y-144973000D02*
X118487000Y-144973000D01*
X117702400Y-145757600D02*
X117702400Y-146745300D01*
X303248200Y-146678800D02*
X303248200Y-150323100D01*
X116315600Y-149865300D02*
X116680100Y-150229800D01*
X191813900Y-145844400D02*
X197655100Y-145844400D01*
%TO.N,VSYS*%
D12*
X208389700Y-143810900D02*
X208935300Y-143265300D01*
X215052300Y-142594000D02*
X214179100Y-141720800D01*
X211435400Y-143630200D02*
X211435400Y-145088600D01*
X208389700Y-147377700D02*
X208389700Y-143810900D01*
X215052300Y-144101700D02*
X215052300Y-142594000D01*
X214179100Y-141720800D02*
X213344800Y-141720800D01*
X206842000Y-141172000D02*
X181980800Y-141172000D01*
X181980800Y-141172000D02*
X175007700Y-148145100D01*
X213344800Y-141720800D02*
X211435400Y-143630200D01*
X208935300Y-143265300D02*
X206842000Y-141172000D01*
X216184800Y-147072000D02*
X215052300Y-145939500D01*
X211435400Y-145088600D02*
X209837900Y-146686100D01*
X175007700Y-148145100D02*
X175007700Y-148527900D01*
X215052300Y-145939500D02*
X215052300Y-144101700D01*
%TO.N,FSR_R2*%
X259774500Y-141040000D02*
X259080300Y-140345800D01*
X244358800Y-148632200D02*
X242750000Y-147023400D01*
X243972500Y-152300000D02*
X244358800Y-151913700D01*
X243829900Y-152300000D02*
X243972500Y-152300000D01*
X244358800Y-151913700D02*
X244358800Y-148632200D01*
X252645200Y-140345800D02*
X244358800Y-148632200D01*
X259080300Y-140345800D02*
X252645200Y-140345800D01*
%TO.N,ADC2*%
X219867000Y-155457200D02*
X219778400Y-155368600D01*
X243714800Y-153312600D02*
X243518700Y-153116500D01*
X244157100Y-151256300D02*
X242271600Y-149370800D01*
X193659700Y-147877100D02*
X190413900Y-147877100D01*
X220931100Y-155457200D02*
X219867000Y-155457200D01*
X221019700Y-155368600D02*
X220931100Y-155457200D01*
X243518700Y-153116500D02*
X243518700Y-152120600D01*
X198774200Y-152944400D02*
X198727000Y-152944400D01*
X199172700Y-153342900D02*
X198774200Y-152944400D01*
X244157100Y-151760500D02*
X244157100Y-151256300D01*
X219778400Y-155368600D02*
X201151200Y-155368600D01*
X241179000Y-153312600D02*
X239123000Y-155368600D01*
X201151200Y-155368600D02*
X199172700Y-153390100D01*
X243960400Y-151957200D02*
X244157100Y-151760500D01*
X242271600Y-146767600D02*
X242623300Y-146415900D01*
X243518700Y-152120600D02*
X243682100Y-151957200D01*
X239123000Y-155368600D02*
X221019700Y-155368600D01*
X243682100Y-151957200D02*
X243960400Y-151957200D01*
X242623300Y-146415900D02*
X242911300Y-146415900D01*
X242271600Y-149370800D02*
X242271600Y-146767600D01*
X199172700Y-153390100D02*
X199172700Y-153342900D01*
X198727000Y-152944400D02*
X193659700Y-147877100D01*
%TO.N,VDD_1V8*%
D11*
X155619100Y-140487200D02*
X151585000Y-144521300D01*
X300903000Y-152166100D02*
X300842800Y-152105900D01*
X120006800Y-148721000D02*
X120006800Y-146493200D01*
X118279000Y-148721000D02*
X120006800Y-148721000D01*
X120006800Y-146493200D02*
X120250000Y-146250000D01*
X299750000Y-150703000D02*
X300250000Y-150703000D01*
X209726600Y-143484500D02*
X210162500Y-143048600D01*
X299750000Y-152105900D02*
X298410000Y-153445900D01*
X117790100Y-152155200D02*
X119134900Y-153500000D01*
X117510100Y-151875200D02*
X117510100Y-151709300D01*
X292390400Y-143817100D02*
X294875000Y-146301700D01*
X116792300Y-149395500D02*
X116895500Y-149395500D01*
X116895500Y-149395500D02*
X117250000Y-149750000D01*
X210162500Y-140487200D02*
X155619100Y-140487200D01*
X119111200Y-144521300D02*
X117324700Y-144521300D01*
X115863900Y-149601900D02*
X116070300Y-149395500D01*
X116445300Y-153500000D02*
X115822600Y-152877300D01*
X117510100Y-151709300D02*
X118056300Y-151163100D01*
X299750000Y-149750000D02*
X299750000Y-146301700D01*
X209268100Y-145733100D02*
X209726600Y-145274600D01*
X120250000Y-148964200D02*
X120006800Y-148721000D01*
X300250000Y-146250000D02*
X300250000Y-145296200D01*
X300250000Y-146250000D02*
X302750000Y-146250000D01*
X115822600Y-152877300D02*
X113921700Y-152877300D01*
X211510700Y-139139000D02*
X265063700Y-139139000D01*
X117324700Y-144521300D02*
X116792300Y-145053700D01*
X299750000Y-146250000D02*
X300250000Y-146250000D01*
X209268100Y-152018100D02*
X209268100Y-145733100D01*
X116792300Y-145053700D02*
X116792300Y-149395500D01*
X299750000Y-149750000D02*
X299750000Y-150703000D01*
X209726600Y-145274600D02*
X209726600Y-143484500D01*
X117790100Y-152155200D02*
X116445300Y-153500000D01*
X210162500Y-140487200D02*
X211510700Y-139139000D01*
X115863900Y-150063100D02*
X115863900Y-149601900D01*
X120250000Y-149750000D02*
X120250000Y-148964200D01*
X117790100Y-152155200D02*
X117510100Y-151875200D01*
X116070300Y-149395500D02*
X116792300Y-149395500D01*
X265063700Y-139139000D02*
X269741800Y-143817100D01*
X117510100Y-151709300D02*
X115863900Y-150063100D01*
X294875000Y-146301700D02*
X299750000Y-146301700D01*
X210162500Y-140487200D02*
X210162500Y-143048600D01*
X299750000Y-146301700D02*
X299750000Y-146250000D01*
X269741800Y-143817100D02*
X292390400Y-143817100D01*
X300842800Y-152105900D02*
X299750000Y-152105900D01*
X151585000Y-144521300D02*
X119111200Y-144521300D01*
X299750000Y-150703000D02*
X299750000Y-152105900D01*
X210156900Y-152906900D02*
X209268100Y-152018100D01*
%TO.N,FSR_C1*%
D12*
X255588500Y-155516200D02*
X254391100Y-155516200D01*
X254374100Y-155533200D02*
X250635900Y-155533200D01*
X244194800Y-156136800D02*
X243517500Y-155459500D01*
X241666500Y-146517100D02*
X245743700Y-142439900D01*
X260215900Y-152831200D02*
X256270900Y-152831200D01*
X250635900Y-155533200D02*
X250032300Y-156136800D01*
X256270900Y-152831200D02*
X255692300Y-153409800D01*
X246635000Y-142439900D02*
X247835300Y-141239600D01*
X243517500Y-155459500D02*
X241666500Y-153608500D01*
X260322100Y-152725000D02*
X260215900Y-152831200D01*
X255574000Y-153814600D02*
X255574000Y-154127100D01*
X245743700Y-142439900D02*
X246635000Y-142439900D01*
X256029300Y-154582400D02*
X256029300Y-155075400D01*
X250032300Y-156136800D02*
X244194800Y-156136800D01*
X254391100Y-155516200D02*
X254374100Y-155533200D01*
X255692300Y-153409800D02*
X255692300Y-153696300D01*
X255692300Y-153696300D02*
X255574000Y-153814600D01*
X255574000Y-154127100D02*
X256029300Y-154582400D01*
X256029300Y-155075400D02*
X255588500Y-155516200D01*
X241666500Y-153608500D02*
X241666500Y-146517100D01*
%TO.N,VREF*%
X243839100Y-151629900D02*
X243818600Y-151650400D01*
X243132300Y-154395000D02*
X243132300Y-152214600D01*
X243132300Y-152214600D02*
X243696500Y-151650400D01*
X242069900Y-146684100D02*
X242804000Y-145950000D01*
X243696500Y-151650400D02*
X242069900Y-150023800D01*
X242804000Y-145950000D02*
X243692900Y-145950000D01*
X243818600Y-151650400D02*
X243696500Y-151650400D01*
X242069900Y-150023800D02*
X242069900Y-146684100D01*
%TO.N,ADC4*%
X201494900Y-144440600D02*
X201434400Y-144440600D01*
X202471700Y-154360100D02*
X220195900Y-154360100D01*
X197901600Y-149790000D02*
X202471700Y-154360100D01*
X220602200Y-154360100D02*
X235382400Y-154360100D01*
X201434400Y-144440600D02*
X197901600Y-147973400D01*
X220195900Y-154360100D02*
X220284500Y-154448700D01*
X235382400Y-154360100D02*
X239900300Y-149842200D01*
X220513600Y-154448700D02*
X220602200Y-154360100D01*
X197901600Y-147973400D02*
X197901600Y-149790000D01*
X220284500Y-154448700D02*
X220513600Y-154448700D01*
%TO.N,FSR_R4*%
X261100000Y-141053500D02*
X260262900Y-141890600D01*
X246008100Y-149907100D02*
X246050500Y-149907100D01*
X247580700Y-146909200D02*
X247580700Y-148199200D01*
X246050500Y-149907100D02*
X247580700Y-148376900D01*
X253740700Y-140749200D02*
X247580700Y-146909200D01*
X247580700Y-148376900D02*
X247580700Y-148199200D01*
X259498800Y-141890600D02*
X258357400Y-140749200D01*
X258357400Y-140749200D02*
X253740700Y-140749200D01*
X260262900Y-141890600D02*
X259498800Y-141890600D01*
%TO.N,FSR_R5*%
X259582300Y-141688900D02*
X260064900Y-141688900D01*
X244560500Y-152204400D02*
X244066600Y-152698300D01*
X253637000Y-140547500D02*
X258440900Y-140547500D01*
X247292500Y-147154300D02*
X244560500Y-149886300D01*
X244560500Y-149886300D02*
X244560500Y-152204400D01*
X260064900Y-141688900D02*
X260140000Y-141613800D01*
X247292500Y-147154300D02*
X247292500Y-146892000D01*
X258440900Y-140547500D02*
X259582300Y-141688900D01*
X247292500Y-146892000D02*
X253637000Y-140547500D01*
%TO.N,ADC5*%
X248994200Y-150548500D02*
X245946000Y-153596700D01*
X196195200Y-144856500D02*
X196361800Y-145023100D01*
X250984600Y-148183000D02*
X250984600Y-147376100D01*
X195000000Y-144405600D02*
X195274400Y-144131200D01*
X196195200Y-144412100D02*
X196195200Y-144856500D01*
X197692700Y-147871800D02*
X197692700Y-149987400D01*
X248994200Y-150173400D02*
X250984600Y-148183000D01*
X199165800Y-146066600D02*
X199165800Y-146398700D01*
X195274400Y-144131200D02*
X195914300Y-144131200D01*
X235793000Y-154561800D02*
X239900300Y-150454500D01*
X220597100Y-154650400D02*
X220685700Y-154561800D01*
X198122300Y-145023100D02*
X199165800Y-146066600D01*
X220201000Y-154650400D02*
X220597100Y-154650400D01*
X220112400Y-154561800D02*
X220201000Y-154650400D01*
X248994200Y-150173400D02*
X248994200Y-150548500D01*
X199165800Y-146398700D02*
X197692700Y-147871800D01*
X202267100Y-154561800D02*
X220112400Y-154561800D01*
X197692700Y-149987400D02*
X202267100Y-154561800D01*
X195914300Y-144131200D02*
X196195200Y-144412100D01*
X196361800Y-145023100D02*
X198122300Y-145023100D01*
X220685700Y-154561800D02*
X235793000Y-154561800D01*
%TO.N,RADAR_EN*%
X198399200Y-155211400D02*
X194455300Y-151267500D01*
X269830200Y-143290100D02*
X266455000Y-139914900D01*
X298830300Y-143290100D02*
X269830200Y-143290100D01*
X221414800Y-153156200D02*
X235710500Y-153156200D01*
X194455300Y-151267500D02*
X193480100Y-151267500D01*
X193480100Y-151267500D02*
X193174200Y-151573400D01*
X220399000Y-154172000D02*
X221414800Y-153156200D01*
X239826800Y-149039900D02*
X239826800Y-147339800D01*
X246943900Y-140222700D02*
X250125100Y-140222700D01*
X239826800Y-147339800D02*
X246943900Y-140222700D01*
X235710500Y-153156200D02*
X239826800Y-149039900D01*
X300400900Y-144860700D02*
X298830300Y-143290100D01*
%TO.N,X24L_2*%
X122048200Y-142445000D02*
X123021100Y-141472100D01*
X115484000Y-150180500D02*
X116320000Y-151016500D01*
X116320000Y-151016500D02*
X116320000Y-151134600D01*
X115484000Y-142445000D02*
X115484000Y-150180500D01*
X114913700Y-142445000D02*
X115484000Y-142445000D01*
X115484000Y-142445000D02*
X122048200Y-142445000D01*
%TO.N,CS_RADAR_L*%
X190269100Y-149524500D02*
X190337600Y-149593000D01*
X170415600Y-145693600D02*
X174554900Y-149832900D01*
X118132200Y-146250000D02*
X118688600Y-145693600D01*
X189630600Y-149832900D02*
X189939000Y-149524500D01*
X189939000Y-149524500D02*
X190269100Y-149524500D01*
X118688600Y-145693600D02*
X170415600Y-145693600D01*
X174554900Y-149832900D02*
X189630600Y-149832900D01*
%TO.N,X24L_1*%
X115241300Y-143181400D02*
X115241300Y-150329100D01*
X114594200Y-142342100D02*
X114594200Y-142534300D01*
X115379800Y-141556500D02*
X114594200Y-142342100D01*
X115941300Y-141556500D02*
X115379800Y-141556500D01*
X114594200Y-142534300D02*
X115241300Y-143181400D01*
%TO.N,SPI_SCK*%
X168091200Y-149219300D02*
X165221200Y-146349300D01*
X194728400Y-150864100D02*
X192627900Y-150864100D01*
X219360900Y-156377100D02*
X200241400Y-156377100D01*
X254978100Y-156746400D02*
X254923100Y-156801400D01*
X268278600Y-154301800D02*
X267375800Y-154301800D01*
X168091200Y-149454200D02*
X168091200Y-149219300D01*
X267375800Y-154301800D02*
X264931200Y-156746400D01*
X293294200Y-153413800D02*
X269166600Y-153413800D01*
X165221200Y-146349300D02*
X121604100Y-146349300D01*
X167345200Y-151134100D02*
X167058200Y-151421100D01*
X241186800Y-157156900D02*
X241186800Y-156781200D01*
X304078300Y-150772100D02*
X300118200Y-154732200D01*
X166474900Y-151258900D02*
X166474900Y-151011900D01*
X304078300Y-150238900D02*
X304078300Y-150772100D01*
X240782700Y-156377100D02*
X221437200Y-156377100D01*
X241186800Y-156781200D02*
X240782700Y-156377100D01*
X166637100Y-151421100D02*
X166474900Y-151258900D01*
X221348600Y-156465700D02*
X219449500Y-156465700D01*
X166474900Y-151011900D02*
X167838700Y-149648100D01*
X200241400Y-156377100D02*
X194728400Y-150864100D01*
X241175400Y-157168300D02*
X241186800Y-157156900D01*
X192627900Y-150864100D02*
X191903900Y-151588100D01*
X191903900Y-151588100D02*
X191700300Y-151588100D01*
X167058200Y-151421100D02*
X166637100Y-151421100D01*
X167345200Y-151134100D02*
X167939700Y-150539600D01*
X294612600Y-154732200D02*
X293294200Y-153413800D01*
X300118200Y-154732200D02*
X294612600Y-154732200D01*
X167838700Y-149648100D02*
X167897300Y-149648100D01*
X167939700Y-150539600D02*
X190710400Y-150539600D01*
X167897300Y-149648100D02*
X168091200Y-149454200D01*
X219449500Y-156465700D02*
X219360900Y-156377100D01*
X221437200Y-156377100D02*
X221348600Y-156465700D01*
X269166600Y-153413800D02*
X268278600Y-154301800D01*
X264931200Y-156746400D02*
X254978100Y-156746400D01*
%TO.N,SPI_MISO*%
X273013100Y-153895600D02*
X269597600Y-153895600D01*
X240593100Y-156578800D02*
X240910100Y-156895800D01*
X194644900Y-151065800D02*
X200157900Y-156578800D01*
X117973200Y-147424600D02*
X119499800Y-145898000D01*
X120571200Y-145898000D02*
X126184800Y-151511600D01*
X303599900Y-150607000D02*
X299895400Y-154311500D01*
X299895400Y-154311500D02*
X295006300Y-154311500D01*
X166510400Y-154561300D02*
X169051100Y-152020600D01*
X200157900Y-156578800D02*
X219277400Y-156578800D01*
X158817500Y-154561300D02*
X166510400Y-154561300D01*
X265916500Y-157576700D02*
X252903300Y-157576700D01*
X293630100Y-152935300D02*
X273579400Y-152935300D01*
X221520700Y-156578800D02*
X240593100Y-156578800D01*
X269597600Y-153895600D02*
X265916500Y-157576700D01*
X221432100Y-156667400D02*
X221520700Y-156578800D01*
X193290700Y-151065800D02*
X194644900Y-151065800D01*
X192338300Y-151941000D02*
X192415500Y-151941000D01*
X252903300Y-157576700D02*
X252550300Y-157223700D01*
X155767800Y-151511600D02*
X158817500Y-154561300D01*
X295006300Y-154311500D02*
X293630100Y-152935300D01*
X303683400Y-149628900D02*
X303599900Y-149712400D01*
X219277400Y-156578800D02*
X219366000Y-156667400D01*
X303599900Y-149712400D02*
X303599900Y-150607000D01*
X119499800Y-145898000D02*
X120571200Y-145898000D01*
X219366000Y-156667400D02*
X221432100Y-156667400D01*
X192415500Y-151941000D02*
X193290700Y-151065800D01*
X126184800Y-151511600D02*
X155767800Y-151511600D01*
%TO.N,SPI_MOSI*%
X254725100Y-156323000D02*
X254708100Y-156340000D01*
X190586300Y-151613800D02*
X190363100Y-151837000D01*
X240866200Y-156175400D02*
X221353700Y-156175400D01*
X190880100Y-152017200D02*
X190753400Y-152017200D01*
X190648600Y-151613800D02*
X190586300Y-151613800D01*
X169058700Y-151636800D02*
X166567600Y-151636800D01*
X166273100Y-149371300D02*
X167750000Y-149371300D01*
X166273100Y-151342300D02*
X166273100Y-149371300D01*
X221265100Y-156264000D02*
X219533000Y-156264000D01*
X303963800Y-149962200D02*
X303801600Y-150124400D01*
X250676800Y-157145400D02*
X241836200Y-157145400D01*
X191585900Y-151311400D02*
X190880100Y-152017200D01*
X251482200Y-156340000D02*
X250676800Y-157145400D01*
X166567600Y-151636800D02*
X166273100Y-151342300D01*
X268516500Y-153615500D02*
X267204400Y-153615500D01*
X200324900Y-156175400D02*
X194811900Y-150662400D01*
X194811900Y-150662400D02*
X192444600Y-150662400D01*
X192444600Y-150662400D02*
X191795600Y-151311400D01*
X122921700Y-147848900D02*
X123621300Y-147149300D01*
X303801600Y-150690600D02*
X299977500Y-154514700D01*
X190753400Y-152017200D02*
X189129900Y-153640700D01*
X264496900Y-156323000D02*
X254725100Y-156323000D01*
X221353700Y-156175400D02*
X221265100Y-156264000D01*
X191471900Y-150790500D02*
X190648600Y-151613800D01*
X187561400Y-153455400D02*
X187561400Y-151837000D01*
X219533000Y-156264000D02*
X219444400Y-156175400D01*
X268919900Y-153212100D02*
X268516500Y-153615500D01*
X254708100Y-156340000D02*
X251482200Y-156340000D01*
X219444400Y-156175400D02*
X200324900Y-156175400D01*
X294680400Y-154514700D02*
X293377800Y-153212100D01*
X299977500Y-154514700D02*
X294680400Y-154514700D01*
X191795600Y-151311400D02*
X191585900Y-151311400D01*
X267204400Y-153615500D02*
X264496900Y-156323000D01*
X303963800Y-148463800D02*
X303963800Y-149962200D01*
X123621300Y-147149300D02*
X164051100Y-147149300D01*
X169258900Y-151837000D02*
X169058700Y-151636800D01*
X303683400Y-148183400D02*
X303963800Y-148463800D01*
X293377800Y-153212100D02*
X268919900Y-153212100D01*
X189129900Y-153640700D02*
X187746700Y-153640700D01*
X190363100Y-151837000D02*
X187561400Y-151837000D01*
X303801600Y-150124400D02*
X303801600Y-150690600D01*
X164051100Y-147149300D02*
X166273100Y-149371300D01*
X241836200Y-157145400D02*
X240866200Y-156175400D01*
X187746700Y-153640700D02*
X187561400Y-153455400D01*
X187561400Y-151837000D02*
X169258900Y-151837000D01*
%TO.N,RADAR_IRQ_L*%
X192333000Y-151578000D02*
X192260400Y-151578000D01*
X123974200Y-151813300D02*
X120446200Y-148285300D01*
X189068200Y-154770200D02*
X158658500Y-154770200D01*
X192333000Y-151577900D02*
X192333000Y-151578000D01*
X158658500Y-154770200D02*
X155701600Y-151813300D01*
X192260400Y-151578000D02*
X189068200Y-154770200D01*
X155701600Y-151813300D02*
X123974200Y-151813300D01*
%TO.N,SW2*%
D11*
X209726600Y-148849600D02*
X209726600Y-147125400D01*
X211270000Y-150393000D02*
X209726600Y-148849600D01*
X211210400Y-153725000D02*
X211210400Y-150806000D01*
X211210400Y-150806000D02*
X211270000Y-150746400D01*
X211270000Y-150746400D02*
X211270000Y-150393000D01*
X211250100Y-153764700D02*
X211210400Y-153725000D01*
%TO.N,FSR_R1*%
D12*
X239523300Y-147466700D02*
X239523300Y-148946700D01*
X239523300Y-146983400D02*
X246276200Y-140230500D01*
X239523300Y-147466700D02*
X239523300Y-146983400D01*
X239523300Y-148946700D02*
X236170000Y-152300000D01*
%TO.N,ADC1*%
X190418100Y-147525300D02*
X190418100Y-147525400D01*
X219945400Y-154965200D02*
X220034000Y-155053800D01*
X220764100Y-155053800D02*
X220852700Y-154965200D01*
X240177100Y-148907700D02*
X240118600Y-148849200D01*
X240118600Y-148849200D02*
X240118600Y-148612100D01*
X240728200Y-150951700D02*
X240728200Y-148638600D01*
X190418100Y-147525400D02*
X194356200Y-147525400D01*
X240118600Y-148612100D02*
X240410200Y-148320500D01*
X240728200Y-148638600D02*
X240410200Y-148320500D01*
X220852700Y-154965200D02*
X236714700Y-154965200D01*
X240410200Y-148320500D02*
X240451800Y-148278900D01*
X220034000Y-155053800D02*
X220764100Y-155053800D01*
X240177100Y-150715400D02*
X240177100Y-148907700D01*
X194356200Y-147525400D02*
X201796000Y-154965200D01*
X201796000Y-154965200D02*
X219945400Y-154965200D01*
X236714700Y-154965200D02*
X240728200Y-150951700D01*
X240451800Y-148278900D02*
X240451800Y-147176600D01*
X237510600Y-153381900D02*
X240177100Y-150715400D01*
%TO.N,FSR_C15*%
X267196400Y-153085000D02*
X267089400Y-153085000D01*
X259303300Y-142092300D02*
X258422900Y-141211900D01*
X267760400Y-149421400D02*
X260431300Y-142092300D01*
X267033900Y-152375200D02*
X267760400Y-151648700D01*
X267760400Y-151648700D02*
X267760400Y-149421400D01*
X267089400Y-152985100D02*
X267033900Y-152929600D01*
X256431300Y-153347200D02*
X256518200Y-153434100D01*
X266815400Y-153434100D02*
X267089400Y-153160100D01*
X260431300Y-142092300D02*
X259303300Y-142092300D01*
X267033900Y-152929600D02*
X267033900Y-152375200D01*
X267089400Y-153160100D02*
X267089400Y-153085000D01*
X267089400Y-153085000D02*
X267089400Y-152985100D01*
X256518200Y-153434100D02*
X266815400Y-153434100D01*
%TO.N,IMU_INT1*%
X203100000Y-144709800D02*
X203100000Y-143510300D01*
X198406000Y-149499700D02*
X198406000Y-149403800D01*
X203100000Y-143510300D02*
X202768000Y-143178300D01*
X198406000Y-149403800D02*
X203100000Y-144709800D01*
%TO.N,I2C_SCL*%
X204261700Y-141552800D02*
X204261700Y-147553500D01*
X206320000Y-149611800D02*
X208374900Y-149611800D01*
X205431200Y-148722900D02*
X203655400Y-150498700D01*
X204261700Y-141552800D02*
X199921900Y-141552800D01*
X204261700Y-147553500D02*
X205431200Y-148722900D01*
X205431200Y-148722900D02*
X206320000Y-149611800D01*
X191193800Y-150537100D02*
X190818300Y-150912600D01*
X199921900Y-141552800D02*
X199487700Y-141987000D01*
X172222800Y-150912600D02*
X172113000Y-151022400D01*
X190818300Y-150912600D02*
X172222800Y-150912600D01*
%TO.N,I2C_SDA*%
X206079800Y-153326500D02*
X203377100Y-150623800D01*
X210241200Y-153326500D02*
X206079800Y-153326500D01*
X169421000Y-151299200D02*
X187352400Y-151299200D01*
X203780500Y-143153000D02*
X203046300Y-142418800D01*
X203377100Y-150623800D02*
X201373300Y-150623800D01*
X203377100Y-147827300D02*
X203780500Y-147423900D01*
X203377100Y-150623800D02*
X203377100Y-147827300D01*
X210843300Y-152724400D02*
X210241200Y-153326500D01*
X210843300Y-150569700D02*
X210843300Y-152724400D01*
X187395700Y-151255900D02*
X190600400Y-151255900D01*
X203046300Y-142418800D02*
X197908800Y-142418800D01*
X187352400Y-151299200D02*
X187395700Y-151255900D01*
X169250000Y-151128200D02*
X169421000Y-151299200D01*
X201373300Y-150623800D02*
X200457400Y-151539700D01*
X203780500Y-147423900D02*
X203780500Y-143153000D01*
%TO.N,X24R_2*%
X302250000Y-145392100D02*
X302250000Y-141450000D01*
%TO.N,VDD_CAM*%
X212209300Y-143828800D02*
X212209300Y-149395000D01*
X212209300Y-149395000D02*
X211542600Y-150061700D01*
X166751600Y-151144400D02*
X167749500Y-150146500D01*
X167749500Y-150146500D02*
X190416500Y-150146500D01*
%TO.N,FSR_C2*%
X249948800Y-155935100D02*
X245094600Y-155935100D01*
X255819700Y-154967700D02*
X255472900Y-155314500D01*
X244827700Y-155668200D02*
X244117500Y-155668200D01*
X241868200Y-146600600D02*
X245827200Y-142641600D01*
X244117500Y-155668200D02*
X243632100Y-155182800D01*
X254307600Y-155314500D02*
X254290600Y-155331500D01*
X255490600Y-153326300D02*
X255490600Y-153612800D01*
X259909300Y-152629500D02*
X256187400Y-152629500D01*
X255490600Y-153612800D02*
X255372300Y-153731100D01*
X241868200Y-153522400D02*
X241868200Y-146600600D01*
X245094600Y-155935100D02*
X244827700Y-155668200D01*
X256187400Y-152629500D02*
X255490600Y-153326300D01*
X255372300Y-153731100D02*
X255372300Y-154338200D01*
X245827200Y-142641600D02*
X248384400Y-142641600D01*
X248384400Y-142641600D02*
X249544700Y-141481300D01*
X255819700Y-154785600D02*
X255819700Y-154967700D01*
X254290600Y-155331500D02*
X250552400Y-155331500D01*
X243632100Y-155182800D02*
X243528600Y-155182800D01*
X255372300Y-154338200D02*
X255819700Y-154785600D01*
X255472900Y-155314500D02*
X254307600Y-155314500D01*
X250552400Y-155331500D02*
X249948800Y-155935100D01*
X260317000Y-152221800D02*
X259909300Y-152629500D01*
X243528600Y-155182800D02*
X241868200Y-153522400D01*
%TO.N,CS_RADAR_R*%
X294548500Y-154994500D02*
X293169500Y-153615500D01*
X304450900Y-149938600D02*
X304450900Y-150746200D01*
X304451000Y-149938600D02*
X304450900Y-149938600D01*
X219199000Y-157070800D02*
X221599100Y-157070800D01*
X240234900Y-157003300D02*
X240588200Y-157356600D01*
X194643000Y-152147300D02*
X199499000Y-157003300D01*
X219131500Y-157003300D02*
X219199000Y-157070800D01*
X221599100Y-157070800D02*
X221666600Y-157003300D01*
X300202600Y-154994500D02*
X294548500Y-154994500D01*
X199499000Y-157003300D02*
X219131500Y-157003300D01*
X265908200Y-157299800D02*
X258629100Y-157299800D01*
X304450900Y-150746200D02*
X300202600Y-154994500D01*
X221666600Y-157003300D02*
X240234900Y-157003300D01*
X269592500Y-153615500D02*
X265908200Y-157299800D01*
X293169500Y-153615500D02*
X269592500Y-153615500D01*
%TO.N,X24R_1*%
X303113000Y-145818500D02*
X302235600Y-145818500D01*
X300006500Y-143589400D02*
X300006500Y-142125800D01*
X296981600Y-142437600D02*
X297293400Y-142125800D01*
X302235600Y-145818500D02*
X300006500Y-143589400D01*
X297293400Y-142125800D02*
X300006500Y-142125800D01*
%TO.N,FSR_R0*%
X259780200Y-141337100D02*
X259705200Y-141412100D01*
X260642100Y-141172600D02*
X260477600Y-141337100D01*
X259648200Y-139942400D02*
X260642100Y-140936300D01*
X238102500Y-149637400D02*
X238102500Y-146587500D01*
X244747600Y-139942400D02*
X259648200Y-139942400D01*
X260642100Y-140936300D02*
X260642100Y-141172600D01*
X260477600Y-141337100D02*
X259780200Y-141337100D01*
X238569300Y-146120700D02*
X244747600Y-139942400D01*
X238102500Y-146587500D02*
X238569300Y-146120700D01*
%TO.N,ADC0*%
X236589000Y-154763500D02*
X240400200Y-150952300D01*
X240400200Y-150952300D02*
X240400200Y-148739600D01*
X190421100Y-147173500D02*
X194289500Y-147173500D01*
X194289500Y-147173500D02*
X201879500Y-154763500D01*
X220117500Y-154852100D02*
X220680600Y-154852100D01*
X201879500Y-154763500D02*
X220028900Y-154763500D01*
X220680600Y-154852100D02*
X220769200Y-154763500D01*
X220769200Y-154763500D02*
X236589000Y-154763500D01*
X220028900Y-154763500D02*
X220117500Y-154852100D01*
%TO.N,SWDCLK*%
X174802500Y-149556200D02*
X174812500Y-149556200D01*
X167537400Y-142291100D02*
X174802500Y-149556200D01*
%TO.N,SWDIO*%
X203039000Y-142696800D02*
X203578800Y-143236600D01*
X182114100Y-141435800D02*
X196386000Y-141435800D01*
X203578800Y-143236600D02*
X203578800Y-147185300D01*
X203578800Y-147185300D02*
X199997400Y-150766700D01*
X196386000Y-141435800D02*
X197647000Y-142696800D01*
X197647000Y-142696800D02*
X203039000Y-142696800D01*
X181051900Y-142498000D02*
X182114100Y-141435800D01*
%TO.N,IR_LED_EN*%
X183838100Y-143475600D02*
X183539300Y-143774400D01*
X195543900Y-143475600D02*
X183838100Y-143475600D01*
X196528500Y-144745400D02*
X196528500Y-144460200D01*
X196528500Y-144460200D02*
X195543900Y-143475600D01*
%TO.N,IR_LED_K*%
X182066800Y-148179900D02*
X182651700Y-148764800D01*
X182066800Y-144956600D02*
X182066800Y-148179900D01*
X182651700Y-148764800D02*
X182812600Y-148764800D01*
%TO.N,XTAL32K_2*%
X190795700Y-144569500D02*
X189044400Y-146320800D01*
X190941600Y-144569500D02*
X190795700Y-144569500D01*
%TO.N,MUX_S0*%
X219611400Y-155772000D02*
X200984200Y-155772000D01*
X198769300Y-153557100D02*
X198769300Y-153509900D01*
X190183800Y-148457300D02*
X189490000Y-147763500D01*
X198769300Y-153509900D02*
X198607200Y-153347800D01*
X221098100Y-155860600D02*
X219700000Y-155860600D01*
X254541100Y-155936600D02*
X251315200Y-155936600D01*
X221186700Y-155772000D02*
X221098100Y-155860600D01*
X193669500Y-148457300D02*
X190183800Y-148457300D01*
X241033200Y-155772000D02*
X221186700Y-155772000D01*
X219700000Y-155860600D02*
X219611400Y-155772000D01*
X251315200Y-155936600D02*
X250509800Y-156742000D01*
X198560000Y-153347800D02*
X193669500Y-148457300D01*
X198607200Y-153347800D02*
X198560000Y-153347800D01*
X250509800Y-156742000D02*
X242003200Y-156742000D01*
X260319400Y-154122600D02*
X258522400Y-155919600D01*
X200984200Y-155772000D02*
X198769300Y-153557100D01*
X258522400Y-155919600D02*
X254558100Y-155919600D01*
X189490000Y-147763500D02*
X189490000Y-147383000D01*
X254558100Y-155919600D02*
X254541100Y-155936600D01*
X242003200Y-156742000D02*
X241033200Y-155772000D01*
%TO.N,MUX_S1*%
X250320100Y-156540300D02*
X242086700Y-156540300D01*
X189804700Y-147712500D02*
X189804700Y-147056200D01*
X221103200Y-155570300D02*
X221014600Y-155658900D01*
X201067700Y-155570300D02*
X198971000Y-153473600D01*
X219694900Y-155570300D02*
X201067700Y-155570300D01*
X241116700Y-155570300D02*
X221103200Y-155570300D01*
X221014600Y-155658900D02*
X219783500Y-155658900D01*
X198690700Y-153146100D02*
X198643500Y-153146100D01*
X242086700Y-156540300D02*
X241116700Y-155570300D01*
X198643500Y-153146100D02*
X193753000Y-148255600D01*
X219783500Y-155658900D02*
X219694900Y-155570300D01*
X250838900Y-156021500D02*
X250320100Y-156540300D01*
X198971000Y-153426400D02*
X198690700Y-153146100D01*
X193753000Y-148255600D02*
X190347800Y-148255600D01*
X198971000Y-153473600D02*
X198971000Y-153426400D01*
X190347800Y-148255600D02*
X189804700Y-147712500D01*
%TO.N,ADC3*%
X236881000Y-155166900D02*
X240929900Y-151118000D01*
X189921200Y-148600000D02*
X189980200Y-148659000D01*
X189980200Y-148659000D02*
X193527100Y-148659000D01*
X219950500Y-155255500D02*
X220847600Y-155255500D01*
X220936200Y-155166900D02*
X236881000Y-155166900D01*
X199830700Y-153655500D02*
X201342100Y-155166900D01*
X220847600Y-155255500D02*
X220936200Y-155166900D01*
X240929900Y-151118000D02*
X240929900Y-148292800D01*
X219861900Y-155166900D02*
X219950500Y-155255500D01*
X240929900Y-148292800D02*
X240927000Y-148289900D01*
X193527100Y-148659000D02*
X198492600Y-153624500D01*
X201342100Y-155166900D02*
X219861900Y-155166900D01*
%TO.N,MUX_S2*%
X254641600Y-156121300D02*
X254624600Y-156138300D01*
X250593300Y-156943700D02*
X241919700Y-156943700D01*
X219527900Y-155973700D02*
X200450300Y-155973700D01*
X241919700Y-156943700D02*
X240949700Y-155973700D01*
X221181600Y-156062300D02*
X219616500Y-156062300D01*
X193412300Y-148935700D02*
X190363100Y-148935700D01*
X254624600Y-156138300D02*
X251398700Y-156138300D01*
X200450300Y-155973700D02*
X193412300Y-148935700D01*
X221270200Y-155973700D02*
X221181600Y-156062300D01*
X265747300Y-154675000D02*
X264301000Y-156121300D01*
X219616500Y-156062300D02*
X219527900Y-155973700D01*
X240949700Y-155973700D02*
X221270200Y-155973700D01*
X251398700Y-156138300D02*
X250593300Y-156943700D01*
X264301000Y-156121300D02*
X254641600Y-156121300D01*
%TO.N,CS_CAM*%
X168838900Y-151131800D02*
X169261700Y-151554600D01*
X168811000Y-151131700D02*
X168811000Y-151131800D01*
X168811000Y-151131800D02*
X168838900Y-151131800D01*
X169261700Y-151554600D02*
X190227600Y-151554600D01*
%TO.N,MUX_S3*%
X255037700Y-157078100D02*
X254808600Y-157078100D01*
X265455600Y-156948100D02*
X255167700Y-156948100D01*
X267345700Y-155058000D02*
X265455600Y-156948100D01*
X254677100Y-156946600D02*
X251837200Y-156946600D01*
X254808600Y-157078100D02*
X254677100Y-156946600D01*
X255167700Y-156948100D02*
X255037700Y-157078100D01*
X251137100Y-157646700D02*
X199745700Y-157646700D01*
X251837200Y-156946600D02*
X251137100Y-157646700D01*
X199745700Y-157646700D02*
X193677900Y-151578900D01*
%TO.N,MUX_EN_N*%
X240403400Y-156780500D02*
X221604200Y-156780500D01*
X219282500Y-156869100D02*
X219193900Y-156780500D01*
X264734700Y-156524700D02*
X254808600Y-156524700D01*
X267322900Y-153936500D02*
X264734700Y-156524700D01*
X221604200Y-156780500D02*
X221515600Y-156869100D01*
X254791600Y-156541700D02*
X251565700Y-156541700D01*
X254808600Y-156524700D02*
X254791600Y-156541700D01*
X250662400Y-157445000D02*
X241059900Y-157445000D01*
X240864900Y-157250000D02*
X240864900Y-157242000D01*
X194919700Y-152032700D02*
X194464100Y-151577100D01*
X194464100Y-151577100D02*
X194250000Y-151577100D01*
X194919700Y-152123100D02*
X194919700Y-152032700D01*
X219193900Y-156780500D02*
X199577100Y-156780500D01*
X240864900Y-157242000D02*
X240403400Y-156780500D01*
X221515600Y-156869100D02*
X219282500Y-156869100D01*
X199577100Y-156780500D02*
X194919700Y-152123100D01*
X251565700Y-156541700D02*
X250662400Y-157445000D01*
X241059900Y-157445000D02*
X240864900Y-157250000D01*
%TO.N,NRESET*%
X198129200Y-149624100D02*
X202651300Y-154146200D01*
X225519300Y-148660500D02*
X225583600Y-148660500D01*
X202651300Y-154146200D02*
X220033600Y-154146200D01*
X198188800Y-148744500D02*
X198129200Y-148804100D01*
X220033600Y-154146200D02*
X225519300Y-148660500D01*
X198129200Y-148804100D02*
X198129200Y-149624100D01*
%TO.N,ANT_FEED*%
X160520000Y-152538500D02*
X160520000Y-149420600D01*
X160520000Y-149420600D02*
X162499600Y-147441000D01*
%TO.N,DECRF*%
X196601300Y-142493700D02*
X197562600Y-143455000D01*
X199209200Y-147660700D02*
X198607100Y-147660700D01*
X202710700Y-143455000D02*
X202898300Y-143642600D01*
X197562600Y-143455000D02*
X202710700Y-143455000D01*
X202898300Y-143971600D02*
X199209200Y-147660700D01*
X202898300Y-143642600D02*
X202898300Y-143971600D01*
%TO.N,XTAL32M_1*%
X184632700Y-142465700D02*
X185460900Y-141637500D01*
X197425000Y-142901400D02*
X202886700Y-142901400D01*
X196161100Y-141637500D02*
X197425000Y-142901400D01*
X203327000Y-143341700D02*
X203327000Y-144875000D01*
X185460900Y-141637500D02*
X196161100Y-141637500D01*
X202886700Y-142901400D02*
X203327000Y-143341700D01*
X203327000Y-144875000D02*
X200764200Y-147437800D01*
%TO.N,XTAL32M_2*%
X187521300Y-141914300D02*
X195627300Y-141914300D01*
X195627300Y-141914300D02*
X199086900Y-145373900D01*
%TO.N,TOF_XSHUT*%
X189650600Y-146277800D02*
X191239000Y-144689400D01*
X191562800Y-144689400D02*
X191796300Y-144922900D01*
X182650400Y-148372300D02*
X187591900Y-148372300D01*
X191796300Y-144922900D02*
X195295400Y-144922900D01*
X187754000Y-148210200D02*
X187754000Y-148006300D01*
X187591900Y-148372300D02*
X187754000Y-148210200D01*
X195295400Y-144922900D02*
X195800000Y-144418300D01*
X191239000Y-144689400D02*
X191562800Y-144689400D01*
X189482500Y-146277800D02*
X189650600Y-146277800D01*
X182561100Y-148283000D02*
X182650400Y-148372300D01*
X187754000Y-148006300D02*
X189482500Y-146277800D01*
%TO.N,TOF_INT*%
X193470100Y-143677300D02*
X189553900Y-143677300D01*
X179494100Y-144056100D02*
X175299100Y-148251100D01*
X194200000Y-144407200D02*
X193470100Y-143677300D01*
X189175100Y-144056100D02*
X179494100Y-144056100D01*
X189553900Y-143677300D02*
X189175100Y-144056100D01*
%TO.N,DECA*%
X191446200Y-144287200D02*
X191846900Y-144687900D01*
X189945400Y-144287200D02*
X191446200Y-144287200D01*
X191846900Y-144687900D02*
X193526000Y-144687900D01*
X193526000Y-144687900D02*
X193800000Y-144413900D01*
X187980000Y-146252600D02*
X189945400Y-144287200D01*
%TO.N,DECD*%
X192423100Y-143879000D02*
X189637400Y-143879000D01*
X189637400Y-143879000D02*
X187396600Y-146119800D01*
X187396600Y-146119800D02*
X187396600Y-147207900D01*
X187396600Y-147207900D02*
X187496700Y-147308000D01*
X192955100Y-144411000D02*
X192423100Y-143879000D01*
%TO.N,DCC*%
X191502300Y-151109700D02*
X190796500Y-151815500D01*
X191561800Y-151109700D02*
X191502300Y-151109700D01*
X189894200Y-149212400D02*
X190389700Y-149212400D01*
X190669900Y-151815500D02*
X189135400Y-153350000D01*
X187477300Y-147902900D02*
X187773500Y-147606700D01*
X187773500Y-146578500D02*
X187635800Y-146440800D01*
X189720900Y-144080700D02*
X192123300Y-144080700D01*
X191775900Y-150598600D02*
X191775900Y-150895600D01*
X190389700Y-149212400D02*
X191775900Y-150598600D01*
X189135400Y-153350000D02*
X187878200Y-153350000D01*
X188777400Y-148095600D02*
X189894200Y-149212400D01*
X192123300Y-144080700D02*
X192452000Y-144409400D01*
X191775900Y-150895600D02*
X191561800Y-151109700D01*
X187635800Y-146440800D02*
X187635800Y-146165800D01*
X187773500Y-147606700D02*
X187773500Y-146578500D01*
X190796500Y-151815500D02*
X190669900Y-151815500D01*
X187477300Y-148095600D02*
X187477300Y-147902900D01*
X187635800Y-146165800D02*
X189720900Y-144080700D01*
%TO.N,VBUSOUT*%
X217679900Y-141659900D02*
X218096400Y-142076400D01*
X215624300Y-145730900D02*
X215624300Y-141849000D01*
X215813400Y-141659900D02*
X217679900Y-141659900D01*
X216053600Y-146160200D02*
X215624300Y-145730900D01*
X215624300Y-141849000D02*
X215813400Y-141659900D01*
%TO.N,FSR_C6*%
X260171900Y-149605100D02*
X254361500Y-149605100D01*
X254100000Y-153174700D02*
X253026800Y-154247900D01*
X254361500Y-149605100D02*
X254100000Y-149866600D01*
X253026800Y-154247900D02*
X252783100Y-154247900D01*
X254100000Y-149866600D02*
X254100000Y-153174700D01*
X254361500Y-149605100D02*
X254361500Y-141771500D01*
%TO.N,FSR_R3*%
X244382300Y-147050000D02*
X244027800Y-146695500D01*
X242473300Y-148109900D02*
X243773500Y-149410100D01*
X244027800Y-146695500D02*
X242628900Y-146695500D01*
X242473300Y-146851100D02*
X242473300Y-148109900D01*
X251288200Y-140144100D02*
X244382300Y-147050000D01*
X242628900Y-146695500D02*
X242473300Y-146851100D01*
X259452600Y-140144100D02*
X251288200Y-140144100D01*
X260358400Y-141049900D02*
X259452600Y-140144100D01*
%TO.N,SW1*%
D11*
X208595700Y-152956300D02*
X208816400Y-152735600D01*
X208816400Y-152735600D02*
X208816400Y-146200000D01*
%TO.N,NTC*%
D12*
X216795900Y-147683100D02*
X218564300Y-149451500D01*
X218564300Y-149451500D02*
X218564300Y-150846300D01*
%TO.N,VBAT*%
D11*
X217406600Y-152313300D02*
X217406700Y-152313300D01*
X216124400Y-147625400D02*
X217406600Y-148907600D01*
X217406600Y-148907600D02*
X217406600Y-152313300D01*
X216124400Y-147625400D02*
X214029700Y-145530700D01*
X214029700Y-145530700D02*
X214029700Y-142076400D01*
%TO.N,VQI*%
X216480300Y-142460300D02*
X216035900Y-142015900D01*
X216480300Y-146596900D02*
X216480300Y-142460300D01*
X216432000Y-146645200D02*
X216480300Y-146596900D01*
%TO.N,BLE_ANT*%
D13*
X160933900Y-153577700D02*
X160087000Y-153577700D01*
X163833700Y-150677900D02*
X160933900Y-153577700D01*
X159026700Y-152517400D02*
X159026700Y-150158800D01*
X159026700Y-150158800D02*
X157489400Y-148621500D01*
X160087000Y-153577700D02*
X159026700Y-152517400D01*
X157489400Y-148621500D02*
X153248300Y-148621500D01*
X163833700Y-148705400D02*
X163833700Y-150677900D01*
%TO.N,FSR_C4*%
D12*
X253561500Y-142178000D02*
X253589500Y-142206000D01*
X254683800Y-153176100D02*
X253133500Y-154726400D01*
X253589500Y-152421500D02*
X251675900Y-154335100D01*
X249919100Y-154726400D02*
X249349000Y-155296500D01*
X254683800Y-152992300D02*
X254683800Y-153176100D01*
X253589500Y-142206000D02*
X253589500Y-152421500D01*
X251675900Y-154335100D02*
X251675900Y-154726400D01*
X249349000Y-155296500D02*
X249349000Y-155456600D01*
X251675900Y-154726400D02*
X249919100Y-154726400D01*
X253133500Y-154726400D02*
X251675900Y-154726400D01*
X260171900Y-150775000D02*
X256901100Y-150775000D01*
X256901100Y-150775000D02*
X254683800Y-152992300D01*
%TO.N,QI_TS*%
X233599400Y-147500000D02*
X233601800Y-147500000D01*
X233601800Y-147500000D02*
X236350000Y-144751800D01*
X236350000Y-144751800D02*
X236350000Y-141519700D01*
%TO.N,FSR_C13*%
X257600000Y-141163700D02*
X257600000Y-141026900D01*
X266491200Y-152352900D02*
X266491200Y-152347500D01*
X266491200Y-152352900D02*
X265773600Y-153070500D01*
X267357000Y-151481700D02*
X267357000Y-149588400D01*
X266491200Y-152347500D02*
X267357000Y-151481700D01*
X256043300Y-153344000D02*
X256043300Y-153653300D01*
X260354000Y-142585400D02*
X259021700Y-142585400D01*
X256316800Y-153070500D02*
X256043300Y-153344000D01*
X259021700Y-142585400D02*
X257600000Y-141163700D01*
X265773600Y-153070500D02*
X256316800Y-153070500D01*
X256043300Y-153653300D02*
X256043200Y-153653300D01*
X267357000Y-149588400D02*
X260354000Y-142585400D01*
%TO.N,FSR_C14*%
X267311800Y-152733200D02*
X267530000Y-152951400D01*
X257964300Y-141211700D02*
X259046700Y-142294100D01*
X257964300Y-141037000D02*
X257964300Y-141211700D01*
X267530000Y-153218600D02*
X267386800Y-153361800D01*
X259046700Y-142294100D02*
X260347900Y-142294100D01*
X266761200Y-153773500D02*
X256335500Y-153773500D01*
X266785000Y-152338900D02*
X266785000Y-153073100D01*
X260347900Y-142294100D02*
X267558700Y-149504900D01*
X256335500Y-153773500D02*
X256141600Y-153967400D01*
X267558700Y-151565200D02*
X266785000Y-152338900D01*
X267172900Y-153361800D02*
X266761200Y-153773500D01*
X267386800Y-153361800D02*
X267172900Y-153361800D01*
X256141600Y-153967400D02*
X255854200Y-153967400D01*
X267530000Y-152951400D02*
X267530000Y-153218600D01*
X267558700Y-149504900D02*
X267558700Y-151565200D01*
%TO.N,QI_AC1*%
X228840200Y-143860300D02*
X228840200Y-142230800D01*
X228840200Y-142230800D02*
X228840200Y-142030800D01*
X228840200Y-142030800D02*
X227895500Y-141086100D01*
X229559600Y-145283300D02*
X229559600Y-149260400D01*
X232438800Y-142404100D02*
X229559600Y-145283300D01*
X228840200Y-142230800D02*
X230474200Y-142230800D01*
%TO.N,FSR_C9*%
X255348500Y-141025900D02*
X253751800Y-141025900D01*
X249630800Y-145146900D02*
X249630800Y-148860500D01*
X255348500Y-141025900D02*
X256608700Y-141025900D01*
X260067900Y-143261100D02*
X266413700Y-149606900D01*
X258606300Y-143261100D02*
X260067900Y-143261100D01*
X256608700Y-141025900D02*
X257503100Y-141920300D01*
X243837800Y-154653500D02*
X243837800Y-154981100D01*
X257503100Y-141920300D02*
X257503100Y-142157900D01*
X257503100Y-142157900D02*
X258606300Y-143261100D01*
X253751800Y-141025900D02*
X249630800Y-145146900D01*
X249630800Y-148860500D02*
X243837800Y-154653500D01*
%TO.N,QI_AC2*%
X233120900Y-147969100D02*
X233120900Y-146333800D01*
X232729600Y-144431400D02*
X233264300Y-143896700D01*
X233120900Y-146333800D02*
X232729600Y-145942500D01*
X231224700Y-149865300D02*
X233120900Y-147969100D01*
X232729600Y-145942500D02*
X232729600Y-144431400D01*
X230861800Y-149865300D02*
X231224700Y-149865300D01*
%TO.N,QI_ILIM*%
X232326200Y-144192100D02*
X232326200Y-147315100D01*
X232058100Y-141876600D02*
X232319300Y-141876600D01*
X232326200Y-147315100D02*
X232827800Y-147816700D01*
X232732600Y-143785700D02*
X232326200Y-144192100D01*
X232732600Y-142289900D02*
X232732600Y-143785700D01*
X232319300Y-141876600D02*
X232732600Y-142289900D01*
%TO.N,QI_FOD*%
X233607500Y-141533800D02*
X233991300Y-141150000D01*
X233607500Y-147103000D02*
X233607500Y-141533800D01*
%TO.N,QI_COMM2*%
X232983200Y-141041300D02*
X232983200Y-143820300D01*
X232527900Y-144275600D02*
X232527900Y-146418600D01*
X232932800Y-140990900D02*
X232983200Y-141041300D01*
X232983200Y-143820300D02*
X232527900Y-144275600D01*
X232527900Y-146418600D02*
X232812400Y-146703100D01*
%TO.N,FSR_SINK*%
X252128300Y-147377700D02*
X252128300Y-147173500D01*
X252128300Y-147173500D02*
X250204600Y-145249800D01*
%TO.N,FSR_C12*%
X263570800Y-148206300D02*
X260276000Y-148206300D01*
X260084800Y-148971100D02*
X260448700Y-149335000D01*
X257171700Y-141044000D02*
X257100000Y-141044000D01*
X260338800Y-151093300D02*
X256868000Y-151093300D01*
X260084800Y-148397500D02*
X260084800Y-148971100D01*
X260448700Y-149335000D02*
X260448700Y-150983400D01*
X267020000Y-151425000D02*
X266789500Y-151425000D01*
X253217000Y-154928100D02*
X250120700Y-154928100D01*
X256868000Y-151093300D02*
X254885500Y-153075800D01*
X258914800Y-142787100D02*
X257171700Y-141044000D01*
X260276000Y-148206300D02*
X260084800Y-148397500D01*
X250120700Y-154928100D02*
X249700800Y-155348000D01*
X254885500Y-153075800D02*
X254885500Y-153259600D01*
X267020000Y-151425000D02*
X267147100Y-151297900D01*
X267147100Y-149663700D02*
X260270500Y-142787100D01*
X260448700Y-150983400D02*
X260338800Y-151093300D01*
X266789500Y-151425000D02*
X263570800Y-148206300D01*
X267147100Y-151297900D02*
X267147100Y-149663700D01*
X260270500Y-142787100D02*
X258914800Y-142787100D01*
X254885500Y-153259600D02*
X253217000Y-154928100D01*
%TO.N,QI_CLAMP1*%
X231005300Y-143406700D02*
X231005300Y-143119700D01*
X228466100Y-145945900D02*
X231005300Y-143406700D01*
%TO.N,FSR_C8*%
X241203700Y-146377200D02*
X245619400Y-141961500D01*
X259446500Y-143664500D02*
X264607000Y-148825000D01*
X238990700Y-154550000D02*
X241203700Y-152337000D01*
X256983100Y-143664500D02*
X259446500Y-143664500D01*
X241203700Y-152337000D02*
X241203700Y-146377200D01*
X255100000Y-141781400D02*
X256983100Y-143664500D01*
X245619400Y-141961500D02*
X245745500Y-141961500D01*
%TO.N,FSR_C7*%
X255288900Y-153242800D02*
X255288900Y-153529300D01*
X255170600Y-153647600D02*
X255170600Y-154527800D01*
X260650400Y-148797600D02*
X260650400Y-151176800D01*
X260650400Y-151176800D02*
X259399400Y-152427800D01*
X255170600Y-154527800D02*
X255511800Y-154869000D01*
X256103900Y-152427800D02*
X255288900Y-153242800D01*
X255288900Y-153529300D02*
X255170600Y-153647600D01*
X259399400Y-152427800D02*
X256103900Y-152427800D01*
X259800600Y-148611800D02*
X254713400Y-143524600D01*
X254713400Y-143524600D02*
X254713400Y-141782100D01*
X260380000Y-148527200D02*
X260650400Y-148797600D01*
%TO.N,QI_COIL_A*%
X225969500Y-149792200D02*
X225969500Y-151177400D01*
X226553500Y-149208200D02*
X225969500Y-149792200D01*
%TO.N,QI_COMM1*%
X226078300Y-146682900D02*
X226078300Y-142773100D01*
X226078300Y-142773100D02*
X226935700Y-141915700D01*
%TO.N,QI_RECT*%
X232842100Y-150850000D02*
X233322600Y-150369500D01*
X233322600Y-150369500D02*
X233322600Y-145376000D01*
X233322600Y-145376000D02*
X233006300Y-145059700D01*
%TO.N,FSR_C5*%
X252501800Y-154138000D02*
X252501800Y-154449600D01*
X253050000Y-154524700D02*
X254482100Y-153092600D01*
X252668600Y-153971200D02*
X252501800Y-154138000D01*
X254482100Y-153092600D02*
X254482100Y-152908800D01*
X252501800Y-154449600D02*
X251952600Y-154449600D01*
X253816900Y-141935900D02*
X253852700Y-141971700D01*
X253018300Y-153971200D02*
X252668600Y-153971200D01*
X253852700Y-141971700D02*
X253852700Y-153136800D01*
X252576900Y-154524700D02*
X253050000Y-154524700D01*
X252501800Y-154449600D02*
X252576900Y-154524700D01*
X253852700Y-153136800D02*
X253018300Y-153971200D01*
X257374800Y-150016100D02*
X260171900Y-150016100D01*
X254482100Y-152908800D02*
X257374800Y-150016100D01*
%TO.N,FSR_C3*%
X249064200Y-155658300D02*
X249064200Y-151338500D01*
X253300500Y-155129800D02*
X250468900Y-155129800D01*
X255087200Y-153159300D02*
X255087200Y-153343100D01*
X260008500Y-151425000D02*
X256821500Y-151425000D01*
X250468900Y-155129800D02*
X249865300Y-155733400D01*
X249865300Y-155733400D02*
X249139300Y-155733400D01*
X256821500Y-151425000D02*
X255087200Y-153159300D01*
X249064200Y-151338500D02*
X253312800Y-147089900D01*
X249064200Y-155658300D02*
X247110500Y-155658300D01*
X249139300Y-155733400D02*
X249064200Y-155658300D01*
X255087200Y-153343100D02*
X253300500Y-155129800D01*
X253312800Y-147089900D02*
X253312800Y-142426800D01*
%TO.N,FSR_C0*%
X247148600Y-140951700D02*
X250075800Y-140951700D01*
X245660200Y-142238200D02*
X245862100Y-142238200D01*
X241464800Y-155293500D02*
X241464800Y-146433600D01*
X258088400Y-155717900D02*
X254474600Y-155717900D01*
X259756100Y-154050200D02*
X258088400Y-155717900D01*
X242509800Y-156338500D02*
X241464800Y-155293500D01*
X250115800Y-156338500D02*
X242509800Y-156338500D01*
X250719400Y-155734900D02*
X250115800Y-156338500D01*
X254457600Y-155734900D02*
X250719400Y-155734900D01*
X245862100Y-142238200D02*
X247148600Y-140951700D01*
X241464800Y-146433600D02*
X245660200Y-142238200D01*
X254474600Y-155717900D02*
X254457600Y-155734900D01*
X241464800Y-155293500D02*
X239917700Y-155293500D01*
%TO.N,FSR_C11*%
X255965800Y-141615700D02*
X256600000Y-141615700D01*
X247200100Y-154817100D02*
X247200100Y-152776000D01*
X266870300Y-150682600D02*
X266870300Y-150942000D01*
X256600000Y-141615700D02*
X256600000Y-141413900D01*
X247200000Y-154817100D02*
X247200100Y-154817100D01*
X259650500Y-143462800D02*
X266870300Y-150682600D01*
X258447100Y-143462800D02*
X259650500Y-143462800D01*
X256600000Y-141615700D02*
X258447100Y-143462800D01*
X252425800Y-147550300D02*
X252425800Y-142922300D01*
X247200100Y-152776000D02*
X252425800Y-147550300D01*
X255150500Y-141504300D02*
X255854400Y-141504300D01*
X253853300Y-141494800D02*
X255141000Y-141494800D01*
X252425800Y-142922300D02*
X253853300Y-141494800D01*
X255141000Y-141494800D02*
X255150500Y-141504300D01*
X255854400Y-141504300D02*
X255965800Y-141615700D01*
%TO.N,FSR_C10*%
X255224500Y-141293100D02*
X253769800Y-141293100D01*
X257779800Y-142043400D02*
X258760400Y-143024000D01*
X266857100Y-149658900D02*
X266857100Y-150065500D01*
X253769800Y-141293100D02*
X249832500Y-145230400D01*
X260222200Y-143024000D02*
X266857100Y-149658900D01*
X256136300Y-141302600D02*
X255234000Y-141302600D01*
X249832500Y-148943900D02*
X244142100Y-154634300D01*
X256153700Y-141320000D02*
X256136300Y-141302600D01*
X249832500Y-145230400D02*
X249832500Y-148943900D01*
X258760400Y-143024000D02*
X260222200Y-143024000D01*
X244142100Y-154634300D02*
X244142100Y-154745500D01*
X255234000Y-141302600D02*
X255224500Y-141293100D01*
%TD*%
M02*
