%TF.GenerationSoftware,KiCad,Pcbnew,10.0.4*%
%TF.CreationDate,2026-08-31T10:03:01+02:00*%
%TF.ProjectId,smartbag_core,736d6172-7462-4616-975f-636f72652e6b,rev?*%
%TF.SameCoordinates,Original*%
%TF.FileFunction,Copper,L3,Inr*%
%TF.FilePolarity,Positive*%
%FSLAX46Y46*%
G04 Gerber Fmt 4.6, Leading zero omitted, Abs format (unit mm)*
G04 Created by KiCad (PCBNEW 10.0.4) date 2026-08-31 10:03:01*
%MOMM*%
%LPD*%
G01*
G04 APERTURE LIST*
%TA.AperFunction,ViaPad*%
%ADD10C,0.250000*%
%TD*%
%TA.AperFunction,Conductor*%
%ADD11C,0.300000*%
%TD*%
%TA.AperFunction,Conductor*%
%ADD12C,0.100000*%
%TD*%
G04 APERTURE END LIST*
D10*
%TO.N,VDD_1V8*%
X296750000Y-146250000D03*
X122860000Y-150663000D03*
X208651000Y-152906000D03*
X299750000Y-146250000D03*
X120250000Y-149750000D03*
X297947000Y-151988000D03*
X296100000Y-151995000D03*
X123250000Y-146250000D03*
X122750000Y-145319000D03*
X297014000Y-145388000D03*
X230847000Y-156811000D03*
X122705000Y-152074000D03*
X296750000Y-149750000D03*
X120161000Y-152209000D03*
X209174000Y-144890000D03*
X297250000Y-150678000D03*
X239229000Y-156811000D03*
X123250000Y-149750000D03*
X209929000Y-142780000D03*
%TO.N,GND*%
X134000000Y-145400000D03*
X285000000Y-150600000D03*
X184000000Y-157300000D03*
X240000000Y-157300000D03*
X199248899Y-141880500D03*
X267000000Y-145400000D03*
X240000000Y-138700000D03*
X229370926Y-150390325D03*
X261000000Y-145400000D03*
X196000000Y-138700000D03*
X172000000Y-138700000D03*
X161000000Y-150600000D03*
X176000000Y-138700000D03*
X164000000Y-157300000D03*
X220000000Y-138700000D03*
X140000000Y-150600000D03*
X140000000Y-145400000D03*
X158000000Y-150600000D03*
X288000000Y-145400000D03*
X279000000Y-150600000D03*
X124000000Y-155600000D03*
X184000000Y-138700000D03*
X276000000Y-150600000D03*
X180956511Y-148899116D03*
X212000000Y-157300000D03*
X273000000Y-145400000D03*
X116000000Y-155600000D03*
X137000000Y-145400000D03*
X143000000Y-145400000D03*
X149000000Y-150600000D03*
X236000000Y-138700000D03*
X146000000Y-145400000D03*
X248000000Y-138700000D03*
X124000000Y-140400000D03*
X193344726Y-145718693D03*
X200000000Y-157300000D03*
X188000000Y-138700000D03*
X270000000Y-150600000D03*
X180000000Y-138700000D03*
X300000000Y-155600000D03*
X261000000Y-150600000D03*
X134000000Y-150600000D03*
X164000000Y-138700000D03*
X232000000Y-157300000D03*
X120000000Y-140400000D03*
X248000000Y-157300000D03*
X161000000Y-145400000D03*
X188000000Y-157300000D03*
X252000000Y-157300000D03*
X168000000Y-138700000D03*
X304000000Y-140400000D03*
X296000000Y-140400000D03*
X267000000Y-150600000D03*
X300000000Y-140400000D03*
X216000000Y-138700000D03*
X128000000Y-140400000D03*
X208000000Y-138700000D03*
X146000000Y-150600000D03*
X204000000Y-157300000D03*
X282000000Y-150600000D03*
X276000000Y-145400000D03*
X292000000Y-140400000D03*
X120000000Y-155600000D03*
X128000000Y-155600000D03*
X152000000Y-150600000D03*
X256000000Y-138700000D03*
X279000000Y-145400000D03*
X273000000Y-150600000D03*
X208000000Y-157300000D03*
X264000000Y-145400000D03*
X168000000Y-157300000D03*
X304000000Y-155600000D03*
X192000000Y-138700000D03*
X264000000Y-150600000D03*
X224000000Y-138700000D03*
X236000000Y-157300000D03*
X282000000Y-145400000D03*
X137000000Y-150600000D03*
X204000000Y-138700000D03*
X256000000Y-157300000D03*
X212000000Y-138700000D03*
X143000000Y-150600000D03*
X152000000Y-145400000D03*
X288000000Y-150600000D03*
X244000000Y-138700000D03*
X292000000Y-155600000D03*
X244000000Y-157300000D03*
X228000000Y-138700000D03*
X270000000Y-145400000D03*
X149000000Y-145400000D03*
X155000000Y-145400000D03*
X116000000Y-140400000D03*
X196000000Y-157300000D03*
X220543133Y-147624275D03*
X158000000Y-145400000D03*
X155000000Y-150600000D03*
X252000000Y-138700000D03*
X243005524Y-149029650D03*
X285000000Y-145400000D03*
X232000000Y-138700000D03*
X200000000Y-138700000D03*
X296000000Y-155600000D03*
X192000000Y-157300000D03*
%TO.N,FSR_C9*%
X245814000Y-139014000D03*
X254614000Y-149981000D03*
X229782000Y-154179000D03*
%TO.N,VREF*%
X231669000Y-145265000D03*
X230985000Y-150000000D03*
X235245000Y-150776000D03*
X232901000Y-153542000D03*
X235041000Y-150109000D03*
%TO.N,NTC*%
X225350000Y-142300000D03*
X219980000Y-147625000D03*
%TO.N,FSR_R5*%
X241257000Y-148359000D03*
X251804000Y-141155000D03*
X244214000Y-142563000D03*
X237445000Y-152512000D03*
%TO.N,ADC5*%
X236583000Y-146360000D03*
X237154000Y-153597000D03*
X240356000Y-148039000D03*
X195000000Y-144410000D03*
%TO.N,FSR_C5*%
X244184000Y-141583000D03*
X246996000Y-150856000D03*
X239913000Y-155218000D03*
%TO.N,FSR_C15*%
X248283000Y-141716000D03*
X251380000Y-152733000D03*
X245336000Y-152968000D03*
%TO.N,I2C_SCL*%
X174634000Y-149367000D03*
X204650000Y-141553000D03*
X196536000Y-151117000D03*
X201392000Y-141201000D03*
X207649000Y-150972000D03*
X182204000Y-150722000D03*
%TO.N,VDD_3V3*%
X119866000Y-145560000D03*
X300665000Y-146250000D03*
X198772000Y-147415000D03*
X209568000Y-152128000D03*
X237656000Y-151256000D03*
X119340000Y-149865000D03*
X182821000Y-152472000D03*
X196330000Y-153592000D03*
X173854000Y-141000000D03*
X212498000Y-143091000D03*
X209308000Y-144371000D03*
X246580000Y-147378000D03*
X198772000Y-141394000D03*
X227295000Y-150510000D03*
X204150000Y-142386000D03*
X201575000Y-142000000D03*
X224975000Y-148160000D03*
X125046000Y-152526000D03*
X207087000Y-142675000D03*
X211752000Y-150074000D03*
X185235000Y-149200000D03*
X191398000Y-145050000D03*
X231413000Y-140950000D03*
X257065000Y-148622000D03*
X213369000Y-152998000D03*
X293801000Y-152410000D03*
X205150000Y-141631000D03*
X189384000Y-153597000D03*
X227914000Y-141159000D03*
X299750000Y-150680000D03*
X203955000Y-153000000D03*
X232930000Y-141415000D03*
X228707000Y-143857000D03*
%TO.N,LED0*%
X224588000Y-149744000D03*
X216475000Y-144512000D03*
%TO.N,X24L_2*%
X117927000Y-142058000D03*
X128510000Y-142066000D03*
X121137000Y-150621000D03*
%TO.N,VQI*%
X216036000Y-142016000D03*
X222959000Y-151020000D03*
X215427000Y-146775000D03*
%TO.N,I2C_SDA*%
X191012000Y-150756000D03*
X189177000Y-148557000D03*
X196925000Y-151061000D03*
X197037000Y-142401000D03*
%TO.N,FSR_R4*%
X251038000Y-141391000D03*
X237131000Y-149719000D03*
%TO.N,ADC4*%
X236758000Y-146743000D03*
X195798000Y-144125000D03*
%TO.N,VSYS*%
X224341000Y-142542000D03*
X207659000Y-142752000D03*
X222967000Y-147378000D03*
X207645000Y-146706000D03*
%TO.N,SW1*%
X207506000Y-153778000D03*
X209085000Y-146125000D03*
%TO.N,SW2*%
X209061000Y-147276000D03*
X210344000Y-152908000D03*
%TO.N,VBAT*%
X214030000Y-142076000D03*
X216494000Y-152005000D03*
X215408000Y-147700000D03*
%TO.N,VBUSOUT*%
X218096000Y-142076000D03*
X215358000Y-145792000D03*
%TO.N,VDD_CAM*%
X211438000Y-143829000D03*
X181607000Y-148240000D03*
X212885000Y-143550000D03*
X193646000Y-143816000D03*
%TO.N,FSR_C7*%
X243716000Y-154276000D03*
X247468000Y-149188000D03*
X244887000Y-141581000D03*
%TO.N,FSR_C8*%
X228502000Y-153885000D03*
X245150000Y-139204000D03*
X254621000Y-149391000D03*
%TO.N,IMU_INT1*%
X199080000Y-149252000D03*
X202821000Y-142672000D03*
%TO.N,FSR_R2*%
X233095000Y-151847000D03*
X250150000Y-141030000D03*
X232572000Y-146097000D03*
X238724000Y-145648000D03*
%TO.N,ADC2*%
X207780000Y-151414000D03*
X233038000Y-152231000D03*
X190358000Y-148377000D03*
X232750000Y-146557000D03*
%TO.N,X24R_1*%
X300105000Y-145816000D03*
X294936000Y-142916000D03*
X291492000Y-143179000D03*
%TO.N,CAM_PWDN*%
X190423000Y-145794000D03*
X178807000Y-151226000D03*
X185261000Y-151124000D03*
%TO.N,CAM_RESET*%
X190423000Y-146156000D03*
X183065000Y-150281000D03*
%TO.N,MUX_S0*%
X244920000Y-154479000D03*
X229928000Y-154580000D03*
X226538000Y-146446000D03*
X189814000Y-146313000D03*
%TO.N,MUX_S1*%
X189532000Y-146858000D03*
X204084000Y-153487000D03*
X247345000Y-154854000D03*
%TO.N,ADC0*%
X227356000Y-148575000D03*
X229170000Y-146941000D03*
X190126000Y-147826000D03*
%TO.N,ADC1*%
X229308000Y-152466000D03*
X189906000Y-148102000D03*
X231464000Y-146600000D03*
X205160000Y-151717000D03*
%TO.N,ADC3*%
X234538000Y-148250000D03*
X189670000Y-148408000D03*
%TO.N,MUX_S2*%
X252315000Y-154996000D03*
X204978000Y-154085000D03*
X207763000Y-154578000D03*
X189962000Y-148994000D03*
%TO.N,MUX_S3*%
X225950000Y-150075000D03*
X229453000Y-155572000D03*
X189873000Y-150002000D03*
X241301000Y-155974000D03*
%TO.N,SPI_SCK*%
X184573000Y-150409000D03*
X186567000Y-154828000D03*
X175602000Y-149372000D03*
X119410000Y-146413000D03*
X300616000Y-150234000D03*
X184975000Y-153236000D03*
%TO.N,SPI_MOSI*%
X185976000Y-150779000D03*
X191285000Y-144031000D03*
X301100000Y-148600000D03*
X119389000Y-148250000D03*
X194977000Y-143902000D03*
X176032000Y-151197000D03*
%TO.N,CS_RADAR_L*%
X191761000Y-152166000D03*
X182189000Y-152117000D03*
X120250000Y-146250000D03*
%TO.N,SPI_MISO*%
X123440000Y-147227000D03*
X181609000Y-152695000D03*
X251529000Y-155793000D03*
X166153000Y-145676000D03*
X194310000Y-154820000D03*
X169753000Y-145676000D03*
X176490000Y-151129000D03*
X253841000Y-155793000D03*
X301682000Y-149250000D03*
X210079000Y-157078000D03*
X192310000Y-152448000D03*
X231245000Y-157078000D03*
%TO.N,CS_RADAR_R*%
X251372000Y-157577000D03*
X301093000Y-149712000D03*
X193037000Y-151731000D03*
X299750000Y-149750000D03*
%TO.N,CS_CAM*%
X177154000Y-151292000D03*
X192946000Y-152586000D03*
X185565000Y-151686000D03*
%TO.N,RADAR_EN*%
X211250000Y-157244000D03*
X193060000Y-154828000D03*
X252229000Y-157008000D03*
X191658000Y-153426000D03*
X239600000Y-157244000D03*
X162342000Y-151973000D03*
X212623000Y-157244000D03*
X123068000Y-151306000D03*
X301367000Y-144890000D03*
%TO.N,RADAR_IRQ_L*%
X123428000Y-148562000D03*
X194016000Y-151560000D03*
%TO.N,RADAR_IRQ_R*%
X194600000Y-151775000D03*
X227364000Y-147775000D03*
X243778000Y-138977000D03*
X197935000Y-148407000D03*
X246316000Y-138733000D03*
X296318000Y-147437000D03*
%TO.N,MUX_EN_N*%
X193258000Y-153364000D03*
X198772000Y-153331000D03*
X252836000Y-154475000D03*
X245255000Y-155607000D03*
%TO.N,SWDIO*%
X176312000Y-139992000D03*
X198096000Y-149074000D03*
%TO.N,SWDCLK*%
X175456000Y-142012000D03*
X197578000Y-149691000D03*
%TO.N,HALL_OUT*%
X197640000Y-149138000D03*
X185635000Y-150950000D03*
%TO.N,NRESET*%
X197686000Y-147867000D03*
X222780000Y-148502000D03*
%TO.N,ANT_FEED*%
X167999000Y-152000000D03*
X197912000Y-147314000D03*
X170639000Y-147379000D03*
%TO.N,DECRF*%
X197320000Y-143471000D03*
X197883000Y-146962000D03*
%TO.N,XTAL32M_1*%
X197593000Y-146600000D03*
X184986000Y-142342000D03*
%TO.N,XTAL32M_2*%
X197042000Y-142836000D03*
X197593000Y-146200000D03*
%TO.N,DECA*%
X188440000Y-145420000D03*
X193800000Y-144411000D03*
%TO.N,DECD*%
X189884000Y-143813000D03*
X187120000Y-146834000D03*
%TO.N,DCC*%
X192531000Y-144417000D03*
X186539000Y-153240000D03*
%TO.N,X24R_2*%
X300796000Y-142548000D03*
X299335000Y-145396000D03*
%TO.N,FSR_C14*%
X253929000Y-152670000D03*
X244038000Y-152792000D03*
X248014000Y-141488000D03*
%TO.N,FSR_SINK*%
X232611000Y-145323000D03*
X237635000Y-148433000D03*
%TO.N,FSR_C6*%
X247267000Y-149900000D03*
X241641000Y-155000000D03*
X244536000Y-141584000D03*
%TO.N,FSR_C4*%
X237912000Y-155393000D03*
X246684000Y-151041000D03*
X243828000Y-141775000D03*
%TO.N,FSR_C3*%
X243726000Y-151461000D03*
X235317000Y-155623000D03*
X243542000Y-142060000D03*
%TO.N,FSR_C2*%
X242841000Y-142456000D03*
X246616000Y-152133000D03*
X232759000Y-155898000D03*
%TO.N,FSR_C1*%
X241787000Y-141030000D03*
X247375000Y-153695000D03*
X230946000Y-154798000D03*
%TO.N,FSR_C0*%
X228070000Y-156102000D03*
X241435000Y-141314000D03*
X232065000Y-152775000D03*
%TO.N,FSR_C13*%
X254545000Y-152254000D03*
X248167000Y-142094000D03*
X239072000Y-155218000D03*
%TO.N,FSR_C12*%
X254613000Y-151875000D03*
X236530000Y-154779000D03*
X247150000Y-141206000D03*
%TO.N,FSR_C11*%
X254617000Y-151214000D03*
X232830000Y-154654000D03*
X246650000Y-141030000D03*
%TO.N,FSR_C10*%
X232105000Y-154460000D03*
X254611000Y-150630000D03*
X246046000Y-141056000D03*
%TO.N,FSR_R1*%
X230164000Y-146045000D03*
X249650000Y-141030000D03*
X229317000Y-151942000D03*
X238926000Y-145111000D03*
%TO.N,FSR_R0*%
X232306000Y-149232000D03*
X227368000Y-149232000D03*
X249276000Y-141528000D03*
X227138000Y-146808000D03*
%TO.N,FSR_R3*%
X235035000Y-149543000D03*
X250650000Y-141040000D03*
%TO.N,X24L_1*%
X118228000Y-150250000D03*
X120936000Y-142570000D03*
%TD*%
%TO.N,VDD_1V8*%
D11*
X256587000Y-148458000D02*
X256882000Y-148162000D01*
X208171000Y-152426000D02*
X207054000Y-153543000D01*
X209427000Y-144890000D02*
X209929000Y-144389000D01*
X296750000Y-149750000D02*
X296750000Y-148162000D01*
X296750000Y-150178000D02*
X296750000Y-149750000D01*
X208171000Y-152426000D02*
X208651000Y-152906000D01*
X207054000Y-154482000D02*
X207055000Y-154482000D01*
X122345000Y-154393000D02*
X120161000Y-152209000D01*
X208082000Y-151112000D02*
X208207000Y-151237000D01*
X296107000Y-151988000D02*
X296100000Y-151995000D01*
X123250000Y-150273000D02*
X122860000Y-150663000D01*
X123250000Y-146250000D02*
X123000000Y-146500000D01*
X299750000Y-146250000D02*
X296750000Y-146250000D01*
X123250000Y-149750000D02*
X123250000Y-150273000D01*
X297250000Y-150678000D02*
X296750000Y-150178000D01*
X196431000Y-154393000D02*
X122345000Y-154393000D01*
X207018000Y-154518000D02*
X196556000Y-154518000D01*
X297014000Y-145986000D02*
X297014000Y-145388000D01*
X296750000Y-146250000D02*
X297014000Y-145986000D01*
X209223000Y-156651000D02*
X210256000Y-156651000D01*
X207054000Y-153543000D02*
X207054000Y-154482000D01*
X208207000Y-151237000D02*
X208207000Y-152391000D01*
X122641000Y-150882000D02*
X122641000Y-152010000D01*
X207055000Y-154482000D02*
X209223000Y-156651000D01*
X123000000Y-149500000D02*
X123250000Y-149750000D01*
X123000000Y-146500000D02*
X123000000Y-149500000D01*
X296100000Y-151995000D02*
X296100000Y-151827000D01*
X208207000Y-152391000D02*
X208171000Y-152426000D01*
X296750000Y-148162000D02*
X296750000Y-146250000D01*
X251115000Y-156811000D02*
X256587000Y-151339000D01*
X210256000Y-156651000D02*
X210416000Y-156811000D01*
X122860000Y-150663000D02*
X122641000Y-150882000D01*
X296100000Y-151827000D02*
X297250000Y-150678000D01*
X256587000Y-151339000D02*
X256587000Y-148458000D01*
X208082000Y-145983000D02*
X208082000Y-151112000D01*
X209174000Y-144890000D02*
X208082000Y-145983000D01*
X297947000Y-151988000D02*
X296107000Y-151988000D01*
X207054000Y-154482000D02*
X207018000Y-154518000D01*
X209929000Y-144389000D02*
X209929000Y-142780000D01*
X239229000Y-156811000D02*
X251115000Y-156811000D01*
X210416000Y-156811000D02*
X230847000Y-156811000D01*
X122641000Y-152010000D02*
X122705000Y-152074000D01*
X256882000Y-148162000D02*
X296750000Y-148162000D01*
X122750000Y-145750000D02*
X122750000Y-145319000D01*
X196556000Y-154518000D02*
X196431000Y-154393000D01*
X123250000Y-146250000D02*
X122750000Y-145750000D01*
X209174000Y-144890000D02*
X209427000Y-144890000D01*
%TO.N,FSR_C9*%
D12*
X235458000Y-147491000D02*
X232791000Y-144824000D01*
X254216000Y-149583000D02*
X254216000Y-143998000D01*
X244533000Y-139487000D02*
X242585000Y-139487000D01*
X245814000Y-139014000D02*
X245723000Y-138923000D01*
X232023000Y-145194000D02*
X232023000Y-151938000D01*
X236972000Y-147491000D02*
X235458000Y-147491000D01*
X232791000Y-144824000D02*
X232394000Y-144824000D01*
X249838000Y-139492000D02*
X244966000Y-139492000D01*
X244746000Y-139274000D02*
X244533000Y-139487000D01*
X237563000Y-144510000D02*
X237563000Y-146900000D01*
X242585000Y-139487000D02*
X237563000Y-144510000D01*
X245723000Y-138923000D02*
X245010000Y-138923000D01*
X251527000Y-141182000D02*
X249838000Y-139492000D01*
X254614000Y-149981000D02*
X254216000Y-149583000D01*
X232394000Y-144824000D02*
X232023000Y-145194000D01*
X237563000Y-146900000D02*
X236972000Y-147491000D01*
X244966000Y-139492000D02*
X244746000Y-139274000D01*
X244746000Y-139187000D02*
X244746000Y-139274000D01*
X232023000Y-151938000D02*
X229782000Y-154179000D01*
X245010000Y-138923000D02*
X244746000Y-139187000D01*
X254216000Y-143998000D02*
X251527000Y-141308000D01*
X251527000Y-141308000D02*
X251527000Y-141182000D01*
%TO.N,VREF*%
X235245000Y-151197000D02*
X232901000Y-153542000D01*
X230985000Y-150000000D02*
X230985000Y-145949000D01*
X235245000Y-150776000D02*
X235245000Y-151197000D01*
X235245000Y-150776000D02*
X235041000Y-150572000D01*
X235041000Y-150572000D02*
X235041000Y-150109000D01*
X230985000Y-145949000D02*
X231669000Y-145265000D01*
%TO.N,NTC*%
X219980000Y-147625000D02*
X221134000Y-148779000D01*
X222917000Y-148779000D02*
X225350000Y-146346000D01*
X221134000Y-148779000D02*
X222917000Y-148779000D01*
X225350000Y-146346000D02*
X225350000Y-142300000D01*
%TO.N,FSR_R5*%
X241257000Y-148701000D02*
X241257000Y-148359000D01*
X246932000Y-145281000D02*
X244214000Y-142563000D01*
X246932000Y-147542000D02*
X246932000Y-145281000D01*
X241257000Y-148359000D02*
X246115000Y-148359000D01*
X246115000Y-148359000D02*
X246932000Y-147542000D01*
X237445000Y-152512000D02*
X241257000Y-148701000D01*
%TO.N,ADC5*%
X237919000Y-150476000D02*
X238340000Y-150476000D01*
X238340000Y-150476000D02*
X239657000Y-149159000D01*
X198098000Y-140578000D02*
X232606000Y-140578000D01*
X239657000Y-148738000D02*
X240356000Y-148039000D01*
X239657000Y-149159000D02*
X239657000Y-148738000D01*
X237154000Y-151241000D02*
X237919000Y-150476000D01*
X195951000Y-144410000D02*
X196224000Y-144138000D01*
X237154000Y-153597000D02*
X237154000Y-151241000D01*
X196224000Y-142453000D02*
X198098000Y-140578000D01*
X195000000Y-144410000D02*
X195951000Y-144410000D01*
X196224000Y-144138000D02*
X196224000Y-142453000D01*
X232606000Y-140578000D02*
X236583000Y-144555000D01*
X236583000Y-144555000D02*
X236583000Y-146360000D01*
%TO.N,FSR_C5*%
X243386000Y-151744000D02*
X239913000Y-155218000D01*
X246808000Y-151318000D02*
X245948000Y-151318000D01*
X246996000Y-150856000D02*
X246961000Y-150820000D01*
X246996000Y-151131000D02*
X246808000Y-151318000D01*
X247335000Y-147814000D02*
X247335000Y-144781000D01*
X245522000Y-151744000D02*
X243386000Y-151744000D01*
X246961000Y-150820000D02*
X246961000Y-148189000D01*
X244184000Y-141630000D02*
X244184000Y-141583000D01*
X245948000Y-151318000D02*
X245522000Y-151744000D01*
X246961000Y-148189000D02*
X247335000Y-147814000D01*
X246996000Y-150856000D02*
X246996000Y-151131000D01*
X247335000Y-144781000D02*
X244184000Y-141630000D01*
%TO.N,FSR_C15*%
X248182000Y-141817000D02*
X248283000Y-141716000D01*
X248358000Y-152612000D02*
X245692000Y-152612000D01*
X248358000Y-142675000D02*
X247867000Y-142185000D01*
X247867000Y-142185000D02*
X247867000Y-141959000D01*
X247867000Y-141959000D02*
X248009000Y-141817000D01*
X248358000Y-152612000D02*
X251259000Y-152612000D01*
X248358000Y-152612000D02*
X248358000Y-142675000D01*
X251259000Y-152612000D02*
X251380000Y-152733000D01*
X245692000Y-152612000D02*
X245336000Y-152968000D01*
X248009000Y-141817000D02*
X248182000Y-141817000D01*
%TO.N,I2C_SCL*%
X198642000Y-140999000D02*
X201190000Y-140999000D01*
X201190000Y-140999000D02*
X201392000Y-141201000D01*
X198420000Y-141221000D02*
X198642000Y-140999000D01*
X198803000Y-150259000D02*
X198803000Y-148376000D01*
X182204000Y-150722000D02*
X180119000Y-148638000D01*
X180119000Y-148638000D02*
X175294000Y-148638000D01*
X174634000Y-149297000D02*
X174634000Y-149367000D01*
X196757000Y-151337000D02*
X196536000Y-151117000D01*
X198420000Y-147993000D02*
X198420000Y-141221000D01*
X204299000Y-141201000D02*
X201392000Y-141201000D01*
X197724000Y-151337000D02*
X196757000Y-151337000D01*
X206936000Y-150259000D02*
X198803000Y-150259000D01*
X198803000Y-148376000D02*
X198420000Y-147993000D01*
X204650000Y-141553000D02*
X204299000Y-141201000D01*
X207649000Y-150972000D02*
X206936000Y-150259000D01*
X198803000Y-150259000D02*
X197724000Y-151337000D01*
X175294000Y-148638000D02*
X174634000Y-149297000D01*
%TO.N,VDD_3V3*%
D11*
X210118000Y-153366000D02*
X213002000Y-153366000D01*
X209663000Y-152223000D02*
X209663000Y-152911000D01*
X120708000Y-150242000D02*
X119716000Y-150242000D01*
X241623000Y-147378000D02*
X246580000Y-147378000D01*
X162768000Y-152150000D02*
X162768000Y-152057000D01*
X201575000Y-142000000D02*
X200969000Y-141394000D01*
X209308000Y-142325000D02*
X209308000Y-144371000D01*
X173854000Y-141000000D02*
X173854000Y-141102000D01*
X182630000Y-152281000D02*
X182821000Y-152472000D01*
X211732000Y-142325000D02*
X209308000Y-142325000D01*
X184861000Y-149574000D02*
X182630000Y-149574000D01*
X189263000Y-153718000D02*
X184067000Y-153718000D01*
X213369000Y-152998000D02*
X213369000Y-150984000D01*
X231413000Y-141415000D02*
X232930000Y-141415000D01*
X290013000Y-148622000D02*
X257065000Y-148622000D01*
X173723000Y-141102000D02*
X173854000Y-141102000D01*
X205150000Y-142329000D02*
X205150000Y-141631000D01*
X222527000Y-152998000D02*
X213369000Y-152998000D01*
X120708000Y-146030000D02*
X120708000Y-150242000D01*
X184067000Y-153718000D02*
X182821000Y-152472000D01*
X182326000Y-149574000D02*
X182630000Y-149574000D01*
X293801000Y-152410000D02*
X290013000Y-148622000D01*
X207087000Y-142329000D02*
X205150000Y-142329000D01*
X196068000Y-153854000D02*
X196330000Y-153592000D01*
X209663000Y-152911000D02*
X210118000Y-153366000D01*
X293838000Y-152447000D02*
X293801000Y-152410000D01*
X119866000Y-145560000D02*
X120238000Y-145560000D01*
X213369000Y-150984000D02*
X212458000Y-150074000D01*
X125046000Y-152526000D02*
X122429000Y-152526000D01*
X228707000Y-143857000D02*
X228523000Y-143857000D01*
X125046000Y-152526000D02*
X162392000Y-152526000D01*
X212458000Y-143131000D02*
X212458000Y-150074000D01*
X299750000Y-150496000D02*
X299750000Y-150680000D01*
X119716000Y-150242000D02*
X119340000Y-149865000D01*
X228523000Y-143857000D02*
X224975000Y-147405000D01*
X207087000Y-142329000D02*
X207087000Y-142675000D01*
X200969000Y-141394000D02*
X198772000Y-141394000D01*
X224975000Y-147405000D02*
X224975000Y-148160000D01*
X198772000Y-147415000D02*
X198772000Y-141394000D01*
X203197000Y-153758000D02*
X203955000Y-153000000D01*
X189384000Y-153597000D02*
X189642000Y-153854000D01*
X189642000Y-153854000D02*
X196068000Y-153854000D01*
X204150000Y-142386000D02*
X203764000Y-142000000D01*
X204208000Y-142329000D02*
X204150000Y-142386000D01*
X196496000Y-153758000D02*
X203197000Y-153758000D01*
X300665000Y-146250000D02*
X300665000Y-149581000D01*
X162392000Y-152526000D02*
X162768000Y-152150000D01*
X298148000Y-152447000D02*
X293838000Y-152447000D01*
X227914000Y-143064000D02*
X228707000Y-143857000D01*
X212458000Y-150074000D02*
X211752000Y-150074000D01*
X203764000Y-142000000D02*
X201575000Y-142000000D01*
X185357000Y-149200000D02*
X185235000Y-149200000D01*
X191398000Y-145050000D02*
X189596000Y-145050000D01*
X225015000Y-150510000D02*
X225015000Y-148200000D01*
X189596000Y-145050000D02*
X188880000Y-145766000D01*
X238058000Y-151256000D02*
X240088000Y-149226000D01*
X212498000Y-143091000D02*
X211732000Y-142325000D01*
X231150000Y-141415000D02*
X231413000Y-141415000D01*
X196330000Y-153592000D02*
X196496000Y-153758000D01*
X237656000Y-151256000D02*
X238058000Y-151256000D01*
X225015000Y-148200000D02*
X224975000Y-148160000D01*
X182630000Y-149574000D02*
X182630000Y-152281000D01*
X240088000Y-149226000D02*
X240088000Y-148913000D01*
X189384000Y-153597000D02*
X189263000Y-153718000D01*
X209308000Y-142325000D02*
X207091000Y-142325000D01*
X227914000Y-141159000D02*
X227914000Y-143064000D01*
X185235000Y-149200000D02*
X184861000Y-149574000D01*
X231413000Y-141415000D02*
X231413000Y-140950000D01*
X120238000Y-145560000D02*
X120708000Y-146030000D01*
X120708000Y-150805000D02*
X120708000Y-150242000D01*
X299750000Y-150844000D02*
X298148000Y-152447000D01*
X122429000Y-152526000D02*
X120708000Y-150805000D01*
X213002000Y-153366000D02*
X213369000Y-152998000D01*
X173854000Y-141102000D02*
X182326000Y-149574000D01*
X212498000Y-143091000D02*
X212458000Y-143131000D01*
X228707000Y-143857000D02*
X231150000Y-141415000D01*
X188880000Y-145766000D02*
X188791000Y-145766000D01*
X162768000Y-152057000D02*
X173723000Y-141102000D01*
X240088000Y-148913000D02*
X241623000Y-147378000D01*
X225015000Y-150510000D02*
X222527000Y-152998000D01*
X188791000Y-145766000D02*
X185357000Y-149200000D01*
X205150000Y-142329000D02*
X204208000Y-142329000D01*
X300665000Y-149581000D02*
X299750000Y-150496000D01*
X209568000Y-152128000D02*
X209663000Y-152223000D01*
X299750000Y-150680000D02*
X299750000Y-150844000D01*
X225015000Y-150510000D02*
X227295000Y-150510000D01*
X207091000Y-142325000D02*
X207087000Y-142329000D01*
%TO.N,LED0*%
D12*
X221706000Y-149744000D02*
X216475000Y-144512000D01*
X224588000Y-149744000D02*
X221706000Y-149744000D01*
%TO.N,X24L_2*%
X121137000Y-150621000D02*
X121212000Y-150546000D01*
X121212000Y-150546000D02*
X121212000Y-142066000D01*
X128510000Y-142066000D02*
X121212000Y-142066000D01*
X121212000Y-142066000D02*
X117935000Y-142066000D01*
X117935000Y-142066000D02*
X117927000Y-142058000D01*
%TO.N,VQI*%
D11*
X216036000Y-146166000D02*
X216036000Y-142016000D01*
X219673000Y-151020000D02*
X215427000Y-146775000D01*
X222959000Y-151020000D02*
X219673000Y-151020000D01*
X215427000Y-146775000D02*
X216036000Y-146166000D01*
%TO.N,I2C_SDA*%
D12*
X197674000Y-151061000D02*
X196925000Y-151061000D01*
X197037000Y-142401000D02*
X198218000Y-143582000D01*
X191012000Y-150694000D02*
X191012000Y-150756000D01*
X198218000Y-148184000D02*
X198601000Y-148567000D01*
X189177000Y-148557000D02*
X189177000Y-148859000D01*
X198218000Y-143582000D02*
X198218000Y-148184000D01*
X189177000Y-148859000D02*
X191012000Y-150694000D01*
X198601000Y-150133000D02*
X197674000Y-151061000D01*
X198601000Y-148567000D02*
X198601000Y-150133000D01*
%TO.N,FSR_R4*%
X239202000Y-145134000D02*
X239202000Y-146423000D01*
X248666000Y-140526000D02*
X243810000Y-140526000D01*
X238649000Y-146977000D02*
X238649000Y-148741000D01*
X239202000Y-146423000D02*
X238649000Y-146977000D01*
X238649000Y-148741000D02*
X238074000Y-149317000D01*
X237533000Y-149317000D02*
X237131000Y-149719000D01*
X238074000Y-149317000D02*
X237533000Y-149317000D01*
X243810000Y-140526000D02*
X239202000Y-145134000D01*
X251038000Y-141391000D02*
X249531000Y-141391000D01*
X249531000Y-141391000D02*
X248666000Y-140526000D01*
%TO.N,ADC4*%
X195798000Y-142574000D02*
X198022000Y-140350000D01*
X236864000Y-146636000D02*
X236758000Y-146743000D01*
X236864000Y-144487000D02*
X236864000Y-146636000D01*
X195798000Y-144125000D02*
X195798000Y-142574000D01*
X232728000Y-140350000D02*
X236864000Y-144487000D01*
X198022000Y-140350000D02*
X232728000Y-140350000D01*
%TO.N,VSYS*%
X224341000Y-142542000D02*
X224341000Y-146004000D01*
X224341000Y-146004000D02*
X222967000Y-147378000D01*
X207659000Y-142752000D02*
X207645000Y-142766000D01*
X207645000Y-142766000D02*
X207645000Y-146706000D01*
%TO.N,SW1*%
D11*
X208565000Y-146645000D02*
X208565000Y-150957000D01*
X208565000Y-150957000D02*
X208658000Y-151050000D01*
X208658000Y-151964000D02*
X209118000Y-152423000D01*
X209118000Y-152423000D02*
X209118000Y-153082000D01*
X209085000Y-146125000D02*
X208565000Y-146645000D01*
X209118000Y-153082000D02*
X208422000Y-153778000D01*
X208422000Y-153778000D02*
X207506000Y-153778000D01*
X208658000Y-151050000D02*
X208658000Y-151964000D01*
%TO.N,SW2*%
X209061000Y-147276000D02*
X210344000Y-148560000D01*
X210344000Y-148560000D02*
X210344000Y-152908000D01*
%TO.N,VBAT*%
X214030000Y-146322000D02*
X214030000Y-142076000D01*
X215408000Y-147700000D02*
X214030000Y-146322000D01*
X215408000Y-150919000D02*
X215408000Y-147700000D01*
X216494000Y-152005000D02*
X215408000Y-150919000D01*
%TO.N,VBUSOUT*%
D12*
X215358000Y-142156000D02*
X215887000Y-141628000D01*
X217648000Y-141628000D02*
X218096000Y-142076000D01*
X215358000Y-145792000D02*
X215358000Y-142156000D01*
X215887000Y-141628000D02*
X217648000Y-141628000D01*
%TO.N,VDD_CAM*%
X181607000Y-148240000D02*
X186320000Y-143527000D01*
X193356000Y-143527000D02*
X193646000Y-143816000D01*
X186320000Y-143527000D02*
X193356000Y-143527000D01*
%TO.N,FSR_C7*%
X244186000Y-152207000D02*
X243716000Y-152677000D01*
X246108000Y-152207000D02*
X244186000Y-152207000D01*
X243716000Y-152677000D02*
X243716000Y-154276000D01*
X246486000Y-151829000D02*
X246108000Y-152207000D01*
X247738000Y-144432000D02*
X244887000Y-141581000D01*
X247544000Y-151153000D02*
X246868000Y-151829000D01*
X246868000Y-151829000D02*
X246486000Y-151829000D01*
X247738000Y-148918000D02*
X247738000Y-144432000D01*
X247468000Y-149188000D02*
X247544000Y-149264000D01*
X247468000Y-149188000D02*
X247738000Y-148918000D01*
X247544000Y-149264000D02*
X247544000Y-151153000D01*
%TO.N,FSR_C8*%
X229548000Y-146251000D02*
X229548000Y-148178000D01*
X254621000Y-149391000D02*
X254621000Y-143581000D01*
X244676000Y-138710000D02*
X244105000Y-139281000D01*
X231176000Y-144622000D02*
X229548000Y-146251000D01*
X250331000Y-139291000D02*
X246141000Y-139291000D01*
X245902000Y-138710000D02*
X244676000Y-138710000D01*
X237361000Y-144426000D02*
X237361000Y-146816000D01*
X237361000Y-146816000D02*
X236888000Y-147289000D01*
X228502000Y-149224000D02*
X228502000Y-153885000D01*
X236888000Y-147289000D02*
X235542000Y-147289000D01*
X254621000Y-143581000D02*
X250331000Y-139291000D01*
X245237000Y-139291000D02*
X245150000Y-139204000D01*
X246141000Y-139291000D02*
X246141000Y-138950000D01*
X232874000Y-144622000D02*
X231176000Y-144622000D01*
X242506000Y-139281000D02*
X237361000Y-144426000D01*
X244105000Y-139281000D02*
X242506000Y-139281000D01*
X229548000Y-148178000D02*
X228502000Y-149224000D01*
X246141000Y-138950000D02*
X245902000Y-138710000D01*
X246141000Y-139291000D02*
X245237000Y-139291000D01*
X235542000Y-147289000D02*
X232874000Y-144622000D01*
%TO.N,IMU_INT1*%
X202821000Y-142672000D02*
X202821000Y-145512000D01*
X202821000Y-145512000D02*
X199080000Y-149252000D01*
%TO.N,FSR_R2*%
X243588000Y-140123000D02*
X249243000Y-140123000D01*
X232742000Y-146097000D02*
X232572000Y-146097000D01*
X233095000Y-146450000D02*
X232742000Y-146097000D01*
X238724000Y-145648000D02*
X238649000Y-145572000D01*
X241643000Y-141994000D02*
X241717000Y-141994000D01*
X233095000Y-151847000D02*
X233095000Y-146450000D01*
X241717000Y-141994000D02*
X243588000Y-140123000D01*
X238649000Y-144988000D02*
X241643000Y-141994000D01*
X249243000Y-140123000D02*
X250150000Y-141030000D01*
X238649000Y-145572000D02*
X238649000Y-144988000D01*
%TO.N,ADC2*%
X207200000Y-151993000D02*
X203362000Y-151993000D01*
X193130000Y-152008000D02*
X192923000Y-152008000D01*
X232750000Y-151944000D02*
X233038000Y-152231000D01*
X203362000Y-151993000D02*
X203029000Y-152326000D01*
X193448000Y-152326000D02*
X193130000Y-152008000D01*
X192923000Y-152008000D02*
X191491000Y-150576000D01*
X191491000Y-150576000D02*
X191491000Y-149509000D01*
X207780000Y-151414000D02*
X207200000Y-151993000D01*
X203029000Y-152326000D02*
X193448000Y-152326000D01*
X191491000Y-149509000D02*
X190358000Y-148377000D01*
X232750000Y-146557000D02*
X232750000Y-151944000D01*
%TO.N,X24R_1*%
X291754000Y-142917000D02*
X294936000Y-142917000D01*
X300105000Y-145816000D02*
X298610000Y-145816000D01*
X291492000Y-143179000D02*
X291754000Y-142917000D01*
X294936000Y-142917000D02*
X294936000Y-142916000D01*
X295711000Y-142917000D02*
X294936000Y-142917000D01*
X298610000Y-145816000D02*
X295711000Y-142917000D01*
%TO.N,CAM_PWDN*%
X191156000Y-145794000D02*
X192254000Y-144695000D01*
X192817000Y-144760000D02*
X190845000Y-146732000D01*
X192254000Y-144695000D02*
X192254000Y-144302000D01*
X188424000Y-147763000D02*
X185261000Y-150926000D01*
X190845000Y-146732000D02*
X190071000Y-146732000D01*
X192817000Y-144304000D02*
X192817000Y-144760000D01*
X190071000Y-146732000D02*
X189041000Y-147763000D01*
X190423000Y-145794000D02*
X191156000Y-145794000D01*
X192424000Y-144132000D02*
X192645000Y-144132000D01*
X192645000Y-144132000D02*
X192817000Y-144304000D01*
X192254000Y-144302000D02*
X192424000Y-144132000D01*
X185261000Y-150926000D02*
X185261000Y-151124000D01*
X189041000Y-147763000D02*
X188424000Y-147763000D01*
%TO.N,CAM_RESET*%
X183214000Y-150132000D02*
X183065000Y-150281000D01*
X189538000Y-146198000D02*
X188857000Y-146198000D01*
X190048000Y-146156000D02*
X189928000Y-146036000D01*
X189699000Y-146036000D02*
X189538000Y-146198000D01*
X189928000Y-146036000D02*
X189699000Y-146036000D01*
X190423000Y-146156000D02*
X190048000Y-146156000D01*
X184922000Y-150132000D02*
X183214000Y-150132000D01*
X188857000Y-146198000D02*
X184922000Y-150132000D01*
%TO.N,MUX_S0*%
X228023000Y-153854000D02*
X228748000Y-154580000D01*
X228023000Y-150341000D02*
X228023000Y-153854000D01*
X226538000Y-146446000D02*
X226538000Y-148856000D01*
X228748000Y-154580000D02*
X229928000Y-154580000D01*
X226538000Y-148856000D02*
X228023000Y-150341000D01*
%TO.N,MUX_S1*%
X204330000Y-153240000D02*
X204330000Y-152865000D01*
X184967000Y-150935000D02*
X189043000Y-146858000D01*
X203815000Y-152609000D02*
X203517000Y-152906000D01*
X204074000Y-152609000D02*
X203815000Y-152609000D01*
X203517000Y-152906000D02*
X186392000Y-152906000D01*
X189043000Y-146858000D02*
X189532000Y-146858000D01*
X204330000Y-152865000D02*
X204074000Y-152609000D01*
X186392000Y-152906000D02*
X184967000Y-151481000D01*
X184967000Y-151481000D02*
X184967000Y-150935000D01*
X204084000Y-153487000D02*
X204330000Y-153240000D01*
%TO.N,ADC0*%
X229170000Y-146941000D02*
X227536000Y-148575000D01*
X227536000Y-148575000D02*
X227356000Y-148575000D01*
%TO.N,ADC1*%
X199273000Y-152091000D02*
X199647000Y-151717000D01*
X231464000Y-146600000D02*
X231464000Y-150310000D01*
X193802000Y-152091000D02*
X199273000Y-152091000D01*
X189906000Y-148102000D02*
X190241000Y-148102000D01*
X231464000Y-150310000D02*
X229308000Y-152466000D01*
X190241000Y-148102000D02*
X190300000Y-148044000D01*
X199647000Y-151717000D02*
X205160000Y-151717000D01*
X190300000Y-148044000D02*
X190416000Y-148044000D01*
X193314000Y-151603000D02*
X193802000Y-152091000D01*
X190416000Y-148044000D02*
X193314000Y-150942000D01*
X193314000Y-150942000D02*
X193314000Y-151603000D01*
%TO.N,MUX_S2*%
X210543000Y-156441000D02*
X238641000Y-156441000D01*
X250624000Y-156251000D02*
X251879000Y-154996000D01*
X238830000Y-156251000D02*
X250624000Y-156251000D01*
X191289000Y-150321000D02*
X189962000Y-148994000D01*
X203741000Y-152397000D02*
X203574000Y-152564000D01*
X192839000Y-152209000D02*
X191289000Y-150659000D01*
X208680000Y-154578000D02*
X210543000Y-156441000D01*
X204978000Y-154085000D02*
X204978000Y-153188000D01*
X251879000Y-154996000D02*
X252315000Y-154996000D01*
X192972000Y-152209000D02*
X192839000Y-152209000D01*
X207763000Y-154578000D02*
X208680000Y-154578000D01*
X193327000Y-152564000D02*
X192972000Y-152209000D01*
X191289000Y-150659000D02*
X191289000Y-150321000D01*
X238641000Y-156441000D02*
X238830000Y-156251000D01*
X203574000Y-152564000D02*
X193327000Y-152564000D01*
X204978000Y-153188000D02*
X204186000Y-152397000D01*
X204186000Y-152397000D02*
X203741000Y-152397000D01*
%TO.N,MUX_S3*%
X227657000Y-153776000D02*
X229453000Y-155572000D01*
X227401000Y-150075000D02*
X227657000Y-150331000D01*
X225950000Y-150075000D02*
X227401000Y-150075000D01*
X227657000Y-150331000D02*
X227657000Y-153776000D01*
%TO.N,SPI_SCK*%
X119410000Y-146413000D02*
X118689000Y-147134000D01*
X120017000Y-151032000D02*
X122103000Y-153118000D01*
X184477000Y-152738000D02*
X184975000Y-153236000D01*
X250910000Y-157647000D02*
X189386000Y-157647000D01*
X118689000Y-150008000D02*
X119713000Y-151032000D01*
X175602000Y-149390000D02*
X175602000Y-149372000D01*
X184573000Y-150409000D02*
X184477000Y-150505000D01*
X118689000Y-147134000D02*
X118689000Y-150008000D01*
X254479000Y-154078000D02*
X250910000Y-157647000D01*
X297030000Y-154078000D02*
X254479000Y-154078000D01*
X171874000Y-153118000D02*
X175602000Y-149390000D01*
X189386000Y-157647000D02*
X186567000Y-154828000D01*
X300616000Y-150234000D02*
X300616000Y-150493000D01*
X122103000Y-153118000D02*
X171874000Y-153118000D01*
X300616000Y-150493000D02*
X297030000Y-154078000D01*
X119713000Y-151032000D02*
X120017000Y-151032000D01*
X184477000Y-150505000D02*
X184477000Y-152738000D01*
%TO.N,SPI_MOSI*%
X119389000Y-148250000D02*
X118939000Y-148700000D01*
X176032000Y-149392000D02*
X176032000Y-151197000D01*
X190858000Y-147005000D02*
X190095000Y-147005000D01*
X193021000Y-144842000D02*
X190858000Y-147005000D01*
X120046000Y-150760000D02*
X122203000Y-152916000D01*
X301076000Y-142413000D02*
X301076000Y-148576000D01*
X194977000Y-143902000D02*
X194977000Y-143075000D01*
X190095000Y-147005000D02*
X189021000Y-148079000D01*
X175320000Y-149376000D02*
X175320000Y-149234000D01*
X119725000Y-150760000D02*
X120046000Y-150760000D01*
X188676000Y-148079000D02*
X185976000Y-150779000D01*
X254618000Y-138423000D02*
X257986000Y-141792000D01*
X122203000Y-152916000D02*
X171780000Y-152916000D01*
X193021000Y-144197000D02*
X193021000Y-144842000D01*
X301076000Y-148576000D02*
X301100000Y-148600000D01*
X300454000Y-141792000D02*
X301076000Y-142413000D01*
X175462000Y-149091000D02*
X175730000Y-149091000D01*
X189021000Y-148079000D02*
X188676000Y-148079000D01*
X257986000Y-141792000D02*
X300454000Y-141792000D01*
X175320000Y-149234000D02*
X175462000Y-149091000D01*
X175730000Y-149091000D02*
X176032000Y-149392000D01*
X199628000Y-138423000D02*
X254618000Y-138423000D01*
X171780000Y-152916000D02*
X175320000Y-149376000D01*
X118939000Y-148700000D02*
X118939000Y-149973000D01*
X191285000Y-144031000D02*
X191386000Y-143930000D01*
X192755000Y-143930000D02*
X193021000Y-144197000D01*
X118939000Y-149973000D02*
X119725000Y-150760000D01*
X194977000Y-143075000D02*
X199628000Y-138423000D01*
X191386000Y-143930000D02*
X192755000Y-143930000D01*
%TO.N,CS_RADAR_L*%
X118444000Y-150074000D02*
X119970000Y-151600000D01*
X122012000Y-153337000D02*
X181374000Y-153337000D01*
X182189000Y-152522000D02*
X182189000Y-152117000D01*
X120250000Y-146250000D02*
X120098000Y-146098000D01*
X120098000Y-146098000D02*
X119301000Y-146098000D01*
X119970000Y-151600000D02*
X120274000Y-151600000D01*
X118444000Y-146956000D02*
X118444000Y-150074000D01*
X119301000Y-146098000D02*
X118444000Y-146956000D01*
X120274000Y-151600000D02*
X122012000Y-153337000D01*
X181374000Y-153337000D02*
X182189000Y-152522000D01*
%TO.N,SPI_MISO*%
X123440000Y-147227000D02*
X164602000Y-147227000D01*
X231582000Y-156741000D02*
X238766000Y-156741000D01*
X177504000Y-150987000D02*
X179212000Y-152695000D01*
X254951000Y-154684000D02*
X297355000Y-154684000D01*
X174703000Y-149708000D02*
X173785000Y-149708000D01*
X297355000Y-154684000D02*
X301682000Y-150357000D01*
X238766000Y-156741000D02*
X239055000Y-156453000D01*
X253841000Y-155793000D02*
X254951000Y-154684000D01*
X231245000Y-157078000D02*
X231582000Y-156741000D01*
X164602000Y-147227000D02*
X166153000Y-145676000D01*
X176490000Y-149566000D02*
X175764000Y-148839000D01*
X250870000Y-156453000D02*
X251529000Y-155793000D01*
X175071000Y-149340000D02*
X174703000Y-149708000D01*
X239055000Y-156453000D02*
X250870000Y-156453000D01*
X209153000Y-157078000D02*
X208104000Y-156029000D01*
X176490000Y-150987000D02*
X176490000Y-149566000D01*
X176490000Y-150987000D02*
X177504000Y-150987000D01*
X195519000Y-156029000D02*
X194310000Y-154820000D01*
X179212000Y-152695000D02*
X181609000Y-152695000D01*
X175403000Y-148839000D02*
X175071000Y-149172000D01*
X208104000Y-156029000D02*
X195519000Y-156029000D01*
X176490000Y-151129000D02*
X176490000Y-150987000D01*
X175764000Y-148839000D02*
X175403000Y-148839000D01*
X210079000Y-157078000D02*
X209153000Y-157078000D01*
X301682000Y-150357000D02*
X301682000Y-149250000D01*
X173785000Y-149708000D02*
X169753000Y-145676000D01*
X175071000Y-149172000D02*
X175071000Y-149340000D01*
%TO.N,CS_RADAR_R*%
X297142000Y-154280000D02*
X254565000Y-154280000D01*
X251372000Y-157473000D02*
X251372000Y-157577000D01*
X301093000Y-149712000D02*
X301093000Y-150329000D01*
X301093000Y-150329000D02*
X297142000Y-154280000D01*
X254565000Y-154280000D02*
X251372000Y-157473000D01*
%TO.N,CS_CAM*%
X192930000Y-152586000D02*
X192030000Y-151686000D01*
X192946000Y-152586000D02*
X192930000Y-152586000D01*
X192030000Y-151686000D02*
X185565000Y-151686000D01*
%TO.N,RADAR_EN*%
X208012000Y-156301000D02*
X194533000Y-156301000D01*
X212623000Y-157244000D02*
X212734000Y-157354000D01*
X211250000Y-157244000D02*
X211099000Y-157395000D01*
X254755000Y-154482000D02*
X252229000Y-157008000D01*
X301392000Y-144915000D02*
X301392000Y-150316000D01*
X239162000Y-157244000D02*
X239600000Y-157244000D01*
X301367000Y-144890000D02*
X301392000Y-144915000D01*
X161674000Y-151306000D02*
X123068000Y-151306000D01*
X231554000Y-157354000D02*
X231905000Y-157004000D01*
X209106000Y-157395000D02*
X208012000Y-156301000D01*
X211099000Y-157395000D02*
X209106000Y-157395000D01*
X301392000Y-150316000D02*
X297226000Y-154482000D01*
X231905000Y-157004000D02*
X238922000Y-157004000D01*
X162342000Y-151973000D02*
X161674000Y-151306000D01*
X297226000Y-154482000D02*
X254755000Y-154482000D01*
X194533000Y-156301000D02*
X193060000Y-154828000D01*
X238922000Y-157004000D02*
X239162000Y-157244000D01*
X212734000Y-157354000D02*
X231554000Y-157354000D01*
%TO.N,RADAR_IRQ_L*%
X195608000Y-149968000D02*
X197755000Y-149968000D01*
X197855000Y-149577000D02*
X197693000Y-149415000D01*
X171859000Y-140648000D02*
X163944000Y-148562000D01*
X193640000Y-143124000D02*
X176961000Y-143124000D01*
X176961000Y-143124000D02*
X174485000Y-140648000D01*
X194016000Y-151560000D02*
X195608000Y-149968000D01*
X197693000Y-149415000D02*
X197512000Y-149415000D01*
X194297000Y-146199000D02*
X194297000Y-143781000D01*
X197755000Y-149968000D02*
X197855000Y-149868000D01*
X197512000Y-149415000D02*
X194297000Y-146199000D01*
X194297000Y-143781000D02*
X193640000Y-143124000D01*
X174485000Y-140648000D02*
X171859000Y-140648000D01*
X163944000Y-148562000D02*
X123428000Y-148562000D01*
X197855000Y-149868000D02*
X197855000Y-149577000D01*
%TO.N,RADAR_IRQ_R*%
X197935000Y-148407000D02*
X198400000Y-148872000D01*
X197672000Y-150778000D02*
X195597000Y-150778000D01*
X233656000Y-144420000D02*
X230719000Y-144420000D01*
X198400000Y-148872000D02*
X198400000Y-150050000D01*
X242526000Y-138977000D02*
X237160000Y-144343000D01*
X293785000Y-144904000D02*
X260752000Y-144904000D01*
X236805000Y-147088000D02*
X236323000Y-147088000D01*
X254844000Y-138996000D02*
X246579000Y-138996000D01*
X246579000Y-138996000D02*
X246316000Y-138733000D01*
X237160000Y-146732000D02*
X236805000Y-147088000D01*
X195597000Y-150778000D02*
X194600000Y-151775000D01*
X243778000Y-138977000D02*
X242526000Y-138977000D01*
X237160000Y-144343000D02*
X237160000Y-146732000D01*
X230719000Y-144420000D02*
X227364000Y-147775000D01*
X198400000Y-150050000D02*
X197672000Y-150778000D01*
X236323000Y-147088000D02*
X233656000Y-144420000D01*
X260752000Y-144904000D02*
X254844000Y-138996000D01*
X296318000Y-147437000D02*
X293785000Y-144904000D01*
%TO.N,MUX_EN_N*%
X198668000Y-153227000D02*
X193395000Y-153227000D01*
X248398000Y-153419000D02*
X249454000Y-154475000D01*
X193395000Y-153227000D02*
X193258000Y-153364000D01*
X249454000Y-154475000D02*
X252836000Y-154475000D01*
X245255000Y-155607000D02*
X245255000Y-155402000D01*
X198772000Y-153331000D02*
X198668000Y-153227000D01*
X245255000Y-155402000D02*
X247238000Y-153419000D01*
X247238000Y-153419000D02*
X248398000Y-153419000D01*
%TO.N,SWDIO*%
X198096000Y-149074000D02*
X194498000Y-145476000D01*
X193723000Y-142922000D02*
X179241000Y-142922000D01*
X179241000Y-142922000D02*
X176312000Y-139992000D01*
X194498000Y-145476000D02*
X194498000Y-143697000D01*
X194498000Y-143697000D02*
X193723000Y-142922000D01*
%TO.N,SWDCLK*%
X194095000Y-146342000D02*
X194095000Y-143864000D01*
X197445000Y-149691000D02*
X194095000Y-146342000D01*
X197578000Y-149691000D02*
X197445000Y-149691000D01*
X193556000Y-143325000D02*
X176769000Y-143325000D01*
X194095000Y-143864000D02*
X193556000Y-143325000D01*
X176769000Y-143325000D02*
X175456000Y-142012000D01*
%TO.N,HALL_OUT*%
X198089000Y-150007000D02*
X197925000Y-150171000D01*
X194118000Y-151851000D02*
X193912000Y-151851000D01*
X189129000Y-148280000D02*
X189062000Y-148280000D01*
X197701000Y-149138000D02*
X198089000Y-149526000D01*
X189892000Y-147518000D02*
X189129000Y-148280000D01*
X186287000Y-151055000D02*
X185741000Y-151055000D01*
X197925000Y-150171000D02*
X195797000Y-150171000D01*
X195797000Y-150171000D02*
X194118000Y-151851000D01*
X198089000Y-149526000D02*
X198089000Y-150007000D01*
X190224000Y-147518000D02*
X189892000Y-147518000D01*
X197640000Y-149138000D02*
X197701000Y-149138000D01*
X185741000Y-151055000D02*
X185635000Y-150950000D01*
X189062000Y-148280000D02*
X186287000Y-151055000D01*
X193912000Y-151851000D02*
X193736000Y-151675000D01*
X193736000Y-151675000D02*
X193736000Y-151030000D01*
X193736000Y-151030000D02*
X190224000Y-147518000D01*
%TO.N,NRESET*%
X222691000Y-146260000D02*
X222691000Y-148412000D01*
X217212000Y-140781000D02*
X222691000Y-146260000D01*
X222691000Y-148412000D02*
X222780000Y-148502000D01*
X196758000Y-142256000D02*
X198232000Y-140781000D01*
X198232000Y-140781000D02*
X217212000Y-140781000D01*
X196758000Y-146939000D02*
X196758000Y-142256000D01*
X197686000Y-147867000D02*
X196758000Y-146939000D01*
%TO.N,ANT_FEED*%
X167999000Y-152000000D02*
X167999000Y-150020000D01*
X167999000Y-150020000D02*
X170639000Y-147379000D01*
%TO.N,DECRF*%
X197883000Y-144034000D02*
X197883000Y-146962000D01*
X197320000Y-143471000D02*
X197883000Y-144034000D01*
%TO.N,XTAL32M_1*%
X193428000Y-142342000D02*
X184986000Y-142342000D01*
X197793000Y-148158000D02*
X197586000Y-148158000D01*
X197593000Y-146600000D02*
X197593000Y-147466000D01*
X197593000Y-147466000D02*
X197718000Y-147591000D01*
X197718000Y-147591000D02*
X197801000Y-147591000D01*
X194700000Y-143614000D02*
X193428000Y-142342000D01*
X197963000Y-147988000D02*
X197793000Y-148158000D01*
X197801000Y-147591000D02*
X197963000Y-147753000D01*
X197586000Y-148158000D02*
X194700000Y-145273000D01*
X197963000Y-147753000D02*
X197963000Y-147988000D01*
X194700000Y-145273000D02*
X194700000Y-143614000D01*
%TO.N,XTAL32M_2*%
X197042000Y-142836000D02*
X197042000Y-145649000D01*
X197042000Y-145649000D02*
X197593000Y-146200000D01*
%TO.N,DECA*%
X188673000Y-145414000D02*
X188446000Y-145414000D01*
X188446000Y-145414000D02*
X188440000Y-145420000D01*
X193118000Y-143729000D02*
X190359000Y-143729000D01*
X190359000Y-143729000D02*
X188673000Y-145414000D01*
X193800000Y-144411000D02*
X193118000Y-143729000D01*
%TO.N,DECD*%
X189617000Y-143813000D02*
X189884000Y-143813000D01*
X187120000Y-146834000D02*
X187120000Y-146310000D01*
X187120000Y-146310000D02*
X189617000Y-143813000D01*
%TO.N,DCC*%
X189988000Y-146531000D02*
X189886000Y-146632000D01*
X186392000Y-153240000D02*
X186539000Y-153240000D01*
X190762000Y-146531000D02*
X189988000Y-146531000D01*
X192531000Y-144417000D02*
X192531000Y-144761000D01*
X188991000Y-146572000D02*
X184743000Y-150820000D01*
X192531000Y-144761000D02*
X190762000Y-146531000D01*
X189886000Y-146632000D02*
X189741000Y-146632000D01*
X189741000Y-146632000D02*
X189682000Y-146572000D01*
X184743000Y-150820000D02*
X184743000Y-151591000D01*
X184743000Y-151591000D02*
X186392000Y-153240000D01*
X189682000Y-146572000D02*
X188991000Y-146572000D01*
%TO.N,X24R_2*%
X299335000Y-145396000D02*
X299335000Y-144010000D01*
X299335000Y-144010000D02*
X300796000Y-142548000D01*
%TO.N,FSR_C14*%
X245183000Y-153244000D02*
X244989000Y-153050000D01*
X253584000Y-153015000D02*
X248950000Y-153015000D01*
X246344000Y-153244000D02*
X245183000Y-153244000D01*
X248156000Y-151183000D02*
X246929000Y-152410000D01*
X253929000Y-152670000D02*
X253584000Y-153015000D01*
X248950000Y-153015000D02*
X248748000Y-152814000D01*
X246775000Y-152814000D02*
X246344000Y-153244000D01*
X245456000Y-152410000D02*
X244989000Y-152877000D01*
X248014000Y-141488000D02*
X247645000Y-141857000D01*
X248156000Y-142759000D02*
X248156000Y-151183000D01*
X244038000Y-152792000D02*
X244123000Y-152877000D01*
X244123000Y-152877000D02*
X244989000Y-152877000D01*
X244989000Y-153050000D02*
X244989000Y-152877000D01*
X246929000Y-152410000D02*
X245456000Y-152410000D01*
X247645000Y-142248000D02*
X248156000Y-142759000D01*
X248748000Y-152814000D02*
X246775000Y-152814000D01*
X247645000Y-141857000D02*
X247645000Y-142248000D01*
%TO.N,FSR_SINK*%
X237635000Y-148433000D02*
X235721000Y-148433000D01*
X235721000Y-148433000D02*
X232611000Y-145323000D01*
%TO.N,FSR_C6*%
X245954000Y-151597000D02*
X245605000Y-151946000D01*
X246815000Y-151597000D02*
X245954000Y-151597000D01*
X245605000Y-151946000D02*
X244154000Y-151946000D01*
X244154000Y-151946000D02*
X241641000Y-154459000D01*
X247183000Y-149817000D02*
X247183000Y-148251000D01*
X247267000Y-149900000D02*
X247272000Y-149906000D01*
X247272000Y-149906000D02*
X247272000Y-151139000D01*
X247537000Y-144658000D02*
X244536000Y-141656000D01*
X247537000Y-147898000D02*
X247537000Y-144658000D01*
X247183000Y-148251000D02*
X247537000Y-147898000D01*
X244536000Y-141656000D02*
X244536000Y-141584000D01*
X247267000Y-149900000D02*
X247183000Y-149817000D01*
X247272000Y-151139000D02*
X246815000Y-151597000D01*
X241641000Y-154459000D02*
X241641000Y-155000000D01*
%TO.N,FSR_C4*%
X246684000Y-148180000D02*
X247133000Y-147731000D01*
X247133000Y-145080000D02*
X243828000Y-141775000D01*
X246684000Y-151041000D02*
X246684000Y-148180000D01*
X242264000Y-151041000D02*
X237912000Y-155393000D01*
X247133000Y-147731000D02*
X247133000Y-145080000D01*
X246684000Y-151041000D02*
X242264000Y-151041000D01*
%TO.N,FSR_C3*%
X236645000Y-154502000D02*
X236645000Y-151458000D01*
X242272000Y-151461000D02*
X238063000Y-155670000D01*
X239456000Y-148505000D02*
X243542000Y-144419000D01*
X236645000Y-154502000D02*
X236416000Y-154502000D01*
X236645000Y-151458000D02*
X237828000Y-150275000D01*
X239456000Y-149075000D02*
X239456000Y-148505000D01*
X236807000Y-154760000D02*
X236807000Y-154664000D01*
X236416000Y-154502000D02*
X235317000Y-155601000D01*
X237718000Y-155670000D02*
X236807000Y-154760000D01*
X237828000Y-150275000D02*
X238256000Y-150275000D01*
X236807000Y-154664000D02*
X236645000Y-154502000D01*
X235317000Y-155601000D02*
X235317000Y-155623000D01*
X243726000Y-151461000D02*
X242272000Y-151461000D01*
X243542000Y-144419000D02*
X243542000Y-142060000D01*
X238256000Y-150275000D02*
X239456000Y-149075000D01*
X238063000Y-155670000D02*
X237718000Y-155670000D01*
%TO.N,FSR_C2*%
X232759000Y-155898000D02*
X233107000Y-155551000D01*
X233107000Y-155551000D02*
X233107000Y-154711000D01*
X247940000Y-144243000D02*
X247940000Y-151067000D01*
X238253000Y-149992000D02*
X239254000Y-148992000D01*
X242841000Y-144834000D02*
X242841000Y-142456000D01*
X242841000Y-142456000D02*
X242841000Y-142350000D01*
X242841000Y-142350000D02*
X243887000Y-141304000D01*
X233107000Y-154711000D02*
X237826000Y-149992000D01*
X247940000Y-151067000D02*
X246874000Y-152133000D01*
X239254000Y-148421000D02*
X242841000Y-144834000D01*
X245002000Y-141304000D02*
X247940000Y-144243000D01*
X243887000Y-141304000D02*
X245002000Y-141304000D01*
X246874000Y-152133000D02*
X246616000Y-152133000D01*
X239254000Y-148992000D02*
X239254000Y-148421000D01*
X237826000Y-149992000D02*
X238253000Y-149992000D01*
%TO.N,FSR_C1*%
X238586000Y-156210000D02*
X232359000Y-156210000D01*
X231152000Y-154798000D02*
X233782000Y-152168000D01*
X241444000Y-141591000D02*
X241550000Y-141591000D01*
X238747000Y-156049000D02*
X238586000Y-156210000D01*
X241416000Y-155698000D02*
X241186000Y-155698000D01*
X247375000Y-153878000D02*
X245355000Y-155898000D01*
X241550000Y-141591000D02*
X241787000Y-141353000D01*
X230946000Y-154798000D02*
X231152000Y-154798000D01*
X233782000Y-152168000D02*
X233782000Y-150387000D01*
X247375000Y-153695000D02*
X247375000Y-153878000D01*
X238245000Y-144789000D02*
X241444000Y-141591000D01*
X235257000Y-148912000D02*
X237908000Y-148912000D01*
X233782000Y-150387000D02*
X235257000Y-148912000D01*
X241787000Y-141353000D02*
X241787000Y-141030000D01*
X240835000Y-156049000D02*
X238747000Y-156049000D01*
X241616000Y-155898000D02*
X241416000Y-155698000D01*
X237908000Y-148912000D02*
X238245000Y-148574000D01*
X238245000Y-148574000D02*
X238245000Y-144789000D01*
X245355000Y-155898000D02*
X241616000Y-155898000D01*
X232359000Y-156210000D02*
X230946000Y-154798000D01*
X241186000Y-155698000D02*
X240835000Y-156049000D01*
%TO.N,FSR_C0*%
X229317000Y-156102000D02*
X229730000Y-155688000D01*
X232763000Y-152902000D02*
X233509000Y-152155000D01*
X237966000Y-144783000D02*
X241435000Y-141314000D01*
X232191000Y-152902000D02*
X232763000Y-152902000D01*
X235141000Y-148710000D02*
X237824000Y-148710000D01*
X229730000Y-155362000D02*
X232191000Y-152902000D01*
X232191000Y-152902000D02*
X232065000Y-152775000D01*
X237824000Y-148710000D02*
X237966000Y-148568000D01*
X229730000Y-155688000D02*
X229730000Y-155362000D01*
X233509000Y-152155000D02*
X233509000Y-150342000D01*
X233509000Y-150342000D02*
X235141000Y-148710000D01*
X228070000Y-156102000D02*
X229317000Y-156102000D01*
X237966000Y-148568000D02*
X237966000Y-144783000D01*
%TO.N,FSR_C13*%
X244579000Y-155294000D02*
X241019000Y-155294000D01*
X254545000Y-152254000D02*
X248606000Y-146315000D01*
X248606000Y-146315000D02*
X248606000Y-142532000D01*
X239350000Y-155496000D02*
X239072000Y-155218000D01*
X240818000Y-155496000D02*
X239350000Y-155496000D01*
X254545000Y-152446000D02*
X253773000Y-153217000D01*
X246858000Y-153015000D02*
X244579000Y-155294000D01*
X253773000Y-153217000D02*
X248867000Y-153217000D01*
X254545000Y-152254000D02*
X254545000Y-152446000D01*
X248867000Y-153217000D02*
X248665000Y-153015000D01*
X248665000Y-153015000D02*
X246858000Y-153015000D01*
X241019000Y-155294000D02*
X240818000Y-155496000D01*
X248606000Y-142532000D02*
X248167000Y-142094000D01*
%TO.N,FSR_C12*%
X247150000Y-141206000D02*
X248188000Y-141206000D01*
X241103000Y-155496000D02*
X240751000Y-155848000D01*
X248596000Y-141615000D02*
X248596000Y-141809000D01*
X248582000Y-153217000D02*
X246942000Y-153217000D01*
X253857000Y-153419000D02*
X248783000Y-153419000D01*
X244663000Y-155496000D02*
X241103000Y-155496000D01*
X248783000Y-153419000D02*
X248582000Y-153217000D01*
X251755000Y-144968000D02*
X251755000Y-149017000D01*
X251755000Y-149017000D02*
X254613000Y-151875000D01*
X237624000Y-155872000D02*
X236530000Y-154779000D01*
X254876000Y-152138000D02*
X254876000Y-152399000D01*
X238639000Y-155872000D02*
X237624000Y-155872000D01*
X246942000Y-153217000D02*
X244663000Y-155496000D01*
X248188000Y-141206000D02*
X248596000Y-141615000D01*
X248596000Y-141809000D02*
X251755000Y-144968000D01*
X254876000Y-152399000D02*
X253857000Y-153419000D01*
X254613000Y-151875000D02*
X254876000Y-152138000D01*
X240751000Y-155848000D02*
X238663000Y-155848000D01*
X238663000Y-155848000D02*
X238639000Y-155872000D01*
%TO.N,FSR_C11*%
X239052000Y-148338000D02*
X239606000Y-147784000D01*
X243803000Y-141103000D02*
X245181000Y-141103000D01*
X239606000Y-147784000D02*
X239606000Y-145300000D01*
X232872000Y-154654000D02*
X237736000Y-149791000D01*
X246750000Y-140929000D02*
X248203000Y-140929000D01*
X246650000Y-141030000D02*
X246750000Y-140929000D01*
X253764000Y-150360000D02*
X254617000Y-151214000D01*
X245411000Y-141333000D02*
X246347000Y-141333000D01*
X246347000Y-141333000D02*
X246650000Y-141030000D01*
X238170000Y-149791000D02*
X239052000Y-148908000D01*
X239052000Y-148908000D02*
X239052000Y-148338000D01*
X248203000Y-140929000D02*
X248798000Y-141524000D01*
X237736000Y-149791000D02*
X238170000Y-149791000D01*
X248798000Y-141524000D02*
X248798000Y-141726000D01*
X245181000Y-141103000D02*
X245411000Y-141333000D01*
X232830000Y-154654000D02*
X232872000Y-154654000D01*
X239606000Y-145300000D02*
X243803000Y-141103000D01*
X248798000Y-141726000D02*
X253764000Y-146691000D01*
X253764000Y-146691000D02*
X253764000Y-150360000D01*
%TO.N,FSR_C10*%
X246374000Y-140728000D02*
X248289000Y-140728000D01*
X246046000Y-141056000D02*
X246374000Y-140728000D01*
X238086000Y-149589000D02*
X238850000Y-148825000D01*
X245870000Y-140881000D02*
X246046000Y-141056000D01*
X233426000Y-153408000D02*
X233834000Y-153408000D01*
X249000000Y-141439000D02*
X249000000Y-141642000D01*
X249000000Y-141642000D02*
X253965000Y-146608000D01*
X237652000Y-149589000D02*
X238086000Y-149589000D01*
X233834000Y-153408000D02*
X237652000Y-149589000D01*
X239404000Y-145217000D02*
X243740000Y-140881000D01*
X243740000Y-140881000D02*
X245870000Y-140881000D01*
X248289000Y-140728000D02*
X249000000Y-141439000D01*
X239404000Y-146523000D02*
X239404000Y-145217000D01*
X232105000Y-154460000D02*
X232373000Y-154460000D01*
X253965000Y-146608000D02*
X253965000Y-149984000D01*
X253965000Y-149984000D02*
X254611000Y-150630000D01*
X238850000Y-148825000D02*
X238850000Y-147077000D01*
X238850000Y-147077000D02*
X239404000Y-146523000D01*
X232373000Y-154460000D02*
X233426000Y-153408000D01*
%TO.N,FSR_R1*%
X243712000Y-140324000D02*
X248944000Y-140324000D01*
X230164000Y-151095000D02*
X230164000Y-146045000D01*
X229317000Y-151942000D02*
X230164000Y-151095000D01*
X248944000Y-140324000D02*
X249650000Y-141030000D01*
X238926000Y-145111000D02*
X243712000Y-140324000D01*
%TO.N,FSR_R0*%
X237765000Y-144593000D02*
X237765000Y-146983000D01*
X235372000Y-147693000D02*
X232704000Y-145025000D01*
X249480000Y-141731000D02*
X251156000Y-141731000D01*
X237765000Y-146983000D02*
X237055000Y-147693000D01*
X232246000Y-149172000D02*
X232306000Y-149232000D01*
X232477000Y-145025000D02*
X232246000Y-145256000D01*
X232704000Y-145025000D02*
X232477000Y-145025000D01*
X251325000Y-141562000D02*
X251325000Y-141265000D01*
X232246000Y-145256000D02*
X232246000Y-149172000D01*
X227138000Y-146808000D02*
X227079000Y-146868000D01*
X227079000Y-148943000D02*
X227368000Y-149232000D01*
X251156000Y-141731000D02*
X251325000Y-141562000D01*
X242664000Y-139694000D02*
X237765000Y-144593000D01*
X249276000Y-141528000D02*
X249480000Y-141731000D01*
X237055000Y-147693000D02*
X235372000Y-147693000D01*
X227079000Y-146868000D02*
X227079000Y-148943000D01*
X251325000Y-141265000D02*
X249754000Y-139694000D01*
X249754000Y-139694000D02*
X242664000Y-139694000D01*
%TO.N,FSR_R3*%
X241633000Y-141792000D02*
X243505000Y-139921000D01*
X237991000Y-149114000D02*
X238447000Y-148658000D01*
X238447000Y-144904000D02*
X241559000Y-141792000D01*
X235035000Y-149543000D02*
X235464000Y-149114000D01*
X238447000Y-148658000D02*
X238447000Y-144904000D01*
X235464000Y-149114000D02*
X237991000Y-149114000D01*
X243505000Y-139921000D02*
X249531000Y-139921000D01*
X249531000Y-139921000D02*
X250650000Y-141040000D01*
X241559000Y-141792000D02*
X241633000Y-141792000D01*
%TO.N,X24L_1*%
X118228000Y-145278000D02*
X118228000Y-150250000D01*
X120936000Y-142570000D02*
X118228000Y-145278000D01*
%TD*%
M02*
