%TF.GenerationSoftware,KiCad,Pcbnew,10.0.4*%
%TF.CreationDate,2026-09-02T14:46:28+02:00*%
%TF.ProjectId,smartbag_core,736d6172-7462-4616-975f-636f72652e6b,rev?*%
%TF.SameCoordinates,Original*%
%TF.FileFunction,Drillmap*%
%TF.FilePolarity,Positive*%
%FSLAX45Y45*%
G04 Gerber Fmt 4.5, Leading zero omitted, Abs format (unit mm)*
G04 Created by KiCad (PCBNEW 10.0.4) date 2026-09-02 14:46:28*
%MOMM*%
%LPD*%
G01*
G04 APERTURE LIST*
%ADD10C,0.100000*%
%ADD11C,0.200000*%
G04 APERTURE END LIST*
D10*
X11200000Y-13800000D02*
X12600000Y-13800000D01*
X11200000Y-15800000D02*
X11200000Y-13800000D01*
X12600000Y-13800000D02*
X12600000Y-13950000D01*
X12600000Y-13950000D02*
X14800000Y-13950000D01*
X12600000Y-15650000D02*
X12600000Y-15800000D01*
X12600000Y-15800000D02*
X11200000Y-15800000D01*
X14800000Y-13800000D02*
X27200000Y-13800000D01*
X14800000Y-13950000D02*
X14800000Y-13800000D01*
X14800000Y-15650000D02*
X12600000Y-15650000D01*
X14800000Y-15800000D02*
X14800000Y-15650000D01*
X27200000Y-13800000D02*
X27200000Y-13950000D01*
X27200000Y-13950000D02*
X29400000Y-13950000D01*
X27200000Y-15650000D02*
X27200000Y-15800000D01*
X27200000Y-15800000D02*
X14800000Y-15800000D01*
X29400000Y-13800000D02*
X30800000Y-13800000D01*
X29400000Y-13950000D02*
X29400000Y-13800000D01*
X29400000Y-15650000D02*
X27200000Y-15650000D01*
X29400000Y-15800000D02*
X29400000Y-15650000D01*
X30800000Y-13800000D02*
X30800000Y-15800000D01*
X30800000Y-15800000D02*
X29400000Y-15800000D01*
D11*
D10*
X11349950Y-15392050D02*
X11359950Y-15402050D01*
X11359950Y-15392050D02*
X11349950Y-15402050D01*
X11405340Y-14153340D02*
X11415340Y-14163340D01*
X11415340Y-14153340D02*
X11405340Y-14163340D01*
X11539020Y-15105910D02*
X11549020Y-15115910D01*
X11549020Y-15105910D02*
X11539020Y-15115910D01*
X11595000Y-14035000D02*
X11605000Y-14045000D01*
X11605000Y-14035000D02*
X11595000Y-14045000D01*
X11595000Y-15555000D02*
X11605000Y-15565000D01*
X11605000Y-15555000D02*
X11595000Y-15565000D01*
X11615920Y-14606570D02*
X11625920Y-14616570D01*
X11625920Y-14606570D02*
X11615920Y-14616570D01*
X11616720Y-15056710D02*
X11626720Y-15066710D01*
X11626720Y-15056710D02*
X11616720Y-15066710D01*
X11625350Y-14970000D02*
X11635350Y-14980000D01*
X11635350Y-14970000D02*
X11625350Y-14980000D01*
X11630480Y-15020000D02*
X11640480Y-15030000D01*
X11640480Y-15020000D02*
X11630480Y-15030000D01*
X11676340Y-14565650D02*
X11686340Y-14575650D01*
X11686340Y-14565650D02*
X11676340Y-14575650D01*
X11695540Y-14845540D02*
X11705540Y-14855540D01*
X11705540Y-14845540D02*
X11695540Y-14855540D01*
X11719000Y-14440000D02*
X11729000Y-14450000D01*
X11729000Y-14440000D02*
X11719000Y-14450000D01*
X11719000Y-15150000D02*
X11729000Y-15160000D01*
X11729000Y-15150000D02*
X11719000Y-15160000D01*
X11720000Y-14620000D02*
X11730000Y-14630000D01*
X11730000Y-14620000D02*
X11720000Y-14630000D01*
X11720000Y-14670000D02*
X11730000Y-14680000D01*
X11730000Y-14670000D02*
X11720000Y-14680000D01*
X11720000Y-14770000D02*
X11730000Y-14780000D01*
X11730000Y-14770000D02*
X11720000Y-14780000D01*
X11720000Y-14820000D02*
X11730000Y-14830000D01*
X11730000Y-14820000D02*
X11720000Y-14830000D01*
X11720000Y-14920000D02*
X11730000Y-14930000D01*
X11730000Y-14920000D02*
X11720000Y-14930000D01*
X11720000Y-14970000D02*
X11730000Y-14980000D01*
X11730000Y-14970000D02*
X11720000Y-14980000D01*
X11765660Y-14756310D02*
X11775660Y-14766310D01*
X11775660Y-14756310D02*
X11765660Y-14766310D01*
X11770000Y-14620000D02*
X11780000Y-14630000D01*
X11780000Y-14620000D02*
X11770000Y-14630000D01*
X11770000Y-14970000D02*
X11780000Y-14980000D01*
X11780000Y-14970000D02*
X11770000Y-14980000D01*
X11869430Y-14250000D02*
X11879430Y-14260000D01*
X11879430Y-14250000D02*
X11869430Y-14260000D01*
X11870000Y-14620000D02*
X11880000Y-14630000D01*
X11880000Y-14620000D02*
X11870000Y-14630000D01*
X11870000Y-14970000D02*
X11880000Y-14980000D01*
X11880000Y-14970000D02*
X11870000Y-14980000D01*
X11870000Y-15056110D02*
X11880000Y-15066110D01*
X11880000Y-15056110D02*
X11870000Y-15066110D01*
X11886290Y-14911070D02*
X11896290Y-14921070D01*
X11896290Y-14911070D02*
X11886290Y-14921070D01*
X11894500Y-14500410D02*
X11904500Y-14510410D01*
X11904500Y-14500410D02*
X11894500Y-14510410D01*
X11920000Y-14620000D02*
X11930000Y-14630000D01*
X11930000Y-14620000D02*
X11920000Y-14630000D01*
X11920000Y-14970000D02*
X11930000Y-14980000D01*
X11930000Y-14970000D02*
X11920000Y-14980000D01*
X11970000Y-14620000D02*
X11980000Y-14630000D01*
X11980000Y-14620000D02*
X11970000Y-14630000D01*
X11970000Y-14970000D02*
X11980000Y-14980000D01*
X11980000Y-14970000D02*
X11970000Y-14980000D01*
X11970000Y-15061920D02*
X11980000Y-15071920D01*
X11980000Y-15061920D02*
X11970000Y-15071920D01*
X11995000Y-14035000D02*
X12005000Y-14045000D01*
X12005000Y-14035000D02*
X11995000Y-14045000D01*
X11995000Y-15555000D02*
X12005000Y-15565000D01*
X12005000Y-15555000D02*
X11995000Y-15565000D01*
X12013000Y-14440000D02*
X12023000Y-14450000D01*
X12023000Y-14440000D02*
X12013000Y-14450000D01*
X12020000Y-14620000D02*
X12030000Y-14630000D01*
X12030000Y-14620000D02*
X12020000Y-14630000D01*
X12020000Y-14970000D02*
X12030000Y-14980000D01*
X12030000Y-14970000D02*
X12020000Y-14980000D01*
X12054230Y-14778130D02*
X12064230Y-14788130D01*
X12064230Y-14778130D02*
X12054230Y-14788130D01*
X12070000Y-14620000D02*
X12080000Y-14630000D01*
X12080000Y-14620000D02*
X12070000Y-14630000D01*
X12070000Y-14970000D02*
X12080000Y-14980000D01*
X12080000Y-14970000D02*
X12070000Y-14980000D01*
X12297110Y-14142370D02*
X12307110Y-14152370D01*
X12307110Y-14142370D02*
X12297110Y-14152370D01*
X12795000Y-14035000D02*
X12805000Y-14045000D01*
X12805000Y-14035000D02*
X12795000Y-14045000D01*
X12795000Y-15555000D02*
X12805000Y-15565000D01*
X12805000Y-15555000D02*
X12795000Y-15565000D01*
X13395000Y-14535000D02*
X13405000Y-14545000D01*
X13405000Y-14535000D02*
X13395000Y-14545000D01*
X13395000Y-15055000D02*
X13405000Y-15065000D01*
X13405000Y-15055000D02*
X13395000Y-15065000D01*
X13695000Y-14535000D02*
X13705000Y-14545000D01*
X13705000Y-14535000D02*
X13695000Y-14545000D01*
X13695000Y-15055000D02*
X13705000Y-15065000D01*
X13705000Y-15055000D02*
X13695000Y-15065000D01*
X13995000Y-14535000D02*
X14005000Y-14545000D01*
X14005000Y-14535000D02*
X13995000Y-14545000D01*
X13995000Y-15055000D02*
X14005000Y-15065000D01*
X14005000Y-15055000D02*
X13995000Y-15065000D01*
X14295000Y-14535000D02*
X14305000Y-14545000D01*
X14305000Y-14535000D02*
X14295000Y-14545000D01*
X14295000Y-15055000D02*
X14305000Y-15065000D01*
X14305000Y-15055000D02*
X14295000Y-15065000D01*
X14595000Y-14535000D02*
X14605000Y-14545000D01*
X14605000Y-14535000D02*
X14595000Y-14545000D01*
X14595000Y-15055000D02*
X14605000Y-15065000D01*
X14605000Y-15055000D02*
X14595000Y-15065000D01*
X14895000Y-14535000D02*
X14905000Y-14545000D01*
X14905000Y-14535000D02*
X14895000Y-14545000D01*
X14895000Y-15055000D02*
X14905000Y-15065000D01*
X14905000Y-15055000D02*
X14895000Y-15065000D01*
X15195000Y-14535000D02*
X15205000Y-14545000D01*
X15205000Y-14535000D02*
X15195000Y-14545000D01*
X15195000Y-15055000D02*
X15205000Y-15065000D01*
X15205000Y-15055000D02*
X15195000Y-15065000D01*
X15340570Y-14856000D02*
X15350570Y-14866000D01*
X15350570Y-14856000D02*
X15340570Y-14866000D01*
X15495000Y-14535000D02*
X15505000Y-14545000D01*
X15505000Y-14535000D02*
X15495000Y-14545000D01*
X15495000Y-15055000D02*
X15505000Y-15065000D01*
X15505000Y-15055000D02*
X15495000Y-15065000D01*
X15795000Y-14535000D02*
X15805000Y-14545000D01*
X15805000Y-14535000D02*
X15795000Y-14545000D01*
X15795000Y-15055000D02*
X15805000Y-15065000D01*
X15805000Y-15055000D02*
X15795000Y-15065000D01*
X15980300Y-15184770D02*
X15990300Y-15194770D01*
X15990300Y-15184770D02*
X15980300Y-15194770D01*
X16095000Y-14535000D02*
X16105000Y-14545000D01*
X16105000Y-14535000D02*
X16095000Y-14545000D01*
X16095000Y-15055000D02*
X16105000Y-15065000D01*
X16105000Y-15055000D02*
X16095000Y-15065000D01*
X16155970Y-14789160D02*
X16165970Y-14799160D01*
X16165970Y-14789160D02*
X16155970Y-14799160D01*
X16374400Y-14894130D02*
X16384400Y-14904130D01*
X16384400Y-14894130D02*
X16374400Y-14904130D01*
X16395000Y-13865000D02*
X16405000Y-13875000D01*
X16405000Y-13865000D02*
X16395000Y-13875000D01*
X16668940Y-15126490D02*
X16678940Y-15136490D01*
X16678940Y-15126490D02*
X16668940Y-15136490D01*
X16684860Y-14110870D02*
X16694860Y-14120870D01*
X16694860Y-14110870D02*
X16684860Y-14120870D01*
X16720000Y-15137410D02*
X16730000Y-15147410D01*
X16730000Y-15137410D02*
X16720000Y-15147410D01*
X16786210Y-15163630D02*
X16796210Y-15173630D01*
X16796210Y-15163630D02*
X16786210Y-15173630D01*
X16795000Y-13865000D02*
X16805000Y-13875000D01*
X16805000Y-13865000D02*
X16795000Y-13875000D01*
X16820000Y-15109360D02*
X16830000Y-15119360D01*
X16830000Y-15109360D02*
X16820000Y-15119360D01*
X16884250Y-15108500D02*
X16894250Y-15118500D01*
X16894250Y-15108500D02*
X16884250Y-15118500D01*
X16887180Y-14184130D02*
X16897180Y-14194130D01*
X16897180Y-14184130D02*
X16887180Y-14194130D01*
X16941070Y-15107870D02*
X16951070Y-15117870D01*
X16951070Y-15107870D02*
X16941070Y-15117870D01*
X16970000Y-15176010D02*
X16980000Y-15186010D01*
X16980000Y-15176010D02*
X16970000Y-15186010D01*
X17009760Y-15107810D02*
X17019760Y-15117810D01*
X17019760Y-15107810D02*
X17009760Y-15117810D01*
X17024110Y-14196530D02*
X17034110Y-14206530D01*
X17034110Y-14196530D02*
X17024110Y-14206530D01*
X17070000Y-15109960D02*
X17080000Y-15119960D01*
X17080000Y-15109960D02*
X17070000Y-15119960D01*
X17108690Y-14715520D02*
X17118690Y-14725520D01*
X17118690Y-14715520D02*
X17108690Y-14725520D01*
X17120000Y-15107820D02*
X17130000Y-15117820D01*
X17130000Y-15107820D02*
X17120000Y-15117820D01*
X17195000Y-13865000D02*
X17205000Y-13875000D01*
X17205000Y-13865000D02*
X17195000Y-13875000D01*
X17251830Y-14997930D02*
X17261830Y-15007930D01*
X17261830Y-14997930D02*
X17251830Y-15007930D01*
X17595000Y-13865000D02*
X17605000Y-13875000D01*
X17605000Y-13865000D02*
X17595000Y-13875000D01*
X17595000Y-15725000D02*
X17605000Y-15735000D01*
X17605000Y-15725000D02*
X17595000Y-15735000D01*
X17988530Y-14488130D02*
X17998530Y-14498130D01*
X17998530Y-14488130D02*
X17988530Y-14498130D01*
X17995000Y-13865000D02*
X18005000Y-13875000D01*
X18005000Y-13865000D02*
X17995000Y-13875000D01*
X17995000Y-15725000D02*
X18005000Y-15735000D01*
X18005000Y-15725000D02*
X17995000Y-15735000D01*
X18175000Y-14400000D02*
X18185000Y-14410000D01*
X18185000Y-14400000D02*
X18175000Y-14410000D01*
X18260110Y-14867900D02*
X18270110Y-14877900D01*
X18270110Y-14867900D02*
X18260110Y-14877900D01*
X18394300Y-14805500D02*
X18404300Y-14815500D01*
X18404300Y-14805500D02*
X18394300Y-14815500D01*
X18395000Y-13865000D02*
X18405000Y-13875000D01*
X18405000Y-13865000D02*
X18395000Y-13875000D01*
X18395000Y-15725000D02*
X18405000Y-15735000D01*
X18405000Y-15725000D02*
X18395000Y-15735000D01*
X18485090Y-14236260D02*
X18495090Y-14246260D01*
X18495090Y-14236260D02*
X18485090Y-14246260D01*
X18499630Y-15194250D02*
X18509630Y-15204250D01*
X18509630Y-15194250D02*
X18499630Y-15204250D01*
X18638280Y-14152920D02*
X18648280Y-14162920D01*
X18648280Y-14152920D02*
X18638280Y-14162920D01*
X18683750Y-15390000D02*
X18693750Y-15400000D01*
X18693750Y-15390000D02*
X18683750Y-15400000D01*
X18745570Y-14587540D02*
X18755570Y-14597540D01*
X18755570Y-14587540D02*
X18745570Y-14597540D01*
X18748020Y-15480220D02*
X18758020Y-15490220D01*
X18758020Y-15480220D02*
X18748020Y-15490220D01*
X18749190Y-15059330D02*
X18759190Y-15069330D01*
X18759190Y-15059330D02*
X18749190Y-15069330D01*
X18785830Y-15275130D02*
X18795830Y-15285130D01*
X18795830Y-15275130D02*
X18785830Y-15285130D01*
X18785830Y-15313510D02*
X18795830Y-15323510D01*
X18795830Y-15313510D02*
X18785830Y-15323510D01*
X18795000Y-13865000D02*
X18805000Y-13875000D01*
X18805000Y-13865000D02*
X18795000Y-13875000D01*
X18795000Y-15725000D02*
X18805000Y-15735000D01*
X18805000Y-15725000D02*
X18795000Y-15735000D01*
X18814320Y-14639370D02*
X18824320Y-14649370D01*
X18824320Y-14639370D02*
X18814320Y-14649370D01*
X18853750Y-14905000D02*
X18863750Y-14915000D01*
X18863750Y-14905000D02*
X18853750Y-14915000D01*
X18856080Y-14834140D02*
X18866080Y-14844140D01*
X18866080Y-14834140D02*
X18856080Y-14844140D01*
X18883000Y-14945510D02*
X18893000Y-14955510D01*
X18893000Y-14945510D02*
X18883000Y-14955510D01*
X18973000Y-14895000D02*
X18983000Y-14905000D01*
X18983000Y-14895000D02*
X18973000Y-14905000D01*
X18980210Y-14474910D02*
X18990210Y-14484910D01*
X18990210Y-14474910D02*
X18980210Y-14484910D01*
X18997300Y-15604880D02*
X19007300Y-15614880D01*
X19007300Y-15604880D02*
X18997300Y-15614880D01*
X19040000Y-15134980D02*
X19050000Y-15144980D01*
X19050000Y-15134980D02*
X19040000Y-15144980D01*
X19065000Y-14575000D02*
X19075000Y-14585000D01*
X19075000Y-14575000D02*
X19065000Y-14585000D01*
X19065000Y-14615000D02*
X19075000Y-14625000D01*
X19075000Y-14615000D02*
X19065000Y-14625000D01*
X19065000Y-14655000D02*
X19075000Y-14665000D01*
X19075000Y-14655000D02*
X19065000Y-14665000D01*
X19065000Y-14695000D02*
X19075000Y-14705000D01*
X19075000Y-14695000D02*
X19065000Y-14705000D01*
X19065000Y-14735000D02*
X19075000Y-14745000D01*
X19075000Y-14735000D02*
X19065000Y-14745000D01*
X19065000Y-14775000D02*
X19075000Y-14785000D01*
X19075000Y-14775000D02*
X19065000Y-14785000D01*
X19065000Y-14815000D02*
X19075000Y-14825000D01*
X19075000Y-14815000D02*
X19065000Y-14825000D01*
X19065000Y-14855000D02*
X19075000Y-14865000D01*
X19075000Y-14855000D02*
X19065000Y-14865000D01*
X19065000Y-14895000D02*
X19075000Y-14905000D01*
X19075000Y-14895000D02*
X19065000Y-14905000D01*
X19065000Y-14935000D02*
X19075000Y-14945000D01*
X19075000Y-14935000D02*
X19065000Y-14945000D01*
X19065000Y-14975000D02*
X19075000Y-14985000D01*
X19075000Y-14975000D02*
X19065000Y-14985000D01*
X19065000Y-15015000D02*
X19075000Y-15025000D01*
X19075000Y-15015000D02*
X19065000Y-15025000D01*
X19111420Y-15086480D02*
X19121420Y-15096480D01*
X19121420Y-15086480D02*
X19111420Y-15096480D01*
X19130480Y-15047850D02*
X19140480Y-15057850D01*
X19140480Y-15047850D02*
X19130480Y-15057850D01*
X19168000Y-14330000D02*
X19178000Y-14340000D01*
X19178000Y-14330000D02*
X19168000Y-14340000D01*
X19175000Y-14465000D02*
X19185000Y-14475000D01*
X19185000Y-14465000D02*
X19175000Y-14475000D01*
X19175000Y-15125000D02*
X19185000Y-15135000D01*
X19185000Y-15125000D02*
X19175000Y-15135000D01*
X19195000Y-13865000D02*
X19205000Y-13875000D01*
X19205000Y-13865000D02*
X19195000Y-13875000D01*
X19195000Y-15725000D02*
X19205000Y-15735000D01*
X19205000Y-15725000D02*
X19195000Y-15735000D01*
X19215000Y-15125000D02*
X19225000Y-15135000D01*
X19225000Y-15125000D02*
X19215000Y-15135000D01*
X19255000Y-14465000D02*
X19265000Y-14475000D01*
X19265000Y-14465000D02*
X19255000Y-14475000D01*
X19255000Y-15125000D02*
X19265000Y-15135000D01*
X19265000Y-15125000D02*
X19255000Y-15135000D01*
X19294870Y-15184710D02*
X19304870Y-15194710D01*
X19304870Y-15184710D02*
X19294870Y-15194710D01*
X19295000Y-14465000D02*
X19305000Y-14475000D01*
X19305000Y-14465000D02*
X19295000Y-14475000D01*
X19295000Y-15125000D02*
X19305000Y-15135000D01*
X19305000Y-15125000D02*
X19295000Y-15135000D01*
X19326030Y-14568377D02*
X19336030Y-14578377D01*
X19336030Y-14568377D02*
X19326030Y-14578377D01*
X19335000Y-15125000D02*
X19345000Y-15135000D01*
X19345000Y-15125000D02*
X19335000Y-15135000D01*
X19342950Y-14336130D02*
X19352950Y-14346130D01*
X19352950Y-14336130D02*
X19342950Y-14346130D01*
X19375000Y-14465000D02*
X19385000Y-14475000D01*
X19385000Y-14465000D02*
X19375000Y-14475000D01*
X19375000Y-15125000D02*
X19385000Y-15135000D01*
X19385000Y-15125000D02*
X19375000Y-15135000D01*
X19415000Y-14465000D02*
X19425000Y-14475000D01*
X19425000Y-14465000D02*
X19415000Y-14475000D01*
X19415000Y-15125000D02*
X19425000Y-15135000D01*
X19425000Y-15125000D02*
X19415000Y-15135000D01*
X19446360Y-15309360D02*
X19456360Y-15319360D01*
X19456360Y-15309360D02*
X19446360Y-15319360D01*
X19455000Y-15125000D02*
X19465000Y-15135000D01*
X19465000Y-15125000D02*
X19455000Y-15135000D01*
X19495000Y-14465000D02*
X19505000Y-14475000D01*
X19505000Y-14465000D02*
X19495000Y-14475000D01*
X19495000Y-15125000D02*
X19505000Y-15135000D01*
X19505000Y-15125000D02*
X19495000Y-15135000D01*
X19528000Y-14330000D02*
X19538000Y-14340000D01*
X19538000Y-14330000D02*
X19528000Y-14340000D01*
X19528000Y-15260000D02*
X19538000Y-15270000D01*
X19538000Y-15260000D02*
X19528000Y-15270000D01*
X19535000Y-14465000D02*
X19545000Y-14475000D01*
X19545000Y-14465000D02*
X19535000Y-14475000D01*
X19575000Y-14465000D02*
X19585000Y-14475000D01*
X19585000Y-14465000D02*
X19575000Y-14475000D01*
X19575000Y-15125000D02*
X19585000Y-15135000D01*
X19585000Y-15125000D02*
X19575000Y-15135000D01*
X19588420Y-15320070D02*
X19598420Y-15330070D01*
X19598420Y-15320070D02*
X19588420Y-15330070D01*
X19595000Y-13865000D02*
X19605000Y-13875000D01*
X19605000Y-13865000D02*
X19595000Y-13875000D01*
X19595000Y-15725000D02*
X19605000Y-15735000D01*
X19605000Y-15725000D02*
X19595000Y-15735000D01*
X19615000Y-14465000D02*
X19625000Y-14475000D01*
X19625000Y-14465000D02*
X19615000Y-14475000D01*
X19615000Y-15125000D02*
X19625000Y-15135000D01*
X19625000Y-15125000D02*
X19615000Y-15135000D01*
X19623940Y-14233800D02*
X19633940Y-14243800D01*
X19633940Y-14233800D02*
X19623940Y-14243800D01*
X19725000Y-14575000D02*
X19735000Y-14585000D01*
X19735000Y-14575000D02*
X19725000Y-14585000D01*
X19725000Y-14615000D02*
X19735000Y-14625000D01*
X19735000Y-14615000D02*
X19725000Y-14625000D01*
X19725000Y-14655000D02*
X19735000Y-14665000D01*
X19735000Y-14655000D02*
X19725000Y-14665000D01*
X19725000Y-14695000D02*
X19735000Y-14705000D01*
X19735000Y-14695000D02*
X19725000Y-14705000D01*
X19725000Y-14775000D02*
X19735000Y-14785000D01*
X19735000Y-14775000D02*
X19725000Y-14785000D01*
X19725000Y-14815000D02*
X19735000Y-14825000D01*
X19735000Y-14815000D02*
X19725000Y-14825000D01*
X19725000Y-14855000D02*
X19735000Y-14865000D01*
X19735000Y-14855000D02*
X19725000Y-14865000D01*
X19725000Y-14895000D02*
X19735000Y-14905000D01*
X19735000Y-14895000D02*
X19725000Y-14905000D01*
X19725000Y-14935000D02*
X19735000Y-14945000D01*
X19735000Y-14935000D02*
X19725000Y-14945000D01*
X19725000Y-14975000D02*
X19735000Y-14985000D01*
X19735000Y-14975000D02*
X19725000Y-14985000D01*
X19725000Y-15015000D02*
X19735000Y-15025000D01*
X19735000Y-15015000D02*
X19725000Y-15025000D01*
X19804120Y-15056730D02*
X19814120Y-15066730D01*
X19814120Y-15056730D02*
X19804120Y-15066730D01*
X19864170Y-14257400D02*
X19874170Y-14267400D01*
X19874170Y-14257400D02*
X19864170Y-14267400D01*
X19914000Y-14197120D02*
X19924000Y-14207120D01*
X19924000Y-14197120D02*
X19914000Y-14207120D01*
X19916780Y-15227350D02*
X19926780Y-15237350D01*
X19926780Y-15227350D02*
X19916780Y-15237350D01*
X19983000Y-14535000D02*
X19993000Y-14545000D01*
X19993000Y-14535000D02*
X19983000Y-14545000D01*
X19995000Y-13865000D02*
X20005000Y-13875000D01*
X20005000Y-13865000D02*
X19995000Y-13875000D01*
X19995000Y-15725000D02*
X20005000Y-15735000D01*
X20005000Y-15725000D02*
X19995000Y-15735000D01*
X20109720Y-14495690D02*
X20119720Y-14505690D01*
X20119720Y-14495690D02*
X20109720Y-14505690D01*
X20153090Y-15234830D02*
X20163090Y-15244830D01*
X20163090Y-15234830D02*
X20153090Y-15244830D01*
X20250990Y-14230810D02*
X20260990Y-14240810D01*
X20260990Y-14230810D02*
X20250990Y-14240810D01*
X20377330Y-14815000D02*
X20387330Y-14825000D01*
X20387330Y-14815000D02*
X20377330Y-14825000D01*
X20395000Y-13865000D02*
X20405000Y-13875000D01*
X20405000Y-13865000D02*
X20395000Y-13875000D01*
X20395000Y-15725000D02*
X20405000Y-15735000D01*
X20405000Y-15725000D02*
X20395000Y-15735000D01*
X20430260Y-15033280D02*
X20440260Y-15043280D01*
X20440260Y-15033280D02*
X20430260Y-15043280D01*
X20490000Y-14036150D02*
X20500000Y-14046150D01*
X20500000Y-14036150D02*
X20490000Y-14046150D01*
X20545000Y-14029830D02*
X20555000Y-14039830D01*
X20555000Y-14029830D02*
X20545000Y-14039830D01*
X20620890Y-14966860D02*
X20630890Y-14976860D01*
X20630890Y-14966860D02*
X20620890Y-14976860D01*
X20664780Y-15022390D02*
X20674780Y-15032390D01*
X20674780Y-15022390D02*
X20664780Y-15032390D01*
X20795000Y-13865000D02*
X20805000Y-13875000D01*
X20805000Y-13865000D02*
X20795000Y-13875000D01*
X20795000Y-15725000D02*
X20805000Y-15735000D01*
X20805000Y-15725000D02*
X20795000Y-15735000D01*
X20864000Y-15310620D02*
X20874000Y-15320620D01*
X20874000Y-15310620D02*
X20864000Y-15320620D01*
X20870450Y-15267710D02*
X20880450Y-15277710D01*
X20880450Y-15267710D02*
X20870450Y-15277710D01*
X20874200Y-14231000D02*
X20884200Y-14241000D01*
X20884200Y-14231000D02*
X20874200Y-14241000D01*
X20879000Y-14492560D02*
X20889000Y-14502560D01*
X20889000Y-14492560D02*
X20879000Y-14502560D01*
X20879000Y-14674400D02*
X20889000Y-14684400D01*
X20889000Y-14674400D02*
X20879000Y-14684400D01*
X21010000Y-14580000D02*
X21020000Y-14590000D01*
X21020000Y-14580000D02*
X21010000Y-14590000D01*
X21010000Y-14730000D02*
X21020000Y-14740000D01*
X21020000Y-14730000D02*
X21010000Y-14740000D01*
X21020160Y-15276380D02*
X21030160Y-15286380D01*
X21030160Y-15276380D02*
X21020160Y-15286380D01*
X21102000Y-14620000D02*
X21112000Y-14630000D01*
X21112000Y-14620000D02*
X21102000Y-14630000D01*
X21102000Y-14720000D02*
X21112000Y-14730000D01*
X21112000Y-14720000D02*
X21102000Y-14730000D01*
X21102000Y-14770000D02*
X21112000Y-14780000D01*
X21112000Y-14770000D02*
X21102000Y-14780000D01*
X21102000Y-14820000D02*
X21112000Y-14830000D01*
X21112000Y-14820000D02*
X21102000Y-14830000D01*
X21102000Y-14920000D02*
X21112000Y-14930000D01*
X21112000Y-14920000D02*
X21102000Y-14930000D01*
X21120010Y-15381190D02*
X21130010Y-15391190D01*
X21130010Y-15381190D02*
X21120010Y-15391190D01*
X21195000Y-13865000D02*
X21205000Y-13875000D01*
X21205000Y-13865000D02*
X21195000Y-13875000D01*
X21195000Y-15725000D02*
X21205000Y-15735000D01*
X21205000Y-15725000D02*
X21195000Y-15735000D01*
X21198700Y-14381200D02*
X21208700Y-14391200D01*
X21208700Y-14381200D02*
X21198700Y-14391200D01*
X21205700Y-14516200D02*
X21215700Y-14526200D01*
X21215700Y-14516200D02*
X21205700Y-14526200D01*
X21236710Y-15199680D02*
X21246710Y-15209680D01*
X21246710Y-15199680D02*
X21236710Y-15209680D01*
X21355700Y-14516200D02*
X21365700Y-14526200D01*
X21365700Y-14516200D02*
X21355700Y-14526200D01*
X21355700Y-15073800D02*
X21365700Y-15083800D01*
X21365700Y-15073800D02*
X21355700Y-15083800D01*
X21405700Y-14516200D02*
X21415700Y-14526200D01*
X21415700Y-14516200D02*
X21405700Y-14526200D01*
X21405700Y-15073800D02*
X21415700Y-15083800D01*
X21415700Y-15073800D02*
X21405700Y-15083800D01*
X21455700Y-15073800D02*
X21465700Y-15083800D01*
X21465700Y-15073800D02*
X21455700Y-15083800D01*
X21505700Y-15073800D02*
X21515700Y-15083800D01*
X21515700Y-15073800D02*
X21505700Y-15083800D01*
X21518700Y-15208800D02*
X21528700Y-15218800D01*
X21528700Y-15208800D02*
X21518700Y-15218800D01*
X21536440Y-15373340D02*
X21546440Y-15383340D01*
X21546440Y-15373340D02*
X21536440Y-15383340D01*
X21555700Y-14516200D02*
X21565700Y-14526200D01*
X21565700Y-14516200D02*
X21555700Y-14526200D01*
X21555700Y-15073800D02*
X21565700Y-15083800D01*
X21565700Y-15073800D02*
X21555700Y-15083800D01*
X21595000Y-13865000D02*
X21605000Y-13875000D01*
X21605000Y-13865000D02*
X21595000Y-13875000D01*
X21595000Y-15725000D02*
X21605000Y-15735000D01*
X21605000Y-15725000D02*
X21595000Y-15735000D01*
X21659400Y-14720000D02*
X21669400Y-14730000D01*
X21669400Y-14720000D02*
X21659400Y-14730000D01*
X21659400Y-14770000D02*
X21669400Y-14780000D01*
X21669400Y-14770000D02*
X21659400Y-14780000D01*
X21659400Y-14820000D02*
X21669400Y-14830000D01*
X21669400Y-14820000D02*
X21659400Y-14830000D01*
X21659400Y-14870000D02*
X21669400Y-14880000D01*
X21669400Y-14870000D02*
X21659400Y-14880000D01*
X21659400Y-14920000D02*
X21669400Y-14930000D01*
X21669400Y-14920000D02*
X21659400Y-14930000D01*
X21659400Y-14970000D02*
X21669400Y-14980000D01*
X21669400Y-14970000D02*
X21659400Y-14980000D01*
X21733680Y-15378560D02*
X21743680Y-15388560D01*
X21743680Y-15378560D02*
X21733680Y-15388560D01*
X21832190Y-14898800D02*
X21842190Y-14908800D01*
X21842190Y-14898800D02*
X21832190Y-14908800D01*
X21902380Y-15386190D02*
X21912380Y-15396190D01*
X21912380Y-15386190D02*
X21902380Y-15396190D01*
X21917500Y-15010000D02*
X21927500Y-15020000D01*
X21927500Y-15010000D02*
X21917500Y-15020000D01*
X21995000Y-13865000D02*
X22005000Y-13875000D01*
X22005000Y-13865000D02*
X21995000Y-13875000D01*
X21995000Y-15725000D02*
X22005000Y-15735000D01*
X22005000Y-15725000D02*
X21995000Y-15735000D01*
X22285510Y-14844150D02*
X22295510Y-14854150D01*
X22295510Y-14844150D02*
X22285510Y-14854150D01*
X22335700Y-14897610D02*
X22345700Y-14907610D01*
X22345700Y-14897610D02*
X22335700Y-14907610D01*
X22395000Y-13865000D02*
X22405000Y-13875000D01*
X22405000Y-13865000D02*
X22395000Y-13875000D01*
X22519280Y-14999010D02*
X22529280Y-15009010D01*
X22529280Y-14999010D02*
X22519280Y-15009010D01*
X22535260Y-14716470D02*
X22545260Y-14726470D01*
X22545260Y-14716470D02*
X22535260Y-14726470D01*
X22590590Y-15111950D02*
X22600590Y-15121950D01*
X22600590Y-15111950D02*
X22590590Y-15121950D01*
X22606550Y-14125000D02*
X22616550Y-14135000D01*
X22616550Y-14125000D02*
X22606550Y-14135000D01*
X22626650Y-14846480D02*
X22636650Y-14856480D01*
X22636650Y-14846480D02*
X22626650Y-14856480D01*
X22642600Y-14903390D02*
X22652600Y-14913390D01*
X22652600Y-14903390D02*
X22642600Y-14913390D01*
X22742150Y-14091050D02*
X22752150Y-14101050D01*
X22752150Y-14091050D02*
X22742150Y-14101050D01*
X22774790Y-14574750D02*
X22784790Y-14584750D01*
X22784790Y-14574750D02*
X22774790Y-14584750D01*
X22795000Y-13865000D02*
X22805000Y-13875000D01*
X22805000Y-13865000D02*
X22795000Y-13875000D01*
X22807530Y-14484010D02*
X22817530Y-14494010D01*
X22817530Y-14484010D02*
X22807530Y-14494010D01*
X22829550Y-14321890D02*
X22839550Y-14331890D01*
X22839550Y-14321890D02*
X22829550Y-14331890D01*
X22845760Y-14147610D02*
X22855760Y-14157610D01*
X22855760Y-14147610D02*
X22845760Y-14157610D01*
X22956710Y-14610750D02*
X22966710Y-14620750D01*
X22966710Y-14610750D02*
X22956710Y-14620750D01*
X22957970Y-14659110D02*
X22967970Y-14669110D01*
X22967970Y-14659110D02*
X22957970Y-14669110D01*
X22978600Y-14232520D02*
X22988600Y-14242520D01*
X22988600Y-14232520D02*
X22978600Y-14242520D01*
X22991710Y-14890410D02*
X23001710Y-14900410D01*
X23001710Y-14890410D02*
X22991710Y-14900410D01*
X23039620Y-14308540D02*
X23049620Y-14318540D01*
X23049620Y-14308540D02*
X23039620Y-14318540D01*
X23044030Y-14977800D02*
X23054030Y-14987800D01*
X23054030Y-14977800D02*
X23044030Y-14987800D01*
X23082580Y-14184960D02*
X23092580Y-14194960D01*
X23092580Y-14184960D02*
X23082580Y-14194960D01*
X23193550Y-14271190D02*
X23203550Y-14281190D01*
X23203550Y-14271190D02*
X23193550Y-14281190D01*
X23195000Y-13865000D02*
X23205000Y-13875000D01*
X23205000Y-13865000D02*
X23195000Y-13875000D01*
X23195000Y-15725000D02*
X23205000Y-15735000D01*
X23205000Y-15725000D02*
X23195000Y-15735000D01*
X23365930Y-15137220D02*
X23375930Y-15147220D01*
X23375930Y-15137220D02*
X23365930Y-15147220D01*
X23382100Y-14431300D02*
X23392100Y-14441300D01*
X23392100Y-14431300D02*
X23382100Y-14441300D01*
X23383800Y-15075300D02*
X23393800Y-15085300D01*
X23393800Y-15075300D02*
X23383800Y-15085300D01*
X23395300Y-14146970D02*
X23405300Y-14156970D01*
X23405300Y-14146970D02*
X23395300Y-14156970D01*
X23400180Y-14764080D02*
X23410180Y-14774080D01*
X23410180Y-14764080D02*
X23400180Y-14774080D01*
X23401770Y-14559670D02*
X23411770Y-14569670D01*
X23411770Y-14559670D02*
X23401770Y-14569670D01*
X23402490Y-14627340D02*
X23412490Y-14637340D01*
X23412490Y-14627340D02*
X23402490Y-14637340D01*
X23402680Y-14522280D02*
X23412680Y-14532280D01*
X23412680Y-14522280D02*
X23402680Y-14532280D01*
X23413280Y-14718960D02*
X23423280Y-14728960D01*
X23423280Y-14718960D02*
X23413280Y-14728960D01*
X23419960Y-14821200D02*
X23429960Y-14831200D01*
X23429960Y-14821200D02*
X23419960Y-14831200D01*
X23553830Y-15353280D02*
X23563830Y-15363280D01*
X23563830Y-15353280D02*
X23553830Y-15363280D01*
X23571590Y-14672600D02*
X23581590Y-14682600D01*
X23581590Y-14672600D02*
X23571590Y-14682600D01*
X23595000Y-13865000D02*
X23605000Y-13875000D01*
X23605000Y-13865000D02*
X23595000Y-13875000D01*
X23595000Y-15725000D02*
X23605000Y-15735000D01*
X23605000Y-15725000D02*
X23595000Y-15735000D01*
X23608040Y-15229180D02*
X23618040Y-15239180D01*
X23618040Y-15229180D02*
X23608040Y-15239180D01*
X23608380Y-14972650D02*
X23618380Y-14982650D01*
X23618380Y-14972650D02*
X23608380Y-14982650D01*
X23608550Y-14912580D02*
X23618550Y-14922580D01*
X23618550Y-14912580D02*
X23608550Y-14922580D01*
X23615610Y-14237560D02*
X23625610Y-14247560D01*
X23625610Y-14237560D02*
X23615610Y-14247560D01*
X23730355Y-15089332D02*
X23740355Y-15099332D01*
X23740355Y-15089332D02*
X23730355Y-15099332D01*
X23751760Y-14612760D02*
X23761760Y-14622760D01*
X23761760Y-14612760D02*
X23751760Y-14622760D01*
X23797860Y-15470120D02*
X23807860Y-15480120D01*
X23807860Y-15470120D02*
X23797860Y-15480120D01*
X23860870Y-14505400D02*
X23870870Y-14515400D01*
X23870870Y-14505400D02*
X23860870Y-14515400D01*
X23909960Y-14753580D02*
X23919960Y-14763580D01*
X23919960Y-14753580D02*
X23909960Y-14763580D01*
X23938000Y-14613000D02*
X23948000Y-14623000D01*
X23948000Y-14613000D02*
X23938000Y-14623000D01*
X23951600Y-15495700D02*
X23961600Y-15505700D01*
X23961600Y-15495700D02*
X23951600Y-15505700D01*
X23986100Y-15236870D02*
X23996100Y-15246870D01*
X23996100Y-15236870D02*
X23986100Y-15246870D01*
X23995000Y-13865000D02*
X24005000Y-13875000D01*
X24005000Y-13865000D02*
X23995000Y-13875000D01*
X23995000Y-15725000D02*
X24005000Y-15735000D01*
X24005000Y-15725000D02*
X23995000Y-15735000D01*
X24032520Y-15517700D02*
X24042520Y-15527700D01*
X24042520Y-15517700D02*
X24032520Y-15527700D01*
X24065770Y-14696770D02*
X24075770Y-14706770D01*
X24075770Y-14696770D02*
X24065770Y-14706770D01*
X24075710Y-14650630D02*
X24085710Y-14660630D01*
X24085710Y-14650630D02*
X24075710Y-14660630D01*
X24101950Y-14533300D02*
X24111950Y-14543300D01*
X24111950Y-14533300D02*
X24101950Y-14543300D01*
X24126770Y-14876880D02*
X24136770Y-14886880D01*
X24136770Y-14876880D02*
X24126770Y-14886880D01*
X24177990Y-14958240D02*
X24187990Y-14968240D01*
X24187990Y-14958240D02*
X24177990Y-14968240D01*
X24179860Y-15265460D02*
X24189860Y-15275460D01*
X24189860Y-15265460D02*
X24179860Y-15275460D01*
X24180060Y-15002640D02*
X24190060Y-15012640D01*
X24190060Y-15002640D02*
X24180060Y-15012640D01*
X24183720Y-15548340D02*
X24193720Y-15558340D01*
X24193720Y-15548340D02*
X24183720Y-15558340D01*
X24188900Y-15386400D02*
X24198900Y-15396400D01*
X24198900Y-15386400D02*
X24188900Y-15396400D01*
X24203420Y-14622170D02*
X24213420Y-14632170D01*
X24213420Y-14622170D02*
X24203420Y-14632170D01*
X24216470Y-14513390D02*
X24226470Y-14523390D01*
X24226470Y-14513390D02*
X24216470Y-14523390D01*
X24376300Y-15010300D02*
X24386300Y-15020300D01*
X24386300Y-15010300D02*
X24376300Y-15020300D01*
X24385190Y-14061590D02*
X24395190Y-14071590D01*
X24395190Y-14061590D02*
X24385190Y-14071590D01*
X24388830Y-14891980D02*
X24398830Y-14901980D01*
X24398830Y-14891980D02*
X24388830Y-14901980D01*
X24395000Y-13865000D02*
X24405000Y-13875000D01*
X24405000Y-13865000D02*
X24395000Y-13875000D01*
X24395000Y-14445620D02*
X24405000Y-14455620D01*
X24405000Y-14445620D02*
X24395000Y-14455620D01*
X24395000Y-15725000D02*
X24405000Y-15735000D01*
X24405000Y-15725000D02*
X24395000Y-15735000D01*
X24410320Y-14697630D02*
X24420320Y-14707630D01*
X24420320Y-14697630D02*
X24410320Y-14707630D01*
X24484120Y-14710660D02*
X24494120Y-14720660D01*
X24494120Y-14710660D02*
X24484120Y-14720660D01*
X24525000Y-15420480D02*
X24535000Y-15430480D01*
X24535000Y-15420480D02*
X24525000Y-15430480D01*
X24525390Y-15508000D02*
X24535390Y-15518000D01*
X24535390Y-15508000D02*
X24525390Y-15518000D01*
X24531800Y-15117600D02*
X24541800Y-15127600D01*
X24541800Y-15117600D02*
X24531800Y-15127600D01*
X24542440Y-14613060D02*
X24552440Y-14623060D01*
X24552440Y-14613060D02*
X24542440Y-14623060D01*
X24586700Y-14828180D02*
X24596700Y-14838180D01*
X24596700Y-14828180D02*
X24586700Y-14838180D01*
X24593490Y-14725910D02*
X24603490Y-14735910D01*
X24603490Y-14725910D02*
X24593490Y-14735910D01*
X24663810Y-15417510D02*
X24673810Y-15427510D01*
X24673810Y-15417510D02*
X24663810Y-15427510D01*
X24664690Y-14855860D02*
X24674690Y-14865860D01*
X24674690Y-14855860D02*
X24664690Y-14865860D01*
X24755290Y-15227600D02*
X24765290Y-15237600D01*
X24765290Y-15227600D02*
X24755290Y-15237600D01*
X24763020Y-15093140D02*
X24773020Y-15103140D01*
X24773020Y-15093140D02*
X24763020Y-15103140D01*
X24773670Y-15487830D02*
X24783670Y-15497830D01*
X24783670Y-15487830D02*
X24773670Y-15497830D01*
X24784830Y-14032490D02*
X24794830Y-14042490D01*
X24794830Y-14032490D02*
X24784830Y-14042490D01*
X24795000Y-15725000D02*
X24805000Y-15735000D01*
X24805000Y-15725000D02*
X24795000Y-15735000D01*
X24819740Y-15292600D02*
X24829740Y-15302600D01*
X24829740Y-15292600D02*
X24819740Y-15302600D01*
X24909030Y-15390030D02*
X24919030Y-15400030D01*
X24919030Y-15390030D02*
X24909030Y-15400030D01*
X24910260Y-14697780D02*
X24920260Y-14707780D01*
X24920260Y-14697780D02*
X24910260Y-14707780D01*
X25003040Y-15508000D02*
X25013040Y-15518000D01*
X25013040Y-15508000D02*
X25003040Y-15518000D01*
X25060760Y-14141940D02*
X25070760Y-14151940D01*
X25070760Y-14141940D02*
X25060760Y-14151940D01*
X25075930Y-14098270D02*
X25085930Y-14108270D01*
X25085930Y-14098270D02*
X25075930Y-14108270D01*
X25120000Y-13920930D02*
X25130000Y-13930930D01*
X25130000Y-13920930D02*
X25120000Y-13930930D01*
X25136970Y-14772170D02*
X25146970Y-14782170D01*
X25146970Y-14772170D02*
X25136970Y-14782170D01*
X25152890Y-15370310D02*
X25162890Y-15380310D01*
X25162890Y-15370310D02*
X25152890Y-15380310D01*
X25165340Y-14098550D02*
X25175340Y-14108550D01*
X25175340Y-14098550D02*
X25165340Y-14108550D01*
X25195000Y-15725000D02*
X25205000Y-15735000D01*
X25205000Y-15725000D02*
X25195000Y-15735000D01*
X25237750Y-13922160D02*
X25247750Y-13932160D01*
X25247750Y-13922160D02*
X25237750Y-13932160D01*
X25245000Y-15508000D02*
X25255000Y-15518000D01*
X25255000Y-15508000D02*
X25245000Y-15518000D01*
X25304050Y-14098160D02*
X25314050Y-14108160D01*
X25314050Y-14098160D02*
X25304050Y-14108160D01*
X25335240Y-14118270D02*
X25345240Y-14128270D01*
X25345240Y-14118270D02*
X25335240Y-14128270D01*
X25355890Y-15546360D02*
X25365890Y-15556360D01*
X25365890Y-15546360D02*
X25355890Y-15556360D01*
X25388300Y-14097960D02*
X25398300Y-14107960D01*
X25398300Y-14097960D02*
X25388300Y-14107960D01*
X25403390Y-15186480D02*
X25413390Y-15196480D01*
X25413390Y-15186480D02*
X25403390Y-15196480D01*
X25445280Y-14098050D02*
X25455280Y-14108050D01*
X25455280Y-14098050D02*
X25445280Y-14108050D01*
X25483900Y-15343560D02*
X25493900Y-15353560D01*
X25493900Y-15343560D02*
X25483900Y-15353560D01*
X25485000Y-15516510D02*
X25495000Y-15526510D01*
X25495000Y-15516510D02*
X25485000Y-15526510D01*
X25497740Y-13914360D02*
X25507740Y-13924360D01*
X25507740Y-13914360D02*
X25497740Y-13924360D01*
X25524300Y-15122600D02*
X25534300Y-15132600D01*
X25534300Y-15122600D02*
X25524300Y-15132600D01*
X25532920Y-13921910D02*
X25542920Y-13931910D01*
X25542920Y-13921910D02*
X25532920Y-13931910D01*
X25544750Y-14102930D02*
X25554750Y-14112930D01*
X25554750Y-14102930D02*
X25544750Y-14112930D01*
X25586180Y-15548340D02*
X25596180Y-15558340D01*
X25596180Y-15548340D02*
X25586180Y-15558340D01*
X25595000Y-15725000D02*
X25605000Y-15735000D01*
X25605000Y-15725000D02*
X25595000Y-15735000D01*
X25597730Y-13920450D02*
X25607730Y-13930450D01*
X25607730Y-13920450D02*
X25597730Y-13930450D01*
X25619780Y-14097850D02*
X25629780Y-14107850D01*
X25629780Y-14097850D02*
X25619780Y-14107850D01*
X25623470Y-15365000D02*
X25633470Y-15375000D01*
X25633470Y-15365000D02*
X25623470Y-15375000D01*
X25647210Y-15000710D02*
X25657210Y-15010710D01*
X25657210Y-15000710D02*
X25647210Y-15010710D01*
X25670000Y-14098850D02*
X25680000Y-14108850D01*
X25680000Y-14098850D02*
X25670000Y-14108850D01*
X25700590Y-15497650D02*
X25710590Y-15507650D01*
X25710590Y-15497650D02*
X25700590Y-15507650D01*
X25741190Y-14119400D02*
X25751190Y-14129400D01*
X25751190Y-14119400D02*
X25741190Y-14129400D01*
X25776370Y-14109870D02*
X25786370Y-14119870D01*
X25786370Y-14109870D02*
X25776370Y-14119870D01*
X25820000Y-14098950D02*
X25830000Y-14108950D01*
X25830000Y-14098950D02*
X25820000Y-14108950D01*
X25861650Y-15685390D02*
X25871650Y-15695390D01*
X25871650Y-15685390D02*
X25861650Y-15695390D01*
X25890050Y-14109170D02*
X25900050Y-14119170D01*
X25900050Y-14109170D02*
X25890050Y-14119170D01*
X25920000Y-13903260D02*
X25930000Y-13913260D01*
X25930000Y-13903260D02*
X25920000Y-13913260D01*
X25940190Y-15432810D02*
X25950190Y-15442810D01*
X25950190Y-15432810D02*
X25940190Y-15442810D01*
X25970000Y-13888310D02*
X25980000Y-13898310D01*
X25980000Y-13888310D02*
X25970000Y-13898310D01*
X26016480Y-14107370D02*
X26026480Y-14117370D01*
X26026480Y-14107370D02*
X26016480Y-14117370D01*
X26032280Y-15086400D02*
X26042280Y-15096400D01*
X26042280Y-15086400D02*
X26032280Y-15096400D01*
X26035070Y-14891980D02*
X26045070Y-14901980D01*
X26045070Y-14891980D02*
X26035070Y-14901980D01*
X26073020Y-14102930D02*
X26083020Y-14112930D01*
X26083020Y-14102930D02*
X26073020Y-14112930D01*
X26110000Y-14793900D02*
X26120000Y-14803900D01*
X26120000Y-14793900D02*
X26110000Y-14803900D01*
X26110000Y-14858900D02*
X26120000Y-14868900D01*
X26120000Y-14858900D02*
X26110000Y-14868900D01*
X26110000Y-14923900D02*
X26120000Y-14933900D01*
X26120000Y-14923900D02*
X26110000Y-14933900D01*
X26110000Y-14988900D02*
X26120000Y-14998900D01*
X26120000Y-14988900D02*
X26110000Y-14998900D01*
X26110000Y-15053900D02*
X26120000Y-15063900D01*
X26120000Y-15053900D02*
X26110000Y-15063900D01*
X26110000Y-15118900D02*
X26120000Y-15128900D01*
X26120000Y-15118900D02*
X26110000Y-15128900D01*
X26110000Y-15183900D02*
X26120000Y-15193900D01*
X26120000Y-15183900D02*
X26110000Y-15193900D01*
X26110000Y-15248900D02*
X26120000Y-15258900D01*
X26120000Y-15248900D02*
X26110000Y-15258900D01*
X26110000Y-15313900D02*
X26120000Y-15323900D01*
X26120000Y-15313900D02*
X26110000Y-15323900D01*
X26110000Y-15378900D02*
X26120000Y-15388900D01*
X26120000Y-15378900D02*
X26110000Y-15388900D01*
X26110000Y-15443900D02*
X26120000Y-15453900D01*
X26120000Y-15443900D02*
X26110000Y-15453900D01*
X26111570Y-14123670D02*
X26121570Y-14133670D01*
X26121570Y-14123670D02*
X26111570Y-14133670D01*
X26751920Y-14577610D02*
X26761920Y-14587610D01*
X26761920Y-14577610D02*
X26751920Y-14587610D01*
X26838000Y-14633900D02*
X26848000Y-14643900D01*
X26848000Y-14633900D02*
X26838000Y-14643900D01*
X26851770Y-15623260D02*
X26861770Y-15633260D01*
X26861770Y-15623260D02*
X26851770Y-15633260D01*
X26873850Y-15595260D02*
X26883850Y-15605260D01*
X26883850Y-15595260D02*
X26873850Y-15605260D01*
X26880000Y-14793900D02*
X26890000Y-14803900D01*
X26890000Y-14793900D02*
X26880000Y-14803900D01*
X26880000Y-14858900D02*
X26890000Y-14868900D01*
X26890000Y-14858900D02*
X26880000Y-14868900D01*
X26880000Y-14923900D02*
X26890000Y-14933900D01*
X26890000Y-14923900D02*
X26880000Y-14933900D01*
X26880000Y-14988900D02*
X26890000Y-14998900D01*
X26890000Y-14988900D02*
X26880000Y-14998900D01*
X26880000Y-15053900D02*
X26890000Y-15063900D01*
X26890000Y-15053900D02*
X26880000Y-15063900D01*
X26880000Y-15118900D02*
X26890000Y-15128900D01*
X26890000Y-15118900D02*
X26880000Y-15128900D01*
X26880000Y-15183900D02*
X26890000Y-15193900D01*
X26890000Y-15183900D02*
X26880000Y-15193900D01*
X26880000Y-15248900D02*
X26890000Y-15258900D01*
X26890000Y-15248900D02*
X26880000Y-15258900D01*
X26880000Y-15313900D02*
X26890000Y-15323900D01*
X26890000Y-15313900D02*
X26880000Y-15323900D01*
X26880000Y-15378900D02*
X26890000Y-15388900D01*
X26890000Y-15378900D02*
X26880000Y-15388900D01*
X26880000Y-15443900D02*
X26890000Y-15453900D01*
X26890000Y-15443900D02*
X26880000Y-15453900D01*
X26880000Y-15508900D02*
X26890000Y-15518900D01*
X26890000Y-15508900D02*
X26880000Y-15518900D01*
X26995000Y-14535000D02*
X27005000Y-14545000D01*
X27005000Y-14535000D02*
X26995000Y-14545000D01*
X27109450Y-15316940D02*
X27119450Y-15326940D01*
X27119450Y-15316940D02*
X27109450Y-15326940D01*
X27295000Y-14535000D02*
X27305000Y-14545000D01*
X27305000Y-14535000D02*
X27295000Y-14545000D01*
X27295000Y-15055000D02*
X27305000Y-15065000D01*
X27305000Y-15055000D02*
X27295000Y-15065000D01*
X27595000Y-14535000D02*
X27605000Y-14545000D01*
X27605000Y-14535000D02*
X27595000Y-14545000D01*
X27595000Y-15055000D02*
X27605000Y-15065000D01*
X27605000Y-15055000D02*
X27595000Y-15065000D01*
X27895000Y-14535000D02*
X27905000Y-14545000D01*
X27905000Y-14535000D02*
X27895000Y-14545000D01*
X27895000Y-15055000D02*
X27905000Y-15065000D01*
X27905000Y-15055000D02*
X27895000Y-15065000D01*
X28195000Y-14535000D02*
X28205000Y-14545000D01*
X28205000Y-14535000D02*
X28195000Y-14545000D01*
X28195000Y-15055000D02*
X28205000Y-15065000D01*
X28205000Y-15055000D02*
X28195000Y-15065000D01*
X28495000Y-14535000D02*
X28505000Y-14545000D01*
X28505000Y-14535000D02*
X28495000Y-14545000D01*
X28495000Y-15055000D02*
X28505000Y-15065000D01*
X28505000Y-15055000D02*
X28495000Y-15065000D01*
X28795000Y-14535000D02*
X28805000Y-14545000D01*
X28805000Y-14535000D02*
X28795000Y-14545000D01*
X28795000Y-15055000D02*
X28805000Y-15065000D01*
X28805000Y-15055000D02*
X28795000Y-15065000D01*
X29195000Y-14035000D02*
X29205000Y-14045000D01*
X29205000Y-14035000D02*
X29195000Y-14045000D01*
X29195000Y-15555000D02*
X29205000Y-15565000D01*
X29205000Y-15555000D02*
X29195000Y-15565000D01*
X29595000Y-15555000D02*
X29605000Y-15565000D01*
X29605000Y-15555000D02*
X29595000Y-15565000D01*
X29693160Y-14238760D02*
X29703160Y-14248760D01*
X29703160Y-14238760D02*
X29693160Y-14248760D01*
X29849090Y-15088530D02*
X29859090Y-15098530D01*
X29859090Y-15088530D02*
X29849090Y-15098530D01*
X29920000Y-14620000D02*
X29930000Y-14630000D01*
X29930000Y-14620000D02*
X29920000Y-14630000D01*
X29920000Y-14970000D02*
X29930000Y-14980000D01*
X29930000Y-14970000D02*
X29920000Y-14980000D01*
X29969000Y-15150000D02*
X29979000Y-15160000D01*
X29979000Y-15150000D02*
X29969000Y-15160000D01*
X29970000Y-14620000D02*
X29980000Y-14630000D01*
X29980000Y-14620000D02*
X29970000Y-14630000D01*
X29970000Y-14970000D02*
X29980000Y-14980000D01*
X29980000Y-14970000D02*
X29970000Y-14980000D01*
X29995000Y-14035000D02*
X30005000Y-14045000D01*
X30005000Y-14035000D02*
X29995000Y-14045000D01*
X29995000Y-15555000D02*
X30005000Y-15565000D01*
X30005000Y-15555000D02*
X29995000Y-15565000D01*
X29995650Y-14207580D02*
X30005650Y-14217580D01*
X30005650Y-14207580D02*
X29995650Y-14217580D01*
X30018220Y-14793900D02*
X30028220Y-14803900D01*
X30028220Y-14793900D02*
X30018220Y-14803900D01*
X30020000Y-14620000D02*
X30030000Y-14630000D01*
X30030000Y-14620000D02*
X30020000Y-14630000D01*
X30020000Y-14970000D02*
X30030000Y-14980000D01*
X30030000Y-14970000D02*
X30020000Y-14980000D01*
X30020000Y-15063250D02*
X30030000Y-15073250D01*
X30030000Y-15063250D02*
X30020000Y-15073250D01*
X30070000Y-14620000D02*
X30080000Y-14630000D01*
X30080000Y-14620000D02*
X30070000Y-14630000D01*
X30070000Y-14970000D02*
X30080000Y-14980000D01*
X30080000Y-14970000D02*
X30070000Y-14980000D01*
X30072870Y-14446430D02*
X30082870Y-14456430D01*
X30082870Y-14446430D02*
X30072870Y-14456430D01*
X30120000Y-14525200D02*
X30130000Y-14535200D01*
X30130000Y-14525200D02*
X30120000Y-14535200D01*
X30120000Y-14620000D02*
X30130000Y-14630000D01*
X30130000Y-14620000D02*
X30120000Y-14630000D01*
X30120000Y-14970000D02*
X30130000Y-14980000D01*
X30130000Y-14970000D02*
X30120000Y-14980000D01*
X30220000Y-14620000D02*
X30230000Y-14630000D01*
X30230000Y-14620000D02*
X30220000Y-14630000D01*
X30220000Y-14970000D02*
X30230000Y-14980000D01*
X30230000Y-14970000D02*
X30220000Y-14980000D01*
X30226490Y-15078870D02*
X30236490Y-15088870D01*
X30236490Y-15078870D02*
X30226490Y-15088870D01*
X30250400Y-14700400D02*
X30260400Y-14710400D01*
X30260400Y-14700400D02*
X30250400Y-14710400D01*
X30263000Y-14440000D02*
X30273000Y-14450000D01*
X30273000Y-14440000D02*
X30263000Y-14450000D01*
X30263000Y-15150000D02*
X30273000Y-15160000D01*
X30273000Y-15150000D02*
X30263000Y-15160000D01*
X30270000Y-14620000D02*
X30280000Y-14630000D01*
X30280000Y-14620000D02*
X30270000Y-14630000D01*
X30270000Y-14670000D02*
X30280000Y-14680000D01*
X30280000Y-14670000D02*
X30270000Y-14680000D01*
X30270000Y-14770000D02*
X30280000Y-14780000D01*
X30280000Y-14770000D02*
X30270000Y-14780000D01*
X30270000Y-14820000D02*
X30280000Y-14830000D01*
X30280000Y-14820000D02*
X30270000Y-14830000D01*
X30270000Y-14920000D02*
X30280000Y-14930000D01*
X30280000Y-14920000D02*
X30270000Y-14930000D01*
X30270000Y-14970000D02*
X30280000Y-14980000D01*
X30280000Y-14970000D02*
X30270000Y-14980000D01*
X30293700Y-14696300D02*
X30303700Y-14706300D01*
X30303700Y-14696300D02*
X30293700Y-14706300D01*
X30306420Y-14576850D02*
X30316420Y-14586850D01*
X30316420Y-14576850D02*
X30306420Y-14586850D01*
X30321780Y-14542330D02*
X30331780Y-14552330D01*
X30331780Y-14542330D02*
X30321780Y-14552330D01*
X30353730Y-14140000D02*
X30363730Y-14150000D01*
X30363730Y-14140000D02*
X30353730Y-14150000D01*
X30356110Y-15010090D02*
X30366110Y-15020090D01*
X30366110Y-15010090D02*
X30356110Y-15020090D01*
X30362700Y-14620000D02*
X30372700Y-14630000D01*
X30372700Y-14620000D02*
X30362700Y-14630000D01*
X30391850Y-14932130D02*
X30401850Y-14942130D01*
X30401850Y-14932130D02*
X30391850Y-14942130D01*
X30395000Y-14035000D02*
X30405000Y-14045000D01*
X30405000Y-14035000D02*
X30395000Y-14045000D01*
X30395000Y-15555000D02*
X30405000Y-15565000D01*
X30405000Y-15555000D02*
X30395000Y-15565000D01*
X30438550Y-15345000D02*
X30448550Y-15355000D01*
X30448550Y-15345000D02*
X30438550Y-15355000D01*
X21997200Y-14163500D02*
G75*
G02*
X21922200Y-14163500I-37500J0D01*
G01*
X21922200Y-14163500D02*
G75*
G02*
X21997200Y-14163500I37500J0D01*
G01*
X22197200Y-14163500D02*
G75*
G02*
X22122200Y-14163500I-37500J0D01*
G01*
X22122200Y-14163500D02*
G75*
G02*
X22197200Y-14163500I37500J0D01*
G01*
X22397200Y-14163500D02*
G75*
G02*
X22322200Y-14163500I-37500J0D01*
G01*
X22322200Y-14163500D02*
G75*
G02*
X22397200Y-14163500I37500J0D01*
G01*
D11*
X11455777Y-16116484D02*
X11455777Y-15916484D01*
X11455777Y-15916484D02*
X11503396Y-15916484D01*
X11503396Y-15916484D02*
X11531967Y-15926008D01*
X11531967Y-15926008D02*
X11551015Y-15945055D01*
X11551015Y-15945055D02*
X11560539Y-15964103D01*
X11560539Y-15964103D02*
X11570062Y-16002198D01*
X11570062Y-16002198D02*
X11570062Y-16030769D01*
X11570062Y-16030769D02*
X11560539Y-16068865D01*
X11560539Y-16068865D02*
X11551015Y-16087912D01*
X11551015Y-16087912D02*
X11531967Y-16106960D01*
X11531967Y-16106960D02*
X11503396Y-16116484D01*
X11503396Y-16116484D02*
X11455777Y-16116484D01*
X11655777Y-16116484D02*
X11655777Y-15983150D01*
X11655777Y-16021246D02*
X11665301Y-16002198D01*
X11665301Y-16002198D02*
X11674824Y-15992674D01*
X11674824Y-15992674D02*
X11693872Y-15983150D01*
X11693872Y-15983150D02*
X11712920Y-15983150D01*
X11779586Y-16116484D02*
X11779586Y-15983150D01*
X11779586Y-15916484D02*
X11770062Y-15926008D01*
X11770062Y-15926008D02*
X11779586Y-15935531D01*
X11779586Y-15935531D02*
X11789110Y-15926008D01*
X11789110Y-15926008D02*
X11779586Y-15916484D01*
X11779586Y-15916484D02*
X11779586Y-15935531D01*
X11903396Y-16116484D02*
X11884348Y-16106960D01*
X11884348Y-16106960D02*
X11874824Y-16087912D01*
X11874824Y-16087912D02*
X11874824Y-15916484D01*
X12008158Y-16116484D02*
X11989110Y-16106960D01*
X11989110Y-16106960D02*
X11979586Y-16087912D01*
X11979586Y-16087912D02*
X11979586Y-15916484D01*
X12236729Y-16116484D02*
X12236729Y-15916484D01*
X12236729Y-15916484D02*
X12303396Y-16059341D01*
X12303396Y-16059341D02*
X12370062Y-15916484D01*
X12370062Y-15916484D02*
X12370062Y-16116484D01*
X12551015Y-16116484D02*
X12551015Y-16011722D01*
X12551015Y-16011722D02*
X12541491Y-15992674D01*
X12541491Y-15992674D02*
X12522443Y-15983150D01*
X12522443Y-15983150D02*
X12484348Y-15983150D01*
X12484348Y-15983150D02*
X12465301Y-15992674D01*
X12551015Y-16106960D02*
X12531967Y-16116484D01*
X12531967Y-16116484D02*
X12484348Y-16116484D01*
X12484348Y-16116484D02*
X12465301Y-16106960D01*
X12465301Y-16106960D02*
X12455777Y-16087912D01*
X12455777Y-16087912D02*
X12455777Y-16068865D01*
X12455777Y-16068865D02*
X12465301Y-16049817D01*
X12465301Y-16049817D02*
X12484348Y-16040293D01*
X12484348Y-16040293D02*
X12531967Y-16040293D01*
X12531967Y-16040293D02*
X12551015Y-16030769D01*
X12646253Y-15983150D02*
X12646253Y-16183150D01*
X12646253Y-15992674D02*
X12665301Y-15983150D01*
X12665301Y-15983150D02*
X12703396Y-15983150D01*
X12703396Y-15983150D02*
X12722443Y-15992674D01*
X12722443Y-15992674D02*
X12731967Y-16002198D01*
X12731967Y-16002198D02*
X12741491Y-16021246D01*
X12741491Y-16021246D02*
X12741491Y-16078388D01*
X12741491Y-16078388D02*
X12731967Y-16097436D01*
X12731967Y-16097436D02*
X12722443Y-16106960D01*
X12722443Y-16106960D02*
X12703396Y-16116484D01*
X12703396Y-16116484D02*
X12665301Y-16116484D01*
X12665301Y-16116484D02*
X12646253Y-16106960D01*
X12827205Y-16097436D02*
X12836729Y-16106960D01*
X12836729Y-16106960D02*
X12827205Y-16116484D01*
X12827205Y-16116484D02*
X12817682Y-16106960D01*
X12817682Y-16106960D02*
X12827205Y-16097436D01*
X12827205Y-16097436D02*
X12827205Y-16116484D01*
X12827205Y-15992674D02*
X12836729Y-16002198D01*
X12836729Y-16002198D02*
X12827205Y-16011722D01*
X12827205Y-16011722D02*
X12817682Y-16002198D01*
X12817682Y-16002198D02*
X12827205Y-15992674D01*
X12827205Y-15992674D02*
X12827205Y-16011722D01*
D10*
X11185000Y-16440000D02*
X11195000Y-16450000D01*
X11195000Y-16440000D02*
X11185000Y-16450000D01*
D11*
X11493872Y-16336484D02*
X11512920Y-16336484D01*
X11512920Y-16336484D02*
X11531967Y-16346008D01*
X11531967Y-16346008D02*
X11541491Y-16355531D01*
X11541491Y-16355531D02*
X11551015Y-16374579D01*
X11551015Y-16374579D02*
X11560539Y-16412674D01*
X11560539Y-16412674D02*
X11560539Y-16460293D01*
X11560539Y-16460293D02*
X11551015Y-16498388D01*
X11551015Y-16498388D02*
X11541491Y-16517436D01*
X11541491Y-16517436D02*
X11531967Y-16526960D01*
X11531967Y-16526960D02*
X11512920Y-16536484D01*
X11512920Y-16536484D02*
X11493872Y-16536484D01*
X11493872Y-16536484D02*
X11474824Y-16526960D01*
X11474824Y-16526960D02*
X11465301Y-16517436D01*
X11465301Y-16517436D02*
X11455777Y-16498388D01*
X11455777Y-16498388D02*
X11446253Y-16460293D01*
X11446253Y-16460293D02*
X11446253Y-16412674D01*
X11446253Y-16412674D02*
X11455777Y-16374579D01*
X11455777Y-16374579D02*
X11465301Y-16355531D01*
X11465301Y-16355531D02*
X11474824Y-16346008D01*
X11474824Y-16346008D02*
X11493872Y-16336484D01*
X11646253Y-16517436D02*
X11655777Y-16526960D01*
X11655777Y-16526960D02*
X11646253Y-16536484D01*
X11646253Y-16536484D02*
X11636729Y-16526960D01*
X11636729Y-16526960D02*
X11646253Y-16517436D01*
X11646253Y-16517436D02*
X11646253Y-16536484D01*
X11846253Y-16536484D02*
X11731967Y-16536484D01*
X11789110Y-16536484D02*
X11789110Y-16336484D01*
X11789110Y-16336484D02*
X11770062Y-16365055D01*
X11770062Y-16365055D02*
X11751015Y-16384103D01*
X11751015Y-16384103D02*
X11731967Y-16393627D01*
X11970062Y-16336484D02*
X11989110Y-16336484D01*
X11989110Y-16336484D02*
X12008158Y-16346008D01*
X12008158Y-16346008D02*
X12017682Y-16355531D01*
X12017682Y-16355531D02*
X12027205Y-16374579D01*
X12027205Y-16374579D02*
X12036729Y-16412674D01*
X12036729Y-16412674D02*
X12036729Y-16460293D01*
X12036729Y-16460293D02*
X12027205Y-16498388D01*
X12027205Y-16498388D02*
X12017682Y-16517436D01*
X12017682Y-16517436D02*
X12008158Y-16526960D01*
X12008158Y-16526960D02*
X11989110Y-16536484D01*
X11989110Y-16536484D02*
X11970062Y-16536484D01*
X11970062Y-16536484D02*
X11951015Y-16526960D01*
X11951015Y-16526960D02*
X11941491Y-16517436D01*
X11941491Y-16517436D02*
X11931967Y-16498388D01*
X11931967Y-16498388D02*
X11922443Y-16460293D01*
X11922443Y-16460293D02*
X11922443Y-16412674D01*
X11922443Y-16412674D02*
X11931967Y-16374579D01*
X11931967Y-16374579D02*
X11941491Y-16355531D01*
X11941491Y-16355531D02*
X11951015Y-16346008D01*
X11951015Y-16346008D02*
X11970062Y-16336484D01*
X12160539Y-16336484D02*
X12179586Y-16336484D01*
X12179586Y-16336484D02*
X12198634Y-16346008D01*
X12198634Y-16346008D02*
X12208158Y-16355531D01*
X12208158Y-16355531D02*
X12217682Y-16374579D01*
X12217682Y-16374579D02*
X12227205Y-16412674D01*
X12227205Y-16412674D02*
X12227205Y-16460293D01*
X12227205Y-16460293D02*
X12217682Y-16498388D01*
X12217682Y-16498388D02*
X12208158Y-16517436D01*
X12208158Y-16517436D02*
X12198634Y-16526960D01*
X12198634Y-16526960D02*
X12179586Y-16536484D01*
X12179586Y-16536484D02*
X12160539Y-16536484D01*
X12160539Y-16536484D02*
X12141491Y-16526960D01*
X12141491Y-16526960D02*
X12131967Y-16517436D01*
X12131967Y-16517436D02*
X12122443Y-16498388D01*
X12122443Y-16498388D02*
X12112920Y-16460293D01*
X12112920Y-16460293D02*
X12112920Y-16412674D01*
X12112920Y-16412674D02*
X12122443Y-16374579D01*
X12122443Y-16374579D02*
X12131967Y-16355531D01*
X12131967Y-16355531D02*
X12141491Y-16346008D01*
X12141491Y-16346008D02*
X12160539Y-16336484D01*
X12312920Y-16536484D02*
X12312920Y-16403150D01*
X12312920Y-16422198D02*
X12322443Y-16412674D01*
X12322443Y-16412674D02*
X12341491Y-16403150D01*
X12341491Y-16403150D02*
X12370063Y-16403150D01*
X12370063Y-16403150D02*
X12389110Y-16412674D01*
X12389110Y-16412674D02*
X12398634Y-16431722D01*
X12398634Y-16431722D02*
X12398634Y-16536484D01*
X12398634Y-16431722D02*
X12408158Y-16412674D01*
X12408158Y-16412674D02*
X12427205Y-16403150D01*
X12427205Y-16403150D02*
X12455777Y-16403150D01*
X12455777Y-16403150D02*
X12474824Y-16412674D01*
X12474824Y-16412674D02*
X12484348Y-16431722D01*
X12484348Y-16431722D02*
X12484348Y-16536484D01*
X12579586Y-16536484D02*
X12579586Y-16403150D01*
X12579586Y-16422198D02*
X12589110Y-16412674D01*
X12589110Y-16412674D02*
X12608158Y-16403150D01*
X12608158Y-16403150D02*
X12636729Y-16403150D01*
X12636729Y-16403150D02*
X12655777Y-16412674D01*
X12655777Y-16412674D02*
X12665301Y-16431722D01*
X12665301Y-16431722D02*
X12665301Y-16536484D01*
X12665301Y-16431722D02*
X12674824Y-16412674D01*
X12674824Y-16412674D02*
X12693872Y-16403150D01*
X12693872Y-16403150D02*
X12722443Y-16403150D01*
X12722443Y-16403150D02*
X12741491Y-16412674D01*
X12741491Y-16412674D02*
X12751015Y-16431722D01*
X12751015Y-16431722D02*
X12751015Y-16536484D01*
X13141491Y-16326960D02*
X12970063Y-16584103D01*
X13398634Y-16336484D02*
X13417682Y-16336484D01*
X13417682Y-16336484D02*
X13436729Y-16346008D01*
X13436729Y-16346008D02*
X13446253Y-16355531D01*
X13446253Y-16355531D02*
X13455777Y-16374579D01*
X13455777Y-16374579D02*
X13465301Y-16412674D01*
X13465301Y-16412674D02*
X13465301Y-16460293D01*
X13465301Y-16460293D02*
X13455777Y-16498388D01*
X13455777Y-16498388D02*
X13446253Y-16517436D01*
X13446253Y-16517436D02*
X13436729Y-16526960D01*
X13436729Y-16526960D02*
X13417682Y-16536484D01*
X13417682Y-16536484D02*
X13398634Y-16536484D01*
X13398634Y-16536484D02*
X13379586Y-16526960D01*
X13379586Y-16526960D02*
X13370063Y-16517436D01*
X13370063Y-16517436D02*
X13360539Y-16498388D01*
X13360539Y-16498388D02*
X13351015Y-16460293D01*
X13351015Y-16460293D02*
X13351015Y-16412674D01*
X13351015Y-16412674D02*
X13360539Y-16374579D01*
X13360539Y-16374579D02*
X13370063Y-16355531D01*
X13370063Y-16355531D02*
X13379586Y-16346008D01*
X13379586Y-16346008D02*
X13398634Y-16336484D01*
X13551015Y-16517436D02*
X13560539Y-16526960D01*
X13560539Y-16526960D02*
X13551015Y-16536484D01*
X13551015Y-16536484D02*
X13541491Y-16526960D01*
X13541491Y-16526960D02*
X13551015Y-16517436D01*
X13551015Y-16517436D02*
X13551015Y-16536484D01*
X13684348Y-16336484D02*
X13703396Y-16336484D01*
X13703396Y-16336484D02*
X13722444Y-16346008D01*
X13722444Y-16346008D02*
X13731967Y-16355531D01*
X13731967Y-16355531D02*
X13741491Y-16374579D01*
X13741491Y-16374579D02*
X13751015Y-16412674D01*
X13751015Y-16412674D02*
X13751015Y-16460293D01*
X13751015Y-16460293D02*
X13741491Y-16498388D01*
X13741491Y-16498388D02*
X13731967Y-16517436D01*
X13731967Y-16517436D02*
X13722444Y-16526960D01*
X13722444Y-16526960D02*
X13703396Y-16536484D01*
X13703396Y-16536484D02*
X13684348Y-16536484D01*
X13684348Y-16536484D02*
X13665301Y-16526960D01*
X13665301Y-16526960D02*
X13655777Y-16517436D01*
X13655777Y-16517436D02*
X13646253Y-16498388D01*
X13646253Y-16498388D02*
X13636729Y-16460293D01*
X13636729Y-16460293D02*
X13636729Y-16412674D01*
X13636729Y-16412674D02*
X13646253Y-16374579D01*
X13646253Y-16374579D02*
X13655777Y-16355531D01*
X13655777Y-16355531D02*
X13665301Y-16346008D01*
X13665301Y-16346008D02*
X13684348Y-16336484D01*
X13874825Y-16336484D02*
X13893872Y-16336484D01*
X13893872Y-16336484D02*
X13912920Y-16346008D01*
X13912920Y-16346008D02*
X13922444Y-16355531D01*
X13922444Y-16355531D02*
X13931967Y-16374579D01*
X13931967Y-16374579D02*
X13941491Y-16412674D01*
X13941491Y-16412674D02*
X13941491Y-16460293D01*
X13941491Y-16460293D02*
X13931967Y-16498388D01*
X13931967Y-16498388D02*
X13922444Y-16517436D01*
X13922444Y-16517436D02*
X13912920Y-16526960D01*
X13912920Y-16526960D02*
X13893872Y-16536484D01*
X13893872Y-16536484D02*
X13874825Y-16536484D01*
X13874825Y-16536484D02*
X13855777Y-16526960D01*
X13855777Y-16526960D02*
X13846253Y-16517436D01*
X13846253Y-16517436D02*
X13836729Y-16498388D01*
X13836729Y-16498388D02*
X13827206Y-16460293D01*
X13827206Y-16460293D02*
X13827206Y-16412674D01*
X13827206Y-16412674D02*
X13836729Y-16374579D01*
X13836729Y-16374579D02*
X13846253Y-16355531D01*
X13846253Y-16355531D02*
X13855777Y-16346008D01*
X13855777Y-16346008D02*
X13874825Y-16336484D01*
X14008158Y-16336484D02*
X14131967Y-16336484D01*
X14131967Y-16336484D02*
X14065301Y-16412674D01*
X14065301Y-16412674D02*
X14093872Y-16412674D01*
X14093872Y-16412674D02*
X14112920Y-16422198D01*
X14112920Y-16422198D02*
X14122444Y-16431722D01*
X14122444Y-16431722D02*
X14131967Y-16450769D01*
X14131967Y-16450769D02*
X14131967Y-16498388D01*
X14131967Y-16498388D02*
X14122444Y-16517436D01*
X14122444Y-16517436D02*
X14112920Y-16526960D01*
X14112920Y-16526960D02*
X14093872Y-16536484D01*
X14093872Y-16536484D02*
X14036729Y-16536484D01*
X14036729Y-16536484D02*
X14017682Y-16526960D01*
X14017682Y-16526960D02*
X14008158Y-16517436D01*
X14227206Y-16536484D02*
X14265301Y-16536484D01*
X14265301Y-16536484D02*
X14284348Y-16526960D01*
X14284348Y-16526960D02*
X14293872Y-16517436D01*
X14293872Y-16517436D02*
X14312920Y-16488865D01*
X14312920Y-16488865D02*
X14322444Y-16450769D01*
X14322444Y-16450769D02*
X14322444Y-16374579D01*
X14322444Y-16374579D02*
X14312920Y-16355531D01*
X14312920Y-16355531D02*
X14303396Y-16346008D01*
X14303396Y-16346008D02*
X14284348Y-16336484D01*
X14284348Y-16336484D02*
X14246253Y-16336484D01*
X14246253Y-16336484D02*
X14227206Y-16346008D01*
X14227206Y-16346008D02*
X14217682Y-16355531D01*
X14217682Y-16355531D02*
X14208158Y-16374579D01*
X14208158Y-16374579D02*
X14208158Y-16422198D01*
X14208158Y-16422198D02*
X14217682Y-16441246D01*
X14217682Y-16441246D02*
X14227206Y-16450769D01*
X14227206Y-16450769D02*
X14246253Y-16460293D01*
X14246253Y-16460293D02*
X14284348Y-16460293D01*
X14284348Y-16460293D02*
X14303396Y-16450769D01*
X14303396Y-16450769D02*
X14312920Y-16441246D01*
X14312920Y-16441246D02*
X14322444Y-16422198D01*
X14398634Y-16336484D02*
X14398634Y-16374579D01*
X14474825Y-16336484D02*
X14474825Y-16374579D01*
X14770063Y-16612674D02*
X14760539Y-16603150D01*
X14760539Y-16603150D02*
X14741491Y-16574579D01*
X14741491Y-16574579D02*
X14731968Y-16555531D01*
X14731968Y-16555531D02*
X14722444Y-16526960D01*
X14722444Y-16526960D02*
X14712920Y-16479341D01*
X14712920Y-16479341D02*
X14712920Y-16441246D01*
X14712920Y-16441246D02*
X14722444Y-16393627D01*
X14722444Y-16393627D02*
X14731968Y-16365055D01*
X14731968Y-16365055D02*
X14741491Y-16346008D01*
X14741491Y-16346008D02*
X14760539Y-16317436D01*
X14760539Y-16317436D02*
X14770063Y-16307912D01*
X14931968Y-16403150D02*
X14931968Y-16536484D01*
X14884348Y-16326960D02*
X14836729Y-16469817D01*
X14836729Y-16469817D02*
X14960539Y-16469817D01*
X15131968Y-16336484D02*
X15036729Y-16336484D01*
X15036729Y-16336484D02*
X15027206Y-16431722D01*
X15027206Y-16431722D02*
X15036729Y-16422198D01*
X15036729Y-16422198D02*
X15055777Y-16412674D01*
X15055777Y-16412674D02*
X15103396Y-16412674D01*
X15103396Y-16412674D02*
X15122444Y-16422198D01*
X15122444Y-16422198D02*
X15131968Y-16431722D01*
X15131968Y-16431722D02*
X15141491Y-16450769D01*
X15141491Y-16450769D02*
X15141491Y-16498388D01*
X15141491Y-16498388D02*
X15131968Y-16517436D01*
X15131968Y-16517436D02*
X15122444Y-16526960D01*
X15122444Y-16526960D02*
X15103396Y-16536484D01*
X15103396Y-16536484D02*
X15055777Y-16536484D01*
X15055777Y-16536484D02*
X15036729Y-16526960D01*
X15036729Y-16526960D02*
X15027206Y-16517436D01*
X15312920Y-16403150D02*
X15312920Y-16536484D01*
X15265301Y-16326960D02*
X15217682Y-16469817D01*
X15217682Y-16469817D02*
X15341491Y-16469817D01*
X15570063Y-16536484D02*
X15570063Y-16336484D01*
X15655777Y-16536484D02*
X15655777Y-16431722D01*
X15655777Y-16431722D02*
X15646253Y-16412674D01*
X15646253Y-16412674D02*
X15627206Y-16403150D01*
X15627206Y-16403150D02*
X15598634Y-16403150D01*
X15598634Y-16403150D02*
X15579587Y-16412674D01*
X15579587Y-16412674D02*
X15570063Y-16422198D01*
X15779587Y-16536484D02*
X15760539Y-16526960D01*
X15760539Y-16526960D02*
X15751015Y-16517436D01*
X15751015Y-16517436D02*
X15741491Y-16498388D01*
X15741491Y-16498388D02*
X15741491Y-16441246D01*
X15741491Y-16441246D02*
X15751015Y-16422198D01*
X15751015Y-16422198D02*
X15760539Y-16412674D01*
X15760539Y-16412674D02*
X15779587Y-16403150D01*
X15779587Y-16403150D02*
X15808158Y-16403150D01*
X15808158Y-16403150D02*
X15827206Y-16412674D01*
X15827206Y-16412674D02*
X15836730Y-16422198D01*
X15836730Y-16422198D02*
X15846253Y-16441246D01*
X15846253Y-16441246D02*
X15846253Y-16498388D01*
X15846253Y-16498388D02*
X15836730Y-16517436D01*
X15836730Y-16517436D02*
X15827206Y-16526960D01*
X15827206Y-16526960D02*
X15808158Y-16536484D01*
X15808158Y-16536484D02*
X15779587Y-16536484D01*
X15960539Y-16536484D02*
X15941491Y-16526960D01*
X15941491Y-16526960D02*
X15931968Y-16507912D01*
X15931968Y-16507912D02*
X15931968Y-16336484D01*
X16112920Y-16526960D02*
X16093872Y-16536484D01*
X16093872Y-16536484D02*
X16055777Y-16536484D01*
X16055777Y-16536484D02*
X16036730Y-16526960D01*
X16036730Y-16526960D02*
X16027206Y-16507912D01*
X16027206Y-16507912D02*
X16027206Y-16431722D01*
X16027206Y-16431722D02*
X16036730Y-16412674D01*
X16036730Y-16412674D02*
X16055777Y-16403150D01*
X16055777Y-16403150D02*
X16093872Y-16403150D01*
X16093872Y-16403150D02*
X16112920Y-16412674D01*
X16112920Y-16412674D02*
X16122444Y-16431722D01*
X16122444Y-16431722D02*
X16122444Y-16450769D01*
X16122444Y-16450769D02*
X16027206Y-16469817D01*
X16198634Y-16526960D02*
X16217682Y-16536484D01*
X16217682Y-16536484D02*
X16255777Y-16536484D01*
X16255777Y-16536484D02*
X16274825Y-16526960D01*
X16274825Y-16526960D02*
X16284349Y-16507912D01*
X16284349Y-16507912D02*
X16284349Y-16498388D01*
X16284349Y-16498388D02*
X16274825Y-16479341D01*
X16274825Y-16479341D02*
X16255777Y-16469817D01*
X16255777Y-16469817D02*
X16227206Y-16469817D01*
X16227206Y-16469817D02*
X16208158Y-16460293D01*
X16208158Y-16460293D02*
X16198634Y-16441246D01*
X16198634Y-16441246D02*
X16198634Y-16431722D01*
X16198634Y-16431722D02*
X16208158Y-16412674D01*
X16208158Y-16412674D02*
X16227206Y-16403150D01*
X16227206Y-16403150D02*
X16255777Y-16403150D01*
X16255777Y-16403150D02*
X16274825Y-16412674D01*
X16351015Y-16612674D02*
X16360539Y-16603150D01*
X16360539Y-16603150D02*
X16379587Y-16574579D01*
X16379587Y-16574579D02*
X16389111Y-16555531D01*
X16389111Y-16555531D02*
X16398634Y-16526960D01*
X16398634Y-16526960D02*
X16408158Y-16479341D01*
X16408158Y-16479341D02*
X16408158Y-16441246D01*
X16408158Y-16441246D02*
X16398634Y-16393627D01*
X16398634Y-16393627D02*
X16389111Y-16365055D01*
X16389111Y-16365055D02*
X16379587Y-16346008D01*
X16379587Y-16346008D02*
X16360539Y-16317436D01*
X16360539Y-16317436D02*
X16351015Y-16307912D01*
D10*
X11195000Y-16709000D02*
G75*
G02*
X11120000Y-16709000I-37500J0D01*
G01*
X11120000Y-16709000D02*
G75*
G02*
X11195000Y-16709000I37500J0D01*
G01*
D11*
X11493872Y-16600484D02*
X11512920Y-16600484D01*
X11512920Y-16600484D02*
X11531967Y-16610008D01*
X11531967Y-16610008D02*
X11541491Y-16619531D01*
X11541491Y-16619531D02*
X11551015Y-16638579D01*
X11551015Y-16638579D02*
X11560539Y-16676674D01*
X11560539Y-16676674D02*
X11560539Y-16724293D01*
X11560539Y-16724293D02*
X11551015Y-16762388D01*
X11551015Y-16762388D02*
X11541491Y-16781436D01*
X11541491Y-16781436D02*
X11531967Y-16790960D01*
X11531967Y-16790960D02*
X11512920Y-16800484D01*
X11512920Y-16800484D02*
X11493872Y-16800484D01*
X11493872Y-16800484D02*
X11474824Y-16790960D01*
X11474824Y-16790960D02*
X11465301Y-16781436D01*
X11465301Y-16781436D02*
X11455777Y-16762388D01*
X11455777Y-16762388D02*
X11446253Y-16724293D01*
X11446253Y-16724293D02*
X11446253Y-16676674D01*
X11446253Y-16676674D02*
X11455777Y-16638579D01*
X11455777Y-16638579D02*
X11465301Y-16619531D01*
X11465301Y-16619531D02*
X11474824Y-16610008D01*
X11474824Y-16610008D02*
X11493872Y-16600484D01*
X11646253Y-16781436D02*
X11655777Y-16790960D01*
X11655777Y-16790960D02*
X11646253Y-16800484D01*
X11646253Y-16800484D02*
X11636729Y-16790960D01*
X11636729Y-16790960D02*
X11646253Y-16781436D01*
X11646253Y-16781436D02*
X11646253Y-16800484D01*
X11722443Y-16600484D02*
X11855777Y-16600484D01*
X11855777Y-16600484D02*
X11770062Y-16800484D01*
X12027205Y-16600484D02*
X11931967Y-16600484D01*
X11931967Y-16600484D02*
X11922443Y-16695722D01*
X11922443Y-16695722D02*
X11931967Y-16686198D01*
X11931967Y-16686198D02*
X11951015Y-16676674D01*
X11951015Y-16676674D02*
X11998634Y-16676674D01*
X11998634Y-16676674D02*
X12017682Y-16686198D01*
X12017682Y-16686198D02*
X12027205Y-16695722D01*
X12027205Y-16695722D02*
X12036729Y-16714769D01*
X12036729Y-16714769D02*
X12036729Y-16762388D01*
X12036729Y-16762388D02*
X12027205Y-16781436D01*
X12027205Y-16781436D02*
X12017682Y-16790960D01*
X12017682Y-16790960D02*
X11998634Y-16800484D01*
X11998634Y-16800484D02*
X11951015Y-16800484D01*
X11951015Y-16800484D02*
X11931967Y-16790960D01*
X11931967Y-16790960D02*
X11922443Y-16781436D01*
X12160539Y-16600484D02*
X12179586Y-16600484D01*
X12179586Y-16600484D02*
X12198634Y-16610008D01*
X12198634Y-16610008D02*
X12208158Y-16619531D01*
X12208158Y-16619531D02*
X12217682Y-16638579D01*
X12217682Y-16638579D02*
X12227205Y-16676674D01*
X12227205Y-16676674D02*
X12227205Y-16724293D01*
X12227205Y-16724293D02*
X12217682Y-16762388D01*
X12217682Y-16762388D02*
X12208158Y-16781436D01*
X12208158Y-16781436D02*
X12198634Y-16790960D01*
X12198634Y-16790960D02*
X12179586Y-16800484D01*
X12179586Y-16800484D02*
X12160539Y-16800484D01*
X12160539Y-16800484D02*
X12141491Y-16790960D01*
X12141491Y-16790960D02*
X12131967Y-16781436D01*
X12131967Y-16781436D02*
X12122443Y-16762388D01*
X12122443Y-16762388D02*
X12112920Y-16724293D01*
X12112920Y-16724293D02*
X12112920Y-16676674D01*
X12112920Y-16676674D02*
X12122443Y-16638579D01*
X12122443Y-16638579D02*
X12131967Y-16619531D01*
X12131967Y-16619531D02*
X12141491Y-16610008D01*
X12141491Y-16610008D02*
X12160539Y-16600484D01*
X12312920Y-16800484D02*
X12312920Y-16667150D01*
X12312920Y-16686198D02*
X12322443Y-16676674D01*
X12322443Y-16676674D02*
X12341491Y-16667150D01*
X12341491Y-16667150D02*
X12370063Y-16667150D01*
X12370063Y-16667150D02*
X12389110Y-16676674D01*
X12389110Y-16676674D02*
X12398634Y-16695722D01*
X12398634Y-16695722D02*
X12398634Y-16800484D01*
X12398634Y-16695722D02*
X12408158Y-16676674D01*
X12408158Y-16676674D02*
X12427205Y-16667150D01*
X12427205Y-16667150D02*
X12455777Y-16667150D01*
X12455777Y-16667150D02*
X12474824Y-16676674D01*
X12474824Y-16676674D02*
X12484348Y-16695722D01*
X12484348Y-16695722D02*
X12484348Y-16800484D01*
X12579586Y-16800484D02*
X12579586Y-16667150D01*
X12579586Y-16686198D02*
X12589110Y-16676674D01*
X12589110Y-16676674D02*
X12608158Y-16667150D01*
X12608158Y-16667150D02*
X12636729Y-16667150D01*
X12636729Y-16667150D02*
X12655777Y-16676674D01*
X12655777Y-16676674D02*
X12665301Y-16695722D01*
X12665301Y-16695722D02*
X12665301Y-16800484D01*
X12665301Y-16695722D02*
X12674824Y-16676674D01*
X12674824Y-16676674D02*
X12693872Y-16667150D01*
X12693872Y-16667150D02*
X12722443Y-16667150D01*
X12722443Y-16667150D02*
X12741491Y-16676674D01*
X12741491Y-16676674D02*
X12751015Y-16695722D01*
X12751015Y-16695722D02*
X12751015Y-16800484D01*
X13141491Y-16590960D02*
X12970063Y-16848103D01*
X13398634Y-16600484D02*
X13417682Y-16600484D01*
X13417682Y-16600484D02*
X13436729Y-16610008D01*
X13436729Y-16610008D02*
X13446253Y-16619531D01*
X13446253Y-16619531D02*
X13455777Y-16638579D01*
X13455777Y-16638579D02*
X13465301Y-16676674D01*
X13465301Y-16676674D02*
X13465301Y-16724293D01*
X13465301Y-16724293D02*
X13455777Y-16762388D01*
X13455777Y-16762388D02*
X13446253Y-16781436D01*
X13446253Y-16781436D02*
X13436729Y-16790960D01*
X13436729Y-16790960D02*
X13417682Y-16800484D01*
X13417682Y-16800484D02*
X13398634Y-16800484D01*
X13398634Y-16800484D02*
X13379586Y-16790960D01*
X13379586Y-16790960D02*
X13370063Y-16781436D01*
X13370063Y-16781436D02*
X13360539Y-16762388D01*
X13360539Y-16762388D02*
X13351015Y-16724293D01*
X13351015Y-16724293D02*
X13351015Y-16676674D01*
X13351015Y-16676674D02*
X13360539Y-16638579D01*
X13360539Y-16638579D02*
X13370063Y-16619531D01*
X13370063Y-16619531D02*
X13379586Y-16610008D01*
X13379586Y-16610008D02*
X13398634Y-16600484D01*
X13551015Y-16781436D02*
X13560539Y-16790960D01*
X13560539Y-16790960D02*
X13551015Y-16800484D01*
X13551015Y-16800484D02*
X13541491Y-16790960D01*
X13541491Y-16790960D02*
X13551015Y-16781436D01*
X13551015Y-16781436D02*
X13551015Y-16800484D01*
X13684348Y-16600484D02*
X13703396Y-16600484D01*
X13703396Y-16600484D02*
X13722444Y-16610008D01*
X13722444Y-16610008D02*
X13731967Y-16619531D01*
X13731967Y-16619531D02*
X13741491Y-16638579D01*
X13741491Y-16638579D02*
X13751015Y-16676674D01*
X13751015Y-16676674D02*
X13751015Y-16724293D01*
X13751015Y-16724293D02*
X13741491Y-16762388D01*
X13741491Y-16762388D02*
X13731967Y-16781436D01*
X13731967Y-16781436D02*
X13722444Y-16790960D01*
X13722444Y-16790960D02*
X13703396Y-16800484D01*
X13703396Y-16800484D02*
X13684348Y-16800484D01*
X13684348Y-16800484D02*
X13665301Y-16790960D01*
X13665301Y-16790960D02*
X13655777Y-16781436D01*
X13655777Y-16781436D02*
X13646253Y-16762388D01*
X13646253Y-16762388D02*
X13636729Y-16724293D01*
X13636729Y-16724293D02*
X13636729Y-16676674D01*
X13636729Y-16676674D02*
X13646253Y-16638579D01*
X13646253Y-16638579D02*
X13655777Y-16619531D01*
X13655777Y-16619531D02*
X13665301Y-16610008D01*
X13665301Y-16610008D02*
X13684348Y-16600484D01*
X13827206Y-16619531D02*
X13836729Y-16610008D01*
X13836729Y-16610008D02*
X13855777Y-16600484D01*
X13855777Y-16600484D02*
X13903396Y-16600484D01*
X13903396Y-16600484D02*
X13922444Y-16610008D01*
X13922444Y-16610008D02*
X13931967Y-16619531D01*
X13931967Y-16619531D02*
X13941491Y-16638579D01*
X13941491Y-16638579D02*
X13941491Y-16657627D01*
X13941491Y-16657627D02*
X13931967Y-16686198D01*
X13931967Y-16686198D02*
X13817682Y-16800484D01*
X13817682Y-16800484D02*
X13941491Y-16800484D01*
X14036729Y-16800484D02*
X14074825Y-16800484D01*
X14074825Y-16800484D02*
X14093872Y-16790960D01*
X14093872Y-16790960D02*
X14103396Y-16781436D01*
X14103396Y-16781436D02*
X14122444Y-16752865D01*
X14122444Y-16752865D02*
X14131967Y-16714769D01*
X14131967Y-16714769D02*
X14131967Y-16638579D01*
X14131967Y-16638579D02*
X14122444Y-16619531D01*
X14122444Y-16619531D02*
X14112920Y-16610008D01*
X14112920Y-16610008D02*
X14093872Y-16600484D01*
X14093872Y-16600484D02*
X14055777Y-16600484D01*
X14055777Y-16600484D02*
X14036729Y-16610008D01*
X14036729Y-16610008D02*
X14027206Y-16619531D01*
X14027206Y-16619531D02*
X14017682Y-16638579D01*
X14017682Y-16638579D02*
X14017682Y-16686198D01*
X14017682Y-16686198D02*
X14027206Y-16705246D01*
X14027206Y-16705246D02*
X14036729Y-16714769D01*
X14036729Y-16714769D02*
X14055777Y-16724293D01*
X14055777Y-16724293D02*
X14093872Y-16724293D01*
X14093872Y-16724293D02*
X14112920Y-16714769D01*
X14112920Y-16714769D02*
X14122444Y-16705246D01*
X14122444Y-16705246D02*
X14131967Y-16686198D01*
X14312920Y-16600484D02*
X14217682Y-16600484D01*
X14217682Y-16600484D02*
X14208158Y-16695722D01*
X14208158Y-16695722D02*
X14217682Y-16686198D01*
X14217682Y-16686198D02*
X14236729Y-16676674D01*
X14236729Y-16676674D02*
X14284348Y-16676674D01*
X14284348Y-16676674D02*
X14303396Y-16686198D01*
X14303396Y-16686198D02*
X14312920Y-16695722D01*
X14312920Y-16695722D02*
X14322444Y-16714769D01*
X14322444Y-16714769D02*
X14322444Y-16762388D01*
X14322444Y-16762388D02*
X14312920Y-16781436D01*
X14312920Y-16781436D02*
X14303396Y-16790960D01*
X14303396Y-16790960D02*
X14284348Y-16800484D01*
X14284348Y-16800484D02*
X14236729Y-16800484D01*
X14236729Y-16800484D02*
X14217682Y-16790960D01*
X14217682Y-16790960D02*
X14208158Y-16781436D01*
X14398634Y-16600484D02*
X14398634Y-16638579D01*
X14474825Y-16600484D02*
X14474825Y-16638579D01*
X14770063Y-16876674D02*
X14760539Y-16867150D01*
X14760539Y-16867150D02*
X14741491Y-16838579D01*
X14741491Y-16838579D02*
X14731968Y-16819531D01*
X14731968Y-16819531D02*
X14722444Y-16790960D01*
X14722444Y-16790960D02*
X14712920Y-16743341D01*
X14712920Y-16743341D02*
X14712920Y-16705246D01*
X14712920Y-16705246D02*
X14722444Y-16657627D01*
X14722444Y-16657627D02*
X14731968Y-16629055D01*
X14731968Y-16629055D02*
X14741491Y-16610008D01*
X14741491Y-16610008D02*
X14760539Y-16581436D01*
X14760539Y-16581436D02*
X14770063Y-16571912D01*
X14827206Y-16600484D02*
X14951015Y-16600484D01*
X14951015Y-16600484D02*
X14884348Y-16676674D01*
X14884348Y-16676674D02*
X14912920Y-16676674D01*
X14912920Y-16676674D02*
X14931968Y-16686198D01*
X14931968Y-16686198D02*
X14941491Y-16695722D01*
X14941491Y-16695722D02*
X14951015Y-16714769D01*
X14951015Y-16714769D02*
X14951015Y-16762388D01*
X14951015Y-16762388D02*
X14941491Y-16781436D01*
X14941491Y-16781436D02*
X14931968Y-16790960D01*
X14931968Y-16790960D02*
X14912920Y-16800484D01*
X14912920Y-16800484D02*
X14855777Y-16800484D01*
X14855777Y-16800484D02*
X14836729Y-16790960D01*
X14836729Y-16790960D02*
X14827206Y-16781436D01*
X15189110Y-16800484D02*
X15189110Y-16600484D01*
X15274825Y-16800484D02*
X15274825Y-16695722D01*
X15274825Y-16695722D02*
X15265301Y-16676674D01*
X15265301Y-16676674D02*
X15246253Y-16667150D01*
X15246253Y-16667150D02*
X15217682Y-16667150D01*
X15217682Y-16667150D02*
X15198634Y-16676674D01*
X15198634Y-16676674D02*
X15189110Y-16686198D01*
X15398634Y-16800484D02*
X15379587Y-16790960D01*
X15379587Y-16790960D02*
X15370063Y-16781436D01*
X15370063Y-16781436D02*
X15360539Y-16762388D01*
X15360539Y-16762388D02*
X15360539Y-16705246D01*
X15360539Y-16705246D02*
X15370063Y-16686198D01*
X15370063Y-16686198D02*
X15379587Y-16676674D01*
X15379587Y-16676674D02*
X15398634Y-16667150D01*
X15398634Y-16667150D02*
X15427206Y-16667150D01*
X15427206Y-16667150D02*
X15446253Y-16676674D01*
X15446253Y-16676674D02*
X15455777Y-16686198D01*
X15455777Y-16686198D02*
X15465301Y-16705246D01*
X15465301Y-16705246D02*
X15465301Y-16762388D01*
X15465301Y-16762388D02*
X15455777Y-16781436D01*
X15455777Y-16781436D02*
X15446253Y-16790960D01*
X15446253Y-16790960D02*
X15427206Y-16800484D01*
X15427206Y-16800484D02*
X15398634Y-16800484D01*
X15579587Y-16800484D02*
X15560539Y-16790960D01*
X15560539Y-16790960D02*
X15551015Y-16771912D01*
X15551015Y-16771912D02*
X15551015Y-16600484D01*
X15731968Y-16790960D02*
X15712920Y-16800484D01*
X15712920Y-16800484D02*
X15674825Y-16800484D01*
X15674825Y-16800484D02*
X15655777Y-16790960D01*
X15655777Y-16790960D02*
X15646253Y-16771912D01*
X15646253Y-16771912D02*
X15646253Y-16695722D01*
X15646253Y-16695722D02*
X15655777Y-16676674D01*
X15655777Y-16676674D02*
X15674825Y-16667150D01*
X15674825Y-16667150D02*
X15712920Y-16667150D01*
X15712920Y-16667150D02*
X15731968Y-16676674D01*
X15731968Y-16676674D02*
X15741491Y-16695722D01*
X15741491Y-16695722D02*
X15741491Y-16714769D01*
X15741491Y-16714769D02*
X15646253Y-16733817D01*
X15817682Y-16790960D02*
X15836730Y-16800484D01*
X15836730Y-16800484D02*
X15874825Y-16800484D01*
X15874825Y-16800484D02*
X15893872Y-16790960D01*
X15893872Y-16790960D02*
X15903396Y-16771912D01*
X15903396Y-16771912D02*
X15903396Y-16762388D01*
X15903396Y-16762388D02*
X15893872Y-16743341D01*
X15893872Y-16743341D02*
X15874825Y-16733817D01*
X15874825Y-16733817D02*
X15846253Y-16733817D01*
X15846253Y-16733817D02*
X15827206Y-16724293D01*
X15827206Y-16724293D02*
X15817682Y-16705246D01*
X15817682Y-16705246D02*
X15817682Y-16695722D01*
X15817682Y-16695722D02*
X15827206Y-16676674D01*
X15827206Y-16676674D02*
X15846253Y-16667150D01*
X15846253Y-16667150D02*
X15874825Y-16667150D01*
X15874825Y-16667150D02*
X15893872Y-16676674D01*
X15970063Y-16876674D02*
X15979587Y-16867150D01*
X15979587Y-16867150D02*
X15998634Y-16838579D01*
X15998634Y-16838579D02*
X16008158Y-16819531D01*
X16008158Y-16819531D02*
X16017682Y-16790960D01*
X16017682Y-16790960D02*
X16027206Y-16743341D01*
X16027206Y-16743341D02*
X16027206Y-16705246D01*
X16027206Y-16705246D02*
X16017682Y-16657627D01*
X16017682Y-16657627D02*
X16008158Y-16629055D01*
X16008158Y-16629055D02*
X15998634Y-16610008D01*
X15998634Y-16610008D02*
X15979587Y-16581436D01*
X15979587Y-16581436D02*
X15970063Y-16571912D01*
M02*
