%TF.GenerationSoftware,KiCad,Pcbnew,10.0.4*%
%TF.CreationDate,2026-08-31T10:03:01+02:00*%
%TF.ProjectId,smartbag_core,736d6172-7462-4616-975f-636f72652e6b,rev?*%
%TF.SameCoordinates,Original*%
%TF.FileFunction,Legend,Top*%
%TF.FilePolarity,Positive*%
%FSLAX46Y46*%
G04 Gerber Fmt 4.6, Leading zero omitted, Abs format (unit mm)*
G04 Created by KiCad (PCBNEW 10.0.4) date 2026-08-31 10:03:01*
%MOMM*%
%LPD*%
G01*
G04 APERTURE LIST*
G04 Aperture macros list*
%AMRoundRect*
0 Rectangle with rounded corners*
0 $1 Rounding radius*
0 $2 $3 $4 $5 $6 $7 $8 $9 X,Y pos of 4 corners*
0 Add a 4 corners polygon primitive as box body*
4,1,4,$2,$3,$4,$5,$6,$7,$8,$9,$2,$3,0*
0 Add four circle primitives for the rounded corners*
1,1,$1+$1,$2,$3*
1,1,$1+$1,$4,$5*
1,1,$1+$1,$6,$7*
1,1,$1+$1,$8,$9*
0 Add four rect primitives between the rounded corners*
20,1,$1+$1,$2,$3,$4,$5,0*
20,1,$1+$1,$4,$5,$6,$7,0*
20,1,$1+$1,$6,$7,$8,$9,0*
20,1,$1+$1,$8,$9,$2,$3,0*%
G04 Aperture macros list end*
%ADD10C,0.120000*%
%ADD11C,0.100000*%
%ADD12C,0.225000*%
%ADD13RoundRect,0.140000X-0.140000X-0.170000X0.140000X-0.170000X0.140000X0.170000X-0.140000X0.170000X0*%
%ADD14RoundRect,0.135000X-0.135000X-0.185000X0.135000X-0.185000X0.135000X0.185000X-0.135000X0.185000X0*%
%ADD15RoundRect,0.250000X-0.350000X-0.850000X0.350000X-0.850000X0.350000X0.850000X-0.350000X0.850000X0*%
%ADD16RoundRect,0.062500X-0.375000X-0.062500X0.375000X-0.062500X0.375000X0.062500X-0.375000X0.062500X0*%
%ADD17RoundRect,0.062500X-0.062500X-0.375000X0.062500X-0.375000X0.062500X0.375000X-0.062500X0.375000X0*%
%ADD18R,3.450000X3.450000*%
%ADD19R,0.675000X0.250000*%
%ADD20R,0.250000X0.675000*%
%ADD21RoundRect,0.150000X-0.150000X-0.625000X0.150000X-0.625000X0.150000X0.625000X-0.150000X0.625000X0*%
%ADD22RoundRect,0.250000X-0.350000X-0.650000X0.350000X-0.650000X0.350000X0.650000X-0.350000X0.650000X0*%
%ADD23RoundRect,0.218750X-0.218750X-0.256250X0.218750X-0.256250X0.218750X0.256250X-0.218750X0.256250X0*%
%ADD24RoundRect,0.050000X-0.350000X-0.050000X0.350000X-0.050000X0.350000X0.050000X-0.350000X0.050000X0*%
%ADD25RoundRect,0.050000X-0.050000X-0.350000X0.050000X-0.350000X0.050000X0.350000X-0.050000X0.350000X0*%
%ADD26R,4.600000X4.600000*%
%ADD27R,0.300000X1.300000*%
%ADD28R,1.800000X2.200000*%
%ADD29RoundRect,0.200000X-0.250000X-0.200000X0.250000X-0.200000X0.250000X0.200000X-0.250000X0.200000X0*%
%ADD30RoundRect,0.100000X-0.850000X-0.100000X0.850000X-0.100000X0.850000X0.100000X-0.850000X0.100000X0*%
%ADD31RoundRect,0.150000X-0.587500X-0.150000X0.587500X-0.150000X0.587500X0.150000X-0.587500X0.150000X0*%
%ADD32RoundRect,0.147500X-0.147500X-0.172500X0.147500X-0.172500X0.147500X0.172500X-0.147500X0.172500X0*%
%ADD33C,0.250000*%
%ADD34RoundRect,0.100000X-0.637500X-0.100000X0.637500X-0.100000X0.637500X0.100000X-0.637500X0.100000X0*%
G04 APERTURE END LIST*
D10*
X140155137Y-146430521D02*
X140459899Y-146430521D01*
X140269423Y-146963855D02*
X140269423Y-146278140D01*
X140269423Y-146278140D02*
X140307518Y-146201950D01*
X140307518Y-146201950D02*
X140383708Y-146163855D01*
X140383708Y-146163855D02*
X140459899Y-146163855D01*
X140840851Y-146963855D02*
X140764661Y-146925760D01*
X140764661Y-146925760D02*
X140726566Y-146849569D01*
X140726566Y-146849569D02*
X140726566Y-146163855D01*
X141450376Y-146925760D02*
X141374185Y-146963855D01*
X141374185Y-146963855D02*
X141221804Y-146963855D01*
X141221804Y-146963855D02*
X141145614Y-146925760D01*
X141145614Y-146925760D02*
X141107518Y-146849569D01*
X141107518Y-146849569D02*
X141107518Y-146544807D01*
X141107518Y-146544807D02*
X141145614Y-146468617D01*
X141145614Y-146468617D02*
X141221804Y-146430521D01*
X141221804Y-146430521D02*
X141374185Y-146430521D01*
X141374185Y-146430521D02*
X141450376Y-146468617D01*
X141450376Y-146468617D02*
X141488471Y-146544807D01*
X141488471Y-146544807D02*
X141488471Y-146620998D01*
X141488471Y-146620998D02*
X141107518Y-146697188D01*
X141755137Y-146963855D02*
X142174185Y-146430521D01*
X141755137Y-146430521D02*
X142174185Y-146963855D01*
X234536089Y-138744807D02*
X234269423Y-138744807D01*
X234269423Y-139163855D02*
X234269423Y-138363855D01*
X234269423Y-138363855D02*
X234650375Y-138363855D01*
X234917041Y-139125760D02*
X235031327Y-139163855D01*
X235031327Y-139163855D02*
X235221803Y-139163855D01*
X235221803Y-139163855D02*
X235297994Y-139125760D01*
X235297994Y-139125760D02*
X235336089Y-139087664D01*
X235336089Y-139087664D02*
X235374184Y-139011474D01*
X235374184Y-139011474D02*
X235374184Y-138935283D01*
X235374184Y-138935283D02*
X235336089Y-138859093D01*
X235336089Y-138859093D02*
X235297994Y-138820998D01*
X235297994Y-138820998D02*
X235221803Y-138782902D01*
X235221803Y-138782902D02*
X235069422Y-138744807D01*
X235069422Y-138744807D02*
X234993232Y-138706712D01*
X234993232Y-138706712D02*
X234955137Y-138668617D01*
X234955137Y-138668617D02*
X234917041Y-138592426D01*
X234917041Y-138592426D02*
X234917041Y-138516236D01*
X234917041Y-138516236D02*
X234955137Y-138440045D01*
X234955137Y-138440045D02*
X234993232Y-138401950D01*
X234993232Y-138401950D02*
X235069422Y-138363855D01*
X235069422Y-138363855D02*
X235259899Y-138363855D01*
X235259899Y-138363855D02*
X235374184Y-138401950D01*
X236174185Y-139163855D02*
X235907518Y-138782902D01*
X235717042Y-139163855D02*
X235717042Y-138363855D01*
X235717042Y-138363855D02*
X236021804Y-138363855D01*
X236021804Y-138363855D02*
X236097994Y-138401950D01*
X236097994Y-138401950D02*
X236136089Y-138440045D01*
X236136089Y-138440045D02*
X236174185Y-138516236D01*
X236174185Y-138516236D02*
X236174185Y-138630521D01*
X236174185Y-138630521D02*
X236136089Y-138706712D01*
X236136089Y-138706712D02*
X236097994Y-138744807D01*
X236097994Y-138744807D02*
X236021804Y-138782902D01*
X236021804Y-138782902D02*
X235717042Y-138782902D01*
X270155137Y-146430521D02*
X270459899Y-146430521D01*
X270269423Y-146963855D02*
X270269423Y-146278140D01*
X270269423Y-146278140D02*
X270307518Y-146201950D01*
X270307518Y-146201950D02*
X270383708Y-146163855D01*
X270383708Y-146163855D02*
X270459899Y-146163855D01*
X270840851Y-146963855D02*
X270764661Y-146925760D01*
X270764661Y-146925760D02*
X270726566Y-146849569D01*
X270726566Y-146849569D02*
X270726566Y-146163855D01*
X271450376Y-146925760D02*
X271374185Y-146963855D01*
X271374185Y-146963855D02*
X271221804Y-146963855D01*
X271221804Y-146963855D02*
X271145614Y-146925760D01*
X271145614Y-146925760D02*
X271107518Y-146849569D01*
X271107518Y-146849569D02*
X271107518Y-146544807D01*
X271107518Y-146544807D02*
X271145614Y-146468617D01*
X271145614Y-146468617D02*
X271221804Y-146430521D01*
X271221804Y-146430521D02*
X271374185Y-146430521D01*
X271374185Y-146430521D02*
X271450376Y-146468617D01*
X271450376Y-146468617D02*
X271488471Y-146544807D01*
X271488471Y-146544807D02*
X271488471Y-146620998D01*
X271488471Y-146620998D02*
X271107518Y-146697188D01*
X271755137Y-146963855D02*
X272174185Y-146430521D01*
X271755137Y-146430521D02*
X272174185Y-146963855D01*
%TO.C,C21*%
X119892164Y-152640000D02*
X120107836Y-152640000D01*
X119892164Y-153360000D02*
X120107836Y-153360000D01*
%TO.C,R69*%
X230646359Y-153720000D02*
X230953641Y-153720000D01*
X230646359Y-154480000D02*
X230953641Y-154480000D01*
%TO.C,RT1*%
X222846359Y-142120000D02*
X223153641Y-142120000D01*
X222846359Y-142880000D02*
X223153641Y-142880000D01*
%TO.C,AE1*%
X163000000Y-145940000D02*
X163000000Y-148660000D01*
X163000000Y-148660000D02*
X169710000Y-148660000D01*
X169710000Y-145940000D02*
X163000000Y-145940000D01*
%TO.C,R45*%
X240196359Y-147270000D02*
X240503641Y-147270000D01*
X240196359Y-148030000D02*
X240503641Y-148030000D01*
%TO.C,R65*%
X239846359Y-155670000D02*
X240153641Y-155670000D01*
X239846359Y-156430000D02*
X240153641Y-156430000D01*
%TO.C,R75*%
X246196359Y-152320000D02*
X246503641Y-152320000D01*
X246196359Y-153080000D02*
X246503641Y-153080000D01*
%TO.C,R8*%
X200346359Y-141620000D02*
X200653641Y-141620000D01*
X200346359Y-142380000D02*
X200653641Y-142380000D01*
%TO.C,R6*%
X225996359Y-148120000D02*
X226303641Y-148120000D01*
X225996359Y-148880000D02*
X226303641Y-148880000D01*
%TO.C,C25*%
X117892164Y-142140000D02*
X118107836Y-142140000D01*
X117892164Y-142860000D02*
X118107836Y-142860000D01*
%TO.C,C44*%
X216892164Y-142140000D02*
X217107836Y-142140000D01*
X216892164Y-142860000D02*
X217107836Y-142860000D01*
%TO.C,R7*%
X197846359Y-141620000D02*
X198153641Y-141620000D01*
X197846359Y-142380000D02*
X198153641Y-142380000D01*
%TO.C,R44*%
X237546359Y-147270000D02*
X237853641Y-147270000D01*
X237546359Y-148030000D02*
X237853641Y-148030000D01*
%TO.C,C51*%
X204892164Y-152640000D02*
X205107836Y-152640000D01*
X204892164Y-153360000D02*
X205107836Y-153360000D01*
%TO.C,R1*%
X225196359Y-142120000D02*
X225503641Y-142120000D01*
X225196359Y-142880000D02*
X225503641Y-142880000D01*
%TO.C,C33*%
X293892164Y-152640000D02*
X294107836Y-152640000D01*
X293892164Y-153360000D02*
X294107836Y-153360000D01*
%TO.C,U3*%
X209640000Y-144340000D02*
X210115000Y-144340000D01*
X209640000Y-144815000D02*
X209640000Y-144340000D01*
X209640000Y-149560000D02*
X209640000Y-149085000D01*
X210115000Y-149560000D02*
X209640000Y-149560000D01*
X214385000Y-144340000D02*
X214860000Y-144340000D01*
X214860000Y-144340000D02*
X214860000Y-144815000D01*
X214860000Y-149085000D02*
X214860000Y-149560000D01*
X214860000Y-149560000D02*
X214385000Y-149560000D01*
X209110000Y-145200000D02*
X208780000Y-145440000D01*
X208780000Y-144960000D01*
X209110000Y-145200000D01*
G36*
X209110000Y-145200000D02*
G01*
X208780000Y-145440000D01*
X208780000Y-144960000D01*
X209110000Y-145200000D01*
G37*
%TO.C,C30*%
X302892164Y-152640000D02*
X303107836Y-152640000D01*
X302892164Y-153360000D02*
X303107836Y-153360000D01*
%TO.C,C50*%
X207742164Y-141290000D02*
X207957836Y-141290000D01*
X207742164Y-142010000D02*
X207957836Y-142010000D01*
%TO.C,R67*%
X244796359Y-154620000D02*
X245103641Y-154620000D01*
X244796359Y-155380000D02*
X245103641Y-155380000D01*
%TO.C,R2*%
X216596359Y-148120000D02*
X216903641Y-148120000D01*
X216596359Y-148880000D02*
X216903641Y-148880000D01*
%TO.C,R68*%
X228346359Y-153720000D02*
X228653641Y-153720000D01*
X228346359Y-154480000D02*
X228653641Y-154480000D01*
%TO.C,U4*%
D11*
X203050000Y-143350000D02*
X203050000Y-143130000D01*
X203050000Y-143350000D02*
X203770000Y-143350000D01*
X203250000Y-140650000D02*
X203770000Y-140650000D01*
X205530000Y-140650000D02*
X206250000Y-140650000D01*
X206250000Y-140650000D02*
X206250000Y-140870000D01*
X206250000Y-143130000D02*
X206250000Y-143350000D01*
X206250000Y-143350000D02*
X205530000Y-143350000D01*
X203050000Y-140650000D02*
X202690000Y-140650000D01*
X203050000Y-140290000D01*
X203050000Y-140650000D01*
G36*
X203050000Y-140650000D02*
G01*
X202690000Y-140650000D01*
X203050000Y-140290000D01*
X203050000Y-140650000D01*
G37*
%TO.C,J2*%
D10*
X215490000Y-151935000D02*
X216540000Y-151935000D01*
X215490000Y-154435000D02*
X215490000Y-151935000D01*
X216540000Y-151935000D02*
X216540000Y-150945000D01*
X216660000Y-156405000D02*
X218540000Y-156405000D01*
X219710000Y-151935000D02*
X218660000Y-151935000D01*
X219710000Y-154435000D02*
X219710000Y-151935000D01*
%TO.C,R42*%
X232596359Y-146220000D02*
X232903641Y-146220000D01*
X232596359Y-146980000D02*
X232903641Y-146980000D01*
%TO.C,L3*%
X208487221Y-152490000D02*
X208812779Y-152490000D01*
X208487221Y-153510000D02*
X208812779Y-153510000D01*
%TO.C,C61*%
X228892164Y-141140000D02*
X229107836Y-141140000D01*
X228892164Y-141860000D02*
X229107836Y-141860000D01*
%TO.C,R3*%
X218946359Y-148120000D02*
X219253641Y-148120000D01*
X218946359Y-148880000D02*
X219253641Y-148880000D01*
%TO.C,C34*%
X294892164Y-142140000D02*
X295107836Y-142140000D01*
X294892164Y-142860000D02*
X295107836Y-142860000D01*
%TO.C,U1*%
X190890000Y-144890000D02*
X191440000Y-144890000D01*
X190890000Y-145440000D02*
X190890000Y-144890000D01*
X190890000Y-151110000D02*
X190890000Y-150560000D01*
X191440000Y-151110000D02*
X190890000Y-151110000D01*
X196560000Y-144890000D02*
X197110000Y-144890000D01*
X197110000Y-144890000D02*
X197110000Y-145440000D01*
X197110000Y-150560000D02*
X197110000Y-151110000D01*
X197110000Y-151110000D02*
X196560000Y-151110000D01*
X190390000Y-145800000D02*
X190060000Y-146040000D01*
X190060000Y-145560000D01*
X190390000Y-145800000D01*
G36*
X190390000Y-145800000D02*
G01*
X190060000Y-146040000D01*
X190060000Y-145560000D01*
X190390000Y-145800000D01*
G37*
%TO.C,J1*%
X171500000Y-150800000D02*
X171500000Y-152140000D01*
X171500000Y-154860000D02*
X171500000Y-156600000D01*
X171500000Y-156600000D02*
X179800000Y-156600000D01*
X172990000Y-150800000D02*
X171500000Y-150800000D01*
X172990000Y-150800000D02*
X172990000Y-149600000D01*
X178310000Y-150800000D02*
X179800000Y-150800000D01*
X179800000Y-150800000D02*
X179800000Y-152140000D01*
X179800000Y-156600000D02*
X179800000Y-154860000D01*
%TO.C,R10*%
X228846359Y-144120000D02*
X229153641Y-144120000D01*
X228846359Y-144880000D02*
X229153641Y-144880000D01*
%TO.C,Y3*%
X290090000Y-141290000D02*
X290090000Y-143710000D01*
X290090000Y-143710000D02*
X292910000Y-143710000D01*
%TO.C,R74*%
X243896359Y-152320000D02*
X244203641Y-152320000D01*
X243896359Y-153080000D02*
X244203641Y-153080000D01*
%TO.C,R12*%
X233496359Y-144120000D02*
X233803641Y-144120000D01*
X233496359Y-144880000D02*
X233803641Y-144880000D01*
%TO.C,U7*%
X249540000Y-147990000D02*
X255060000Y-147990000D01*
X249540000Y-148165000D02*
X249540000Y-147990000D01*
X249540000Y-156410000D02*
X249540000Y-156235000D01*
X255060000Y-147990000D02*
X255060000Y-148165000D01*
X255060000Y-156235000D02*
X255060000Y-156410000D01*
X255060000Y-156410000D02*
X249540000Y-156410000D01*
X248800000Y-148160000D02*
X248460000Y-147690000D01*
X249140000Y-147690000D01*
X248800000Y-148160000D01*
G36*
X248800000Y-148160000D02*
G01*
X248460000Y-147690000D01*
X249140000Y-147690000D01*
X248800000Y-148160000D01*
G37*
%TO.C,R41*%
X230296359Y-146220000D02*
X230603641Y-146220000D01*
X230296359Y-146980000D02*
X230603641Y-146980000D01*
%TO.C,U5*%
X184240000Y-148440000D02*
X185760000Y-148440000D01*
X184240000Y-148490000D02*
X184240000Y-148440000D01*
X184240000Y-150390000D02*
X184240000Y-149610000D01*
X184240000Y-151560000D02*
X184240000Y-151510000D01*
X185760000Y-148440000D02*
X185760000Y-149440000D01*
X185760000Y-150560000D02*
X185760000Y-151560000D01*
X185760000Y-151560000D02*
X184240000Y-151560000D01*
X183700000Y-149620000D02*
X183940000Y-149950000D01*
X183460000Y-149950000D01*
X183700000Y-149620000D01*
G36*
X183940000Y-149950000D02*
G01*
X183460000Y-149950000D01*
X183700000Y-149620000D01*
X183940000Y-149950000D01*
G37*
%TO.C,J4*%
X238750000Y-140700000D02*
X238750000Y-142040000D01*
X238750000Y-144760000D02*
X238750000Y-146500000D01*
X238750000Y-146500000D02*
X254050000Y-146500000D01*
X240240000Y-140700000D02*
X238750000Y-140700000D01*
X240240000Y-140700000D02*
X240240000Y-139500000D01*
X252560000Y-140700000D02*
X254050000Y-140700000D01*
X254050000Y-140700000D02*
X254050000Y-142040000D01*
X254050000Y-146500000D02*
X254050000Y-144760000D01*
%TO.C,L1*%
X187837221Y-152490000D02*
X188162779Y-152490000D01*
X187837221Y-153510000D02*
X188162779Y-153510000D01*
%TO.C,L4*%
X211687221Y-152490000D02*
X212012779Y-152490000D01*
X211687221Y-153510000D02*
X212012779Y-153510000D01*
%TO.C,C52*%
X182742164Y-152640000D02*
X182957836Y-152640000D01*
X182742164Y-153360000D02*
X182957836Y-153360000D01*
%TO.C,R62*%
X232946359Y-154970000D02*
X233253641Y-154970000D01*
X232946359Y-155730000D02*
X233253641Y-155730000D01*
%TO.C,C43*%
X214892164Y-142140000D02*
X215107836Y-142140000D01*
X214892164Y-142860000D02*
X215107836Y-142860000D01*
%TO.C,C46*%
X220892164Y-142140000D02*
X221107836Y-142140000D01*
X220892164Y-142860000D02*
X221107836Y-142860000D01*
%TO.C,C23*%
X125892164Y-152640000D02*
X126107836Y-152640000D01*
X125892164Y-153360000D02*
X126107836Y-153360000D01*
%TO.C,C41*%
X210892164Y-142140000D02*
X211107836Y-142140000D01*
X210892164Y-142860000D02*
X211107836Y-142860000D01*
%TO.C,C45*%
X218892164Y-142140000D02*
X219107836Y-142140000D01*
X218892164Y-142860000D02*
X219107836Y-142860000D01*
%TO.C,R73*%
X239846359Y-154420000D02*
X240153641Y-154420000D01*
X239846359Y-155180000D02*
X240153641Y-155180000D01*
%TO.C,Y1*%
X183590000Y-140790000D02*
X183590000Y-143210000D01*
X183590000Y-143210000D02*
X186410000Y-143210000D01*
%TO.C,U6*%
X295250000Y-145400000D02*
X300750000Y-145400000D01*
X295250000Y-150600000D02*
X300750000Y-150600000D01*
D12*
X294962500Y-151000000D02*
G75*
G02*
X294737500Y-151000000I-112500J0D01*
G01*
X294737500Y-151000000D02*
G75*
G02*
X294962500Y-151000000I112500J0D01*
G01*
%TO.C,Y2*%
D10*
X127090000Y-141290000D02*
X127090000Y-143710000D01*
X127090000Y-143710000D02*
X129910000Y-143710000D01*
%TO.C,R71*%
X235246359Y-154420000D02*
X235553641Y-154420000D01*
X235246359Y-155180000D02*
X235553641Y-155180000D01*
%TO.C,U9*%
X236790000Y-148740000D02*
X241410000Y-148740000D01*
X236790000Y-148940000D02*
X236790000Y-148740000D01*
X236790000Y-153960000D02*
X236790000Y-153760000D01*
X241410000Y-148740000D02*
X241410000Y-148940000D01*
X241410000Y-153760000D02*
X241410000Y-153960000D01*
X241410000Y-153960000D02*
X236790000Y-153960000D01*
X236150000Y-148940000D02*
X235810000Y-148470000D01*
X236490000Y-148470000D01*
X236150000Y-148940000D01*
G36*
X236150000Y-148940000D02*
G01*
X235810000Y-148470000D01*
X236490000Y-148470000D01*
X236150000Y-148940000D01*
G37*
%TO.C,C2*%
X188392164Y-146640000D02*
X188607836Y-146640000D01*
X188392164Y-147360000D02*
X188607836Y-147360000D01*
%TO.C,C63*%
X233892164Y-141140000D02*
X234107836Y-141140000D01*
X233892164Y-141860000D02*
X234107836Y-141860000D01*
%TO.C,R72*%
X237546359Y-154420000D02*
X237853641Y-154420000D01*
X237546359Y-155180000D02*
X237853641Y-155180000D01*
%TO.C,R11*%
X231346359Y-144120000D02*
X231653641Y-144120000D01*
X231346359Y-144880000D02*
X231653641Y-144880000D01*
%TO.C,C22*%
X122892164Y-152640000D02*
X123107836Y-152640000D01*
X122892164Y-153360000D02*
X123107836Y-153360000D01*
%TO.C,R63*%
X235246359Y-155670000D02*
X235553641Y-155670000D01*
X235246359Y-156430000D02*
X235553641Y-156430000D01*
%TO.C,C5*%
X192392164Y-142640000D02*
X192607836Y-142640000D01*
X192392164Y-143360000D02*
X192607836Y-143360000D01*
%TO.C,J5*%
X172890000Y-141215000D02*
X173940000Y-141215000D01*
X172890000Y-143715000D02*
X172890000Y-141215000D01*
X173940000Y-141215000D02*
X173940000Y-140225000D01*
X174060000Y-145685000D02*
X177940000Y-145685000D01*
X179110000Y-141215000D02*
X178060000Y-141215000D01*
X179110000Y-143715000D02*
X179110000Y-141215000D01*
%TO.C,U2*%
X124750000Y-145400000D02*
X119250000Y-145400000D01*
X124750000Y-150600000D02*
X119250000Y-150600000D01*
D12*
X125262500Y-145000000D02*
G75*
G02*
X125037500Y-145000000I-112500J0D01*
G01*
X125037500Y-145000000D02*
G75*
G02*
X125262500Y-145000000I112500J0D01*
G01*
%TO.C,C20*%
D10*
X116892164Y-152640000D02*
X117107836Y-152640000D01*
X116892164Y-153360000D02*
X117107836Y-153360000D01*
%TO.C,C3*%
X196892164Y-152640000D02*
X197107836Y-152640000D01*
X196892164Y-153360000D02*
X197107836Y-153360000D01*
%TO.C,C40*%
X208542164Y-142490000D02*
X208757836Y-142490000D01*
X208542164Y-143210000D02*
X208757836Y-143210000D01*
%TO.C,R43*%
X235246359Y-146220000D02*
X235553641Y-146220000D01*
X235246359Y-146980000D02*
X235553641Y-146980000D01*
%TO.C,J3*%
X221990000Y-151235000D02*
X223040000Y-151235000D01*
X221990000Y-153735000D02*
X221990000Y-151235000D01*
X223040000Y-151235000D02*
X223040000Y-150245000D01*
X223160000Y-155705000D02*
X225040000Y-155705000D01*
X226210000Y-151235000D02*
X225160000Y-151235000D01*
X226210000Y-153735000D02*
X226210000Y-151235000D01*
%TO.C,U8*%
X228890000Y-148040000D02*
X233510000Y-148040000D01*
X228890000Y-148240000D02*
X228890000Y-148040000D01*
X228890000Y-153260000D02*
X228890000Y-153060000D01*
X233510000Y-148040000D02*
X233510000Y-148240000D01*
X233510000Y-153060000D02*
X233510000Y-153260000D01*
X233510000Y-153260000D02*
X228890000Y-153260000D01*
X228250000Y-148240000D02*
X227910000Y-147770000D01*
X228590000Y-147770000D01*
X228250000Y-148240000D01*
G36*
X228250000Y-148240000D02*
G01*
X227910000Y-147770000D01*
X228590000Y-147770000D01*
X228250000Y-148240000D01*
G37*
%TO.C,C24*%
X124892164Y-142140000D02*
X125107836Y-142140000D01*
X124892164Y-142860000D02*
X125107836Y-142860000D01*
%TO.C,R70*%
X232946359Y-153720000D02*
X233253641Y-153720000D01*
X232946359Y-154480000D02*
X233253641Y-154480000D01*
%TO.C,C42*%
X212892164Y-142140000D02*
X213107836Y-142140000D01*
X212892164Y-142860000D02*
X213107836Y-142860000D01*
%TO.C,C6*%
X168892164Y-151640000D02*
X169107836Y-151640000D01*
X168892164Y-152360000D02*
X169107836Y-152360000D01*
%TO.C,C35*%
X301892164Y-142140000D02*
X302107836Y-142140000D01*
X301892164Y-142860000D02*
X302107836Y-142860000D01*
%TO.C,C1*%
X188392164Y-144640000D02*
X188607836Y-144640000D01*
X188392164Y-145360000D02*
X188607836Y-145360000D01*
%TO.C,R40*%
X227996359Y-146220000D02*
X228303641Y-146220000D01*
X227996359Y-146980000D02*
X228303641Y-146980000D01*
%TO.C,R5*%
X223646359Y-148120000D02*
X223953641Y-148120000D01*
X223646359Y-148880000D02*
X223953641Y-148880000D01*
%TO.C,R66*%
X242496359Y-154620000D02*
X242803641Y-154620000D01*
X242496359Y-155380000D02*
X242803641Y-155380000D01*
%TO.C,C60*%
X236042164Y-144840000D02*
X236257836Y-144840000D01*
X236042164Y-145560000D02*
X236257836Y-145560000D01*
%TO.C,C31*%
X299892164Y-152640000D02*
X300107836Y-152640000D01*
X299892164Y-153360000D02*
X300107836Y-153360000D01*
%TO.C,R4*%
X221296359Y-148120000D02*
X221603641Y-148120000D01*
X221296359Y-148880000D02*
X221603641Y-148880000D01*
%TO.C,R61*%
X230646359Y-154970000D02*
X230953641Y-154970000D01*
X230646359Y-155730000D02*
X230953641Y-155730000D01*
%TO.C,C7*%
X194892164Y-152640000D02*
X195107836Y-152640000D01*
X194892164Y-153360000D02*
X195107836Y-153360000D01*
%TO.C,C11*%
X172892164Y-147790000D02*
X173107836Y-147790000D01*
X172892164Y-148510000D02*
X173107836Y-148510000D01*
%TO.C,C4*%
X188392164Y-148840000D02*
X188607836Y-148840000D01*
X188392164Y-149560000D02*
X188607836Y-149560000D01*
%TO.C,C62*%
X231392164Y-141140000D02*
X231607836Y-141140000D01*
X231392164Y-141860000D02*
X231607836Y-141860000D01*
%TO.C,C32*%
X296892164Y-152640000D02*
X297107836Y-152640000D01*
X296892164Y-153360000D02*
X297107836Y-153360000D01*
%TO.C,R60*%
X227996359Y-155320000D02*
X228303641Y-155320000D01*
X227996359Y-156080000D02*
X228303641Y-156080000D01*
%TO.C,R64*%
X237546359Y-155670000D02*
X237853641Y-155670000D01*
X237546359Y-156430000D02*
X237853641Y-156430000D01*
%TO.C,C8*%
X199392164Y-146440000D02*
X199607836Y-146440000D01*
X199392164Y-147160000D02*
X199607836Y-147160000D01*
%TD*%
%LPC*%
D13*
%TO.C,C21*%
X119520000Y-153000000D03*
X120480000Y-153000000D03*
%TD*%
D14*
%TO.C,R69*%
X230290000Y-154100000D03*
X231310000Y-154100000D03*
%TD*%
%TO.C,RT1*%
X222490000Y-142500000D03*
X223510000Y-142500000D03*
%TD*%
D15*
%TO.C,AE1*%
X163860000Y-147300000D03*
X169560000Y-147300000D03*
%TD*%
D14*
%TO.C,R45*%
X239840000Y-147650000D03*
X240860000Y-147650000D03*
%TD*%
%TO.C,R65*%
X239490000Y-156050000D03*
X240510000Y-156050000D03*
%TD*%
%TO.C,R75*%
X245840000Y-152700000D03*
X246860000Y-152700000D03*
%TD*%
%TO.C,R8*%
X199990000Y-142000000D03*
X201010000Y-142000000D03*
%TD*%
%TO.C,R6*%
X225640000Y-148500000D03*
X226660000Y-148500000D03*
%TD*%
D13*
%TO.C,C25*%
X117520000Y-142500000D03*
X118480000Y-142500000D03*
%TD*%
%TO.C,C44*%
X216520000Y-142500000D03*
X217480000Y-142500000D03*
%TD*%
D14*
%TO.C,R7*%
X197490000Y-142000000D03*
X198510000Y-142000000D03*
%TD*%
%TO.C,R44*%
X237190000Y-147650000D03*
X238210000Y-147650000D03*
%TD*%
D13*
%TO.C,C51*%
X204520000Y-153000000D03*
X205480000Y-153000000D03*
%TD*%
D14*
%TO.C,R1*%
X224840000Y-142500000D03*
X225860000Y-142500000D03*
%TD*%
D13*
%TO.C,C33*%
X293520000Y-153000000D03*
X294480000Y-153000000D03*
%TD*%
D16*
%TO.C,U3*%
X209812500Y-145200000D03*
X209812500Y-145700000D03*
X209812500Y-146200000D03*
X209812500Y-146700000D03*
X209812500Y-147200000D03*
X209812500Y-147700000D03*
X209812500Y-148200000D03*
X209812500Y-148700000D03*
D17*
X210500000Y-149387500D03*
X211000000Y-149387500D03*
X211500000Y-149387500D03*
X212000000Y-149387500D03*
X212500000Y-149387500D03*
X213000000Y-149387500D03*
X213500000Y-149387500D03*
X214000000Y-149387500D03*
D16*
X214687500Y-148700000D03*
X214687500Y-148200000D03*
X214687500Y-147700000D03*
X214687500Y-147200000D03*
X214687500Y-146700000D03*
X214687500Y-146200000D03*
X214687500Y-145700000D03*
X214687500Y-145200000D03*
D17*
X214000000Y-144512500D03*
X213500000Y-144512500D03*
X213000000Y-144512500D03*
X212500000Y-144512500D03*
X212000000Y-144512500D03*
X211500000Y-144512500D03*
X211000000Y-144512500D03*
X210500000Y-144512500D03*
D18*
X212250000Y-146950000D03*
%TD*%
D13*
%TO.C,C30*%
X302520000Y-153000000D03*
X303480000Y-153000000D03*
%TD*%
%TO.C,C50*%
X207370000Y-141650000D03*
X208330000Y-141650000D03*
%TD*%
D14*
%TO.C,R67*%
X244440000Y-155000000D03*
X245460000Y-155000000D03*
%TD*%
%TO.C,R2*%
X216240000Y-148500000D03*
X217260000Y-148500000D03*
%TD*%
%TO.C,R68*%
X227990000Y-154100000D03*
X229010000Y-154100000D03*
%TD*%
D19*
%TO.C,U4*%
X203387500Y-141250000D03*
X203387500Y-141750000D03*
X203387500Y-142250000D03*
X203387500Y-142750000D03*
D20*
X204150000Y-143012500D03*
X204650000Y-143012500D03*
X205150000Y-143012500D03*
D19*
X205912500Y-142750000D03*
X205912500Y-142250000D03*
X205912500Y-141750000D03*
X205912500Y-141250000D03*
D20*
X205150000Y-140987500D03*
X204650000Y-140987500D03*
X204150000Y-140987500D03*
%TD*%
D21*
%TO.C,J2*%
X217100000Y-151720000D03*
X218100000Y-151720000D03*
D22*
X215800000Y-155595000D03*
X219400000Y-155595000D03*
%TD*%
D14*
%TO.C,R42*%
X232240000Y-146600000D03*
X233260000Y-146600000D03*
%TD*%
D23*
%TO.C,L3*%
X207862500Y-153000000D03*
X209437500Y-153000000D03*
%TD*%
D13*
%TO.C,C61*%
X228520000Y-141500000D03*
X229480000Y-141500000D03*
%TD*%
D14*
%TO.C,R3*%
X218590000Y-148500000D03*
X219610000Y-148500000D03*
%TD*%
D13*
%TO.C,C34*%
X294520000Y-142500000D03*
X295480000Y-142500000D03*
%TD*%
D24*
%TO.C,U1*%
X191050000Y-145800000D03*
X191050000Y-146200000D03*
X191050000Y-146600000D03*
X191050000Y-147000000D03*
X191050000Y-147400000D03*
X191050000Y-147800000D03*
X191050000Y-148200000D03*
X191050000Y-148600000D03*
X191050000Y-149000000D03*
X191050000Y-149400000D03*
X191050000Y-149800000D03*
X191050000Y-150200000D03*
D25*
X191800000Y-150950000D03*
X192200000Y-150950000D03*
X192600000Y-150950000D03*
X193000000Y-150950000D03*
X193400000Y-150950000D03*
X193800000Y-150950000D03*
X194200000Y-150950000D03*
X194600000Y-150950000D03*
X195000000Y-150950000D03*
X195400000Y-150950000D03*
X195800000Y-150950000D03*
X196200000Y-150950000D03*
D24*
X196950000Y-150200000D03*
X196950000Y-149800000D03*
X196950000Y-149400000D03*
X196950000Y-149000000D03*
X196950000Y-148600000D03*
X196950000Y-148200000D03*
X196950000Y-147800000D03*
X196950000Y-147400000D03*
X196950000Y-147000000D03*
X196950000Y-146600000D03*
X196950000Y-146200000D03*
X196950000Y-145800000D03*
D25*
X196200000Y-145050000D03*
X195800000Y-145050000D03*
X195400000Y-145050000D03*
X195000000Y-145050000D03*
X194600000Y-145050000D03*
X194200000Y-145050000D03*
X193800000Y-145050000D03*
X193400000Y-145050000D03*
X193000000Y-145050000D03*
X192600000Y-145050000D03*
X192200000Y-145050000D03*
X191800000Y-145050000D03*
D26*
X194000000Y-148000000D03*
%TD*%
D27*
%TO.C,J1*%
X173400000Y-150250000D03*
X173900000Y-150250000D03*
X174400000Y-150250000D03*
X174900000Y-150250000D03*
X175400000Y-150250000D03*
X175900000Y-150250000D03*
X176400000Y-150250000D03*
X176900000Y-150250000D03*
X177400000Y-150250000D03*
X177900000Y-150250000D03*
D28*
X171500000Y-153500000D03*
X179800000Y-153500000D03*
%TD*%
D14*
%TO.C,R10*%
X228490000Y-144500000D03*
X229510000Y-144500000D03*
%TD*%
D29*
%TO.C,Y3*%
X290800000Y-143050000D03*
X292200000Y-143050000D03*
X292200000Y-141950000D03*
X290800000Y-141950000D03*
%TD*%
D14*
%TO.C,R74*%
X243540000Y-152700000D03*
X244560000Y-152700000D03*
%TD*%
%TO.C,R12*%
X233140000Y-144500000D03*
X234160000Y-144500000D03*
%TD*%
D30*
%TO.C,U7*%
X248800000Y-148625000D03*
X248800000Y-149275000D03*
X248800000Y-149925000D03*
X248800000Y-150575000D03*
X248800000Y-151225000D03*
X248800000Y-151875000D03*
X248800000Y-152525000D03*
X248800000Y-153175000D03*
X248800000Y-153825000D03*
X248800000Y-154475000D03*
X248800000Y-155125000D03*
X248800000Y-155775000D03*
X255800000Y-155775000D03*
X255800000Y-155125000D03*
X255800000Y-154475000D03*
X255800000Y-153825000D03*
X255800000Y-153175000D03*
X255800000Y-152525000D03*
X255800000Y-151875000D03*
X255800000Y-151225000D03*
X255800000Y-150575000D03*
X255800000Y-149925000D03*
X255800000Y-149275000D03*
X255800000Y-148625000D03*
%TD*%
D14*
%TO.C,R41*%
X229940000Y-146600000D03*
X230960000Y-146600000D03*
%TD*%
D31*
%TO.C,U5*%
X184062500Y-149050000D03*
X184062500Y-150950000D03*
X185937500Y-150000000D03*
%TD*%
D27*
%TO.C,J4*%
X240650000Y-140150000D03*
X241150000Y-140150000D03*
X241650000Y-140150000D03*
X242150000Y-140150000D03*
X242650000Y-140150000D03*
X243150000Y-140150000D03*
X243650000Y-140150000D03*
X244150000Y-140150000D03*
X244650000Y-140150000D03*
X245150000Y-140150000D03*
X245650000Y-140150000D03*
X246150000Y-140150000D03*
X246650000Y-140150000D03*
X247150000Y-140150000D03*
X247650000Y-140150000D03*
X248150000Y-140150000D03*
X248650000Y-140150000D03*
X249150000Y-140150000D03*
X249650000Y-140150000D03*
X250150000Y-140150000D03*
X250650000Y-140150000D03*
X251150000Y-140150000D03*
X251650000Y-140150000D03*
X252150000Y-140150000D03*
D28*
X238750000Y-143400000D03*
X254050000Y-143400000D03*
%TD*%
D23*
%TO.C,L1*%
X187212500Y-153000000D03*
X188787500Y-153000000D03*
%TD*%
D32*
%TO.C,L2*%
X171065000Y-146950000D03*
X172035000Y-146950000D03*
%TD*%
D23*
%TO.C,L4*%
X211062500Y-153000000D03*
X212637500Y-153000000D03*
%TD*%
D13*
%TO.C,C52*%
X182370000Y-153000000D03*
X183330000Y-153000000D03*
%TD*%
D14*
%TO.C,R62*%
X232590000Y-155350000D03*
X233610000Y-155350000D03*
%TD*%
D13*
%TO.C,C43*%
X214520000Y-142500000D03*
X215480000Y-142500000D03*
%TD*%
%TO.C,C46*%
X220520000Y-142500000D03*
X221480000Y-142500000D03*
%TD*%
%TO.C,C23*%
X125520000Y-153000000D03*
X126480000Y-153000000D03*
%TD*%
%TO.C,C41*%
X210520000Y-142500000D03*
X211480000Y-142500000D03*
%TD*%
%TO.C,C45*%
X218520000Y-142500000D03*
X219480000Y-142500000D03*
%TD*%
D14*
%TO.C,R73*%
X239490000Y-154800000D03*
X240510000Y-154800000D03*
%TD*%
D29*
%TO.C,Y1*%
X184300000Y-142550000D03*
X185700000Y-142550000D03*
X185700000Y-141450000D03*
X184300000Y-141450000D03*
%TD*%
D33*
%TO.C,U6*%
X295750000Y-149750000D03*
X295750000Y-149250000D03*
X295750000Y-148750000D03*
X295750000Y-148250000D03*
X295750000Y-147750000D03*
X295750000Y-147250000D03*
X295750000Y-146750000D03*
X295750000Y-146250000D03*
X296250000Y-150250000D03*
X296250000Y-149750000D03*
X296250000Y-146250000D03*
X296250000Y-145750000D03*
X296750000Y-150250000D03*
X296750000Y-149750000D03*
X296750000Y-146250000D03*
X296750000Y-145750000D03*
X297250000Y-150250000D03*
X297250000Y-149750000D03*
X297250000Y-146250000D03*
X297250000Y-145750000D03*
X297750000Y-150250000D03*
X297750000Y-149750000D03*
X297750000Y-146250000D03*
X297750000Y-145750000D03*
X298250000Y-150250000D03*
X298250000Y-149750000D03*
X298250000Y-146250000D03*
X298250000Y-145750000D03*
X298750000Y-150250000D03*
X298750000Y-145750000D03*
X299250000Y-150250000D03*
X299250000Y-149750000D03*
X299250000Y-146250000D03*
X299250000Y-145750000D03*
X299750000Y-150250000D03*
X299750000Y-149750000D03*
X299750000Y-149250000D03*
X299750000Y-148250000D03*
X299750000Y-147750000D03*
X299750000Y-146750000D03*
X299750000Y-146250000D03*
X299750000Y-145750000D03*
X300250000Y-149750000D03*
X300250000Y-149250000D03*
X300250000Y-148750000D03*
X300250000Y-148250000D03*
X300250000Y-147750000D03*
X300250000Y-147250000D03*
X300250000Y-146750000D03*
X300250000Y-146250000D03*
%TD*%
D29*
%TO.C,Y2*%
X127800000Y-143050000D03*
X129200000Y-143050000D03*
X129200000Y-141950000D03*
X127800000Y-141950000D03*
%TD*%
D14*
%TO.C,R71*%
X234890000Y-154800000D03*
X235910000Y-154800000D03*
%TD*%
D34*
%TO.C,U9*%
X236237500Y-149400000D03*
X236237500Y-150050000D03*
X236237500Y-150700000D03*
X236237500Y-151350000D03*
X236237500Y-152000000D03*
X236237500Y-152650000D03*
X236237500Y-153300000D03*
X241962500Y-153300000D03*
X241962500Y-152650000D03*
X241962500Y-152000000D03*
X241962500Y-151350000D03*
X241962500Y-150700000D03*
X241962500Y-150050000D03*
X241962500Y-149400000D03*
%TD*%
D13*
%TO.C,C2*%
X188020000Y-147000000D03*
X188980000Y-147000000D03*
%TD*%
%TO.C,C63*%
X233520000Y-141500000D03*
X234480000Y-141500000D03*
%TD*%
D14*
%TO.C,R72*%
X237190000Y-154800000D03*
X238210000Y-154800000D03*
%TD*%
%TO.C,R11*%
X230990000Y-144500000D03*
X232010000Y-144500000D03*
%TD*%
D13*
%TO.C,C22*%
X122520000Y-153000000D03*
X123480000Y-153000000D03*
%TD*%
D14*
%TO.C,R63*%
X234890000Y-156050000D03*
X235910000Y-156050000D03*
%TD*%
D13*
%TO.C,C5*%
X192020000Y-143000000D03*
X192980000Y-143000000D03*
%TD*%
D21*
%TO.C,J5*%
X174500000Y-141000000D03*
X175500000Y-141000000D03*
X176500000Y-141000000D03*
X177500000Y-141000000D03*
D22*
X173200000Y-144875000D03*
X178800000Y-144875000D03*
%TD*%
D33*
%TO.C,U2*%
X124250000Y-146250000D03*
X124250000Y-146750000D03*
X124250000Y-147250000D03*
X124250000Y-147750000D03*
X124250000Y-148250000D03*
X124250000Y-148750000D03*
X124250000Y-149250000D03*
X124250000Y-149750000D03*
X123750000Y-145750000D03*
X123750000Y-146250000D03*
X123750000Y-149750000D03*
X123750000Y-150250000D03*
X123250000Y-145750000D03*
X123250000Y-146250000D03*
X123250000Y-149750000D03*
X123250000Y-150250000D03*
X122750000Y-145750000D03*
X122750000Y-146250000D03*
X122750000Y-149750000D03*
X122750000Y-150250000D03*
X122250000Y-145750000D03*
X122250000Y-146250000D03*
X122250000Y-149750000D03*
X122250000Y-150250000D03*
X121750000Y-145750000D03*
X121750000Y-146250000D03*
X121750000Y-149750000D03*
X121750000Y-150250000D03*
X121250000Y-145750000D03*
X121250000Y-150250000D03*
X120750000Y-145750000D03*
X120750000Y-146250000D03*
X120750000Y-149750000D03*
X120750000Y-150250000D03*
X120250000Y-145750000D03*
X120250000Y-146250000D03*
X120250000Y-146750000D03*
X120250000Y-147750000D03*
X120250000Y-148250000D03*
X120250000Y-149250000D03*
X120250000Y-149750000D03*
X120250000Y-150250000D03*
X119750000Y-146250000D03*
X119750000Y-146750000D03*
X119750000Y-147250000D03*
X119750000Y-147750000D03*
X119750000Y-148250000D03*
X119750000Y-148750000D03*
X119750000Y-149250000D03*
X119750000Y-149750000D03*
%TD*%
D13*
%TO.C,C20*%
X116520000Y-153000000D03*
X117480000Y-153000000D03*
%TD*%
%TO.C,C3*%
X196520000Y-153000000D03*
X197480000Y-153000000D03*
%TD*%
%TO.C,C40*%
X208170000Y-142850000D03*
X209130000Y-142850000D03*
%TD*%
D14*
%TO.C,R43*%
X234890000Y-146600000D03*
X235910000Y-146600000D03*
%TD*%
D21*
%TO.C,J3*%
X223600000Y-151020000D03*
X224600000Y-151020000D03*
D22*
X222300000Y-154895000D03*
X225900000Y-154895000D03*
%TD*%
D34*
%TO.C,U8*%
X228337500Y-148700000D03*
X228337500Y-149350000D03*
X228337500Y-150000000D03*
X228337500Y-150650000D03*
X228337500Y-151300000D03*
X228337500Y-151950000D03*
X228337500Y-152600000D03*
X234062500Y-152600000D03*
X234062500Y-151950000D03*
X234062500Y-151300000D03*
X234062500Y-150650000D03*
X234062500Y-150000000D03*
X234062500Y-149350000D03*
X234062500Y-148700000D03*
%TD*%
D13*
%TO.C,C24*%
X124520000Y-142500000D03*
X125480000Y-142500000D03*
%TD*%
D14*
%TO.C,R70*%
X232590000Y-154100000D03*
X233610000Y-154100000D03*
%TD*%
D13*
%TO.C,C42*%
X212520000Y-142500000D03*
X213480000Y-142500000D03*
%TD*%
%TO.C,C6*%
X168520000Y-152000000D03*
X169480000Y-152000000D03*
%TD*%
%TO.C,C35*%
X301520000Y-142500000D03*
X302480000Y-142500000D03*
%TD*%
%TO.C,C1*%
X188020000Y-145000000D03*
X188980000Y-145000000D03*
%TD*%
D14*
%TO.C,R40*%
X227640000Y-146600000D03*
X228660000Y-146600000D03*
%TD*%
%TO.C,R5*%
X223290000Y-148500000D03*
X224310000Y-148500000D03*
%TD*%
%TO.C,R66*%
X242140000Y-155000000D03*
X243160000Y-155000000D03*
%TD*%
D13*
%TO.C,C60*%
X235670000Y-145200000D03*
X236630000Y-145200000D03*
%TD*%
%TO.C,C31*%
X299520000Y-153000000D03*
X300480000Y-153000000D03*
%TD*%
D14*
%TO.C,R4*%
X220940000Y-148500000D03*
X221960000Y-148500000D03*
%TD*%
%TO.C,R61*%
X230290000Y-155350000D03*
X231310000Y-155350000D03*
%TD*%
D13*
%TO.C,C7*%
X194520000Y-153000000D03*
X195480000Y-153000000D03*
%TD*%
%TO.C,C11*%
X172520000Y-148150000D03*
X173480000Y-148150000D03*
%TD*%
%TO.C,C4*%
X188020000Y-149200000D03*
X188980000Y-149200000D03*
%TD*%
%TO.C,C62*%
X231020000Y-141500000D03*
X231980000Y-141500000D03*
%TD*%
%TO.C,C32*%
X296520000Y-153000000D03*
X297480000Y-153000000D03*
%TD*%
D14*
%TO.C,R60*%
X227640000Y-155700000D03*
X228660000Y-155700000D03*
%TD*%
%TO.C,R64*%
X237190000Y-156050000D03*
X238210000Y-156050000D03*
%TD*%
D13*
%TO.C,C8*%
X199020000Y-146800000D03*
X199980000Y-146800000D03*
%TD*%
%LPD*%
M02*
