%TF.GenerationSoftware,KiCad,Pcbnew,10.0.4*%
%TF.CreationDate,2026-08-30T17:52:46+02:00*%
%TF.ProjectId,smartbag_core,736d6172-7462-4616-975f-636f72652e6b,rev?*%
%TF.SameCoordinates,Original*%
%TF.FileFunction,Drillmap*%
%TF.FilePolarity,Positive*%
%FSLAX45Y45*%
G04 Gerber Fmt 4.5, Leading zero omitted, Abs format (unit mm)*
G04 Created by KiCad (PCBNEW 10.0.4) date 2026-08-30 17:52:46*
%MOMM*%
%LPD*%
G01*
G04 APERTURE LIST*
%ADD10C,0.100000*%
%ADD11C,0.200000*%
G04 APERTURE END LIST*
D10*
X11200000Y-13800000D02*
X13200000Y-13800000D01*
X11200000Y-15800000D02*
X11200000Y-13800000D01*
X13200000Y-13800000D02*
X13200000Y-14400000D01*
X13200000Y-14400000D02*
X16200000Y-14400000D01*
X13200000Y-15200000D02*
X13200000Y-15800000D01*
X13200000Y-15800000D02*
X11200000Y-15800000D01*
X16200000Y-13800000D02*
X25800000Y-13800000D01*
X16200000Y-14400000D02*
X16200000Y-13800000D01*
X16200000Y-15200000D02*
X13200000Y-15200000D01*
X16200000Y-15800000D02*
X16200000Y-15200000D01*
X25800000Y-13800000D02*
X25800000Y-14400000D01*
X25800000Y-14400000D02*
X28800000Y-14400000D01*
X25800000Y-15200000D02*
X25800000Y-15800000D01*
X25800000Y-15800000D02*
X16200000Y-15800000D01*
X28800000Y-13800000D02*
X30800000Y-13800000D01*
X28800000Y-14400000D02*
X28800000Y-13800000D01*
X28800000Y-15200000D02*
X25800000Y-15200000D01*
X28800000Y-15800000D02*
X28800000Y-15200000D01*
X30800000Y-13800000D02*
X30800000Y-15800000D01*
X30800000Y-15800000D02*
X28800000Y-15800000D01*
D11*
D10*
X17384500Y-13973200D02*
X17399500Y-13988200D01*
X17399500Y-13973200D02*
X17384500Y-13988200D01*
X17557900Y-14049200D02*
X17572900Y-14064200D01*
X17572900Y-14049200D02*
X17557900Y-14064200D01*
X17581300Y-15402500D02*
X17596300Y-15417500D01*
X17596300Y-15402500D02*
X17581300Y-15417500D01*
X17581700Y-15538700D02*
X17596700Y-15553700D01*
X17596700Y-15538700D02*
X17581700Y-15553700D01*
X17645400Y-14048100D02*
X17660400Y-14063100D01*
X17660400Y-14048100D02*
X17645400Y-14063100D01*
X17802900Y-15372900D02*
X17817900Y-15387900D01*
X17817900Y-15372900D02*
X17802900Y-15387900D01*
X18036700Y-15409800D02*
X18051700Y-15424800D01*
X18051700Y-15409800D02*
X18036700Y-15424800D01*
X18285900Y-15446700D02*
X18300900Y-15461700D01*
X18300900Y-15446700D02*
X18285900Y-15461700D01*
X18526300Y-14717700D02*
X18541300Y-14732700D01*
X18541300Y-14717700D02*
X18526300Y-14732700D01*
X18550600Y-14485100D02*
X18565600Y-14500100D01*
X18565600Y-14485100D02*
X18550600Y-14500100D01*
X18580800Y-14772500D02*
X18595800Y-14787500D01*
X18595800Y-14772500D02*
X18580800Y-14787500D01*
X18783000Y-14867700D02*
X18798000Y-14882700D01*
X18798000Y-14867700D02*
X18783000Y-14882700D01*
X18786200Y-14915000D02*
X18801200Y-14930000D01*
X18801200Y-14915000D02*
X18786200Y-14930000D01*
X18828400Y-14812500D02*
X18843400Y-14827500D01*
X18843400Y-14812500D02*
X18828400Y-14827500D01*
X18829700Y-14866100D02*
X18844700Y-14881100D01*
X18844700Y-14866100D02*
X18829700Y-14881100D01*
X18922800Y-14482000D02*
X18937800Y-14497000D01*
X18937800Y-14482000D02*
X18922800Y-14497000D01*
X18928200Y-15120300D02*
X18943200Y-15135300D01*
X18943200Y-15120300D02*
X18928200Y-15135300D01*
X18932500Y-15052500D02*
X18947500Y-15067500D01*
X18947500Y-15052500D02*
X18932500Y-15067500D01*
X18986100Y-14428100D02*
X19001100Y-14443100D01*
X19001100Y-14428100D02*
X18986100Y-14443100D01*
X19031200Y-14426500D02*
X19046200Y-14441500D01*
X19046200Y-14426500D02*
X19031200Y-14441500D01*
X19036100Y-15208100D02*
X19051100Y-15223100D01*
X19051100Y-15208100D02*
X19036100Y-15223100D01*
X19106400Y-14385100D02*
X19121400Y-14400100D01*
X19121400Y-14385100D02*
X19106400Y-14400100D01*
X19112200Y-14331300D02*
X19127200Y-14346300D01*
X19127200Y-14331300D02*
X19112200Y-14346300D01*
X19112400Y-14430300D02*
X19127400Y-14445300D01*
X19127400Y-14430300D02*
X19112400Y-14445300D01*
X19132500Y-15207500D02*
X19147500Y-15222500D01*
X19147500Y-15207500D02*
X19132500Y-15222500D01*
X19172500Y-14428800D02*
X19187500Y-14443800D01*
X19187500Y-14428800D02*
X19172500Y-14443800D01*
X19194500Y-15166700D02*
X19209500Y-15181700D01*
X19209500Y-15166700D02*
X19194500Y-15181700D01*
X19220500Y-14384400D02*
X19235500Y-14399400D01*
X19235500Y-14384400D02*
X19220500Y-14399400D01*
X19252700Y-14429600D02*
X19267700Y-14444600D01*
X19267700Y-14429600D02*
X19252700Y-14444600D01*
X19267000Y-15157600D02*
X19282000Y-15172600D01*
X19282000Y-15157600D02*
X19267000Y-15172600D01*
X19274400Y-14331300D02*
X19289400Y-14346300D01*
X19289400Y-14331300D02*
X19274400Y-14346300D01*
X19279900Y-15207400D02*
X19294900Y-15222400D01*
X19294900Y-15207400D02*
X19279900Y-15222400D01*
X19314400Y-15176500D02*
X19329400Y-15191500D01*
X19329400Y-15176500D02*
X19314400Y-15191500D01*
X19317300Y-14382700D02*
X19332300Y-14397700D01*
X19332300Y-14382700D02*
X19317300Y-14397700D01*
X19322200Y-14429100D02*
X19337200Y-14444100D01*
X19337200Y-14429100D02*
X19322200Y-14444100D01*
X19343800Y-15239400D02*
X19358800Y-15254400D01*
X19358800Y-15239400D02*
X19343800Y-15254400D01*
X19369300Y-14429300D02*
X19384300Y-14444300D01*
X19384300Y-14429300D02*
X19369300Y-14444300D01*
X19372500Y-15175700D02*
X19387500Y-15190700D01*
X19387500Y-15175700D02*
X19372500Y-15190700D01*
X19460900Y-14473500D02*
X19475900Y-14488500D01*
X19475900Y-14473500D02*
X19460900Y-14488500D01*
X19462700Y-15154800D02*
X19477700Y-15169800D01*
X19477700Y-15154800D02*
X19462700Y-15169800D01*
X19536300Y-14496100D02*
X19551300Y-14511100D01*
X19551300Y-14496100D02*
X19536300Y-14511100D01*
X19555200Y-14683500D02*
X19570200Y-14698500D01*
X19570200Y-14683500D02*
X19555200Y-14698500D01*
X19556000Y-15001700D02*
X19571000Y-15016700D01*
X19571000Y-15001700D02*
X19556000Y-15016700D01*
X19559100Y-14772500D02*
X19574100Y-14787500D01*
X19574100Y-14772500D02*
X19559100Y-14787500D01*
X19564700Y-15046900D02*
X19579700Y-15061900D01*
X19579700Y-15046900D02*
X19564700Y-15061900D01*
X19566300Y-15249200D02*
X19581300Y-15264200D01*
X19581300Y-15249200D02*
X19566300Y-15264200D01*
X19587300Y-14969100D02*
X19602300Y-14984100D01*
X19602300Y-14969100D02*
X19587300Y-14984100D01*
X19599400Y-14653100D02*
X19614400Y-14668100D01*
X19614400Y-14653100D02*
X19599400Y-14668100D01*
X19621700Y-14777000D02*
X19636700Y-14792000D01*
X19636700Y-14777000D02*
X19621700Y-14792000D01*
X19634000Y-14682500D02*
X19649000Y-14697500D01*
X19649000Y-14682500D02*
X19634000Y-14697500D01*
X19672600Y-14961600D02*
X19687600Y-14976600D01*
X19687600Y-14961600D02*
X19672600Y-14976600D01*
X19801400Y-14682500D02*
X19816400Y-14697500D01*
X19816400Y-14682500D02*
X19801400Y-14697500D01*
X19991900Y-14961300D02*
X20006900Y-14976300D01*
X20006900Y-14961300D02*
X19991900Y-14976300D01*
X20024100Y-15067000D02*
X20039100Y-15082000D01*
X20039100Y-15067000D02*
X20024100Y-15082000D01*
X20138800Y-14682500D02*
X20153800Y-14697500D01*
X20153800Y-14682500D02*
X20138800Y-14697500D01*
X20141700Y-14001100D02*
X20156700Y-14016100D01*
X20156700Y-14001100D02*
X20141700Y-14016100D01*
X20190000Y-14028900D02*
X20205000Y-14043900D01*
X20205000Y-14028900D02*
X20190000Y-14043900D01*
X20199500Y-14475900D02*
X20214500Y-14490900D01*
X20214500Y-14475900D02*
X20199500Y-14490900D01*
X20267500Y-14029300D02*
X20282500Y-14044300D01*
X20282500Y-14029300D02*
X20267500Y-14044300D01*
X20287600Y-14150600D02*
X20302600Y-14165600D01*
X20302600Y-14150600D02*
X20287600Y-14165600D01*
X20414000Y-14045500D02*
X20429000Y-14060500D01*
X20429000Y-14045500D02*
X20414000Y-14060500D01*
X20475300Y-13963100D02*
X20490300Y-13978100D01*
X20490300Y-13963100D02*
X20475300Y-13978100D01*
X20506500Y-13836700D02*
X20521500Y-13851700D01*
X20521500Y-13836700D02*
X20506500Y-13851700D01*
X20734800Y-14960400D02*
X20749800Y-14975400D01*
X20749800Y-14960400D02*
X20734800Y-14975400D01*
X20852500Y-14205000D02*
X20867500Y-14220000D01*
X20867500Y-14205000D02*
X20852500Y-14220000D01*
X21004000Y-14226100D02*
X21019000Y-14241100D01*
X21019000Y-14226100D02*
X21004000Y-14241100D01*
X21134000Y-14107900D02*
X21149000Y-14122900D01*
X21149000Y-14107900D02*
X21134000Y-14122900D01*
X21572400Y-14876100D02*
X21587400Y-14891100D01*
X21587400Y-14876100D02*
X21572400Y-14891100D01*
X21785600Y-15041200D02*
X21800600Y-15056200D01*
X21800600Y-15041200D02*
X21785600Y-15056200D01*
X21844700Y-14551600D02*
X21859700Y-14566600D01*
X21859700Y-14551600D02*
X21844700Y-14566600D01*
X22690300Y-13899000D02*
X22705300Y-13914000D01*
X22705300Y-13899000D02*
X22690300Y-13914000D01*
X23065500Y-14133900D02*
X23080500Y-14148900D01*
X23080500Y-14133900D02*
X23065500Y-14148900D01*
X23497800Y-14174900D02*
X23512800Y-14189900D01*
X23512800Y-14174900D02*
X23497800Y-14189900D01*
X23540700Y-14133700D02*
X23555700Y-14148700D01*
X23555700Y-14133700D02*
X23540700Y-14148700D01*
X23587500Y-14137300D02*
X23602500Y-14152300D01*
X23602500Y-14137300D02*
X23587500Y-14152300D01*
X23666900Y-14183000D02*
X23681900Y-14198000D01*
X23681900Y-14183000D02*
X23666900Y-14198000D01*
X23733000Y-14183600D02*
X23748000Y-14198600D01*
X23748000Y-14183600D02*
X23733000Y-14198600D01*
X23754900Y-14100300D02*
X23769900Y-14115300D01*
X23769900Y-14100300D02*
X23754900Y-14115300D01*
X23808400Y-14104200D02*
X23823400Y-14119200D01*
X23823400Y-14104200D02*
X23808400Y-14119200D01*
X23837100Y-13913900D02*
X23852100Y-13928900D01*
X23852100Y-13913900D02*
X23837100Y-13928900D01*
X23925500Y-13914300D02*
X23940500Y-13929300D01*
X23940500Y-13914300D02*
X23925500Y-13929300D01*
X23941500Y-14101500D02*
X23956500Y-14116500D01*
X23956500Y-14101500D02*
X23941500Y-14116500D01*
X24032300Y-13913900D02*
X24047300Y-13928900D01*
X24047300Y-13913900D02*
X24032300Y-13928900D01*
X24095600Y-13913100D02*
X24110600Y-13928100D01*
X24110600Y-13913100D02*
X24095600Y-13928100D01*
X24156900Y-13913700D02*
X24171900Y-13928700D01*
X24171900Y-13913700D02*
X24156900Y-13928700D01*
X24172000Y-14100800D02*
X24187000Y-14115800D01*
X24187000Y-14100800D02*
X24172000Y-14115800D01*
X24241900Y-14100200D02*
X24256900Y-14115200D01*
X24256900Y-14100200D02*
X24241900Y-14115200D01*
X24317500Y-13914500D02*
X24332500Y-13929500D01*
X24332500Y-13914500D02*
X24317500Y-13929500D01*
X24413200Y-13913400D02*
X24428200Y-13928400D01*
X24428200Y-13913400D02*
X24413200Y-13928400D01*
X24430400Y-14238600D02*
X24445400Y-14253600D01*
X24445400Y-14238600D02*
X24430400Y-14253600D01*
X24469500Y-14100800D02*
X24484500Y-14115800D01*
X24484500Y-14100800D02*
X24469500Y-14115800D01*
X24522000Y-14100800D02*
X24537000Y-14115800D01*
X24537000Y-14100800D02*
X24522000Y-14115800D01*
X11610000Y-14040000D02*
G75*
G02*
X11590000Y-14040000I-10000J0D01*
G01*
X11590000Y-14040000D02*
G75*
G02*
X11610000Y-14040000I10000J0D01*
G01*
X11610000Y-15560000D02*
G75*
G02*
X11590000Y-15560000I-10000J0D01*
G01*
X11590000Y-15560000D02*
G75*
G02*
X11610000Y-15560000I10000J0D01*
G01*
X12010000Y-14040000D02*
G75*
G02*
X11990000Y-14040000I-10000J0D01*
G01*
X11990000Y-14040000D02*
G75*
G02*
X12010000Y-14040000I10000J0D01*
G01*
X12010000Y-15560000D02*
G75*
G02*
X11990000Y-15560000I-10000J0D01*
G01*
X11990000Y-15560000D02*
G75*
G02*
X12010000Y-15560000I10000J0D01*
G01*
X12410000Y-14040000D02*
G75*
G02*
X12390000Y-14040000I-10000J0D01*
G01*
X12390000Y-14040000D02*
G75*
G02*
X12410000Y-14040000I10000J0D01*
G01*
X12410000Y-15560000D02*
G75*
G02*
X12390000Y-15560000I-10000J0D01*
G01*
X12390000Y-15560000D02*
G75*
G02*
X12410000Y-15560000I10000J0D01*
G01*
X12810000Y-14040000D02*
G75*
G02*
X12790000Y-14040000I-10000J0D01*
G01*
X12790000Y-14040000D02*
G75*
G02*
X12810000Y-14040000I10000J0D01*
G01*
X12810000Y-15560000D02*
G75*
G02*
X12790000Y-15560000I-10000J0D01*
G01*
X12790000Y-15560000D02*
G75*
G02*
X12810000Y-15560000I10000J0D01*
G01*
X13410000Y-14540000D02*
G75*
G02*
X13390000Y-14540000I-10000J0D01*
G01*
X13390000Y-14540000D02*
G75*
G02*
X13410000Y-14540000I10000J0D01*
G01*
X13410000Y-15060000D02*
G75*
G02*
X13390000Y-15060000I-10000J0D01*
G01*
X13390000Y-15060000D02*
G75*
G02*
X13410000Y-15060000I10000J0D01*
G01*
X13710000Y-14540000D02*
G75*
G02*
X13690000Y-14540000I-10000J0D01*
G01*
X13690000Y-14540000D02*
G75*
G02*
X13710000Y-14540000I10000J0D01*
G01*
X13710000Y-15060000D02*
G75*
G02*
X13690000Y-15060000I-10000J0D01*
G01*
X13690000Y-15060000D02*
G75*
G02*
X13710000Y-15060000I10000J0D01*
G01*
X14010000Y-14540000D02*
G75*
G02*
X13990000Y-14540000I-10000J0D01*
G01*
X13990000Y-14540000D02*
G75*
G02*
X14010000Y-14540000I10000J0D01*
G01*
X14010000Y-15060000D02*
G75*
G02*
X13990000Y-15060000I-10000J0D01*
G01*
X13990000Y-15060000D02*
G75*
G02*
X14010000Y-15060000I10000J0D01*
G01*
X14310000Y-14540000D02*
G75*
G02*
X14290000Y-14540000I-10000J0D01*
G01*
X14290000Y-14540000D02*
G75*
G02*
X14310000Y-14540000I10000J0D01*
G01*
X14310000Y-15060000D02*
G75*
G02*
X14290000Y-15060000I-10000J0D01*
G01*
X14290000Y-15060000D02*
G75*
G02*
X14310000Y-15060000I10000J0D01*
G01*
X14610000Y-14540000D02*
G75*
G02*
X14590000Y-14540000I-10000J0D01*
G01*
X14590000Y-14540000D02*
G75*
G02*
X14610000Y-14540000I10000J0D01*
G01*
X14610000Y-15060000D02*
G75*
G02*
X14590000Y-15060000I-10000J0D01*
G01*
X14590000Y-15060000D02*
G75*
G02*
X14610000Y-15060000I10000J0D01*
G01*
X14910000Y-14540000D02*
G75*
G02*
X14890000Y-14540000I-10000J0D01*
G01*
X14890000Y-14540000D02*
G75*
G02*
X14910000Y-14540000I10000J0D01*
G01*
X14910000Y-15060000D02*
G75*
G02*
X14890000Y-15060000I-10000J0D01*
G01*
X14890000Y-15060000D02*
G75*
G02*
X14910000Y-15060000I10000J0D01*
G01*
X15210000Y-14540000D02*
G75*
G02*
X15190000Y-14540000I-10000J0D01*
G01*
X15190000Y-14540000D02*
G75*
G02*
X15210000Y-14540000I10000J0D01*
G01*
X15210000Y-15060000D02*
G75*
G02*
X15190000Y-15060000I-10000J0D01*
G01*
X15190000Y-15060000D02*
G75*
G02*
X15210000Y-15060000I10000J0D01*
G01*
X15510000Y-14540000D02*
G75*
G02*
X15490000Y-14540000I-10000J0D01*
G01*
X15490000Y-14540000D02*
G75*
G02*
X15510000Y-14540000I10000J0D01*
G01*
X15510000Y-15060000D02*
G75*
G02*
X15490000Y-15060000I-10000J0D01*
G01*
X15490000Y-15060000D02*
G75*
G02*
X15510000Y-15060000I10000J0D01*
G01*
X15810000Y-14540000D02*
G75*
G02*
X15790000Y-14540000I-10000J0D01*
G01*
X15790000Y-14540000D02*
G75*
G02*
X15810000Y-14540000I10000J0D01*
G01*
X15810000Y-15060000D02*
G75*
G02*
X15790000Y-15060000I-10000J0D01*
G01*
X15790000Y-15060000D02*
G75*
G02*
X15810000Y-15060000I10000J0D01*
G01*
X16110000Y-14540000D02*
G75*
G02*
X16090000Y-14540000I-10000J0D01*
G01*
X16090000Y-14540000D02*
G75*
G02*
X16110000Y-14540000I10000J0D01*
G01*
X16110000Y-15060000D02*
G75*
G02*
X16090000Y-15060000I-10000J0D01*
G01*
X16090000Y-15060000D02*
G75*
G02*
X16110000Y-15060000I10000J0D01*
G01*
X16410000Y-13870000D02*
G75*
G02*
X16390000Y-13870000I-10000J0D01*
G01*
X16390000Y-13870000D02*
G75*
G02*
X16410000Y-13870000I10000J0D01*
G01*
X16410000Y-15730000D02*
G75*
G02*
X16390000Y-15730000I-10000J0D01*
G01*
X16390000Y-15730000D02*
G75*
G02*
X16410000Y-15730000I10000J0D01*
G01*
X16810000Y-13870000D02*
G75*
G02*
X16790000Y-13870000I-10000J0D01*
G01*
X16790000Y-13870000D02*
G75*
G02*
X16810000Y-13870000I10000J0D01*
G01*
X16810000Y-15730000D02*
G75*
G02*
X16790000Y-15730000I-10000J0D01*
G01*
X16790000Y-15730000D02*
G75*
G02*
X16810000Y-15730000I10000J0D01*
G01*
X17210000Y-15730000D02*
G75*
G02*
X17190000Y-15730000I-10000J0D01*
G01*
X17190000Y-15730000D02*
G75*
G02*
X17210000Y-15730000I10000J0D01*
G01*
X17610000Y-15730000D02*
G75*
G02*
X17590000Y-15730000I-10000J0D01*
G01*
X17590000Y-15730000D02*
G75*
G02*
X17610000Y-15730000I10000J0D01*
G01*
X18010000Y-15730000D02*
G75*
G02*
X17990000Y-15730000I-10000J0D01*
G01*
X17990000Y-15730000D02*
G75*
G02*
X18010000Y-15730000I10000J0D01*
G01*
X18410000Y-13870000D02*
G75*
G02*
X18390000Y-13870000I-10000J0D01*
G01*
X18390000Y-13870000D02*
G75*
G02*
X18410000Y-13870000I10000J0D01*
G01*
X18410000Y-15730000D02*
G75*
G02*
X18390000Y-15730000I-10000J0D01*
G01*
X18390000Y-15730000D02*
G75*
G02*
X18410000Y-15730000I10000J0D01*
G01*
X18810000Y-13870000D02*
G75*
G02*
X18790000Y-13870000I-10000J0D01*
G01*
X18790000Y-13870000D02*
G75*
G02*
X18810000Y-13870000I10000J0D01*
G01*
X18810000Y-15730000D02*
G75*
G02*
X18790000Y-15730000I-10000J0D01*
G01*
X18790000Y-15730000D02*
G75*
G02*
X18810000Y-15730000I10000J0D01*
G01*
X19210000Y-13870000D02*
G75*
G02*
X19190000Y-13870000I-10000J0D01*
G01*
X19190000Y-13870000D02*
G75*
G02*
X19210000Y-13870000I10000J0D01*
G01*
X19210000Y-15730000D02*
G75*
G02*
X19190000Y-15730000I-10000J0D01*
G01*
X19190000Y-15730000D02*
G75*
G02*
X19210000Y-15730000I10000J0D01*
G01*
X19610000Y-15730000D02*
G75*
G02*
X19590000Y-15730000I-10000J0D01*
G01*
X19590000Y-15730000D02*
G75*
G02*
X19610000Y-15730000I10000J0D01*
G01*
X20010000Y-15730000D02*
G75*
G02*
X19990000Y-15730000I-10000J0D01*
G01*
X19990000Y-15730000D02*
G75*
G02*
X20010000Y-15730000I10000J0D01*
G01*
X20410000Y-15730000D02*
G75*
G02*
X20390000Y-15730000I-10000J0D01*
G01*
X20390000Y-15730000D02*
G75*
G02*
X20410000Y-15730000I10000J0D01*
G01*
X20810000Y-15730000D02*
G75*
G02*
X20790000Y-15730000I-10000J0D01*
G01*
X20790000Y-15730000D02*
G75*
G02*
X20810000Y-15730000I10000J0D01*
G01*
X21210000Y-13870000D02*
G75*
G02*
X21190000Y-13870000I-10000J0D01*
G01*
X21190000Y-13870000D02*
G75*
G02*
X21210000Y-13870000I10000J0D01*
G01*
X21210000Y-15730000D02*
G75*
G02*
X21190000Y-15730000I-10000J0D01*
G01*
X21190000Y-15730000D02*
G75*
G02*
X21210000Y-15730000I10000J0D01*
G01*
X21610000Y-13870000D02*
G75*
G02*
X21590000Y-13870000I-10000J0D01*
G01*
X21590000Y-13870000D02*
G75*
G02*
X21610000Y-13870000I10000J0D01*
G01*
X21610000Y-15730000D02*
G75*
G02*
X21590000Y-15730000I-10000J0D01*
G01*
X21590000Y-15730000D02*
G75*
G02*
X21610000Y-15730000I10000J0D01*
G01*
X22010000Y-13870000D02*
G75*
G02*
X21990000Y-13870000I-10000J0D01*
G01*
X21990000Y-13870000D02*
G75*
G02*
X22010000Y-13870000I10000J0D01*
G01*
X22010000Y-15730000D02*
G75*
G02*
X21990000Y-15730000I-10000J0D01*
G01*
X21990000Y-15730000D02*
G75*
G02*
X22010000Y-15730000I10000J0D01*
G01*
X22410000Y-13870000D02*
G75*
G02*
X22390000Y-13870000I-10000J0D01*
G01*
X22390000Y-13870000D02*
G75*
G02*
X22410000Y-13870000I10000J0D01*
G01*
X22410000Y-15730000D02*
G75*
G02*
X22390000Y-15730000I-10000J0D01*
G01*
X22390000Y-15730000D02*
G75*
G02*
X22410000Y-15730000I10000J0D01*
G01*
X22810000Y-13870000D02*
G75*
G02*
X22790000Y-13870000I-10000J0D01*
G01*
X22790000Y-13870000D02*
G75*
G02*
X22810000Y-13870000I10000J0D01*
G01*
X22810000Y-15730000D02*
G75*
G02*
X22790000Y-15730000I-10000J0D01*
G01*
X22790000Y-15730000D02*
G75*
G02*
X22810000Y-15730000I10000J0D01*
G01*
X23210000Y-15730000D02*
G75*
G02*
X23190000Y-15730000I-10000J0D01*
G01*
X23190000Y-15730000D02*
G75*
G02*
X23210000Y-15730000I10000J0D01*
G01*
X23610000Y-15730000D02*
G75*
G02*
X23590000Y-15730000I-10000J0D01*
G01*
X23590000Y-15730000D02*
G75*
G02*
X23610000Y-15730000I10000J0D01*
G01*
X24010000Y-15730000D02*
G75*
G02*
X23990000Y-15730000I-10000J0D01*
G01*
X23990000Y-15730000D02*
G75*
G02*
X24010000Y-15730000I10000J0D01*
G01*
X24810000Y-15730000D02*
G75*
G02*
X24790000Y-15730000I-10000J0D01*
G01*
X24790000Y-15730000D02*
G75*
G02*
X24810000Y-15730000I10000J0D01*
G01*
X25210000Y-13870000D02*
G75*
G02*
X25190000Y-13870000I-10000J0D01*
G01*
X25190000Y-13870000D02*
G75*
G02*
X25210000Y-13870000I10000J0D01*
G01*
X25610000Y-13870000D02*
G75*
G02*
X25590000Y-13870000I-10000J0D01*
G01*
X25590000Y-13870000D02*
G75*
G02*
X25610000Y-13870000I10000J0D01*
G01*
X25610000Y-15730000D02*
G75*
G02*
X25590000Y-15730000I-10000J0D01*
G01*
X25590000Y-15730000D02*
G75*
G02*
X25610000Y-15730000I10000J0D01*
G01*
X26110000Y-14540000D02*
G75*
G02*
X26090000Y-14540000I-10000J0D01*
G01*
X26090000Y-14540000D02*
G75*
G02*
X26110000Y-14540000I10000J0D01*
G01*
X26110000Y-15060000D02*
G75*
G02*
X26090000Y-15060000I-10000J0D01*
G01*
X26090000Y-15060000D02*
G75*
G02*
X26110000Y-15060000I10000J0D01*
G01*
X26410000Y-14540000D02*
G75*
G02*
X26390000Y-14540000I-10000J0D01*
G01*
X26390000Y-14540000D02*
G75*
G02*
X26410000Y-14540000I10000J0D01*
G01*
X26410000Y-15060000D02*
G75*
G02*
X26390000Y-15060000I-10000J0D01*
G01*
X26390000Y-15060000D02*
G75*
G02*
X26410000Y-15060000I10000J0D01*
G01*
X26710000Y-14540000D02*
G75*
G02*
X26690000Y-14540000I-10000J0D01*
G01*
X26690000Y-14540000D02*
G75*
G02*
X26710000Y-14540000I10000J0D01*
G01*
X26710000Y-15060000D02*
G75*
G02*
X26690000Y-15060000I-10000J0D01*
G01*
X26690000Y-15060000D02*
G75*
G02*
X26710000Y-15060000I10000J0D01*
G01*
X27010000Y-14540000D02*
G75*
G02*
X26990000Y-14540000I-10000J0D01*
G01*
X26990000Y-14540000D02*
G75*
G02*
X27010000Y-14540000I10000J0D01*
G01*
X27010000Y-15060000D02*
G75*
G02*
X26990000Y-15060000I-10000J0D01*
G01*
X26990000Y-15060000D02*
G75*
G02*
X27010000Y-15060000I10000J0D01*
G01*
X27310000Y-14540000D02*
G75*
G02*
X27290000Y-14540000I-10000J0D01*
G01*
X27290000Y-14540000D02*
G75*
G02*
X27310000Y-14540000I10000J0D01*
G01*
X27310000Y-15060000D02*
G75*
G02*
X27290000Y-15060000I-10000J0D01*
G01*
X27290000Y-15060000D02*
G75*
G02*
X27310000Y-15060000I10000J0D01*
G01*
X27610000Y-14540000D02*
G75*
G02*
X27590000Y-14540000I-10000J0D01*
G01*
X27590000Y-14540000D02*
G75*
G02*
X27610000Y-14540000I10000J0D01*
G01*
X27610000Y-15060000D02*
G75*
G02*
X27590000Y-15060000I-10000J0D01*
G01*
X27590000Y-15060000D02*
G75*
G02*
X27610000Y-15060000I10000J0D01*
G01*
X27910000Y-14540000D02*
G75*
G02*
X27890000Y-14540000I-10000J0D01*
G01*
X27890000Y-14540000D02*
G75*
G02*
X27910000Y-14540000I10000J0D01*
G01*
X27910000Y-15060000D02*
G75*
G02*
X27890000Y-15060000I-10000J0D01*
G01*
X27890000Y-15060000D02*
G75*
G02*
X27910000Y-15060000I10000J0D01*
G01*
X28210000Y-14540000D02*
G75*
G02*
X28190000Y-14540000I-10000J0D01*
G01*
X28190000Y-14540000D02*
G75*
G02*
X28210000Y-14540000I10000J0D01*
G01*
X28210000Y-15060000D02*
G75*
G02*
X28190000Y-15060000I-10000J0D01*
G01*
X28190000Y-15060000D02*
G75*
G02*
X28210000Y-15060000I10000J0D01*
G01*
X28510000Y-14540000D02*
G75*
G02*
X28490000Y-14540000I-10000J0D01*
G01*
X28490000Y-14540000D02*
G75*
G02*
X28510000Y-14540000I10000J0D01*
G01*
X28510000Y-15060000D02*
G75*
G02*
X28490000Y-15060000I-10000J0D01*
G01*
X28490000Y-15060000D02*
G75*
G02*
X28510000Y-15060000I10000J0D01*
G01*
X28810000Y-14540000D02*
G75*
G02*
X28790000Y-14540000I-10000J0D01*
G01*
X28790000Y-14540000D02*
G75*
G02*
X28810000Y-14540000I10000J0D01*
G01*
X28810000Y-15060000D02*
G75*
G02*
X28790000Y-15060000I-10000J0D01*
G01*
X28790000Y-15060000D02*
G75*
G02*
X28810000Y-15060000I10000J0D01*
G01*
X29210000Y-14040000D02*
G75*
G02*
X29190000Y-14040000I-10000J0D01*
G01*
X29190000Y-14040000D02*
G75*
G02*
X29210000Y-14040000I10000J0D01*
G01*
X29210000Y-15560000D02*
G75*
G02*
X29190000Y-15560000I-10000J0D01*
G01*
X29190000Y-15560000D02*
G75*
G02*
X29210000Y-15560000I10000J0D01*
G01*
X29610000Y-14040000D02*
G75*
G02*
X29590000Y-14040000I-10000J0D01*
G01*
X29590000Y-14040000D02*
G75*
G02*
X29610000Y-14040000I10000J0D01*
G01*
X29610000Y-15560000D02*
G75*
G02*
X29590000Y-15560000I-10000J0D01*
G01*
X29590000Y-15560000D02*
G75*
G02*
X29610000Y-15560000I10000J0D01*
G01*
X30010000Y-14040000D02*
G75*
G02*
X29990000Y-14040000I-10000J0D01*
G01*
X29990000Y-14040000D02*
G75*
G02*
X30010000Y-14040000I10000J0D01*
G01*
X30010000Y-15560000D02*
G75*
G02*
X29990000Y-15560000I-10000J0D01*
G01*
X29990000Y-15560000D02*
G75*
G02*
X30010000Y-15560000I10000J0D01*
G01*
X30410000Y-14040000D02*
G75*
G02*
X30390000Y-14040000I-10000J0D01*
G01*
X30390000Y-14040000D02*
G75*
G02*
X30410000Y-14040000I10000J0D01*
G01*
X30410000Y-15560000D02*
G75*
G02*
X30390000Y-15560000I-10000J0D01*
G01*
X30390000Y-15560000D02*
G75*
G02*
X30410000Y-15560000I10000J0D01*
G01*
X18635800Y-14103000D02*
X18635800Y-14128000D01*
X18623300Y-14115500D02*
X18648300Y-14115500D01*
X18827200Y-14605800D02*
X18827200Y-14630800D01*
X18814700Y-14618300D02*
X18839700Y-14618300D01*
X18882900Y-14206600D02*
X18882900Y-14231600D01*
X18870400Y-14219100D02*
X18895400Y-14219100D01*
X18884300Y-14519100D02*
X18884300Y-14544100D01*
X18871800Y-14531600D02*
X18896800Y-14531600D01*
X19729800Y-15359700D02*
X19729800Y-15384700D01*
X19717300Y-15372200D02*
X19742300Y-15372200D01*
X19827000Y-15432000D02*
X19827000Y-15457000D01*
X19814500Y-15444500D02*
X19839500Y-15444500D01*
X19853000Y-15308600D02*
X19853000Y-15333600D01*
X19840500Y-15321100D02*
X19865500Y-15321100D01*
X20004400Y-14107200D02*
X20004400Y-14132200D01*
X19991900Y-14119700D02*
X20016900Y-14119700D01*
X20074600Y-14912700D02*
X20074600Y-14937700D01*
X20062100Y-14925200D02*
X20087100Y-14925200D01*
X20222100Y-15507600D02*
X20222100Y-15532600D01*
X20209600Y-15520100D02*
X20234600Y-15520100D01*
X20988400Y-14158200D02*
X20988400Y-14183200D01*
X20975900Y-14170700D02*
X21000900Y-14170700D01*
X21039400Y-15099900D02*
X21039400Y-15124900D01*
X21026900Y-15112400D02*
X21051900Y-15112400D01*
X21121300Y-15136300D02*
X21121300Y-15161300D01*
X21108800Y-15148800D02*
X21133800Y-15148800D01*
X21123400Y-14957500D02*
X21123400Y-14982500D01*
X21110900Y-14970000D02*
X21135900Y-14970000D01*
X21139700Y-14870400D02*
X21139700Y-14895400D01*
X21127200Y-14882900D02*
X21152200Y-14882900D01*
X21224600Y-15238400D02*
X21224600Y-15263400D01*
X21212100Y-15250900D02*
X21237100Y-15250900D01*
X21788800Y-14475300D02*
X21788800Y-14500300D01*
X21776300Y-14487800D02*
X21801300Y-14487800D01*
X22039200Y-15437500D02*
X22039200Y-15462500D01*
X22026700Y-15450000D02*
X22051700Y-15450000D01*
X22388600Y-15440900D02*
X22388600Y-15465900D01*
X22376100Y-15453400D02*
X22401100Y-15453400D01*
X22662300Y-15151300D02*
X22662300Y-15176300D01*
X22649800Y-15163800D02*
X22674800Y-15163800D01*
X22714400Y-15498700D02*
X22714400Y-15523700D01*
X22701900Y-15511200D02*
X22726900Y-15511200D01*
X25081400Y-15187500D02*
X25081400Y-15212500D01*
X25068900Y-15200000D02*
X25093900Y-15200000D01*
D11*
X11455777Y-16116484D02*
X11455777Y-15916484D01*
X11455777Y-15916484D02*
X11503396Y-15916484D01*
X11503396Y-15916484D02*
X11531967Y-15926008D01*
X11531967Y-15926008D02*
X11551015Y-15945055D01*
X11551015Y-15945055D02*
X11560539Y-15964103D01*
X11560539Y-15964103D02*
X11570062Y-16002198D01*
X11570062Y-16002198D02*
X11570062Y-16030769D01*
X11570062Y-16030769D02*
X11560539Y-16068865D01*
X11560539Y-16068865D02*
X11551015Y-16087912D01*
X11551015Y-16087912D02*
X11531967Y-16106960D01*
X11531967Y-16106960D02*
X11503396Y-16116484D01*
X11503396Y-16116484D02*
X11455777Y-16116484D01*
X11655777Y-16116484D02*
X11655777Y-15983150D01*
X11655777Y-16021246D02*
X11665301Y-16002198D01*
X11665301Y-16002198D02*
X11674824Y-15992674D01*
X11674824Y-15992674D02*
X11693872Y-15983150D01*
X11693872Y-15983150D02*
X11712920Y-15983150D01*
X11779586Y-16116484D02*
X11779586Y-15983150D01*
X11779586Y-15916484D02*
X11770062Y-15926008D01*
X11770062Y-15926008D02*
X11779586Y-15935531D01*
X11779586Y-15935531D02*
X11789110Y-15926008D01*
X11789110Y-15926008D02*
X11779586Y-15916484D01*
X11779586Y-15916484D02*
X11779586Y-15935531D01*
X11903396Y-16116484D02*
X11884348Y-16106960D01*
X11884348Y-16106960D02*
X11874824Y-16087912D01*
X11874824Y-16087912D02*
X11874824Y-15916484D01*
X12008158Y-16116484D02*
X11989110Y-16106960D01*
X11989110Y-16106960D02*
X11979586Y-16087912D01*
X11979586Y-16087912D02*
X11979586Y-15916484D01*
X12236729Y-16116484D02*
X12236729Y-15916484D01*
X12236729Y-15916484D02*
X12303396Y-16059341D01*
X12303396Y-16059341D02*
X12370062Y-15916484D01*
X12370062Y-15916484D02*
X12370062Y-16116484D01*
X12551015Y-16116484D02*
X12551015Y-16011722D01*
X12551015Y-16011722D02*
X12541491Y-15992674D01*
X12541491Y-15992674D02*
X12522443Y-15983150D01*
X12522443Y-15983150D02*
X12484348Y-15983150D01*
X12484348Y-15983150D02*
X12465301Y-15992674D01*
X12551015Y-16106960D02*
X12531967Y-16116484D01*
X12531967Y-16116484D02*
X12484348Y-16116484D01*
X12484348Y-16116484D02*
X12465301Y-16106960D01*
X12465301Y-16106960D02*
X12455777Y-16087912D01*
X12455777Y-16087912D02*
X12455777Y-16068865D01*
X12455777Y-16068865D02*
X12465301Y-16049817D01*
X12465301Y-16049817D02*
X12484348Y-16040293D01*
X12484348Y-16040293D02*
X12531967Y-16040293D01*
X12531967Y-16040293D02*
X12551015Y-16030769D01*
X12646253Y-15983150D02*
X12646253Y-16183150D01*
X12646253Y-15992674D02*
X12665301Y-15983150D01*
X12665301Y-15983150D02*
X12703396Y-15983150D01*
X12703396Y-15983150D02*
X12722443Y-15992674D01*
X12722443Y-15992674D02*
X12731967Y-16002198D01*
X12731967Y-16002198D02*
X12741491Y-16021246D01*
X12741491Y-16021246D02*
X12741491Y-16078388D01*
X12741491Y-16078388D02*
X12731967Y-16097436D01*
X12731967Y-16097436D02*
X12722443Y-16106960D01*
X12722443Y-16106960D02*
X12703396Y-16116484D01*
X12703396Y-16116484D02*
X12665301Y-16116484D01*
X12665301Y-16116484D02*
X12646253Y-16106960D01*
X12827205Y-16097436D02*
X12836729Y-16106960D01*
X12836729Y-16106960D02*
X12827205Y-16116484D01*
X12827205Y-16116484D02*
X12817682Y-16106960D01*
X12817682Y-16106960D02*
X12827205Y-16097436D01*
X12827205Y-16097436D02*
X12827205Y-16116484D01*
X12827205Y-15992674D02*
X12836729Y-16002198D01*
X12836729Y-16002198D02*
X12827205Y-16011722D01*
X12827205Y-16011722D02*
X12817682Y-16002198D01*
X12817682Y-16002198D02*
X12827205Y-15992674D01*
X12827205Y-15992674D02*
X12827205Y-16011722D01*
D10*
X11180000Y-16437500D02*
X11195000Y-16452500D01*
X11195000Y-16437500D02*
X11180000Y-16452500D01*
D11*
X11493872Y-16336484D02*
X11512920Y-16336484D01*
X11512920Y-16336484D02*
X11531967Y-16346008D01*
X11531967Y-16346008D02*
X11541491Y-16355531D01*
X11541491Y-16355531D02*
X11551015Y-16374579D01*
X11551015Y-16374579D02*
X11560539Y-16412674D01*
X11560539Y-16412674D02*
X11560539Y-16460293D01*
X11560539Y-16460293D02*
X11551015Y-16498388D01*
X11551015Y-16498388D02*
X11541491Y-16517436D01*
X11541491Y-16517436D02*
X11531967Y-16526960D01*
X11531967Y-16526960D02*
X11512920Y-16536484D01*
X11512920Y-16536484D02*
X11493872Y-16536484D01*
X11493872Y-16536484D02*
X11474824Y-16526960D01*
X11474824Y-16526960D02*
X11465301Y-16517436D01*
X11465301Y-16517436D02*
X11455777Y-16498388D01*
X11455777Y-16498388D02*
X11446253Y-16460293D01*
X11446253Y-16460293D02*
X11446253Y-16412674D01*
X11446253Y-16412674D02*
X11455777Y-16374579D01*
X11455777Y-16374579D02*
X11465301Y-16355531D01*
X11465301Y-16355531D02*
X11474824Y-16346008D01*
X11474824Y-16346008D02*
X11493872Y-16336484D01*
X11646253Y-16517436D02*
X11655777Y-16526960D01*
X11655777Y-16526960D02*
X11646253Y-16536484D01*
X11646253Y-16536484D02*
X11636729Y-16526960D01*
X11636729Y-16526960D02*
X11646253Y-16517436D01*
X11646253Y-16517436D02*
X11646253Y-16536484D01*
X11846253Y-16536484D02*
X11731967Y-16536484D01*
X11789110Y-16536484D02*
X11789110Y-16336484D01*
X11789110Y-16336484D02*
X11770062Y-16365055D01*
X11770062Y-16365055D02*
X11751015Y-16384103D01*
X11751015Y-16384103D02*
X11731967Y-16393627D01*
X12027205Y-16336484D02*
X11931967Y-16336484D01*
X11931967Y-16336484D02*
X11922443Y-16431722D01*
X11922443Y-16431722D02*
X11931967Y-16422198D01*
X11931967Y-16422198D02*
X11951015Y-16412674D01*
X11951015Y-16412674D02*
X11998634Y-16412674D01*
X11998634Y-16412674D02*
X12017682Y-16422198D01*
X12017682Y-16422198D02*
X12027205Y-16431722D01*
X12027205Y-16431722D02*
X12036729Y-16450769D01*
X12036729Y-16450769D02*
X12036729Y-16498388D01*
X12036729Y-16498388D02*
X12027205Y-16517436D01*
X12027205Y-16517436D02*
X12017682Y-16526960D01*
X12017682Y-16526960D02*
X11998634Y-16536484D01*
X11998634Y-16536484D02*
X11951015Y-16536484D01*
X11951015Y-16536484D02*
X11931967Y-16526960D01*
X11931967Y-16526960D02*
X11922443Y-16517436D01*
X12160539Y-16336484D02*
X12179586Y-16336484D01*
X12179586Y-16336484D02*
X12198634Y-16346008D01*
X12198634Y-16346008D02*
X12208158Y-16355531D01*
X12208158Y-16355531D02*
X12217682Y-16374579D01*
X12217682Y-16374579D02*
X12227205Y-16412674D01*
X12227205Y-16412674D02*
X12227205Y-16460293D01*
X12227205Y-16460293D02*
X12217682Y-16498388D01*
X12217682Y-16498388D02*
X12208158Y-16517436D01*
X12208158Y-16517436D02*
X12198634Y-16526960D01*
X12198634Y-16526960D02*
X12179586Y-16536484D01*
X12179586Y-16536484D02*
X12160539Y-16536484D01*
X12160539Y-16536484D02*
X12141491Y-16526960D01*
X12141491Y-16526960D02*
X12131967Y-16517436D01*
X12131967Y-16517436D02*
X12122443Y-16498388D01*
X12122443Y-16498388D02*
X12112920Y-16460293D01*
X12112920Y-16460293D02*
X12112920Y-16412674D01*
X12112920Y-16412674D02*
X12122443Y-16374579D01*
X12122443Y-16374579D02*
X12131967Y-16355531D01*
X12131967Y-16355531D02*
X12141491Y-16346008D01*
X12141491Y-16346008D02*
X12160539Y-16336484D01*
X12312920Y-16536484D02*
X12312920Y-16403150D01*
X12312920Y-16422198D02*
X12322443Y-16412674D01*
X12322443Y-16412674D02*
X12341491Y-16403150D01*
X12341491Y-16403150D02*
X12370063Y-16403150D01*
X12370063Y-16403150D02*
X12389110Y-16412674D01*
X12389110Y-16412674D02*
X12398634Y-16431722D01*
X12398634Y-16431722D02*
X12398634Y-16536484D01*
X12398634Y-16431722D02*
X12408158Y-16412674D01*
X12408158Y-16412674D02*
X12427205Y-16403150D01*
X12427205Y-16403150D02*
X12455777Y-16403150D01*
X12455777Y-16403150D02*
X12474824Y-16412674D01*
X12474824Y-16412674D02*
X12484348Y-16431722D01*
X12484348Y-16431722D02*
X12484348Y-16536484D01*
X12579586Y-16536484D02*
X12579586Y-16403150D01*
X12579586Y-16422198D02*
X12589110Y-16412674D01*
X12589110Y-16412674D02*
X12608158Y-16403150D01*
X12608158Y-16403150D02*
X12636729Y-16403150D01*
X12636729Y-16403150D02*
X12655777Y-16412674D01*
X12655777Y-16412674D02*
X12665301Y-16431722D01*
X12665301Y-16431722D02*
X12665301Y-16536484D01*
X12665301Y-16431722D02*
X12674824Y-16412674D01*
X12674824Y-16412674D02*
X12693872Y-16403150D01*
X12693872Y-16403150D02*
X12722443Y-16403150D01*
X12722443Y-16403150D02*
X12741491Y-16412674D01*
X12741491Y-16412674D02*
X12751015Y-16431722D01*
X12751015Y-16431722D02*
X12751015Y-16536484D01*
X13141491Y-16326960D02*
X12970063Y-16584103D01*
X13398634Y-16336484D02*
X13417682Y-16336484D01*
X13417682Y-16336484D02*
X13436729Y-16346008D01*
X13436729Y-16346008D02*
X13446253Y-16355531D01*
X13446253Y-16355531D02*
X13455777Y-16374579D01*
X13455777Y-16374579D02*
X13465301Y-16412674D01*
X13465301Y-16412674D02*
X13465301Y-16460293D01*
X13465301Y-16460293D02*
X13455777Y-16498388D01*
X13455777Y-16498388D02*
X13446253Y-16517436D01*
X13446253Y-16517436D02*
X13436729Y-16526960D01*
X13436729Y-16526960D02*
X13417682Y-16536484D01*
X13417682Y-16536484D02*
X13398634Y-16536484D01*
X13398634Y-16536484D02*
X13379586Y-16526960D01*
X13379586Y-16526960D02*
X13370063Y-16517436D01*
X13370063Y-16517436D02*
X13360539Y-16498388D01*
X13360539Y-16498388D02*
X13351015Y-16460293D01*
X13351015Y-16460293D02*
X13351015Y-16412674D01*
X13351015Y-16412674D02*
X13360539Y-16374579D01*
X13360539Y-16374579D02*
X13370063Y-16355531D01*
X13370063Y-16355531D02*
X13379586Y-16346008D01*
X13379586Y-16346008D02*
X13398634Y-16336484D01*
X13551015Y-16517436D02*
X13560539Y-16526960D01*
X13560539Y-16526960D02*
X13551015Y-16536484D01*
X13551015Y-16536484D02*
X13541491Y-16526960D01*
X13541491Y-16526960D02*
X13551015Y-16517436D01*
X13551015Y-16517436D02*
X13551015Y-16536484D01*
X13684348Y-16336484D02*
X13703396Y-16336484D01*
X13703396Y-16336484D02*
X13722444Y-16346008D01*
X13722444Y-16346008D02*
X13731967Y-16355531D01*
X13731967Y-16355531D02*
X13741491Y-16374579D01*
X13741491Y-16374579D02*
X13751015Y-16412674D01*
X13751015Y-16412674D02*
X13751015Y-16460293D01*
X13751015Y-16460293D02*
X13741491Y-16498388D01*
X13741491Y-16498388D02*
X13731967Y-16517436D01*
X13731967Y-16517436D02*
X13722444Y-16526960D01*
X13722444Y-16526960D02*
X13703396Y-16536484D01*
X13703396Y-16536484D02*
X13684348Y-16536484D01*
X13684348Y-16536484D02*
X13665301Y-16526960D01*
X13665301Y-16526960D02*
X13655777Y-16517436D01*
X13655777Y-16517436D02*
X13646253Y-16498388D01*
X13646253Y-16498388D02*
X13636729Y-16460293D01*
X13636729Y-16460293D02*
X13636729Y-16412674D01*
X13636729Y-16412674D02*
X13646253Y-16374579D01*
X13646253Y-16374579D02*
X13655777Y-16355531D01*
X13655777Y-16355531D02*
X13665301Y-16346008D01*
X13665301Y-16346008D02*
X13684348Y-16336484D01*
X13874825Y-16336484D02*
X13893872Y-16336484D01*
X13893872Y-16336484D02*
X13912920Y-16346008D01*
X13912920Y-16346008D02*
X13922444Y-16355531D01*
X13922444Y-16355531D02*
X13931967Y-16374579D01*
X13931967Y-16374579D02*
X13941491Y-16412674D01*
X13941491Y-16412674D02*
X13941491Y-16460293D01*
X13941491Y-16460293D02*
X13931967Y-16498388D01*
X13931967Y-16498388D02*
X13922444Y-16517436D01*
X13922444Y-16517436D02*
X13912920Y-16526960D01*
X13912920Y-16526960D02*
X13893872Y-16536484D01*
X13893872Y-16536484D02*
X13874825Y-16536484D01*
X13874825Y-16536484D02*
X13855777Y-16526960D01*
X13855777Y-16526960D02*
X13846253Y-16517436D01*
X13846253Y-16517436D02*
X13836729Y-16498388D01*
X13836729Y-16498388D02*
X13827206Y-16460293D01*
X13827206Y-16460293D02*
X13827206Y-16412674D01*
X13827206Y-16412674D02*
X13836729Y-16374579D01*
X13836729Y-16374579D02*
X13846253Y-16355531D01*
X13846253Y-16355531D02*
X13855777Y-16346008D01*
X13855777Y-16346008D02*
X13874825Y-16336484D01*
X14122444Y-16336484D02*
X14027206Y-16336484D01*
X14027206Y-16336484D02*
X14017682Y-16431722D01*
X14017682Y-16431722D02*
X14027206Y-16422198D01*
X14027206Y-16422198D02*
X14046253Y-16412674D01*
X14046253Y-16412674D02*
X14093872Y-16412674D01*
X14093872Y-16412674D02*
X14112920Y-16422198D01*
X14112920Y-16422198D02*
X14122444Y-16431722D01*
X14122444Y-16431722D02*
X14131967Y-16450769D01*
X14131967Y-16450769D02*
X14131967Y-16498388D01*
X14131967Y-16498388D02*
X14122444Y-16517436D01*
X14122444Y-16517436D02*
X14112920Y-16526960D01*
X14112920Y-16526960D02*
X14093872Y-16536484D01*
X14093872Y-16536484D02*
X14046253Y-16536484D01*
X14046253Y-16536484D02*
X14027206Y-16526960D01*
X14027206Y-16526960D02*
X14017682Y-16517436D01*
X14227206Y-16536484D02*
X14265301Y-16536484D01*
X14265301Y-16536484D02*
X14284348Y-16526960D01*
X14284348Y-16526960D02*
X14293872Y-16517436D01*
X14293872Y-16517436D02*
X14312920Y-16488865D01*
X14312920Y-16488865D02*
X14322444Y-16450769D01*
X14322444Y-16450769D02*
X14322444Y-16374579D01*
X14322444Y-16374579D02*
X14312920Y-16355531D01*
X14312920Y-16355531D02*
X14303396Y-16346008D01*
X14303396Y-16346008D02*
X14284348Y-16336484D01*
X14284348Y-16336484D02*
X14246253Y-16336484D01*
X14246253Y-16336484D02*
X14227206Y-16346008D01*
X14227206Y-16346008D02*
X14217682Y-16355531D01*
X14217682Y-16355531D02*
X14208158Y-16374579D01*
X14208158Y-16374579D02*
X14208158Y-16422198D01*
X14208158Y-16422198D02*
X14217682Y-16441246D01*
X14217682Y-16441246D02*
X14227206Y-16450769D01*
X14227206Y-16450769D02*
X14246253Y-16460293D01*
X14246253Y-16460293D02*
X14284348Y-16460293D01*
X14284348Y-16460293D02*
X14303396Y-16450769D01*
X14303396Y-16450769D02*
X14312920Y-16441246D01*
X14312920Y-16441246D02*
X14322444Y-16422198D01*
X14398634Y-16336484D02*
X14398634Y-16374579D01*
X14474825Y-16336484D02*
X14474825Y-16374579D01*
X14770063Y-16612674D02*
X14760539Y-16603150D01*
X14760539Y-16603150D02*
X14741491Y-16574579D01*
X14741491Y-16574579D02*
X14731968Y-16555531D01*
X14731968Y-16555531D02*
X14722444Y-16526960D01*
X14722444Y-16526960D02*
X14712920Y-16479341D01*
X14712920Y-16479341D02*
X14712920Y-16441246D01*
X14712920Y-16441246D02*
X14722444Y-16393627D01*
X14722444Y-16393627D02*
X14731968Y-16365055D01*
X14731968Y-16365055D02*
X14741491Y-16346008D01*
X14741491Y-16346008D02*
X14760539Y-16317436D01*
X14760539Y-16317436D02*
X14770063Y-16307912D01*
X14855777Y-16536484D02*
X14893872Y-16536484D01*
X14893872Y-16536484D02*
X14912920Y-16526960D01*
X14912920Y-16526960D02*
X14922444Y-16517436D01*
X14922444Y-16517436D02*
X14941491Y-16488865D01*
X14941491Y-16488865D02*
X14951015Y-16450769D01*
X14951015Y-16450769D02*
X14951015Y-16374579D01*
X14951015Y-16374579D02*
X14941491Y-16355531D01*
X14941491Y-16355531D02*
X14931968Y-16346008D01*
X14931968Y-16346008D02*
X14912920Y-16336484D01*
X14912920Y-16336484D02*
X14874825Y-16336484D01*
X14874825Y-16336484D02*
X14855777Y-16346008D01*
X14855777Y-16346008D02*
X14846253Y-16355531D01*
X14846253Y-16355531D02*
X14836729Y-16374579D01*
X14836729Y-16374579D02*
X14836729Y-16422198D01*
X14836729Y-16422198D02*
X14846253Y-16441246D01*
X14846253Y-16441246D02*
X14855777Y-16450769D01*
X14855777Y-16450769D02*
X14874825Y-16460293D01*
X14874825Y-16460293D02*
X14912920Y-16460293D01*
X14912920Y-16460293D02*
X14931968Y-16450769D01*
X14931968Y-16450769D02*
X14941491Y-16441246D01*
X14941491Y-16441246D02*
X14951015Y-16422198D01*
X15027206Y-16355531D02*
X15036729Y-16346008D01*
X15036729Y-16346008D02*
X15055777Y-16336484D01*
X15055777Y-16336484D02*
X15103396Y-16336484D01*
X15103396Y-16336484D02*
X15122444Y-16346008D01*
X15122444Y-16346008D02*
X15131968Y-16355531D01*
X15131968Y-16355531D02*
X15141491Y-16374579D01*
X15141491Y-16374579D02*
X15141491Y-16393627D01*
X15141491Y-16393627D02*
X15131968Y-16422198D01*
X15131968Y-16422198D02*
X15017682Y-16536484D01*
X15017682Y-16536484D02*
X15141491Y-16536484D01*
X15379587Y-16536484D02*
X15379587Y-16336484D01*
X15465301Y-16536484D02*
X15465301Y-16431722D01*
X15465301Y-16431722D02*
X15455777Y-16412674D01*
X15455777Y-16412674D02*
X15436730Y-16403150D01*
X15436730Y-16403150D02*
X15408158Y-16403150D01*
X15408158Y-16403150D02*
X15389110Y-16412674D01*
X15389110Y-16412674D02*
X15379587Y-16422198D01*
X15589110Y-16536484D02*
X15570063Y-16526960D01*
X15570063Y-16526960D02*
X15560539Y-16517436D01*
X15560539Y-16517436D02*
X15551015Y-16498388D01*
X15551015Y-16498388D02*
X15551015Y-16441246D01*
X15551015Y-16441246D02*
X15560539Y-16422198D01*
X15560539Y-16422198D02*
X15570063Y-16412674D01*
X15570063Y-16412674D02*
X15589110Y-16403150D01*
X15589110Y-16403150D02*
X15617682Y-16403150D01*
X15617682Y-16403150D02*
X15636730Y-16412674D01*
X15636730Y-16412674D02*
X15646253Y-16422198D01*
X15646253Y-16422198D02*
X15655777Y-16441246D01*
X15655777Y-16441246D02*
X15655777Y-16498388D01*
X15655777Y-16498388D02*
X15646253Y-16517436D01*
X15646253Y-16517436D02*
X15636730Y-16526960D01*
X15636730Y-16526960D02*
X15617682Y-16536484D01*
X15617682Y-16536484D02*
X15589110Y-16536484D01*
X15770063Y-16536484D02*
X15751015Y-16526960D01*
X15751015Y-16526960D02*
X15741491Y-16507912D01*
X15741491Y-16507912D02*
X15741491Y-16336484D01*
X15922444Y-16526960D02*
X15903396Y-16536484D01*
X15903396Y-16536484D02*
X15865301Y-16536484D01*
X15865301Y-16536484D02*
X15846253Y-16526960D01*
X15846253Y-16526960D02*
X15836730Y-16507912D01*
X15836730Y-16507912D02*
X15836730Y-16431722D01*
X15836730Y-16431722D02*
X15846253Y-16412674D01*
X15846253Y-16412674D02*
X15865301Y-16403150D01*
X15865301Y-16403150D02*
X15903396Y-16403150D01*
X15903396Y-16403150D02*
X15922444Y-16412674D01*
X15922444Y-16412674D02*
X15931968Y-16431722D01*
X15931968Y-16431722D02*
X15931968Y-16450769D01*
X15931968Y-16450769D02*
X15836730Y-16469817D01*
X16008158Y-16526960D02*
X16027206Y-16536484D01*
X16027206Y-16536484D02*
X16065301Y-16536484D01*
X16065301Y-16536484D02*
X16084349Y-16526960D01*
X16084349Y-16526960D02*
X16093872Y-16507912D01*
X16093872Y-16507912D02*
X16093872Y-16498388D01*
X16093872Y-16498388D02*
X16084349Y-16479341D01*
X16084349Y-16479341D02*
X16065301Y-16469817D01*
X16065301Y-16469817D02*
X16036730Y-16469817D01*
X16036730Y-16469817D02*
X16017682Y-16460293D01*
X16017682Y-16460293D02*
X16008158Y-16441246D01*
X16008158Y-16441246D02*
X16008158Y-16431722D01*
X16008158Y-16431722D02*
X16017682Y-16412674D01*
X16017682Y-16412674D02*
X16036730Y-16403150D01*
X16036730Y-16403150D02*
X16065301Y-16403150D01*
X16065301Y-16403150D02*
X16084349Y-16412674D01*
X16160539Y-16612674D02*
X16170063Y-16603150D01*
X16170063Y-16603150D02*
X16189111Y-16574579D01*
X16189111Y-16574579D02*
X16198634Y-16555531D01*
X16198634Y-16555531D02*
X16208158Y-16526960D01*
X16208158Y-16526960D02*
X16217682Y-16479341D01*
X16217682Y-16479341D02*
X16217682Y-16441246D01*
X16217682Y-16441246D02*
X16208158Y-16393627D01*
X16208158Y-16393627D02*
X16198634Y-16365055D01*
X16198634Y-16365055D02*
X16189111Y-16346008D01*
X16189111Y-16346008D02*
X16170063Y-16317436D01*
X16170063Y-16317436D02*
X16160539Y-16307912D01*
D10*
X11195000Y-16709000D02*
G75*
G02*
X11175000Y-16709000I-10000J0D01*
G01*
X11175000Y-16709000D02*
G75*
G02*
X11195000Y-16709000I10000J0D01*
G01*
D11*
X11493872Y-16600484D02*
X11512920Y-16600484D01*
X11512920Y-16600484D02*
X11531967Y-16610008D01*
X11531967Y-16610008D02*
X11541491Y-16619531D01*
X11541491Y-16619531D02*
X11551015Y-16638579D01*
X11551015Y-16638579D02*
X11560539Y-16676674D01*
X11560539Y-16676674D02*
X11560539Y-16724293D01*
X11560539Y-16724293D02*
X11551015Y-16762388D01*
X11551015Y-16762388D02*
X11541491Y-16781436D01*
X11541491Y-16781436D02*
X11531967Y-16790960D01*
X11531967Y-16790960D02*
X11512920Y-16800484D01*
X11512920Y-16800484D02*
X11493872Y-16800484D01*
X11493872Y-16800484D02*
X11474824Y-16790960D01*
X11474824Y-16790960D02*
X11465301Y-16781436D01*
X11465301Y-16781436D02*
X11455777Y-16762388D01*
X11455777Y-16762388D02*
X11446253Y-16724293D01*
X11446253Y-16724293D02*
X11446253Y-16676674D01*
X11446253Y-16676674D02*
X11455777Y-16638579D01*
X11455777Y-16638579D02*
X11465301Y-16619531D01*
X11465301Y-16619531D02*
X11474824Y-16610008D01*
X11474824Y-16610008D02*
X11493872Y-16600484D01*
X11646253Y-16781436D02*
X11655777Y-16790960D01*
X11655777Y-16790960D02*
X11646253Y-16800484D01*
X11646253Y-16800484D02*
X11636729Y-16790960D01*
X11636729Y-16790960D02*
X11646253Y-16781436D01*
X11646253Y-16781436D02*
X11646253Y-16800484D01*
X11731967Y-16619531D02*
X11741491Y-16610008D01*
X11741491Y-16610008D02*
X11760539Y-16600484D01*
X11760539Y-16600484D02*
X11808158Y-16600484D01*
X11808158Y-16600484D02*
X11827205Y-16610008D01*
X11827205Y-16610008D02*
X11836729Y-16619531D01*
X11836729Y-16619531D02*
X11846253Y-16638579D01*
X11846253Y-16638579D02*
X11846253Y-16657627D01*
X11846253Y-16657627D02*
X11836729Y-16686198D01*
X11836729Y-16686198D02*
X11722443Y-16800484D01*
X11722443Y-16800484D02*
X11846253Y-16800484D01*
X11970062Y-16600484D02*
X11989110Y-16600484D01*
X11989110Y-16600484D02*
X12008158Y-16610008D01*
X12008158Y-16610008D02*
X12017682Y-16619531D01*
X12017682Y-16619531D02*
X12027205Y-16638579D01*
X12027205Y-16638579D02*
X12036729Y-16676674D01*
X12036729Y-16676674D02*
X12036729Y-16724293D01*
X12036729Y-16724293D02*
X12027205Y-16762388D01*
X12027205Y-16762388D02*
X12017682Y-16781436D01*
X12017682Y-16781436D02*
X12008158Y-16790960D01*
X12008158Y-16790960D02*
X11989110Y-16800484D01*
X11989110Y-16800484D02*
X11970062Y-16800484D01*
X11970062Y-16800484D02*
X11951015Y-16790960D01*
X11951015Y-16790960D02*
X11941491Y-16781436D01*
X11941491Y-16781436D02*
X11931967Y-16762388D01*
X11931967Y-16762388D02*
X11922443Y-16724293D01*
X11922443Y-16724293D02*
X11922443Y-16676674D01*
X11922443Y-16676674D02*
X11931967Y-16638579D01*
X11931967Y-16638579D02*
X11941491Y-16619531D01*
X11941491Y-16619531D02*
X11951015Y-16610008D01*
X11951015Y-16610008D02*
X11970062Y-16600484D01*
X12160539Y-16600484D02*
X12179586Y-16600484D01*
X12179586Y-16600484D02*
X12198634Y-16610008D01*
X12198634Y-16610008D02*
X12208158Y-16619531D01*
X12208158Y-16619531D02*
X12217682Y-16638579D01*
X12217682Y-16638579D02*
X12227205Y-16676674D01*
X12227205Y-16676674D02*
X12227205Y-16724293D01*
X12227205Y-16724293D02*
X12217682Y-16762388D01*
X12217682Y-16762388D02*
X12208158Y-16781436D01*
X12208158Y-16781436D02*
X12198634Y-16790960D01*
X12198634Y-16790960D02*
X12179586Y-16800484D01*
X12179586Y-16800484D02*
X12160539Y-16800484D01*
X12160539Y-16800484D02*
X12141491Y-16790960D01*
X12141491Y-16790960D02*
X12131967Y-16781436D01*
X12131967Y-16781436D02*
X12122443Y-16762388D01*
X12122443Y-16762388D02*
X12112920Y-16724293D01*
X12112920Y-16724293D02*
X12112920Y-16676674D01*
X12112920Y-16676674D02*
X12122443Y-16638579D01*
X12122443Y-16638579D02*
X12131967Y-16619531D01*
X12131967Y-16619531D02*
X12141491Y-16610008D01*
X12141491Y-16610008D02*
X12160539Y-16600484D01*
X12312920Y-16800484D02*
X12312920Y-16667150D01*
X12312920Y-16686198D02*
X12322443Y-16676674D01*
X12322443Y-16676674D02*
X12341491Y-16667150D01*
X12341491Y-16667150D02*
X12370063Y-16667150D01*
X12370063Y-16667150D02*
X12389110Y-16676674D01*
X12389110Y-16676674D02*
X12398634Y-16695722D01*
X12398634Y-16695722D02*
X12398634Y-16800484D01*
X12398634Y-16695722D02*
X12408158Y-16676674D01*
X12408158Y-16676674D02*
X12427205Y-16667150D01*
X12427205Y-16667150D02*
X12455777Y-16667150D01*
X12455777Y-16667150D02*
X12474824Y-16676674D01*
X12474824Y-16676674D02*
X12484348Y-16695722D01*
X12484348Y-16695722D02*
X12484348Y-16800484D01*
X12579586Y-16800484D02*
X12579586Y-16667150D01*
X12579586Y-16686198D02*
X12589110Y-16676674D01*
X12589110Y-16676674D02*
X12608158Y-16667150D01*
X12608158Y-16667150D02*
X12636729Y-16667150D01*
X12636729Y-16667150D02*
X12655777Y-16676674D01*
X12655777Y-16676674D02*
X12665301Y-16695722D01*
X12665301Y-16695722D02*
X12665301Y-16800484D01*
X12665301Y-16695722D02*
X12674824Y-16676674D01*
X12674824Y-16676674D02*
X12693872Y-16667150D01*
X12693872Y-16667150D02*
X12722443Y-16667150D01*
X12722443Y-16667150D02*
X12741491Y-16676674D01*
X12741491Y-16676674D02*
X12751015Y-16695722D01*
X12751015Y-16695722D02*
X12751015Y-16800484D01*
X13141491Y-16590960D02*
X12970063Y-16848103D01*
X13398634Y-16600484D02*
X13417682Y-16600484D01*
X13417682Y-16600484D02*
X13436729Y-16610008D01*
X13436729Y-16610008D02*
X13446253Y-16619531D01*
X13446253Y-16619531D02*
X13455777Y-16638579D01*
X13455777Y-16638579D02*
X13465301Y-16676674D01*
X13465301Y-16676674D02*
X13465301Y-16724293D01*
X13465301Y-16724293D02*
X13455777Y-16762388D01*
X13455777Y-16762388D02*
X13446253Y-16781436D01*
X13446253Y-16781436D02*
X13436729Y-16790960D01*
X13436729Y-16790960D02*
X13417682Y-16800484D01*
X13417682Y-16800484D02*
X13398634Y-16800484D01*
X13398634Y-16800484D02*
X13379586Y-16790960D01*
X13379586Y-16790960D02*
X13370063Y-16781436D01*
X13370063Y-16781436D02*
X13360539Y-16762388D01*
X13360539Y-16762388D02*
X13351015Y-16724293D01*
X13351015Y-16724293D02*
X13351015Y-16676674D01*
X13351015Y-16676674D02*
X13360539Y-16638579D01*
X13360539Y-16638579D02*
X13370063Y-16619531D01*
X13370063Y-16619531D02*
X13379586Y-16610008D01*
X13379586Y-16610008D02*
X13398634Y-16600484D01*
X13551015Y-16781436D02*
X13560539Y-16790960D01*
X13560539Y-16790960D02*
X13551015Y-16800484D01*
X13551015Y-16800484D02*
X13541491Y-16790960D01*
X13541491Y-16790960D02*
X13551015Y-16781436D01*
X13551015Y-16781436D02*
X13551015Y-16800484D01*
X13684348Y-16600484D02*
X13703396Y-16600484D01*
X13703396Y-16600484D02*
X13722444Y-16610008D01*
X13722444Y-16610008D02*
X13731967Y-16619531D01*
X13731967Y-16619531D02*
X13741491Y-16638579D01*
X13741491Y-16638579D02*
X13751015Y-16676674D01*
X13751015Y-16676674D02*
X13751015Y-16724293D01*
X13751015Y-16724293D02*
X13741491Y-16762388D01*
X13741491Y-16762388D02*
X13731967Y-16781436D01*
X13731967Y-16781436D02*
X13722444Y-16790960D01*
X13722444Y-16790960D02*
X13703396Y-16800484D01*
X13703396Y-16800484D02*
X13684348Y-16800484D01*
X13684348Y-16800484D02*
X13665301Y-16790960D01*
X13665301Y-16790960D02*
X13655777Y-16781436D01*
X13655777Y-16781436D02*
X13646253Y-16762388D01*
X13646253Y-16762388D02*
X13636729Y-16724293D01*
X13636729Y-16724293D02*
X13636729Y-16676674D01*
X13636729Y-16676674D02*
X13646253Y-16638579D01*
X13646253Y-16638579D02*
X13655777Y-16619531D01*
X13655777Y-16619531D02*
X13665301Y-16610008D01*
X13665301Y-16610008D02*
X13684348Y-16600484D01*
X13874825Y-16600484D02*
X13893872Y-16600484D01*
X13893872Y-16600484D02*
X13912920Y-16610008D01*
X13912920Y-16610008D02*
X13922444Y-16619531D01*
X13922444Y-16619531D02*
X13931967Y-16638579D01*
X13931967Y-16638579D02*
X13941491Y-16676674D01*
X13941491Y-16676674D02*
X13941491Y-16724293D01*
X13941491Y-16724293D02*
X13931967Y-16762388D01*
X13931967Y-16762388D02*
X13922444Y-16781436D01*
X13922444Y-16781436D02*
X13912920Y-16790960D01*
X13912920Y-16790960D02*
X13893872Y-16800484D01*
X13893872Y-16800484D02*
X13874825Y-16800484D01*
X13874825Y-16800484D02*
X13855777Y-16790960D01*
X13855777Y-16790960D02*
X13846253Y-16781436D01*
X13846253Y-16781436D02*
X13836729Y-16762388D01*
X13836729Y-16762388D02*
X13827206Y-16724293D01*
X13827206Y-16724293D02*
X13827206Y-16676674D01*
X13827206Y-16676674D02*
X13836729Y-16638579D01*
X13836729Y-16638579D02*
X13846253Y-16619531D01*
X13846253Y-16619531D02*
X13855777Y-16610008D01*
X13855777Y-16610008D02*
X13874825Y-16600484D01*
X14008158Y-16600484D02*
X14141491Y-16600484D01*
X14141491Y-16600484D02*
X14055777Y-16800484D01*
X14227206Y-16800484D02*
X14265301Y-16800484D01*
X14265301Y-16800484D02*
X14284348Y-16790960D01*
X14284348Y-16790960D02*
X14293872Y-16781436D01*
X14293872Y-16781436D02*
X14312920Y-16752865D01*
X14312920Y-16752865D02*
X14322444Y-16714769D01*
X14322444Y-16714769D02*
X14322444Y-16638579D01*
X14322444Y-16638579D02*
X14312920Y-16619531D01*
X14312920Y-16619531D02*
X14303396Y-16610008D01*
X14303396Y-16610008D02*
X14284348Y-16600484D01*
X14284348Y-16600484D02*
X14246253Y-16600484D01*
X14246253Y-16600484D02*
X14227206Y-16610008D01*
X14227206Y-16610008D02*
X14217682Y-16619531D01*
X14217682Y-16619531D02*
X14208158Y-16638579D01*
X14208158Y-16638579D02*
X14208158Y-16686198D01*
X14208158Y-16686198D02*
X14217682Y-16705246D01*
X14217682Y-16705246D02*
X14227206Y-16714769D01*
X14227206Y-16714769D02*
X14246253Y-16724293D01*
X14246253Y-16724293D02*
X14284348Y-16724293D01*
X14284348Y-16724293D02*
X14303396Y-16714769D01*
X14303396Y-16714769D02*
X14312920Y-16705246D01*
X14312920Y-16705246D02*
X14322444Y-16686198D01*
X14398634Y-16600484D02*
X14398634Y-16638579D01*
X14474825Y-16600484D02*
X14474825Y-16638579D01*
X14770063Y-16876674D02*
X14760539Y-16867150D01*
X14760539Y-16867150D02*
X14741491Y-16838579D01*
X14741491Y-16838579D02*
X14731968Y-16819531D01*
X14731968Y-16819531D02*
X14722444Y-16790960D01*
X14722444Y-16790960D02*
X14712920Y-16743341D01*
X14712920Y-16743341D02*
X14712920Y-16705246D01*
X14712920Y-16705246D02*
X14722444Y-16657627D01*
X14722444Y-16657627D02*
X14731968Y-16629055D01*
X14731968Y-16629055D02*
X14741491Y-16610008D01*
X14741491Y-16610008D02*
X14760539Y-16581436D01*
X14760539Y-16581436D02*
X14770063Y-16571912D01*
X14855777Y-16800484D02*
X14893872Y-16800484D01*
X14893872Y-16800484D02*
X14912920Y-16790960D01*
X14912920Y-16790960D02*
X14922444Y-16781436D01*
X14922444Y-16781436D02*
X14941491Y-16752865D01*
X14941491Y-16752865D02*
X14951015Y-16714769D01*
X14951015Y-16714769D02*
X14951015Y-16638579D01*
X14951015Y-16638579D02*
X14941491Y-16619531D01*
X14941491Y-16619531D02*
X14931968Y-16610008D01*
X14931968Y-16610008D02*
X14912920Y-16600484D01*
X14912920Y-16600484D02*
X14874825Y-16600484D01*
X14874825Y-16600484D02*
X14855777Y-16610008D01*
X14855777Y-16610008D02*
X14846253Y-16619531D01*
X14846253Y-16619531D02*
X14836729Y-16638579D01*
X14836729Y-16638579D02*
X14836729Y-16686198D01*
X14836729Y-16686198D02*
X14846253Y-16705246D01*
X14846253Y-16705246D02*
X14855777Y-16714769D01*
X14855777Y-16714769D02*
X14874825Y-16724293D01*
X14874825Y-16724293D02*
X14912920Y-16724293D01*
X14912920Y-16724293D02*
X14931968Y-16714769D01*
X14931968Y-16714769D02*
X14941491Y-16705246D01*
X14941491Y-16705246D02*
X14951015Y-16686198D01*
X15074825Y-16600484D02*
X15093872Y-16600484D01*
X15093872Y-16600484D02*
X15112920Y-16610008D01*
X15112920Y-16610008D02*
X15122444Y-16619531D01*
X15122444Y-16619531D02*
X15131968Y-16638579D01*
X15131968Y-16638579D02*
X15141491Y-16676674D01*
X15141491Y-16676674D02*
X15141491Y-16724293D01*
X15141491Y-16724293D02*
X15131968Y-16762388D01*
X15131968Y-16762388D02*
X15122444Y-16781436D01*
X15122444Y-16781436D02*
X15112920Y-16790960D01*
X15112920Y-16790960D02*
X15093872Y-16800484D01*
X15093872Y-16800484D02*
X15074825Y-16800484D01*
X15074825Y-16800484D02*
X15055777Y-16790960D01*
X15055777Y-16790960D02*
X15046253Y-16781436D01*
X15046253Y-16781436D02*
X15036729Y-16762388D01*
X15036729Y-16762388D02*
X15027206Y-16724293D01*
X15027206Y-16724293D02*
X15027206Y-16676674D01*
X15027206Y-16676674D02*
X15036729Y-16638579D01*
X15036729Y-16638579D02*
X15046253Y-16619531D01*
X15046253Y-16619531D02*
X15055777Y-16610008D01*
X15055777Y-16610008D02*
X15074825Y-16600484D01*
X15379587Y-16800484D02*
X15379587Y-16600484D01*
X15465301Y-16800484D02*
X15465301Y-16695722D01*
X15465301Y-16695722D02*
X15455777Y-16676674D01*
X15455777Y-16676674D02*
X15436730Y-16667150D01*
X15436730Y-16667150D02*
X15408158Y-16667150D01*
X15408158Y-16667150D02*
X15389110Y-16676674D01*
X15389110Y-16676674D02*
X15379587Y-16686198D01*
X15589110Y-16800484D02*
X15570063Y-16790960D01*
X15570063Y-16790960D02*
X15560539Y-16781436D01*
X15560539Y-16781436D02*
X15551015Y-16762388D01*
X15551015Y-16762388D02*
X15551015Y-16705246D01*
X15551015Y-16705246D02*
X15560539Y-16686198D01*
X15560539Y-16686198D02*
X15570063Y-16676674D01*
X15570063Y-16676674D02*
X15589110Y-16667150D01*
X15589110Y-16667150D02*
X15617682Y-16667150D01*
X15617682Y-16667150D02*
X15636730Y-16676674D01*
X15636730Y-16676674D02*
X15646253Y-16686198D01*
X15646253Y-16686198D02*
X15655777Y-16705246D01*
X15655777Y-16705246D02*
X15655777Y-16762388D01*
X15655777Y-16762388D02*
X15646253Y-16781436D01*
X15646253Y-16781436D02*
X15636730Y-16790960D01*
X15636730Y-16790960D02*
X15617682Y-16800484D01*
X15617682Y-16800484D02*
X15589110Y-16800484D01*
X15770063Y-16800484D02*
X15751015Y-16790960D01*
X15751015Y-16790960D02*
X15741491Y-16771912D01*
X15741491Y-16771912D02*
X15741491Y-16600484D01*
X15922444Y-16790960D02*
X15903396Y-16800484D01*
X15903396Y-16800484D02*
X15865301Y-16800484D01*
X15865301Y-16800484D02*
X15846253Y-16790960D01*
X15846253Y-16790960D02*
X15836730Y-16771912D01*
X15836730Y-16771912D02*
X15836730Y-16695722D01*
X15836730Y-16695722D02*
X15846253Y-16676674D01*
X15846253Y-16676674D02*
X15865301Y-16667150D01*
X15865301Y-16667150D02*
X15903396Y-16667150D01*
X15903396Y-16667150D02*
X15922444Y-16676674D01*
X15922444Y-16676674D02*
X15931968Y-16695722D01*
X15931968Y-16695722D02*
X15931968Y-16714769D01*
X15931968Y-16714769D02*
X15836730Y-16733817D01*
X16008158Y-16790960D02*
X16027206Y-16800484D01*
X16027206Y-16800484D02*
X16065301Y-16800484D01*
X16065301Y-16800484D02*
X16084349Y-16790960D01*
X16084349Y-16790960D02*
X16093872Y-16771912D01*
X16093872Y-16771912D02*
X16093872Y-16762388D01*
X16093872Y-16762388D02*
X16084349Y-16743341D01*
X16084349Y-16743341D02*
X16065301Y-16733817D01*
X16065301Y-16733817D02*
X16036730Y-16733817D01*
X16036730Y-16733817D02*
X16017682Y-16724293D01*
X16017682Y-16724293D02*
X16008158Y-16705246D01*
X16008158Y-16705246D02*
X16008158Y-16695722D01*
X16008158Y-16695722D02*
X16017682Y-16676674D01*
X16017682Y-16676674D02*
X16036730Y-16667150D01*
X16036730Y-16667150D02*
X16065301Y-16667150D01*
X16065301Y-16667150D02*
X16084349Y-16676674D01*
X16160539Y-16876674D02*
X16170063Y-16867150D01*
X16170063Y-16867150D02*
X16189111Y-16838579D01*
X16189111Y-16838579D02*
X16198634Y-16819531D01*
X16198634Y-16819531D02*
X16208158Y-16790960D01*
X16208158Y-16790960D02*
X16217682Y-16743341D01*
X16217682Y-16743341D02*
X16217682Y-16705246D01*
X16217682Y-16705246D02*
X16208158Y-16657627D01*
X16208158Y-16657627D02*
X16198634Y-16629055D01*
X16198634Y-16629055D02*
X16189111Y-16610008D01*
X16189111Y-16610008D02*
X16170063Y-16581436D01*
X16170063Y-16581436D02*
X16160539Y-16571912D01*
D10*
X11182500Y-16960500D02*
X11182500Y-16985500D01*
X11170000Y-16973000D02*
X11195000Y-16973000D01*
D11*
X11493872Y-16864484D02*
X11512920Y-16864484D01*
X11512920Y-16864484D02*
X11531967Y-16874008D01*
X11531967Y-16874008D02*
X11541491Y-16883531D01*
X11541491Y-16883531D02*
X11551015Y-16902579D01*
X11551015Y-16902579D02*
X11560539Y-16940674D01*
X11560539Y-16940674D02*
X11560539Y-16988293D01*
X11560539Y-16988293D02*
X11551015Y-17026389D01*
X11551015Y-17026389D02*
X11541491Y-17045436D01*
X11541491Y-17045436D02*
X11531967Y-17054960D01*
X11531967Y-17054960D02*
X11512920Y-17064484D01*
X11512920Y-17064484D02*
X11493872Y-17064484D01*
X11493872Y-17064484D02*
X11474824Y-17054960D01*
X11474824Y-17054960D02*
X11465301Y-17045436D01*
X11465301Y-17045436D02*
X11455777Y-17026389D01*
X11455777Y-17026389D02*
X11446253Y-16988293D01*
X11446253Y-16988293D02*
X11446253Y-16940674D01*
X11446253Y-16940674D02*
X11455777Y-16902579D01*
X11455777Y-16902579D02*
X11465301Y-16883531D01*
X11465301Y-16883531D02*
X11474824Y-16874008D01*
X11474824Y-16874008D02*
X11493872Y-16864484D01*
X11646253Y-17045436D02*
X11655777Y-17054960D01*
X11655777Y-17054960D02*
X11646253Y-17064484D01*
X11646253Y-17064484D02*
X11636729Y-17054960D01*
X11636729Y-17054960D02*
X11646253Y-17045436D01*
X11646253Y-17045436D02*
X11646253Y-17064484D01*
X11731967Y-16883531D02*
X11741491Y-16874008D01*
X11741491Y-16874008D02*
X11760539Y-16864484D01*
X11760539Y-16864484D02*
X11808158Y-16864484D01*
X11808158Y-16864484D02*
X11827205Y-16874008D01*
X11827205Y-16874008D02*
X11836729Y-16883531D01*
X11836729Y-16883531D02*
X11846253Y-16902579D01*
X11846253Y-16902579D02*
X11846253Y-16921627D01*
X11846253Y-16921627D02*
X11836729Y-16950198D01*
X11836729Y-16950198D02*
X11722443Y-17064484D01*
X11722443Y-17064484D02*
X11846253Y-17064484D01*
X12027205Y-16864484D02*
X11931967Y-16864484D01*
X11931967Y-16864484D02*
X11922443Y-16959722D01*
X11922443Y-16959722D02*
X11931967Y-16950198D01*
X11931967Y-16950198D02*
X11951015Y-16940674D01*
X11951015Y-16940674D02*
X11998634Y-16940674D01*
X11998634Y-16940674D02*
X12017682Y-16950198D01*
X12017682Y-16950198D02*
X12027205Y-16959722D01*
X12027205Y-16959722D02*
X12036729Y-16978770D01*
X12036729Y-16978770D02*
X12036729Y-17026389D01*
X12036729Y-17026389D02*
X12027205Y-17045436D01*
X12027205Y-17045436D02*
X12017682Y-17054960D01*
X12017682Y-17054960D02*
X11998634Y-17064484D01*
X11998634Y-17064484D02*
X11951015Y-17064484D01*
X11951015Y-17064484D02*
X11931967Y-17054960D01*
X11931967Y-17054960D02*
X11922443Y-17045436D01*
X12160539Y-16864484D02*
X12179586Y-16864484D01*
X12179586Y-16864484D02*
X12198634Y-16874008D01*
X12198634Y-16874008D02*
X12208158Y-16883531D01*
X12208158Y-16883531D02*
X12217682Y-16902579D01*
X12217682Y-16902579D02*
X12227205Y-16940674D01*
X12227205Y-16940674D02*
X12227205Y-16988293D01*
X12227205Y-16988293D02*
X12217682Y-17026389D01*
X12217682Y-17026389D02*
X12208158Y-17045436D01*
X12208158Y-17045436D02*
X12198634Y-17054960D01*
X12198634Y-17054960D02*
X12179586Y-17064484D01*
X12179586Y-17064484D02*
X12160539Y-17064484D01*
X12160539Y-17064484D02*
X12141491Y-17054960D01*
X12141491Y-17054960D02*
X12131967Y-17045436D01*
X12131967Y-17045436D02*
X12122443Y-17026389D01*
X12122443Y-17026389D02*
X12112920Y-16988293D01*
X12112920Y-16988293D02*
X12112920Y-16940674D01*
X12112920Y-16940674D02*
X12122443Y-16902579D01*
X12122443Y-16902579D02*
X12131967Y-16883531D01*
X12131967Y-16883531D02*
X12141491Y-16874008D01*
X12141491Y-16874008D02*
X12160539Y-16864484D01*
X12312920Y-17064484D02*
X12312920Y-16931150D01*
X12312920Y-16950198D02*
X12322443Y-16940674D01*
X12322443Y-16940674D02*
X12341491Y-16931150D01*
X12341491Y-16931150D02*
X12370063Y-16931150D01*
X12370063Y-16931150D02*
X12389110Y-16940674D01*
X12389110Y-16940674D02*
X12398634Y-16959722D01*
X12398634Y-16959722D02*
X12398634Y-17064484D01*
X12398634Y-16959722D02*
X12408158Y-16940674D01*
X12408158Y-16940674D02*
X12427205Y-16931150D01*
X12427205Y-16931150D02*
X12455777Y-16931150D01*
X12455777Y-16931150D02*
X12474824Y-16940674D01*
X12474824Y-16940674D02*
X12484348Y-16959722D01*
X12484348Y-16959722D02*
X12484348Y-17064484D01*
X12579586Y-17064484D02*
X12579586Y-16931150D01*
X12579586Y-16950198D02*
X12589110Y-16940674D01*
X12589110Y-16940674D02*
X12608158Y-16931150D01*
X12608158Y-16931150D02*
X12636729Y-16931150D01*
X12636729Y-16931150D02*
X12655777Y-16940674D01*
X12655777Y-16940674D02*
X12665301Y-16959722D01*
X12665301Y-16959722D02*
X12665301Y-17064484D01*
X12665301Y-16959722D02*
X12674824Y-16940674D01*
X12674824Y-16940674D02*
X12693872Y-16931150D01*
X12693872Y-16931150D02*
X12722443Y-16931150D01*
X12722443Y-16931150D02*
X12741491Y-16940674D01*
X12741491Y-16940674D02*
X12751015Y-16959722D01*
X12751015Y-16959722D02*
X12751015Y-17064484D01*
X13141491Y-16854960D02*
X12970063Y-17112103D01*
X13398634Y-16864484D02*
X13417682Y-16864484D01*
X13417682Y-16864484D02*
X13436729Y-16874008D01*
X13436729Y-16874008D02*
X13446253Y-16883531D01*
X13446253Y-16883531D02*
X13455777Y-16902579D01*
X13455777Y-16902579D02*
X13465301Y-16940674D01*
X13465301Y-16940674D02*
X13465301Y-16988293D01*
X13465301Y-16988293D02*
X13455777Y-17026389D01*
X13455777Y-17026389D02*
X13446253Y-17045436D01*
X13446253Y-17045436D02*
X13436729Y-17054960D01*
X13436729Y-17054960D02*
X13417682Y-17064484D01*
X13417682Y-17064484D02*
X13398634Y-17064484D01*
X13398634Y-17064484D02*
X13379586Y-17054960D01*
X13379586Y-17054960D02*
X13370063Y-17045436D01*
X13370063Y-17045436D02*
X13360539Y-17026389D01*
X13360539Y-17026389D02*
X13351015Y-16988293D01*
X13351015Y-16988293D02*
X13351015Y-16940674D01*
X13351015Y-16940674D02*
X13360539Y-16902579D01*
X13360539Y-16902579D02*
X13370063Y-16883531D01*
X13370063Y-16883531D02*
X13379586Y-16874008D01*
X13379586Y-16874008D02*
X13398634Y-16864484D01*
X13551015Y-17045436D02*
X13560539Y-17054960D01*
X13560539Y-17054960D02*
X13551015Y-17064484D01*
X13551015Y-17064484D02*
X13541491Y-17054960D01*
X13541491Y-17054960D02*
X13551015Y-17045436D01*
X13551015Y-17045436D02*
X13551015Y-17064484D01*
X13684348Y-16864484D02*
X13703396Y-16864484D01*
X13703396Y-16864484D02*
X13722444Y-16874008D01*
X13722444Y-16874008D02*
X13731967Y-16883531D01*
X13731967Y-16883531D02*
X13741491Y-16902579D01*
X13741491Y-16902579D02*
X13751015Y-16940674D01*
X13751015Y-16940674D02*
X13751015Y-16988293D01*
X13751015Y-16988293D02*
X13741491Y-17026389D01*
X13741491Y-17026389D02*
X13731967Y-17045436D01*
X13731967Y-17045436D02*
X13722444Y-17054960D01*
X13722444Y-17054960D02*
X13703396Y-17064484D01*
X13703396Y-17064484D02*
X13684348Y-17064484D01*
X13684348Y-17064484D02*
X13665301Y-17054960D01*
X13665301Y-17054960D02*
X13655777Y-17045436D01*
X13655777Y-17045436D02*
X13646253Y-17026389D01*
X13646253Y-17026389D02*
X13636729Y-16988293D01*
X13636729Y-16988293D02*
X13636729Y-16940674D01*
X13636729Y-16940674D02*
X13646253Y-16902579D01*
X13646253Y-16902579D02*
X13655777Y-16883531D01*
X13655777Y-16883531D02*
X13665301Y-16874008D01*
X13665301Y-16874008D02*
X13684348Y-16864484D01*
X13874825Y-16864484D02*
X13893872Y-16864484D01*
X13893872Y-16864484D02*
X13912920Y-16874008D01*
X13912920Y-16874008D02*
X13922444Y-16883531D01*
X13922444Y-16883531D02*
X13931967Y-16902579D01*
X13931967Y-16902579D02*
X13941491Y-16940674D01*
X13941491Y-16940674D02*
X13941491Y-16988293D01*
X13941491Y-16988293D02*
X13931967Y-17026389D01*
X13931967Y-17026389D02*
X13922444Y-17045436D01*
X13922444Y-17045436D02*
X13912920Y-17054960D01*
X13912920Y-17054960D02*
X13893872Y-17064484D01*
X13893872Y-17064484D02*
X13874825Y-17064484D01*
X13874825Y-17064484D02*
X13855777Y-17054960D01*
X13855777Y-17054960D02*
X13846253Y-17045436D01*
X13846253Y-17045436D02*
X13836729Y-17026389D01*
X13836729Y-17026389D02*
X13827206Y-16988293D01*
X13827206Y-16988293D02*
X13827206Y-16940674D01*
X13827206Y-16940674D02*
X13836729Y-16902579D01*
X13836729Y-16902579D02*
X13846253Y-16883531D01*
X13846253Y-16883531D02*
X13855777Y-16874008D01*
X13855777Y-16874008D02*
X13874825Y-16864484D01*
X14036729Y-17064484D02*
X14074825Y-17064484D01*
X14074825Y-17064484D02*
X14093872Y-17054960D01*
X14093872Y-17054960D02*
X14103396Y-17045436D01*
X14103396Y-17045436D02*
X14122444Y-17016865D01*
X14122444Y-17016865D02*
X14131967Y-16978770D01*
X14131967Y-16978770D02*
X14131967Y-16902579D01*
X14131967Y-16902579D02*
X14122444Y-16883531D01*
X14122444Y-16883531D02*
X14112920Y-16874008D01*
X14112920Y-16874008D02*
X14093872Y-16864484D01*
X14093872Y-16864484D02*
X14055777Y-16864484D01*
X14055777Y-16864484D02*
X14036729Y-16874008D01*
X14036729Y-16874008D02*
X14027206Y-16883531D01*
X14027206Y-16883531D02*
X14017682Y-16902579D01*
X14017682Y-16902579D02*
X14017682Y-16950198D01*
X14017682Y-16950198D02*
X14027206Y-16969246D01*
X14027206Y-16969246D02*
X14036729Y-16978770D01*
X14036729Y-16978770D02*
X14055777Y-16988293D01*
X14055777Y-16988293D02*
X14093872Y-16988293D01*
X14093872Y-16988293D02*
X14112920Y-16978770D01*
X14112920Y-16978770D02*
X14122444Y-16969246D01*
X14122444Y-16969246D02*
X14131967Y-16950198D01*
X14246253Y-16950198D02*
X14227206Y-16940674D01*
X14227206Y-16940674D02*
X14217682Y-16931150D01*
X14217682Y-16931150D02*
X14208158Y-16912103D01*
X14208158Y-16912103D02*
X14208158Y-16902579D01*
X14208158Y-16902579D02*
X14217682Y-16883531D01*
X14217682Y-16883531D02*
X14227206Y-16874008D01*
X14227206Y-16874008D02*
X14246253Y-16864484D01*
X14246253Y-16864484D02*
X14284348Y-16864484D01*
X14284348Y-16864484D02*
X14303396Y-16874008D01*
X14303396Y-16874008D02*
X14312920Y-16883531D01*
X14312920Y-16883531D02*
X14322444Y-16902579D01*
X14322444Y-16902579D02*
X14322444Y-16912103D01*
X14322444Y-16912103D02*
X14312920Y-16931150D01*
X14312920Y-16931150D02*
X14303396Y-16940674D01*
X14303396Y-16940674D02*
X14284348Y-16950198D01*
X14284348Y-16950198D02*
X14246253Y-16950198D01*
X14246253Y-16950198D02*
X14227206Y-16959722D01*
X14227206Y-16959722D02*
X14217682Y-16969246D01*
X14217682Y-16969246D02*
X14208158Y-16988293D01*
X14208158Y-16988293D02*
X14208158Y-17026389D01*
X14208158Y-17026389D02*
X14217682Y-17045436D01*
X14217682Y-17045436D02*
X14227206Y-17054960D01*
X14227206Y-17054960D02*
X14246253Y-17064484D01*
X14246253Y-17064484D02*
X14284348Y-17064484D01*
X14284348Y-17064484D02*
X14303396Y-17054960D01*
X14303396Y-17054960D02*
X14312920Y-17045436D01*
X14312920Y-17045436D02*
X14322444Y-17026389D01*
X14322444Y-17026389D02*
X14322444Y-16988293D01*
X14322444Y-16988293D02*
X14312920Y-16969246D01*
X14312920Y-16969246D02*
X14303396Y-16959722D01*
X14303396Y-16959722D02*
X14284348Y-16950198D01*
X14398634Y-16864484D02*
X14398634Y-16902579D01*
X14474825Y-16864484D02*
X14474825Y-16902579D01*
X14770063Y-17140674D02*
X14760539Y-17131150D01*
X14760539Y-17131150D02*
X14741491Y-17102579D01*
X14741491Y-17102579D02*
X14731968Y-17083531D01*
X14731968Y-17083531D02*
X14722444Y-17054960D01*
X14722444Y-17054960D02*
X14712920Y-17007341D01*
X14712920Y-17007341D02*
X14712920Y-16969246D01*
X14712920Y-16969246D02*
X14722444Y-16921627D01*
X14722444Y-16921627D02*
X14731968Y-16893055D01*
X14731968Y-16893055D02*
X14741491Y-16874008D01*
X14741491Y-16874008D02*
X14760539Y-16845436D01*
X14760539Y-16845436D02*
X14770063Y-16835912D01*
X14836729Y-16883531D02*
X14846253Y-16874008D01*
X14846253Y-16874008D02*
X14865301Y-16864484D01*
X14865301Y-16864484D02*
X14912920Y-16864484D01*
X14912920Y-16864484D02*
X14931968Y-16874008D01*
X14931968Y-16874008D02*
X14941491Y-16883531D01*
X14941491Y-16883531D02*
X14951015Y-16902579D01*
X14951015Y-16902579D02*
X14951015Y-16921627D01*
X14951015Y-16921627D02*
X14941491Y-16950198D01*
X14941491Y-16950198D02*
X14827206Y-17064484D01*
X14827206Y-17064484D02*
X14951015Y-17064484D01*
X15027206Y-16883531D02*
X15036729Y-16874008D01*
X15036729Y-16874008D02*
X15055777Y-16864484D01*
X15055777Y-16864484D02*
X15103396Y-16864484D01*
X15103396Y-16864484D02*
X15122444Y-16874008D01*
X15122444Y-16874008D02*
X15131968Y-16883531D01*
X15131968Y-16883531D02*
X15141491Y-16902579D01*
X15141491Y-16902579D02*
X15141491Y-16921627D01*
X15141491Y-16921627D02*
X15131968Y-16950198D01*
X15131968Y-16950198D02*
X15017682Y-17064484D01*
X15017682Y-17064484D02*
X15141491Y-17064484D01*
X15379587Y-17064484D02*
X15379587Y-16864484D01*
X15465301Y-17064484D02*
X15465301Y-16959722D01*
X15465301Y-16959722D02*
X15455777Y-16940674D01*
X15455777Y-16940674D02*
X15436730Y-16931150D01*
X15436730Y-16931150D02*
X15408158Y-16931150D01*
X15408158Y-16931150D02*
X15389110Y-16940674D01*
X15389110Y-16940674D02*
X15379587Y-16950198D01*
X15589110Y-17064484D02*
X15570063Y-17054960D01*
X15570063Y-17054960D02*
X15560539Y-17045436D01*
X15560539Y-17045436D02*
X15551015Y-17026389D01*
X15551015Y-17026389D02*
X15551015Y-16969246D01*
X15551015Y-16969246D02*
X15560539Y-16950198D01*
X15560539Y-16950198D02*
X15570063Y-16940674D01*
X15570063Y-16940674D02*
X15589110Y-16931150D01*
X15589110Y-16931150D02*
X15617682Y-16931150D01*
X15617682Y-16931150D02*
X15636730Y-16940674D01*
X15636730Y-16940674D02*
X15646253Y-16950198D01*
X15646253Y-16950198D02*
X15655777Y-16969246D01*
X15655777Y-16969246D02*
X15655777Y-17026389D01*
X15655777Y-17026389D02*
X15646253Y-17045436D01*
X15646253Y-17045436D02*
X15636730Y-17054960D01*
X15636730Y-17054960D02*
X15617682Y-17064484D01*
X15617682Y-17064484D02*
X15589110Y-17064484D01*
X15770063Y-17064484D02*
X15751015Y-17054960D01*
X15751015Y-17054960D02*
X15741491Y-17035912D01*
X15741491Y-17035912D02*
X15741491Y-16864484D01*
X15922444Y-17054960D02*
X15903396Y-17064484D01*
X15903396Y-17064484D02*
X15865301Y-17064484D01*
X15865301Y-17064484D02*
X15846253Y-17054960D01*
X15846253Y-17054960D02*
X15836730Y-17035912D01*
X15836730Y-17035912D02*
X15836730Y-16959722D01*
X15836730Y-16959722D02*
X15846253Y-16940674D01*
X15846253Y-16940674D02*
X15865301Y-16931150D01*
X15865301Y-16931150D02*
X15903396Y-16931150D01*
X15903396Y-16931150D02*
X15922444Y-16940674D01*
X15922444Y-16940674D02*
X15931968Y-16959722D01*
X15931968Y-16959722D02*
X15931968Y-16978770D01*
X15931968Y-16978770D02*
X15836730Y-16997817D01*
X16008158Y-17054960D02*
X16027206Y-17064484D01*
X16027206Y-17064484D02*
X16065301Y-17064484D01*
X16065301Y-17064484D02*
X16084349Y-17054960D01*
X16084349Y-17054960D02*
X16093872Y-17035912D01*
X16093872Y-17035912D02*
X16093872Y-17026389D01*
X16093872Y-17026389D02*
X16084349Y-17007341D01*
X16084349Y-17007341D02*
X16065301Y-16997817D01*
X16065301Y-16997817D02*
X16036730Y-16997817D01*
X16036730Y-16997817D02*
X16017682Y-16988293D01*
X16017682Y-16988293D02*
X16008158Y-16969246D01*
X16008158Y-16969246D02*
X16008158Y-16959722D01*
X16008158Y-16959722D02*
X16017682Y-16940674D01*
X16017682Y-16940674D02*
X16036730Y-16931150D01*
X16036730Y-16931150D02*
X16065301Y-16931150D01*
X16065301Y-16931150D02*
X16084349Y-16940674D01*
X16160539Y-17140674D02*
X16170063Y-17131150D01*
X16170063Y-17131150D02*
X16189111Y-17102579D01*
X16189111Y-17102579D02*
X16198634Y-17083531D01*
X16198634Y-17083531D02*
X16208158Y-17054960D01*
X16208158Y-17054960D02*
X16217682Y-17007341D01*
X16217682Y-17007341D02*
X16217682Y-16969246D01*
X16217682Y-16969246D02*
X16208158Y-16921627D01*
X16208158Y-16921627D02*
X16198634Y-16893055D01*
X16198634Y-16893055D02*
X16189111Y-16874008D01*
X16189111Y-16874008D02*
X16170063Y-16845436D01*
X16170063Y-16845436D02*
X16160539Y-16835912D01*
M02*
