%TF.GenerationSoftware,KiCad,Pcbnew,10.0.4*%
%TF.CreationDate,2026-08-31T14:27:31+02:00*%
%TF.ProjectId,smartbag_core,736d6172-7462-4616-975f-636f72652e6b,rev?*%
%TF.SameCoordinates,Original*%
%TF.FileFunction,Copper,L3,Inr*%
%TF.FilePolarity,Positive*%
%FSLAX46Y46*%
G04 Gerber Fmt 4.6, Leading zero omitted, Abs format (unit mm)*
G04 Created by KiCad (PCBNEW 10.0.4) date 2026-08-31 14:27:31*
%MOMM*%
%LPD*%
G01*
G04 APERTURE LIST*
%TA.AperFunction,ViaPad*%
%ADD10C,0.250000*%
%TD*%
%TA.AperFunction,Conductor*%
%ADD11C,0.100000*%
%TD*%
%TA.AperFunction,Conductor*%
%ADD12C,0.300000*%
%TD*%
G04 APERTURE END LIST*
D10*
%TO.N,FSR_C11*%
X248171000Y-139271000D03*
X234430000Y-155173000D03*
X256979000Y-151109000D03*
%TO.N,VREF*%
X231040000Y-153552000D03*
X235032000Y-150019000D03*
X235259000Y-150788000D03*
X233690000Y-145200000D03*
%TO.N,I2C_SCL*%
X200020000Y-142552000D03*
X204581000Y-141553000D03*
X213000000Y-150058000D03*
X199352000Y-150012000D03*
%TO.N,VDD_3V3*%
X293801000Y-152410000D03*
X119319000Y-149865000D03*
X204066000Y-152546000D03*
X257065000Y-148622000D03*
X300695000Y-146134000D03*
X201575000Y-142000000D03*
X182903000Y-149200000D03*
X198772000Y-141394000D03*
X210077000Y-144609000D03*
X237524000Y-151238000D03*
X206759000Y-141791000D03*
X195401000Y-151627000D03*
X182819000Y-152473000D03*
X211933000Y-150120000D03*
X227224000Y-150650000D03*
X119866000Y-145560000D03*
X125046000Y-152526000D03*
X204150000Y-142386000D03*
X199479000Y-147259000D03*
X227914000Y-141159000D03*
X196820000Y-152404000D03*
X243270000Y-147718000D03*
X189837000Y-144681000D03*
X227952000Y-144126000D03*
X189536000Y-153597000D03*
X172491000Y-141040000D03*
X230176000Y-141159000D03*
X299750000Y-150680000D03*
X213051000Y-152227000D03*
X212044000Y-142024000D03*
X232930000Y-141415000D03*
%TO.N,FSR_C8*%
X251879000Y-149304000D03*
X245110000Y-141482000D03*
X227566000Y-154524000D03*
%TO.N,VQI*%
X216241000Y-143123000D03*
X215409000Y-146744000D03*
X223020000Y-151020000D03*
%TO.N,GND*%
X252000000Y-138700000D03*
X230105000Y-150390000D03*
X164000000Y-138700000D03*
X172000000Y-138700000D03*
X204000000Y-138700000D03*
X128000000Y-155600000D03*
X146000000Y-150600000D03*
X137000000Y-145400000D03*
X256000000Y-138700000D03*
X134000000Y-145400000D03*
X304000000Y-140400000D03*
X273000000Y-145400000D03*
X161000000Y-150600000D03*
X124000000Y-140400000D03*
X146000000Y-145400000D03*
X192000000Y-138700000D03*
X149000000Y-145400000D03*
X155000000Y-150600000D03*
X134000000Y-150600000D03*
X196000000Y-157300000D03*
X270000000Y-150600000D03*
X158000000Y-145400000D03*
X116000000Y-155600000D03*
X264000000Y-145400000D03*
X192000000Y-157300000D03*
X267000000Y-145400000D03*
X175209000Y-148672000D03*
X292000000Y-155600000D03*
X137000000Y-150600000D03*
X158000000Y-150600000D03*
X304000000Y-155600000D03*
X161000000Y-145400000D03*
X296000000Y-140400000D03*
X224000000Y-138700000D03*
X168000000Y-138700000D03*
X140000000Y-150600000D03*
X282000000Y-150600000D03*
X256000000Y-157300000D03*
X188000000Y-157300000D03*
X116000000Y-140400000D03*
X208000000Y-138700000D03*
X240000000Y-138700000D03*
X244000000Y-157300000D03*
X180000000Y-138700000D03*
X248000000Y-138700000D03*
X232000000Y-138700000D03*
X248000000Y-157300000D03*
X184000000Y-138700000D03*
X208000000Y-157300000D03*
X143000000Y-150600000D03*
X236000000Y-157300000D03*
X220000000Y-138700000D03*
X176000000Y-138700000D03*
X124000000Y-155600000D03*
X152000000Y-150600000D03*
X155000000Y-145400000D03*
X276000000Y-150600000D03*
X143000000Y-145400000D03*
X219278000Y-148425000D03*
X212000000Y-157300000D03*
X296000000Y-155600000D03*
X196000000Y-138700000D03*
X261000000Y-150600000D03*
X252000000Y-157300000D03*
X264000000Y-150600000D03*
X168000000Y-157300000D03*
X267000000Y-150600000D03*
X228000000Y-138700000D03*
X292000000Y-140400000D03*
X128000000Y-140400000D03*
X149000000Y-150600000D03*
X279000000Y-150600000D03*
X270000000Y-145400000D03*
X279000000Y-145400000D03*
X300000000Y-140400000D03*
X244000000Y-138700000D03*
X282000000Y-145400000D03*
X300000000Y-155600000D03*
X240000000Y-157300000D03*
X200000000Y-138700000D03*
X120000000Y-155600000D03*
X140000000Y-145400000D03*
X236000000Y-138700000D03*
X212000000Y-138700000D03*
X184000000Y-157300000D03*
X120000000Y-140400000D03*
X276000000Y-145400000D03*
X273000000Y-150600000D03*
X164000000Y-157300000D03*
X285000000Y-145400000D03*
X288000000Y-145400000D03*
X288000000Y-150600000D03*
X232000000Y-157300000D03*
X223385000Y-142387000D03*
X200000000Y-157300000D03*
X217765000Y-148405000D03*
X261000000Y-145400000D03*
X216000000Y-138700000D03*
X188000000Y-138700000D03*
X204000000Y-157300000D03*
X285000000Y-150600000D03*
X152000000Y-145400000D03*
%TO.N,VSYS*%
X221035000Y-147575000D03*
X196646000Y-145259000D03*
X208629000Y-146700000D03*
X216664000Y-143913000D03*
X208578000Y-143651000D03*
X185042000Y-151263000D03*
X176843000Y-151316000D03*
X204863000Y-145234000D03*
X224341000Y-142542000D03*
%TO.N,FSR_C1*%
X233563000Y-153381000D03*
X241620000Y-141035000D03*
X230708000Y-154744000D03*
%TO.N,FSR_C5*%
X247044000Y-150838000D03*
X243878000Y-141470000D03*
X238619000Y-155300000D03*
%TO.N,FSR_C3*%
X244067000Y-141911000D03*
X246619000Y-151730000D03*
X234384000Y-155764000D03*
%TO.N,FSR_R1*%
X249664000Y-141027000D03*
X229578000Y-151950000D03*
X229940000Y-146052000D03*
%TO.N,ADC1*%
X190413000Y-147717000D03*
X229296000Y-152351000D03*
X231378000Y-146182000D03*
%TO.N,SWDCLK*%
X197616000Y-149422000D03*
X174880000Y-142003000D03*
%TO.N,SWDIO*%
X175432000Y-141990000D03*
X197877000Y-149683000D03*
%TO.N,VBAT*%
X214574000Y-143116000D03*
X216485000Y-152076000D03*
X215475000Y-147625000D03*
%TO.N,VDD_1V8*%
X294853000Y-146340000D03*
X252608000Y-140056000D03*
X209924000Y-142500000D03*
X296100000Y-151995000D03*
X296750000Y-149750000D03*
X120250000Y-149750000D03*
X299750000Y-146250000D03*
X122750000Y-150680000D03*
X122705000Y-152074000D03*
X235085000Y-139841000D03*
X297947000Y-151988000D03*
X123250000Y-149750000D03*
X296750000Y-146250000D03*
X122750000Y-145319000D03*
X297250000Y-150678000D03*
X120662000Y-151894000D03*
X210021000Y-152356000D03*
X209174000Y-144890000D03*
X123250000Y-146250000D03*
%TO.N,X24R_2*%
X300986000Y-142516000D03*
X298891000Y-146173000D03*
%TO.N,FSR_R3*%
X234958000Y-146050000D03*
X235035000Y-149366000D03*
X250650000Y-141041000D03*
%TO.N,ADC3*%
X237012000Y-148280000D03*
X189918000Y-149061000D03*
X200796000Y-155292000D03*
X201824000Y-154396000D03*
%TO.N,FSR_R0*%
X226096000Y-149456000D03*
X227472000Y-146046000D03*
X249048000Y-138984000D03*
%TO.N,ADC0*%
X227373000Y-148575000D03*
X228589000Y-146052000D03*
X189703000Y-147400000D03*
%TO.N,FSR_R2*%
X250150000Y-141038000D03*
X233094000Y-151870000D03*
X233027000Y-147451000D03*
%TO.N,ADC2*%
X232227000Y-152350000D03*
X201834000Y-155368000D03*
X190418000Y-148275000D03*
X233102000Y-152350000D03*
X232750000Y-146901000D03*
X202635000Y-154816000D03*
%TO.N,FSR_C14*%
X254621000Y-153175000D03*
X244038000Y-152874000D03*
X248366000Y-141028000D03*
%TO.N,FSR_R5*%
X239339000Y-147378000D03*
X243334000Y-142539000D03*
X237212000Y-152630000D03*
%TO.N,ADC5*%
X196372000Y-144135000D03*
X237204000Y-153254000D03*
X241363000Y-147650000D03*
X221890000Y-152888000D03*
X197353000Y-143463000D03*
%TO.N,DECA*%
X187510000Y-145700000D03*
X193922000Y-144417000D03*
%TO.N,ANT_FEED*%
X197723000Y-147727000D03*
X168011000Y-152282000D03*
X171715000Y-146300000D03*
%TO.N,FSR_SINK*%
X243946000Y-144890000D03*
X245185000Y-148546000D03*
%TO.N,FSR_C13*%
X247650000Y-141563000D03*
X253983000Y-152525000D03*
X239992000Y-155134000D03*
%TO.N,NTC*%
X224103000Y-142972000D03*
X220218000Y-148025000D03*
%TO.N,X24L_1*%
X119648000Y-150806000D03*
X120899000Y-142568000D03*
%TO.N,IR_LED_EN*%
X182389000Y-144050000D03*
X196535000Y-144879000D03*
%TO.N,X24R_1*%
X300005000Y-145495000D03*
X294936000Y-142916000D03*
X291492000Y-143179000D03*
%TO.N,I2C_SDA*%
X199734000Y-150678000D03*
X203424000Y-150690000D03*
X197925000Y-141565000D03*
%TO.N,FSR_C2*%
X247490000Y-152586000D03*
X231999000Y-154758000D03*
X235020000Y-152228000D03*
X242150000Y-141038000D03*
%TO.N,FSR_C7*%
X244648000Y-141465000D03*
X244020000Y-154580000D03*
X247612000Y-149289000D03*
%TO.N,FSR_C6*%
X247453000Y-149871000D03*
X244256000Y-141470000D03*
X242560000Y-154580000D03*
%TO.N,FSR_C4*%
X243519000Y-141470000D03*
X246653000Y-151128000D03*
X237610000Y-155346000D03*
%TO.N,FSR_C0*%
X249983000Y-153636000D03*
X240865000Y-141027000D03*
X228405000Y-154649000D03*
%TO.N,MUX_S0*%
X190415000Y-146685000D03*
X247010000Y-154871000D03*
%TO.N,MUX_S1*%
X247665000Y-154840000D03*
X190421000Y-147036000D03*
%TO.N,MUX_S3*%
X255494000Y-156214000D03*
X190416000Y-149657000D03*
%TO.N,MUX_S2*%
X190416000Y-149000000D03*
X256928000Y-154840000D03*
%TO.N,FSR_C15*%
X254621000Y-153825000D03*
X248858000Y-141028000D03*
X245327000Y-153014000D03*
%TO.N,FSR_C12*%
X236691000Y-154774000D03*
X247269000Y-141464000D03*
X246029000Y-151567000D03*
X254430000Y-151875000D03*
%TO.N,FSR_C10*%
X246150000Y-141124000D03*
X254430000Y-150788000D03*
X233065000Y-154461000D03*
%TO.N,FSR_C9*%
X230795000Y-153952000D03*
X254228000Y-149865000D03*
X245715000Y-141188000D03*
%TO.N,XTAL32K_2*%
X190147000Y-145266000D03*
X189662000Y-144071000D03*
%TO.N,HALL_OUT*%
X185353000Y-150913000D03*
X189878000Y-148706000D03*
X197594000Y-148734000D03*
%TO.N,X24L_2*%
X128510000Y-142066000D03*
X117927000Y-142058000D03*
X121063000Y-149937000D03*
%TO.N,VBUSOUT*%
X215847000Y-146200000D03*
X218006000Y-142170000D03*
%TO.N,SW1*%
X208650000Y-152814000D03*
X209063000Y-146134000D03*
%TO.N,ADC4*%
X197933000Y-144420000D03*
X235218000Y-148847000D03*
X225278000Y-149000000D03*
%TO.N,FSR_R4*%
X237212000Y-150050000D03*
X243312000Y-142187000D03*
X237586000Y-147208000D03*
%TO.N,SPI_SCK*%
X118607000Y-146134000D03*
X182419000Y-149700000D03*
X182384000Y-150493000D03*
X174400000Y-149356000D03*
X189841000Y-150104000D03*
%TO.N,SPI_MOSI*%
X119087000Y-148565000D03*
X174849000Y-149373000D03*
X182384000Y-150091000D03*
%TO.N,CS_RADAR_L*%
X183510000Y-153783000D03*
X120250000Y-146250000D03*
%TO.N,SPI_MISO*%
X192430000Y-151572000D03*
X185897000Y-151917000D03*
X184859000Y-151935000D03*
X162288000Y-150813000D03*
X123682000Y-147190000D03*
%TO.N,CS_RADAR_R*%
X299750000Y-149750000D03*
%TO.N,CS_CAM*%
X185407000Y-151622000D03*
X193400000Y-151594000D03*
%TO.N,IMU_INT1*%
X199151000Y-149502000D03*
X202820000Y-142778000D03*
%TO.N,NRESET*%
X204198000Y-148150000D03*
X222860000Y-148915000D03*
%TO.N,DECRF*%
X197584000Y-147327000D03*
X191499000Y-142684000D03*
%TO.N,XTAL32M_1*%
X197583000Y-146874000D03*
X184629000Y-142411000D03*
%TO.N,XTAL32M_2*%
X186045000Y-141159000D03*
X197584000Y-146107000D03*
%TO.N,DECD*%
X192906000Y-144420000D03*
X187155000Y-146993000D03*
%TO.N,DCC*%
X192341000Y-144362000D03*
X187769000Y-152794000D03*
%TO.N,SW2*%
X211639000Y-152361000D03*
X210399000Y-150156000D03*
X208522000Y-149865000D03*
X208612000Y-147200000D03*
%TO.N,IR_LED_K*%
X180678000Y-148613000D03*
X182757000Y-145017000D03*
%TO.N,LED0*%
X225128000Y-148536000D03*
X216294000Y-144276000D03*
%TO.N,VDD_CAM*%
X180957000Y-148288000D03*
X209858000Y-143894000D03*
X210972000Y-143222000D03*
X195215000Y-143950000D03*
%TD*%
%TO.N,FSR_C11*%
D11*
X234056000Y-155879000D02*
X234056000Y-155547000D01*
X246860000Y-154343000D02*
X245162000Y-156041000D01*
X245162000Y-156041000D02*
X234218000Y-156041000D01*
X255342000Y-149472000D02*
X256979000Y-151109000D01*
X248171000Y-139271000D02*
X249678000Y-139271000D01*
X256979000Y-152169000D02*
X254806000Y-154343000D01*
X256979000Y-151109000D02*
X256979000Y-152169000D01*
X234056000Y-155547000D02*
X234430000Y-155173000D01*
X254806000Y-154343000D02*
X246860000Y-154343000D01*
X234218000Y-156041000D02*
X234056000Y-155879000D01*
X255342000Y-144935000D02*
X255342000Y-149472000D01*
X249678000Y-139271000D02*
X255342000Y-144935000D01*
%TO.N,VREF*%
X235259000Y-150937000D02*
X235259000Y-150788000D01*
X231040000Y-153552000D02*
X232644000Y-153552000D01*
X233690000Y-148677000D02*
X235032000Y-150019000D01*
X233690000Y-145200000D02*
X233690000Y-148677000D01*
X232644000Y-153552000D02*
X235259000Y-150937000D01*
%TO.N,I2C_SCL*%
X213000000Y-150058000D02*
X213402000Y-150460000D01*
X212598000Y-153178000D02*
X208484000Y-153178000D01*
X198868000Y-149634000D02*
X198868000Y-143036000D01*
X208484000Y-153178000D02*
X204581000Y-149275000D01*
X198657000Y-140991000D02*
X204020000Y-140991000D01*
X199246000Y-150012000D02*
X198868000Y-149634000D01*
X213402000Y-152374000D02*
X212598000Y-153178000D01*
X213402000Y-150460000D02*
X213402000Y-152374000D01*
X199352000Y-142552000D02*
X198416000Y-141616000D01*
X204020000Y-140991000D02*
X204581000Y-141553000D01*
X199352000Y-150012000D02*
X199246000Y-150012000D01*
X204581000Y-149275000D02*
X204581000Y-141553000D01*
X199352000Y-142552000D02*
X200020000Y-142552000D01*
X198868000Y-143036000D02*
X199352000Y-142552000D01*
X198416000Y-141616000D02*
X198416000Y-141232000D01*
X198416000Y-141232000D02*
X198657000Y-140991000D01*
%TO.N,VDD_3V3*%
D12*
X203859000Y-148415000D02*
X203859000Y-152339000D01*
X161179000Y-152526000D02*
X125046000Y-152526000D01*
X194141000Y-153597000D02*
X195400000Y-152337000D01*
X185552000Y-149200000D02*
X189837000Y-144914000D01*
X172491000Y-141214000D02*
X161179000Y-152526000D01*
X200969000Y-141394000D02*
X201575000Y-142000000D01*
X203764000Y-142000000D02*
X201575000Y-142000000D01*
X172491000Y-141040000D02*
X172491000Y-141214000D01*
X182819000Y-152473000D02*
X183942000Y-153597000D01*
X285382000Y-148622000D02*
X288259000Y-145744000D01*
X182903000Y-149200000D02*
X185552000Y-149200000D01*
X195466000Y-152404000D02*
X196820000Y-152404000D01*
X182819000Y-149284000D02*
X182903000Y-149200000D01*
X211933000Y-150120000D02*
X213051000Y-151237000D01*
X300695000Y-146134000D02*
X300695000Y-149735000D01*
X212044000Y-142024000D02*
X212329000Y-141739000D01*
X119514000Y-145912000D02*
X119866000Y-145560000D01*
X189837000Y-144914000D02*
X189837000Y-144681000D01*
X206992000Y-142024000D02*
X212044000Y-142024000D01*
X296940000Y-145744000D02*
X299233000Y-148037000D01*
X212044000Y-142754000D02*
X212044000Y-142024000D01*
X229057000Y-145232000D02*
X229057000Y-148817000D01*
X182819000Y-152473000D02*
X182846000Y-152446000D01*
X203772000Y-147259000D02*
X199479000Y-147259000D01*
X232674000Y-141159000D02*
X232930000Y-141415000D01*
X299233000Y-150680000D02*
X299233000Y-151342000D01*
X195400000Y-152337000D02*
X195400000Y-151629000D01*
X299233000Y-151342000D02*
X298127000Y-152447000D01*
X293838000Y-152447000D02*
X293801000Y-152410000D01*
X241226000Y-147172000D02*
X242724000Y-147172000D01*
X203772000Y-147259000D02*
X203772000Y-148327000D01*
X122256000Y-152526000D02*
X119595000Y-149865000D01*
X119595000Y-149865000D02*
X119319000Y-149865000D01*
X182846000Y-149310000D02*
X182819000Y-149284000D01*
X299233000Y-148037000D02*
X299233000Y-150680000D01*
X227914000Y-141159000D02*
X230176000Y-141159000D01*
X125046000Y-152526000D02*
X122256000Y-152526000D01*
X242724000Y-147172000D02*
X243270000Y-147718000D01*
X182809000Y-149273000D02*
X180724000Y-149273000D01*
X212329000Y-141739000D02*
X227914000Y-141739000D01*
X299750000Y-150680000D02*
X299233000Y-150680000D01*
X210077000Y-144609000D02*
X211933000Y-146465000D01*
X211933000Y-146465000D02*
X211933000Y-150120000D01*
X237524000Y-150874000D02*
X241226000Y-147172000D01*
X119514000Y-149670000D02*
X119514000Y-145912000D01*
X227914000Y-141739000D02*
X227914000Y-144088000D01*
X237524000Y-151238000D02*
X237524000Y-150874000D01*
X182819000Y-149284000D02*
X182809000Y-149273000D01*
X213051000Y-151237000D02*
X213051000Y-152227000D01*
X195400000Y-152337000D02*
X195466000Y-152404000D01*
X288259000Y-145744000D02*
X296940000Y-145744000D01*
X204150000Y-142386000D02*
X203764000Y-142000000D01*
X257065000Y-148622000D02*
X285382000Y-148622000D01*
X206759000Y-141791000D02*
X206992000Y-142024000D01*
X119319000Y-149865000D02*
X119514000Y-149670000D01*
X229057000Y-148817000D02*
X227224000Y-150650000D01*
X210189000Y-144609000D02*
X212044000Y-142754000D01*
X182846000Y-152446000D02*
X182846000Y-149310000D01*
X195400000Y-151629000D02*
X195401000Y-151627000D01*
X203772000Y-142765000D02*
X203772000Y-147259000D01*
X189536000Y-153597000D02*
X194141000Y-153597000D01*
X183942000Y-153597000D02*
X189536000Y-153597000D01*
X210077000Y-144609000D02*
X210189000Y-144609000D01*
X203859000Y-152339000D02*
X204066000Y-152546000D01*
X298127000Y-152447000D02*
X293838000Y-152447000D01*
X230176000Y-141159000D02*
X232674000Y-141159000D01*
X198772000Y-141394000D02*
X200969000Y-141394000D01*
X300695000Y-149735000D02*
X299750000Y-150680000D01*
X227952000Y-144126000D02*
X229057000Y-145232000D01*
X227914000Y-141159000D02*
X227914000Y-141739000D01*
X227914000Y-144088000D02*
X227952000Y-144126000D01*
X180724000Y-149273000D02*
X172491000Y-141040000D01*
X203772000Y-148327000D02*
X203859000Y-148415000D01*
X204150000Y-142386000D02*
X203772000Y-142765000D01*
%TO.N,FSR_C8*%
D11*
X232984000Y-155236000D02*
X228279000Y-155236000D01*
X244816000Y-141188000D02*
X243153000Y-141188000D01*
X236728000Y-151492000D02*
X232984000Y-155236000D01*
X236728000Y-147613000D02*
X236728000Y-151492000D01*
X228279000Y-155236000D02*
X227566000Y-154524000D01*
X251879000Y-148252000D02*
X251879000Y-149304000D01*
X245110000Y-141482000D02*
X244816000Y-141188000D01*
X243153000Y-141188000D02*
X236728000Y-147613000D01*
X245110000Y-141482000D02*
X251879000Y-148252000D01*
%TO.N,VQI*%
D12*
X216241000Y-143123000D02*
X215409000Y-143955000D01*
X219685000Y-151020000D02*
X215409000Y-146744000D01*
X223020000Y-151020000D02*
X219685000Y-151020000D01*
X215409000Y-143955000D02*
X215409000Y-146744000D01*
%TO.N,VSYS*%
D11*
X224341000Y-142542000D02*
X224142000Y-142542000D01*
X224142000Y-142542000D02*
X220217000Y-146467000D01*
X220217000Y-146757000D02*
X221035000Y-147575000D01*
X220217000Y-146467000D02*
X219218000Y-146467000D01*
X185042000Y-150833000D02*
X185042000Y-151263000D01*
X220217000Y-146467000D02*
X220217000Y-146757000D01*
X196646000Y-145259000D02*
X195971000Y-145934000D01*
X189941000Y-145934000D02*
X185042000Y-150833000D01*
X208578000Y-146648000D02*
X208629000Y-146700000D01*
X195971000Y-145934000D02*
X189941000Y-145934000D01*
X208578000Y-145234000D02*
X204863000Y-145234000D01*
X219218000Y-146467000D02*
X216664000Y-143913000D01*
X208578000Y-145234000D02*
X208578000Y-146648000D01*
X208578000Y-143651000D02*
X208578000Y-145234000D01*
%TO.N,FSR_C1*%
X233537000Y-153292000D02*
X233537000Y-153355000D01*
X235922000Y-146734000D02*
X235922000Y-150907000D01*
X233482000Y-153355000D02*
X232403000Y-154434000D01*
X232403000Y-154434000D02*
X231018000Y-154434000D01*
X235922000Y-150907000D02*
X233537000Y-153292000D01*
X231018000Y-154434000D02*
X230708000Y-154744000D01*
X233537000Y-153355000D02*
X233563000Y-153381000D01*
X241620000Y-141035000D02*
X235922000Y-146734000D01*
X233537000Y-153355000D02*
X233482000Y-153355000D01*
%TO.N,FSR_C5*%
X246144000Y-151290000D02*
X242629000Y-151290000D01*
X243878000Y-141470000D02*
X243878000Y-141635000D01*
X244902000Y-148695000D02*
X247044000Y-150838000D01*
X246774000Y-151405000D02*
X246259000Y-151405000D01*
X247044000Y-151134000D02*
X246774000Y-151405000D01*
X243824000Y-144620000D02*
X243622000Y-144822000D01*
X244902000Y-148565000D02*
X244902000Y-148695000D01*
X247044000Y-150838000D02*
X247044000Y-151134000D01*
X243790000Y-141723000D02*
X243790000Y-142025000D01*
X243824000Y-142059000D02*
X243824000Y-144620000D01*
X246259000Y-151405000D02*
X246144000Y-151290000D01*
X242629000Y-151290000D02*
X238619000Y-155300000D01*
X243878000Y-141635000D02*
X243790000Y-141723000D01*
X243622000Y-147285000D02*
X244902000Y-148565000D01*
X243790000Y-142025000D02*
X243824000Y-142059000D01*
X243622000Y-144822000D02*
X243622000Y-147285000D01*
%TO.N,FSR_C3*%
X246619000Y-151730000D02*
X246506000Y-151843000D01*
X244067000Y-141911000D02*
X244222000Y-142066000D01*
X244222000Y-147185000D02*
X247326000Y-150289000D01*
X244222000Y-142066000D02*
X244222000Y-147185000D01*
X246733000Y-151730000D02*
X246619000Y-151730000D01*
X246506000Y-151843000D02*
X242752000Y-151843000D01*
X247326000Y-150289000D02*
X247326000Y-151137000D01*
X238771000Y-155825000D02*
X234444000Y-155825000D01*
X234444000Y-155825000D02*
X234384000Y-155764000D01*
X242752000Y-151843000D02*
X238771000Y-155825000D01*
X247326000Y-151137000D02*
X246733000Y-151730000D01*
%TO.N,FSR_R1*%
X242755000Y-140446000D02*
X242819000Y-140381000D01*
X247785000Y-140446000D02*
X249011000Y-140446000D01*
X230103000Y-145890000D02*
X229940000Y-146052000D01*
X242819000Y-140381000D02*
X246793000Y-140381000D01*
X246837000Y-140337000D02*
X247677000Y-140337000D01*
X231658000Y-149870000D02*
X231658000Y-146062000D01*
X235532000Y-145946000D02*
X241032000Y-140446000D01*
X232899000Y-152628000D02*
X233283000Y-152628000D01*
X246793000Y-140381000D02*
X246837000Y-140337000D01*
X249592000Y-141027000D02*
X249664000Y-141027000D01*
X233543000Y-152367000D02*
X233543000Y-152040000D01*
X235471000Y-149053000D02*
X235471000Y-148986000D01*
X230900000Y-150628000D02*
X231658000Y-149870000D01*
X235518000Y-146373000D02*
X235532000Y-146360000D01*
X247677000Y-140337000D02*
X247785000Y-140446000D01*
X233283000Y-152628000D02*
X233543000Y-152367000D01*
X230900000Y-150628000D02*
X232899000Y-152628000D01*
X235379000Y-149892000D02*
X235379000Y-149144000D01*
X235471000Y-148986000D02*
X235494000Y-148962000D01*
X235309000Y-149962000D02*
X235379000Y-149892000D01*
X231486000Y-145890000D02*
X230103000Y-145890000D01*
X231658000Y-146062000D02*
X231486000Y-145890000D01*
X235494000Y-148962000D02*
X235494000Y-148689000D01*
X249011000Y-140446000D02*
X249592000Y-141027000D01*
X233543000Y-152040000D02*
X235309000Y-150274000D01*
X235309000Y-150274000D02*
X235309000Y-149962000D01*
X235379000Y-149144000D02*
X235471000Y-149053000D01*
X235532000Y-146360000D02*
X235532000Y-145946000D01*
X241032000Y-140446000D02*
X242755000Y-140446000D01*
X230900000Y-150628000D02*
X229578000Y-151950000D01*
X235518000Y-148665000D02*
X235518000Y-146373000D01*
X235494000Y-148689000D02*
X235518000Y-148665000D01*
%TO.N,ADC1*%
X228949000Y-152351000D02*
X227106000Y-154194000D01*
X193910000Y-146408000D02*
X190206000Y-146408000D01*
X201621000Y-154120000D02*
X193910000Y-146408000D01*
X231378000Y-148559000D02*
X229296000Y-150641000D01*
X229296000Y-150641000D02*
X229296000Y-152351000D01*
X189906000Y-146708000D02*
X189906000Y-147210000D01*
X202013000Y-154194000D02*
X201939000Y-154120000D01*
X189906000Y-147210000D02*
X190413000Y-147717000D01*
X201939000Y-154120000D02*
X201621000Y-154120000D01*
X231378000Y-146182000D02*
X231378000Y-148559000D01*
X190206000Y-146408000D02*
X189906000Y-146708000D01*
X229296000Y-152351000D02*
X228949000Y-152351000D01*
X227106000Y-154194000D02*
X202013000Y-154194000D01*
%TO.N,SWDCLK*%
X196828000Y-148634000D02*
X197616000Y-149422000D01*
X196095000Y-144250000D02*
X196257000Y-144412000D01*
X196095000Y-144135000D02*
X196095000Y-144250000D01*
X196923000Y-144942000D02*
X196923000Y-145374000D01*
X196849000Y-144868000D02*
X196923000Y-144942000D01*
X175838000Y-142960000D02*
X194920000Y-142960000D01*
X196849000Y-144756000D02*
X196849000Y-144868000D01*
X194920000Y-142960000D02*
X196095000Y-144135000D01*
X174880000Y-142003000D02*
X175838000Y-142960000D01*
X196257000Y-144412000D02*
X196506000Y-144412000D01*
X196506000Y-144412000D02*
X196849000Y-144756000D01*
X196923000Y-145374000D02*
X196828000Y-145468000D01*
X196828000Y-145468000D02*
X196828000Y-148634000D01*
%TO.N,SWDIO*%
X197656000Y-144534000D02*
X198029000Y-144907000D01*
X175432000Y-141990000D02*
X176543000Y-140880000D01*
X194363000Y-140880000D02*
X197656000Y-144173000D01*
X198029000Y-144907000D02*
X198029000Y-149531000D01*
X176543000Y-140880000D02*
X194363000Y-140880000D01*
X198029000Y-149531000D02*
X197877000Y-149683000D01*
X197656000Y-144173000D02*
X197656000Y-144534000D01*
%TO.N,VBAT*%
D12*
X214574000Y-143116000D02*
X214574000Y-146724000D01*
X214574000Y-146724000D02*
X215475000Y-147625000D01*
X215475000Y-151066000D02*
X216485000Y-152076000D01*
X215475000Y-147625000D02*
X215475000Y-151066000D01*
%TO.N,VDD_1V8*%
X123250000Y-150180000D02*
X122750000Y-150680000D01*
X209174000Y-143250000D02*
X209924000Y-142500000D01*
X255694000Y-147921000D02*
X255694000Y-143142000D01*
X297250000Y-150678000D02*
X296750000Y-150178000D01*
X121180000Y-150680000D02*
X120250000Y-149750000D01*
X208039000Y-139841000D02*
X235085000Y-139841000D01*
X209174000Y-143250000D02*
X209149000Y-143224000D01*
X296100000Y-151827000D02*
X297250000Y-150678000D01*
X209947000Y-145663000D02*
X209947000Y-152282000D01*
X209174000Y-144890000D02*
X209174000Y-143250000D01*
X169012000Y-140471000D02*
X167170000Y-142314000D01*
X167170000Y-142314000D02*
X131597000Y-142314000D01*
X123250000Y-149750000D02*
X123250000Y-150180000D01*
X123250000Y-146250000D02*
X123250000Y-149750000D01*
X207508000Y-143224000D02*
X206082000Y-141798000D01*
X122750000Y-145319000D02*
X123250000Y-145819000D01*
X209947000Y-152282000D02*
X210021000Y-152356000D01*
X123250000Y-145819000D02*
X123250000Y-146250000D01*
X256851000Y-149078000D02*
X255694000Y-147921000D01*
X255694000Y-143142000D02*
X252608000Y-140056000D01*
X294943000Y-146250000D02*
X294853000Y-146340000D01*
X294853000Y-146340000D02*
X292115000Y-149078000D01*
X122750000Y-152029000D02*
X122705000Y-152074000D01*
X206082000Y-141798000D02*
X204756000Y-140471000D01*
X296750000Y-149750000D02*
X296750000Y-146250000D01*
X296750000Y-146250000D02*
X294943000Y-146250000D01*
X128091000Y-145819000D02*
X123250000Y-145819000D01*
X209149000Y-143224000D02*
X207508000Y-143224000D01*
X122750000Y-150680000D02*
X121180000Y-150680000D01*
X296750000Y-150178000D02*
X296750000Y-149750000D01*
X209174000Y-144890000D02*
X209947000Y-145663000D01*
X297947000Y-151988000D02*
X296107000Y-151988000D01*
X206082000Y-141798000D02*
X208039000Y-139841000D01*
X296100000Y-151995000D02*
X296100000Y-151827000D01*
X131597000Y-142314000D02*
X128091000Y-145819000D01*
X204756000Y-140471000D02*
X169012000Y-140471000D01*
X122750000Y-150680000D02*
X122750000Y-152029000D01*
X292115000Y-149078000D02*
X256851000Y-149078000D01*
X296107000Y-151988000D02*
X296100000Y-151995000D01*
%TO.N,X24R_2*%
D11*
X300986000Y-142516000D02*
X298891000Y-144611000D01*
X298891000Y-144611000D02*
X298891000Y-146173000D01*
%TO.N,FSR_R3*%
X234941000Y-146068000D02*
X234941000Y-149272000D01*
X249745000Y-140136000D02*
X250650000Y-141041000D01*
X234941000Y-149272000D02*
X235035000Y-149366000D01*
X234958000Y-146050000D02*
X240873000Y-140136000D01*
X234958000Y-146050000D02*
X234941000Y-146068000D01*
X240873000Y-140136000D02*
X249745000Y-140136000D01*
%TO.N,ADC3*%
X236932000Y-148360000D02*
X236932000Y-151615000D01*
X202865000Y-155438000D02*
X201824000Y-154396000D01*
X233109000Y-155438000D02*
X202865000Y-155438000D01*
X237012000Y-148280000D02*
X236932000Y-148360000D01*
X236932000Y-151615000D02*
X233109000Y-155438000D01*
X200796000Y-155292000D02*
X195604000Y-150100000D01*
X189918000Y-149566000D02*
X189918000Y-149061000D01*
X195604000Y-150100000D02*
X190452000Y-150100000D01*
X190452000Y-150100000D02*
X189918000Y-149566000D01*
%TO.N,FSR_R0*%
X226096000Y-149456000D02*
X226096000Y-147422000D01*
X227052000Y-151012000D02*
X226096000Y-150056000D01*
X249048000Y-138984000D02*
X236616000Y-138984000D01*
X229426000Y-146174000D02*
X229426000Y-148987000D01*
X226096000Y-147422000D02*
X227472000Y-146046000D01*
X227401000Y-151012000D02*
X227052000Y-151012000D01*
X236616000Y-138984000D02*
X229426000Y-146174000D01*
X229426000Y-148987000D02*
X227401000Y-151012000D01*
X226096000Y-150056000D02*
X226096000Y-149456000D01*
%TO.N,ADC0*%
X228257000Y-146384000D02*
X228589000Y-146052000D01*
X202095000Y-153991000D02*
X202022000Y-153918000D01*
X227373000Y-147268000D02*
X228257000Y-146384000D01*
X201705000Y-153918000D02*
X193993000Y-146206000D01*
X202022000Y-153918000D02*
X201705000Y-153918000D01*
X225555000Y-147552000D02*
X225555000Y-149916000D01*
X190120000Y-146206000D02*
X189703000Y-146624000D01*
X227373000Y-148575000D02*
X227373000Y-147268000D01*
X227638000Y-145765000D02*
X227342000Y-145765000D01*
X221480000Y-153991000D02*
X202095000Y-153991000D01*
X228257000Y-146384000D02*
X227638000Y-145765000D01*
X225555000Y-149916000D02*
X221480000Y-153991000D01*
X189703000Y-146624000D02*
X189703000Y-147400000D01*
X227342000Y-145765000D02*
X225555000Y-147552000D01*
X193993000Y-146206000D02*
X190120000Y-146206000D01*
%TO.N,FSR_R2*%
X250795000Y-141326000D02*
X250946000Y-141175000D01*
X250439000Y-141326000D02*
X250795000Y-141326000D01*
X233094000Y-147519000D02*
X233027000Y-147451000D01*
X250946000Y-141175000D02*
X250946000Y-140873000D01*
X233027000Y-145465000D02*
X233027000Y-147451000D01*
X238558000Y-139934000D02*
X233027000Y-145465000D01*
X250007000Y-139934000D02*
X238558000Y-139934000D01*
X250150000Y-141038000D02*
X250439000Y-141326000D01*
X250946000Y-140873000D02*
X250007000Y-139934000D01*
X233094000Y-151870000D02*
X233094000Y-147519000D01*
%TO.N,ADC2*%
X229758000Y-152350000D02*
X232227000Y-152350000D01*
X202635000Y-154816000D02*
X226870000Y-154816000D01*
X233102000Y-152350000D02*
X232750000Y-151998000D01*
X226870000Y-154816000D02*
X227491000Y-154194000D01*
X201834000Y-155368000D02*
X194741000Y-148275000D01*
X227491000Y-154194000D02*
X227914000Y-154194000D01*
X227914000Y-154194000D02*
X229758000Y-152350000D01*
X232750000Y-151998000D02*
X232750000Y-146901000D01*
X194741000Y-148275000D02*
X190418000Y-148275000D01*
%TO.N,FSR_C14*%
X247376000Y-152862000D02*
X254039000Y-152862000D01*
X254039000Y-152862000D02*
X254174000Y-152728000D01*
X254174000Y-152728000D02*
X254706000Y-152195000D01*
X254621000Y-153175000D02*
X254174000Y-152728000D01*
X244174000Y-152737000D02*
X247250000Y-152737000D01*
X244038000Y-152874000D02*
X244174000Y-152737000D01*
X254706000Y-152195000D02*
X254706000Y-147368000D01*
X254706000Y-147368000D02*
X248366000Y-141028000D01*
X247250000Y-152737000D02*
X247376000Y-152862000D01*
%TO.N,FSR_R5*%
X239339000Y-147378000D02*
X239339000Y-148454000D01*
X237140000Y-150653000D02*
X237140000Y-152558000D01*
X243334000Y-143383000D02*
X239339000Y-147378000D01*
X243334000Y-142539000D02*
X243334000Y-143383000D01*
X237140000Y-152558000D02*
X237212000Y-152630000D01*
X239339000Y-148454000D02*
X237140000Y-150653000D01*
%TO.N,ADC5*%
X202189000Y-153515000D02*
X202179000Y-153515000D01*
X221190000Y-153587000D02*
X202262000Y-153587000D01*
X198465000Y-149801000D02*
X198465000Y-144447000D01*
X241363000Y-149095000D02*
X237204000Y-153254000D01*
X202179000Y-153515000D02*
X198465000Y-149801000D01*
X221890000Y-152888000D02*
X221190000Y-153587000D01*
X198465000Y-144447000D02*
X197481000Y-143463000D01*
X197481000Y-143463000D02*
X197353000Y-143463000D01*
X241363000Y-147650000D02*
X241363000Y-149095000D01*
X202262000Y-153587000D02*
X202189000Y-153515000D01*
%TO.N,DECA*%
X193098000Y-143592000D02*
X189404000Y-143592000D01*
X187510000Y-145486000D02*
X187510000Y-145700000D01*
X189404000Y-143592000D02*
X187510000Y-145486000D01*
X193922000Y-144417000D02*
X193098000Y-143592000D01*
%TO.N,ANT_FEED*%
X168011000Y-150004000D02*
X171715000Y-146300000D01*
X168011000Y-152282000D02*
X168011000Y-150004000D01*
%TO.N,FSR_SINK*%
X243946000Y-147306000D02*
X245185000Y-148546000D01*
X243946000Y-144890000D02*
X243946000Y-147306000D01*
%TO.N,FSR_C13*%
X247171000Y-141144000D02*
X247343000Y-141144000D01*
X243892000Y-155134000D02*
X239992000Y-155134000D01*
X246933000Y-141382000D02*
X247171000Y-141144000D01*
X244329000Y-153927000D02*
X244329000Y-154697000D01*
X244329000Y-154697000D02*
X243892000Y-155134000D01*
X246933000Y-141600000D02*
X246933000Y-141382000D01*
X247650000Y-141451000D02*
X247650000Y-141563000D01*
X252167000Y-152309000D02*
X252167000Y-146834000D01*
X247149000Y-152536000D02*
X243980000Y-152536000D01*
X243980000Y-152536000D02*
X243709000Y-152807000D01*
X253767000Y-152309000D02*
X253983000Y-152525000D01*
X252167000Y-146834000D02*
X246933000Y-141600000D01*
X252167000Y-152309000D02*
X253767000Y-152309000D01*
X243709000Y-153307000D02*
X244329000Y-153927000D01*
X252167000Y-152309000D02*
X247376000Y-152309000D01*
X247343000Y-141144000D02*
X247650000Y-141451000D01*
X247376000Y-152309000D02*
X247149000Y-152536000D01*
X243709000Y-152807000D02*
X243709000Y-153307000D01*
%TO.N,NTC*%
X220995000Y-148025000D02*
X220218000Y-148025000D01*
X224103000Y-144917000D02*
X220995000Y-148025000D01*
X224103000Y-142972000D02*
X224103000Y-144917000D01*
%TO.N,X24L_1*%
X119648000Y-150806000D02*
X119469000Y-150806000D01*
X118884000Y-146248000D02*
X118884000Y-144583000D01*
X118730000Y-146402000D02*
X118884000Y-146248000D01*
X118730000Y-150067000D02*
X118730000Y-146402000D01*
X119469000Y-150806000D02*
X118730000Y-150067000D01*
X118884000Y-144583000D02*
X120899000Y-142568000D01*
%TO.N,IR_LED_EN*%
X194845000Y-143189000D02*
X195893000Y-144237000D01*
X196440000Y-144879000D02*
X196535000Y-144879000D01*
X195893000Y-144333000D02*
X196440000Y-144879000D01*
X183250000Y-143189000D02*
X194845000Y-143189000D01*
X195893000Y-144237000D02*
X195893000Y-144333000D01*
X182389000Y-144050000D02*
X183250000Y-143189000D01*
%TO.N,X24R_1*%
X291754000Y-142916000D02*
X294936000Y-142916000D01*
X299025000Y-146475000D02*
X300005000Y-145495000D01*
X298495000Y-146475000D02*
X299025000Y-146475000D01*
X294936000Y-142916000D02*
X298495000Y-146475000D01*
X291492000Y-143179000D02*
X291754000Y-142916000D01*
%TO.N,I2C_SDA*%
X203424000Y-150690000D02*
X199746000Y-150690000D01*
X198667000Y-149717000D02*
X198667000Y-142308000D01*
X199734000Y-150678000D02*
X199628000Y-150678000D01*
X198667000Y-142308000D02*
X197925000Y-141565000D01*
X199746000Y-150690000D02*
X199734000Y-150678000D01*
X199628000Y-150678000D02*
X198667000Y-149717000D01*
%TO.N,FSR_C2*%
X233465000Y-153657000D02*
X232365000Y-154758000D01*
X232365000Y-154758000D02*
X231999000Y-154758000D01*
X235020000Y-152228000D02*
X235020000Y-152314000D01*
X233677000Y-153657000D02*
X233465000Y-153657000D01*
X235020000Y-152314000D02*
X233677000Y-153657000D01*
X242150000Y-141038000D02*
X236123000Y-147065000D01*
X236123000Y-147065000D02*
X236123000Y-151125000D01*
X236123000Y-151125000D02*
X235020000Y-152228000D01*
%TO.N,FSR_C7*%
X247730000Y-149407000D02*
X247612000Y-149289000D01*
X244648000Y-146326000D02*
X244648000Y-141465000D01*
X246700000Y-152334000D02*
X247730000Y-151304000D01*
X243897000Y-152334000D02*
X246700000Y-152334000D01*
X243507000Y-154067000D02*
X243507000Y-152724000D01*
X244020000Y-154580000D02*
X243507000Y-154067000D01*
X247612000Y-149289000D02*
X244648000Y-146326000D01*
X247730000Y-151304000D02*
X247730000Y-149407000D01*
X243507000Y-152724000D02*
X243897000Y-152334000D01*
%TO.N,FSR_C6*%
X247453000Y-149871000D02*
X244424000Y-146842000D01*
X247528000Y-149946000D02*
X247453000Y-149871000D01*
X247528000Y-151221000D02*
X247528000Y-149946000D01*
X242560000Y-154580000D02*
X242560000Y-153386000D01*
X244424000Y-146842000D02*
X244424000Y-141637000D01*
X243900000Y-152045000D02*
X246704000Y-152045000D01*
X242560000Y-153386000D02*
X243900000Y-152045000D01*
X244424000Y-141637000D02*
X244256000Y-141470000D01*
X246704000Y-152045000D02*
X247528000Y-151221000D01*
%TO.N,FSR_C4*%
X241868000Y-151088000D02*
X237610000Y-155346000D01*
X243589000Y-142109000D02*
X243622000Y-142142000D01*
X243622000Y-147571000D02*
X243622000Y-151088000D01*
X243622000Y-142142000D02*
X243622000Y-144521000D01*
X246653000Y-151128000D02*
X246613000Y-151088000D01*
X246613000Y-151088000D02*
X243622000Y-151088000D01*
X243622000Y-144521000D02*
X243420000Y-144723000D01*
X243589000Y-141539000D02*
X243589000Y-142109000D01*
X243420000Y-147369000D02*
X243622000Y-147571000D01*
X243519000Y-141470000D02*
X243589000Y-141539000D01*
X243622000Y-151088000D02*
X241868000Y-151088000D01*
X243420000Y-144723000D02*
X243420000Y-147369000D01*
%TO.N,FSR_C0*%
X247594000Y-140539000D02*
X247709000Y-140654000D01*
X254744000Y-154119000D02*
X250466000Y-154119000D01*
X240865000Y-141312000D02*
X235720000Y-146457000D01*
X255140000Y-153723000D02*
X254744000Y-154119000D01*
X241237000Y-140654000D02*
X242832000Y-140654000D01*
X250466000Y-154119000D02*
X249983000Y-153636000D01*
X232315000Y-154229000D02*
X228825000Y-154229000D01*
X248901000Y-140654000D02*
X255140000Y-146894000D01*
X246876000Y-140583000D02*
X246920000Y-140539000D01*
X242903000Y-140583000D02*
X246876000Y-140583000D01*
X235720000Y-150824000D02*
X232315000Y-154229000D01*
X247709000Y-140654000D02*
X248901000Y-140654000D01*
X246920000Y-140539000D02*
X247594000Y-140539000D01*
X235720000Y-146457000D02*
X235720000Y-150824000D01*
X242832000Y-140654000D02*
X242903000Y-140583000D01*
X228825000Y-154229000D02*
X228405000Y-154649000D01*
X240865000Y-141027000D02*
X240865000Y-141312000D01*
X255140000Y-146894000D02*
X255140000Y-153723000D01*
X240865000Y-141027000D02*
X241237000Y-140654000D01*
%TO.N,MUX_S0*%
X247338000Y-154544000D02*
X247799000Y-154544000D01*
X246514000Y-156444000D02*
X203302000Y-156444000D01*
X247971000Y-154988000D02*
X246514000Y-156444000D01*
X201949000Y-155092000D02*
X201843000Y-155092000D01*
X203302000Y-156444000D02*
X201949000Y-155092000D01*
X190343000Y-146685000D02*
X190415000Y-146685000D01*
X247799000Y-154544000D02*
X247971000Y-154716000D01*
X190132000Y-147138000D02*
X190132000Y-146896000D01*
X201843000Y-155092000D02*
X194065000Y-147313000D01*
X247010000Y-154871000D02*
X247338000Y-154544000D01*
X190132000Y-146896000D02*
X190343000Y-146685000D01*
X247971000Y-154716000D02*
X247971000Y-154988000D01*
X194065000Y-147313000D02*
X190307000Y-147313000D01*
X190307000Y-147313000D02*
X190132000Y-147138000D01*
%TO.N,MUX_S1*%
X203385000Y-156243000D02*
X202032000Y-154890000D01*
X246262000Y-156243000D02*
X203385000Y-156243000D01*
X201926000Y-154890000D02*
X194073000Y-147036000D01*
X194073000Y-147036000D02*
X190421000Y-147036000D01*
X247665000Y-154840000D02*
X246262000Y-156243000D01*
X202032000Y-154890000D02*
X201926000Y-154890000D01*
%TO.N,MUX_S3*%
X201356000Y-155460000D02*
X195552000Y-149657000D01*
X202637000Y-156848000D02*
X201356000Y-155566000D01*
X201356000Y-155566000D02*
X201356000Y-155460000D01*
X195552000Y-149657000D02*
X190416000Y-149657000D01*
X254860000Y-156848000D02*
X202637000Y-156848000D01*
X255494000Y-156214000D02*
X254860000Y-156848000D01*
%TO.N,MUX_S2*%
X195181000Y-149000000D02*
X190416000Y-149000000D01*
X202721000Y-156646000D02*
X201557000Y-155483000D01*
X201557000Y-155483000D02*
X201557000Y-155377000D01*
X254423000Y-154840000D02*
X252618000Y-156646000D01*
X252618000Y-156646000D02*
X202721000Y-156646000D01*
X256928000Y-154840000D02*
X254423000Y-154840000D01*
X201557000Y-155377000D02*
X195181000Y-149000000D01*
%TO.N,FSR_C15*%
X254938000Y-147108000D02*
X254938000Y-153507000D01*
X245377000Y-153064000D02*
X245327000Y-153014000D01*
X253860000Y-153064000D02*
X245377000Y-153064000D01*
X254621000Y-153825000D02*
X253860000Y-153064000D01*
X248858000Y-141028000D02*
X254938000Y-147108000D01*
X254938000Y-153507000D02*
X254621000Y-153825000D01*
%TO.N,FSR_C12*%
X237446000Y-155623000D02*
X236691000Y-154867000D01*
X247269000Y-141650000D02*
X247269000Y-141464000D01*
X254430000Y-151875000D02*
X252369000Y-149814000D01*
X242744000Y-151567000D02*
X238688000Y-155623000D01*
X246029000Y-151567000D02*
X242744000Y-151567000D01*
X252369000Y-146750000D02*
X247269000Y-141650000D01*
X236691000Y-154867000D02*
X236691000Y-154774000D01*
X238688000Y-155623000D02*
X237446000Y-155623000D01*
X252369000Y-149814000D02*
X252369000Y-146750000D01*
%TO.N,FSR_C10*%
X236325000Y-147446000D02*
X236325000Y-151315000D01*
X246150000Y-141051000D02*
X245884000Y-140785000D01*
X242986000Y-140785000D02*
X236325000Y-147446000D01*
X245884000Y-140785000D02*
X242986000Y-140785000D01*
X247510000Y-140741000D02*
X247004000Y-140741000D01*
X246150000Y-141051000D02*
X246150000Y-141124000D01*
X254505000Y-150713000D02*
X254505000Y-147736000D01*
X233179000Y-154461000D02*
X233065000Y-154461000D01*
X254430000Y-150788000D02*
X254505000Y-150713000D01*
X254505000Y-147736000D02*
X247510000Y-140741000D01*
X236325000Y-151315000D02*
X233179000Y-154461000D01*
X247004000Y-140741000D02*
X246694000Y-141051000D01*
X246694000Y-141051000D02*
X246150000Y-141051000D01*
%TO.N,FSR_C9*%
X236527000Y-151400000D02*
X232893000Y-155034000D01*
X228399000Y-155034000D02*
X228119000Y-154754000D01*
X232893000Y-155034000D02*
X228399000Y-155034000D01*
X245513000Y-140986000D02*
X243070000Y-140986000D01*
X228119000Y-154544000D02*
X228710000Y-153952000D01*
X247087000Y-140942000D02*
X246627000Y-141402000D01*
X228710000Y-153952000D02*
X230795000Y-153952000D01*
X247426000Y-140942000D02*
X247087000Y-140942000D01*
X236527000Y-147530000D02*
X236527000Y-151400000D01*
X245929000Y-141402000D02*
X245715000Y-141188000D01*
X245715000Y-141188000D02*
X245513000Y-140986000D01*
X243070000Y-140986000D02*
X236527000Y-147530000D01*
X254228000Y-147744000D02*
X247426000Y-140942000D01*
X228119000Y-154754000D02*
X228119000Y-154544000D01*
X254228000Y-149865000D02*
X254228000Y-147744000D01*
X246627000Y-141402000D02*
X245929000Y-141402000D01*
%TO.N,XTAL32K_2*%
X190202000Y-144548000D02*
X190202000Y-145211000D01*
X189662000Y-144071000D02*
X189725000Y-144071000D01*
X189725000Y-144071000D02*
X190202000Y-144548000D01*
X190202000Y-145211000D02*
X190147000Y-145266000D01*
%TO.N,HALL_OUT*%
X189878000Y-148706000D02*
X187560000Y-148706000D01*
X187560000Y-148706000D02*
X185353000Y-150913000D01*
%TO.N,X24L_2*%
X121063000Y-149937000D02*
X121377000Y-149623000D01*
X121377000Y-149623000D02*
X121377000Y-142066000D01*
X128510000Y-142066000D02*
X121377000Y-142066000D01*
X121294000Y-141982000D02*
X118003000Y-141982000D01*
X118003000Y-141982000D02*
X117927000Y-142058000D01*
X121377000Y-142066000D02*
X121294000Y-141982000D01*
%TO.N,VBUSOUT*%
X215847000Y-144328000D02*
X215847000Y-146200000D01*
X218006000Y-142170000D02*
X215847000Y-144328000D01*
%TO.N,SW1*%
D12*
X209063000Y-152401000D02*
X208650000Y-152814000D01*
X209063000Y-146134000D02*
X209063000Y-152401000D01*
%TO.N,ADC4*%
D11*
X221396000Y-153789000D02*
X202178000Y-153789000D01*
X225278000Y-149000000D02*
X225278000Y-149907000D01*
X202178000Y-153789000D02*
X202106000Y-153716000D01*
X198263000Y-149884000D02*
X198263000Y-144750000D01*
X198263000Y-144750000D02*
X197933000Y-144420000D01*
X202106000Y-153716000D02*
X202095000Y-153716000D01*
X202095000Y-153716000D02*
X198263000Y-149884000D01*
X225278000Y-149907000D02*
X221396000Y-153789000D01*
%TO.N,FSR_R4*%
X242607000Y-142187000D02*
X243312000Y-142187000D01*
X237586000Y-147208000D02*
X237586000Y-149676000D01*
X237586000Y-149676000D02*
X237212000Y-150050000D01*
X237586000Y-147208000D02*
X242607000Y-142187000D01*
%TO.N,SPI_SCK*%
X118607000Y-146134000D02*
X118484000Y-146257000D01*
X118484000Y-146257000D02*
X118484000Y-150189000D01*
X118484000Y-150189000D02*
X121438000Y-153142000D01*
X175715000Y-149700000D02*
X175068000Y-149053000D01*
X182419000Y-149700000D02*
X175715000Y-149700000D01*
X179735000Y-153142000D02*
X182384000Y-150493000D01*
X121438000Y-153142000D02*
X179735000Y-153142000D01*
X175068000Y-149053000D02*
X174704000Y-149053000D01*
X174704000Y-149053000D02*
X174400000Y-149356000D01*
%TO.N,SPI_MOSI*%
X119412000Y-150463000D02*
X118960000Y-150012000D01*
X171344000Y-152878000D02*
X122110000Y-152878000D01*
X122110000Y-152878000D02*
X119696000Y-150463000D01*
X118960000Y-150012000D02*
X118960000Y-148692000D01*
X119696000Y-150463000D02*
X119412000Y-150463000D01*
X118960000Y-148692000D02*
X119087000Y-148565000D01*
X174849000Y-149373000D02*
X171344000Y-152878000D01*
X175568000Y-150091000D02*
X174849000Y-149373000D01*
X182384000Y-150091000D02*
X175568000Y-150091000D01*
%TO.N,CS_RADAR_L*%
X120825000Y-142249000D02*
X118283000Y-144791000D01*
X118283000Y-150343000D02*
X121722000Y-153783000D01*
X121175000Y-145325000D02*
X121175000Y-142433000D01*
X120250000Y-146250000D02*
X121175000Y-145325000D01*
X121175000Y-142433000D02*
X120991000Y-142249000D01*
X118283000Y-144791000D02*
X118283000Y-150343000D01*
X121722000Y-153783000D02*
X183510000Y-153783000D01*
X120991000Y-142249000D02*
X120825000Y-142249000D01*
%TO.N,SPI_MISO*%
X127368000Y-150877000D02*
X123682000Y-147190000D01*
X186242000Y-151572000D02*
X192430000Y-151572000D01*
X162288000Y-150813000D02*
X162224000Y-150877000D01*
X162224000Y-150877000D02*
X127368000Y-150877000D01*
X185897000Y-151917000D02*
X186242000Y-151572000D01*
%TO.N,CS_CAM*%
X185786000Y-152196000D02*
X192797000Y-152196000D01*
X185601000Y-151816000D02*
X185601000Y-152012000D01*
X185407000Y-151622000D02*
X185601000Y-151816000D01*
X192797000Y-152196000D02*
X193400000Y-151594000D01*
X185601000Y-152012000D02*
X185786000Y-152196000D01*
%TO.N,IMU_INT1*%
X199090000Y-146508000D02*
X199090000Y-149440000D01*
X202820000Y-142778000D02*
X199090000Y-146508000D01*
X199090000Y-149440000D02*
X199151000Y-149502000D01*
%TO.N,NRESET*%
X223422000Y-149477000D02*
X223422000Y-151160000D01*
X221970000Y-152612000D02*
X221741000Y-152612000D01*
X204358000Y-149412000D02*
X204358000Y-148310000D01*
X220971000Y-153382000D02*
X208328000Y-153382000D01*
X222860000Y-148915000D02*
X223422000Y-149477000D01*
X208328000Y-153382000D02*
X204358000Y-149412000D01*
X223422000Y-151160000D02*
X221970000Y-152612000D01*
X204358000Y-148310000D02*
X204198000Y-148150000D01*
X221741000Y-152612000D02*
X220971000Y-153382000D01*
%TO.N,DECRF*%
X195312000Y-142684000D02*
X191499000Y-142684000D01*
X197584000Y-147327000D02*
X197030000Y-146773000D01*
X197051000Y-144785000D02*
X197051000Y-144423000D01*
X197030000Y-145552000D02*
X197125000Y-145457000D01*
X197125000Y-144858000D02*
X197051000Y-144785000D01*
X197030000Y-146773000D02*
X197030000Y-145552000D01*
X197051000Y-144423000D02*
X195312000Y-142684000D01*
X197125000Y-145457000D02*
X197125000Y-144858000D01*
%TO.N,XTAL32M_1*%
X197231000Y-145636000D02*
X197326000Y-145540000D01*
X197253000Y-144340000D02*
X195320000Y-142407000D01*
X195320000Y-142407000D02*
X184632000Y-142407000D01*
X197231000Y-146522000D02*
X197231000Y-145636000D01*
X184632000Y-142407000D02*
X184629000Y-142411000D01*
X197326000Y-144775000D02*
X197253000Y-144701000D01*
X197326000Y-145540000D02*
X197326000Y-144775000D01*
X197253000Y-144701000D02*
X197253000Y-144340000D01*
X197583000Y-146874000D02*
X197231000Y-146522000D01*
%TO.N,XTAL32M_2*%
X194357000Y-141159000D02*
X186045000Y-141159000D01*
X197454000Y-144618000D02*
X197454000Y-144256000D01*
X197454000Y-144256000D02*
X194357000Y-141159000D01*
X197584000Y-146107000D02*
X197584000Y-144747000D01*
X197584000Y-144747000D02*
X197454000Y-144618000D01*
%TO.N,DECD*%
X189518000Y-143794000D02*
X192280000Y-143794000D01*
X188519000Y-144793000D02*
X189518000Y-143794000D01*
X188519000Y-145629000D02*
X188519000Y-144793000D01*
X187155000Y-146993000D02*
X188519000Y-145629000D01*
X192280000Y-143794000D02*
X192906000Y-144420000D01*
%TO.N,DCC*%
X184746000Y-150782000D02*
X184746000Y-151358000D01*
X186098000Y-152794000D02*
X187769000Y-152794000D01*
X185399000Y-152095000D02*
X186098000Y-152794000D01*
X185399000Y-152011000D02*
X185399000Y-152095000D01*
X189985000Y-145543000D02*
X184746000Y-150782000D01*
X191160000Y-145543000D02*
X189985000Y-145543000D01*
X184746000Y-151358000D02*
X185399000Y-152011000D01*
X192341000Y-144362000D02*
X191160000Y-145543000D01*
%TO.N,SW2*%
D12*
X211639000Y-151397000D02*
X211639000Y-152361000D01*
X208522000Y-147290000D02*
X208612000Y-147200000D01*
X208522000Y-149865000D02*
X208522000Y-147290000D01*
X210399000Y-150156000D02*
X211639000Y-151397000D01*
%TO.N,IR_LED_K*%
D11*
X180678000Y-147096000D02*
X180678000Y-148613000D01*
X182757000Y-145017000D02*
X180678000Y-147096000D01*
%TO.N,LED0*%
X225128000Y-148536000D02*
X220338000Y-148536000D01*
X216294000Y-144492000D02*
X216294000Y-144276000D01*
X220338000Y-148536000D02*
X216294000Y-144492000D01*
%TO.N,VDD_CAM*%
X194655000Y-143391000D02*
X195215000Y-143950000D01*
X180957000Y-148288000D02*
X185854000Y-143391000D01*
X210530000Y-143222000D02*
X209858000Y-143894000D01*
X210972000Y-143222000D02*
X210530000Y-143222000D01*
X185854000Y-143391000D02*
X194655000Y-143391000D01*
%TD*%
M02*
