M48
; DRILL file KiCad 10.0.4 date 2026-08-30T17:52:46
; FORMAT={-:-/ absolute / metric / decimal}
; #@! TF.CreationDate,2026-08-30T17:52:46+02:00
; #@! TF.GenerationSoftware,Kicad,Pcbnew,10.0.4
; #@! TF.FileFunction,Plated,1,4,PTH
FMAT,2
METRIC
; #@! TA.AperFunction,Plated,PTH,ViaDrill
T1C0.150
; #@! TA.AperFunction,Plated,PTH,ViaDrill
T2C0.200
; #@! TA.AperFunction,Plated,PTH,ViaDrill
T3C0.250
%
G90
G05
T1
X173.92Y-139.807
X175.654Y-140.567
X175.888Y-154.1
X175.892Y-155.462
X176.529Y-140.556
X178.104Y-153.804
X180.442Y-154.173
X182.934Y-154.542
X185.338Y-147.252
X185.581Y-144.926
X185.883Y-147.8
X187.905Y-148.752
X187.937Y-149.225
X188.359Y-148.2
X188.372Y-148.736
X189.303Y-144.895
X189.357Y-151.278
X189.4Y-150.6
X189.936Y-144.356
X190.387Y-144.34
X190.436Y-152.156
X191.139Y-143.926
X191.197Y-143.388
X191.199Y-144.378
X191.4Y-152.15
X191.8Y-144.363
X192.02Y-151.742
X192.28Y-143.919
X192.602Y-144.371
X192.745Y-151.651
X192.819Y-143.388
X192.874Y-152.149
X193.219Y-151.84
X193.248Y-143.902
X193.297Y-144.366
X193.513Y-152.469
X193.768Y-144.368
X193.8Y-151.832
X194.684Y-144.81
X194.702Y-151.623
X195.438Y-145.036
X195.627Y-146.91
X195.635Y-150.092
X195.666Y-147.8
X195.722Y-150.544
X195.738Y-152.567
X195.948Y-149.766
X196.069Y-146.606
X196.292Y-147.845
X196.415Y-146.9
X196.801Y-149.691
X198.089Y-146.9
X199.994Y-149.688
X200.316Y-150.745
X201.463Y-146.9
X201.492Y-140.086
X201.975Y-140.364
X202.07Y-144.834
X202.75Y-140.368
X202.951Y-141.581
X204.215Y-140.53
X204.828Y-139.706
X205.14Y-138.442
X207.423Y-149.679
X208.6Y-142.125
X210.115Y-142.336
X211.415Y-141.154
X215.799Y-148.836
X217.931Y-150.487
X218.522Y-145.591
X226.978Y-139.065
X230.73Y-141.414
X235.053Y-141.824
X235.482Y-141.412
X235.95Y-141.448
X236.744Y-141.905
X237.405Y-141.911
X237.624Y-141.078
X238.159Y-141.117
X238.446Y-139.214
X239.33Y-139.218
X239.49Y-141.09
X240.398Y-139.214
X241.031Y-139.206
X241.644Y-139.212
X241.795Y-141.083
X242.494Y-141.077
X243.25Y-139.22
X244.207Y-139.209
X244.379Y-142.461
X244.77Y-141.083
X245.295Y-141.083
T2
X116.0Y-140.4
X116.0Y-155.6
X120.0Y-140.4
X120.0Y-155.6
X124.0Y-140.4
X124.0Y-155.6
X128.0Y-140.4
X128.0Y-155.6
X134.0Y-145.4
X134.0Y-150.6
X137.0Y-145.4
X137.0Y-150.6
X140.0Y-145.4
X140.0Y-150.6
X143.0Y-145.4
X143.0Y-150.6
X146.0Y-145.4
X146.0Y-150.6
X149.0Y-145.4
X149.0Y-150.6
X152.0Y-145.4
X152.0Y-150.6
X155.0Y-145.4
X155.0Y-150.6
X158.0Y-145.4
X158.0Y-150.6
X161.0Y-145.4
X161.0Y-150.6
X164.0Y-138.7
X164.0Y-157.3
X168.0Y-138.7
X168.0Y-157.3
X172.0Y-157.3
X176.0Y-157.3
X180.0Y-157.3
X184.0Y-138.7
X184.0Y-157.3
X188.0Y-138.7
X188.0Y-157.3
X192.0Y-138.7
X192.0Y-157.3
X196.0Y-157.3
X200.0Y-157.3
X204.0Y-157.3
X208.0Y-157.3
X212.0Y-138.7
X212.0Y-157.3
X216.0Y-138.7
X216.0Y-157.3
X220.0Y-138.7
X220.0Y-157.3
X224.0Y-138.7
X224.0Y-157.3
X228.0Y-138.7
X228.0Y-157.3
X232.0Y-157.3
X236.0Y-157.3
X240.0Y-157.3
X248.0Y-157.3
X252.0Y-138.7
X256.0Y-138.7
X256.0Y-157.3
X261.0Y-145.4
X261.0Y-150.6
X264.0Y-145.4
X264.0Y-150.6
X267.0Y-145.4
X267.0Y-150.6
X270.0Y-145.4
X270.0Y-150.6
X273.0Y-145.4
X273.0Y-150.6
X276.0Y-145.4
X276.0Y-150.6
X279.0Y-145.4
X279.0Y-150.6
X282.0Y-145.4
X282.0Y-150.6
X285.0Y-145.4
X285.0Y-150.6
X288.0Y-145.4
X288.0Y-150.6
X292.0Y-140.4
X292.0Y-155.6
X296.0Y-140.4
X296.0Y-155.6
X300.0Y-140.4
X300.0Y-155.6
X304.0Y-140.4
X304.0Y-155.6
T3
X186.358Y-141.155
X188.272Y-146.183
X188.829Y-142.191
X188.843Y-145.316
X197.298Y-153.722
X198.27Y-154.445
X198.53Y-153.211
X200.044Y-141.197
X200.746Y-149.252
X202.221Y-155.201
X209.884Y-141.707
X210.394Y-151.124
X211.213Y-151.488
X211.234Y-149.7
X211.397Y-148.829
X212.246Y-152.509
X217.888Y-144.878
X220.392Y-154.5
X223.886Y-154.534
X226.623Y-151.638
X227.144Y-155.112
X250.814Y-152.0
M30
