M48
; DRILL file KiCad 10.0.4 date 2026-08-31T21:17:39
; FORMAT={-:-/ absolute / metric / decimal}
; #@! TF.CreationDate,2026-08-31T21:17:39+02:00
; #@! TF.GenerationSoftware,Kicad,Pcbnew,10.0.4
; #@! TF.FileFunction,Plated,1,4,PTH
FMAT,2
METRIC
; #@! TA.AperFunction,Plated,PTH,ViaDrill
T1C0.100
%
G90
G05
T1
X113.922Y-152.877
X114.914Y-142.445
X115.241Y-150.329
X115.941Y-141.556
X116.0Y-140.4
X116.0Y-155.6
X116.209Y-146.096
X116.209Y-147.849
X116.316Y-149.865
X116.32Y-151.135
X116.445Y-153.5
X117.25Y-145.305
X117.25Y-146.25
X117.25Y-149.75
X117.973Y-147.425
X118.056Y-151.163
X118.132Y-146.25
X118.279Y-148.721
X119.111Y-144.521
X119.135Y-153.5
X120.0Y-140.4
X120.0Y-155.6
X120.25Y-146.25
X120.25Y-149.75
X120.446Y-148.285
X121.604Y-146.349
X122.461Y-153.5
X122.922Y-147.849
X123.021Y-141.472
X134.0Y-145.4
X134.0Y-150.6
X137.0Y-145.4
X137.0Y-150.6
X140.0Y-145.4
X140.0Y-150.6
X143.0Y-145.4
X143.0Y-150.6
X146.0Y-145.4
X146.0Y-150.6
X149.0Y-145.4
X149.0Y-150.6
X152.0Y-145.4
X152.0Y-150.6
X153.248Y-148.621
X155.0Y-145.4
X155.0Y-150.6
X158.0Y-145.4
X158.0Y-150.6
X160.52Y-152.538
X161.0Y-145.4
X161.0Y-150.6
X162.5Y-147.441
X163.834Y-148.705
X164.0Y-138.7
X166.752Y-151.144
X166.867Y-141.0
X167.345Y-151.134
X167.537Y-142.291
X167.75Y-149.371
X168.0Y-138.7
X168.811Y-151.132
X169.051Y-152.021
X169.25Y-151.128
X170.073Y-149.189
X172.0Y-138.7
X172.113Y-151.022
X174.812Y-149.556
X175.008Y-148.528
X175.299Y-148.251
X176.0Y-138.7
X176.0Y-157.3
X180.0Y-138.7
X180.0Y-157.3
X181.052Y-142.498
X182.067Y-144.957
X182.561Y-148.283
X182.813Y-148.765
X183.028Y-149.2
X183.539Y-143.774
X184.0Y-138.7
X184.0Y-157.3
X184.633Y-142.466
X187.433Y-149.2
X187.477Y-148.096
X187.497Y-147.308
X187.521Y-141.914
X187.878Y-153.35
X187.98Y-146.253
X188.0Y-138.7
X188.0Y-157.3
X188.777Y-148.096
X189.044Y-146.321
X189.49Y-147.383
X189.805Y-147.056
X189.921Y-148.6
X190.076Y-149.829
X190.228Y-151.555
X190.338Y-149.593
X190.363Y-148.936
X190.414Y-147.877
X190.416Y-150.147
X190.418Y-147.525
X190.421Y-147.173
X190.6Y-151.256
X190.71Y-150.54
X190.868Y-152.294
X190.942Y-144.57
X191.194Y-150.537
X191.413Y-145.05
X191.472Y-150.79
X191.7Y-151.588
X192.0Y-138.7
X192.0Y-157.3
X192.333Y-151.578
X192.338Y-151.941
X192.452Y-144.409
X192.955Y-144.411
X193.174Y-151.573
X193.678Y-151.579
X193.8Y-144.414
X194.2Y-144.407
X194.25Y-151.577
X194.643Y-152.147
X195.0Y-144.406
X195.8Y-144.418
X196.0Y-138.7
X196.0Y-157.3
X196.528Y-144.745
X196.601Y-142.494
X196.754Y-150.58
X197.117Y-150.76
X197.412Y-151.019
X197.655Y-145.844
X197.909Y-142.419
X198.189Y-148.744
X198.399Y-155.211
X198.406Y-149.5
X198.493Y-153.624
X198.564Y-148.044
X198.607Y-147.661
X198.758Y-149.474
X198.772Y-146.207
X199.087Y-145.374
X199.488Y-141.987
X199.517Y-145.812
X199.831Y-153.655
X199.997Y-150.767
X200.0Y-138.7
X200.0Y-157.3
X200.457Y-151.54
X200.764Y-147.438
X201.495Y-144.441
X201.687Y-141.965
X202.547Y-143.822
X202.768Y-143.178
X203.655Y-150.499
X204.0Y-138.7
X204.0Y-157.3
X204.262Y-141.553
X205.67Y-141.549
X208.0Y-138.7
X208.0Y-157.3
X208.375Y-149.612
X208.39Y-147.378
X208.596Y-152.956
X208.816Y-146.2
X208.935Y-143.265
X209.727Y-145.275
X209.727Y-147.125
X209.838Y-146.686
X210.157Y-152.907
X210.162Y-143.049
X210.843Y-150.57
X211.25Y-153.765
X211.543Y-150.062
X211.662Y-151.131
X212.0Y-138.7
X212.0Y-157.3
X212.209Y-143.829
X212.268Y-143.32
X212.568Y-153.777
X212.807Y-150.12
X213.662Y-150.156
X214.03Y-142.076
X215.052Y-144.102
X216.0Y-138.7
X216.036Y-142.016
X216.054Y-146.16
X216.124Y-147.625
X216.185Y-147.072
X216.432Y-146.645
X216.796Y-147.683
X217.317Y-147.625
X217.407Y-152.313
X218.096Y-142.076
X218.564Y-150.846
X220.0Y-138.7
X220.399Y-154.172
X224.0Y-138.7
X225.584Y-148.66
X225.939Y-147.784
X225.969Y-151.177
X226.078Y-146.683
X226.553Y-149.208
X226.936Y-141.916
X227.895Y-141.086
X228.0Y-138.7
X228.333Y-145.332
X228.466Y-145.946
X228.84Y-143.86
X229.56Y-149.26
X230.474Y-142.231
X230.862Y-149.865
X231.005Y-143.12
X231.353Y-144.021
X232.0Y-138.7
X232.0Y-157.3
X232.058Y-141.877
X232.439Y-142.404
X232.812Y-146.703
X232.828Y-147.817
X232.842Y-150.85
X232.933Y-140.991
X233.006Y-145.06
X233.264Y-143.897
X233.599Y-147.5
X233.607Y-147.103
X233.991Y-141.15
X236.0Y-138.7
X236.0Y-157.3
X236.119Y-151.0
X236.17Y-152.3
X236.35Y-141.52
X237.511Y-153.382
X237.944Y-139.915
X238.102Y-149.637
X238.569Y-146.121
X238.991Y-154.55
X238.995Y-143.995
X239.523Y-147.467
X239.9Y-149.842
X239.9Y-150.454
X239.918Y-155.293
X240.0Y-138.7
X240.0Y-157.3
X240.167Y-139.915
X240.4Y-148.74
X240.452Y-147.177
X240.588Y-157.357
X240.91Y-156.896
X240.927Y-148.29
X241.175Y-157.168
X241.179Y-153.313
X242.75Y-147.023
X242.911Y-146.416
X242.942Y-140.0
X243.132Y-154.395
X243.517Y-155.459
X243.693Y-145.95
X243.715Y-153.313
X243.773Y-149.41
X243.83Y-152.3
X243.838Y-154.981
X243.839Y-151.63
X244.0Y-138.7
X244.067Y-152.698
X244.142Y-154.745
X244.382Y-147.05
X244.828Y-155.668
X245.745Y-141.962
X245.946Y-153.597
X246.008Y-149.907
X246.121Y-149.445
X246.276Y-140.231
X246.294Y-151.242
X247.111Y-155.658
X247.2Y-154.817
X247.292Y-147.154
X247.581Y-148.199
X247.835Y-141.24
X248.994Y-150.173
X249.349Y-155.457
X249.545Y-141.481
X249.701Y-155.348
X250.076Y-140.952
X250.125Y-140.223
X250.205Y-145.25
X250.839Y-156.022
X250.985Y-147.376
X251.953Y-154.45
X252.0Y-157.3
X252.128Y-147.378
X252.55Y-157.224
X252.783Y-154.248
X253.253Y-153.345
X253.313Y-142.427
X253.561Y-142.178
X253.817Y-141.936
X254.361Y-141.772
X254.713Y-141.782
X254.923Y-156.801
X255.1Y-141.781
X255.349Y-141.026
X255.512Y-154.869
X255.854Y-153.967
X256.0Y-157.3
X256.043Y-153.653
X256.154Y-141.32
X256.431Y-153.347
X256.6Y-141.414
X257.1Y-141.044
X257.6Y-141.027
X257.78Y-142.043
X257.964Y-141.037
X258.423Y-141.212
X258.629Y-157.3
X259.705Y-141.412
X259.756Y-154.05
X259.774Y-141.04
X259.801Y-148.612
X260.008Y-151.425
X260.14Y-141.614
X260.172Y-149.605
X260.172Y-150.016
X260.172Y-150.775
X260.317Y-152.222
X260.319Y-154.123
X260.322Y-152.725
X260.358Y-141.05
X260.38Y-148.527
X261.1Y-141.053
X264.607Y-148.825
X265.747Y-154.675
X266.414Y-149.607
X266.455Y-139.915
X266.491Y-152.353
X266.785Y-153.073
X266.857Y-150.065
X266.87Y-150.942
X267.0Y-145.4
X267.02Y-151.425
X267.196Y-153.085
X267.312Y-152.733
X267.323Y-153.936
X267.346Y-155.058
X269.0Y-147.675
X273.0Y-145.4
X273.0Y-150.6
X273.013Y-153.896
X273.579Y-152.935
X276.0Y-145.4
X276.0Y-150.6
X279.0Y-145.4
X279.0Y-150.6
X282.0Y-145.4
X282.0Y-150.6
X285.0Y-145.4
X285.0Y-150.6
X288.0Y-145.4
X288.0Y-150.6
X296.0Y-155.6
X296.479Y-153.959
X296.982Y-142.438
X298.41Y-153.446
X299.75Y-146.25
X299.75Y-149.75
X300.0Y-140.4
X300.0Y-155.6
X300.006Y-142.126
X300.25Y-145.296
X300.25Y-150.703
X300.401Y-144.861
X300.903Y-152.166
X302.25Y-141.45
X302.25Y-145.392
X302.75Y-146.25
X302.75Y-149.75
X303.025Y-150.546
X303.113Y-145.819
X303.677Y-146.25
X303.683Y-148.183
X303.683Y-149.629
X304.0Y-140.4
X304.0Y-155.6
X304.078Y-150.239
X304.451Y-149.939
M30
