%TF.GenerationSoftware,KiCad,Pcbnew,10.0.4*%
%TF.CreationDate,2026-08-31T16:36:36+02:00*%
%TF.ProjectId,smartbag_optics,736d6172-7462-4616-975f-6f7074696373,rev?*%
%TF.SameCoordinates,Original*%
%TF.FileFunction,Drillmap*%
%TF.FilePolarity,Positive*%
%FSLAX45Y45*%
G04 Gerber Fmt 4.5, Leading zero omitted, Abs format (unit mm)*
G04 Created by KiCad (PCBNEW 10.0.4) date 2026-08-31 16:36:36*
%MOMM*%
%LPD*%
G01*
G04 APERTURE LIST*
%ADD10C,0.100000*%
%ADD11C,0.200000*%
G04 APERTURE END LIST*
D10*
X14800000Y-14200000D02*
X28200000Y-14200000D01*
X14800000Y-15400000D02*
X14800000Y-14200000D01*
X28200000Y-14200000D02*
X28200000Y-15400000D01*
X28200000Y-15400000D02*
X14800000Y-15400000D01*
D11*
D10*
X17599226Y-14455656D02*
X17609226Y-14465656D01*
X17609226Y-14455656D02*
X17599226Y-14465656D01*
X18953670Y-14699250D02*
X18963670Y-14709250D01*
X18963670Y-14699250D02*
X18953670Y-14709250D01*
X19091690Y-14481030D02*
X19101690Y-14491030D01*
X19101690Y-14481030D02*
X19091690Y-14491030D01*
X19309804Y-14496481D02*
X19319804Y-14506481D01*
X19319804Y-14496481D02*
X19309804Y-14506481D01*
X20588650Y-14462360D02*
X20598650Y-14472360D01*
X20598650Y-14462360D02*
X20588650Y-14472360D01*
X20590060Y-14854340D02*
X20600060Y-14864340D01*
X20600060Y-14854340D02*
X20590060Y-14864340D01*
X20898979Y-14450511D02*
X20908979Y-14460511D01*
X20908979Y-14450511D02*
X20898979Y-14460511D01*
X21805440Y-14616500D02*
X21815440Y-14626500D01*
X21815440Y-14616500D02*
X21805440Y-14626500D01*
X22194750Y-14497500D02*
X22204750Y-14507500D01*
X22204750Y-14497500D02*
X22194750Y-14507500D01*
X22195000Y-14854500D02*
X22205000Y-14864500D01*
X22205000Y-14854500D02*
X22195000Y-14864500D01*
X22319994Y-14767242D02*
X22329994Y-14777242D01*
X22329994Y-14767242D02*
X22319994Y-14777242D01*
X25279496Y-14530111D02*
X25289496Y-14540111D01*
X25289496Y-14530111D02*
X25279496Y-14540111D01*
X25379050Y-14513500D02*
X25389050Y-14523500D01*
X25389050Y-14513500D02*
X25379050Y-14523500D01*
X25401150Y-14900920D02*
X25411150Y-14910920D01*
X25411150Y-14900920D02*
X25401150Y-14910920D01*
X25504410Y-14528263D02*
X25514410Y-14538263D01*
X25514410Y-14528263D02*
X25504410Y-14538263D01*
X25696960Y-14711259D02*
X25706960Y-14721259D01*
X25706960Y-14711259D02*
X25696960Y-14721259D01*
X25773120Y-14941250D02*
X25783120Y-14951250D01*
X25783120Y-14941250D02*
X25773120Y-14951250D01*
X25787580Y-14822470D02*
X25797580Y-14832470D01*
X25797580Y-14822470D02*
X25787580Y-14832470D01*
X26145090Y-14973500D02*
X26155090Y-14983500D01*
X26155090Y-14973500D02*
X26145090Y-14983500D01*
X26641050Y-14486840D02*
X26651050Y-14496840D01*
X26651050Y-14486840D02*
X26641050Y-14496840D01*
X26725270Y-14509000D02*
X26735270Y-14519000D01*
X26735270Y-14509000D02*
X26725270Y-14519000D01*
X26764880Y-14491500D02*
X26774880Y-14501500D01*
X26774880Y-14491500D02*
X26764880Y-14501500D01*
X26788470Y-14448512D02*
X26798470Y-14458512D01*
X26798470Y-14448512D02*
X26788470Y-14458512D01*
X26801360Y-14499990D02*
X26811360Y-14509990D01*
X26811360Y-14499990D02*
X26801360Y-14509990D01*
X26888920Y-14703140D02*
X26898920Y-14713140D01*
X26898920Y-14703140D02*
X26888920Y-14713140D01*
X27137010Y-14735500D02*
X27147010Y-14745500D01*
X27147010Y-14735500D02*
X27137010Y-14745500D01*
D11*
X15055777Y-15716484D02*
X15055777Y-15516484D01*
X15055777Y-15516484D02*
X15103396Y-15516484D01*
X15103396Y-15516484D02*
X15131967Y-15526008D01*
X15131967Y-15526008D02*
X15151015Y-15545055D01*
X15151015Y-15545055D02*
X15160539Y-15564103D01*
X15160539Y-15564103D02*
X15170062Y-15602198D01*
X15170062Y-15602198D02*
X15170062Y-15630769D01*
X15170062Y-15630769D02*
X15160539Y-15668865D01*
X15160539Y-15668865D02*
X15151015Y-15687912D01*
X15151015Y-15687912D02*
X15131967Y-15706960D01*
X15131967Y-15706960D02*
X15103396Y-15716484D01*
X15103396Y-15716484D02*
X15055777Y-15716484D01*
X15255777Y-15716484D02*
X15255777Y-15583150D01*
X15255777Y-15621246D02*
X15265301Y-15602198D01*
X15265301Y-15602198D02*
X15274824Y-15592674D01*
X15274824Y-15592674D02*
X15293872Y-15583150D01*
X15293872Y-15583150D02*
X15312920Y-15583150D01*
X15379586Y-15716484D02*
X15379586Y-15583150D01*
X15379586Y-15516484D02*
X15370062Y-15526008D01*
X15370062Y-15526008D02*
X15379586Y-15535531D01*
X15379586Y-15535531D02*
X15389110Y-15526008D01*
X15389110Y-15526008D02*
X15379586Y-15516484D01*
X15379586Y-15516484D02*
X15379586Y-15535531D01*
X15503396Y-15716484D02*
X15484348Y-15706960D01*
X15484348Y-15706960D02*
X15474824Y-15687912D01*
X15474824Y-15687912D02*
X15474824Y-15516484D01*
X15608158Y-15716484D02*
X15589110Y-15706960D01*
X15589110Y-15706960D02*
X15579586Y-15687912D01*
X15579586Y-15687912D02*
X15579586Y-15516484D01*
X15836729Y-15716484D02*
X15836729Y-15516484D01*
X15836729Y-15516484D02*
X15903396Y-15659341D01*
X15903396Y-15659341D02*
X15970062Y-15516484D01*
X15970062Y-15516484D02*
X15970062Y-15716484D01*
X16151015Y-15716484D02*
X16151015Y-15611722D01*
X16151015Y-15611722D02*
X16141491Y-15592674D01*
X16141491Y-15592674D02*
X16122443Y-15583150D01*
X16122443Y-15583150D02*
X16084348Y-15583150D01*
X16084348Y-15583150D02*
X16065301Y-15592674D01*
X16151015Y-15706960D02*
X16131967Y-15716484D01*
X16131967Y-15716484D02*
X16084348Y-15716484D01*
X16084348Y-15716484D02*
X16065301Y-15706960D01*
X16065301Y-15706960D02*
X16055777Y-15687912D01*
X16055777Y-15687912D02*
X16055777Y-15668865D01*
X16055777Y-15668865D02*
X16065301Y-15649817D01*
X16065301Y-15649817D02*
X16084348Y-15640293D01*
X16084348Y-15640293D02*
X16131967Y-15640293D01*
X16131967Y-15640293D02*
X16151015Y-15630769D01*
X16246253Y-15583150D02*
X16246253Y-15783150D01*
X16246253Y-15592674D02*
X16265301Y-15583150D01*
X16265301Y-15583150D02*
X16303396Y-15583150D01*
X16303396Y-15583150D02*
X16322443Y-15592674D01*
X16322443Y-15592674D02*
X16331967Y-15602198D01*
X16331967Y-15602198D02*
X16341491Y-15621246D01*
X16341491Y-15621246D02*
X16341491Y-15678388D01*
X16341491Y-15678388D02*
X16331967Y-15697436D01*
X16331967Y-15697436D02*
X16322443Y-15706960D01*
X16322443Y-15706960D02*
X16303396Y-15716484D01*
X16303396Y-15716484D02*
X16265301Y-15716484D01*
X16265301Y-15716484D02*
X16246253Y-15706960D01*
X16427205Y-15697436D02*
X16436729Y-15706960D01*
X16436729Y-15706960D02*
X16427205Y-15716484D01*
X16427205Y-15716484D02*
X16417682Y-15706960D01*
X16417682Y-15706960D02*
X16427205Y-15697436D01*
X16427205Y-15697436D02*
X16427205Y-15716484D01*
X16427205Y-15592674D02*
X16436729Y-15602198D01*
X16436729Y-15602198D02*
X16427205Y-15611722D01*
X16427205Y-15611722D02*
X16417682Y-15602198D01*
X16417682Y-15602198D02*
X16427205Y-15592674D01*
X16427205Y-15592674D02*
X16427205Y-15611722D01*
D10*
X14785000Y-16040000D02*
X14795000Y-16050000D01*
X14795000Y-16040000D02*
X14785000Y-16050000D01*
D11*
X15093872Y-15936484D02*
X15112920Y-15936484D01*
X15112920Y-15936484D02*
X15131967Y-15946008D01*
X15131967Y-15946008D02*
X15141491Y-15955531D01*
X15141491Y-15955531D02*
X15151015Y-15974579D01*
X15151015Y-15974579D02*
X15160539Y-16012674D01*
X15160539Y-16012674D02*
X15160539Y-16060293D01*
X15160539Y-16060293D02*
X15151015Y-16098388D01*
X15151015Y-16098388D02*
X15141491Y-16117436D01*
X15141491Y-16117436D02*
X15131967Y-16126960D01*
X15131967Y-16126960D02*
X15112920Y-16136484D01*
X15112920Y-16136484D02*
X15093872Y-16136484D01*
X15093872Y-16136484D02*
X15074824Y-16126960D01*
X15074824Y-16126960D02*
X15065301Y-16117436D01*
X15065301Y-16117436D02*
X15055777Y-16098388D01*
X15055777Y-16098388D02*
X15046253Y-16060293D01*
X15046253Y-16060293D02*
X15046253Y-16012674D01*
X15046253Y-16012674D02*
X15055777Y-15974579D01*
X15055777Y-15974579D02*
X15065301Y-15955531D01*
X15065301Y-15955531D02*
X15074824Y-15946008D01*
X15074824Y-15946008D02*
X15093872Y-15936484D01*
X15246253Y-16117436D02*
X15255777Y-16126960D01*
X15255777Y-16126960D02*
X15246253Y-16136484D01*
X15246253Y-16136484D02*
X15236729Y-16126960D01*
X15236729Y-16126960D02*
X15246253Y-16117436D01*
X15246253Y-16117436D02*
X15246253Y-16136484D01*
X15446253Y-16136484D02*
X15331967Y-16136484D01*
X15389110Y-16136484D02*
X15389110Y-15936484D01*
X15389110Y-15936484D02*
X15370062Y-15965055D01*
X15370062Y-15965055D02*
X15351015Y-15984103D01*
X15351015Y-15984103D02*
X15331967Y-15993627D01*
X15570062Y-15936484D02*
X15589110Y-15936484D01*
X15589110Y-15936484D02*
X15608158Y-15946008D01*
X15608158Y-15946008D02*
X15617682Y-15955531D01*
X15617682Y-15955531D02*
X15627205Y-15974579D01*
X15627205Y-15974579D02*
X15636729Y-16012674D01*
X15636729Y-16012674D02*
X15636729Y-16060293D01*
X15636729Y-16060293D02*
X15627205Y-16098388D01*
X15627205Y-16098388D02*
X15617682Y-16117436D01*
X15617682Y-16117436D02*
X15608158Y-16126960D01*
X15608158Y-16126960D02*
X15589110Y-16136484D01*
X15589110Y-16136484D02*
X15570062Y-16136484D01*
X15570062Y-16136484D02*
X15551015Y-16126960D01*
X15551015Y-16126960D02*
X15541491Y-16117436D01*
X15541491Y-16117436D02*
X15531967Y-16098388D01*
X15531967Y-16098388D02*
X15522443Y-16060293D01*
X15522443Y-16060293D02*
X15522443Y-16012674D01*
X15522443Y-16012674D02*
X15531967Y-15974579D01*
X15531967Y-15974579D02*
X15541491Y-15955531D01*
X15541491Y-15955531D02*
X15551015Y-15946008D01*
X15551015Y-15946008D02*
X15570062Y-15936484D01*
X15760539Y-15936484D02*
X15779586Y-15936484D01*
X15779586Y-15936484D02*
X15798634Y-15946008D01*
X15798634Y-15946008D02*
X15808158Y-15955531D01*
X15808158Y-15955531D02*
X15817682Y-15974579D01*
X15817682Y-15974579D02*
X15827205Y-16012674D01*
X15827205Y-16012674D02*
X15827205Y-16060293D01*
X15827205Y-16060293D02*
X15817682Y-16098388D01*
X15817682Y-16098388D02*
X15808158Y-16117436D01*
X15808158Y-16117436D02*
X15798634Y-16126960D01*
X15798634Y-16126960D02*
X15779586Y-16136484D01*
X15779586Y-16136484D02*
X15760539Y-16136484D01*
X15760539Y-16136484D02*
X15741491Y-16126960D01*
X15741491Y-16126960D02*
X15731967Y-16117436D01*
X15731967Y-16117436D02*
X15722443Y-16098388D01*
X15722443Y-16098388D02*
X15712920Y-16060293D01*
X15712920Y-16060293D02*
X15712920Y-16012674D01*
X15712920Y-16012674D02*
X15722443Y-15974579D01*
X15722443Y-15974579D02*
X15731967Y-15955531D01*
X15731967Y-15955531D02*
X15741491Y-15946008D01*
X15741491Y-15946008D02*
X15760539Y-15936484D01*
X15912920Y-16136484D02*
X15912920Y-16003150D01*
X15912920Y-16022198D02*
X15922443Y-16012674D01*
X15922443Y-16012674D02*
X15941491Y-16003150D01*
X15941491Y-16003150D02*
X15970063Y-16003150D01*
X15970063Y-16003150D02*
X15989110Y-16012674D01*
X15989110Y-16012674D02*
X15998634Y-16031722D01*
X15998634Y-16031722D02*
X15998634Y-16136484D01*
X15998634Y-16031722D02*
X16008158Y-16012674D01*
X16008158Y-16012674D02*
X16027205Y-16003150D01*
X16027205Y-16003150D02*
X16055777Y-16003150D01*
X16055777Y-16003150D02*
X16074824Y-16012674D01*
X16074824Y-16012674D02*
X16084348Y-16031722D01*
X16084348Y-16031722D02*
X16084348Y-16136484D01*
X16179586Y-16136484D02*
X16179586Y-16003150D01*
X16179586Y-16022198D02*
X16189110Y-16012674D01*
X16189110Y-16012674D02*
X16208158Y-16003150D01*
X16208158Y-16003150D02*
X16236729Y-16003150D01*
X16236729Y-16003150D02*
X16255777Y-16012674D01*
X16255777Y-16012674D02*
X16265301Y-16031722D01*
X16265301Y-16031722D02*
X16265301Y-16136484D01*
X16265301Y-16031722D02*
X16274824Y-16012674D01*
X16274824Y-16012674D02*
X16293872Y-16003150D01*
X16293872Y-16003150D02*
X16322443Y-16003150D01*
X16322443Y-16003150D02*
X16341491Y-16012674D01*
X16341491Y-16012674D02*
X16351015Y-16031722D01*
X16351015Y-16031722D02*
X16351015Y-16136484D01*
X16741491Y-15926960D02*
X16570063Y-16184103D01*
X16998634Y-15936484D02*
X17017682Y-15936484D01*
X17017682Y-15936484D02*
X17036729Y-15946008D01*
X17036729Y-15946008D02*
X17046253Y-15955531D01*
X17046253Y-15955531D02*
X17055777Y-15974579D01*
X17055777Y-15974579D02*
X17065301Y-16012674D01*
X17065301Y-16012674D02*
X17065301Y-16060293D01*
X17065301Y-16060293D02*
X17055777Y-16098388D01*
X17055777Y-16098388D02*
X17046253Y-16117436D01*
X17046253Y-16117436D02*
X17036729Y-16126960D01*
X17036729Y-16126960D02*
X17017682Y-16136484D01*
X17017682Y-16136484D02*
X16998634Y-16136484D01*
X16998634Y-16136484D02*
X16979587Y-16126960D01*
X16979587Y-16126960D02*
X16970063Y-16117436D01*
X16970063Y-16117436D02*
X16960539Y-16098388D01*
X16960539Y-16098388D02*
X16951015Y-16060293D01*
X16951015Y-16060293D02*
X16951015Y-16012674D01*
X16951015Y-16012674D02*
X16960539Y-15974579D01*
X16960539Y-15974579D02*
X16970063Y-15955531D01*
X16970063Y-15955531D02*
X16979587Y-15946008D01*
X16979587Y-15946008D02*
X16998634Y-15936484D01*
X17151015Y-16117436D02*
X17160539Y-16126960D01*
X17160539Y-16126960D02*
X17151015Y-16136484D01*
X17151015Y-16136484D02*
X17141491Y-16126960D01*
X17141491Y-16126960D02*
X17151015Y-16117436D01*
X17151015Y-16117436D02*
X17151015Y-16136484D01*
X17284348Y-15936484D02*
X17303396Y-15936484D01*
X17303396Y-15936484D02*
X17322444Y-15946008D01*
X17322444Y-15946008D02*
X17331968Y-15955531D01*
X17331968Y-15955531D02*
X17341491Y-15974579D01*
X17341491Y-15974579D02*
X17351015Y-16012674D01*
X17351015Y-16012674D02*
X17351015Y-16060293D01*
X17351015Y-16060293D02*
X17341491Y-16098388D01*
X17341491Y-16098388D02*
X17331968Y-16117436D01*
X17331968Y-16117436D02*
X17322444Y-16126960D01*
X17322444Y-16126960D02*
X17303396Y-16136484D01*
X17303396Y-16136484D02*
X17284348Y-16136484D01*
X17284348Y-16136484D02*
X17265301Y-16126960D01*
X17265301Y-16126960D02*
X17255777Y-16117436D01*
X17255777Y-16117436D02*
X17246253Y-16098388D01*
X17246253Y-16098388D02*
X17236729Y-16060293D01*
X17236729Y-16060293D02*
X17236729Y-16012674D01*
X17236729Y-16012674D02*
X17246253Y-15974579D01*
X17246253Y-15974579D02*
X17255777Y-15955531D01*
X17255777Y-15955531D02*
X17265301Y-15946008D01*
X17265301Y-15946008D02*
X17284348Y-15936484D01*
X17474825Y-15936484D02*
X17493872Y-15936484D01*
X17493872Y-15936484D02*
X17512920Y-15946008D01*
X17512920Y-15946008D02*
X17522444Y-15955531D01*
X17522444Y-15955531D02*
X17531968Y-15974579D01*
X17531968Y-15974579D02*
X17541491Y-16012674D01*
X17541491Y-16012674D02*
X17541491Y-16060293D01*
X17541491Y-16060293D02*
X17531968Y-16098388D01*
X17531968Y-16098388D02*
X17522444Y-16117436D01*
X17522444Y-16117436D02*
X17512920Y-16126960D01*
X17512920Y-16126960D02*
X17493872Y-16136484D01*
X17493872Y-16136484D02*
X17474825Y-16136484D01*
X17474825Y-16136484D02*
X17455777Y-16126960D01*
X17455777Y-16126960D02*
X17446253Y-16117436D01*
X17446253Y-16117436D02*
X17436729Y-16098388D01*
X17436729Y-16098388D02*
X17427206Y-16060293D01*
X17427206Y-16060293D02*
X17427206Y-16012674D01*
X17427206Y-16012674D02*
X17436729Y-15974579D01*
X17436729Y-15974579D02*
X17446253Y-15955531D01*
X17446253Y-15955531D02*
X17455777Y-15946008D01*
X17455777Y-15946008D02*
X17474825Y-15936484D01*
X17608158Y-15936484D02*
X17731968Y-15936484D01*
X17731968Y-15936484D02*
X17665301Y-16012674D01*
X17665301Y-16012674D02*
X17693872Y-16012674D01*
X17693872Y-16012674D02*
X17712920Y-16022198D01*
X17712920Y-16022198D02*
X17722444Y-16031722D01*
X17722444Y-16031722D02*
X17731968Y-16050769D01*
X17731968Y-16050769D02*
X17731968Y-16098388D01*
X17731968Y-16098388D02*
X17722444Y-16117436D01*
X17722444Y-16117436D02*
X17712920Y-16126960D01*
X17712920Y-16126960D02*
X17693872Y-16136484D01*
X17693872Y-16136484D02*
X17636729Y-16136484D01*
X17636729Y-16136484D02*
X17617682Y-16126960D01*
X17617682Y-16126960D02*
X17608158Y-16117436D01*
X17827206Y-16136484D02*
X17865301Y-16136484D01*
X17865301Y-16136484D02*
X17884349Y-16126960D01*
X17884349Y-16126960D02*
X17893872Y-16117436D01*
X17893872Y-16117436D02*
X17912920Y-16088865D01*
X17912920Y-16088865D02*
X17922444Y-16050769D01*
X17922444Y-16050769D02*
X17922444Y-15974579D01*
X17922444Y-15974579D02*
X17912920Y-15955531D01*
X17912920Y-15955531D02*
X17903396Y-15946008D01*
X17903396Y-15946008D02*
X17884349Y-15936484D01*
X17884349Y-15936484D02*
X17846253Y-15936484D01*
X17846253Y-15936484D02*
X17827206Y-15946008D01*
X17827206Y-15946008D02*
X17817682Y-15955531D01*
X17817682Y-15955531D02*
X17808158Y-15974579D01*
X17808158Y-15974579D02*
X17808158Y-16022198D01*
X17808158Y-16022198D02*
X17817682Y-16041246D01*
X17817682Y-16041246D02*
X17827206Y-16050769D01*
X17827206Y-16050769D02*
X17846253Y-16060293D01*
X17846253Y-16060293D02*
X17884349Y-16060293D01*
X17884349Y-16060293D02*
X17903396Y-16050769D01*
X17903396Y-16050769D02*
X17912920Y-16041246D01*
X17912920Y-16041246D02*
X17922444Y-16022198D01*
X17998634Y-15936484D02*
X17998634Y-15974579D01*
X18074825Y-15936484D02*
X18074825Y-15974579D01*
X18370063Y-16212674D02*
X18360539Y-16203150D01*
X18360539Y-16203150D02*
X18341491Y-16174579D01*
X18341491Y-16174579D02*
X18331968Y-16155531D01*
X18331968Y-16155531D02*
X18322444Y-16126960D01*
X18322444Y-16126960D02*
X18312920Y-16079341D01*
X18312920Y-16079341D02*
X18312920Y-16041246D01*
X18312920Y-16041246D02*
X18322444Y-15993627D01*
X18322444Y-15993627D02*
X18331968Y-15965055D01*
X18331968Y-15965055D02*
X18341491Y-15946008D01*
X18341491Y-15946008D02*
X18360539Y-15917436D01*
X18360539Y-15917436D02*
X18370063Y-15907912D01*
X18436730Y-15955531D02*
X18446253Y-15946008D01*
X18446253Y-15946008D02*
X18465301Y-15936484D01*
X18465301Y-15936484D02*
X18512920Y-15936484D01*
X18512920Y-15936484D02*
X18531968Y-15946008D01*
X18531968Y-15946008D02*
X18541491Y-15955531D01*
X18541491Y-15955531D02*
X18551015Y-15974579D01*
X18551015Y-15974579D02*
X18551015Y-15993627D01*
X18551015Y-15993627D02*
X18541491Y-16022198D01*
X18541491Y-16022198D02*
X18427206Y-16136484D01*
X18427206Y-16136484D02*
X18551015Y-16136484D01*
X18722444Y-15936484D02*
X18684349Y-15936484D01*
X18684349Y-15936484D02*
X18665301Y-15946008D01*
X18665301Y-15946008D02*
X18655777Y-15955531D01*
X18655777Y-15955531D02*
X18636730Y-15984103D01*
X18636730Y-15984103D02*
X18627206Y-16022198D01*
X18627206Y-16022198D02*
X18627206Y-16098388D01*
X18627206Y-16098388D02*
X18636730Y-16117436D01*
X18636730Y-16117436D02*
X18646253Y-16126960D01*
X18646253Y-16126960D02*
X18665301Y-16136484D01*
X18665301Y-16136484D02*
X18703396Y-16136484D01*
X18703396Y-16136484D02*
X18722444Y-16126960D01*
X18722444Y-16126960D02*
X18731968Y-16117436D01*
X18731968Y-16117436D02*
X18741491Y-16098388D01*
X18741491Y-16098388D02*
X18741491Y-16050769D01*
X18741491Y-16050769D02*
X18731968Y-16031722D01*
X18731968Y-16031722D02*
X18722444Y-16022198D01*
X18722444Y-16022198D02*
X18703396Y-16012674D01*
X18703396Y-16012674D02*
X18665301Y-16012674D01*
X18665301Y-16012674D02*
X18646253Y-16022198D01*
X18646253Y-16022198D02*
X18636730Y-16031722D01*
X18636730Y-16031722D02*
X18627206Y-16050769D01*
X18979587Y-16136484D02*
X18979587Y-15936484D01*
X19065301Y-16136484D02*
X19065301Y-16031722D01*
X19065301Y-16031722D02*
X19055777Y-16012674D01*
X19055777Y-16012674D02*
X19036730Y-16003150D01*
X19036730Y-16003150D02*
X19008158Y-16003150D01*
X19008158Y-16003150D02*
X18989111Y-16012674D01*
X18989111Y-16012674D02*
X18979587Y-16022198D01*
X19189111Y-16136484D02*
X19170063Y-16126960D01*
X19170063Y-16126960D02*
X19160539Y-16117436D01*
X19160539Y-16117436D02*
X19151015Y-16098388D01*
X19151015Y-16098388D02*
X19151015Y-16041246D01*
X19151015Y-16041246D02*
X19160539Y-16022198D01*
X19160539Y-16022198D02*
X19170063Y-16012674D01*
X19170063Y-16012674D02*
X19189111Y-16003150D01*
X19189111Y-16003150D02*
X19217682Y-16003150D01*
X19217682Y-16003150D02*
X19236730Y-16012674D01*
X19236730Y-16012674D02*
X19246253Y-16022198D01*
X19246253Y-16022198D02*
X19255777Y-16041246D01*
X19255777Y-16041246D02*
X19255777Y-16098388D01*
X19255777Y-16098388D02*
X19246253Y-16117436D01*
X19246253Y-16117436D02*
X19236730Y-16126960D01*
X19236730Y-16126960D02*
X19217682Y-16136484D01*
X19217682Y-16136484D02*
X19189111Y-16136484D01*
X19370063Y-16136484D02*
X19351015Y-16126960D01*
X19351015Y-16126960D02*
X19341492Y-16107912D01*
X19341492Y-16107912D02*
X19341492Y-15936484D01*
X19522444Y-16126960D02*
X19503396Y-16136484D01*
X19503396Y-16136484D02*
X19465301Y-16136484D01*
X19465301Y-16136484D02*
X19446253Y-16126960D01*
X19446253Y-16126960D02*
X19436730Y-16107912D01*
X19436730Y-16107912D02*
X19436730Y-16031722D01*
X19436730Y-16031722D02*
X19446253Y-16012674D01*
X19446253Y-16012674D02*
X19465301Y-16003150D01*
X19465301Y-16003150D02*
X19503396Y-16003150D01*
X19503396Y-16003150D02*
X19522444Y-16012674D01*
X19522444Y-16012674D02*
X19531968Y-16031722D01*
X19531968Y-16031722D02*
X19531968Y-16050769D01*
X19531968Y-16050769D02*
X19436730Y-16069817D01*
X19608158Y-16126960D02*
X19627206Y-16136484D01*
X19627206Y-16136484D02*
X19665301Y-16136484D01*
X19665301Y-16136484D02*
X19684349Y-16126960D01*
X19684349Y-16126960D02*
X19693873Y-16107912D01*
X19693873Y-16107912D02*
X19693873Y-16098388D01*
X19693873Y-16098388D02*
X19684349Y-16079341D01*
X19684349Y-16079341D02*
X19665301Y-16069817D01*
X19665301Y-16069817D02*
X19636730Y-16069817D01*
X19636730Y-16069817D02*
X19617682Y-16060293D01*
X19617682Y-16060293D02*
X19608158Y-16041246D01*
X19608158Y-16041246D02*
X19608158Y-16031722D01*
X19608158Y-16031722D02*
X19617682Y-16012674D01*
X19617682Y-16012674D02*
X19636730Y-16003150D01*
X19636730Y-16003150D02*
X19665301Y-16003150D01*
X19665301Y-16003150D02*
X19684349Y-16012674D01*
X19760539Y-16212674D02*
X19770063Y-16203150D01*
X19770063Y-16203150D02*
X19789111Y-16174579D01*
X19789111Y-16174579D02*
X19798634Y-16155531D01*
X19798634Y-16155531D02*
X19808158Y-16126960D01*
X19808158Y-16126960D02*
X19817682Y-16079341D01*
X19817682Y-16079341D02*
X19817682Y-16041246D01*
X19817682Y-16041246D02*
X19808158Y-15993627D01*
X19808158Y-15993627D02*
X19798634Y-15965055D01*
X19798634Y-15965055D02*
X19789111Y-15946008D01*
X19789111Y-15946008D02*
X19770063Y-15917436D01*
X19770063Y-15917436D02*
X19760539Y-15907912D01*
M02*
