%TF.GenerationSoftware,KiCad,Pcbnew,10.0.4*%
%TF.CreationDate,2026-09-02T14:46:34+02:00*%
%TF.ProjectId,smartbag_optics,736d6172-7462-4616-975f-6f7074696373,rev?*%
%TF.SameCoordinates,Original*%
%TF.FileFunction,Drillmap*%
%TF.FilePolarity,Positive*%
%FSLAX45Y45*%
G04 Gerber Fmt 4.5, Leading zero omitted, Abs format (unit mm)*
G04 Created by KiCad (PCBNEW 10.0.4) date 2026-09-02 14:46:34*
%MOMM*%
%LPD*%
G01*
G04 APERTURE LIST*
%ADD10C,0.100000*%
%ADD11C,0.200000*%
G04 APERTURE END LIST*
D10*
X14800000Y-14200000D02*
X28200000Y-14200000D01*
X14800000Y-15400000D02*
X14800000Y-14200000D01*
X28200000Y-14200000D02*
X28200000Y-15400000D01*
X28200000Y-15400000D02*
X14800000Y-15400000D01*
D11*
X15055777Y-15716484D02*
X15055777Y-15516484D01*
X15055777Y-15516484D02*
X15103396Y-15516484D01*
X15103396Y-15516484D02*
X15131967Y-15526008D01*
X15131967Y-15526008D02*
X15151015Y-15545055D01*
X15151015Y-15545055D02*
X15160539Y-15564103D01*
X15160539Y-15564103D02*
X15170062Y-15602198D01*
X15170062Y-15602198D02*
X15170062Y-15630769D01*
X15170062Y-15630769D02*
X15160539Y-15668865D01*
X15160539Y-15668865D02*
X15151015Y-15687912D01*
X15151015Y-15687912D02*
X15131967Y-15706960D01*
X15131967Y-15706960D02*
X15103396Y-15716484D01*
X15103396Y-15716484D02*
X15055777Y-15716484D01*
X15255777Y-15716484D02*
X15255777Y-15583150D01*
X15255777Y-15621246D02*
X15265301Y-15602198D01*
X15265301Y-15602198D02*
X15274824Y-15592674D01*
X15274824Y-15592674D02*
X15293872Y-15583150D01*
X15293872Y-15583150D02*
X15312920Y-15583150D01*
X15379586Y-15716484D02*
X15379586Y-15583150D01*
X15379586Y-15516484D02*
X15370062Y-15526008D01*
X15370062Y-15526008D02*
X15379586Y-15535531D01*
X15379586Y-15535531D02*
X15389110Y-15526008D01*
X15389110Y-15526008D02*
X15379586Y-15516484D01*
X15379586Y-15516484D02*
X15379586Y-15535531D01*
X15503396Y-15716484D02*
X15484348Y-15706960D01*
X15484348Y-15706960D02*
X15474824Y-15687912D01*
X15474824Y-15687912D02*
X15474824Y-15516484D01*
X15608158Y-15716484D02*
X15589110Y-15706960D01*
X15589110Y-15706960D02*
X15579586Y-15687912D01*
X15579586Y-15687912D02*
X15579586Y-15516484D01*
X15836729Y-15716484D02*
X15836729Y-15516484D01*
X15836729Y-15516484D02*
X15903396Y-15659341D01*
X15903396Y-15659341D02*
X15970062Y-15516484D01*
X15970062Y-15516484D02*
X15970062Y-15716484D01*
X16151015Y-15716484D02*
X16151015Y-15611722D01*
X16151015Y-15611722D02*
X16141491Y-15592674D01*
X16141491Y-15592674D02*
X16122443Y-15583150D01*
X16122443Y-15583150D02*
X16084348Y-15583150D01*
X16084348Y-15583150D02*
X16065301Y-15592674D01*
X16151015Y-15706960D02*
X16131967Y-15716484D01*
X16131967Y-15716484D02*
X16084348Y-15716484D01*
X16084348Y-15716484D02*
X16065301Y-15706960D01*
X16065301Y-15706960D02*
X16055777Y-15687912D01*
X16055777Y-15687912D02*
X16055777Y-15668865D01*
X16055777Y-15668865D02*
X16065301Y-15649817D01*
X16065301Y-15649817D02*
X16084348Y-15640293D01*
X16084348Y-15640293D02*
X16131967Y-15640293D01*
X16131967Y-15640293D02*
X16151015Y-15630769D01*
X16246253Y-15583150D02*
X16246253Y-15783150D01*
X16246253Y-15592674D02*
X16265301Y-15583150D01*
X16265301Y-15583150D02*
X16303396Y-15583150D01*
X16303396Y-15583150D02*
X16322443Y-15592674D01*
X16322443Y-15592674D02*
X16331967Y-15602198D01*
X16331967Y-15602198D02*
X16341491Y-15621246D01*
X16341491Y-15621246D02*
X16341491Y-15678388D01*
X16341491Y-15678388D02*
X16331967Y-15697436D01*
X16331967Y-15697436D02*
X16322443Y-15706960D01*
X16322443Y-15706960D02*
X16303396Y-15716484D01*
X16303396Y-15716484D02*
X16265301Y-15716484D01*
X16265301Y-15716484D02*
X16246253Y-15706960D01*
X16427205Y-15697436D02*
X16436729Y-15706960D01*
X16436729Y-15706960D02*
X16427205Y-15716484D01*
X16427205Y-15716484D02*
X16417682Y-15706960D01*
X16417682Y-15706960D02*
X16427205Y-15697436D01*
X16427205Y-15697436D02*
X16427205Y-15716484D01*
X16427205Y-15592674D02*
X16436729Y-15602198D01*
X16436729Y-15602198D02*
X16427205Y-15611722D01*
X16427205Y-15611722D02*
X16417682Y-15602198D01*
X16417682Y-15602198D02*
X16427205Y-15592674D01*
X16427205Y-15592674D02*
X16427205Y-15611722D01*
M02*
