M48
; DRILL file KiCad 10.0.4 date 2026-09-01T18:39:04
; FORMAT={-:-/ absolute / metric / decimal}
; #@! TF.CreationDate,2026-09-01T18:39:04+02:00
; #@! TF.GenerationSoftware,Kicad,Pcbnew,10.0.4
; #@! TF.FileFunction,Plated,1,2,PTH
FMAT,2
METRIC
; #@! TA.AperFunction,Plated,PTH,ViaDrill
T1C0.100
%
G90
G05
T1
X176.042Y-144.607
X189.587Y-147.042
X190.967Y-144.86
X205.936Y-144.674
X205.951Y-148.593
X209.04Y-144.555
X218.104Y-146.215
X221.998Y-145.025
X222.0Y-148.595
X223.25Y-147.722
X252.845Y-145.351
X253.84Y-145.185
X254.061Y-149.059
X255.094Y-145.333
X257.02Y-147.163
X257.781Y-149.463
X257.926Y-148.275
X261.501Y-149.785
X266.46Y-144.918
X267.303Y-145.14
X267.699Y-144.965
X267.935Y-144.535
X268.064Y-145.05
X268.939Y-147.081
X271.42Y-147.405
M30
